M48
;GenerationSoftware,Autodesk,EAGLE,9.7.0*%
;CreationDate,2023-12-11T07:44:53Z*%
FMAT,2
ICI,OFF
METRIC,TZ,000.000
T9C0.350
T8C0.840
T7C0.890
T6C1.000
T5C1.016
T4C1.200
T3C1.520
T2C3.250
T1C4.500
%
G90
M71
T1
X4445Y38735
X4445Y4445
X31115Y4445
X31115Y38735
T2
X8890Y24511
X20320Y24511
T3
X22480Y21561
X6730Y21561
T4
X24384Y33147
X21844Y33147
T5
X14973Y10020
X20053Y10020
X17513Y10020
X12433Y10020
X9893Y10020
T6
X11430Y33020
X13970Y35560
X16510Y33020
T7
X19050Y15621
X10160Y18161
X11430Y15621
X12700Y18161
X13970Y15621
X15240Y18161
X16510Y15621
X17780Y18161
T8
X27559Y17519
X27559Y20019
X27559Y22519
X27559Y25019
T9
X29337Y11684
M30