G04 EAGLE Gerber RS-274X export*
G75*
%MOMM*%
%FSLAX34Y34*%
%LPD*%
%INSolderpaste Top*%
%IPPOS*%
%AMOC8*
5,1,8,0,0,1.08239X$1,22.5*%
G01*
G04 Define Apertures*
%ADD10R,2.000000X1.500000*%
%ADD11R,2.715300X1.164600*%
%ADD12R,0.560000X0.629100*%
%ADD13R,0.629100X0.560000*%
%ADD14R,2.115300X4.415700*%
%ADD15R,2.000000X0.600000*%
%ADD16R,0.600000X2.000000*%
%ADD17R,0.973900X0.798700*%
%ADD18R,0.798700X0.973900*%
%ADD19R,0.355600X1.409700*%
%ADD20C,0.600000*%
%ADD21C,1.100000*%
%ADD22C,1.050000*%
%ADD23R,0.558800X1.981200*%
%ADD24C,0.150000*%
%ADD25R,0.977900X0.558800*%
%ADD26R,0.304800X1.168400*%
%ADD27C,0.147500*%
G36*
X1136808Y76100D02*
X1136808Y92200D01*
X1166862Y92200D01*
X1167389Y92131D01*
X1167884Y91926D01*
X1168308Y91600D01*
X1168634Y91175D01*
X1168839Y90681D01*
X1168908Y90153D01*
X1168908Y78147D01*
X1168839Y77619D01*
X1168634Y77125D01*
X1168308Y76700D01*
X1167884Y76374D01*
X1167389Y76169D01*
X1166862Y76100D01*
X1136808Y76100D01*
G37*
G36*
X1136808Y203100D02*
X1136808Y219200D01*
X1166862Y219200D01*
X1167389Y219131D01*
X1167884Y218926D01*
X1168308Y218600D01*
X1168634Y218175D01*
X1168839Y217681D01*
X1168908Y217153D01*
X1168908Y205147D01*
X1168839Y204619D01*
X1168634Y204125D01*
X1168308Y203700D01*
X1167884Y203374D01*
X1167389Y203169D01*
X1166862Y203100D01*
X1136808Y203100D01*
G37*
G36*
X1136808Y330100D02*
X1136808Y346200D01*
X1166862Y346200D01*
X1167389Y346131D01*
X1167884Y345926D01*
X1168308Y345600D01*
X1168634Y345175D01*
X1168839Y344681D01*
X1168908Y344153D01*
X1168908Y332147D01*
X1168839Y331619D01*
X1168634Y331125D01*
X1168308Y330700D01*
X1167884Y330374D01*
X1167389Y330169D01*
X1166862Y330100D01*
X1136808Y330100D01*
G37*
G36*
X1136808Y457100D02*
X1136808Y473200D01*
X1166862Y473200D01*
X1167389Y473131D01*
X1167884Y472926D01*
X1168308Y472600D01*
X1168634Y472175D01*
X1168839Y471681D01*
X1168908Y471153D01*
X1168908Y459147D01*
X1168839Y458619D01*
X1168634Y458125D01*
X1168308Y457700D01*
X1167884Y457374D01*
X1167389Y457169D01*
X1166862Y457100D01*
X1136808Y457100D01*
G37*
G36*
X1241708Y507647D02*
X1241708Y537700D01*
X1257808Y537700D01*
X1257808Y507647D01*
X1257739Y507119D01*
X1257534Y506625D01*
X1257208Y506200D01*
X1256784Y505874D01*
X1256289Y505669D01*
X1255762Y505600D01*
X1243755Y505600D01*
X1243228Y505669D01*
X1242733Y505874D01*
X1242309Y506200D01*
X1241983Y506625D01*
X1241778Y507119D01*
X1241708Y507647D01*
G37*
G36*
X1332128Y92131D02*
X1332655Y92200D01*
X1362708Y92200D01*
X1362708Y76100D01*
X1332655Y76100D01*
X1332128Y76169D01*
X1331633Y76374D01*
X1331209Y76700D01*
X1330883Y77125D01*
X1330678Y77619D01*
X1330608Y78147D01*
X1330608Y90153D01*
X1330678Y90681D01*
X1330883Y91175D01*
X1331209Y91600D01*
X1331633Y91926D01*
X1332128Y92131D01*
G37*
G36*
X1332128Y219131D02*
X1332655Y219200D01*
X1362708Y219200D01*
X1362708Y203100D01*
X1332655Y203100D01*
X1332128Y203169D01*
X1331633Y203374D01*
X1331209Y203700D01*
X1330883Y204125D01*
X1330678Y204619D01*
X1330608Y205147D01*
X1330608Y217153D01*
X1330678Y217681D01*
X1330883Y218175D01*
X1331209Y218600D01*
X1331633Y218926D01*
X1332128Y219131D01*
G37*
G36*
X1332128Y346131D02*
X1332655Y346200D01*
X1362708Y346200D01*
X1362708Y330100D01*
X1332655Y330100D01*
X1332128Y330169D01*
X1331633Y330374D01*
X1331209Y330700D01*
X1330883Y331125D01*
X1330678Y331619D01*
X1330608Y332147D01*
X1330608Y344153D01*
X1330678Y344681D01*
X1330883Y345175D01*
X1331209Y345600D01*
X1331633Y345926D01*
X1332128Y346131D01*
G37*
G36*
X1332128Y473131D02*
X1332655Y473200D01*
X1362708Y473200D01*
X1362708Y457100D01*
X1332655Y457100D01*
X1332128Y457169D01*
X1331633Y457374D01*
X1331209Y457700D01*
X1330883Y458125D01*
X1330678Y458619D01*
X1330608Y459147D01*
X1330608Y471153D01*
X1330678Y471681D01*
X1330883Y472175D01*
X1331209Y472600D01*
X1331633Y472926D01*
X1332128Y473131D01*
G37*
G36*
X1136808Y25300D02*
X1136808Y41400D01*
X1160861Y41400D01*
X1162429Y41246D01*
X1163939Y40787D01*
X1165331Y40044D01*
X1166551Y39042D01*
X1167552Y37822D01*
X1168296Y36431D01*
X1168754Y34921D01*
X1168909Y33350D01*
X1168754Y31779D01*
X1168296Y30269D01*
X1167552Y28878D01*
X1166551Y27658D01*
X1165331Y26656D01*
X1163939Y25913D01*
X1162429Y25454D01*
X1160861Y25300D01*
X1136808Y25300D01*
G37*
G36*
X1136808Y50700D02*
X1136808Y66800D01*
X1160861Y66800D01*
X1162429Y66646D01*
X1163939Y66187D01*
X1165331Y65444D01*
X1166551Y64442D01*
X1167552Y63222D01*
X1168296Y61831D01*
X1168754Y60321D01*
X1168909Y58750D01*
X1168754Y57179D01*
X1168296Y55669D01*
X1167552Y54278D01*
X1166551Y53058D01*
X1165331Y52056D01*
X1163939Y51313D01*
X1162429Y50854D01*
X1160861Y50700D01*
X1136808Y50700D01*
G37*
G36*
X1136808Y101500D02*
X1136808Y117600D01*
X1160861Y117600D01*
X1162429Y117446D01*
X1163939Y116987D01*
X1165331Y116244D01*
X1166551Y115242D01*
X1167552Y114022D01*
X1168296Y112631D01*
X1168754Y111121D01*
X1168909Y109550D01*
X1168754Y107979D01*
X1168296Y106469D01*
X1167552Y105078D01*
X1166551Y103858D01*
X1165331Y102856D01*
X1163939Y102113D01*
X1162429Y101654D01*
X1160861Y101500D01*
X1136808Y101500D01*
G37*
G36*
X1136808Y126900D02*
X1136808Y143000D01*
X1160861Y143000D01*
X1162429Y142846D01*
X1163939Y142387D01*
X1165331Y141644D01*
X1166551Y140642D01*
X1167552Y139422D01*
X1168296Y138031D01*
X1168754Y136521D01*
X1168909Y134950D01*
X1168754Y133379D01*
X1168296Y131869D01*
X1167552Y130478D01*
X1166551Y129258D01*
X1165331Y128256D01*
X1163939Y127513D01*
X1162429Y127054D01*
X1160861Y126900D01*
X1136808Y126900D01*
G37*
G36*
X1136808Y152300D02*
X1136808Y168400D01*
X1160861Y168400D01*
X1162429Y168246D01*
X1163939Y167787D01*
X1165331Y167044D01*
X1166551Y166042D01*
X1167552Y164822D01*
X1168296Y163431D01*
X1168754Y161921D01*
X1168909Y160350D01*
X1168754Y158779D01*
X1168296Y157269D01*
X1167552Y155878D01*
X1166551Y154658D01*
X1165331Y153656D01*
X1163939Y152913D01*
X1162429Y152454D01*
X1160861Y152300D01*
X1136808Y152300D01*
G37*
G36*
X1136808Y177700D02*
X1136808Y193800D01*
X1160861Y193800D01*
X1162429Y193646D01*
X1163939Y193187D01*
X1165331Y192444D01*
X1166551Y191442D01*
X1167552Y190222D01*
X1168296Y188831D01*
X1168754Y187321D01*
X1168909Y185750D01*
X1168754Y184179D01*
X1168296Y182669D01*
X1167552Y181278D01*
X1166551Y180058D01*
X1165331Y179056D01*
X1163939Y178313D01*
X1162429Y177854D01*
X1160861Y177700D01*
X1136808Y177700D01*
G37*
G36*
X1136808Y228500D02*
X1136808Y244600D01*
X1160861Y244600D01*
X1162429Y244446D01*
X1163939Y243987D01*
X1165331Y243244D01*
X1166551Y242242D01*
X1167552Y241022D01*
X1168296Y239631D01*
X1168754Y238121D01*
X1168909Y236550D01*
X1168754Y234979D01*
X1168296Y233469D01*
X1167552Y232078D01*
X1166551Y230858D01*
X1165331Y229856D01*
X1163939Y229113D01*
X1162429Y228654D01*
X1160861Y228500D01*
X1136808Y228500D01*
G37*
G36*
X1136808Y253900D02*
X1136808Y270000D01*
X1160861Y270000D01*
X1162429Y269846D01*
X1163939Y269387D01*
X1165331Y268644D01*
X1166551Y267642D01*
X1167552Y266422D01*
X1168296Y265031D01*
X1168754Y263521D01*
X1168909Y261950D01*
X1168754Y260379D01*
X1168296Y258869D01*
X1167552Y257478D01*
X1166551Y256258D01*
X1165331Y255256D01*
X1163939Y254513D01*
X1162429Y254054D01*
X1160861Y253900D01*
X1136808Y253900D01*
G37*
G36*
X1136808Y279300D02*
X1136808Y295400D01*
X1160861Y295400D01*
X1162429Y295246D01*
X1163939Y294787D01*
X1165331Y294044D01*
X1166551Y293042D01*
X1167552Y291822D01*
X1168296Y290431D01*
X1168754Y288921D01*
X1168909Y287350D01*
X1168754Y285779D01*
X1168296Y284269D01*
X1167552Y282878D01*
X1166551Y281658D01*
X1165331Y280656D01*
X1163939Y279913D01*
X1162429Y279454D01*
X1160861Y279300D01*
X1136808Y279300D01*
G37*
G36*
X1136808Y304700D02*
X1136808Y320800D01*
X1160861Y320800D01*
X1162429Y320646D01*
X1163939Y320187D01*
X1165331Y319444D01*
X1166551Y318442D01*
X1167552Y317222D01*
X1168296Y315831D01*
X1168754Y314321D01*
X1168909Y312750D01*
X1168754Y311179D01*
X1168296Y309669D01*
X1167552Y308278D01*
X1166551Y307058D01*
X1165331Y306056D01*
X1163939Y305313D01*
X1162429Y304854D01*
X1160861Y304700D01*
X1136808Y304700D01*
G37*
G36*
X1136808Y355500D02*
X1136808Y371600D01*
X1160861Y371600D01*
X1162429Y371446D01*
X1163939Y370987D01*
X1165331Y370244D01*
X1166551Y369242D01*
X1167552Y368022D01*
X1168296Y366631D01*
X1168754Y365121D01*
X1168909Y363550D01*
X1168754Y361979D01*
X1168296Y360469D01*
X1167552Y359078D01*
X1166551Y357858D01*
X1165331Y356856D01*
X1163939Y356113D01*
X1162429Y355654D01*
X1160861Y355500D01*
X1136808Y355500D01*
G37*
G36*
X1136808Y380900D02*
X1136808Y397000D01*
X1160861Y397000D01*
X1162429Y396846D01*
X1163939Y396387D01*
X1165331Y395644D01*
X1166551Y394642D01*
X1167552Y393422D01*
X1168296Y392031D01*
X1168754Y390521D01*
X1168909Y388950D01*
X1168754Y387379D01*
X1168296Y385869D01*
X1167552Y384478D01*
X1166551Y383258D01*
X1165331Y382256D01*
X1163939Y381513D01*
X1162429Y381054D01*
X1160861Y380900D01*
X1136808Y380900D01*
G37*
G36*
X1136808Y406300D02*
X1136808Y422400D01*
X1160861Y422400D01*
X1162429Y422246D01*
X1163939Y421787D01*
X1165331Y421044D01*
X1166551Y420042D01*
X1167552Y418822D01*
X1168296Y417431D01*
X1168754Y415921D01*
X1168909Y414350D01*
X1168754Y412779D01*
X1168296Y411269D01*
X1167552Y409878D01*
X1166551Y408658D01*
X1165331Y407656D01*
X1163939Y406913D01*
X1162429Y406454D01*
X1160861Y406300D01*
X1136808Y406300D01*
G37*
G36*
X1136808Y431700D02*
X1136808Y447800D01*
X1160861Y447800D01*
X1162429Y447646D01*
X1163939Y447187D01*
X1165331Y446444D01*
X1166551Y445442D01*
X1167552Y444222D01*
X1168296Y442831D01*
X1168754Y441321D01*
X1168909Y439750D01*
X1168754Y438179D01*
X1168296Y436669D01*
X1167552Y435278D01*
X1166551Y434058D01*
X1165331Y433056D01*
X1163939Y432313D01*
X1162429Y431854D01*
X1160861Y431700D01*
X1136808Y431700D01*
G37*
G36*
X1136808Y482500D02*
X1136808Y498600D01*
X1160861Y498600D01*
X1162429Y498446D01*
X1163939Y497987D01*
X1165331Y497244D01*
X1166551Y496242D01*
X1167552Y495022D01*
X1168296Y493631D01*
X1168754Y492121D01*
X1168909Y490550D01*
X1168754Y488979D01*
X1168296Y487469D01*
X1167552Y486078D01*
X1166551Y484858D01*
X1165331Y483856D01*
X1163939Y483113D01*
X1162429Y482654D01*
X1160861Y482500D01*
X1136808Y482500D01*
G37*
G36*
X1136808Y507900D02*
X1136808Y524000D01*
X1160861Y524000D01*
X1162429Y523846D01*
X1163939Y523387D01*
X1165331Y522644D01*
X1166551Y521642D01*
X1167552Y520422D01*
X1168296Y519031D01*
X1168754Y517521D01*
X1168909Y515950D01*
X1168754Y514379D01*
X1168296Y512869D01*
X1167552Y511478D01*
X1166551Y510258D01*
X1165331Y509256D01*
X1163939Y508513D01*
X1162429Y508054D01*
X1160861Y507900D01*
X1136808Y507900D01*
G37*
G36*
X1216308Y513648D02*
X1216308Y537700D01*
X1232408Y537700D01*
X1232408Y513648D01*
X1232254Y512079D01*
X1231796Y510569D01*
X1231052Y509178D01*
X1230051Y507958D01*
X1228831Y506956D01*
X1227439Y506213D01*
X1225929Y505754D01*
X1224358Y505600D01*
X1222788Y505754D01*
X1221278Y506213D01*
X1219886Y506956D01*
X1218666Y507958D01*
X1217665Y509178D01*
X1216921Y510569D01*
X1216463Y512079D01*
X1216308Y513648D01*
G37*
G36*
X1267108Y513648D02*
X1267108Y537700D01*
X1283208Y537700D01*
X1283208Y513648D01*
X1283054Y512079D01*
X1282596Y510569D01*
X1281852Y509178D01*
X1280851Y507958D01*
X1279631Y506956D01*
X1278239Y506213D01*
X1276729Y505754D01*
X1275158Y505600D01*
X1273588Y505754D01*
X1272078Y506213D01*
X1270686Y506956D01*
X1269466Y507958D01*
X1268465Y509178D01*
X1267721Y510569D01*
X1267263Y512079D01*
X1267108Y513648D01*
G37*
G36*
X1337088Y41246D02*
X1338656Y41400D01*
X1362708Y41400D01*
X1362708Y25300D01*
X1338656Y25300D01*
X1337088Y25454D01*
X1335578Y25913D01*
X1334186Y26656D01*
X1332966Y27658D01*
X1331965Y28878D01*
X1331221Y30269D01*
X1330763Y31779D01*
X1330608Y33350D01*
X1330763Y34921D01*
X1331221Y36431D01*
X1331965Y37822D01*
X1332966Y39042D01*
X1334186Y40044D01*
X1335578Y40787D01*
X1337088Y41246D01*
G37*
G36*
X1337088Y66646D02*
X1338656Y66800D01*
X1362708Y66800D01*
X1362708Y50700D01*
X1338656Y50700D01*
X1337088Y50854D01*
X1335578Y51313D01*
X1334186Y52056D01*
X1332966Y53058D01*
X1331965Y54278D01*
X1331221Y55669D01*
X1330763Y57179D01*
X1330608Y58750D01*
X1330763Y60321D01*
X1331221Y61831D01*
X1331965Y63222D01*
X1332966Y64442D01*
X1334186Y65444D01*
X1335578Y66187D01*
X1337088Y66646D01*
G37*
G36*
X1337088Y117446D02*
X1338656Y117600D01*
X1362708Y117600D01*
X1362708Y101500D01*
X1338656Y101500D01*
X1337088Y101654D01*
X1335578Y102113D01*
X1334186Y102856D01*
X1332966Y103858D01*
X1331965Y105078D01*
X1331221Y106469D01*
X1330763Y107979D01*
X1330608Y109550D01*
X1330763Y111121D01*
X1331221Y112631D01*
X1331965Y114022D01*
X1332966Y115242D01*
X1334186Y116244D01*
X1335578Y116987D01*
X1337088Y117446D01*
G37*
G36*
X1337088Y142846D02*
X1338656Y143000D01*
X1362708Y143000D01*
X1362708Y126900D01*
X1338656Y126900D01*
X1337088Y127054D01*
X1335578Y127513D01*
X1334186Y128256D01*
X1332966Y129258D01*
X1331965Y130478D01*
X1331221Y131869D01*
X1330763Y133379D01*
X1330608Y134950D01*
X1330763Y136521D01*
X1331221Y138031D01*
X1331965Y139422D01*
X1332966Y140642D01*
X1334186Y141644D01*
X1335578Y142387D01*
X1337088Y142846D01*
G37*
G36*
X1337088Y168246D02*
X1338656Y168400D01*
X1362708Y168400D01*
X1362708Y152300D01*
X1338656Y152300D01*
X1337088Y152454D01*
X1335578Y152913D01*
X1334186Y153656D01*
X1332966Y154658D01*
X1331965Y155878D01*
X1331221Y157269D01*
X1330763Y158779D01*
X1330608Y160350D01*
X1330763Y161921D01*
X1331221Y163431D01*
X1331965Y164822D01*
X1332966Y166042D01*
X1334186Y167044D01*
X1335578Y167787D01*
X1337088Y168246D01*
G37*
G36*
X1337088Y193646D02*
X1338656Y193800D01*
X1362708Y193800D01*
X1362708Y177700D01*
X1338656Y177700D01*
X1337088Y177854D01*
X1335578Y178313D01*
X1334186Y179056D01*
X1332966Y180058D01*
X1331965Y181278D01*
X1331221Y182669D01*
X1330763Y184179D01*
X1330608Y185750D01*
X1330763Y187321D01*
X1331221Y188831D01*
X1331965Y190222D01*
X1332966Y191442D01*
X1334186Y192444D01*
X1335578Y193187D01*
X1337088Y193646D01*
G37*
G36*
X1337088Y244446D02*
X1338656Y244600D01*
X1362708Y244600D01*
X1362708Y228500D01*
X1338656Y228500D01*
X1337088Y228654D01*
X1335578Y229113D01*
X1334186Y229856D01*
X1332966Y230858D01*
X1331965Y232078D01*
X1331221Y233469D01*
X1330763Y234979D01*
X1330608Y236550D01*
X1330763Y238121D01*
X1331221Y239631D01*
X1331965Y241022D01*
X1332966Y242242D01*
X1334186Y243244D01*
X1335578Y243987D01*
X1337088Y244446D01*
G37*
G36*
X1337088Y269846D02*
X1338656Y270000D01*
X1362708Y270000D01*
X1362708Y253900D01*
X1338656Y253900D01*
X1337088Y254054D01*
X1335578Y254513D01*
X1334186Y255256D01*
X1332966Y256258D01*
X1331965Y257478D01*
X1331221Y258869D01*
X1330763Y260379D01*
X1330608Y261950D01*
X1330763Y263521D01*
X1331221Y265031D01*
X1331965Y266422D01*
X1332966Y267642D01*
X1334186Y268644D01*
X1335578Y269387D01*
X1337088Y269846D01*
G37*
G36*
X1337088Y295246D02*
X1338656Y295400D01*
X1362708Y295400D01*
X1362708Y279300D01*
X1338656Y279300D01*
X1337088Y279454D01*
X1335578Y279913D01*
X1334186Y280656D01*
X1332966Y281658D01*
X1331965Y282878D01*
X1331221Y284269D01*
X1330763Y285779D01*
X1330608Y287350D01*
X1330763Y288921D01*
X1331221Y290431D01*
X1331965Y291822D01*
X1332966Y293042D01*
X1334186Y294044D01*
X1335578Y294787D01*
X1337088Y295246D01*
G37*
G36*
X1337088Y320646D02*
X1338656Y320800D01*
X1362708Y320800D01*
X1362708Y304700D01*
X1338656Y304700D01*
X1337088Y304854D01*
X1335578Y305313D01*
X1334186Y306056D01*
X1332966Y307058D01*
X1331965Y308278D01*
X1331221Y309669D01*
X1330763Y311179D01*
X1330608Y312750D01*
X1330763Y314321D01*
X1331221Y315831D01*
X1331965Y317222D01*
X1332966Y318442D01*
X1334186Y319444D01*
X1335578Y320187D01*
X1337088Y320646D01*
G37*
G36*
X1337088Y371446D02*
X1338656Y371600D01*
X1362708Y371600D01*
X1362708Y355500D01*
X1338656Y355500D01*
X1337088Y355654D01*
X1335578Y356113D01*
X1334186Y356856D01*
X1332966Y357858D01*
X1331965Y359078D01*
X1331221Y360469D01*
X1330763Y361979D01*
X1330608Y363550D01*
X1330763Y365121D01*
X1331221Y366631D01*
X1331965Y368022D01*
X1332966Y369242D01*
X1334186Y370244D01*
X1335578Y370987D01*
X1337088Y371446D01*
G37*
G36*
X1337088Y396846D02*
X1338656Y397000D01*
X1362708Y397000D01*
X1362708Y380900D01*
X1338656Y380900D01*
X1337088Y381054D01*
X1335578Y381513D01*
X1334186Y382256D01*
X1332966Y383258D01*
X1331965Y384478D01*
X1331221Y385869D01*
X1330763Y387379D01*
X1330608Y388950D01*
X1330763Y390521D01*
X1331221Y392031D01*
X1331965Y393422D01*
X1332966Y394642D01*
X1334186Y395644D01*
X1335578Y396387D01*
X1337088Y396846D01*
G37*
G36*
X1337088Y422246D02*
X1338656Y422400D01*
X1362708Y422400D01*
X1362708Y406300D01*
X1338656Y406300D01*
X1337088Y406454D01*
X1335578Y406913D01*
X1334186Y407656D01*
X1332966Y408658D01*
X1331965Y409878D01*
X1331221Y411269D01*
X1330763Y412779D01*
X1330608Y414350D01*
X1330763Y415921D01*
X1331221Y417431D01*
X1331965Y418822D01*
X1332966Y420042D01*
X1334186Y421044D01*
X1335578Y421787D01*
X1337088Y422246D01*
G37*
G36*
X1337088Y447646D02*
X1338656Y447800D01*
X1362708Y447800D01*
X1362708Y431700D01*
X1338656Y431700D01*
X1337088Y431854D01*
X1335578Y432313D01*
X1334186Y433056D01*
X1332966Y434058D01*
X1331965Y435278D01*
X1331221Y436669D01*
X1330763Y438179D01*
X1330608Y439750D01*
X1330763Y441321D01*
X1331221Y442831D01*
X1331965Y444222D01*
X1332966Y445442D01*
X1334186Y446444D01*
X1335578Y447187D01*
X1337088Y447646D01*
G37*
G36*
X1337088Y498446D02*
X1338656Y498600D01*
X1362708Y498600D01*
X1362708Y482500D01*
X1338656Y482500D01*
X1337088Y482654D01*
X1335578Y483113D01*
X1334186Y483856D01*
X1332966Y484858D01*
X1331965Y486078D01*
X1331221Y487469D01*
X1330763Y488979D01*
X1330608Y490550D01*
X1330763Y492121D01*
X1331221Y493631D01*
X1331965Y495022D01*
X1332966Y496242D01*
X1334186Y497244D01*
X1335578Y497987D01*
X1337088Y498446D01*
G37*
G36*
X1337088Y523846D02*
X1338656Y524000D01*
X1362708Y524000D01*
X1362708Y507900D01*
X1338656Y507900D01*
X1337088Y508054D01*
X1335578Y508513D01*
X1334186Y509256D01*
X1332966Y510258D01*
X1331965Y511478D01*
X1331221Y512869D01*
X1330763Y514379D01*
X1330608Y515950D01*
X1330763Y517521D01*
X1331221Y519031D01*
X1331965Y520422D01*
X1332966Y521642D01*
X1334186Y522644D01*
X1335578Y523387D01*
X1337088Y523846D01*
G37*
D10*
X285060Y820310D03*
X215060Y820310D03*
X215060Y786310D03*
X215060Y731310D03*
X285060Y748310D03*
X285060Y728310D03*
D11*
X1236750Y582974D03*
X1236750Y553466D03*
D12*
X458006Y268500D03*
X448314Y268500D03*
D13*
X443760Y454656D03*
X443760Y444964D03*
X434870Y454656D03*
X434870Y444964D03*
D14*
X1084050Y807510D03*
X1084050Y720456D03*
D13*
X256770Y404834D03*
X256770Y414526D03*
X450810Y350714D03*
X450810Y360406D03*
X238530Y313986D03*
X238530Y304294D03*
X245340Y404834D03*
X245340Y414526D03*
X440650Y350714D03*
X440650Y360406D03*
X247420Y313986D03*
X247420Y304294D03*
D12*
X458006Y278660D03*
X448314Y278660D03*
D15*
X473884Y402060D03*
X473884Y389360D03*
X473884Y376660D03*
X473884Y363960D03*
X473884Y351260D03*
X473884Y338560D03*
X473884Y325860D03*
X473884Y313160D03*
X473884Y300460D03*
X473884Y287760D03*
X473884Y275060D03*
X473884Y262360D03*
X473884Y249660D03*
X473884Y236960D03*
X567884Y236960D03*
X567884Y249660D03*
X567884Y262360D03*
X567884Y275060D03*
X567884Y287760D03*
X567884Y300460D03*
X567884Y313160D03*
X567884Y325860D03*
X567884Y338560D03*
X567884Y351260D03*
X567884Y363960D03*
X567884Y376660D03*
X567884Y389360D03*
X567884Y402060D03*
D16*
X319510Y474740D03*
X332210Y474740D03*
X344910Y474740D03*
X357610Y474740D03*
X370310Y474740D03*
X383010Y474740D03*
X395710Y474740D03*
X408410Y474740D03*
X421110Y474740D03*
X433810Y474740D03*
X446510Y474740D03*
X459210Y474740D03*
X471910Y474740D03*
X484610Y474740D03*
X484610Y568740D03*
X471910Y568740D03*
X459210Y568740D03*
X446510Y568740D03*
X433810Y568740D03*
X421110Y568740D03*
X408410Y568740D03*
X395710Y568740D03*
X383010Y568740D03*
X370310Y568740D03*
X357610Y568740D03*
X344910Y568740D03*
X332210Y568740D03*
X319510Y568740D03*
D17*
X1030280Y267082D03*
X1030280Y250778D03*
X176300Y297768D03*
X176300Y314072D03*
X180361Y421433D03*
X180361Y405129D03*
X195664Y421642D03*
X195664Y405338D03*
X212320Y421642D03*
X212320Y405338D03*
X227560Y421114D03*
X227560Y404810D03*
X643994Y266448D03*
X643994Y250144D03*
X926140Y265812D03*
X926140Y249508D03*
X644120Y238347D03*
X644120Y222043D03*
X649200Y293372D03*
X649200Y277068D03*
D18*
X450848Y592050D03*
X467152Y592050D03*
X477357Y592007D03*
X493661Y592007D03*
X423763Y592007D03*
X440067Y592007D03*
D17*
X494560Y722122D03*
X494560Y705818D03*
X1030280Y221568D03*
X1030280Y237872D03*
X926140Y220298D03*
X926140Y236602D03*
X815570Y246382D03*
X815570Y230078D03*
X221720Y297688D03*
X221720Y313992D03*
X207750Y297688D03*
X207750Y313992D03*
X192510Y297688D03*
X192510Y313992D03*
D19*
X238059Y390437D03*
X231560Y390437D03*
X225060Y390437D03*
X218560Y390437D03*
X212060Y390437D03*
X205560Y390437D03*
X199060Y390437D03*
X192560Y390437D03*
X186060Y390437D03*
X179561Y390437D03*
X179561Y331383D03*
X186060Y331383D03*
X192560Y331383D03*
X199060Y331383D03*
X205560Y331383D03*
X212060Y331383D03*
X218560Y331383D03*
X225060Y331383D03*
X231560Y331383D03*
X238059Y331383D03*
D20*
X1255258Y36150D02*
X1264258Y36150D01*
X1264258Y27150D01*
X1255258Y27150D01*
X1255258Y36150D01*
X1255258Y32850D02*
X1264258Y32850D01*
X1244258Y36150D02*
X1235258Y36150D01*
X1244258Y36150D02*
X1244258Y27150D01*
X1235258Y27150D01*
X1235258Y36150D01*
X1235258Y32850D02*
X1244258Y32850D01*
X1245258Y69150D02*
X1254258Y69150D01*
X1254258Y60150D01*
X1245258Y60150D01*
X1245258Y69150D01*
X1245258Y65850D02*
X1254258Y65850D01*
X1270258Y104150D02*
X1279258Y104150D01*
X1279258Y95150D01*
X1270258Y95150D01*
X1270258Y104150D01*
X1270258Y100850D02*
X1279258Y100850D01*
X1279258Y129150D02*
X1270258Y129150D01*
X1279258Y129150D02*
X1279258Y120150D01*
X1270258Y120150D01*
X1270258Y129150D01*
X1270258Y125850D02*
X1279258Y125850D01*
X1279258Y154150D02*
X1270258Y154150D01*
X1279258Y154150D02*
X1279258Y145150D01*
X1270258Y145150D01*
X1270258Y154150D01*
X1270258Y150850D02*
X1279258Y150850D01*
D21*
X1277008Y38150D02*
X1277008Y31150D01*
X1222508Y31150D02*
X1222508Y38150D01*
D22*
X1274008Y62950D02*
X1274008Y66950D01*
X1225508Y66950D02*
X1225508Y62950D01*
D23*
X257898Y336447D03*
X270598Y336447D03*
X283298Y336447D03*
X295998Y336447D03*
X308698Y336447D03*
X321398Y336447D03*
X334098Y336447D03*
X334098Y385723D03*
X321398Y385723D03*
X308698Y385723D03*
X295998Y385723D03*
X283298Y385723D03*
X270598Y385723D03*
X257898Y385723D03*
X428030Y385278D03*
X415330Y385278D03*
X402630Y385278D03*
X389930Y385278D03*
X377230Y385278D03*
X364530Y385278D03*
X351830Y385278D03*
X351830Y336002D03*
X364530Y336002D03*
X377230Y336002D03*
X389930Y336002D03*
X402630Y336002D03*
X415330Y336002D03*
X428030Y336002D03*
D20*
X626400Y507070D02*
X634900Y507070D01*
X634900Y494370D02*
X626400Y494370D01*
X626400Y481670D02*
X634900Y481670D01*
X634900Y468970D02*
X626400Y468970D01*
X626400Y456270D02*
X634900Y456270D01*
X634900Y443570D02*
X626400Y443570D01*
X626400Y430870D02*
X634900Y430870D01*
X634900Y418170D02*
X626400Y418170D01*
X680900Y418170D02*
X689400Y418170D01*
X689400Y430870D02*
X680900Y430870D01*
X680900Y443570D02*
X689400Y443570D01*
X689400Y456270D02*
X680900Y456270D01*
X680900Y468970D02*
X689400Y468970D01*
X689400Y481670D02*
X680900Y481670D01*
X680900Y494370D02*
X689400Y494370D01*
X689400Y507070D02*
X680900Y507070D01*
X633360Y399310D02*
X624860Y399310D01*
X624860Y386610D02*
X633360Y386610D01*
X633360Y373910D02*
X624860Y373910D01*
X624860Y361210D02*
X633360Y361210D01*
X633360Y348510D02*
X624860Y348510D01*
X624860Y335810D02*
X633360Y335810D01*
X633360Y323110D02*
X624860Y323110D01*
X624860Y310410D02*
X633360Y310410D01*
X679360Y310410D02*
X687860Y310410D01*
X687860Y323110D02*
X679360Y323110D01*
X679360Y335810D02*
X687860Y335810D01*
X687860Y348510D02*
X679360Y348510D01*
X679360Y361210D02*
X687860Y361210D01*
X687860Y373910D02*
X679360Y373910D01*
X679360Y386610D02*
X687860Y386610D01*
X687860Y399310D02*
X679360Y399310D01*
D18*
X369362Y316460D03*
X353058Y316460D03*
D17*
X614150Y576120D03*
X614150Y559816D03*
D18*
X590548Y669132D03*
X606852Y669132D03*
D24*
X507650Y440850D02*
X496850Y440850D01*
X496850Y445350D01*
X507650Y445350D01*
X507650Y440850D01*
X507650Y442275D02*
X496850Y442275D01*
X496850Y443700D02*
X507650Y443700D01*
X507650Y445125D02*
X496850Y445125D01*
X518050Y431350D02*
X528850Y431350D01*
X518050Y431350D02*
X518050Y435850D01*
X528850Y435850D01*
X528850Y431350D01*
X528850Y432775D02*
X518050Y432775D01*
X518050Y434200D02*
X528850Y434200D01*
X528850Y435625D02*
X518050Y435625D01*
X507650Y421850D02*
X496850Y421850D01*
X496850Y426350D01*
X507650Y426350D01*
X507650Y421850D01*
X507650Y423275D02*
X496850Y423275D01*
X496850Y424700D02*
X507650Y424700D01*
X507650Y426125D02*
X496850Y426125D01*
D17*
X485670Y426418D03*
X485670Y442722D03*
D18*
X566722Y490750D03*
X550418Y490750D03*
X528828Y448870D03*
X545132Y448870D03*
D17*
X503960Y486202D03*
X503960Y469898D03*
D24*
X515900Y485300D02*
X526700Y485300D01*
X515900Y485300D02*
X515900Y489800D01*
X526700Y489800D01*
X526700Y485300D01*
X526700Y486725D02*
X515900Y486725D01*
X515900Y488150D02*
X526700Y488150D01*
X526700Y489575D02*
X515900Y489575D01*
X537100Y475800D02*
X547900Y475800D01*
X537100Y475800D02*
X537100Y480300D01*
X547900Y480300D01*
X547900Y475800D01*
X547900Y477225D02*
X537100Y477225D01*
X537100Y478650D02*
X547900Y478650D01*
X547900Y480075D02*
X537100Y480075D01*
X526700Y466300D02*
X515900Y466300D01*
X515900Y470800D01*
X526700Y470800D01*
X526700Y466300D01*
X526700Y467725D02*
X515900Y467725D01*
X515900Y469150D02*
X526700Y469150D01*
X526700Y470575D02*
X515900Y470575D01*
D17*
X271250Y402937D03*
X271250Y419241D03*
X283950Y403098D03*
X283950Y419402D03*
X308080Y403098D03*
X308080Y419402D03*
X321201Y403098D03*
X321201Y419402D03*
X309140Y314452D03*
X309140Y298148D03*
X296440Y314452D03*
X296440Y298148D03*
X273580Y314452D03*
X273580Y298148D03*
X260880Y314452D03*
X260880Y298148D03*
D13*
X570000Y584964D03*
X570000Y594656D03*
X596670Y584964D03*
X596670Y594656D03*
D25*
X570548Y575920D03*
X570548Y566420D03*
X570548Y556920D03*
X597852Y556920D03*
X597852Y566420D03*
X597852Y575920D03*
D17*
X604520Y527582D03*
X604520Y511278D03*
X544127Y508503D03*
X544127Y524807D03*
D13*
X562610Y534904D03*
X562610Y544596D03*
X589280Y534904D03*
X589280Y544596D03*
D25*
X562928Y527660D03*
X562928Y518160D03*
X562928Y508660D03*
X590232Y508660D03*
X590232Y518160D03*
X590232Y527660D03*
D26*
X278170Y512064D03*
X271670Y512064D03*
X265170Y512064D03*
X258670Y512064D03*
X252170Y512064D03*
X245670Y512064D03*
X239170Y512064D03*
X232670Y512064D03*
X226170Y512064D03*
X219670Y512064D03*
X219670Y456692D03*
X226170Y456692D03*
X232670Y456692D03*
X239170Y456692D03*
X245670Y456692D03*
X252170Y456692D03*
X258670Y456692D03*
X265170Y456692D03*
X271670Y456692D03*
X278170Y456692D03*
X219820Y610362D03*
X226320Y610362D03*
X232820Y610362D03*
X239320Y610362D03*
X245820Y610362D03*
X252320Y610362D03*
X258820Y610362D03*
X265320Y610362D03*
X271820Y610362D03*
X278320Y610362D03*
X278320Y665734D03*
X271820Y665734D03*
X265320Y665734D03*
X258820Y665734D03*
X252320Y665734D03*
X245820Y665734D03*
X239320Y665734D03*
X232820Y665734D03*
X226320Y665734D03*
X219820Y665734D03*
D27*
X255667Y543233D02*
X273893Y543233D01*
X273893Y538807D01*
X255667Y538807D01*
X255667Y543233D01*
X255667Y540208D02*
X273893Y540208D01*
X273893Y541609D02*
X255667Y541609D01*
X255667Y543010D02*
X273893Y543010D01*
X273893Y555933D02*
X255667Y555933D01*
X273893Y555933D02*
X273893Y551507D01*
X255667Y551507D01*
X255667Y555933D01*
X255667Y552908D02*
X273893Y552908D01*
X273893Y554309D02*
X255667Y554309D01*
X255667Y555710D02*
X273893Y555710D01*
X273893Y568633D02*
X255667Y568633D01*
X273893Y568633D02*
X273893Y564207D01*
X255667Y564207D01*
X255667Y568633D01*
X255667Y565608D02*
X273893Y565608D01*
X273893Y567009D02*
X255667Y567009D01*
X255667Y568410D02*
X273893Y568410D01*
X273893Y581333D02*
X255667Y581333D01*
X273893Y581333D02*
X273893Y576907D01*
X255667Y576907D01*
X255667Y581333D01*
X255667Y578308D02*
X273893Y578308D01*
X273893Y579709D02*
X255667Y579709D01*
X255667Y581110D02*
X273893Y581110D01*
X224393Y581333D02*
X206167Y581333D01*
X224393Y581333D02*
X224393Y576907D01*
X206167Y576907D01*
X206167Y581333D01*
X206167Y578308D02*
X224393Y578308D01*
X224393Y579709D02*
X206167Y579709D01*
X206167Y581110D02*
X224393Y581110D01*
X224393Y568633D02*
X206167Y568633D01*
X224393Y568633D02*
X224393Y564207D01*
X206167Y564207D01*
X206167Y568633D01*
X206167Y565608D02*
X224393Y565608D01*
X224393Y567009D02*
X206167Y567009D01*
X206167Y568410D02*
X224393Y568410D01*
X224393Y555933D02*
X206167Y555933D01*
X224393Y555933D02*
X224393Y551507D01*
X206167Y551507D01*
X206167Y555933D01*
X206167Y552908D02*
X224393Y552908D01*
X224393Y554309D02*
X206167Y554309D01*
X206167Y555710D02*
X224393Y555710D01*
X224393Y543233D02*
X206167Y543233D01*
X224393Y543233D02*
X224393Y538807D01*
X206167Y538807D01*
X206167Y543233D01*
X206167Y540208D02*
X224393Y540208D01*
X224393Y541609D02*
X206167Y541609D01*
X206167Y543010D02*
X224393Y543010D01*
D13*
X196850Y542524D03*
X196850Y552216D03*
X280670Y562844D03*
X280670Y572536D03*
X198120Y567924D03*
X198120Y577616D03*
D12*
X246614Y679450D03*
X256306Y679450D03*
X246614Y596900D03*
X256306Y596900D03*
X252496Y525780D03*
X242804Y525780D03*
X251226Y443230D03*
X241534Y443230D03*
M02*
