0
SECTION
2
HEADER
9
$INSUNITS
70
4
9
$ACADVER
1
AC1014
9
$HANDSEED
5
FFFF
0
ENDSEC
0
SECTION
2
TABLES
0
TABLE
2
VPORT
5
8
100
AcDbSymbolTable
0
ENDTAB
0
TABLE
2
LTYPE
5
5
100
AcDbSymbolTable
0
LTYPE
5
14
100
AcDbSymbolTableRecord
100
AcDbLinetypeTableRecord
2
BYBLOCK
70
0
0
LTYPE
5
15
100
AcDbSymbolTableRecord
100
AcDbLinetypeTableRecord
2
BYLAYER
70
0
0
ENDTAB
0
TABLE
2
LAYER
5
2
100
AcDbSymbolTable
70
2
0
LAYER
5
50
100
AcDbSymbolTableRecord
100
AcDbLayerTableRecord
2
0
70
0
6
CONTINUOUS
0
ENDTAB
0
TABLE
2
STYLE
5
3
100
AcDbSymbolTable
70
1
0
STYLE
5
11
100
AcDbSymbolTableRecord
100
AcDbTextStyleTableRecord
2
STANDARD
70
0
0
ENDTAB
0
TABLE
2
VIEW
5
6
100
AcDbSymbolTable
70
0
0
ENDTAB
0
TABLE
2
UCS
5
7
100
AcDbSymbolTable
70
0
0
ENDTAB
0
TABLE
2
APPID
5
9
100
AcDbSymbolTable
70
2
0
APPID
5
12
100
AcDbSymbolTableRecord
100
AcDbRegAppTableRecord
2
ACAD
70
0
0
ENDTAB
0
TABLE
2
DIMSTYLE
5
A
100
AcDbSymbolTable
70
1
0
ENDTAB
0
TABLE
2
BLOCK_RECORD
5
1
100
AcDbSymbolTable
70
1
0
BLOCK_RECORD
5
1F
100
AcDbSymbolTableRecord
100
AcDbBlockTableRecord
2
*MODEL_SPACE
0
BLOCK_RECORD
5
1B
100
AcDbSymbolTableRecord
100
AcDbBlockTableRecord
2
*PAPER_SPACE
0
ENDTAB
0
ENDSEC
0
SECTION
2
BLOCKS
0
BLOCK
5
20
100
AcDbEntity
100
AcDbBlockBegin
2
*MODEL_SPACE
0
ENDBLK
5
21
100
AcDbEntity
100
AcDbBlockEnd
0
BLOCK
5
1C
100
AcDbEntity
100
AcDbBlockBegin
2
*PAPER_SPACE
0
ENDBLK
5
1D
100
AcDbEntity
100
AcDbBlockEnd
0
ENDSEC
0
SECTION
2
ENTITIES
0
CIRCLE
5
100
100
AcDbEntity
8
0
100
AcDbCircle
10
-166.39999771118153
20
14.999997711181621
30
0
40
2.2500000000000102
210
1.7756472543354894e-34
220
1.0872704106617264e-50
230
1
0
CIRCLE
5
101
100
AcDbEntity
8
0
100
AcDbCircle
10
-19.999997711181585
20
19.99999771118171
30
0
40
4.4999999999999938
210
9.479367031884739e-34
220
-4.9303806576313238e-32
230
1
0
LWPOLYLINE
5
102
100
AcDbEntity
8
0
100
AcDbPolyline
90
8
70
1
43
0.0
10
-142.39999771118167
20
99.499997711181564
10
-142.39999771118167
20
90.499997711181592
42
-0.4142135623731002
10
-143.39999771118164
20
89.499997711181578
10
-161.39999771118164
20
89.499997711181521
42
-0.41421356237308465
10
-162.39999771118161
20
90.499997711181535
10
-162.39999771118158
20
99.49999771118155
42
-0.41421356237308982
10
-161.39999771118158
20
100.49999771118152
10
-143.39999771118164
20
100.49999771118155
42
-0.41421356237308982
0
CIRCLE
5
103
100
AcDbEntity
8
0
100
AcDbCircle
10
-146.52214518825679
20
166.80982776743181
30
-5.5511151231257827e-16
40
1.5000000000000009
210
9.4793670318844328e-34
220
5.804438500048439e-50
230
1
0
CIRCLE
5
104
100
AcDbEntity
8
0
100
AcDbCircle
10
-284.79999771118116
20
284.79999771118105
30
0
40
4.4999999999999849
210
1.718308680943338e-33
220
1.0521606589435156e-49
230
1
0
CIRCLE
5
105
100
AcDbEntity
8
0
100
AcDbCircle
10
-138.13414996675417
20
179.53525262680554
30
0
40
1.5000000000000009
210
9.4793670318844328e-34
220
5.804438500048439e-50
230
1
0
CIRCLE
5
106
100
AcDbEntity
8
0
100
AcDbCircle
10
-142.88943254822993
20
177.99016765493081
30
0
40
1.5000000000000009
210
9.4793670318844328e-34
220
5.804438500048439e-50
230
1
0
CIRCLE
5
107
100
AcDbEntity
8
0
100
AcDbCircle
10
-136.21965782368252
20
163.14429266533188
30
-5.5511151231257827e-16
40
1.5000000000000009
210
9.4793670318844328e-34
220
5.804438500048439e-50
230
1
0
CIRCLE
5
108
100
AcDbEntity
8
0
100
AcDbCircle
10
-152.39999771118147
20
189.8999977111813
30
0
40
1.5000000000000009
210
9.4793670318844328e-34
220
5.804438500048439e-50
230
1
0
CIRCLE
5
109
100
AcDbEntity
8
0
100
AcDbCircle
10
-130.10565294685966
20
154.82607952041565
30
-5.5511151231257827e-16
40
1.5000000000000009
210
9.4793670318844328e-34
220
5.804438500048439e-50
230
1
0
CIRCLE
5
110
100
AcDbEntity
8
0
100
AcDbCircle
10
-133.37886738527843
20
181.08033759868027
30
0
40
1.5000000000000009
210
9.4793670318844328e-34
220
5.804438500048439e-50
230
1
0
CIRCLE
5
111
100
AcDbEntity
8
0
100
AcDbCircle
10
-146.21965782368252
20
155.87886738527831
30
0
40
1.5000000000000009
210
9.4793670318844328e-34
220
5.804438500048439e-50
230
1
0
CIRCLE
5
112
100
AcDbEntity
8
0
100
AcDbCircle
10
-131.29179957363112
20
188.29566758565619
30
-5.5511151231257827e-16
40
1.5000000000000009
210
9.4793670318844328e-34
220
5.804438500048439e-50
230
1
0
CIRCLE
5
113
100
AcDbEntity
8
0
100
AcDbCircle
10
-161.60311152829843
20
151.65558556397508
30
0
40
1.4999999999999831
210
9.4793670318844328e-34
220
5.804438500048439e-50
230
1
0
CIRCLE
5
114
100
AcDbEntity
8
0
100
AcDbCircle
10
-146.18275053206014
20
199.11457673939705
30
0
40
1.5000000000000009
210
9.4793670318844328e-34
220
5.804438500048439e-50
230
1
0
CIRCLE
5
115
100
AcDbEntity
8
0
100
AcDbCircle
10
-164.44383956372431
20
196.80766471227781
30
0
40
1.4999999999999831
210
9.4793670318844328e-34
220
5.804438500048439e-50
230
1
0
CIRCLE
5
116
100
AcDbEntity
8
0
100
AcDbCircle
10
-182.39999771118141
20
204.89999771118124
30
0
40
2.2500000000000102
210
1.7756472543354894e-34
220
1.0872704106617264e-50
230
1
0
CIRCLE
5
117
100
AcDbEntity
8
0
100
AcDbCircle
10
-140.64429266533205
20
158.71965782368244
30
-5.5511151231257827e-16
40
1.5000000000000009
210
9.4793670318844328e-34
220
5.804438500048439e-50
230
1
0
CIRCLE
5
118
100
AcDbEntity
8
0
100
AcDbCircle
10
-149.2813223489151
20
160.22778370017426
30
0
40
1.5000000000000009
210
9.4793670318844328e-34
220
5.804438500048439e-50
230
1
0
CIRCLE
5
119
100
AcDbEntity
8
0
100
AcDbCircle
10
-19.999997711181656
20
284.79999771118122
30
5.5511151231257827e-16
40
4.4999999999999938
210
9.479367031884739e-34
220
-4.9303806576313238e-32
230
1
0
CIRCLE
5
120
100
AcDbEntity
8
0
100
AcDbCircle
10
-122.56434085013332
20
178.03585160921097
30
0
40
1.5000000000000009
210
9.4793670318844328e-34
220
5.804438500048439e-50
230
1
0
CIRCLE
5
121
100
AcDbEntity
8
0
100
AcDbCircle
10
-158.5010473573185
20
188.60317957582029
30
0
40
1.4999999999999831
210
9.4793670318844328e-34
220
5.804438500048439e-50
230
1
0
CIRCLE
5
122
100
AcDbEntity
8
0
100
AcDbCircle
10
-164.60209700345541
20
147.49363398190334
30
0
40
1.4999999999999831
210
9.4793670318844328e-34
220
5.804438500048439e-50
230
1
0
CIRCLE
5
123
100
AcDbEntity
8
0
100
AcDbCircle
10
-146.16264698664872
20
204.24442573319541
30
-5.5511151231257827e-16
40
1.5000000000000009
210
9.4793670318844328e-34
220
5.804438500048439e-50
230
1
0
CIRCLE
5
124
100
AcDbEntity
8
0
100
AcDbCircle
10
-158.58033759868044
20
193.92112803708432
30
0
40
1.4999999999999831
210
9.4793670318844328e-34
220
5.804438500048439e-50
230
1
0
CIRCLE
5
125
100
AcDbEntity
8
0
100
AcDbCircle
10
-140.19789841890747
20
202.30636144045928
30
-5.5511151231257827e-16
40
1.5000000000000009
210
9.4793670318844328e-34
220
5.804438500048439e-50
230
1
0
CIRCLE
5
126
100
AcDbEntity
8
0
100
AcDbCircle
10
-126.4192355976484
20
189.8999977111813
30
0
40
1.5000000000000009
210
9.4793670318844328e-34
220
5.804438500048439e-50
230
1
0
CIRCLE
5
127
100
AcDbEntity
8
0
100
AcDbCircle
10
-161.21677649556855
20
162.76474279555711
30
0
40
1.4999999999999831
210
9.4793670318844328e-34
220
5.804438500048439e-50
230
1
0
CIRCLE
5
128
100
AcDbEntity
8
0
100
AcDbCircle
10
-134.76644014240733
20
199.17050754242968
30
0
40
1.5000000000000009
210
9.4793670318844328e-34
220
5.804438500048439e-50
230
1
0
CIRCLE
5
129
100
AcDbEntity
8
0
100
AcDbCircle
10
-180.93169320003602
20
184.17050754242968
30
5.5511151231257827e-16
40
1.4999999999999831
210
9.4793670318844328e-34
220
5.804438500048439e-50
230
1
0
CIRCLE
5
130
100
AcDbEntity
8
0
100
AcDbCircle
10
-169.51367535939863
20
193.12421339671656
30
0
40
1.4999999999999831
210
9.4793670318844328e-34
220
5.804438500048439e-50
230
1
0
CIRCLE
5
131
100
AcDbEntity
8
0
100
AcDbCircle
10
-177.35066592188821
20
176.46976069941414
30
0
40
1.4999999999999831
210
9.4793670318844328e-34
220
5.804438500048439e-50
230
1
0
CIRCLE
5
132
100
AcDbEntity
8
0
100
AcDbCircle
10
-180.93169320003602
20
165.62948787993287
30
0
40
1.4999999999999831
210
9.4793670318844328e-34
220
5.804438500048439e-50
230
1
0
CIRCLE
5
133
100
AcDbEntity
8
0
100
AcDbCircle
10
-178.38075982471457
20
189.89999771118124
30
5.5511151231257827e-16
40
1.4999999999999831
210
9.4793670318844328e-34
220
5.804438500048439e-50
230
1
0
CIRCLE
5
134
100
AcDbEntity
8
0
100
AcDbCircle
10
-146.16264698664872
20
145.55556968916727
30
0
40
1.5000000000000009
210
9.4793670318844328e-34
220
5.804438500048439e-50
230
1
0
CIRCLE
5
135
100
AcDbEntity
8
0
100
AcDbCircle
10
-178.38075982471457
20
159.8999977111813
30
0
40
1.4999999999999831
210
9.4793670318844328e-34
220
5.804438500048439e-50
230
1
0
CIRCLE
5
136
100
AcDbEntity
8
0
100
AcDbCircle
10
-168.58033759868039
20
186.65570275703075
30
0
40
1.4999999999999831
210
9.4793670318844328e-34
220
5.804438500048439e-50
230
1
0
CIRCLE
5
137
100
AcDbEntity
8
0
100
AcDbCircle
10
-163.54717009334237
20
184.93695680656415
30
0
40
1.4999999999999831
210
9.4793670318844328e-34
220
5.804438500048439e-50
230
1
0
CIRCLE
5
138
100
AcDbEntity
8
0
100
AcDbCircle
10
-175.02067402283191
20
164.25551542205451
30
5.5511151231257827e-16
40
1.4999999999999831
210
9.4793670318844328e-34
220
5.804438500048439e-50
230
1
0
CIRCLE
5
139
100
AcDbEntity
8
0
100
AcDbCircle
10
-167.31782614170555
20
173.3320707621665
30
0
40
1.4999999999999831
210
9.4793670318844328e-34
220
5.804438500048439e-50
230
1
0
CIRCLE
5
140
100
AcDbEntity
8
0
100
AcDbCircle
10
-168.58033759868036
20
163.14429266533182
30
0
40
1.4999999999999831
210
9.4793670318844328e-34
220
5.804438500048439e-50
230
1
0
CIRCLE
5
141
100
AcDbEntity
8
0
100
AcDbCircle
10
-161.91056287413301
20
177.99016765493076
30
0
40
1.4999999999999831
210
9.4793670318844328e-34
220
5.804438500048439e-50
230
1
0
CIRCLE
5
142
100
AcDbEntity
8
0
100
AcDbCircle
10
-122.56434085013336
20
171.76414381315172
30
0
40
1.5000000000000009
210
9.4793670318844328e-34
220
5.804438500048439e-50
230
1
0
CIRCLE
5
143
100
AcDbEntity
8
0
100
AcDbCircle
10
-146.2989480650445
20
188.60317957582026
30
0
40
1.5000000000000009
210
9.4793670318844328e-34
220
5.804438500048439e-50
230
1
0
CIRCLE
5
144
100
AcDbEntity
8
0
100
AcDbCircle
10
-143.58321892679442
20
162.76474279555714
30
-5.5511151231257827e-16
40
1.5000000000000009
210
9.4793670318844328e-34
220
5.804438500048439e-50
230
1
0
CIRCLE
5
145
100
AcDbEntity
8
0
100
AcDbCircle
10
-140.35615585863863
20
196.80766471227784
30
0
40
1.5000000000000009
210
9.4793670318844328e-34
220
5.804438500048439e-50
230
1
0
CIRCLE
5
146
100
AcDbEntity
8
0
100
AcDbCircle
10
-157.15528029265724
20
176.44508268305603
30
-5.5511151231257827e-16
40
1.5000000000000009
210
9.4793670318844328e-34
220
5.804438500048439e-50
230
1
0
CIRCLE
5
147
100
AcDbEntity
8
0
100
AcDbCircle
10
-158.61724489030286
20
199.11457673939702
30
0
40
1.4999999999999831
210
9.4793670318844328e-34
220
5.804438500048439e-50
230
1
0
CIRCLE
5
148
100
AcDbEntity
8
0
100
AcDbCircle
10
-155.53332855028907
20
150.09713017831947
30
0
40
1.5000000000000009
210
9.4793670318844328e-34
220
5.804438500048439e-50
230
1
0
CIRCLE
5
149
100
AcDbEntity
8
0
100
AcDbCircle
10
-171.66282878057615
20
158.96439796746415
30
0
40
1.4999999999999831
210
9.4793670318844328e-34
220
5.804438500048439e-50
230
1
0
CIRCLE
5
150
100
AcDbEntity
8
0
100
AcDbCircle
10
-128.62358480380269
20
182.62542257055503
30
-5.5511151231257827e-16
40
1.5000000000000009
210
9.4793670318844328e-34
220
5.804438500048439e-50
230
1
0
CIRCLE
5
151
100
AcDbEntity
8
0
100
AcDbCircle
10
-136.21965782368258
20
186.65570275703075
30
-5.5511151231257827e-16
40
1.5000000000000009
210
9.4793670318844328e-34
220
5.804438500048439e-50
230
1
0
CIRCLE
5
152
100
AcDbEntity
8
0
100
AcDbCircle
10
-158.58033759868039
20
155.87886738527831
30
0
40
1.4999999999999831
210
9.4793670318844328e-34
220
5.804438500048439e-50
230
1
0
CIRCLE
5
153
100
AcDbEntity
8
0
100
AcDbCircle
10
-127.44932950047472
20
176.46976069941414
30
-5.5511151231257827e-16
40
1.5000000000000009
210
9.4793670318844328e-34
220
5.804438500048439e-50
230
1
0
CIRCLE
5
154
100
AcDbEntity
8
0
100
AcDbCircle
10
-137.7053664038697
20
154.67457285180768
30
0
40
1.5000000000000009
210
9.4793670318844328e-34
220
5.804438500048439e-50
230
1
0
CIRCLE
5
155
100
AcDbEntity
8
0
100
AcDbCircle
10
-149.26666687207384
20
150.09713017831945
30
0
40
1.5000000000000009
210
9.4793670318844328e-34
220
5.804438500048439e-50
230
1
0
CIRCLE
5
156
100
AcDbEntity
8
0
100
AcDbCircle
10
-142.88943254822996
20
171.80982776743181
30
0
40
1.5000000000000009
210
9.4793670318844328e-34
220
5.804438500048439e-50
230
1
0
CIRCLE
5
157
100
AcDbEntity
8
0
100
AcDbCircle
10
-152.39999771118147
20
174.89999771118133
30
0
40
1.5000000000000009
210
9.4793670318844328e-34
220
5.804438500048439e-50
230
1
0
CIRCLE
5
158
100
AcDbEntity
8
0
100
AcDbCircle
10
-182.39999771118141
20
144.89999771118144
30
0
40
2.2500000000000102
210
1.7756472543354894e-34
220
1.0872704106617264e-50
230
1
0
CIRCLE
5
159
100
AcDbEntity
8
0
100
AcDbCircle
10
-167.09462901849324
20
154.67457285180762
30
5.5511151231257827e-16
40
1.4999999999999831
210
9.4793670318844328e-34
220
5.804438500048439e-50
230
1
0
LWPOLYLINE
5
160
100
AcDbEntity
8
0
100
AcDbPolyline
90
8
70
1
43
0.0
10
-142.39999771118167
20
59.499997711181635
10
-142.39999771118167
20
50.499997711181663
42
-0.4142135623731002
10
-143.39999771118164
20
49.499997711181649
10
-161.39999771118141
20
49.499997711181649
42
-0.41421356237309509
10
-162.39999771118141
20
50.499997711181663
10
-162.39999771118141
20
59.499997711181635
42
-0.41421356237309509
10
-161.39999771118141
20
60.499997711181628
10
-143.39999771118164
20
60.499997711181628
42
-0.41421356237308982
0
CIRCLE
5
161
100
AcDbEntity
8
0
100
AcDbCircle
10
-138.3999977111815
20
94.999997711181521
30
0
40
2.2499999999999925
210
1.7756472543354894e-34
220
1.0872704106617264e-50
230
1
0
CIRCLE
5
162
100
AcDbEntity
8
0
100
AcDbCircle
10
-138.39999771118147
20
14.999997711181638
30
-5.5511151231257827e-16
40
2.2499999999999925
210
1.7756472543354894e-34
220
1.0872704106617264e-50
230
1
0
CIRCLE
5
163
100
AcDbEntity
8
0
100
AcDbCircle
10
-166.39999771118147
20
54.999997711181535
30
0
40
2.2500000000000102
210
1.7756472543354894e-34
220
1.0872704106617264e-50
230
1
0
CIRCLE
5
164
100
AcDbEntity
8
0
100
AcDbCircle
10
-284.79999771118122
20
19.999997711181532
30
0
40
4.4999999999999849
210
1.718308680943338e-33
220
1.0521606589435156e-49
230
1
0
CIRCLE
5
165
100
AcDbEntity
8
0
100
AcDbCircle
10
-135.28632006296431
20
193.12421339671658
30
0
40
1.5000000000000009
210
9.4793670318844328e-34
220
5.804438500048439e-50
230
1
0
CIRCLE
5
166
100
AcDbEntity
8
0
100
AcDbCircle
10
-134.76644014240736
20
150.62948787993298
30
0
40
1.5000000000000009
210
9.4793670318844328e-34
220
5.804438500048439e-50
230
1
0
CIRCLE
5
167
100
AcDbEntity
8
0
100
AcDbCircle
10
-137.48216928065742
20
173.33207076216652
30
0
40
1.5000000000000009
210
9.4793670318844328e-34
220
5.804438500048439e-50
230
1
0
CIRCLE
5
168
100
AcDbEntity
8
0
100
AcDbCircle
10
-94.899997711181513
20
19.999997711181656
30
0
40
4.4999999999999849
210
1.718308680943338e-33
220
1.0521606589435156e-49
230
1
0
CIRCLE
5
169
100
AcDbEntity
8
0
100
AcDbCircle
10
-146.52214518825676
20
182.99016765493076
30
0
40
1.5000000000000009
210
9.4793670318844328e-34
220
5.804438500048439e-50
230
1
0
CIRCLE
5
170
100
AcDbEntity
8
0
100
AcDbCircle
10
-143.19688389406451
20
151.65558556397511
30
0
40
1.5000000000000009
210
9.4793670318844328e-34
220
5.804438500048439e-50
230
1
0
CIRCLE
5
171
100
AcDbEntity
8
0
100
AcDbCircle
10
-133.13716664178673
20
158.96439796746415
30
-5.5511151231257827e-16
40
1.5000000000000009
210
9.4793670318844328e-34
220
5.804438500048439e-50
230
1
0
CIRCLE
5
172
100
AcDbEntity
8
0
100
AcDbCircle
10
-147.6447151297057
20
176.44508268305606
30
-5.5511151231257827e-16
40
1.5000000000000009
210
9.4793670318844328e-34
220
5.804438500048439e-50
230
1
0
CIRCLE
5
173
100
AcDbEntity
8
0
100
AcDbCircle
10
-152.39999771118147
20
179.89999771118133
30
0
40
1.5000000000000009
210
9.4793670318844328e-34
220
5.804438500048439e-50
230
1
0
CIRCLE
5
174
100
AcDbEntity
8
0
100
AcDbCircle
10
-140.64429266533205
20
191.08033759868025
30
0
40
1.5000000000000009
210
9.4793670318844328e-34
220
5.804438500048439e-50
230
1
0
CIRCLE
5
175
100
AcDbEntity
8
0
100
AcDbCircle
10
-126.41923559764835
20
159.89999771118138
30
0
40
1.5000000000000009
210
9.4793670318844328e-34
220
5.804438500048439e-50
230
1
0
CIRCLE
5
176
100
AcDbEntity
8
0
100
AcDbCircle
10
-152.39999771118147
20
194.89999771118124
30
0
40
1.5000000000000009
210
9.4793670318844328e-34
220
5.804438500048439e-50
230
1
0
CIRCLE
5
177
100
AcDbEntity
8
0
100
AcDbCircle
10
-164.60209700345547
20
202.30636144045928
30
0
40
1.4999999999999831
210
9.4793670318844328e-34
220
5.804438500048439e-50
230
1
0
CIRCLE
5
178
100
AcDbEntity
8
0
100
AcDbCircle
10
-152.39999771118147
20
204.89999771118124
30
0
40
1.5000000000000009
210
9.4793670318844328e-34
220
5.804438500048439e-50
230
1
0
CIRCLE
5
179
100
AcDbEntity
8
0
100
AcDbCircle
10
-155.33892397264384
20
170.8549127393066
30
0
40
1.5000000000000009
210
9.4793670318844328e-34
220
5.804438500048439e-50
230
1
0
CIRCLE
5
180
100
AcDbEntity
8
0
100
AcDbCircle
10
-146.21965782368255
20
193.92112803708437
30
0
40
1.5000000000000009
210
9.4793670318844328e-34
220
5.804438500048439e-50
230
1
0
CIRCLE
5
181
100
AcDbEntity
8
0
100
AcDbCircle
10
-139.40961665441492
20
167.39999771118133
30
0
40
1.5000000000000009
210
9.4793670318844328e-34
220
5.804438500048439e-50
230
1
0
CIRCLE
5
182
100
AcDbEntity
8
0
100
AcDbCircle
10
-122.3999977111815
20
204.89999771118124
30
-5.5511151231257827e-16
40
2.2499999999999925
210
1.7756472543354894e-34
220
1.0872704106617264e-50
230
1
0
CIRCLE
5
183
100
AcDbEntity
8
0
100
AcDbCircle
10
-123.8683022223269
20
184.17050754242976
30
0
40
1.5000000000000009
210
9.4793670318844328e-34
220
5.804438500048439e-50
230
1
0
CIRCLE
5
184
100
AcDbEntity
8
0
100
AcDbCircle
10
-172.39999771118141
20
174.89999771118133
30
0
40
1.4999999999999831
210
9.4793670318844328e-34
220
5.804438500048439e-50
230
1
0
CIRCLE
5
185
100
AcDbEntity
8
0
100
AcDbCircle
10
-166.66584545560875
20
179.53525262680546
30
0
40
1.4999999999999831
210
9.4793670318844328e-34
220
5.804438500048439e-50
230
1
0
CIRCLE
5
186
100
AcDbEntity
8
0
100
AcDbCircle
10
-165.39037876794799
20
167.39999771118133
30
0
40
1.4999999999999831
210
9.4793670318844328e-34
220
5.804438500048439e-50
230
1
0
CIRCLE
5
187
100
AcDbEntity
8
0
100
AcDbCircle
10
-123.86830222232692
20
165.62948787993292
30
0
40
1.5000000000000009
210
9.4793670318844328e-34
220
5.804438500048439e-50
230
1
0
CIRCLE
5
188
100
AcDbEntity
8
0
100
AcDbCircle
10
-129.77932139953106
20
164.25551542205454
30
0
40
1.5000000000000009
210
9.4793670318844328e-34
220
5.804438500048439e-50
230
1
0
CIRCLE
5
189
100
AcDbEntity
8
0
100
AcDbCircle
10
-171.42112803708449
20
181.08033759868022
30
0
40
1.4999999999999831
210
9.4793670318844328e-34
220
5.804438500048439e-50
230
1
0
CIRCLE
5
190
100
AcDbEntity
8
0
100
AcDbCircle
10
-158.27785023410624
20
182.99016765493079
30
0
40
1.5000000000000009
210
9.4793670318844328e-34
220
5.804438500048439e-50
230
1
0
CIRCLE
5
191
100
AcDbEntity
8
0
100
AcDbCircle
10
-174.69434247550325
20
154.82607952041559
30
0
40
1.4999999999999831
210
9.4793670318844328e-34
220
5.804438500048439e-50
230
1
0
CIRCLE
5
192
100
AcDbEntity
8
0
100
AcDbCircle
10
-182.23565457222961
20
178.03585160921088
30
5.5511151231257827e-16
40
1.4999999999999831
210
9.4793670318844328e-34
220
5.804438500048439e-50
230
1
0
CIRCLE
5
193
100
AcDbEntity
8
0
100
AcDbCircle
10
-173.50819584873179
20
188.29566758565619
30
0
40
1.4999999999999831
210
9.4793670318844328e-34
220
5.804438500048439e-50
230
1
0
CIRCLE
5
194
100
AcDbEntity
8
0
100
AcDbCircle
10
-176.17641061856028
20
182.62542257055492
30
0
40
1.4999999999999831
210
9.4793670318844328e-34
220
5.804438500048439e-50
230
1
0
CIRCLE
5
195
100
AcDbEntity
8
0
100
AcDbCircle
10
-182.23565457222961
20
171.76414381315166
30
0
40
1.4999999999999831
210
9.4793670318844328e-34
220
5.804438500048439e-50
230
1
0
CIRCLE
5
196
100
AcDbEntity
8
0
100
AcDbCircle
10
-174.69434247550328
20
194.97391590194698
30
0
40
1.4999999999999831
210
9.4793670318844328e-34
220
5.804438500048439e-50
230
1
0
CIRCLE
5
197
100
AcDbEntity
8
0
100
AcDbCircle
10
-152.39999771118147
20
144.89999771118141
30
-5.5511151231257827e-16
40
1.5000000000000009
210
9.4793670318844328e-34
220
5.804438500048439e-50
230
1
0
CIRCLE
5
198
100
AcDbEntity
8
0
100
AcDbCircle
10
-130.10565294685972
20
194.97391590194701
30
0
40
1.5000000000000009
210
9.4793670318844328e-34
220
5.804438500048439e-50
230
1
0
CIRCLE
5
199
100
AcDbEntity
8
0
100
AcDbCircle
10
-127.84281644296429
20
170.21546484653823
30
0
40
1.5000000000000009
210
9.4793670318844328e-34
220
5.804438500048439e-50
230
1
0
CIRCLE
5
200
100
AcDbEntity
8
0
100
AcDbCircle
10
-170.03355527995558
20
150.62948787993295
30
5.5511151231257827e-16
40
1.4999999999999831
210
9.4793670318844328e-34
220
5.804438500048439e-50
230
1
0
CIRCLE
5
201
100
AcDbEntity
8
0
100
AcDbCircle
10
-176.95717897939863
20
170.21546484653823
30
5.5511151231257827e-16
40
1.4999999999999831
210
9.4793670318844328e-34
220
5.804438500048439e-50
230
1
0
CIRCLE
5
202
100
AcDbEntity
8
0
100
AcDbCircle
10
-158.63734843571424
20
145.55556968916716
30
0
40
1.5000000000000009
210
9.4793670318844328e-34
220
5.804438500048439e-50
230
1
0
CIRCLE
5
203
100
AcDbEntity
8
0
100
AcDbCircle
10
-171.42112803708449
20
168.71965782368233
30
0
40
1.4999999999999831
210
9.4793670318844328e-34
220
5.804438500048439e-50
230
1
0
CIRCLE
5
204
100
AcDbEntity
8
0
100
AcDbCircle
10
-140.19789841890747
20
147.49363398190334
30
0
40
1.5000000000000009
210
9.4793670318844328e-34
220
5.804438500048439e-50
230
1
0
CIRCLE
5
205
100
AcDbEntity
8
0
100
AcDbCircle
10
-164.15570275703089
20
191.08033759868022
30
0
40
1.4999999999999831
210
9.4793670318844328e-34
220
5.804438500048439e-50
230
1
0
CIRCLE
5
206
100
AcDbEntity
8
0
100
AcDbCircle
10
-122.39999771118157
20
144.89999771118141
30
-5.5511151231257827e-16
40
2.2499999999999925
210
1.7756472543354894e-34
220
1.0872704106617264e-50
230
1
0
CIRCLE
5
207
100
AcDbEntity
8
0
100
AcDbCircle
10
-155.51867307344787
20
160.2277837001742
30
0
40
1.5000000000000009
210
9.4793670318844328e-34
220
5.804438500048439e-50
230
1
0
CIRCLE
5
208
100
AcDbEntity
8
0
100
AcDbCircle
10
-132.39999771118147
20
174.89999771118133
30
-5.5511151231257827e-16
40
1.5000000000000009
210
9.4793670318844328e-34
220
5.804438500048439e-50
230
1
0
CIRCLE
5
209
100
AcDbEntity
8
0
100
AcDbCircle
10
-152.39999771118147
20
199.89999771118124
30
0
40
1.5000000000000009
210
9.4793670318844328e-34
220
5.804438500048439e-50
230
1
0
CIRCLE
5
210
100
AcDbEntity
8
0
100
AcDbCircle
10
-170.03355527995566
20
199.17050754242968
30
0
40
1.4999999999999831
210
9.4793670318844328e-34
220
5.804438500048439e-50
230
1
0
CIRCLE
5
211
100
AcDbEntity
8
0
100
AcDbCircle
10
-152.39999771118147
20
254.79999771118116
30
0
40
3.9999999999999964
210
1.718308680943338e-33
220
1.0521606589435156e-49
230
1
0
CIRCLE
5
212
100
AcDbEntity
8
0
100
AcDbCircle
10
-152.39999771118147
20
164.89999771118136
30
0
40
1.5000000000000009
210
9.4793670318844328e-34
220
5.804438500048439e-50
230
1
0
CIRCLE
5
213
100
AcDbEntity
8
0
100
AcDbCircle
10
-158.27785023410621
20
166.80982776743184
30
0
40
1.5000000000000009
210
9.4793670318844328e-34
220
5.804438500048439e-50
230
1
0
CIRCLE
5
214
100
AcDbEntity
8
0
100
AcDbCircle
10
-152.39999771118147
20
154.89999771118141
30
-5.5511151231257827e-16
40
1.5000000000000009
210
9.4793670318844328e-34
220
5.804438500048439e-50
230
1
0
CIRCLE
5
215
100
AcDbEntity
8
0
100
AcDbCircle
10
-152.39999771118147
20
184.8999977111813
30
0
40
1.5000000000000009
210
9.4793670318844328e-34
220
5.804438500048439e-50
230
1
0
CIRCLE
5
216
100
AcDbEntity
8
0
100
AcDbCircle
10
-164.15570275703089
20
158.71965782368244
30
0
40
1.4999999999999831
210
9.4793670318844328e-34
220
5.804438500048439e-50
230
1
0
CIRCLE
5
217
100
AcDbEntity
8
0
100
AcDbCircle
10
-133.37886738527845
20
168.71965782368235
30
-5.5511151231257827e-16
40
1.5000000000000009
210
9.4793670318844328e-34
220
5.804438500048439e-50
230
1
0
CIRCLE
5
218
100
AcDbEntity
8
0
100
AcDbCircle
10
-149.46107144971913
20
170.85491273930657
30
0
40
1.5000000000000009
210
9.4793670318844328e-34
220
5.804438500048439e-50
230
1
0
CIRCLE
5
219
100
AcDbEntity
8
0
100
AcDbCircle
10
-141.2528253290206
20
184.93695680656415
30
0
40
1.5000000000000009
210
9.4793670318844328e-34
220
5.804438500048439e-50
230
1
0
CIRCLE
5
220
100
AcDbEntity
8
0
100
AcDbCircle
10
-209.8999977111813
20
19.999997711181585
30
0
40
4.4999999999999849
210
1.718308680943338e-33
220
1.0521606589435156e-49
230
1
0
CIRCLE
5
221
100
AcDbEntity
8
0
100
AcDbCircle
10
-161.91056287413301
20
171.80982776743181
30
0
40
1.4999999999999831
210
9.4793670318844328e-34
220
5.804438500048439e-50
230
1
0
CIRCLE
5
222
100
AcDbEntity
8
0
100
AcDbCircle
10
-158.6373484357143
20
204.24442573319541
30
0
40
1.4999999999999831
210
9.4793670318844328e-34
220
5.804438500048439e-50
230
1
0
LWPOLYLINE
5
223
100
AcDbEntity
8
0
100
AcDbPolyline
90
8
70
1
43
0.0
10
-142.39999771118167
20
19.49999771118172
10
-142.39999771118167
20
10.499997711181752
42
-0.4142135623731002
10
-143.39999771118164
20
9.4999977111817362
10
-161.39999771118141
20
9.4999977111817024
42
-0.41421356237309509
10
-162.39999771118141
20
10.499997711181717
10
-162.39999771118141
20
19.499997711181685
42
-0.41421356237309509
10
-161.39999771118141
20
20.499997711181681
10
-143.39999771118164
20
20.499997711181699
42
-0.41421356237308465
0
CIRCLE
5
224
100
AcDbEntity
8
0
100
AcDbCircle
10
-166.39999771118141
20
94.999997711181464
30
0
40
2.2500000000000102
210
1.7756472543354894e-34
220
1.0872704106617264e-50
230
1
0
CIRCLE
5
225
100
AcDbEntity
8
0
100
AcDbCircle
10
-138.3999977111815
20
54.99999771118155
30
0
40
2.2499999999999925
210
1.7756472543354894e-34
220
1.0872704106617264e-50
230
1
0
LWPOLYLINE
5
226
100
AcDbEntity
8
0
100
AcDbPolyline
90
4
70
1
43
0.0
10
-304.79999771118116
20
-2.2888184325609069e-06
10
2.2888183437430598e-06
20
-2.2888182447558767e-06
10
2.2888183073158734e-06
20
304.79999771118116
10
-304.79999771118122
20
304.79999771118099
0
ENDSEC
0
SECTION
2
OBJECTS
0
DICTIONARY
5
C
100
AcDbDictionary
3
ACAD_GROUP
350
D
3
ACAD_MLINESTYLE
350
17
0
DICTIONARY
5
D
100
AcDbDictionary
0
DICTIONARY
5
1A
330
C
100
AcDbDictionary
0
DICTIONARY
5
17
100
AcDbDictionary
0
ENDSEC
0
EOF
