G04 EAGLE Gerber RS-274X export*
G75*
%MOMM*%
%FSLAX34Y34*%
%LPD*%
%INSoldermask Top*%
%IPPOS*%
%AMOC8*
5,1,8,0,0,1.08239X$1,22.5*%
G01*
G04 Define Apertures*
%ADD10C,4.626991*%
%ADD11C,1.927000*%
%ADD12C,1.387000*%
%ADD13C,1.651000*%
%ADD14C,1.827000*%
%ADD15C,3.377000*%
%ADD16C,2.407000*%
%ADD17R,1.462000X1.462000*%
%ADD18C,1.462000*%
%ADD19R,0.925700X1.100900*%
%ADD20C,0.652000*%
D10*
X44450Y387350D03*
X44450Y44450D03*
X311150Y44450D03*
X311150Y387350D03*
D11*
X243840Y331470D03*
X218440Y331470D03*
D12*
X275590Y250190D03*
X275590Y225190D03*
X275590Y200190D03*
X275590Y175190D03*
D13*
X200535Y107825D02*
X200535Y92585D01*
X175135Y92585D02*
X175135Y107825D01*
X149735Y107825D02*
X149735Y92585D01*
X124335Y92585D02*
X124335Y107825D01*
X98935Y107825D02*
X98935Y92585D01*
D14*
X165100Y330200D03*
X139700Y355600D03*
X114300Y330200D03*
D15*
X88900Y245110D03*
X203200Y245110D03*
D16*
X67300Y215610D03*
X224800Y215610D03*
D17*
X101600Y181610D03*
D18*
X114300Y156210D03*
X127000Y181610D03*
X139700Y156210D03*
X152400Y181610D03*
X165100Y156210D03*
X177800Y181610D03*
X190500Y156210D03*
D19*
X256008Y129540D03*
X272312Y129540D03*
X256008Y100330D03*
X272312Y100330D03*
X294108Y129540D03*
X310412Y129540D03*
D20*
X293370Y116840D03*
M02*
