0
SECTION
2
HEADER
9
$INSUNITS
70
4
9
$ACADVER
1
AC1014
9
$HANDSEED
5
FFFF
0
ENDSEC
0
SECTION
2
TABLES
0
TABLE
2
VPORT
5
8
100
AcDbSymbolTable
0
ENDTAB
0
TABLE
2
LTYPE
5
5
100
AcDbSymbolTable
0
LTYPE
5
14
100
AcDbSymbolTableRecord
100
AcDbLinetypeTableRecord
2
BYBLOCK
70
0
0
LTYPE
5
15
100
AcDbSymbolTableRecord
100
AcDbLinetypeTableRecord
2
BYLAYER
70
0
0
ENDTAB
0
TABLE
2
LAYER
5
2
100
AcDbSymbolTable
70
2
0
LAYER
5
50
100
AcDbSymbolTableRecord
100
AcDbLayerTableRecord
2
0
70
0
6
CONTINUOUS
0
ENDTAB
0
TABLE
2
STYLE
5
3
100
AcDbSymbolTable
70
1
0
STYLE
5
11
100
AcDbSymbolTableRecord
100
AcDbTextStyleTableRecord
2
STANDARD
70
0
0
ENDTAB
0
TABLE
2
VIEW
5
6
100
AcDbSymbolTable
70
0
0
ENDTAB
0
TABLE
2
UCS
5
7
100
AcDbSymbolTable
70
0
0
ENDTAB
0
TABLE
2
APPID
5
9
100
AcDbSymbolTable
70
2
0
APPID
5
12
100
AcDbSymbolTableRecord
100
AcDbRegAppTableRecord
2
ACAD
70
0
0
ENDTAB
0
TABLE
2
DIMSTYLE
5
A
100
AcDbSymbolTable
70
1
0
ENDTAB
0
TABLE
2
BLOCK_RECORD
5
1
100
AcDbSymbolTable
70
1
0
BLOCK_RECORD
5
1F
100
AcDbSymbolTableRecord
100
AcDbBlockTableRecord
2
*MODEL_SPACE
0
BLOCK_RECORD
5
1B
100
AcDbSymbolTableRecord
100
AcDbBlockTableRecord
2
*PAPER_SPACE
0
ENDTAB
0
ENDSEC
0
SECTION
2
BLOCKS
0
BLOCK
5
20
100
AcDbEntity
100
AcDbBlockBegin
2
*MODEL_SPACE
0
ENDBLK
5
21
100
AcDbEntity
100
AcDbBlockEnd
0
BLOCK
5
1C
100
AcDbEntity
100
AcDbBlockBegin
2
*PAPER_SPACE
0
ENDBLK
5
1D
100
AcDbEntity
100
AcDbBlockEnd
0
ENDSEC
0
SECTION
2
ENTITIES
0
CIRCLE
5
100
100
AcDbEntity
8
0
100
AcDbCircle
10
-9.0622478723522875
20
-190.49635162353559
30
0
40
4.0000000000000027
210
0
220
-0
230
1
0
CIRCLE
5
101
100
AcDbEntity
8
0
100
AcDbCircle
10
48.437752127647272
20
44.303648376465183
30
0
40
4.0000000000000062
210
0
220
-0
230
1
0
CIRCLE
5
102
100
AcDbEntity
8
0
100
AcDbCircle
10
-66.562247872352728
20
44.303648376465006
30
0
40
4.0000000000000062
210
0
220
-0
230
1
0
CIRCLE
5
103
100
AcDbEntity
8
0
100
AcDbCircle
10
-25.587247872374192
20
-25.056351623533935
30
0
40
2.0000000000000009
210
0
220
0
230
1
0
CIRCLE
5
104
100
AcDbEntity
8
0
100
AcDbCircle
10
-25.587247872374199
20
14.943648376423422
30
0
40
2.0000000000000009
210
0
220
0
230
1
0
LWPOLYLINE
5
105
100
AcDbEntity
8
0
100
AcDbPolyline
90
8
70
1
43
0.0
10
1.9377521276473242
20
8.3036483764649915
10
1.9377521276473231
20
1.3036483764649764
42
-0.41421356237309731
10
0.93775212764732774
20
0.30364837646496234
10
-19.062247872352678
20
0.30364837646496445
42
-0.41421356237309442
10
-20.062247872352678
20
1.3036483764649633
10
-20.062247872352678
20
8.3036483764649951
42
-0.41421356237309309
10
-19.062247872352678
20
9.3036483764649915
10
0.93775212764732663
20
9.3036483764649951
42
-0.41421356237309337
0
CIRCLE
5
106
100
AcDbEntity
8
0
100
AcDbCircle
10
7.4627521276258211
20
14.943648376423422
30
0
40
2.0000000000000009
210
0
220
0
230
1
0
CIRCLE
5
107
100
AcDbEntity
8
0
100
AcDbCircle
10
-25.587247872374192
20
-45.336351623533957
30
0
40
2.0000000000000009
210
0
220
0
230
1
0
CIRCLE
5
108
100
AcDbEntity
8
0
100
AcDbCircle
10
7.4627521276675566
20
-25.056351623533946
30
0
40
2.0000000000000009
210
0
220
0
230
1
0
CIRCLE
5
109
100
AcDbEntity
8
0
100
AcDbCircle
10
-25.587247872374196
20
-5.3363516235766006
30
0
40
2.0000000000000009
210
0
220
0
230
1
0
CIRCLE
5
110
100
AcDbEntity
8
0
100
AcDbCircle
10
7.4627521276258015
20
-5.3363516235766006
30
0
40
2.0000000000000009
210
0
220
0
230
1
0
LWPOLYLINE
5
111
100
AcDbEntity
8
0
100
AcDbPolyline
90
8
70
1
43
0.0
10
-19.062247872352664
20
-30.696351623535037
10
0.93775212764734439
20
-30.696351623535044
42
-0.41421356237309276
10
1.9377521276473366
20
-31.696351623535044
10
1.9377521276473386
20
-38.696351623535058
42
-0.41421356237309409
10
0.93775212764733662
20
-39.696351623535058
10
-19.062247872352664
20
-39.696351623535051
42
-0.41421356237309176
10
-20.062247872352657
20
-38.696351623535065
10
-20.062247872352668
20
-31.69635162353503
42
-0.41421356237308982
0
CIRCLE
5
112
100
AcDbEntity
8
0
100
AcDbCircle
10
7.4627521276675548
20
-45.336351623533957
30
0
40
2.0000000000000009
210
0
220
0
230
1
0
LWPOLYLINE
5
113
100
AcDbEntity
8
0
100
AcDbPolyline
90
4
70
1
43
0.0
10
143.33775212764735
20
64.303648376464949
10
-161.46224787235269
20
64.303648376464949
10
-161.46224787235266
20
-240.4963516235353
10
143.33775212764738
20
-240.4963516235353
0
CIRCLE
5
114
100
AcDbEntity
8
0
100
AcDbCircle
10
-22.353950645343104
20
-126.47131551721108
30
0
40
1.0000000000000016
210
0
220
-0
230
1
0
CIRCLE
5
115
100
AcDbEntity
8
0
100
AcDbCircle
10
-17.020617312009772
20
-99.804648850544439
30
0
40
1.0000000000000016
210
0
220
-0
230
1
0
CIRCLE
5
116
100
AcDbEntity
8
0
100
AcDbCircle
10
-6.3539506453431152
20
-121.13798218387774
30
0
40
1.0000000000000004
210
0
220
-0
230
1
0
CIRCLE
5
117
100
AcDbEntity
8
0
100
AcDbCircle
10
9.6460493546568742
20
-115.80464885054441
30
0
40
1.0000000000000016
210
0
220
-0
230
1
0
CIRCLE
5
118
100
AcDbEntity
8
0
100
AcDbCircle
10
-17.020617312009772
20
-131.8046488505444
30
0
40
1.0000000000000016
210
0
220
-0
230
1
0
CIRCLE
5
119
100
AcDbEntity
8
0
100
AcDbCircle
10
9.6460493546568742
20
-89.137982183877753
30
0
40
1.0000000000000016
210
0
220
-0
230
1
0
CIRCLE
5
120
100
AcDbEntity
8
0
100
AcDbCircle
10
-1.020617312009785
20
-121.13798218387774
30
0
40
1.0000000000000007
210
0
220
-0
230
1
0
CIRCLE
5
121
100
AcDbEntity
8
0
100
AcDbCircle
10
-27.687283978676433
20
-94.471315517211082
30
0
40
1.0000000000000016
210
0
220
-0
230
1
0
CIRCLE
5
122
100
AcDbEntity
8
0
100
AcDbCircle
10
-17.020617312009772
20
-121.13798218387774
30
0
40
1.0000000000000016
210
0
220
-0
230
1
0
CIRCLE
5
123
100
AcDbEntity
8
0
100
AcDbCircle
10
-11.687283978676442
20
-115.80464885054441
30
0
40
1.0000000000000016
210
4.9303806576313238e-32
220
-9.3427674127979016e-63
230
1
0
CIRCLE
5
124
100
AcDbEntity
8
0
100
AcDbCircle
10
-33.020617312009755
20
-115.80464885054441
30
0
40
1.0000000000000016
210
0
220
-0
230
1
0
CIRCLE
5
125
100
AcDbEntity
8
0
100
AcDbCircle
10
9.6460493546568742
20
-137.13798218387774
30
0
40
1.0000000000000016
210
0
220
-0
230
1
0
CIRCLE
5
126
100
AcDbEntity
8
0
100
AcDbCircle
10
-22.353950645343104
20
-110.4713155172111
30
0
40
1.0000000000000016
210
0
220
-0
230
1
0
CIRCLE
5
127
100
AcDbEntity
8
0
100
AcDbCircle
10
-17.020617312009772
20
-105.13798218387777
30
0
40
1.0000000000000016
210
0
220
-0
230
1
0
CIRCLE
5
128
100
AcDbEntity
8
0
100
AcDbCircle
10
14.979382687990206
20
-121.13798218387774
30
0
40
1.0000000000000016
210
0
220
-0
230
1
0
CIRCLE
5
129
100
AcDbEntity
8
0
100
AcDbCircle
10
-1.020617312009785
20
-131.8046488505444
30
0
40
1.0000000000000007
210
0
220
-0
230
1
0
CIRCLE
5
130
100
AcDbEntity
8
0
100
AcDbCircle
10
-11.687283978676442
20
-99.804648850544439
30
0
40
1.0000000000000016
210
4.9303806576313238e-32
220
-9.3427674127979016e-63
230
1
0
CIRCLE
5
131
100
AcDbEntity
8
0
100
AcDbCircle
10
4.3127160213235447
20
-110.4713155172111
30
0
40
1.0000000000000004
210
0
220
-0
230
1
0
CIRCLE
5
132
100
AcDbEntity
8
0
100
AcDbCircle
10
14.979382687990206
20
-105.13798218387777
30
0
40
1.0000000000000016
210
0
220
-0
230
1
0
CIRCLE
5
133
100
AcDbEntity
8
0
100
AcDbCircle
10
4.3127160213235447
20
-105.13798218387777
30
0
40
1.0000000000000004
210
0
220
-0
230
1
0
CIRCLE
5
134
100
AcDbEntity
8
0
100
AcDbCircle
10
-1.020617312009785
20
-94.471315517211082
30
0
40
1.0000000000000007
210
0
220
-0
230
1
0
CIRCLE
5
135
100
AcDbEntity
8
0
100
AcDbCircle
10
-11.687283978676442
20
-94.471315517211082
30
0
40
1.0000000000000016
210
4.9303806576313238e-32
220
-9.1918797746459254e-63
230
1
0
CIRCLE
5
136
100
AcDbEntity
8
0
100
AcDbCircle
10
-6.3539506453431152
20
-99.804648850544439
30
0
40
1.0000000000000004
210
0
220
-0
230
1
0
CIRCLE
5
137
100
AcDbEntity
8
0
100
AcDbCircle
10
-22.353950645343104
20
-89.137982183877753
30
0
40
1.0000000000000016
210
0
220
-0
230
1
0
CIRCLE
5
138
100
AcDbEntity
8
0
100
AcDbCircle
10
-33.020617312009755
20
-105.13798218387777
30
0
40
1.0000000000000016
210
0
220
-0
230
1
0
CIRCLE
5
139
100
AcDbEntity
8
0
100
AcDbCircle
10
4.3127160213235447
20
-121.13798218387774
30
0
40
1.0000000000000004
210
0
220
-0
230
1
0
CIRCLE
5
140
100
AcDbEntity
8
0
100
AcDbCircle
10
20.937752127647585
20
-143.09635162353513
30
0
40
2.0000000000000031
210
0
220
-0
230
1
0
CIRCLE
5
141
100
AcDbEntity
8
0
100
AcDbCircle
10
9.6460493546568742
20
-131.8046488505444
30
0
40
1.0000000000000016
210
0
220
-0
230
1
0
CIRCLE
5
142
100
AcDbEntity
8
0
100
AcDbCircle
10
-11.687283978676442
20
-89.137982183877753
30
0
40
1.0000000000000016
210
4.9303806576313238e-32
220
-9.1918797746459254e-63
230
1
0
CIRCLE
5
143
100
AcDbEntity
8
0
100
AcDbCircle
10
-1.020617312009785
20
-99.804648850544439
30
0
40
1.0000000000000007
210
0
220
-0
230
1
0
CIRCLE
5
144
100
AcDbEntity
8
0
100
AcDbCircle
10
9.6460493546568742
20
-99.804648850544439
30
0
40
1.0000000000000016
210
0
220
-0
230
1
0
CIRCLE
5
145
100
AcDbEntity
8
0
100
AcDbCircle
10
-6.3539506453431152
20
-105.13798218387777
30
0
40
1.0000000000000004
210
0
220
-0
230
1
0
CIRCLE
5
146
100
AcDbEntity
8
0
100
AcDbCircle
10
9.6460493546568742
20
-105.13798218387777
30
0
40
1.0000000000000016
210
0
220
-0
230
1
0
CIRCLE
5
147
100
AcDbEntity
8
0
100
AcDbCircle
10
-6.3539506453431152
20
-110.4713155172111
30
0
40
1.0000000000000004
210
0
220
-0
230
1
0
CIRCLE
5
148
100
AcDbEntity
8
0
100
AcDbCircle
10
-39.062247872352408
20
-83.096351623535085
30
0
40
2.0000000000000031
210
0
220
-0
230
1
0
CIRCLE
5
149
100
AcDbEntity
8
0
100
AcDbCircle
10
14.979382687990206
20
-126.47131551721108
30
0
40
1.0000000000000016
210
0
220
-0
230
1
0
CIRCLE
5
150
100
AcDbEntity
8
0
100
AcDbCircle
10
-11.687283978676442
20
-137.13798218387774
30
0
40
1.0000000000000016
210
4.9303806576313238e-32
220
-9.3427674127979016e-63
230
1
0
CIRCLE
5
151
100
AcDbEntity
8
0
100
AcDbCircle
10
-22.353950645343104
20
-137.13798218387774
30
0
40
1.0000000000000016
210
0
220
-0
230
1
0
CIRCLE
5
152
100
AcDbEntity
8
0
100
AcDbCircle
10
-11.687283978676442
20
-105.13798218387777
30
0
40
1.0000000000000016
210
4.9303806576313238e-32
220
-9.3427674127979016e-63
230
1
0
CIRCLE
5
153
100
AcDbEntity
8
0
100
AcDbCircle
10
-17.020617312009772
20
-110.4713155172111
30
0
40
1.0000000000000016
210
0
220
-0
230
1
0
CIRCLE
5
154
100
AcDbEntity
8
0
100
AcDbCircle
10
-1.020617312009785
20
-115.80464885054441
30
0
40
1.0000000000000007
210
0
220
-0
230
1
0
CIRCLE
5
155
100
AcDbEntity
8
0
100
AcDbCircle
10
-27.687283978676433
20
-115.80464885054441
30
0
40
1.0000000000000016
210
0
220
-0
230
1
0
CIRCLE
5
156
100
AcDbEntity
8
0
100
AcDbCircle
10
-33.020617312009755
20
-121.13798218387774
30
0
40
1.0000000000000016
210
0
220
-0
230
1
0
CIRCLE
5
157
100
AcDbEntity
8
0
100
AcDbCircle
10
-6.3539506453431152
20
-89.137982183877753
30
0
40
1.0000000000000004
210
0
220
-0
230
1
0
CIRCLE
5
158
100
AcDbEntity
8
0
100
AcDbCircle
10
-22.353950645343104
20
-94.471315517211082
30
0
40
1.0000000000000016
210
0
220
-0
230
1
0
CIRCLE
5
159
100
AcDbEntity
8
0
100
AcDbCircle
10
-17.020617312009772
20
-126.47131551721108
30
0
40
1.0000000000000016
210
0
220
-0
230
1
0
CIRCLE
5
160
100
AcDbEntity
8
0
100
AcDbCircle
10
14.979382687990206
20
-89.137982183877753
30
0
40
1.0000000000000016
210
0
220
-0
230
1
0
CIRCLE
5
161
100
AcDbEntity
8
0
100
AcDbCircle
10
-11.687283978676442
20
-131.8046488505444
30
0
40
1.0000000000000016
210
4.9303806576313238e-32
220
-9.3427674127979016e-63
230
1
0
CIRCLE
5
162
100
AcDbEntity
8
0
100
AcDbCircle
10
-33.020617312009755
20
-99.804648850544439
30
0
40
1.0000000000000016
210
0
220
-0
230
1
0
CIRCLE
5
163
100
AcDbEntity
8
0
100
AcDbCircle
10
-27.687283978676433
20
-99.804648850544439
30
0
40
1.0000000000000016
210
0
220
-0
230
1
0
CIRCLE
5
164
100
AcDbEntity
8
0
100
AcDbCircle
10
4.3127160213235447
20
-126.47131551721108
30
0
40
1.0000000000000004
210
0
220
-0
230
1
0
CIRCLE
5
165
100
AcDbEntity
8
0
100
AcDbCircle
10
-11.687283978676442
20
-126.47131551721108
30
0
40
1.0000000000000016
210
4.9303806576313238e-32
220
-9.3427674127979016e-63
230
1
0
CIRCLE
5
166
100
AcDbEntity
8
0
100
AcDbCircle
10
-27.687283978676433
20
-126.47131551721108
30
0
40
1.0000000000000016
210
0
220
-0
230
1
0
CIRCLE
5
167
100
AcDbEntity
8
0
100
AcDbCircle
10
-1.020617312009785
20
-126.47131551721108
30
0
40
1.0000000000000007
210
0
220
-0
230
1
0
CIRCLE
5
168
100
AcDbEntity
8
0
100
AcDbCircle
10
-6.3539506453431152
20
-137.13798218387774
30
0
40
1.0000000000000004
210
0
220
-0
230
1
0
CIRCLE
5
169
100
AcDbEntity
8
0
100
AcDbCircle
10
-1.020617312009785
20
-137.13798218387774
30
0
40
1.0000000000000007
210
0
220
-0
230
1
0
CIRCLE
5
170
100
AcDbEntity
8
0
100
AcDbCircle
10
-22.353950645343104
20
-131.8046488505444
30
0
40
1.0000000000000016
210
0
220
-0
230
1
0
CIRCLE
5
171
100
AcDbEntity
8
0
100
AcDbCircle
10
4.3127160213235447
20
-89.137982183877753
30
0
40
1.0000000000000004
210
0
220
-0
230
1
0
CIRCLE
5
172
100
AcDbEntity
8
0
100
AcDbCircle
10
-33.020617312009755
20
-126.47131551721108
30
0
40
1.0000000000000016
210
0
220
-0
230
1
0
CIRCLE
5
173
100
AcDbEntity
8
0
100
AcDbCircle
10
-33.020617312009755
20
-94.471315517211082
30
0
40
1.0000000000000016
210
0
220
-0
230
1
0
CIRCLE
5
174
100
AcDbEntity
8
0
100
AcDbCircle
10
-22.353950645343104
20
-121.13798218387774
30
0
40
1.0000000000000016
210
0
220
-0
230
1
0
CIRCLE
5
175
100
AcDbEntity
8
0
100
AcDbCircle
10
-17.020617312009772
20
-115.80464885054441
30
0
40
1.0000000000000016
210
0
220
-0
230
1
0
CIRCLE
5
176
100
AcDbEntity
8
0
100
AcDbCircle
10
-11.687283978676442
20
-110.4713155172111
30
0
40
1.0000000000000016
210
4.9303806576313238e-32
220
-9.3427674127979016e-63
230
1
0
CIRCLE
5
177
100
AcDbEntity
8
0
100
AcDbCircle
10
-6.3539506453431152
20
-115.80464885054441
30
0
40
1.0000000000000004
210
0
220
-0
230
1
0
CIRCLE
5
178
100
AcDbEntity
8
0
100
AcDbCircle
10
-27.687283978676433
20
-110.4713155172111
30
0
40
1.0000000000000016
210
0
220
-0
230
1
0
CIRCLE
5
179
100
AcDbEntity
8
0
100
AcDbCircle
10
-22.353950645343104
20
-105.13798218387777
30
0
40
1.0000000000000016
210
0
220
-0
230
1
0
CIRCLE
5
180
100
AcDbEntity
8
0
100
AcDbCircle
10
-17.020617312009772
20
-137.13798218387774
30
0
40
1.0000000000000016
210
0
220
-0
230
1
0
CIRCLE
5
181
100
AcDbEntity
8
0
100
AcDbCircle
10
-6.3539506453431152
20
-131.8046488505444
30
0
40
1.0000000000000004
210
0
220
-0
230
1
0
CIRCLE
5
182
100
AcDbEntity
8
0
100
AcDbCircle
10
-39.062247872352408
20
-143.09635162353513
30
0
40
2.0000000000000031
210
0
220
-0
230
1
0
CIRCLE
5
183
100
AcDbEntity
8
0
100
AcDbCircle
10
-1.020617312009785
20
-110.4713155172111
30
0
40
1.0000000000000007
210
0
220
-0
230
1
0
CIRCLE
5
184
100
AcDbEntity
8
0
100
AcDbCircle
10
14.979382687990206
20
-94.471315517211082
30
0
40
1.0000000000000016
210
0
220
-0
230
1
0
CIRCLE
5
185
100
AcDbEntity
8
0
100
AcDbCircle
10
-1.020617312009785
20
-105.13798218387777
30
0
40
1.0000000000000007
210
0
220
-0
230
1
0
CIRCLE
5
186
100
AcDbEntity
8
0
100
AcDbCircle
10
14.979382687990206
20
-99.804648850544439
30
0
40
1.0000000000000016
210
0
220
-0
230
1
0
CIRCLE
5
187
100
AcDbEntity
8
0
100
AcDbCircle
10
4.3127160213235447
20
-99.804648850544439
30
0
40
1.0000000000000004
210
0
220
-0
230
1
0
CIRCLE
5
188
100
AcDbEntity
8
0
100
AcDbCircle
10
-27.687283978676433
20
-89.137982183877753
30
0
40
1.0000000000000016
210
0
220
-0
230
1
0
CIRCLE
5
189
100
AcDbEntity
8
0
100
AcDbCircle
10
14.979382687990206
20
-131.8046488505444
30
0
40
1.0000000000000016
210
0
220
-0
230
1
0
CIRCLE
5
190
100
AcDbEntity
8
0
100
AcDbCircle
10
4.3127160213235447
20
-131.8046488505444
30
0
40
1.0000000000000004
210
0
220
-0
230
1
0
CIRCLE
5
191
100
AcDbEntity
8
0
100
AcDbCircle
10
-22.353950645343104
20
-99.804648850544439
30
0
40
1.0000000000000016
210
0
220
-0
230
1
0
CIRCLE
5
192
100
AcDbEntity
8
0
100
AcDbCircle
10
14.979382687990206
20
-110.4713155172111
30
0
40
1.0000000000000016
210
0
220
-0
230
1
0
CIRCLE
5
193
100
AcDbEntity
8
0
100
AcDbCircle
10
-27.687283978676433
20
-105.13798218387777
30
0
40
1.0000000000000016
210
0
220
-0
230
1
0
CIRCLE
5
194
100
AcDbEntity
8
0
100
AcDbCircle
10
-33.020617312009755
20
-89.137982183877753
30
0
40
1.0000000000000016
210
0
220
-0
230
1
0
CIRCLE
5
195
100
AcDbEntity
8
0
100
AcDbCircle
10
-17.020617312009772
20
-94.471315517211082
30
0
40
1.0000000000000016
210
0
220
-0
230
1
0
CIRCLE
5
196
100
AcDbEntity
8
0
100
AcDbCircle
10
-6.3539506453431152
20
-94.471315517211082
30
0
40
1.0000000000000004
210
0
220
-0
230
1
0
CIRCLE
5
197
100
AcDbEntity
8
0
100
AcDbCircle
10
4.3127160213235447
20
-94.471315517211082
30
0
40
1.0000000000000004
210
0
220
-0
230
1
0
CIRCLE
5
198
100
AcDbEntity
8
0
100
AcDbCircle
10
9.6460493546568742
20
-94.471315517211082
30
0
40
1.0000000000000016
210
0
220
-0
230
1
0
CIRCLE
5
199
100
AcDbEntity
8
0
100
AcDbCircle
10
20.937752127647592
20
-83.096351623535099
30
0
40
2.0000000000000031
210
0
220
-0
230
1
0
CIRCLE
5
200
100
AcDbEntity
8
0
100
AcDbCircle
10
9.6460493546568742
20
-110.4713155172111
30
0
40
1.0000000000000016
210
0
220
-0
230
1
0
CIRCLE
5
201
100
AcDbEntity
8
0
100
AcDbCircle
10
-33.020617312009755
20
-137.13798218387774
30
0
40
1.0000000000000016
210
0
220
-0
230
1
0
CIRCLE
5
202
100
AcDbEntity
8
0
100
AcDbCircle
10
9.6460493546568742
20
-121.13798218387774
30
0
40
1.0000000000000016
210
0
220
-0
230
1
0
CIRCLE
5
203
100
AcDbEntity
8
0
100
AcDbCircle
10
-6.3539506453431152
20
-126.47131551721108
30
0
40
1.0000000000000004
210
0
220
-0
230
1
0
CIRCLE
5
204
100
AcDbEntity
8
0
100
AcDbCircle
10
-33.020617312009755
20
-110.4713155172111
30
0
40
1.0000000000000016
210
0
220
-0
230
1
0
CIRCLE
5
205
100
AcDbEntity
8
0
100
AcDbCircle
10
14.979382687990206
20
-137.13798218387774
30
0
40
1.0000000000000016
210
0
220
-0
230
1
0
CIRCLE
5
206
100
AcDbEntity
8
0
100
AcDbCircle
10
4.3127160213235447
20
-137.13798218387774
30
0
40
1.0000000000000004
210
0
220
-0
230
1
0
CIRCLE
5
207
100
AcDbEntity
8
0
100
AcDbCircle
10
-22.353950645343104
20
-115.80464885054441
30
0
40
1.0000000000000016
210
0
220
-0
230
1
0
CIRCLE
5
208
100
AcDbEntity
8
0
100
AcDbCircle
10
-27.687283978676433
20
-121.13798218387774
30
0
40
1.0000000000000016
210
0
220
-0
230
1
0
CIRCLE
5
209
100
AcDbEntity
8
0
100
AcDbCircle
10
-1.020617312009785
20
-89.137982183877753
30
0
40
1.0000000000000007
210
0
220
-0
230
1
0
CIRCLE
5
210
100
AcDbEntity
8
0
100
AcDbCircle
10
-11.687283978676442
20
-121.13798218387774
30
0
40
1.0000000000000016
210
4.9303806576313238e-32
220
-9.3427674127979016e-63
230
1
0
CIRCLE
5
211
100
AcDbEntity
8
0
100
AcDbCircle
10
-17.020617312009772
20
-89.137982183877753
30
0
40
1.0000000000000016
210
0
220
-0
230
1
0
CIRCLE
5
212
100
AcDbEntity
8
0
100
AcDbCircle
10
-27.687283978676433
20
-131.8046488505444
30
0
40
1.0000000000000016
210
0
220
-0
230
1
0
CIRCLE
5
213
100
AcDbEntity
8
0
100
AcDbCircle
10
4.3127160213235447
20
-115.80464885054441
30
0
40
1.0000000000000004
210
0
220
-0
230
1
0
CIRCLE
5
214
100
AcDbEntity
8
0
100
AcDbCircle
10
14.979382687990206
20
-115.80464885054441
30
0
40
1.0000000000000016
210
0
220
-0
230
1
0
CIRCLE
5
215
100
AcDbEntity
8
0
100
AcDbCircle
10
-27.687283978676433
20
-137.13798218387774
30
0
40
1.0000000000000016
210
0
220
-0
230
1
0
CIRCLE
5
216
100
AcDbEntity
8
0
100
AcDbCircle
10
9.6460493546568742
20
-126.47131551721108
30
0
40
1.0000000000000016
210
0
220
-0
230
1
0
CIRCLE
5
217
100
AcDbEntity
8
0
100
AcDbCircle
10
-33.020617312009755
20
-131.8046488505444
30
0
40
1.0000000000000016
210
0
220
-0
230
1
0
ENDSEC
0
SECTION
2
OBJECTS
0
DICTIONARY
5
C
100
AcDbDictionary
3
ACAD_GROUP
350
D
3
ACAD_MLINESTYLE
350
17
0
DICTIONARY
5
D
100
AcDbDictionary
0
DICTIONARY
5
1A
330
C
100
AcDbDictionary
0
DICTIONARY
5
17
100
AcDbDictionary
0
ENDSEC
0
EOF
