M48
;GenerationSoftware,Autodesk,EAGLE,9.7.0*%
;CreationDate,2023-12-09T20:47:25Z*%
FMAT,2
ICI,OFF
METRIC,TZ,000.000
T13C0.350
T12C0.660
T11C0.800
T10C0.840
T9C0.890
T8C0.914
T7C1.000
T6C1.050
T5C1.100
T4C1.500
T3C2.000
T2C3.200
T1C5.000
%
G90
M71
T1
X73660Y49530
X73660Y92710
X33020Y43180
X123190Y43180
X33020Y92710
X121920Y92710
T2
X153670Y20066
X140970Y20066
X133350Y20066
X120650Y20066
X113030Y20066
X100330Y20066
X92710Y20066
X80010Y20066
X72390Y20066
X59690Y20066
X52070Y20066
X39370Y20066
X31750Y20066
X19050Y20066
X11430Y20066
X-1270Y20066
T3
X17250Y23525
X33550Y23525
X-3070Y23525
X13230Y23525
X37570Y23525
X139170Y23525
X155470Y23525
X118850Y23525
X135150Y23525
X53870Y23525
X94510Y23525
X78210Y23525
X149860Y51435
X149860Y61595
X57890Y23525
X74190Y23525
X149860Y70485
X98530Y23525
X114830Y23525
X149860Y80645
T4
X149574Y42545
X156574Y42545
T5
X-635Y41275
X1905Y41275
X-635Y43815
X1905Y43815
X88900Y53086
X96520Y53086
X100330Y53086
X68580Y81280
X68580Y77470
X58420Y81280
X58420Y77470
X48260Y81280
X107950Y53086
X111760Y53086
X85090Y53086
X33020Y67310
X33020Y71120
X43180Y67310
X43180Y71120
X53340Y67310
X53340Y71120
X63500Y67310
X63500Y71120
X73660Y67310
X73660Y71120
X38100Y77470
X38100Y81280
X48260Y77470
X1905Y38735
X-635Y38735
T6
X98425Y76200
X98425Y73660
X98425Y71120
X98425Y68580
X98425Y66040
X98425Y63500
X85725Y81280
X85725Y78740
X85725Y76200
X85725Y73660
X85725Y71120
X85725Y68580
X85725Y66040
X85725Y63500
X98425Y81280
X98425Y78740
T7
X16510Y68580
X13970Y77220
X19050Y91248
X19050Y79760
X19050Y77220
X16510Y79760
X16510Y77220
X13970Y79760
X11430Y79760
X11430Y77220
X1270Y66040
X1270Y68580
X3810Y66040
X3810Y68580
X6350Y66040
X6350Y68580
X8890Y66040
X8890Y68580
X11430Y66040
X11430Y68580
X13970Y66040
X13970Y68580
X16510Y66040
X8890Y79760
X19050Y66040
X19050Y68580
X1270Y54610
X1270Y57150
X3810Y54610
X3810Y57150
X6350Y54610
X6350Y57150
X8890Y54610
X8890Y57150
X11430Y54610
X11430Y57150
X13970Y54610
X13970Y57150
X16510Y54610
X16510Y57150
X19050Y54610
X19050Y57150
X1270Y88708
X1270Y91248
X3810Y88708
X3810Y91248
X6350Y88708
X6350Y91248
X8890Y88708
X8890Y91248
X11430Y88708
X11430Y91248
X13970Y88708
X13970Y91248
X16510Y88708
X16510Y91248
X19050Y88708
X8890Y77220
X1270Y77220
X1270Y79760
X3810Y77220
X3810Y79760
X6350Y77220
X6350Y79760
T8
X86868Y24384
X88900Y24384
X64516Y24384
X62484Y24384
X83820Y22606
X85852Y22606
X150876Y22606
X103124Y24384
X89916Y22606
X87884Y22606
X49276Y22606
X47244Y22606
X105156Y24384
X107188Y24384
X84836Y24384
X82804Y24384
X109220Y24384
X104140Y22606
X69596Y22606
X67564Y22606
X65532Y22606
X63500Y22606
X68580Y24384
X66548Y24384
X45212Y22606
X43180Y22606
X106172Y22606
X108204Y22606
X110236Y22606
X123444Y24384
X125476Y24384
X127508Y24384
X129540Y24384
X124460Y22606
X126492Y22606
X128524Y22606
X130556Y22606
X143764Y24384
X145796Y24384
X147828Y24384
X1524Y24384
X3556Y24384
X5588Y24384
X7620Y24384
X2540Y22606
X4572Y22606
X6604Y22606
X8636Y22606
X149860Y24384
X144780Y22606
X21844Y24384
X23876Y24384
X25908Y24384
X27940Y24384
X22860Y22606
X24892Y22606
X26924Y22606
X28956Y22606
X146812Y22606
X148844Y22606
X42164Y24384
X44196Y24384
X46228Y24384
X48260Y24384
T9
X144780Y78105
X144780Y75565
X144780Y59055
X144780Y56515
T10
X106045Y68580
X106045Y71080
X106045Y73580
X106045Y76080
T11
G00X146420Y90185
M15
G01X146420Y92385
M16
X146420Y91285
G00X148170Y95885
M15
G01X150370Y95885
M16
X149270Y95885
G00X152520Y92385
M15
G01X152520Y90185
M16
X152520Y91285
T12
G05
X111760Y39306
X105410Y46546
X105410Y39306
X93980Y46546
X93980Y39306
X100330Y46546
X100330Y39306
X88900Y46546
X88900Y39306
X111760Y46546
T13
X57150Y47173
X54610Y49355
X62230Y58420
X62230Y57150
X49530Y53340
X63119Y53340
X40640Y53340
X33020Y53340
X40640Y52070
X33020Y52070
X128524Y16761
X108204Y16761
X87884Y16761
X67564Y16761
X47244Y16761
X26924Y16764
X7112Y18161
X128905Y35320
X123698Y52070
X116840Y53721
X83312Y43815
X144780Y26670
X73152Y43434
X124587Y27559
X73152Y42164
X82042Y42164
X104140Y27305
X73152Y40894
X80772Y39624
X83820Y27305
X73152Y39624
X79502Y38354
X75804Y36972
X63500Y27305
X58420Y39116
X43180Y27305
X58420Y38100
X120523Y77470
X54610Y42291
X22860Y27305
X37465Y37465
X120269Y80010
X53340Y42291
X2540Y30480
X26670Y38100
X82550Y85090
X1270Y45720
X62230Y59690
X122194Y49530
X140335Y85602
X50165Y39199
X50165Y49359
X60960Y39195
X60960Y47244
X57150Y49352
X60960Y49355
M30