G04 EAGLE Gerber RS-274X export*
G75*
%MOMM*%
%FSLAX34Y34*%
%LPD*%
%INCopper Layer 2*%
%IPPOS*%
%AMOC8*
5,1,8,0,0,1.08239X$1,22.5*%
G01*
G04 Define Apertures*
%ADD10C,1.500000*%
%ADD11C,1.524000*%
%ADD12C,1.335000*%
%ADD13C,3.000000*%
%ADD14C,1.371600*%
%ADD15C,1.200000*%
%ADD16C,1.260000*%
%ADD17C,1.650000*%
%ADD18C,0.525000*%
G36*
X1069014Y25990D02*
X1068717Y25930D01*
X48210Y25930D01*
X48091Y25939D01*
X38067Y27527D01*
X37840Y27601D01*
X28798Y32208D01*
X28605Y32348D01*
X21428Y39525D01*
X21288Y39718D01*
X16681Y48760D01*
X16607Y48987D01*
X15019Y59011D01*
X15010Y59130D01*
X15010Y786518D01*
X15017Y786618D01*
X16571Y798422D01*
X16622Y798614D01*
X21179Y809615D01*
X21278Y809787D01*
X28526Y819233D01*
X28667Y819374D01*
X38113Y826622D01*
X38285Y826721D01*
X49286Y831278D01*
X49478Y831329D01*
X61282Y832883D01*
X61382Y832890D01*
X239768Y832890D01*
X240025Y832845D01*
X240285Y832688D01*
X240462Y832442D01*
X240529Y832146D01*
X240476Y831848D01*
X240311Y831594D01*
X240059Y831424D01*
X239956Y831381D01*
X234989Y826414D01*
X232300Y819923D01*
X232300Y812897D01*
X234989Y806406D01*
X239956Y801439D01*
X246447Y798750D01*
X253473Y798750D01*
X259964Y801439D01*
X264931Y806406D01*
X267620Y812897D01*
X267620Y819923D01*
X264931Y826414D01*
X259964Y831381D01*
X259861Y831424D01*
X259640Y831564D01*
X259461Y831809D01*
X259391Y832104D01*
X259442Y832403D01*
X259605Y832658D01*
X259855Y832830D01*
X260152Y832890D01*
X1377068Y832890D01*
X1377168Y832883D01*
X1388972Y831329D01*
X1389164Y831278D01*
X1400165Y826721D01*
X1400337Y826622D01*
X1409783Y819374D01*
X1409924Y819233D01*
X1417172Y809787D01*
X1417271Y809615D01*
X1421828Y798614D01*
X1421879Y798422D01*
X1423433Y786618D01*
X1423440Y786518D01*
X1423440Y79069D01*
X1423433Y78970D01*
X1421649Y65414D01*
X1421597Y65221D01*
X1416365Y52589D01*
X1416265Y52417D01*
X1407942Y41569D01*
X1407801Y41428D01*
X1396953Y33105D01*
X1396781Y33005D01*
X1384149Y27773D01*
X1383956Y27721D01*
X1370400Y25937D01*
X1370301Y25930D01*
X1102983Y25930D01*
X1102720Y25977D01*
X1102462Y26136D01*
X1102287Y26384D01*
X1102222Y26680D01*
X1102277Y26978D01*
X1102445Y27231D01*
X1106120Y30906D01*
X1109760Y39694D01*
X1109760Y49206D01*
X1106120Y57994D01*
X1099394Y64720D01*
X1090606Y68360D01*
X1081094Y68360D01*
X1072306Y64720D01*
X1065580Y57994D01*
X1061940Y49206D01*
X1061940Y39694D01*
X1065580Y30906D01*
X1069255Y27231D01*
X1069408Y27011D01*
X1069478Y26716D01*
X1069427Y26417D01*
X1069264Y26162D01*
X1069014Y25990D01*
G37*
%LPC*%
G36*
X955870Y805132D02*
X974648Y805132D01*
X974648Y812910D01*
X962711Y812910D01*
X959572Y811610D01*
X957170Y809208D01*
X955870Y806069D01*
X955870Y805132D01*
G37*
G36*
X976172Y805132D02*
X994950Y805132D01*
X994950Y806069D01*
X993650Y809208D01*
X991248Y811610D01*
X988109Y812910D01*
X976172Y812910D01*
X976172Y805132D01*
G37*
G36*
X1167540Y798852D02*
X1177568Y798852D01*
X1177568Y808880D01*
X1176184Y808880D01*
X1172218Y807237D01*
X1169183Y804202D01*
X1167540Y800236D01*
X1167540Y798852D01*
G37*
G36*
X1179092Y798852D02*
X1189120Y798852D01*
X1189120Y800236D01*
X1187477Y804202D01*
X1184442Y807237D01*
X1180476Y808880D01*
X1179092Y808880D01*
X1179092Y798852D01*
G37*
G36*
X1214536Y788570D02*
X1218324Y788570D01*
X1221823Y790019D01*
X1224501Y792697D01*
X1225950Y796196D01*
X1225950Y799984D01*
X1224501Y803483D01*
X1221823Y806161D01*
X1218324Y807610D01*
X1214536Y807610D01*
X1211037Y806161D01*
X1208359Y803483D01*
X1206910Y799984D01*
X1206910Y796196D01*
X1208359Y792697D01*
X1211037Y790019D01*
X1214536Y788570D01*
G37*
G36*
X1368364Y792300D02*
X1371376Y792300D01*
X1374158Y793452D01*
X1376288Y795582D01*
X1377440Y798364D01*
X1377440Y801376D01*
X1376288Y804158D01*
X1374158Y806288D01*
X1371376Y807440D01*
X1368364Y807440D01*
X1365582Y806288D01*
X1363452Y804158D01*
X1362300Y801376D01*
X1362300Y798364D01*
X1363452Y795582D01*
X1365582Y793452D01*
X1368364Y792300D01*
G37*
G36*
X1343364Y792300D02*
X1346376Y792300D01*
X1349158Y793452D01*
X1351288Y795582D01*
X1352440Y798364D01*
X1352440Y801376D01*
X1351288Y804158D01*
X1349158Y806288D01*
X1346376Y807440D01*
X1343364Y807440D01*
X1340582Y806288D01*
X1338452Y804158D01*
X1337300Y801376D01*
X1337300Y798364D01*
X1338452Y795582D01*
X1340582Y793452D01*
X1343364Y792300D01*
G37*
G36*
X1318364Y792300D02*
X1321376Y792300D01*
X1324158Y793452D01*
X1326288Y795582D01*
X1327440Y798364D01*
X1327440Y801376D01*
X1326288Y804158D01*
X1324158Y806288D01*
X1321376Y807440D01*
X1318364Y807440D01*
X1315582Y806288D01*
X1313452Y804158D01*
X1312300Y801376D01*
X1312300Y798364D01*
X1313452Y795582D01*
X1315582Y793452D01*
X1318364Y792300D01*
G37*
G36*
X1293364Y792300D02*
X1296376Y792300D01*
X1299158Y793452D01*
X1301288Y795582D01*
X1302440Y798364D01*
X1302440Y801376D01*
X1301288Y804158D01*
X1299158Y806288D01*
X1296376Y807440D01*
X1293364Y807440D01*
X1290582Y806288D01*
X1288452Y804158D01*
X1287300Y801376D01*
X1287300Y798364D01*
X1288452Y795582D01*
X1290582Y793452D01*
X1293364Y792300D01*
G37*
G36*
X976172Y795830D02*
X988109Y795830D01*
X991248Y797130D01*
X993650Y799532D01*
X994950Y802671D01*
X994950Y803608D01*
X976172Y803608D01*
X976172Y795830D01*
G37*
G36*
X962711Y795830D02*
X974648Y795830D01*
X974648Y803608D01*
X955870Y803608D01*
X955870Y802671D01*
X957170Y799532D01*
X959572Y797130D01*
X962711Y795830D01*
G37*
G36*
X56776Y737340D02*
X63664Y737340D01*
X70317Y739123D01*
X76283Y742567D01*
X81153Y747437D01*
X84597Y753403D01*
X86380Y760056D01*
X86380Y766241D01*
X86429Y766510D01*
X86590Y766767D01*
X86839Y766940D01*
X87136Y767003D01*
X87434Y766945D01*
X91574Y765230D01*
X98046Y765230D01*
X104026Y767707D01*
X108603Y772284D01*
X111080Y778264D01*
X111080Y784736D01*
X108603Y790716D01*
X104026Y795293D01*
X98046Y797770D01*
X91574Y797770D01*
X85594Y795293D01*
X81017Y790716D01*
X78540Y784736D01*
X78540Y784015D01*
X78493Y783752D01*
X78334Y783494D01*
X78086Y783319D01*
X77790Y783254D01*
X77492Y783309D01*
X77239Y783477D01*
X76283Y784433D01*
X70317Y787877D01*
X63664Y789660D01*
X56776Y789660D01*
X50123Y787877D01*
X44157Y784433D01*
X39287Y779563D01*
X35843Y773597D01*
X34060Y766944D01*
X34060Y760056D01*
X35843Y753403D01*
X39287Y747437D01*
X44157Y742567D01*
X50123Y739123D01*
X56776Y737340D01*
G37*
G36*
X1176184Y787300D02*
X1177568Y787300D01*
X1177568Y797328D01*
X1167540Y797328D01*
X1167540Y795944D01*
X1169183Y791978D01*
X1172218Y788943D01*
X1176184Y787300D01*
G37*
G36*
X1179092Y787300D02*
X1180476Y787300D01*
X1184442Y788943D01*
X1187477Y791978D01*
X1189120Y795944D01*
X1189120Y797328D01*
X1179092Y797328D01*
X1179092Y787300D01*
G37*
G36*
X920870Y772632D02*
X928648Y772632D01*
X928648Y791410D01*
X927711Y791410D01*
X924572Y790110D01*
X922170Y787708D01*
X920870Y784569D01*
X920870Y772632D01*
G37*
G36*
X930172Y772632D02*
X937950Y772632D01*
X937950Y784569D01*
X936650Y787708D01*
X934248Y790110D01*
X931109Y791410D01*
X930172Y791410D01*
X930172Y772632D01*
G37*
G36*
X930172Y752330D02*
X931109Y752330D01*
X934248Y753630D01*
X936650Y756032D01*
X937950Y759171D01*
X937950Y771108D01*
X930172Y771108D01*
X930172Y752330D01*
G37*
G36*
X927711Y752330D02*
X928648Y752330D01*
X928648Y771108D01*
X920870Y771108D01*
X920870Y759171D01*
X922170Y756032D01*
X924572Y753630D01*
X927711Y752330D01*
G37*
G36*
X857260Y751862D02*
X874038Y751862D01*
X874038Y768640D01*
X871311Y768640D01*
X864864Y765970D01*
X859930Y761036D01*
X857260Y754589D01*
X857260Y751862D01*
G37*
G36*
X755660Y751862D02*
X772438Y751862D01*
X772438Y768640D01*
X769711Y768640D01*
X763264Y765970D01*
X758330Y761036D01*
X755660Y754589D01*
X755660Y751862D01*
G37*
G36*
X645170Y751862D02*
X661948Y751862D01*
X661948Y768640D01*
X659221Y768640D01*
X652774Y765970D01*
X647840Y761036D01*
X645170Y754589D01*
X645170Y751862D01*
G37*
G36*
X543570Y751862D02*
X560348Y751862D01*
X560348Y768640D01*
X557621Y768640D01*
X551174Y765970D01*
X546240Y761036D01*
X543570Y754589D01*
X543570Y751862D01*
G37*
G36*
X426730Y751862D02*
X443508Y751862D01*
X443508Y768640D01*
X440781Y768640D01*
X434334Y765970D01*
X429400Y761036D01*
X426730Y754589D01*
X426730Y751862D01*
G37*
G36*
X325130Y751862D02*
X341908Y751862D01*
X341908Y768640D01*
X339181Y768640D01*
X332734Y765970D01*
X327800Y761036D01*
X325130Y754589D01*
X325130Y751862D01*
G37*
G36*
X343432Y751862D02*
X360210Y751862D01*
X360210Y754589D01*
X357540Y761036D01*
X352606Y765970D01*
X346159Y768640D01*
X343432Y768640D01*
X343432Y751862D01*
G37*
G36*
X445032Y751862D02*
X461810Y751862D01*
X461810Y754589D01*
X459140Y761036D01*
X454206Y765970D01*
X447759Y768640D01*
X445032Y768640D01*
X445032Y751862D01*
G37*
G36*
X561872Y751862D02*
X578650Y751862D01*
X578650Y754589D01*
X575980Y761036D01*
X571046Y765970D01*
X564599Y768640D01*
X561872Y768640D01*
X561872Y751862D01*
G37*
G36*
X663472Y751862D02*
X680250Y751862D01*
X680250Y754589D01*
X677580Y761036D01*
X672646Y765970D01*
X666199Y768640D01*
X663472Y768640D01*
X663472Y751862D01*
G37*
G36*
X773962Y751862D02*
X790740Y751862D01*
X790740Y754589D01*
X788070Y761036D01*
X783136Y765970D01*
X776689Y768640D01*
X773962Y768640D01*
X773962Y751862D01*
G37*
G36*
X875562Y751862D02*
X892340Y751862D01*
X892340Y754589D01*
X889670Y761036D01*
X884736Y765970D01*
X878289Y768640D01*
X875562Y768640D01*
X875562Y751862D01*
G37*
G36*
X246447Y728750D02*
X253473Y728750D01*
X259964Y731439D01*
X264931Y736406D01*
X267620Y742897D01*
X267620Y749923D01*
X264931Y756414D01*
X259964Y761381D01*
X253473Y764070D01*
X246447Y764070D01*
X239956Y761381D01*
X234989Y756414D01*
X232300Y749923D01*
X232300Y742897D01*
X234989Y736406D01*
X239956Y731439D01*
X246447Y728750D01*
G37*
G36*
X1270532Y748052D02*
X1279930Y748052D01*
X1279930Y749311D01*
X1278383Y753045D01*
X1275525Y755903D01*
X1271791Y757450D01*
X1270532Y757450D01*
X1270532Y748052D01*
G37*
G36*
X1259610Y748052D02*
X1269008Y748052D01*
X1269008Y757450D01*
X1267749Y757450D01*
X1264015Y755903D01*
X1261157Y753045D01*
X1259610Y749311D01*
X1259610Y748052D01*
G37*
G36*
X1395002Y738400D02*
X1398538Y738400D01*
X1401806Y739753D01*
X1404307Y742254D01*
X1405660Y745522D01*
X1405660Y749058D01*
X1404307Y752326D01*
X1401806Y754827D01*
X1398538Y756180D01*
X1395002Y756180D01*
X1391734Y754827D01*
X1389233Y752326D01*
X1387880Y749058D01*
X1387880Y745522D01*
X1389233Y742254D01*
X1391734Y739753D01*
X1395002Y738400D01*
G37*
G36*
X962964Y736100D02*
X987856Y736100D01*
X990528Y737207D01*
X992573Y739252D01*
X993680Y741924D01*
X993680Y744816D01*
X992573Y747488D01*
X990528Y749533D01*
X987856Y750640D01*
X962964Y750640D01*
X960292Y749533D01*
X958247Y747488D01*
X957140Y744816D01*
X957140Y741924D01*
X958247Y739252D01*
X960292Y737207D01*
X962964Y736100D01*
G37*
G36*
X339181Y733560D02*
X341908Y733560D01*
X341908Y750338D01*
X325130Y750338D01*
X325130Y747611D01*
X327800Y741164D01*
X332734Y736230D01*
X339181Y733560D01*
G37*
G36*
X875562Y733560D02*
X878289Y733560D01*
X884736Y736230D01*
X889670Y741164D01*
X892340Y747611D01*
X892340Y750338D01*
X875562Y750338D01*
X875562Y733560D01*
G37*
G36*
X871311Y733560D02*
X874038Y733560D01*
X874038Y750338D01*
X857260Y750338D01*
X857260Y747611D01*
X859930Y741164D01*
X864864Y736230D01*
X871311Y733560D01*
G37*
G36*
X773962Y733560D02*
X776689Y733560D01*
X783136Y736230D01*
X788070Y741164D01*
X790740Y747611D01*
X790740Y750338D01*
X773962Y750338D01*
X773962Y733560D01*
G37*
G36*
X769711Y733560D02*
X772438Y733560D01*
X772438Y750338D01*
X755660Y750338D01*
X755660Y747611D01*
X758330Y741164D01*
X763264Y736230D01*
X769711Y733560D01*
G37*
G36*
X663472Y733560D02*
X666199Y733560D01*
X672646Y736230D01*
X677580Y741164D01*
X680250Y747611D01*
X680250Y750338D01*
X663472Y750338D01*
X663472Y733560D01*
G37*
G36*
X659221Y733560D02*
X661948Y733560D01*
X661948Y750338D01*
X645170Y750338D01*
X645170Y747611D01*
X647840Y741164D01*
X652774Y736230D01*
X659221Y733560D01*
G37*
G36*
X561872Y733560D02*
X564599Y733560D01*
X571046Y736230D01*
X575980Y741164D01*
X578650Y747611D01*
X578650Y750338D01*
X561872Y750338D01*
X561872Y733560D01*
G37*
G36*
X557621Y733560D02*
X560348Y733560D01*
X560348Y750338D01*
X543570Y750338D01*
X543570Y747611D01*
X546240Y741164D01*
X551174Y736230D01*
X557621Y733560D01*
G37*
G36*
X445032Y733560D02*
X447759Y733560D01*
X454206Y736230D01*
X459140Y741164D01*
X461810Y747611D01*
X461810Y750338D01*
X445032Y750338D01*
X445032Y733560D01*
G37*
G36*
X440781Y733560D02*
X443508Y733560D01*
X443508Y750338D01*
X426730Y750338D01*
X426730Y747611D01*
X429400Y741164D01*
X434334Y736230D01*
X440781Y733560D01*
G37*
G36*
X343432Y733560D02*
X346159Y733560D01*
X352606Y736230D01*
X357540Y741164D01*
X360210Y747611D01*
X360210Y750338D01*
X343432Y750338D01*
X343432Y733560D01*
G37*
G36*
X1270532Y737130D02*
X1271791Y737130D01*
X1275525Y738677D01*
X1278383Y741535D01*
X1279930Y745269D01*
X1279930Y746528D01*
X1270532Y746528D01*
X1270532Y737130D01*
G37*
G36*
X1267749Y737130D02*
X1269008Y737130D01*
X1269008Y746528D01*
X1259610Y746528D01*
X1259610Y745269D01*
X1261157Y741535D01*
X1264015Y738677D01*
X1267749Y737130D01*
G37*
G36*
X94002Y736322D02*
X102638Y736322D01*
X102638Y744958D01*
X101531Y744958D01*
X98076Y743527D01*
X95433Y740884D01*
X94002Y737429D01*
X94002Y736322D01*
G37*
G36*
X104162Y736322D02*
X112798Y736322D01*
X112798Y737429D01*
X111367Y740884D01*
X108724Y743527D01*
X105269Y744958D01*
X104162Y744958D01*
X104162Y736322D01*
G37*
G36*
X104162Y726162D02*
X105269Y726162D01*
X108724Y727593D01*
X111367Y730236D01*
X112798Y733691D01*
X112798Y734798D01*
X104162Y734798D01*
X104162Y726162D01*
G37*
G36*
X101531Y726162D02*
X102638Y726162D01*
X102638Y734798D01*
X94002Y734798D01*
X94002Y733691D01*
X95433Y730236D01*
X98076Y727593D01*
X101531Y726162D01*
G37*
G36*
X84003Y717272D02*
X87237Y717272D01*
X90224Y718509D01*
X92511Y720796D01*
X93748Y723783D01*
X93748Y727017D01*
X92511Y730004D01*
X90224Y732291D01*
X87237Y733528D01*
X84003Y733528D01*
X81016Y732291D01*
X78729Y730004D01*
X77492Y727017D01*
X77492Y723783D01*
X78729Y720796D01*
X81016Y718509D01*
X84003Y717272D01*
G37*
G36*
X1395002Y713000D02*
X1398538Y713000D01*
X1401806Y714353D01*
X1404307Y716854D01*
X1405660Y720122D01*
X1405660Y723658D01*
X1404307Y726926D01*
X1401806Y729427D01*
X1398538Y730780D01*
X1395002Y730780D01*
X1391734Y729427D01*
X1389233Y726926D01*
X1387880Y723658D01*
X1387880Y720122D01*
X1389233Y716854D01*
X1391734Y714353D01*
X1395002Y713000D01*
G37*
G36*
X1268002Y713000D02*
X1271538Y713000D01*
X1274806Y714353D01*
X1277307Y716854D01*
X1278660Y720122D01*
X1278660Y723658D01*
X1277307Y726926D01*
X1274806Y729427D01*
X1271538Y730780D01*
X1268002Y730780D01*
X1264734Y729427D01*
X1262233Y726926D01*
X1260880Y723658D01*
X1260880Y720122D01*
X1262233Y716854D01*
X1264734Y714353D01*
X1268002Y713000D01*
G37*
G36*
X101783Y707112D02*
X105017Y707112D01*
X108004Y708349D01*
X110291Y710636D01*
X111528Y713623D01*
X111528Y716857D01*
X110291Y719844D01*
X108004Y722131D01*
X105017Y723368D01*
X101783Y723368D01*
X98796Y722131D01*
X96509Y719844D01*
X95272Y716857D01*
X95272Y713623D01*
X96509Y710636D01*
X98796Y708349D01*
X101783Y707112D01*
G37*
G36*
X84003Y696952D02*
X87237Y696952D01*
X90224Y698189D01*
X92511Y700476D01*
X93748Y703463D01*
X93748Y706697D01*
X92511Y709684D01*
X90224Y711971D01*
X87237Y713208D01*
X84003Y713208D01*
X81016Y711971D01*
X78729Y709684D01*
X77492Y706697D01*
X77492Y703463D01*
X78729Y700476D01*
X81016Y698189D01*
X84003Y696952D01*
G37*
G36*
X368832Y701062D02*
X377285Y701062D01*
X377285Y702133D01*
X375882Y705520D01*
X373290Y708112D01*
X369903Y709515D01*
X368832Y709515D01*
X368832Y701062D01*
G37*
G36*
X358855Y701062D02*
X367308Y701062D01*
X367308Y709515D01*
X366237Y709515D01*
X362850Y708112D01*
X360258Y705520D01*
X358855Y702133D01*
X358855Y701062D01*
G37*
G36*
X789385Y701062D02*
X797838Y701062D01*
X797838Y709515D01*
X796767Y709515D01*
X793380Y708112D01*
X790788Y705520D01*
X789385Y702133D01*
X789385Y701062D01*
G37*
G36*
X577295Y701062D02*
X585748Y701062D01*
X585748Y709515D01*
X584677Y709515D01*
X581290Y708112D01*
X578698Y705520D01*
X577295Y702133D01*
X577295Y701062D01*
G37*
G36*
X587272Y701062D02*
X595725Y701062D01*
X595725Y702133D01*
X594322Y705520D01*
X591730Y708112D01*
X588343Y709515D01*
X587272Y709515D01*
X587272Y701062D01*
G37*
G36*
X799362Y701062D02*
X807815Y701062D01*
X807815Y702133D01*
X806412Y705520D01*
X803820Y708112D01*
X800433Y709515D01*
X799362Y709515D01*
X799362Y701062D01*
G37*
G36*
X822420Y692355D02*
X825580Y692355D01*
X828501Y693565D01*
X830735Y695800D01*
X831945Y698720D01*
X831945Y701880D01*
X830735Y704801D01*
X828501Y707035D01*
X825580Y708245D01*
X822420Y708245D01*
X819500Y707035D01*
X817265Y704801D01*
X816055Y701880D01*
X816055Y698720D01*
X817265Y695800D01*
X819500Y693565D01*
X822420Y692355D01*
G37*
G36*
X610330Y692355D02*
X613490Y692355D01*
X616411Y693565D01*
X618645Y695800D01*
X619855Y698720D01*
X619855Y701880D01*
X618645Y704801D01*
X616411Y707035D01*
X613490Y708245D01*
X610330Y708245D01*
X607410Y707035D01*
X605175Y704801D01*
X603965Y701880D01*
X603965Y698720D01*
X605175Y695800D01*
X607410Y693565D01*
X610330Y692355D01*
G37*
G36*
X391890Y692355D02*
X395050Y692355D01*
X397971Y693565D01*
X400205Y695800D01*
X401415Y698720D01*
X401415Y701880D01*
X400205Y704801D01*
X397971Y707035D01*
X395050Y708245D01*
X391890Y708245D01*
X388970Y707035D01*
X386735Y704801D01*
X385525Y701880D01*
X385525Y698720D01*
X386735Y695800D01*
X388970Y693565D01*
X391890Y692355D01*
G37*
G36*
X1395002Y687600D02*
X1398538Y687600D01*
X1401806Y688953D01*
X1404307Y691454D01*
X1405660Y694722D01*
X1405660Y698258D01*
X1404307Y701526D01*
X1401806Y704027D01*
X1398538Y705380D01*
X1395002Y705380D01*
X1391734Y704027D01*
X1389233Y701526D01*
X1387880Y698258D01*
X1387880Y694722D01*
X1389233Y691454D01*
X1391734Y688953D01*
X1395002Y687600D01*
G37*
G36*
X1268002Y687600D02*
X1271538Y687600D01*
X1274806Y688953D01*
X1277307Y691454D01*
X1278660Y694722D01*
X1278660Y698258D01*
X1277307Y701526D01*
X1274806Y704027D01*
X1271538Y705380D01*
X1268002Y705380D01*
X1264734Y704027D01*
X1262233Y701526D01*
X1260880Y698258D01*
X1260880Y694722D01*
X1262233Y691454D01*
X1264734Y688953D01*
X1268002Y687600D01*
G37*
G36*
X94002Y695682D02*
X102638Y695682D01*
X102638Y704318D01*
X101531Y704318D01*
X98076Y702887D01*
X95433Y700244D01*
X94002Y696789D01*
X94002Y695682D01*
G37*
G36*
X104162Y695682D02*
X112798Y695682D01*
X112798Y696789D01*
X111367Y700244D01*
X108724Y702887D01*
X105269Y704318D01*
X104162Y704318D01*
X104162Y695682D01*
G37*
G36*
X799362Y691085D02*
X800433Y691085D01*
X803820Y692488D01*
X806412Y695080D01*
X807815Y698467D01*
X807815Y699538D01*
X799362Y699538D01*
X799362Y691085D01*
G37*
G36*
X796767Y691085D02*
X797838Y691085D01*
X797838Y699538D01*
X789385Y699538D01*
X789385Y698467D01*
X790788Y695080D01*
X793380Y692488D01*
X796767Y691085D01*
G37*
G36*
X587272Y691085D02*
X588343Y691085D01*
X591730Y692488D01*
X594322Y695080D01*
X595725Y698467D01*
X595725Y699538D01*
X587272Y699538D01*
X587272Y691085D01*
G37*
G36*
X584677Y691085D02*
X585748Y691085D01*
X585748Y699538D01*
X577295Y699538D01*
X577295Y698467D01*
X578698Y695080D01*
X581290Y692488D01*
X584677Y691085D01*
G37*
G36*
X368832Y691085D02*
X369903Y691085D01*
X373290Y692488D01*
X375882Y695080D01*
X377285Y698467D01*
X377285Y699538D01*
X368832Y699538D01*
X368832Y691085D01*
G37*
G36*
X366237Y691085D02*
X367308Y691085D01*
X367308Y699538D01*
X358855Y699538D01*
X358855Y698467D01*
X360258Y695080D01*
X362850Y692488D01*
X366237Y691085D01*
G37*
G36*
X104162Y685522D02*
X105269Y685522D01*
X108724Y686953D01*
X111367Y689596D01*
X112798Y693051D01*
X112798Y694158D01*
X104162Y694158D01*
X104162Y685522D01*
G37*
G36*
X101531Y685522D02*
X102638Y685522D01*
X102638Y694158D01*
X94002Y694158D01*
X94002Y693051D01*
X94927Y690817D01*
X94984Y690562D01*
X94938Y690262D01*
X94779Y690004D01*
X94599Y689876D01*
X94785Y689917D01*
X95083Y689861D01*
X95335Y689694D01*
X98076Y686953D01*
X101531Y685522D01*
G37*
G36*
X76222Y685522D02*
X84858Y685522D01*
X84858Y694158D01*
X83751Y694158D01*
X80296Y692727D01*
X77653Y690084D01*
X76222Y686629D01*
X76222Y685522D01*
G37*
G36*
X86382Y685522D02*
X95018Y685522D01*
X95018Y686629D01*
X94093Y688863D01*
X94036Y689119D01*
X94082Y689418D01*
X94241Y689676D01*
X94421Y689804D01*
X94236Y689763D01*
X93937Y689819D01*
X93685Y689986D01*
X90944Y692727D01*
X87489Y694158D01*
X86382Y694158D01*
X86382Y685522D01*
G37*
G36*
X244767Y684445D02*
X247993Y684445D01*
X250275Y686727D01*
X250275Y689953D01*
X247993Y692235D01*
X244767Y692235D01*
X242485Y689953D01*
X242485Y686727D01*
X244767Y684445D01*
G37*
G36*
X317157Y659045D02*
X320383Y659045D01*
X322665Y661327D01*
X322665Y664553D01*
X321007Y666211D01*
X320849Y666442D01*
X320784Y666738D01*
X320840Y667036D01*
X321007Y667289D01*
X322665Y668947D01*
X322665Y672173D01*
X321007Y673831D01*
X320849Y674062D01*
X320784Y674358D01*
X320840Y674656D01*
X321007Y674909D01*
X322665Y676567D01*
X322665Y679793D01*
X321557Y680901D01*
X321399Y681132D01*
X321334Y681428D01*
X321390Y681726D01*
X321557Y681979D01*
X322698Y683120D01*
X322698Y686346D01*
X320416Y688628D01*
X317190Y688628D01*
X314908Y686346D01*
X314908Y683120D01*
X316016Y682012D01*
X316174Y681781D01*
X316239Y681485D01*
X316183Y681187D01*
X316016Y680934D01*
X314875Y679793D01*
X314875Y676567D01*
X316533Y674909D01*
X316691Y674678D01*
X316756Y674382D01*
X316700Y674084D01*
X316533Y673831D01*
X314875Y672173D01*
X314875Y668947D01*
X316533Y667289D01*
X316691Y667058D01*
X316756Y666762D01*
X316700Y666464D01*
X316533Y666211D01*
X314875Y664553D01*
X314875Y661327D01*
X317157Y659045D01*
G37*
G36*
X86382Y675362D02*
X87489Y675362D01*
X90944Y676793D01*
X93587Y679436D01*
X95018Y682891D01*
X95018Y683998D01*
X86382Y683998D01*
X86382Y675362D01*
G37*
G36*
X83751Y675362D02*
X84858Y675362D01*
X84858Y683998D01*
X76222Y683998D01*
X76222Y682891D01*
X77653Y679436D01*
X80296Y676793D01*
X83751Y675362D01*
G37*
G36*
X101783Y666472D02*
X105017Y666472D01*
X108004Y667709D01*
X110291Y669996D01*
X111528Y672983D01*
X111528Y676217D01*
X110291Y679204D01*
X108004Y681491D01*
X105017Y682728D01*
X101783Y682728D01*
X98796Y681491D01*
X96509Y679204D01*
X95272Y676217D01*
X95272Y672983D01*
X96509Y669996D01*
X98796Y667709D01*
X101783Y666472D01*
G37*
G36*
X1395002Y662200D02*
X1398538Y662200D01*
X1401806Y663553D01*
X1404307Y666054D01*
X1405660Y669322D01*
X1405660Y672858D01*
X1404307Y676126D01*
X1401806Y678627D01*
X1398538Y679980D01*
X1395002Y679980D01*
X1391734Y678627D01*
X1389233Y676126D01*
X1387880Y672858D01*
X1387880Y669322D01*
X1389233Y666054D01*
X1391734Y663553D01*
X1395002Y662200D01*
G37*
G36*
X1268002Y662200D02*
X1271538Y662200D01*
X1274806Y663553D01*
X1277307Y666054D01*
X1278660Y669322D01*
X1278660Y672858D01*
X1277307Y676126D01*
X1274806Y678627D01*
X1271538Y679980D01*
X1268002Y679980D01*
X1264734Y678627D01*
X1262233Y676126D01*
X1260880Y672858D01*
X1260880Y669322D01*
X1262233Y666054D01*
X1264734Y663553D01*
X1268002Y662200D01*
G37*
G36*
X84003Y656312D02*
X87237Y656312D01*
X90224Y657549D01*
X92511Y659836D01*
X93748Y662823D01*
X93748Y666057D01*
X92511Y669044D01*
X90224Y671331D01*
X87237Y672568D01*
X84003Y672568D01*
X81016Y671331D01*
X78729Y669044D01*
X77492Y666057D01*
X77492Y662823D01*
X78729Y659836D01*
X81016Y657549D01*
X84003Y656312D01*
G37*
G36*
X91574Y602230D02*
X98046Y602230D01*
X104026Y604707D01*
X108603Y609284D01*
X111080Y615264D01*
X111080Y621736D01*
X108603Y627716D01*
X104026Y632293D01*
X98046Y634770D01*
X91574Y634770D01*
X87434Y633055D01*
X87166Y632998D01*
X86867Y633048D01*
X86612Y633212D01*
X86440Y633462D01*
X86380Y633759D01*
X86380Y639944D01*
X84597Y646597D01*
X81153Y652563D01*
X76283Y657433D01*
X70317Y660877D01*
X63664Y662660D01*
X56776Y662660D01*
X50123Y660877D01*
X44157Y657433D01*
X39287Y652563D01*
X35843Y646597D01*
X34060Y639944D01*
X34060Y633056D01*
X35843Y626403D01*
X39287Y620437D01*
X44157Y615567D01*
X50123Y612123D01*
X56776Y610340D01*
X63664Y610340D01*
X70317Y612123D01*
X76283Y615567D01*
X77239Y616523D01*
X77459Y616676D01*
X77754Y616746D01*
X78053Y616695D01*
X78308Y616532D01*
X78480Y616282D01*
X78540Y615985D01*
X78540Y615264D01*
X81017Y609284D01*
X85594Y604707D01*
X91574Y602230D01*
G37*
G36*
X437840Y634882D02*
X441066Y634882D01*
X443348Y637164D01*
X443348Y640390D01*
X442240Y641498D01*
X442082Y641729D01*
X442017Y642025D01*
X442073Y642323D01*
X442240Y642576D01*
X443348Y643684D01*
X443348Y646910D01*
X442240Y648018D01*
X442082Y648249D01*
X442017Y648545D01*
X442073Y648843D01*
X442240Y649096D01*
X443348Y650204D01*
X443348Y653430D01*
X442207Y654571D01*
X442049Y654802D01*
X441984Y655098D01*
X442040Y655396D01*
X442207Y655649D01*
X443315Y656757D01*
X443315Y659983D01*
X441033Y662265D01*
X437807Y662265D01*
X435525Y659983D01*
X435525Y656757D01*
X436666Y655616D01*
X436824Y655385D01*
X436889Y655089D01*
X436833Y654791D01*
X436666Y654538D01*
X435558Y653430D01*
X435558Y650204D01*
X436666Y649096D01*
X436824Y648865D01*
X436889Y648569D01*
X436833Y648271D01*
X436666Y648018D01*
X435558Y646910D01*
X435558Y643684D01*
X436666Y642576D01*
X436824Y642345D01*
X436889Y642049D01*
X436833Y641751D01*
X436666Y641498D01*
X435558Y640390D01*
X435558Y637164D01*
X437840Y634882D01*
G37*
G36*
X1395002Y636800D02*
X1398538Y636800D01*
X1401806Y638153D01*
X1404307Y640654D01*
X1405660Y643922D01*
X1405660Y647458D01*
X1404307Y650726D01*
X1401806Y653227D01*
X1398538Y654580D01*
X1395002Y654580D01*
X1391734Y653227D01*
X1389233Y650726D01*
X1387880Y647458D01*
X1387880Y643922D01*
X1389233Y640654D01*
X1391734Y638153D01*
X1395002Y636800D01*
G37*
G36*
X1268002Y636800D02*
X1271538Y636800D01*
X1274806Y638153D01*
X1277307Y640654D01*
X1278660Y643922D01*
X1278660Y647458D01*
X1277307Y650726D01*
X1274806Y653227D01*
X1271538Y654580D01*
X1268002Y654580D01*
X1264734Y653227D01*
X1262233Y650726D01*
X1260880Y647458D01*
X1260880Y643922D01*
X1262233Y640654D01*
X1264734Y638153D01*
X1268002Y636800D01*
G37*
G36*
X113957Y642112D02*
X117183Y642112D01*
X119465Y644394D01*
X119465Y647620D01*
X117183Y649902D01*
X113957Y649902D01*
X111675Y647620D01*
X111675Y644394D01*
X113957Y642112D01*
G37*
G36*
X590094Y600860D02*
X599606Y600860D01*
X608394Y604500D01*
X615120Y611226D01*
X618760Y620014D01*
X618760Y629526D01*
X615120Y638314D01*
X608394Y645040D01*
X599606Y648680D01*
X590094Y648680D01*
X581306Y645040D01*
X574580Y638314D01*
X570940Y629526D01*
X570940Y620014D01*
X574580Y611226D01*
X581306Y604500D01*
X590094Y600860D01*
G37*
G36*
X1081094Y600540D02*
X1090606Y600540D01*
X1099394Y604180D01*
X1106120Y610906D01*
X1109760Y619694D01*
X1109760Y629206D01*
X1106120Y637994D01*
X1099394Y644720D01*
X1090606Y648360D01*
X1081094Y648360D01*
X1072306Y644720D01*
X1065580Y637994D01*
X1061940Y629206D01*
X1061940Y619694D01*
X1065580Y610906D01*
X1072306Y604180D01*
X1081094Y600540D01*
G37*
G36*
X1395002Y611400D02*
X1398538Y611400D01*
X1401806Y612753D01*
X1404307Y615254D01*
X1405660Y618522D01*
X1405660Y622058D01*
X1404307Y625326D01*
X1401806Y627827D01*
X1398538Y629180D01*
X1395002Y629180D01*
X1391734Y627827D01*
X1389233Y625326D01*
X1387880Y622058D01*
X1387880Y618522D01*
X1389233Y615254D01*
X1391734Y612753D01*
X1395002Y611400D01*
G37*
G36*
X1268002Y611400D02*
X1271538Y611400D01*
X1274806Y612753D01*
X1277307Y615254D01*
X1278660Y618522D01*
X1278660Y622058D01*
X1277307Y625326D01*
X1274806Y627827D01*
X1271538Y629180D01*
X1268002Y629180D01*
X1264734Y627827D01*
X1262233Y625326D01*
X1260880Y622058D01*
X1260880Y618522D01*
X1262233Y615254D01*
X1264734Y612753D01*
X1268002Y611400D01*
G37*
G36*
X651242Y594030D02*
X654778Y594030D01*
X658046Y595383D01*
X660547Y597884D01*
X661900Y601152D01*
X661900Y604688D01*
X660547Y607956D01*
X658046Y610457D01*
X654778Y611810D01*
X651242Y611810D01*
X647974Y610457D01*
X645473Y607956D01*
X644120Y604688D01*
X644120Y601152D01*
X645473Y597884D01*
X647974Y595383D01*
X651242Y594030D01*
G37*
G36*
X456857Y599355D02*
X460083Y599355D01*
X462365Y601637D01*
X462365Y604863D01*
X460083Y607145D01*
X456857Y607145D01*
X454575Y604863D01*
X454575Y601637D01*
X456857Y599355D01*
G37*
G36*
X431457Y599355D02*
X434683Y599355D01*
X436965Y601637D01*
X436965Y604863D01*
X434683Y607145D01*
X431457Y607145D01*
X429175Y604863D01*
X429175Y601637D01*
X431457Y599355D01*
G37*
G36*
X483527Y598085D02*
X486753Y598085D01*
X489035Y600367D01*
X489035Y603593D01*
X486753Y605875D01*
X483527Y605875D01*
X481245Y603593D01*
X481245Y600367D01*
X483527Y598085D01*
G37*
G36*
X1259610Y595652D02*
X1269008Y595652D01*
X1269008Y605050D01*
X1267749Y605050D01*
X1264015Y603503D01*
X1261157Y600645D01*
X1259610Y596911D01*
X1259610Y595652D01*
G37*
G36*
X1270532Y595652D02*
X1279930Y595652D01*
X1279930Y596911D01*
X1278383Y600645D01*
X1275525Y603503D01*
X1271791Y605050D01*
X1270532Y605050D01*
X1270532Y595652D01*
G37*
G36*
X1395002Y586000D02*
X1398538Y586000D01*
X1401806Y587353D01*
X1404307Y589854D01*
X1405660Y593122D01*
X1405660Y596658D01*
X1404307Y599926D01*
X1401806Y602427D01*
X1398538Y603780D01*
X1395002Y603780D01*
X1391734Y602427D01*
X1389233Y599926D01*
X1387880Y596658D01*
X1387880Y593122D01*
X1389233Y589854D01*
X1391734Y587353D01*
X1395002Y586000D01*
G37*
G36*
X1001246Y582130D02*
X1004734Y582130D01*
X1007958Y583465D01*
X1010425Y585932D01*
X1011760Y589156D01*
X1011760Y592644D01*
X1010425Y595868D01*
X1007958Y598335D01*
X1004734Y599670D01*
X1001246Y599670D01*
X998022Y598335D01*
X995555Y595868D01*
X994220Y592644D01*
X994220Y589156D01*
X995555Y585932D01*
X998022Y583465D01*
X1001246Y582130D01*
G37*
G36*
X781536Y582130D02*
X785024Y582130D01*
X788248Y583465D01*
X790715Y585932D01*
X792050Y589156D01*
X792050Y592644D01*
X790715Y595868D01*
X788248Y598335D01*
X785024Y599670D01*
X781536Y599670D01*
X778312Y598335D01*
X775845Y595868D01*
X774510Y592644D01*
X774510Y589156D01*
X775845Y585932D01*
X778312Y583465D01*
X781536Y582130D01*
G37*
G36*
X746536Y582130D02*
X750024Y582130D01*
X753248Y583465D01*
X755715Y585932D01*
X757050Y589156D01*
X757050Y592644D01*
X755715Y595868D01*
X753248Y598335D01*
X750024Y599670D01*
X746536Y599670D01*
X743312Y598335D01*
X740845Y595868D01*
X739510Y592644D01*
X739510Y589156D01*
X740845Y585932D01*
X743312Y583465D01*
X746536Y582130D01*
G37*
G36*
X855756Y582130D02*
X859244Y582130D01*
X862468Y583465D01*
X864935Y585932D01*
X866270Y589156D01*
X866270Y592644D01*
X864935Y595868D01*
X862468Y598335D01*
X859244Y599670D01*
X855756Y599670D01*
X852532Y598335D01*
X850065Y595868D01*
X848730Y592644D01*
X848730Y589156D01*
X850065Y585932D01*
X852532Y583465D01*
X855756Y582130D01*
G37*
G36*
X966246Y582130D02*
X969734Y582130D01*
X972958Y583465D01*
X975425Y585932D01*
X976760Y589156D01*
X976760Y592644D01*
X975425Y595868D01*
X972958Y598335D01*
X969734Y599670D01*
X966246Y599670D01*
X963022Y598335D01*
X960555Y595868D01*
X959220Y592644D01*
X959220Y589156D01*
X960555Y585932D01*
X963022Y583465D01*
X966246Y582130D01*
G37*
G36*
X890756Y582130D02*
X894244Y582130D01*
X897468Y583465D01*
X899935Y585932D01*
X901270Y589156D01*
X901270Y592644D01*
X899935Y595868D01*
X897468Y598335D01*
X894244Y599670D01*
X890756Y599670D01*
X887532Y598335D01*
X885065Y595868D01*
X883730Y592644D01*
X883730Y589156D01*
X885065Y585932D01*
X887532Y583465D01*
X890756Y582130D01*
G37*
G36*
X56776Y536680D02*
X63664Y536680D01*
X70317Y538463D01*
X76283Y541907D01*
X81153Y546777D01*
X84597Y552743D01*
X86380Y559396D01*
X86380Y565581D01*
X86429Y565850D01*
X86590Y566107D01*
X86839Y566280D01*
X87136Y566343D01*
X87434Y566285D01*
X91574Y564570D01*
X98046Y564570D01*
X104026Y567047D01*
X108603Y571624D01*
X111080Y577604D01*
X111080Y584076D01*
X108603Y590056D01*
X104026Y594633D01*
X98046Y597110D01*
X91574Y597110D01*
X85594Y594633D01*
X81017Y590056D01*
X78540Y584076D01*
X78540Y583355D01*
X78493Y583092D01*
X78334Y582834D01*
X78086Y582659D01*
X77790Y582594D01*
X77492Y582649D01*
X77239Y582817D01*
X76283Y583773D01*
X70317Y587217D01*
X63664Y589000D01*
X56776Y589000D01*
X50123Y587217D01*
X44157Y583773D01*
X39287Y578903D01*
X35843Y572937D01*
X34060Y566284D01*
X34060Y559396D01*
X35843Y552743D01*
X39287Y546777D01*
X44157Y541907D01*
X50123Y538463D01*
X56776Y536680D01*
G37*
G36*
X263443Y588420D02*
X266670Y588420D01*
X268952Y590702D01*
X268952Y593928D01*
X266670Y596210D01*
X263443Y596210D01*
X261162Y593928D01*
X261162Y590702D01*
X263443Y588420D01*
G37*
G36*
X584619Y587736D02*
X587845Y587736D01*
X590127Y590018D01*
X590127Y593244D01*
X587845Y595526D01*
X584619Y595526D01*
X582337Y593244D01*
X582337Y590018D01*
X584619Y587736D01*
G37*
G36*
X1270532Y584730D02*
X1271791Y584730D01*
X1275525Y586277D01*
X1278383Y589135D01*
X1279930Y592869D01*
X1279930Y594128D01*
X1270532Y594128D01*
X1270532Y584730D01*
G37*
G36*
X1267749Y584730D02*
X1269008Y584730D01*
X1269008Y594128D01*
X1259610Y594128D01*
X1259610Y592869D01*
X1261157Y589135D01*
X1264015Y586277D01*
X1267749Y584730D01*
G37*
G36*
X1097656Y568710D02*
X1101444Y568710D01*
X1104943Y570159D01*
X1107621Y572837D01*
X1109070Y576336D01*
X1109070Y580124D01*
X1107621Y583623D01*
X1104943Y586301D01*
X1101444Y587750D01*
X1097656Y587750D01*
X1094157Y586301D01*
X1091479Y583623D01*
X1090030Y580124D01*
X1090030Y576336D01*
X1091479Y572837D01*
X1094157Y570159D01*
X1097656Y568710D01*
G37*
G36*
X1072256Y568710D02*
X1076044Y568710D01*
X1079543Y570159D01*
X1082221Y572837D01*
X1083670Y576336D01*
X1083670Y580124D01*
X1082221Y583623D01*
X1079543Y586301D01*
X1076044Y587750D01*
X1072256Y587750D01*
X1068757Y586301D01*
X1066079Y583623D01*
X1064630Y580124D01*
X1064630Y576336D01*
X1066079Y572837D01*
X1068757Y570159D01*
X1072256Y568710D01*
G37*
G36*
X651242Y568630D02*
X654778Y568630D01*
X658046Y569983D01*
X660547Y572484D01*
X661900Y575752D01*
X661900Y579288D01*
X660547Y582556D01*
X658046Y585057D01*
X654778Y586410D01*
X651242Y586410D01*
X647974Y585057D01*
X645473Y582556D01*
X644120Y579288D01*
X644120Y575752D01*
X645473Y572484D01*
X647974Y569983D01*
X651242Y568630D01*
G37*
G36*
X1268002Y560600D02*
X1271538Y560600D01*
X1274806Y561953D01*
X1277307Y564454D01*
X1278660Y567722D01*
X1278660Y571258D01*
X1277307Y574526D01*
X1274806Y577027D01*
X1271538Y578380D01*
X1268002Y578380D01*
X1264734Y577027D01*
X1262233Y574526D01*
X1260880Y571258D01*
X1260880Y567722D01*
X1262233Y564454D01*
X1264734Y561953D01*
X1268002Y560600D01*
G37*
G36*
X1395002Y560600D02*
X1398538Y560600D01*
X1401806Y561953D01*
X1404307Y564454D01*
X1405660Y567722D01*
X1405660Y571258D01*
X1404307Y574526D01*
X1401806Y577027D01*
X1398538Y578380D01*
X1395002Y578380D01*
X1391734Y577027D01*
X1389233Y574526D01*
X1387880Y571258D01*
X1387880Y567722D01*
X1389233Y564454D01*
X1391734Y561953D01*
X1395002Y560600D01*
G37*
G36*
X1072256Y543310D02*
X1076044Y543310D01*
X1079543Y544759D01*
X1082221Y547437D01*
X1083670Y550936D01*
X1083670Y554724D01*
X1082221Y558223D01*
X1079543Y560901D01*
X1076044Y562350D01*
X1072256Y562350D01*
X1068757Y560901D01*
X1066079Y558223D01*
X1064630Y554724D01*
X1064630Y550936D01*
X1066079Y547437D01*
X1068757Y544759D01*
X1072256Y543310D01*
G37*
G36*
X1097656Y543310D02*
X1101444Y543310D01*
X1104943Y544759D01*
X1107621Y547437D01*
X1109070Y550936D01*
X1109070Y554724D01*
X1107621Y558223D01*
X1104943Y560901D01*
X1101444Y562350D01*
X1097656Y562350D01*
X1094157Y560901D01*
X1091479Y558223D01*
X1090030Y554724D01*
X1090030Y550936D01*
X1091479Y547437D01*
X1094157Y544759D01*
X1097656Y543310D01*
G37*
G36*
X651242Y543230D02*
X654778Y543230D01*
X658046Y544583D01*
X660547Y547084D01*
X661900Y550352D01*
X661900Y553888D01*
X660547Y557156D01*
X658046Y559657D01*
X654778Y561010D01*
X651242Y561010D01*
X647974Y559657D01*
X645473Y557156D01*
X644120Y553888D01*
X644120Y550352D01*
X645473Y547084D01*
X647974Y544583D01*
X651242Y543230D01*
G37*
G36*
X771817Y551095D02*
X775043Y551095D01*
X777325Y553377D01*
X777325Y556603D01*
X775043Y558885D01*
X771817Y558885D01*
X769535Y556603D01*
X769535Y553377D01*
X771817Y551095D01*
G37*
G36*
X444157Y547285D02*
X447383Y547285D01*
X449665Y549567D01*
X449665Y552793D01*
X447383Y555075D01*
X444157Y555075D01*
X441875Y552793D01*
X441875Y549567D01*
X444157Y547285D01*
G37*
G36*
X119037Y544745D02*
X122263Y544745D01*
X124545Y547027D01*
X124545Y550253D01*
X122263Y552535D01*
X119037Y552535D01*
X116755Y550253D01*
X116755Y547027D01*
X119037Y544745D01*
G37*
G36*
X556425Y543729D02*
X559651Y543729D01*
X561933Y546011D01*
X561933Y549237D01*
X559651Y551519D01*
X556425Y551519D01*
X554143Y549237D01*
X554143Y546011D01*
X556425Y543729D01*
G37*
G36*
X185077Y538395D02*
X188303Y538395D01*
X190585Y540677D01*
X190585Y543903D01*
X188303Y546185D01*
X185077Y546185D01*
X182795Y543903D01*
X182795Y540677D01*
X185077Y538395D01*
G37*
G36*
X139357Y537125D02*
X142583Y537125D01*
X144865Y539407D01*
X144865Y542633D01*
X142583Y544915D01*
X139357Y544915D01*
X137075Y542633D01*
X137075Y539407D01*
X139357Y537125D01*
G37*
G36*
X94002Y535662D02*
X102638Y535662D01*
X102638Y544298D01*
X101531Y544298D01*
X98076Y542867D01*
X95433Y540224D01*
X94002Y536769D01*
X94002Y535662D01*
G37*
G36*
X104162Y535662D02*
X112798Y535662D01*
X112798Y536769D01*
X111367Y540224D01*
X108724Y542867D01*
X105269Y544298D01*
X104162Y544298D01*
X104162Y535662D01*
G37*
G36*
X1088760Y528192D02*
X1098788Y528192D01*
X1098788Y538220D01*
X1097404Y538220D01*
X1093438Y536577D01*
X1090403Y533542D01*
X1088760Y529576D01*
X1088760Y528192D01*
G37*
G36*
X1100312Y528192D02*
X1110340Y528192D01*
X1110340Y529576D01*
X1108697Y533542D01*
X1105662Y536577D01*
X1101696Y538220D01*
X1100312Y538220D01*
X1100312Y528192D01*
G37*
G36*
X771817Y529505D02*
X775043Y529505D01*
X777325Y531787D01*
X777325Y535013D01*
X775043Y537295D01*
X771817Y537295D01*
X769535Y535013D01*
X769535Y531787D01*
X771817Y529505D01*
G37*
G36*
X1072256Y517910D02*
X1076044Y517910D01*
X1079543Y519359D01*
X1082221Y522037D01*
X1083670Y525536D01*
X1083670Y529324D01*
X1082221Y532823D01*
X1079543Y535501D01*
X1076044Y536950D01*
X1072256Y536950D01*
X1068757Y535501D01*
X1066079Y532823D01*
X1064630Y529324D01*
X1064630Y525536D01*
X1066079Y522037D01*
X1068757Y519359D01*
X1072256Y517910D01*
G37*
G36*
X104162Y525502D02*
X105269Y525502D01*
X108724Y526933D01*
X111367Y529576D01*
X112798Y533031D01*
X112798Y534138D01*
X104162Y534138D01*
X104162Y525502D01*
G37*
G36*
X101531Y525502D02*
X102638Y525502D01*
X102638Y534138D01*
X94002Y534138D01*
X94002Y533031D01*
X95433Y529576D01*
X98076Y526933D01*
X101531Y525502D01*
G37*
G36*
X257578Y525800D02*
X260804Y525800D01*
X263086Y528082D01*
X263086Y531309D01*
X260804Y533590D01*
X257578Y533590D01*
X255296Y531309D01*
X255296Y528082D01*
X257578Y525800D01*
G37*
G36*
X84003Y516612D02*
X87237Y516612D01*
X90224Y517849D01*
X92511Y520136D01*
X93748Y523123D01*
X93748Y526357D01*
X92511Y529344D01*
X90224Y531631D01*
X87237Y532868D01*
X84003Y532868D01*
X81016Y531631D01*
X78729Y529344D01*
X77492Y526357D01*
X77492Y523123D01*
X78729Y520136D01*
X81016Y517849D01*
X84003Y516612D01*
G37*
G36*
X223177Y521885D02*
X226403Y521885D01*
X228685Y524167D01*
X228685Y527393D01*
X226403Y529675D01*
X223177Y529675D01*
X220895Y527393D01*
X220895Y524167D01*
X223177Y521885D01*
G37*
G36*
X1100312Y516640D02*
X1101696Y516640D01*
X1105662Y518283D01*
X1108697Y521318D01*
X1110340Y525284D01*
X1110340Y526668D01*
X1100312Y526668D01*
X1100312Y516640D01*
G37*
G36*
X1097404Y516640D02*
X1098788Y516640D01*
X1098788Y526668D01*
X1088760Y526668D01*
X1088760Y525284D01*
X1090403Y521318D01*
X1093438Y518283D01*
X1097404Y516640D01*
G37*
G36*
X101783Y506452D02*
X105017Y506452D01*
X108004Y507689D01*
X110291Y509976D01*
X111528Y512963D01*
X111528Y516197D01*
X110291Y519184D01*
X108004Y521471D01*
X105017Y522708D01*
X101783Y522708D01*
X98796Y521471D01*
X96509Y519184D01*
X95272Y516197D01*
X95272Y512963D01*
X96509Y509976D01*
X98796Y507689D01*
X101783Y506452D01*
G37*
G36*
X84003Y496292D02*
X87237Y496292D01*
X90224Y497529D01*
X92511Y499816D01*
X93748Y502803D01*
X93748Y506037D01*
X92511Y509024D01*
X90224Y511311D01*
X87237Y512548D01*
X84003Y512548D01*
X81016Y511311D01*
X78729Y509024D01*
X77492Y506037D01*
X77492Y502803D01*
X78729Y499816D01*
X81016Y497529D01*
X84003Y496292D01*
G37*
G36*
X1097656Y492510D02*
X1101444Y492510D01*
X1104943Y493959D01*
X1107621Y496637D01*
X1109070Y500136D01*
X1109070Y503924D01*
X1107621Y507423D01*
X1104943Y510101D01*
X1101444Y511550D01*
X1097656Y511550D01*
X1094157Y510101D01*
X1091479Y507423D01*
X1090030Y503924D01*
X1090030Y500136D01*
X1091479Y496637D01*
X1094157Y493959D01*
X1097656Y492510D01*
G37*
G36*
X1072256Y492510D02*
X1076044Y492510D01*
X1079543Y493959D01*
X1082221Y496637D01*
X1083670Y500136D01*
X1083670Y503924D01*
X1082221Y507423D01*
X1079543Y510101D01*
X1076044Y511550D01*
X1072256Y511550D01*
X1068757Y510101D01*
X1066079Y507423D01*
X1064630Y503924D01*
X1064630Y500136D01*
X1066079Y496637D01*
X1068757Y493959D01*
X1072256Y492510D01*
G37*
G36*
X94002Y495022D02*
X102638Y495022D01*
X102638Y503658D01*
X101531Y503658D01*
X98076Y502227D01*
X95433Y499584D01*
X94002Y496129D01*
X94002Y495022D01*
G37*
G36*
X104162Y495022D02*
X112798Y495022D01*
X112798Y496129D01*
X111367Y499584D01*
X108724Y502227D01*
X105269Y503658D01*
X104162Y503658D01*
X104162Y495022D01*
G37*
G36*
X558457Y494961D02*
X561683Y494961D01*
X563965Y497243D01*
X563965Y500469D01*
X561683Y502751D01*
X558457Y502751D01*
X556175Y500469D01*
X556175Y497243D01*
X558457Y494961D01*
G37*
G36*
X503847Y491405D02*
X507073Y491405D01*
X509355Y493687D01*
X509355Y496913D01*
X507073Y499195D01*
X503847Y499195D01*
X501565Y496913D01*
X501565Y493687D01*
X503847Y491405D01*
G37*
G36*
X104162Y484862D02*
X105269Y484862D01*
X108724Y486293D01*
X111367Y488936D01*
X112798Y492391D01*
X112798Y493498D01*
X104162Y493498D01*
X104162Y484862D01*
G37*
G36*
X101531Y484862D02*
X102638Y484862D01*
X102638Y493498D01*
X94002Y493498D01*
X94002Y492391D01*
X94927Y490157D01*
X94984Y489902D01*
X94938Y489602D01*
X94779Y489344D01*
X94599Y489216D01*
X94785Y489257D01*
X95083Y489201D01*
X95335Y489034D01*
X98076Y486293D01*
X101531Y484862D01*
G37*
G36*
X76222Y484862D02*
X84858Y484862D01*
X84858Y493498D01*
X83751Y493498D01*
X80296Y492067D01*
X77653Y489424D01*
X76222Y485969D01*
X76222Y484862D01*
G37*
G36*
X86382Y484862D02*
X95018Y484862D01*
X95018Y485969D01*
X94093Y488203D01*
X94036Y488459D01*
X94082Y488758D01*
X94241Y489016D01*
X94421Y489144D01*
X94236Y489103D01*
X93937Y489159D01*
X93685Y489326D01*
X90944Y492067D01*
X87489Y493498D01*
X86382Y493498D01*
X86382Y484862D01*
G37*
G36*
X1063360Y477392D02*
X1073388Y477392D01*
X1073388Y487420D01*
X1072004Y487420D01*
X1068038Y485777D01*
X1065003Y482742D01*
X1063360Y478776D01*
X1063360Y477392D01*
G37*
G36*
X1074912Y477392D02*
X1084940Y477392D01*
X1084940Y478776D01*
X1083297Y482742D01*
X1080262Y485777D01*
X1076296Y487420D01*
X1074912Y487420D01*
X1074912Y477392D01*
G37*
G36*
X1097656Y467110D02*
X1101444Y467110D01*
X1104943Y468559D01*
X1107621Y471237D01*
X1109070Y474736D01*
X1109070Y478524D01*
X1107621Y482023D01*
X1104943Y484701D01*
X1101444Y486150D01*
X1097656Y486150D01*
X1094157Y484701D01*
X1091479Y482023D01*
X1090030Y478524D01*
X1090030Y474736D01*
X1091479Y471237D01*
X1094157Y468559D01*
X1097656Y467110D01*
G37*
G36*
X86382Y474702D02*
X87489Y474702D01*
X90944Y476133D01*
X93587Y478776D01*
X95018Y482231D01*
X95018Y483338D01*
X86382Y483338D01*
X86382Y474702D01*
G37*
G36*
X83751Y474702D02*
X84858Y474702D01*
X84858Y483338D01*
X76222Y483338D01*
X76222Y482231D01*
X77653Y478776D01*
X80296Y476133D01*
X83751Y474702D01*
G37*
G36*
X101783Y465812D02*
X105017Y465812D01*
X108004Y467049D01*
X110291Y469336D01*
X111528Y472323D01*
X111528Y475557D01*
X110291Y478544D01*
X108004Y480831D01*
X105017Y482068D01*
X101783Y482068D01*
X98796Y480831D01*
X96509Y478544D01*
X95272Y475557D01*
X95272Y472323D01*
X96509Y469336D01*
X98796Y467049D01*
X101783Y465812D01*
G37*
G36*
X1074912Y465840D02*
X1076296Y465840D01*
X1080262Y467483D01*
X1083297Y470518D01*
X1084940Y474484D01*
X1084940Y475868D01*
X1074912Y475868D01*
X1074912Y465840D01*
G37*
G36*
X1072004Y465840D02*
X1073388Y465840D01*
X1073388Y475868D01*
X1063360Y475868D01*
X1063360Y474484D01*
X1065003Y470518D01*
X1068038Y467483D01*
X1072004Y465840D01*
G37*
G36*
X532032Y464981D02*
X535259Y464981D01*
X537541Y467262D01*
X537541Y470489D01*
X535259Y472771D01*
X532032Y472771D01*
X529751Y470489D01*
X529751Y467262D01*
X532032Y464981D01*
G37*
G36*
X84003Y455652D02*
X87237Y455652D01*
X90224Y456889D01*
X92511Y459176D01*
X93748Y462163D01*
X93748Y465397D01*
X92511Y468384D01*
X90224Y470671D01*
X87237Y471908D01*
X84003Y471908D01*
X81016Y470671D01*
X78729Y468384D01*
X77492Y465397D01*
X77492Y462163D01*
X78729Y459176D01*
X81016Y456889D01*
X84003Y455652D01*
G37*
G36*
X890756Y452590D02*
X894244Y452590D01*
X897468Y453925D01*
X899935Y456392D01*
X901270Y459616D01*
X901270Y463104D01*
X899935Y466328D01*
X897468Y468795D01*
X894244Y470130D01*
X890756Y470130D01*
X887532Y468795D01*
X885065Y466328D01*
X883730Y463104D01*
X883730Y459616D01*
X885065Y456392D01*
X887532Y453925D01*
X890756Y452590D01*
G37*
G36*
X781536Y452590D02*
X785024Y452590D01*
X788248Y453925D01*
X790715Y456392D01*
X792050Y459616D01*
X792050Y463104D01*
X790715Y466328D01*
X788248Y468795D01*
X785024Y470130D01*
X781536Y470130D01*
X778312Y468795D01*
X775845Y466328D01*
X774510Y463104D01*
X774510Y459616D01*
X775845Y456392D01*
X778312Y453925D01*
X781536Y452590D01*
G37*
G36*
X855756Y452590D02*
X859244Y452590D01*
X862468Y453925D01*
X864935Y456392D01*
X866270Y459616D01*
X866270Y463104D01*
X864935Y466328D01*
X862468Y468795D01*
X859244Y470130D01*
X855756Y470130D01*
X852532Y468795D01*
X850065Y466328D01*
X848730Y463104D01*
X848730Y459616D01*
X850065Y456392D01*
X852532Y453925D01*
X855756Y452590D01*
G37*
G36*
X746536Y452590D02*
X750024Y452590D01*
X753248Y453925D01*
X755715Y456392D01*
X757050Y459616D01*
X757050Y463104D01*
X755715Y466328D01*
X753248Y468795D01*
X750024Y470130D01*
X746536Y470130D01*
X743312Y468795D01*
X740845Y466328D01*
X739510Y463104D01*
X739510Y459616D01*
X740845Y456392D01*
X743312Y453925D01*
X746536Y452590D01*
G37*
G36*
X966246Y451320D02*
X969734Y451320D01*
X972958Y452655D01*
X975425Y455122D01*
X976760Y458346D01*
X976760Y461834D01*
X975425Y465058D01*
X972958Y467525D01*
X969734Y468860D01*
X966246Y468860D01*
X963022Y467525D01*
X960555Y465058D01*
X959220Y461834D01*
X959220Y458346D01*
X960555Y455122D01*
X963022Y452655D01*
X966246Y451320D01*
G37*
G36*
X1001246Y451320D02*
X1004734Y451320D01*
X1007958Y452655D01*
X1010425Y455122D01*
X1011760Y458346D01*
X1011760Y461834D01*
X1010425Y465058D01*
X1007958Y467525D01*
X1004734Y468860D01*
X1001246Y468860D01*
X998022Y467525D01*
X995555Y465058D01*
X994220Y461834D01*
X994220Y458346D01*
X995555Y455122D01*
X998022Y452655D01*
X1001246Y451320D01*
G37*
G36*
X91574Y401570D02*
X98046Y401570D01*
X104026Y404047D01*
X108603Y408624D01*
X111080Y414604D01*
X111080Y421076D01*
X108603Y427056D01*
X104026Y431633D01*
X98046Y434110D01*
X91574Y434110D01*
X87434Y432395D01*
X87166Y432338D01*
X86867Y432388D01*
X86612Y432552D01*
X86440Y432802D01*
X86380Y433099D01*
X86380Y439284D01*
X84597Y445937D01*
X81153Y451903D01*
X76283Y456773D01*
X70317Y460217D01*
X63664Y462000D01*
X56776Y462000D01*
X50123Y460217D01*
X44157Y456773D01*
X39287Y451903D01*
X35843Y445937D01*
X34060Y439284D01*
X34060Y432396D01*
X35843Y425743D01*
X39287Y419777D01*
X44157Y414907D01*
X50123Y411463D01*
X56776Y409680D01*
X63664Y409680D01*
X70317Y411463D01*
X76283Y414907D01*
X77239Y415863D01*
X77459Y416016D01*
X77754Y416086D01*
X78053Y416035D01*
X78308Y415872D01*
X78480Y415622D01*
X78540Y415325D01*
X78540Y414604D01*
X81017Y408624D01*
X85594Y404047D01*
X91574Y401570D01*
G37*
G36*
X1072256Y441710D02*
X1076044Y441710D01*
X1079543Y443159D01*
X1082221Y445837D01*
X1083670Y449336D01*
X1083670Y453124D01*
X1082221Y456623D01*
X1079543Y459301D01*
X1076044Y460750D01*
X1072256Y460750D01*
X1068757Y459301D01*
X1066079Y456623D01*
X1064630Y453124D01*
X1064630Y449336D01*
X1066079Y445837D01*
X1068757Y443159D01*
X1072256Y441710D01*
G37*
G36*
X1097656Y441710D02*
X1101444Y441710D01*
X1104943Y443159D01*
X1107621Y445837D01*
X1109070Y449336D01*
X1109070Y453124D01*
X1107621Y456623D01*
X1104943Y459301D01*
X1101444Y460750D01*
X1097656Y460750D01*
X1094157Y459301D01*
X1091479Y456623D01*
X1090030Y453124D01*
X1090030Y449336D01*
X1091479Y445837D01*
X1094157Y443159D01*
X1097656Y441710D01*
G37*
G36*
X452940Y450765D02*
X456166Y450765D01*
X458448Y453047D01*
X458448Y456273D01*
X456166Y458555D01*
X452940Y458555D01*
X450658Y456273D01*
X450658Y453047D01*
X452940Y450765D01*
G37*
G36*
X539661Y449002D02*
X542887Y449002D01*
X545169Y451283D01*
X545169Y454510D01*
X542887Y456792D01*
X539661Y456792D01*
X537379Y454510D01*
X537379Y451283D01*
X539661Y449002D01*
G37*
G36*
X501307Y448225D02*
X504533Y448225D01*
X506815Y450507D01*
X506815Y453733D01*
X504533Y456015D01*
X501307Y456015D01*
X499025Y453733D01*
X499025Y450507D01*
X501307Y448225D01*
G37*
G36*
X787057Y440605D02*
X790283Y440605D01*
X792565Y442887D01*
X792565Y446113D01*
X790283Y448395D01*
X787057Y448395D01*
X784775Y446113D01*
X784775Y442887D01*
X787057Y440605D01*
G37*
G36*
X230797Y440605D02*
X234023Y440605D01*
X236305Y442887D01*
X236305Y446113D01*
X234023Y448395D01*
X230797Y448395D01*
X228515Y446113D01*
X228515Y442887D01*
X230797Y440605D01*
G37*
G36*
X263733Y436216D02*
X266959Y436216D01*
X269241Y438497D01*
X269241Y441724D01*
X266959Y444006D01*
X263733Y444006D01*
X261451Y441724D01*
X261451Y438497D01*
X263733Y436216D01*
G37*
G36*
X249847Y431715D02*
X253073Y431715D01*
X255355Y433997D01*
X255355Y437223D01*
X253073Y439505D01*
X249847Y439505D01*
X247565Y437223D01*
X247565Y433997D01*
X249847Y431715D01*
G37*
G36*
X1088760Y426592D02*
X1098788Y426592D01*
X1098788Y436620D01*
X1097404Y436620D01*
X1093438Y434977D01*
X1090403Y431942D01*
X1088760Y427976D01*
X1088760Y426592D01*
G37*
G36*
X1100312Y426592D02*
X1110340Y426592D01*
X1110340Y427976D01*
X1108697Y431942D01*
X1105662Y434977D01*
X1101696Y436620D01*
X1100312Y436620D01*
X1100312Y426592D01*
G37*
G36*
X780707Y427905D02*
X783933Y427905D01*
X786215Y430187D01*
X786215Y433413D01*
X783933Y435695D01*
X780707Y435695D01*
X778425Y433413D01*
X778425Y430187D01*
X780707Y427905D01*
G37*
G36*
X1072256Y416310D02*
X1076044Y416310D01*
X1079543Y417759D01*
X1082221Y420437D01*
X1083670Y423936D01*
X1083670Y427724D01*
X1082221Y431223D01*
X1079543Y433901D01*
X1076044Y435350D01*
X1072256Y435350D01*
X1068757Y433901D01*
X1066079Y431223D01*
X1064630Y427724D01*
X1064630Y423936D01*
X1066079Y420437D01*
X1068757Y417759D01*
X1072256Y416310D01*
G37*
G36*
X513499Y417999D02*
X516725Y417999D01*
X519007Y420281D01*
X519007Y423507D01*
X516725Y425789D01*
X513499Y425789D01*
X511217Y423507D01*
X511217Y420281D01*
X513499Y417999D01*
G37*
G36*
X1100312Y415040D02*
X1101696Y415040D01*
X1105662Y416683D01*
X1108697Y419718D01*
X1110340Y423684D01*
X1110340Y425068D01*
X1100312Y425068D01*
X1100312Y415040D01*
G37*
G36*
X1097404Y415040D02*
X1098788Y415040D01*
X1098788Y425068D01*
X1088760Y425068D01*
X1088760Y423684D01*
X1090403Y419718D01*
X1093438Y416683D01*
X1097404Y415040D01*
G37*
G36*
X235598Y407306D02*
X238824Y407306D01*
X241106Y409588D01*
X241106Y412814D01*
X238824Y415096D01*
X235598Y415096D01*
X233316Y412814D01*
X233316Y409588D01*
X235598Y407306D01*
G37*
G36*
X1097656Y390910D02*
X1101444Y390910D01*
X1104943Y392359D01*
X1107621Y395037D01*
X1109070Y398536D01*
X1109070Y402324D01*
X1107621Y405823D01*
X1104943Y408501D01*
X1101444Y409950D01*
X1097656Y409950D01*
X1094157Y408501D01*
X1091479Y405823D01*
X1090030Y402324D01*
X1090030Y398536D01*
X1091479Y395037D01*
X1094157Y392359D01*
X1097656Y390910D01*
G37*
G36*
X1072256Y390910D02*
X1076044Y390910D01*
X1079543Y392359D01*
X1082221Y395037D01*
X1083670Y398536D01*
X1083670Y402324D01*
X1082221Y405823D01*
X1079543Y408501D01*
X1076044Y409950D01*
X1072256Y409950D01*
X1068757Y408501D01*
X1066079Y405823D01*
X1064630Y402324D01*
X1064630Y398536D01*
X1066079Y395037D01*
X1068757Y392359D01*
X1072256Y390910D01*
G37*
G36*
X56776Y330940D02*
X63664Y330940D01*
X70317Y332723D01*
X76283Y336167D01*
X81153Y341037D01*
X84597Y347003D01*
X86380Y353656D01*
X86380Y359841D01*
X86429Y360110D01*
X86590Y360367D01*
X86839Y360540D01*
X87136Y360603D01*
X87434Y360545D01*
X91574Y358830D01*
X98046Y358830D01*
X104026Y361307D01*
X108603Y365884D01*
X111080Y371864D01*
X111080Y378336D01*
X108603Y384316D01*
X104026Y388893D01*
X98046Y391370D01*
X91574Y391370D01*
X85594Y388893D01*
X81017Y384316D01*
X78540Y378336D01*
X78540Y377615D01*
X78493Y377352D01*
X78334Y377094D01*
X78086Y376919D01*
X77790Y376854D01*
X77492Y376909D01*
X77239Y377077D01*
X76283Y378033D01*
X70317Y381477D01*
X63664Y383260D01*
X56776Y383260D01*
X50123Y381477D01*
X44157Y378033D01*
X39287Y373163D01*
X35843Y367197D01*
X34060Y360544D01*
X34060Y353656D01*
X35843Y347003D01*
X39287Y341037D01*
X44157Y336167D01*
X50123Y332723D01*
X56776Y330940D01*
G37*
G36*
X149000Y378375D02*
X152227Y378375D01*
X154509Y380657D01*
X154509Y383883D01*
X152227Y386165D01*
X149000Y386165D01*
X146719Y383883D01*
X146719Y380657D01*
X149000Y378375D01*
G37*
G36*
X1072256Y365510D02*
X1076044Y365510D01*
X1079543Y366959D01*
X1082221Y369637D01*
X1083670Y373136D01*
X1083670Y376924D01*
X1082221Y380423D01*
X1079543Y383101D01*
X1076044Y384550D01*
X1072256Y384550D01*
X1068757Y383101D01*
X1066079Y380423D01*
X1064630Y376924D01*
X1064630Y373136D01*
X1066079Y369637D01*
X1068757Y366959D01*
X1072256Y365510D01*
G37*
G36*
X1097656Y365510D02*
X1101444Y365510D01*
X1104943Y366959D01*
X1107621Y369637D01*
X1109070Y373136D01*
X1109070Y376924D01*
X1107621Y380423D01*
X1104943Y383101D01*
X1101444Y384550D01*
X1097656Y384550D01*
X1094157Y383101D01*
X1091479Y380423D01*
X1090030Y376924D01*
X1090030Y373136D01*
X1091479Y369637D01*
X1094157Y366959D01*
X1097656Y365510D01*
G37*
G36*
X1088760Y350392D02*
X1098788Y350392D01*
X1098788Y360420D01*
X1097404Y360420D01*
X1093438Y358777D01*
X1090403Y355742D01*
X1088760Y351776D01*
X1088760Y350392D01*
G37*
G36*
X1100312Y350392D02*
X1110340Y350392D01*
X1110340Y351776D01*
X1108697Y355742D01*
X1105662Y358777D01*
X1101696Y360420D01*
X1100312Y360420D01*
X1100312Y350392D01*
G37*
G36*
X1072256Y340110D02*
X1076044Y340110D01*
X1079543Y341559D01*
X1082221Y344237D01*
X1083670Y347736D01*
X1083670Y351524D01*
X1082221Y355023D01*
X1079543Y357701D01*
X1076044Y359150D01*
X1072256Y359150D01*
X1068757Y357701D01*
X1066079Y355023D01*
X1064630Y351524D01*
X1064630Y347736D01*
X1066079Y344237D01*
X1068757Y341559D01*
X1072256Y340110D01*
G37*
G36*
X362877Y350435D02*
X366103Y350435D01*
X368385Y352717D01*
X368385Y355943D01*
X366103Y358225D01*
X362877Y358225D01*
X360595Y355943D01*
X360595Y352717D01*
X362877Y350435D01*
G37*
G36*
X456857Y350435D02*
X460083Y350435D01*
X462365Y352717D01*
X462365Y355943D01*
X460083Y358225D01*
X456857Y358225D01*
X454575Y355943D01*
X454575Y352717D01*
X456857Y350435D01*
G37*
G36*
X1100312Y338840D02*
X1101696Y338840D01*
X1105662Y340483D01*
X1108697Y343518D01*
X1110340Y347484D01*
X1110340Y348868D01*
X1100312Y348868D01*
X1100312Y338840D01*
G37*
G36*
X1097404Y338840D02*
X1098788Y338840D01*
X1098788Y348868D01*
X1088760Y348868D01*
X1088760Y347484D01*
X1090403Y343518D01*
X1093438Y340483D01*
X1097404Y338840D01*
G37*
G36*
X94002Y329922D02*
X102638Y329922D01*
X102638Y338558D01*
X101531Y338558D01*
X98076Y337127D01*
X95433Y334484D01*
X94002Y331029D01*
X94002Y329922D01*
G37*
G36*
X104162Y329922D02*
X112798Y329922D01*
X112798Y331029D01*
X111367Y334484D01*
X108724Y337127D01*
X105269Y338558D01*
X104162Y338558D01*
X104162Y329922D01*
G37*
G36*
X746536Y319240D02*
X750024Y319240D01*
X753248Y320575D01*
X755715Y323042D01*
X757050Y326266D01*
X757050Y329754D01*
X755715Y332978D01*
X753248Y335445D01*
X750024Y336780D01*
X746536Y336780D01*
X743312Y335445D01*
X740845Y332978D01*
X739510Y329754D01*
X739510Y326266D01*
X740845Y323042D01*
X743312Y320575D01*
X746536Y319240D01*
G37*
G36*
X781536Y319240D02*
X785024Y319240D01*
X788248Y320575D01*
X790715Y323042D01*
X792050Y326266D01*
X792050Y329754D01*
X790715Y332978D01*
X788248Y335445D01*
X785024Y336780D01*
X781536Y336780D01*
X778312Y335445D01*
X775845Y332978D01*
X774510Y329754D01*
X774510Y326266D01*
X775845Y323042D01*
X778312Y320575D01*
X781536Y319240D01*
G37*
G36*
X855756Y319240D02*
X859244Y319240D01*
X862468Y320575D01*
X864935Y323042D01*
X866270Y326266D01*
X866270Y329754D01*
X864935Y332978D01*
X862468Y335445D01*
X859244Y336780D01*
X855756Y336780D01*
X852532Y335445D01*
X850065Y332978D01*
X848730Y329754D01*
X848730Y326266D01*
X850065Y323042D01*
X852532Y320575D01*
X855756Y319240D01*
G37*
G36*
X890756Y319240D02*
X894244Y319240D01*
X897468Y320575D01*
X899935Y323042D01*
X901270Y326266D01*
X901270Y329754D01*
X899935Y332978D01*
X897468Y335445D01*
X894244Y336780D01*
X890756Y336780D01*
X887532Y335445D01*
X885065Y332978D01*
X883730Y329754D01*
X883730Y326266D01*
X885065Y323042D01*
X887532Y320575D01*
X890756Y319240D01*
G37*
G36*
X966246Y317970D02*
X969734Y317970D01*
X972958Y319305D01*
X975425Y321772D01*
X976760Y324996D01*
X976760Y328484D01*
X975425Y331708D01*
X972958Y334175D01*
X969734Y335510D01*
X966246Y335510D01*
X963022Y334175D01*
X960555Y331708D01*
X959220Y328484D01*
X959220Y324996D01*
X960555Y321772D01*
X963022Y319305D01*
X966246Y317970D01*
G37*
G36*
X1001246Y317970D02*
X1004734Y317970D01*
X1007958Y319305D01*
X1010425Y321772D01*
X1011760Y324996D01*
X1011760Y328484D01*
X1010425Y331708D01*
X1007958Y334175D01*
X1004734Y335510D01*
X1001246Y335510D01*
X998022Y334175D01*
X995555Y331708D01*
X994220Y328484D01*
X994220Y324996D01*
X995555Y321772D01*
X998022Y319305D01*
X1001246Y317970D01*
G37*
G36*
X1072256Y314710D02*
X1076044Y314710D01*
X1079543Y316159D01*
X1082221Y318837D01*
X1083670Y322336D01*
X1083670Y326124D01*
X1082221Y329623D01*
X1079543Y332301D01*
X1076044Y333750D01*
X1072256Y333750D01*
X1068757Y332301D01*
X1066079Y329623D01*
X1064630Y326124D01*
X1064630Y322336D01*
X1066079Y318837D01*
X1068757Y316159D01*
X1072256Y314710D01*
G37*
G36*
X1097656Y314710D02*
X1101444Y314710D01*
X1104943Y316159D01*
X1107621Y318837D01*
X1109070Y322336D01*
X1109070Y326124D01*
X1107621Y329623D01*
X1104943Y332301D01*
X1101444Y333750D01*
X1097656Y333750D01*
X1094157Y332301D01*
X1091479Y329623D01*
X1090030Y326124D01*
X1090030Y322336D01*
X1091479Y318837D01*
X1094157Y316159D01*
X1097656Y314710D01*
G37*
G36*
X104162Y319762D02*
X105269Y319762D01*
X108724Y321193D01*
X111367Y323836D01*
X112798Y327291D01*
X112798Y328398D01*
X104162Y328398D01*
X104162Y319762D01*
G37*
G36*
X101531Y319762D02*
X102638Y319762D01*
X102638Y328398D01*
X94002Y328398D01*
X94002Y327291D01*
X95433Y323836D01*
X98076Y321193D01*
X101531Y319762D01*
G37*
G36*
X249276Y319510D02*
X252503Y319510D01*
X254784Y321791D01*
X254784Y325018D01*
X252503Y327300D01*
X249276Y327300D01*
X246994Y325018D01*
X246994Y321791D01*
X249276Y319510D01*
G37*
G36*
X84003Y310872D02*
X87237Y310872D01*
X90224Y312109D01*
X92511Y314396D01*
X93748Y317383D01*
X93748Y320617D01*
X92511Y323604D01*
X90224Y325891D01*
X87237Y327128D01*
X84003Y327128D01*
X81016Y325891D01*
X78729Y323604D01*
X77492Y320617D01*
X77492Y317383D01*
X78729Y314396D01*
X81016Y312109D01*
X84003Y310872D01*
G37*
G36*
X379387Y312335D02*
X382613Y312335D01*
X384895Y314617D01*
X384895Y317843D01*
X382613Y320125D01*
X379387Y320125D01*
X377105Y317843D01*
X377105Y314617D01*
X379387Y312335D01*
G37*
G36*
X101783Y300712D02*
X105017Y300712D01*
X108004Y301949D01*
X110291Y304236D01*
X111528Y307223D01*
X111528Y310457D01*
X110291Y313444D01*
X108004Y315731D01*
X105017Y316968D01*
X101783Y316968D01*
X98796Y315731D01*
X96509Y313444D01*
X95272Y310457D01*
X95272Y307223D01*
X96509Y304236D01*
X98796Y301949D01*
X101783Y300712D01*
G37*
G36*
X1097656Y289310D02*
X1101444Y289310D01*
X1104943Y290759D01*
X1107621Y293437D01*
X1109070Y296936D01*
X1109070Y300724D01*
X1107621Y304223D01*
X1104943Y306901D01*
X1101444Y308350D01*
X1097656Y308350D01*
X1094157Y306901D01*
X1091479Y304223D01*
X1090030Y300724D01*
X1090030Y296936D01*
X1091479Y293437D01*
X1094157Y290759D01*
X1097656Y289310D01*
G37*
G36*
X1072256Y289310D02*
X1076044Y289310D01*
X1079543Y290759D01*
X1082221Y293437D01*
X1083670Y296936D01*
X1083670Y300724D01*
X1082221Y304223D01*
X1079543Y306901D01*
X1076044Y308350D01*
X1072256Y308350D01*
X1068757Y306901D01*
X1066079Y304223D01*
X1064630Y300724D01*
X1064630Y296936D01*
X1066079Y293437D01*
X1068757Y290759D01*
X1072256Y289310D01*
G37*
G36*
X84003Y290552D02*
X87237Y290552D01*
X90224Y291789D01*
X92511Y294076D01*
X93748Y297063D01*
X93748Y300297D01*
X92511Y303284D01*
X90224Y305571D01*
X87237Y306808D01*
X84003Y306808D01*
X81016Y305571D01*
X78729Y303284D01*
X77492Y300297D01*
X77492Y297063D01*
X78729Y294076D01*
X81016Y291789D01*
X84003Y290552D01*
G37*
G36*
X94002Y289282D02*
X102638Y289282D01*
X102638Y297918D01*
X101531Y297918D01*
X98076Y296487D01*
X95433Y293844D01*
X94002Y290389D01*
X94002Y289282D01*
G37*
G36*
X104162Y289282D02*
X112798Y289282D01*
X112798Y290389D01*
X111367Y293844D01*
X108724Y296487D01*
X105269Y297918D01*
X104162Y297918D01*
X104162Y289282D01*
G37*
G36*
X104162Y279122D02*
X105269Y279122D01*
X108724Y280553D01*
X111367Y283196D01*
X112798Y286651D01*
X112798Y287758D01*
X104162Y287758D01*
X104162Y279122D01*
G37*
G36*
X101531Y279122D02*
X102638Y279122D01*
X102638Y287758D01*
X94002Y287758D01*
X94002Y286651D01*
X94927Y284417D01*
X94984Y284162D01*
X94938Y283862D01*
X94779Y283604D01*
X94599Y283476D01*
X94785Y283517D01*
X95083Y283461D01*
X95335Y283294D01*
X98076Y280553D01*
X101531Y279122D01*
G37*
G36*
X76222Y279122D02*
X84858Y279122D01*
X84858Y287758D01*
X83751Y287758D01*
X80296Y286327D01*
X77653Y283684D01*
X76222Y280229D01*
X76222Y279122D01*
G37*
G36*
X86382Y279122D02*
X95018Y279122D01*
X95018Y280229D01*
X94093Y282463D01*
X94036Y282719D01*
X94082Y283018D01*
X94241Y283276D01*
X94421Y283404D01*
X94236Y283363D01*
X93937Y283419D01*
X93685Y283586D01*
X90944Y286327D01*
X87489Y287758D01*
X86382Y287758D01*
X86382Y279122D01*
G37*
G36*
X1063360Y274192D02*
X1073388Y274192D01*
X1073388Y284220D01*
X1072004Y284220D01*
X1068038Y282577D01*
X1065003Y279542D01*
X1063360Y275576D01*
X1063360Y274192D01*
G37*
G36*
X1074912Y274192D02*
X1084940Y274192D01*
X1084940Y275576D01*
X1083297Y279542D01*
X1080262Y282577D01*
X1076296Y284220D01*
X1074912Y284220D01*
X1074912Y274192D01*
G37*
G36*
X1097656Y263910D02*
X1101444Y263910D01*
X1104943Y265359D01*
X1107621Y268037D01*
X1109070Y271536D01*
X1109070Y275324D01*
X1107621Y278823D01*
X1104943Y281501D01*
X1101444Y282950D01*
X1097656Y282950D01*
X1094157Y281501D01*
X1091479Y278823D01*
X1090030Y275324D01*
X1090030Y271536D01*
X1091479Y268037D01*
X1094157Y265359D01*
X1097656Y263910D01*
G37*
G36*
X682155Y273727D02*
X685381Y273727D01*
X687663Y276009D01*
X687663Y279235D01*
X685381Y281517D01*
X682155Y281517D01*
X679873Y279235D01*
X679873Y276009D01*
X682155Y273727D01*
G37*
G36*
X547027Y271695D02*
X550253Y271695D01*
X552535Y273977D01*
X552535Y277203D01*
X550253Y279485D01*
X547027Y279485D01*
X544745Y277203D01*
X544745Y273977D01*
X547027Y271695D01*
G37*
G36*
X86382Y268962D02*
X87489Y268962D01*
X90944Y270393D01*
X93587Y273036D01*
X95018Y276491D01*
X95018Y277598D01*
X86382Y277598D01*
X86382Y268962D01*
G37*
G36*
X83751Y268962D02*
X84858Y268962D01*
X84858Y277598D01*
X76222Y277598D01*
X76222Y276491D01*
X77653Y273036D01*
X80296Y270393D01*
X83751Y268962D01*
G37*
G36*
X101783Y260072D02*
X105017Y260072D01*
X108004Y261309D01*
X110291Y263596D01*
X111528Y266583D01*
X111528Y269817D01*
X110291Y272804D01*
X108004Y275091D01*
X105017Y276328D01*
X101783Y276328D01*
X98796Y275091D01*
X96509Y272804D01*
X95272Y269817D01*
X95272Y266583D01*
X96509Y263596D01*
X98796Y261309D01*
X101783Y260072D01*
G37*
G36*
X1074912Y262640D02*
X1076296Y262640D01*
X1080262Y264283D01*
X1083297Y267318D01*
X1084940Y271284D01*
X1084940Y272668D01*
X1074912Y272668D01*
X1074912Y262640D01*
G37*
G36*
X1072004Y262640D02*
X1073388Y262640D01*
X1073388Y272668D01*
X1063360Y272668D01*
X1063360Y271284D01*
X1065003Y267318D01*
X1068038Y264283D01*
X1072004Y262640D01*
G37*
G36*
X84003Y249912D02*
X87237Y249912D01*
X90224Y251149D01*
X92511Y253436D01*
X93748Y256423D01*
X93748Y259657D01*
X92511Y262644D01*
X90224Y264931D01*
X87237Y266168D01*
X84003Y266168D01*
X81016Y264931D01*
X78729Y262644D01*
X77492Y259657D01*
X77492Y256423D01*
X78729Y253436D01*
X81016Y251149D01*
X84003Y249912D01*
G37*
G36*
X940906Y245930D02*
X944394Y245930D01*
X947618Y247265D01*
X950085Y249732D01*
X951420Y252955D01*
X951420Y256444D01*
X950085Y259667D01*
X947618Y262134D01*
X944394Y263470D01*
X940906Y263470D01*
X937682Y262134D01*
X935215Y259667D01*
X933880Y256444D01*
X933880Y252955D01*
X935215Y249732D01*
X937682Y247265D01*
X940906Y245930D01*
G37*
G36*
X1005906Y245930D02*
X1009394Y245930D01*
X1012618Y247265D01*
X1015085Y249732D01*
X1016420Y252955D01*
X1016420Y256444D01*
X1015085Y259667D01*
X1012618Y262134D01*
X1009394Y263470D01*
X1005906Y263470D01*
X1002682Y262134D01*
X1000215Y259667D01*
X998880Y256444D01*
X998880Y252955D01*
X1000215Y249732D01*
X1002682Y247265D01*
X1005906Y245930D01*
G37*
G36*
X891352Y245810D02*
X894840Y245810D01*
X898064Y247145D01*
X900531Y249612D01*
X901866Y252836D01*
X901866Y256324D01*
X900531Y259548D01*
X898064Y262015D01*
X894840Y263350D01*
X891352Y263350D01*
X888128Y262015D01*
X885661Y259548D01*
X884326Y256324D01*
X884326Y252836D01*
X885661Y249612D01*
X888128Y247145D01*
X891352Y245810D01*
G37*
G36*
X826352Y245810D02*
X829840Y245810D01*
X833064Y247145D01*
X835531Y249612D01*
X836866Y252836D01*
X836866Y256324D01*
X835531Y259548D01*
X833064Y262015D01*
X829840Y263350D01*
X826352Y263350D01*
X823128Y262015D01*
X820661Y259548D01*
X819326Y256324D01*
X819326Y252836D01*
X820661Y249612D01*
X823128Y247145D01*
X826352Y245810D01*
G37*
G36*
X456857Y255185D02*
X460083Y255185D01*
X462365Y257467D01*
X462365Y260693D01*
X460083Y262975D01*
X456857Y262975D01*
X454575Y260693D01*
X454575Y257467D01*
X456857Y255185D01*
G37*
G36*
X776512Y245318D02*
X780000Y245318D01*
X783224Y246653D01*
X785691Y249120D01*
X787026Y252344D01*
X787026Y255832D01*
X785691Y259056D01*
X783224Y261523D01*
X780000Y262858D01*
X776512Y262858D01*
X773288Y261523D01*
X770821Y259056D01*
X769486Y255832D01*
X769486Y252344D01*
X770821Y249120D01*
X773288Y246653D01*
X776512Y245318D01*
G37*
G36*
X711512Y245318D02*
X715000Y245318D01*
X718224Y246653D01*
X720691Y249120D01*
X722026Y252344D01*
X722026Y255832D01*
X720691Y259056D01*
X718224Y261523D01*
X715000Y262858D01*
X711512Y262858D01*
X708288Y261523D01*
X705821Y259056D01*
X704486Y255832D01*
X704486Y252344D01*
X705821Y249120D01*
X708288Y246653D01*
X711512Y245318D01*
G37*
G36*
X1097656Y238510D02*
X1101444Y238510D01*
X1104943Y239959D01*
X1107621Y242637D01*
X1109070Y246136D01*
X1109070Y249924D01*
X1107621Y253423D01*
X1104943Y256101D01*
X1101444Y257550D01*
X1097656Y257550D01*
X1094157Y256101D01*
X1091479Y253423D01*
X1090030Y249924D01*
X1090030Y246136D01*
X1091479Y242637D01*
X1094157Y239959D01*
X1097656Y238510D01*
G37*
G36*
X1072256Y238510D02*
X1076044Y238510D01*
X1079543Y239959D01*
X1082221Y242637D01*
X1083670Y246136D01*
X1083670Y249924D01*
X1082221Y253423D01*
X1079543Y256101D01*
X1076044Y257550D01*
X1072256Y257550D01*
X1068757Y256101D01*
X1066079Y253423D01*
X1064630Y249924D01*
X1064630Y246136D01*
X1066079Y242637D01*
X1068757Y239959D01*
X1072256Y238510D01*
G37*
G36*
X91574Y195830D02*
X98046Y195830D01*
X104026Y198307D01*
X108603Y202884D01*
X111080Y208864D01*
X111080Y215336D01*
X108603Y221316D01*
X104026Y225893D01*
X98046Y228370D01*
X91574Y228370D01*
X87434Y226655D01*
X87166Y226598D01*
X86867Y226648D01*
X86612Y226812D01*
X86440Y227062D01*
X86380Y227359D01*
X86380Y233544D01*
X84597Y240197D01*
X81153Y246163D01*
X76283Y251033D01*
X70317Y254477D01*
X63664Y256260D01*
X56776Y256260D01*
X50123Y254477D01*
X44157Y251033D01*
X39287Y246163D01*
X35843Y240197D01*
X34060Y233544D01*
X34060Y226656D01*
X35843Y220003D01*
X39287Y214037D01*
X44157Y209167D01*
X50123Y205723D01*
X56776Y203940D01*
X63664Y203940D01*
X70317Y205723D01*
X76283Y209167D01*
X77239Y210123D01*
X77459Y210276D01*
X77754Y210346D01*
X78053Y210295D01*
X78308Y210132D01*
X78480Y209882D01*
X78540Y209585D01*
X78540Y208864D01*
X81017Y202884D01*
X85594Y198307D01*
X91574Y195830D01*
G37*
G36*
X683171Y243755D02*
X686397Y243755D01*
X688679Y246037D01*
X688679Y249263D01*
X686397Y251545D01*
X683171Y251545D01*
X680889Y249263D01*
X680889Y246037D01*
X683171Y243755D01*
G37*
G36*
X1088760Y223392D02*
X1098788Y223392D01*
X1098788Y233420D01*
X1097404Y233420D01*
X1093438Y231777D01*
X1090403Y228742D01*
X1088760Y224776D01*
X1088760Y223392D01*
G37*
G36*
X1100312Y223392D02*
X1110340Y223392D01*
X1110340Y224776D01*
X1108697Y228742D01*
X1105662Y231777D01*
X1101696Y233420D01*
X1100312Y233420D01*
X1100312Y223392D01*
G37*
G36*
X1072256Y213110D02*
X1076044Y213110D01*
X1079543Y214559D01*
X1082221Y217237D01*
X1083670Y220736D01*
X1083670Y224524D01*
X1082221Y228023D01*
X1079543Y230701D01*
X1076044Y232150D01*
X1072256Y232150D01*
X1068757Y230701D01*
X1066079Y228023D01*
X1064630Y224524D01*
X1064630Y220736D01*
X1066079Y217237D01*
X1068757Y214559D01*
X1072256Y213110D01*
G37*
G36*
X683171Y215815D02*
X686397Y215815D01*
X688679Y218097D01*
X688679Y221323D01*
X686397Y223605D01*
X683171Y223605D01*
X680889Y221323D01*
X680889Y218097D01*
X683171Y215815D01*
G37*
G36*
X1100312Y211840D02*
X1101696Y211840D01*
X1105662Y213483D01*
X1108697Y216518D01*
X1110340Y220484D01*
X1110340Y221868D01*
X1100312Y221868D01*
X1100312Y211840D01*
G37*
G36*
X1097404Y211840D02*
X1098788Y211840D01*
X1098788Y221868D01*
X1088760Y221868D01*
X1088760Y220484D01*
X1090403Y216518D01*
X1093438Y213483D01*
X1097404Y211840D01*
G37*
G36*
X940906Y200930D02*
X944394Y200930D01*
X947618Y202265D01*
X950085Y204732D01*
X951420Y207955D01*
X951420Y211444D01*
X950085Y214667D01*
X947618Y217134D01*
X944394Y218470D01*
X940906Y218470D01*
X937682Y217134D01*
X935215Y214667D01*
X933880Y211444D01*
X933880Y207955D01*
X935215Y204732D01*
X937682Y202265D01*
X940906Y200930D01*
G37*
G36*
X1005906Y200930D02*
X1009394Y200930D01*
X1012618Y202265D01*
X1015085Y204732D01*
X1016420Y207955D01*
X1016420Y211444D01*
X1015085Y214667D01*
X1012618Y217134D01*
X1009394Y218470D01*
X1005906Y218470D01*
X1002682Y217134D01*
X1000215Y214667D01*
X998880Y211444D01*
X998880Y207955D01*
X1000215Y204732D01*
X1002682Y202265D01*
X1005906Y200930D01*
G37*
G36*
X826352Y200810D02*
X829840Y200810D01*
X833064Y202145D01*
X835531Y204612D01*
X836866Y207836D01*
X836866Y211324D01*
X835531Y214548D01*
X833064Y217015D01*
X829840Y218350D01*
X826352Y218350D01*
X823128Y217015D01*
X820661Y214548D01*
X819326Y211324D01*
X819326Y207836D01*
X820661Y204612D01*
X823128Y202145D01*
X826352Y200810D01*
G37*
G36*
X891352Y200810D02*
X894840Y200810D01*
X898064Y202145D01*
X900531Y204612D01*
X901866Y207836D01*
X901866Y211324D01*
X900531Y214548D01*
X898064Y217015D01*
X894840Y218350D01*
X891352Y218350D01*
X888128Y217015D01*
X885661Y214548D01*
X884326Y211324D01*
X884326Y207836D01*
X885661Y204612D01*
X888128Y202145D01*
X891352Y200810D01*
G37*
G36*
X776512Y200318D02*
X780000Y200318D01*
X783224Y201653D01*
X785691Y204120D01*
X787026Y207344D01*
X787026Y210832D01*
X785691Y214056D01*
X783224Y216523D01*
X780000Y217858D01*
X776512Y217858D01*
X773288Y216523D01*
X770821Y214056D01*
X769486Y210832D01*
X769486Y207344D01*
X770821Y204120D01*
X773288Y201653D01*
X776512Y200318D01*
G37*
G36*
X711512Y200318D02*
X715000Y200318D01*
X718224Y201653D01*
X720691Y204120D01*
X722026Y207344D01*
X722026Y210832D01*
X720691Y214056D01*
X718224Y216523D01*
X715000Y217858D01*
X711512Y217858D01*
X708288Y216523D01*
X705821Y214056D01*
X704486Y210832D01*
X704486Y207344D01*
X705821Y204120D01*
X708288Y201653D01*
X711512Y200318D01*
G37*
G36*
X1097656Y187710D02*
X1101444Y187710D01*
X1104943Y189159D01*
X1107621Y191837D01*
X1109070Y195336D01*
X1109070Y199124D01*
X1107621Y202623D01*
X1104943Y205301D01*
X1101444Y206750D01*
X1097656Y206750D01*
X1094157Y205301D01*
X1091479Y202623D01*
X1090030Y199124D01*
X1090030Y195336D01*
X1091479Y191837D01*
X1094157Y189159D01*
X1097656Y187710D01*
G37*
G36*
X1072256Y187710D02*
X1076044Y187710D01*
X1079543Y189159D01*
X1082221Y191837D01*
X1083670Y195336D01*
X1083670Y199124D01*
X1082221Y202623D01*
X1079543Y205301D01*
X1076044Y206750D01*
X1072256Y206750D01*
X1068757Y205301D01*
X1066079Y202623D01*
X1064630Y199124D01*
X1064630Y195336D01*
X1066079Y191837D01*
X1068757Y189159D01*
X1072256Y187710D01*
G37*
G36*
X965110Y191962D02*
X974388Y191962D01*
X974388Y201240D01*
X973153Y201240D01*
X969463Y199711D01*
X966639Y196887D01*
X965110Y193197D01*
X965110Y191962D01*
G37*
G36*
X975912Y191962D02*
X985190Y191962D01*
X985190Y193197D01*
X983662Y196887D01*
X980837Y199711D01*
X977147Y201240D01*
X975912Y201240D01*
X975912Y191962D01*
G37*
G36*
X850556Y191842D02*
X859834Y191842D01*
X859834Y201120D01*
X858599Y201120D01*
X854909Y199592D01*
X852085Y196767D01*
X850556Y193077D01*
X850556Y191842D01*
G37*
G36*
X861358Y191842D02*
X870636Y191842D01*
X870636Y193077D01*
X869108Y196767D01*
X866283Y199592D01*
X862593Y201120D01*
X861358Y201120D01*
X861358Y191842D01*
G37*
G36*
X735716Y191350D02*
X744994Y191350D01*
X744994Y200628D01*
X743759Y200628D01*
X740069Y199100D01*
X737245Y196275D01*
X735716Y192585D01*
X735716Y191350D01*
G37*
G36*
X746518Y191350D02*
X755796Y191350D01*
X755796Y192585D01*
X754268Y196275D01*
X751443Y199100D01*
X747753Y200628D01*
X746518Y200628D01*
X746518Y191350D01*
G37*
G36*
X975912Y181160D02*
X977147Y181160D01*
X980837Y182688D01*
X983662Y185512D01*
X985190Y189202D01*
X985190Y190438D01*
X975912Y190438D01*
X975912Y181160D01*
G37*
G36*
X973153Y181160D02*
X974388Y181160D01*
X974388Y190438D01*
X965110Y190438D01*
X965110Y189202D01*
X966639Y185512D01*
X969463Y182688D01*
X973153Y181160D01*
G37*
G36*
X861358Y181040D02*
X862593Y181040D01*
X866283Y182569D01*
X869108Y185393D01*
X870636Y189083D01*
X870636Y190318D01*
X861358Y190318D01*
X861358Y181040D01*
G37*
G36*
X858599Y181040D02*
X859834Y181040D01*
X859834Y190318D01*
X850556Y190318D01*
X850556Y189083D01*
X852085Y185393D01*
X854909Y182569D01*
X858599Y181040D01*
G37*
G36*
X746518Y180548D02*
X747753Y180548D01*
X751443Y182077D01*
X754268Y184901D01*
X755796Y188591D01*
X755796Y189826D01*
X746518Y189826D01*
X746518Y180548D01*
G37*
G36*
X743759Y180548D02*
X744994Y180548D01*
X744994Y189826D01*
X735716Y189826D01*
X735716Y188591D01*
X737245Y184901D01*
X740069Y182077D01*
X743759Y180548D01*
G37*
G36*
X1088760Y172592D02*
X1098788Y172592D01*
X1098788Y182620D01*
X1097404Y182620D01*
X1093438Y180977D01*
X1090403Y177942D01*
X1088760Y173976D01*
X1088760Y172592D01*
G37*
G36*
X1100312Y172592D02*
X1110340Y172592D01*
X1110340Y173976D01*
X1108697Y177942D01*
X1105662Y180977D01*
X1101696Y182620D01*
X1100312Y182620D01*
X1100312Y172592D01*
G37*
G36*
X1072256Y162310D02*
X1076044Y162310D01*
X1079543Y163759D01*
X1082221Y166437D01*
X1083670Y169936D01*
X1083670Y173724D01*
X1082221Y177223D01*
X1079543Y179901D01*
X1076044Y181350D01*
X1072256Y181350D01*
X1068757Y179901D01*
X1066079Y177223D01*
X1064630Y173724D01*
X1064630Y169936D01*
X1066079Y166437D01*
X1068757Y163759D01*
X1072256Y162310D01*
G37*
G36*
X886371Y166793D02*
X889597Y166793D01*
X891879Y169075D01*
X891879Y172301D01*
X889597Y174583D01*
X886371Y174583D01*
X884089Y172301D01*
X884089Y169075D01*
X886371Y166793D01*
G37*
G36*
X1100312Y161040D02*
X1101696Y161040D01*
X1105662Y162683D01*
X1108697Y165718D01*
X1110340Y169684D01*
X1110340Y171068D01*
X1100312Y171068D01*
X1100312Y161040D01*
G37*
G36*
X1097404Y161040D02*
X1098788Y161040D01*
X1098788Y171068D01*
X1088760Y171068D01*
X1088760Y169684D01*
X1090403Y165718D01*
X1093438Y162683D01*
X1097404Y161040D01*
G37*
G36*
X676821Y161713D02*
X680047Y161713D01*
X682329Y163995D01*
X682329Y167221D01*
X680047Y169503D01*
X676821Y169503D01*
X674539Y167221D01*
X674539Y163995D01*
X676821Y161713D01*
G37*
G36*
X467271Y161713D02*
X470497Y161713D01*
X472779Y163995D01*
X472779Y167221D01*
X470497Y169503D01*
X467271Y169503D01*
X464989Y167221D01*
X464989Y163995D01*
X467271Y161713D01*
G37*
G36*
X303441Y152823D02*
X306667Y152823D01*
X308949Y155105D01*
X308949Y158331D01*
X306667Y160613D01*
X303441Y160613D01*
X301159Y158331D01*
X301159Y155105D01*
X303441Y152823D01*
G37*
G36*
X1072256Y136910D02*
X1076044Y136910D01*
X1079543Y138359D01*
X1082221Y141037D01*
X1083670Y144536D01*
X1083670Y148324D01*
X1082221Y151823D01*
X1079543Y154501D01*
X1076044Y155950D01*
X1072256Y155950D01*
X1068757Y154501D01*
X1066079Y151823D01*
X1064630Y148324D01*
X1064630Y144536D01*
X1066079Y141037D01*
X1068757Y138359D01*
X1072256Y136910D01*
G37*
G36*
X1097656Y136910D02*
X1101444Y136910D01*
X1104943Y138359D01*
X1107621Y141037D01*
X1109070Y144536D01*
X1109070Y148324D01*
X1107621Y151823D01*
X1104943Y154501D01*
X1101444Y155950D01*
X1097656Y155950D01*
X1094157Y154501D01*
X1091479Y151823D01*
X1090030Y148324D01*
X1090030Y144536D01*
X1091479Y141037D01*
X1094157Y138359D01*
X1097656Y136910D01*
G37*
G36*
X1072256Y111510D02*
X1076044Y111510D01*
X1079543Y112959D01*
X1082221Y115637D01*
X1083670Y119136D01*
X1083670Y122924D01*
X1082221Y126423D01*
X1079543Y129101D01*
X1076044Y130550D01*
X1072256Y130550D01*
X1068757Y129101D01*
X1066079Y126423D01*
X1064630Y122924D01*
X1064630Y119136D01*
X1066079Y115637D01*
X1068757Y112959D01*
X1072256Y111510D01*
G37*
G36*
X1097656Y111510D02*
X1101444Y111510D01*
X1104943Y112959D01*
X1107621Y115637D01*
X1109070Y119136D01*
X1109070Y122924D01*
X1107621Y126423D01*
X1104943Y129101D01*
X1101444Y130550D01*
X1097656Y130550D01*
X1094157Y129101D01*
X1091479Y126423D01*
X1090030Y122924D01*
X1090030Y119136D01*
X1091479Y115637D01*
X1094157Y112959D01*
X1097656Y111510D01*
G37*
G36*
X286507Y116071D02*
X295143Y116071D01*
X295143Y117178D01*
X293712Y120632D01*
X291068Y123276D01*
X287614Y124707D01*
X286507Y124707D01*
X286507Y116071D01*
G37*
G36*
X316987Y116071D02*
X325623Y116071D01*
X325623Y124707D01*
X324515Y124707D01*
X321061Y123276D01*
X318417Y120632D01*
X316987Y117178D01*
X316987Y116071D01*
G37*
G36*
X276347Y116071D02*
X284983Y116071D01*
X284983Y124707D01*
X283875Y124707D01*
X280421Y123276D01*
X277777Y120632D01*
X276347Y117178D01*
X276347Y116071D01*
G37*
G36*
X327147Y116071D02*
X335783Y116071D01*
X335783Y117178D01*
X334352Y120632D01*
X331708Y123276D01*
X328254Y124707D01*
X327147Y124707D01*
X327147Y116071D01*
G37*
G36*
X684247Y115841D02*
X692883Y115841D01*
X692883Y124477D01*
X691775Y124477D01*
X688321Y123046D01*
X685677Y120402D01*
X684247Y116948D01*
X684247Y115841D01*
G37*
G36*
X724887Y115841D02*
X733523Y115841D01*
X733523Y124477D01*
X732415Y124477D01*
X728961Y123046D01*
X726317Y120402D01*
X724887Y116948D01*
X724887Y115841D01*
G37*
G36*
X735047Y115841D02*
X743683Y115841D01*
X743683Y116948D01*
X742252Y120402D01*
X739608Y123046D01*
X736154Y124477D01*
X735047Y124477D01*
X735047Y115841D01*
G37*
G36*
X694407Y115841D02*
X703043Y115841D01*
X703043Y116948D01*
X701612Y120402D01*
X698968Y123046D01*
X695514Y124477D01*
X694407Y124477D01*
X694407Y115841D01*
G37*
G36*
X72721Y115645D02*
X81357Y115645D01*
X81357Y124281D01*
X80249Y124281D01*
X76795Y122850D01*
X74151Y120206D01*
X72721Y116752D01*
X72721Y115645D01*
G37*
G36*
X113361Y115645D02*
X121997Y115645D01*
X121997Y124281D01*
X120889Y124281D01*
X117435Y122850D01*
X114791Y120206D01*
X113361Y116752D01*
X113361Y115645D01*
G37*
G36*
X123521Y115645D02*
X132157Y115645D01*
X132157Y116752D01*
X130726Y120206D01*
X128082Y122850D01*
X124628Y124281D01*
X123521Y124281D01*
X123521Y115645D01*
G37*
G36*
X82881Y115645D02*
X91517Y115645D01*
X91517Y116752D01*
X90086Y120206D01*
X87442Y122850D01*
X83988Y124281D01*
X82881Y124281D01*
X82881Y115645D01*
G37*
G36*
X478006Y115340D02*
X486642Y115340D01*
X486642Y123976D01*
X485535Y123976D01*
X482080Y122545D01*
X479437Y119902D01*
X478006Y116447D01*
X478006Y115340D01*
G37*
G36*
X931396Y115340D02*
X940032Y115340D01*
X940032Y123976D01*
X938925Y123976D01*
X935470Y122545D01*
X932827Y119902D01*
X931396Y116447D01*
X931396Y115340D01*
G37*
G36*
X890756Y115340D02*
X899392Y115340D01*
X899392Y123976D01*
X898285Y123976D01*
X894830Y122545D01*
X892187Y119902D01*
X890756Y116447D01*
X890756Y115340D01*
G37*
G36*
X518646Y115340D02*
X527282Y115340D01*
X527282Y123976D01*
X526175Y123976D01*
X522720Y122545D01*
X520077Y119902D01*
X518646Y116447D01*
X518646Y115340D01*
G37*
G36*
X528806Y115340D02*
X537442Y115340D01*
X537442Y116447D01*
X536011Y119902D01*
X533368Y122545D01*
X529913Y123976D01*
X528806Y123976D01*
X528806Y115340D01*
G37*
G36*
X900916Y115340D02*
X909552Y115340D01*
X909552Y116447D01*
X908121Y119902D01*
X905478Y122545D01*
X902023Y123976D01*
X900916Y123976D01*
X900916Y115340D01*
G37*
G36*
X941556Y115340D02*
X950192Y115340D01*
X950192Y116447D01*
X948761Y119902D01*
X946118Y122545D01*
X942663Y123976D01*
X941556Y123976D01*
X941556Y115340D01*
G37*
G36*
X488166Y115340D02*
X496802Y115340D01*
X496802Y116447D01*
X495371Y119902D01*
X492728Y122545D01*
X489273Y123976D01*
X488166Y123976D01*
X488166Y115340D01*
G37*
G36*
X304448Y107181D02*
X307681Y107181D01*
X310669Y108418D01*
X312955Y110704D01*
X314193Y113692D01*
X314193Y116925D01*
X312955Y119913D01*
X310669Y122199D01*
X307681Y123437D01*
X304448Y123437D01*
X301460Y122199D01*
X299174Y119913D01*
X297937Y116925D01*
X297937Y113692D01*
X299174Y110704D01*
X301460Y108418D01*
X304448Y107181D01*
G37*
G36*
X345088Y107181D02*
X348321Y107181D01*
X351309Y108418D01*
X353595Y110704D01*
X354833Y113692D01*
X354833Y116925D01*
X353595Y119913D01*
X351309Y122199D01*
X348321Y123437D01*
X345088Y123437D01*
X342100Y122199D01*
X339814Y119913D01*
X338577Y116925D01*
X338577Y113692D01*
X339814Y110704D01*
X342100Y108418D01*
X345088Y107181D01*
G37*
G36*
X752988Y106951D02*
X756221Y106951D01*
X759209Y108188D01*
X761495Y110474D01*
X762733Y113462D01*
X762733Y116695D01*
X761495Y119683D01*
X759209Y121969D01*
X756221Y123207D01*
X752988Y123207D01*
X750000Y121969D01*
X747714Y119683D01*
X746477Y116695D01*
X746477Y113462D01*
X747714Y110474D01*
X750000Y108188D01*
X752988Y106951D01*
G37*
G36*
X712348Y106951D02*
X715581Y106951D01*
X718569Y108188D01*
X720855Y110474D01*
X722093Y113462D01*
X722093Y116695D01*
X720855Y119683D01*
X718569Y121969D01*
X715581Y123207D01*
X712348Y123207D01*
X709360Y121969D01*
X707074Y119683D01*
X705837Y116695D01*
X705837Y113462D01*
X707074Y110474D01*
X709360Y108188D01*
X712348Y106951D01*
G37*
G36*
X100822Y106755D02*
X104055Y106755D01*
X107043Y107992D01*
X109329Y110278D01*
X110567Y113266D01*
X110567Y116499D01*
X109329Y119487D01*
X107043Y121773D01*
X104055Y123011D01*
X100822Y123011D01*
X97834Y121773D01*
X95548Y119487D01*
X94311Y116499D01*
X94311Y113266D01*
X95548Y110278D01*
X97834Y107992D01*
X100822Y106755D01*
G37*
G36*
X141462Y106755D02*
X144695Y106755D01*
X147683Y107992D01*
X149969Y110278D01*
X151207Y113266D01*
X151207Y116499D01*
X149969Y119487D01*
X147683Y121773D01*
X144695Y123011D01*
X141462Y123011D01*
X138474Y121773D01*
X136188Y119487D01*
X134951Y116499D01*
X134951Y113266D01*
X136188Y110278D01*
X138474Y107992D01*
X141462Y106755D01*
G37*
G36*
X254361Y45969D02*
X261249Y45969D01*
X267902Y47751D01*
X273867Y51195D01*
X278738Y56066D01*
X282182Y62031D01*
X283965Y68685D01*
X283965Y75573D01*
X282182Y82226D01*
X278738Y88191D01*
X273867Y93062D01*
X267902Y96506D01*
X261249Y98289D01*
X255064Y98289D01*
X254795Y98338D01*
X254538Y98499D01*
X254364Y98748D01*
X254302Y99045D01*
X254360Y99342D01*
X256075Y103482D01*
X256075Y109955D01*
X253598Y115935D01*
X249021Y120512D01*
X243041Y122989D01*
X236568Y122989D01*
X230588Y120512D01*
X226012Y115935D01*
X223535Y109955D01*
X223535Y103482D01*
X226012Y97502D01*
X230588Y92926D01*
X236568Y90449D01*
X237289Y90449D01*
X237552Y90402D01*
X237810Y90242D01*
X237986Y89995D01*
X238051Y89699D01*
X237995Y89401D01*
X237828Y89148D01*
X236871Y88191D01*
X233427Y82226D01*
X231645Y75573D01*
X231645Y68685D01*
X233427Y62031D01*
X236871Y56066D01*
X241742Y51195D01*
X247707Y47751D01*
X254361Y45969D01*
G37*
G36*
X381361Y45969D02*
X388249Y45969D01*
X394902Y47751D01*
X400867Y51195D01*
X405738Y56066D01*
X409182Y62031D01*
X410965Y68685D01*
X410965Y75573D01*
X409182Y82226D01*
X405738Y88191D01*
X404781Y89148D01*
X404628Y89367D01*
X404558Y89662D01*
X404609Y89961D01*
X404773Y90217D01*
X405023Y90388D01*
X405320Y90449D01*
X406041Y90449D01*
X412021Y92926D01*
X416598Y97502D01*
X419075Y103482D01*
X419075Y109955D01*
X416598Y115935D01*
X412021Y120512D01*
X406041Y122989D01*
X399568Y122989D01*
X393588Y120512D01*
X389012Y115935D01*
X386535Y109955D01*
X386535Y103482D01*
X388249Y99342D01*
X388307Y99075D01*
X388256Y98776D01*
X388093Y98520D01*
X387843Y98349D01*
X387545Y98289D01*
X381361Y98289D01*
X374707Y96506D01*
X368742Y93062D01*
X363871Y88191D01*
X360427Y82226D01*
X358645Y75573D01*
X358645Y68685D01*
X360427Y62031D01*
X363871Y56066D01*
X368742Y51195D01*
X374707Y47751D01*
X381361Y45969D01*
G37*
G36*
X789261Y45739D02*
X796149Y45739D01*
X802802Y47521D01*
X808767Y50965D01*
X813638Y55836D01*
X817082Y61801D01*
X818865Y68455D01*
X818865Y75343D01*
X817082Y81996D01*
X813638Y87961D01*
X812681Y88918D01*
X812528Y89137D01*
X812458Y89432D01*
X812509Y89731D01*
X812673Y89987D01*
X812923Y90158D01*
X813220Y90219D01*
X813941Y90219D01*
X819921Y92696D01*
X824498Y97272D01*
X826975Y103252D01*
X826975Y109725D01*
X824498Y115705D01*
X819921Y120282D01*
X813941Y122759D01*
X807468Y122759D01*
X801488Y120282D01*
X796912Y115705D01*
X794435Y109725D01*
X794435Y103252D01*
X796149Y99112D01*
X796207Y98845D01*
X796156Y98546D01*
X795993Y98290D01*
X795743Y98119D01*
X795445Y98059D01*
X789261Y98059D01*
X782607Y96276D01*
X776642Y92832D01*
X771771Y87961D01*
X768327Y81996D01*
X766545Y75343D01*
X766545Y68455D01*
X768327Y61801D01*
X771771Y55836D01*
X776642Y50965D01*
X782607Y47521D01*
X789261Y45739D01*
G37*
G36*
X662261Y45739D02*
X669149Y45739D01*
X675802Y47521D01*
X681767Y50965D01*
X686638Y55836D01*
X690082Y61801D01*
X691865Y68455D01*
X691865Y75343D01*
X690082Y81996D01*
X686638Y87961D01*
X681767Y92832D01*
X675802Y96276D01*
X669149Y98059D01*
X662964Y98059D01*
X662695Y98108D01*
X662438Y98269D01*
X662264Y98518D01*
X662202Y98815D01*
X662260Y99112D01*
X663975Y103252D01*
X663975Y109725D01*
X661498Y115705D01*
X656921Y120282D01*
X650941Y122759D01*
X644468Y122759D01*
X638488Y120282D01*
X633912Y115705D01*
X631435Y109725D01*
X631435Y103252D01*
X633912Y97272D01*
X638488Y92696D01*
X644468Y90219D01*
X645189Y90219D01*
X645452Y90172D01*
X645710Y90012D01*
X645886Y89765D01*
X645951Y89469D01*
X645895Y89171D01*
X645728Y88918D01*
X644771Y87961D01*
X641327Y81996D01*
X639545Y75343D01*
X639545Y68455D01*
X641327Y61801D01*
X644771Y55836D01*
X649642Y50965D01*
X655607Y47521D01*
X662261Y45739D01*
G37*
G36*
X959497Y106450D02*
X962731Y106450D01*
X965718Y107687D01*
X968005Y109974D01*
X969242Y112961D01*
X969242Y116195D01*
X968005Y119182D01*
X965718Y121469D01*
X962731Y122706D01*
X959497Y122706D01*
X956510Y121469D01*
X954223Y119182D01*
X952986Y116195D01*
X952986Y112961D01*
X954223Y109974D01*
X956510Y107687D01*
X959497Y106450D01*
G37*
G36*
X918857Y106450D02*
X922091Y106450D01*
X925078Y107687D01*
X927365Y109974D01*
X928602Y112961D01*
X928602Y116195D01*
X927365Y119182D01*
X925078Y121469D01*
X922091Y122706D01*
X918857Y122706D01*
X915870Y121469D01*
X913583Y119182D01*
X912346Y116195D01*
X912346Y112961D01*
X913583Y109974D01*
X915870Y107687D01*
X918857Y106450D01*
G37*
G36*
X546747Y106450D02*
X549981Y106450D01*
X552968Y107687D01*
X555255Y109974D01*
X556492Y112961D01*
X556492Y116195D01*
X555255Y119182D01*
X552968Y121469D01*
X549981Y122706D01*
X546747Y122706D01*
X543760Y121469D01*
X541473Y119182D01*
X540236Y116195D01*
X540236Y112961D01*
X541473Y109974D01*
X543760Y107687D01*
X546747Y106450D01*
G37*
G36*
X506107Y106450D02*
X509341Y106450D01*
X512328Y107687D01*
X514615Y109974D01*
X515852Y112961D01*
X515852Y116195D01*
X514615Y119182D01*
X512328Y121469D01*
X509341Y122706D01*
X506107Y122706D01*
X503120Y121469D01*
X500833Y119182D01*
X499596Y116195D01*
X499596Y112961D01*
X500833Y109974D01*
X503120Y107687D01*
X506107Y106450D01*
G37*
G36*
X177735Y45543D02*
X184623Y45543D01*
X191276Y47325D01*
X197241Y50769D01*
X202112Y55640D01*
X205556Y61605D01*
X207339Y68259D01*
X207339Y75147D01*
X205556Y81800D01*
X202112Y87765D01*
X201155Y88722D01*
X201002Y88941D01*
X200932Y89236D01*
X200983Y89535D01*
X201147Y89791D01*
X201397Y89962D01*
X201694Y90023D01*
X202415Y90023D01*
X208395Y92500D01*
X212972Y97076D01*
X215449Y103056D01*
X215449Y109529D01*
X212972Y115509D01*
X208395Y120086D01*
X202415Y122563D01*
X195942Y122563D01*
X189962Y120086D01*
X185386Y115509D01*
X182909Y109529D01*
X182909Y103056D01*
X184624Y98916D01*
X184681Y98649D01*
X184630Y98350D01*
X184467Y98094D01*
X184217Y97923D01*
X183920Y97863D01*
X177735Y97863D01*
X171081Y96080D01*
X165116Y92636D01*
X160245Y87765D01*
X156801Y81800D01*
X155019Y75147D01*
X155019Y68259D01*
X156801Y61605D01*
X160245Y55640D01*
X165116Y50769D01*
X171081Y47325D01*
X177735Y45543D01*
G37*
G36*
X50735Y45543D02*
X57623Y45543D01*
X64276Y47325D01*
X70241Y50769D01*
X75112Y55640D01*
X78556Y61605D01*
X80339Y68259D01*
X80339Y75147D01*
X78556Y81800D01*
X75112Y87765D01*
X70241Y92636D01*
X64276Y96080D01*
X57623Y97863D01*
X51438Y97863D01*
X51169Y97912D01*
X50912Y98073D01*
X50739Y98322D01*
X50676Y98619D01*
X50734Y98916D01*
X52449Y103056D01*
X52449Y109529D01*
X49972Y115509D01*
X45395Y120086D01*
X39415Y122563D01*
X32942Y122563D01*
X26962Y120086D01*
X22386Y115509D01*
X19909Y109529D01*
X19909Y103056D01*
X22386Y97076D01*
X26962Y92500D01*
X32942Y90023D01*
X33663Y90023D01*
X33926Y89976D01*
X34185Y89816D01*
X34360Y89569D01*
X34425Y89273D01*
X34369Y88975D01*
X34202Y88722D01*
X33245Y87765D01*
X29801Y81800D01*
X28019Y75147D01*
X28019Y68259D01*
X29801Y61605D01*
X33245Y55640D01*
X38116Y50769D01*
X44081Y47325D01*
X50735Y45543D01*
G37*
G36*
X583020Y45238D02*
X589908Y45238D01*
X596561Y47021D01*
X602527Y50465D01*
X607397Y55335D01*
X610841Y61301D01*
X612624Y67954D01*
X612624Y74842D01*
X610841Y81495D01*
X607397Y87461D01*
X606441Y88417D01*
X606288Y88637D01*
X606218Y88932D01*
X606269Y89231D01*
X606432Y89486D01*
X606682Y89658D01*
X606979Y89718D01*
X607700Y89718D01*
X613680Y92195D01*
X618257Y96772D01*
X620734Y102752D01*
X620734Y109224D01*
X618257Y115204D01*
X613680Y119781D01*
X607700Y122258D01*
X601228Y122258D01*
X595248Y119781D01*
X590671Y115204D01*
X588194Y109224D01*
X588194Y102752D01*
X589909Y98612D01*
X589967Y98344D01*
X589916Y98045D01*
X589752Y97790D01*
X589502Y97618D01*
X589205Y97558D01*
X583020Y97558D01*
X576367Y95775D01*
X570401Y92331D01*
X565531Y87461D01*
X562087Y81495D01*
X560304Y74842D01*
X560304Y67954D01*
X562087Y61301D01*
X565531Y55335D01*
X570401Y50465D01*
X576367Y47021D01*
X583020Y45238D01*
G37*
G36*
X995770Y45238D02*
X1002658Y45238D01*
X1009311Y47021D01*
X1015277Y50465D01*
X1020147Y55335D01*
X1023591Y61301D01*
X1025374Y67954D01*
X1025374Y74842D01*
X1023591Y81495D01*
X1020147Y87461D01*
X1019191Y88417D01*
X1019038Y88637D01*
X1018968Y88932D01*
X1019019Y89231D01*
X1019182Y89486D01*
X1019432Y89658D01*
X1019729Y89718D01*
X1020450Y89718D01*
X1026430Y92195D01*
X1031007Y96772D01*
X1033484Y102752D01*
X1033484Y109224D01*
X1031007Y115204D01*
X1026430Y119781D01*
X1020450Y122258D01*
X1013978Y122258D01*
X1007998Y119781D01*
X1003421Y115204D01*
X1000944Y109224D01*
X1000944Y102752D01*
X1002659Y98612D01*
X1002717Y98344D01*
X1002666Y98045D01*
X1002502Y97790D01*
X1002252Y97618D01*
X1001955Y97558D01*
X995770Y97558D01*
X989117Y95775D01*
X983151Y92331D01*
X978281Y87461D01*
X974837Y81495D01*
X973054Y74842D01*
X973054Y67954D01*
X974837Y61301D01*
X978281Y55335D01*
X983151Y50465D01*
X989117Y47021D01*
X995770Y45238D01*
G37*
G36*
X868770Y45238D02*
X875658Y45238D01*
X882311Y47021D01*
X888277Y50465D01*
X893147Y55335D01*
X896591Y61301D01*
X898374Y67954D01*
X898374Y74842D01*
X896591Y81495D01*
X893147Y87461D01*
X888277Y92331D01*
X882311Y95775D01*
X875658Y97558D01*
X869473Y97558D01*
X869204Y97607D01*
X868947Y97768D01*
X868774Y98017D01*
X868711Y98314D01*
X868769Y98612D01*
X870484Y102752D01*
X870484Y109224D01*
X868007Y115204D01*
X863430Y119781D01*
X857450Y122258D01*
X850978Y122258D01*
X844998Y119781D01*
X840421Y115204D01*
X837944Y109224D01*
X837944Y102752D01*
X840421Y96772D01*
X844998Y92195D01*
X850978Y89718D01*
X851699Y89718D01*
X851962Y89671D01*
X852220Y89512D01*
X852395Y89264D01*
X852460Y88968D01*
X852405Y88670D01*
X852237Y88417D01*
X851281Y87461D01*
X847837Y81495D01*
X846054Y74842D01*
X846054Y67954D01*
X847837Y61301D01*
X851281Y55335D01*
X856151Y50465D01*
X862117Y47021D01*
X868770Y45238D01*
G37*
G36*
X456020Y45238D02*
X462908Y45238D01*
X469561Y47021D01*
X475527Y50465D01*
X480397Y55335D01*
X483841Y61301D01*
X485624Y67954D01*
X485624Y74842D01*
X483841Y81495D01*
X480397Y87461D01*
X475527Y92331D01*
X469561Y95775D01*
X462908Y97558D01*
X456723Y97558D01*
X456454Y97607D01*
X456197Y97768D01*
X456024Y98017D01*
X455961Y98314D01*
X456019Y98612D01*
X457734Y102752D01*
X457734Y109224D01*
X455257Y115204D01*
X450680Y119781D01*
X444700Y122258D01*
X438228Y122258D01*
X432248Y119781D01*
X427671Y115204D01*
X425194Y109224D01*
X425194Y102752D01*
X427671Y96772D01*
X432248Y92195D01*
X438228Y89718D01*
X438949Y89718D01*
X439212Y89671D01*
X439470Y89512D01*
X439645Y89264D01*
X439710Y88968D01*
X439655Y88670D01*
X439487Y88417D01*
X438531Y87461D01*
X435087Y81495D01*
X433304Y74842D01*
X433304Y67954D01*
X435087Y61301D01*
X438531Y55335D01*
X443401Y50465D01*
X449367Y47021D01*
X456020Y45238D01*
G37*
G36*
X283875Y105911D02*
X284983Y105911D01*
X284983Y114547D01*
X276347Y114547D01*
X276347Y113439D01*
X277777Y109985D01*
X280421Y107341D01*
X283875Y105911D01*
G37*
G36*
X327147Y105911D02*
X328254Y105911D01*
X330488Y106836D01*
X330743Y106893D01*
X331043Y106847D01*
X331301Y106688D01*
X331428Y106508D01*
X331388Y106693D01*
X331443Y106991D01*
X331611Y107244D01*
X334352Y109985D01*
X335783Y113439D01*
X335783Y114547D01*
X327147Y114547D01*
X327147Y105911D01*
G37*
G36*
X286507Y105911D02*
X287614Y105911D01*
X291068Y107341D01*
X293712Y109985D01*
X295143Y113439D01*
X295143Y114547D01*
X286507Y114547D01*
X286507Y105911D01*
G37*
G36*
X324515Y105911D02*
X325623Y105911D01*
X325623Y114547D01*
X316987Y114547D01*
X316987Y113439D01*
X318417Y109985D01*
X321061Y107341D01*
X324515Y105911D01*
G37*
G36*
X694407Y105681D02*
X695514Y105681D01*
X698968Y107111D01*
X701612Y109755D01*
X703043Y113209D01*
X703043Y114317D01*
X694407Y114317D01*
X694407Y105681D01*
G37*
G36*
X691775Y105681D02*
X692883Y105681D01*
X692883Y114317D01*
X684247Y114317D01*
X684247Y113209D01*
X685677Y109755D01*
X688321Y107111D01*
X691775Y105681D01*
G37*
G36*
X735047Y105681D02*
X736154Y105681D01*
X738388Y106606D01*
X738643Y106663D01*
X738943Y106617D01*
X739201Y106458D01*
X739328Y106278D01*
X739288Y106463D01*
X739343Y106761D01*
X739511Y107014D01*
X742252Y109755D01*
X743683Y113209D01*
X743683Y114317D01*
X735047Y114317D01*
X735047Y105681D01*
G37*
G36*
X732415Y105681D02*
X733523Y105681D01*
X733523Y114317D01*
X724887Y114317D01*
X724887Y113209D01*
X726317Y109755D01*
X728961Y107111D01*
X732415Y105681D01*
G37*
G36*
X120889Y105485D02*
X121997Y105485D01*
X121997Y114121D01*
X113361Y114121D01*
X113361Y113013D01*
X114791Y109559D01*
X117435Y106915D01*
X120889Y105485D01*
G37*
G36*
X82881Y105485D02*
X83988Y105485D01*
X87442Y106915D01*
X90086Y109559D01*
X91517Y113013D01*
X91517Y114121D01*
X82881Y114121D01*
X82881Y105485D01*
G37*
G36*
X123521Y105485D02*
X124628Y105485D01*
X126862Y106410D01*
X127117Y106467D01*
X127417Y106421D01*
X127675Y106262D01*
X127803Y106082D01*
X127762Y106267D01*
X127817Y106565D01*
X127985Y106818D01*
X130726Y109559D01*
X132157Y113013D01*
X132157Y114121D01*
X123521Y114121D01*
X123521Y105485D01*
G37*
G36*
X80249Y105485D02*
X81357Y105485D01*
X81357Y114121D01*
X72721Y114121D01*
X72721Y113013D01*
X74151Y109559D01*
X76795Y106915D01*
X80249Y105485D01*
G37*
G36*
X941556Y105180D02*
X942663Y105180D01*
X944897Y106105D01*
X945153Y106162D01*
X945452Y106116D01*
X945710Y105957D01*
X945838Y105777D01*
X945797Y105963D01*
X945853Y106261D01*
X946020Y106513D01*
X948761Y109254D01*
X950192Y112709D01*
X950192Y113816D01*
X941556Y113816D01*
X941556Y105180D01*
G37*
G36*
X938925Y105180D02*
X940032Y105180D01*
X940032Y113816D01*
X931396Y113816D01*
X931396Y112709D01*
X932827Y109254D01*
X935470Y106611D01*
X938925Y105180D01*
G37*
G36*
X900916Y105180D02*
X902023Y105180D01*
X905478Y106611D01*
X908121Y109254D01*
X909552Y112709D01*
X909552Y113816D01*
X900916Y113816D01*
X900916Y105180D01*
G37*
G36*
X898285Y105180D02*
X899392Y105180D01*
X899392Y113816D01*
X890756Y113816D01*
X890756Y112709D01*
X892187Y109254D01*
X894830Y106611D01*
X898285Y105180D01*
G37*
G36*
X528806Y105180D02*
X529913Y105180D01*
X532147Y106105D01*
X532403Y106162D01*
X532702Y106116D01*
X532960Y105957D01*
X533088Y105777D01*
X533047Y105963D01*
X533103Y106261D01*
X533270Y106513D01*
X536011Y109254D01*
X537442Y112709D01*
X537442Y113816D01*
X528806Y113816D01*
X528806Y105180D01*
G37*
G36*
X526175Y105180D02*
X527282Y105180D01*
X527282Y113816D01*
X518646Y113816D01*
X518646Y112709D01*
X520077Y109254D01*
X522720Y106611D01*
X526175Y105180D01*
G37*
G36*
X488166Y105180D02*
X489273Y105180D01*
X492728Y106611D01*
X495371Y109254D01*
X496802Y112709D01*
X496802Y113816D01*
X488166Y113816D01*
X488166Y105180D01*
G37*
G36*
X485535Y105180D02*
X486642Y105180D01*
X486642Y113816D01*
X478006Y113816D01*
X478006Y112709D01*
X479437Y109254D01*
X482080Y106611D01*
X485535Y105180D01*
G37*
G36*
X327147Y98291D02*
X335783Y98291D01*
X335783Y106927D01*
X334675Y106927D01*
X332441Y106001D01*
X332186Y105944D01*
X331886Y105990D01*
X331628Y106150D01*
X331501Y106329D01*
X331541Y106144D01*
X331486Y105846D01*
X331318Y105593D01*
X328577Y102852D01*
X327147Y99398D01*
X327147Y98291D01*
G37*
G36*
X337307Y98291D02*
X345943Y98291D01*
X345943Y99398D01*
X344512Y102852D01*
X341868Y105496D01*
X338414Y106927D01*
X337307Y106927D01*
X337307Y98291D01*
G37*
G36*
X745207Y98061D02*
X753843Y98061D01*
X753843Y99168D01*
X752412Y102622D01*
X749768Y105266D01*
X746314Y106697D01*
X745207Y106697D01*
X745207Y98061D01*
G37*
G36*
X735047Y98061D02*
X743683Y98061D01*
X743683Y106697D01*
X742575Y106697D01*
X740341Y105771D01*
X740086Y105714D01*
X739786Y105760D01*
X739528Y105920D01*
X739401Y106099D01*
X739441Y105914D01*
X739386Y105616D01*
X739218Y105363D01*
X736477Y102622D01*
X735047Y99168D01*
X735047Y98061D01*
G37*
G36*
X133681Y97865D02*
X142317Y97865D01*
X142317Y98972D01*
X140886Y102426D01*
X138242Y105070D01*
X134788Y106501D01*
X133681Y106501D01*
X133681Y97865D01*
G37*
G36*
X123521Y97865D02*
X132157Y97865D01*
X132157Y106501D01*
X131049Y106501D01*
X128815Y105575D01*
X128560Y105518D01*
X128260Y105564D01*
X128002Y105724D01*
X127875Y105903D01*
X127915Y105718D01*
X127860Y105420D01*
X127692Y105167D01*
X124951Y102426D01*
X123521Y98972D01*
X123521Y97865D01*
G37*
G36*
X1063360Y96392D02*
X1073388Y96392D01*
X1073388Y106420D01*
X1072004Y106420D01*
X1068038Y104777D01*
X1065003Y101742D01*
X1063360Y97776D01*
X1063360Y96392D01*
G37*
G36*
X1074912Y96392D02*
X1084940Y96392D01*
X1084940Y97776D01*
X1083297Y101742D01*
X1080262Y104777D01*
X1076296Y106420D01*
X1074912Y106420D01*
X1074912Y96392D01*
G37*
G36*
X528806Y97560D02*
X537442Y97560D01*
X537442Y106196D01*
X536335Y106196D01*
X534101Y105271D01*
X533846Y105214D01*
X533546Y105260D01*
X533288Y105419D01*
X533160Y105599D01*
X533201Y105414D01*
X533145Y105115D01*
X532978Y104863D01*
X530237Y102122D01*
X528806Y98667D01*
X528806Y97560D01*
G37*
G36*
X941556Y97560D02*
X950192Y97560D01*
X950192Y106196D01*
X949085Y106196D01*
X946851Y105271D01*
X946596Y105214D01*
X946296Y105260D01*
X946038Y105419D01*
X945910Y105599D01*
X945951Y105414D01*
X945895Y105115D01*
X945728Y104863D01*
X942987Y102122D01*
X941556Y98667D01*
X941556Y97560D01*
G37*
G36*
X951716Y97560D02*
X960352Y97560D01*
X960352Y98667D01*
X958921Y102122D01*
X956278Y104765D01*
X952823Y106196D01*
X951716Y106196D01*
X951716Y97560D01*
G37*
G36*
X538966Y97560D02*
X547602Y97560D01*
X547602Y98667D01*
X546171Y102122D01*
X543528Y104765D01*
X540073Y106196D01*
X538966Y106196D01*
X538966Y97560D01*
G37*
G36*
X294288Y89401D02*
X297521Y89401D01*
X300509Y90638D01*
X302795Y92924D01*
X304033Y95912D01*
X304033Y99145D01*
X302795Y102133D01*
X300509Y104419D01*
X297521Y105657D01*
X294288Y105657D01*
X291300Y104419D01*
X289014Y102133D01*
X287777Y99145D01*
X287777Y95912D01*
X289014Y92924D01*
X291300Y90638D01*
X294288Y89401D01*
G37*
G36*
X355248Y89401D02*
X358481Y89401D01*
X361469Y90638D01*
X363755Y92924D01*
X364993Y95912D01*
X364993Y99145D01*
X363755Y102133D01*
X361469Y104419D01*
X358481Y105657D01*
X355248Y105657D01*
X352260Y104419D01*
X349974Y102133D01*
X348737Y99145D01*
X348737Y95912D01*
X349974Y92924D01*
X352260Y90638D01*
X355248Y89401D01*
G37*
G36*
X314608Y89401D02*
X317841Y89401D01*
X320829Y90638D01*
X323115Y92924D01*
X324353Y95912D01*
X324353Y99145D01*
X323115Y102133D01*
X320829Y104419D01*
X317841Y105657D01*
X314608Y105657D01*
X311620Y104419D01*
X309334Y102133D01*
X308097Y99145D01*
X308097Y95912D01*
X309334Y92924D01*
X311620Y90638D01*
X314608Y89401D01*
G37*
G36*
X702188Y89171D02*
X705421Y89171D01*
X708409Y90408D01*
X710695Y92694D01*
X711933Y95682D01*
X711933Y98915D01*
X710695Y101903D01*
X708409Y104189D01*
X705421Y105427D01*
X702188Y105427D01*
X699200Y104189D01*
X696914Y101903D01*
X695677Y98915D01*
X695677Y95682D01*
X696914Y92694D01*
X699200Y90408D01*
X702188Y89171D01*
G37*
G36*
X763148Y89171D02*
X766381Y89171D01*
X769369Y90408D01*
X771655Y92694D01*
X772893Y95682D01*
X772893Y98915D01*
X771655Y101903D01*
X769369Y104189D01*
X766381Y105427D01*
X763148Y105427D01*
X760160Y104189D01*
X757874Y101903D01*
X756637Y98915D01*
X756637Y95682D01*
X757874Y92694D01*
X760160Y90408D01*
X763148Y89171D01*
G37*
G36*
X722508Y89171D02*
X725741Y89171D01*
X728729Y90408D01*
X731015Y92694D01*
X732253Y95682D01*
X732253Y98915D01*
X731015Y101903D01*
X728729Y104189D01*
X725741Y105427D01*
X722508Y105427D01*
X719520Y104189D01*
X717234Y101903D01*
X715997Y98915D01*
X715997Y95682D01*
X717234Y92694D01*
X719520Y90408D01*
X722508Y89171D01*
G37*
G36*
X90662Y88975D02*
X93895Y88975D01*
X96883Y90212D01*
X99169Y92498D01*
X100407Y95486D01*
X100407Y98719D01*
X99169Y101707D01*
X96883Y103993D01*
X93895Y105231D01*
X90662Y105231D01*
X87674Y103993D01*
X85388Y101707D01*
X84151Y98719D01*
X84151Y95486D01*
X85388Y92498D01*
X87674Y90212D01*
X90662Y88975D01*
G37*
G36*
X151622Y88975D02*
X154855Y88975D01*
X157843Y90212D01*
X160129Y92498D01*
X161367Y95486D01*
X161367Y98719D01*
X160129Y101707D01*
X157843Y103993D01*
X154855Y105231D01*
X151622Y105231D01*
X148634Y103993D01*
X146348Y101707D01*
X145111Y98719D01*
X145111Y95486D01*
X146348Y92498D01*
X148634Y90212D01*
X151622Y88975D01*
G37*
G36*
X110982Y88975D02*
X114215Y88975D01*
X117203Y90212D01*
X119489Y92498D01*
X120727Y95486D01*
X120727Y98719D01*
X119489Y101707D01*
X117203Y103993D01*
X114215Y105231D01*
X110982Y105231D01*
X107994Y103993D01*
X105708Y101707D01*
X104471Y98719D01*
X104471Y95486D01*
X105708Y92498D01*
X107994Y90212D01*
X110982Y88975D01*
G37*
G36*
X1097656Y86110D02*
X1101444Y86110D01*
X1104943Y87559D01*
X1107621Y90237D01*
X1109070Y93736D01*
X1109070Y97524D01*
X1107621Y101023D01*
X1104943Y103701D01*
X1101444Y105150D01*
X1097656Y105150D01*
X1094157Y103701D01*
X1091479Y101023D01*
X1090030Y97524D01*
X1090030Y93736D01*
X1091479Y90237D01*
X1094157Y87559D01*
X1097656Y86110D01*
G37*
G36*
X969657Y88670D02*
X972891Y88670D01*
X975878Y89907D01*
X978165Y92194D01*
X979402Y95181D01*
X979402Y98415D01*
X978165Y101402D01*
X975878Y103689D01*
X972891Y104926D01*
X969657Y104926D01*
X966670Y103689D01*
X964383Y101402D01*
X963146Y98415D01*
X963146Y95181D01*
X964383Y92194D01*
X966670Y89907D01*
X969657Y88670D01*
G37*
G36*
X495947Y88670D02*
X499181Y88670D01*
X502168Y89907D01*
X504455Y92194D01*
X505692Y95181D01*
X505692Y98415D01*
X504455Y101402D01*
X502168Y103689D01*
X499181Y104926D01*
X495947Y104926D01*
X492960Y103689D01*
X490673Y101402D01*
X489436Y98415D01*
X489436Y95181D01*
X490673Y92194D01*
X492960Y89907D01*
X495947Y88670D01*
G37*
G36*
X516267Y88670D02*
X519501Y88670D01*
X522488Y89907D01*
X524775Y92194D01*
X526012Y95181D01*
X526012Y98415D01*
X524775Y101402D01*
X522488Y103689D01*
X519501Y104926D01*
X516267Y104926D01*
X513280Y103689D01*
X510993Y101402D01*
X509756Y98415D01*
X509756Y95181D01*
X510993Y92194D01*
X513280Y89907D01*
X516267Y88670D01*
G37*
G36*
X556907Y88670D02*
X560141Y88670D01*
X563128Y89907D01*
X565415Y92194D01*
X566652Y95181D01*
X566652Y98415D01*
X565415Y101402D01*
X563128Y103689D01*
X560141Y104926D01*
X556907Y104926D01*
X553920Y103689D01*
X551633Y101402D01*
X550396Y98415D01*
X550396Y95181D01*
X551633Y92194D01*
X553920Y89907D01*
X556907Y88670D01*
G37*
G36*
X908697Y88670D02*
X911931Y88670D01*
X914918Y89907D01*
X917205Y92194D01*
X918442Y95181D01*
X918442Y98415D01*
X917205Y101402D01*
X914918Y103689D01*
X911931Y104926D01*
X908697Y104926D01*
X905710Y103689D01*
X903423Y101402D01*
X902186Y98415D01*
X902186Y95181D01*
X903423Y92194D01*
X905710Y89907D01*
X908697Y88670D01*
G37*
G36*
X929017Y88670D02*
X932251Y88670D01*
X935238Y89907D01*
X937525Y92194D01*
X938762Y95181D01*
X938762Y98415D01*
X937525Y101402D01*
X935238Y103689D01*
X932251Y104926D01*
X929017Y104926D01*
X926030Y103689D01*
X923743Y101402D01*
X922506Y98415D01*
X922506Y95181D01*
X923743Y92194D01*
X926030Y89907D01*
X929017Y88670D01*
G37*
G36*
X337307Y88131D02*
X338414Y88131D01*
X341868Y89561D01*
X344512Y92205D01*
X345943Y95659D01*
X345943Y96767D01*
X337307Y96767D01*
X337307Y88131D01*
G37*
G36*
X334675Y88131D02*
X335783Y88131D01*
X335783Y96767D01*
X327147Y96767D01*
X327147Y95659D01*
X328577Y92205D01*
X331221Y89561D01*
X334675Y88131D01*
G37*
G36*
X742575Y87901D02*
X743683Y87901D01*
X743683Y96537D01*
X735047Y96537D01*
X735047Y95429D01*
X736477Y91975D01*
X739121Y89331D01*
X742575Y87901D01*
G37*
G36*
X745207Y87901D02*
X746314Y87901D01*
X749768Y89331D01*
X752412Y91975D01*
X753843Y95429D01*
X753843Y96537D01*
X745207Y96537D01*
X745207Y87901D01*
G37*
G36*
X131049Y87705D02*
X132157Y87705D01*
X132157Y96341D01*
X123521Y96341D01*
X123521Y95233D01*
X124951Y91779D01*
X127595Y89135D01*
X131049Y87705D01*
G37*
G36*
X133681Y87705D02*
X134788Y87705D01*
X138242Y89135D01*
X140886Y91779D01*
X142317Y95233D01*
X142317Y96341D01*
X133681Y96341D01*
X133681Y87705D01*
G37*
G36*
X536335Y87400D02*
X537442Y87400D01*
X537442Y96036D01*
X528806Y96036D01*
X528806Y94929D01*
X530237Y91474D01*
X532880Y88831D01*
X536335Y87400D01*
G37*
G36*
X951716Y87400D02*
X952823Y87400D01*
X956278Y88831D01*
X958921Y91474D01*
X960352Y94929D01*
X960352Y96036D01*
X951716Y96036D01*
X951716Y87400D01*
G37*
G36*
X949085Y87400D02*
X950192Y87400D01*
X950192Y96036D01*
X941556Y96036D01*
X941556Y94929D01*
X942987Y91474D01*
X945630Y88831D01*
X949085Y87400D01*
G37*
G36*
X538966Y87400D02*
X540073Y87400D01*
X543528Y88831D01*
X546171Y91474D01*
X547602Y94929D01*
X547602Y96036D01*
X538966Y96036D01*
X538966Y87400D01*
G37*
G36*
X1072004Y84840D02*
X1073388Y84840D01*
X1073388Y94868D01*
X1063360Y94868D01*
X1063360Y93484D01*
X1065003Y89518D01*
X1068038Y86483D01*
X1072004Y84840D01*
G37*
G36*
X1074912Y84840D02*
X1076296Y84840D01*
X1080262Y86483D01*
X1083297Y89518D01*
X1084940Y93484D01*
X1084940Y94868D01*
X1074912Y94868D01*
X1074912Y84840D01*
G37*
%LPD*%
D10*
X967990Y326740D03*
X1002990Y326740D03*
D11*
X1396770Y569490D03*
X1396770Y594890D03*
X1396770Y620290D03*
X1396770Y645690D03*
X1396770Y671090D03*
X1396770Y696490D03*
X1396770Y721890D03*
X1396770Y747290D03*
X1269770Y569490D03*
X1269770Y594890D03*
X1269770Y620290D03*
X1269770Y645690D03*
X1269770Y671090D03*
X1269770Y696490D03*
X1269770Y721890D03*
X1269770Y747290D03*
D12*
X393470Y700300D03*
X368070Y700300D03*
D13*
X444270Y751100D03*
X342670Y751100D03*
D12*
X824000Y700300D03*
X798600Y700300D03*
D13*
X874800Y751100D03*
X773200Y751100D03*
D14*
X900154Y114578D03*
X920474Y114578D03*
X940794Y114578D03*
X961114Y114578D03*
X910314Y96798D03*
X930634Y96798D03*
X950954Y96798D03*
X971274Y96798D03*
D13*
X1017214Y105988D03*
X854214Y105988D03*
D14*
X693645Y115079D03*
X713965Y115079D03*
X734285Y115079D03*
X754605Y115079D03*
X703805Y97299D03*
X724125Y97299D03*
X744445Y97299D03*
X764765Y97299D03*
D13*
X810705Y106489D03*
X647705Y106489D03*
D14*
X487404Y114578D03*
X507724Y114578D03*
X528044Y114578D03*
X548364Y114578D03*
X497564Y96798D03*
X517884Y96798D03*
X538204Y96798D03*
X558524Y96798D03*
D13*
X604464Y105988D03*
X441464Y105988D03*
D14*
X285745Y115309D03*
X306065Y115309D03*
X326385Y115309D03*
X346705Y115309D03*
X295905Y97529D03*
X316225Y97529D03*
X336545Y97529D03*
X356865Y97529D03*
D13*
X402805Y106719D03*
X239805Y106719D03*
D14*
X82119Y114883D03*
X102439Y114883D03*
X122759Y114883D03*
X143079Y114883D03*
X92279Y97103D03*
X112599Y97103D03*
X132919Y97103D03*
X153239Y97103D03*
D13*
X199179Y106293D03*
X36179Y106293D03*
D14*
X103400Y329160D03*
X103400Y308840D03*
X103400Y288520D03*
X103400Y268200D03*
X85620Y319000D03*
X85620Y298680D03*
X85620Y278360D03*
X85620Y258040D03*
D13*
X94810Y212100D03*
X94810Y375100D03*
D14*
X103400Y534900D03*
X103400Y514580D03*
X103400Y494260D03*
X103400Y473940D03*
X85620Y524740D03*
X85620Y504420D03*
X85620Y484100D03*
X85620Y463780D03*
D13*
X94810Y417840D03*
X94810Y580840D03*
D14*
X103400Y735560D03*
X103400Y715240D03*
X103400Y694920D03*
X103400Y674600D03*
X85620Y725400D03*
X85620Y705080D03*
X85620Y684760D03*
X85620Y664440D03*
D13*
X94810Y618500D03*
X94810Y781500D03*
D15*
X964410Y804370D02*
X986410Y804370D01*
X929410Y782870D02*
X929410Y760870D01*
X964410Y743370D02*
X986410Y743370D01*
D16*
X1294870Y799870D03*
X1319870Y799870D03*
X1344870Y799870D03*
X1369870Y799870D03*
D10*
X857500Y328010D03*
X892500Y328010D03*
X748280Y328010D03*
X783280Y328010D03*
X967990Y460090D03*
X1002990Y460090D03*
X857500Y461360D03*
X892500Y461360D03*
X748280Y461360D03*
X783280Y461360D03*
X967990Y590900D03*
X1002990Y590900D03*
X857500Y590900D03*
X892500Y590900D03*
X748280Y590900D03*
X783280Y590900D03*
D12*
X611910Y700300D03*
X586510Y700300D03*
D13*
X662710Y751100D03*
X561110Y751100D03*
D17*
X1216430Y798090D03*
X1178330Y798090D03*
X1099550Y578230D03*
X1074150Y578230D03*
X1099550Y552830D03*
X1074150Y552830D03*
X1099550Y527430D03*
X1074150Y527430D03*
X1099550Y502030D03*
X1074150Y502030D03*
X1099550Y476630D03*
X1074150Y476630D03*
X1099550Y451230D03*
X1074150Y451230D03*
X1099550Y425830D03*
X1074150Y425830D03*
X1099550Y400430D03*
X1074150Y400430D03*
X1099550Y375030D03*
X1074150Y375030D03*
X1099550Y349630D03*
X1074150Y349630D03*
X1099550Y324230D03*
X1074150Y324230D03*
X1099550Y298830D03*
X1074150Y298830D03*
X1099550Y273430D03*
X1074150Y273430D03*
X1099550Y248030D03*
X1074150Y248030D03*
X1099550Y222630D03*
X1074150Y222630D03*
X1099550Y197230D03*
X1074150Y197230D03*
X1099550Y171830D03*
X1074150Y171830D03*
X1099550Y146430D03*
X1074150Y146430D03*
X1099550Y121030D03*
X1074150Y121030D03*
X1099550Y95630D03*
X1074150Y95630D03*
D11*
X653010Y552120D03*
X653010Y577520D03*
X653010Y602920D03*
D10*
X942650Y254700D03*
X1007650Y254700D03*
X1007650Y209700D03*
X942650Y209700D03*
X975150Y191200D03*
X828096Y254580D03*
X893096Y254580D03*
X893096Y209580D03*
X828096Y209580D03*
X860596Y191080D03*
X713256Y254088D03*
X778256Y254088D03*
X778256Y209088D03*
X713256Y209088D03*
X745756Y190588D03*
D18*
X1036090Y702840D03*
X1215160Y552980D03*
X1033582Y209400D03*
X1306600Y83080D03*
X1196110Y84350D03*
X650340Y418280D03*
X918520Y208130D03*
X1179830Y336880D03*
X1253490Y465150D03*
X1316990Y337820D03*
X803656Y256540D03*
X654812Y265176D03*
X654812Y295910D03*
X248920Y566420D03*
X196850Y560070D03*
X440690Y368300D03*
X450850Y368300D03*
X654812Y239353D03*
X421640Y603250D03*
X448310Y603250D03*
X474980Y603250D03*
X176530Y288290D03*
X208280Y287020D03*
X222250Y287020D03*
X351790Y369570D03*
X231140Y318770D03*
X180340Y433070D03*
X212090Y431800D03*
X228600Y431800D03*
X238760Y599440D03*
X259191Y521970D03*
X234950Y525780D03*
X256540Y688340D03*
X238760Y676910D03*
X241300Y435610D03*
X254000Y589280D03*
X259080Y444500D03*
X440690Y278130D03*
X440690Y267970D03*
X494030Y288290D03*
X444500Y436880D03*
X435610Y436880D03*
X439420Y461351D03*
X495300Y734060D03*
X607060Y655320D03*
X332470Y321310D03*
X613410Y309880D03*
X237166Y402266D03*
X180340Y377190D03*
X1316736Y210566D03*
X195665Y432308D03*
X193125Y287020D03*
X247905Y295910D03*
X238591Y295910D03*
X245621Y423161D03*
X256670Y423288D03*
X485140Y601980D03*
X683768Y277622D03*
X684784Y247650D03*
X684784Y219710D03*
X237211Y411201D03*
X458470Y603250D03*
X433070Y603250D03*
X250889Y323405D03*
X246380Y688340D03*
X186690Y542290D03*
X251460Y435610D03*
X458470Y259080D03*
X458470Y354330D03*
X445770Y551180D03*
X548640Y275590D03*
X541274Y452897D03*
X454553Y454660D03*
X558038Y547624D03*
X560070Y498856D03*
X150614Y382270D03*
X120650Y548640D03*
X887984Y170688D03*
X439453Y638777D03*
X439420Y658370D03*
X305054Y156718D03*
X678434Y165608D03*
X439453Y645297D03*
X318770Y662940D03*
X468884Y165608D03*
X439453Y651817D03*
X318770Y670560D03*
X318803Y684733D03*
X318770Y678180D03*
X773430Y533400D03*
X773430Y554990D03*
X505460Y495300D03*
X502920Y452120D03*
X586232Y591631D03*
X364490Y354330D03*
X515112Y421894D03*
X533646Y468876D03*
X381000Y316230D03*
X265346Y440111D03*
X232410Y444500D03*
X259191Y529695D03*
X224790Y525780D03*
X265057Y592315D03*
X140970Y541020D03*
X115570Y646007D03*
X788670Y444500D03*
X782320Y431800D03*
M02*
