G04 EAGLE Gerber RS-274X export*
G75*
%MOMM*%
%FSLAX34Y34*%
%LPD*%
%INCopper Layer 15*%
%IPPOS*%
%AMOC8*
5,1,8,0,0,1.08239X$1,22.5*%
G01*
G04 Define Apertures*
%ADD10C,1.500000*%
%ADD11C,1.524000*%
%ADD12C,1.335000*%
%ADD13C,3.000000*%
%ADD14C,1.371600*%
%ADD15C,1.200000*%
%ADD16C,1.260000*%
%ADD17C,1.650000*%
%ADD18C,0.525000*%
G36*
X1069014Y25990D02*
X1068717Y25930D01*
X48210Y25930D01*
X48091Y25939D01*
X38067Y27527D01*
X37840Y27601D01*
X28798Y32208D01*
X28605Y32348D01*
X21428Y39525D01*
X21288Y39718D01*
X16681Y48760D01*
X16607Y48987D01*
X15019Y59011D01*
X15010Y59130D01*
X15010Y786518D01*
X15017Y786618D01*
X16571Y798422D01*
X16622Y798614D01*
X21179Y809615D01*
X21278Y809787D01*
X28526Y819233D01*
X28667Y819374D01*
X38113Y826622D01*
X38285Y826721D01*
X49286Y831278D01*
X49478Y831329D01*
X61282Y832883D01*
X61382Y832890D01*
X239768Y832890D01*
X240025Y832845D01*
X240285Y832688D01*
X240462Y832442D01*
X240529Y832146D01*
X240476Y831848D01*
X240311Y831594D01*
X240059Y831424D01*
X239956Y831381D01*
X234989Y826414D01*
X232300Y819923D01*
X232300Y812897D01*
X234989Y806406D01*
X239956Y801439D01*
X246447Y798750D01*
X253473Y798750D01*
X259964Y801439D01*
X264931Y806406D01*
X267620Y812897D01*
X267620Y819923D01*
X264931Y826414D01*
X259964Y831381D01*
X259861Y831424D01*
X259640Y831564D01*
X259461Y831809D01*
X259391Y832104D01*
X259442Y832403D01*
X259605Y832658D01*
X259855Y832830D01*
X260152Y832890D01*
X1377068Y832890D01*
X1377168Y832883D01*
X1388972Y831329D01*
X1389164Y831278D01*
X1400165Y826721D01*
X1400337Y826622D01*
X1409783Y819374D01*
X1409924Y819233D01*
X1417172Y809787D01*
X1417271Y809615D01*
X1421828Y798614D01*
X1421879Y798422D01*
X1423433Y786618D01*
X1423440Y786518D01*
X1423440Y79069D01*
X1423433Y78970D01*
X1421649Y65414D01*
X1421597Y65221D01*
X1416365Y52589D01*
X1416265Y52417D01*
X1407942Y41569D01*
X1407801Y41428D01*
X1396953Y33105D01*
X1396781Y33005D01*
X1384149Y27773D01*
X1383956Y27721D01*
X1370400Y25937D01*
X1370301Y25930D01*
X1102983Y25930D01*
X1102720Y25977D01*
X1102462Y26136D01*
X1102287Y26384D01*
X1102222Y26680D01*
X1102277Y26978D01*
X1102445Y27231D01*
X1106120Y30906D01*
X1109760Y39694D01*
X1109760Y49206D01*
X1106120Y57994D01*
X1099394Y64720D01*
X1090606Y68360D01*
X1081094Y68360D01*
X1072306Y64720D01*
X1065580Y57994D01*
X1061940Y49206D01*
X1061940Y39694D01*
X1065580Y30906D01*
X1069255Y27231D01*
X1069408Y27011D01*
X1069478Y26716D01*
X1069427Y26417D01*
X1069264Y26162D01*
X1069014Y25990D01*
G37*
%LPC*%
G36*
X962964Y797100D02*
X987856Y797100D01*
X990528Y798207D01*
X992573Y800252D01*
X993680Y802924D01*
X993680Y805816D01*
X992573Y808488D01*
X990528Y810533D01*
X987856Y811640D01*
X962964Y811640D01*
X960292Y810533D01*
X958247Y808488D01*
X957140Y805816D01*
X957140Y802924D01*
X958247Y800252D01*
X960292Y798207D01*
X962964Y797100D01*
G37*
G36*
X1214536Y788570D02*
X1218324Y788570D01*
X1221823Y790019D01*
X1224501Y792697D01*
X1225950Y796196D01*
X1225950Y799984D01*
X1224501Y803483D01*
X1221823Y806161D01*
X1218324Y807610D01*
X1214536Y807610D01*
X1211037Y806161D01*
X1208359Y803483D01*
X1206910Y799984D01*
X1206910Y796196D01*
X1208359Y792697D01*
X1211037Y790019D01*
X1214536Y788570D01*
G37*
G36*
X1176436Y788570D02*
X1180224Y788570D01*
X1183723Y790019D01*
X1186401Y792697D01*
X1187850Y796196D01*
X1187850Y799984D01*
X1186401Y803483D01*
X1183723Y806161D01*
X1180224Y807610D01*
X1176436Y807610D01*
X1172937Y806161D01*
X1170259Y803483D01*
X1168810Y799984D01*
X1168810Y796196D01*
X1170259Y792697D01*
X1172937Y790019D01*
X1176436Y788570D01*
G37*
G36*
X1368364Y792300D02*
X1371376Y792300D01*
X1374158Y793452D01*
X1376288Y795582D01*
X1377440Y798364D01*
X1377440Y801376D01*
X1376288Y804158D01*
X1374158Y806288D01*
X1371376Y807440D01*
X1368364Y807440D01*
X1365582Y806288D01*
X1363452Y804158D01*
X1362300Y801376D01*
X1362300Y798364D01*
X1363452Y795582D01*
X1365582Y793452D01*
X1368364Y792300D01*
G37*
G36*
X1343364Y792300D02*
X1346376Y792300D01*
X1349158Y793452D01*
X1351288Y795582D01*
X1352440Y798364D01*
X1352440Y801376D01*
X1351288Y804158D01*
X1349158Y806288D01*
X1346376Y807440D01*
X1343364Y807440D01*
X1340582Y806288D01*
X1338452Y804158D01*
X1337300Y801376D01*
X1337300Y798364D01*
X1338452Y795582D01*
X1340582Y793452D01*
X1343364Y792300D01*
G37*
G36*
X1318364Y792300D02*
X1321376Y792300D01*
X1324158Y793452D01*
X1326288Y795582D01*
X1327440Y798364D01*
X1327440Y801376D01*
X1326288Y804158D01*
X1324158Y806288D01*
X1321376Y807440D01*
X1318364Y807440D01*
X1315582Y806288D01*
X1313452Y804158D01*
X1312300Y801376D01*
X1312300Y798364D01*
X1313452Y795582D01*
X1315582Y793452D01*
X1318364Y792300D01*
G37*
G36*
X1293364Y792300D02*
X1296376Y792300D01*
X1299158Y793452D01*
X1301288Y795582D01*
X1302440Y798364D01*
X1302440Y801376D01*
X1301288Y804158D01*
X1299158Y806288D01*
X1296376Y807440D01*
X1293364Y807440D01*
X1290582Y806288D01*
X1288452Y804158D01*
X1287300Y801376D01*
X1287300Y798364D01*
X1288452Y795582D01*
X1290582Y793452D01*
X1293364Y792300D01*
G37*
G36*
X56776Y737340D02*
X63664Y737340D01*
X70317Y739123D01*
X76283Y742567D01*
X81153Y747437D01*
X84597Y753403D01*
X86380Y760056D01*
X86380Y766241D01*
X86429Y766510D01*
X86590Y766767D01*
X86839Y766940D01*
X87136Y767003D01*
X87434Y766945D01*
X91574Y765230D01*
X98046Y765230D01*
X104026Y767707D01*
X108603Y772284D01*
X111080Y778264D01*
X111080Y784736D01*
X108603Y790716D01*
X104026Y795293D01*
X98046Y797770D01*
X91574Y797770D01*
X85594Y795293D01*
X81017Y790716D01*
X78540Y784736D01*
X78540Y784015D01*
X78493Y783752D01*
X78334Y783494D01*
X78086Y783319D01*
X77790Y783254D01*
X77492Y783309D01*
X77239Y783477D01*
X76283Y784433D01*
X70317Y787877D01*
X63664Y789660D01*
X56776Y789660D01*
X50123Y787877D01*
X44157Y784433D01*
X39287Y779563D01*
X35843Y773597D01*
X34060Y766944D01*
X34060Y760056D01*
X35843Y753403D01*
X39287Y747437D01*
X44157Y742567D01*
X50123Y739123D01*
X56776Y737340D01*
G37*
G36*
X927964Y753600D02*
X930856Y753600D01*
X933528Y754707D01*
X935573Y756752D01*
X936680Y759424D01*
X936680Y784316D01*
X935573Y786988D01*
X933528Y789033D01*
X930856Y790140D01*
X927964Y790140D01*
X925292Y789033D01*
X923247Y786988D01*
X922140Y784316D01*
X922140Y759424D01*
X923247Y756752D01*
X925292Y754707D01*
X927964Y753600D01*
G37*
G36*
X769964Y734830D02*
X776436Y734830D01*
X782416Y737307D01*
X786993Y741884D01*
X789470Y747864D01*
X789470Y754336D01*
X786993Y760316D01*
X782416Y764893D01*
X776436Y767370D01*
X769964Y767370D01*
X763984Y764893D01*
X759407Y760316D01*
X756930Y754336D01*
X756930Y747864D01*
X759407Y741884D01*
X763984Y737307D01*
X769964Y734830D01*
G37*
G36*
X339434Y734830D02*
X345906Y734830D01*
X351886Y737307D01*
X356463Y741884D01*
X358940Y747864D01*
X358940Y754336D01*
X356463Y760316D01*
X351886Y764893D01*
X345906Y767370D01*
X339434Y767370D01*
X333454Y764893D01*
X328877Y760316D01*
X326400Y754336D01*
X326400Y747864D01*
X328877Y741884D01*
X333454Y737307D01*
X339434Y734830D01*
G37*
G36*
X871564Y734830D02*
X878036Y734830D01*
X884016Y737307D01*
X888593Y741884D01*
X891070Y747864D01*
X891070Y754336D01*
X888593Y760316D01*
X884016Y764893D01*
X878036Y767370D01*
X871564Y767370D01*
X865584Y764893D01*
X861007Y760316D01*
X858530Y754336D01*
X858530Y747864D01*
X861007Y741884D01*
X865584Y737307D01*
X871564Y734830D01*
G37*
G36*
X659474Y734830D02*
X665946Y734830D01*
X671926Y737307D01*
X676503Y741884D01*
X678980Y747864D01*
X678980Y754336D01*
X676503Y760316D01*
X671926Y764893D01*
X665946Y767370D01*
X659474Y767370D01*
X653494Y764893D01*
X648917Y760316D01*
X646440Y754336D01*
X646440Y747864D01*
X648917Y741884D01*
X653494Y737307D01*
X659474Y734830D01*
G37*
G36*
X557874Y734830D02*
X564346Y734830D01*
X570326Y737307D01*
X574903Y741884D01*
X577380Y747864D01*
X577380Y754336D01*
X574903Y760316D01*
X570326Y764893D01*
X564346Y767370D01*
X557874Y767370D01*
X551894Y764893D01*
X547317Y760316D01*
X544840Y754336D01*
X544840Y747864D01*
X547317Y741884D01*
X551894Y737307D01*
X557874Y734830D01*
G37*
G36*
X441034Y734830D02*
X447506Y734830D01*
X453486Y737307D01*
X458063Y741884D01*
X460540Y747864D01*
X460540Y754336D01*
X458063Y760316D01*
X453486Y764893D01*
X447506Y767370D01*
X441034Y767370D01*
X435054Y764893D01*
X430477Y760316D01*
X428000Y754336D01*
X428000Y747864D01*
X430477Y741884D01*
X435054Y737307D01*
X441034Y734830D01*
G37*
G36*
X246447Y728750D02*
X253473Y728750D01*
X259964Y731439D01*
X264931Y736406D01*
X267620Y742897D01*
X267620Y749923D01*
X264931Y756414D01*
X259964Y761381D01*
X253473Y764070D01*
X246447Y764070D01*
X239956Y761381D01*
X234989Y756414D01*
X232300Y749923D01*
X232300Y742897D01*
X234989Y736406D01*
X239956Y731439D01*
X246447Y728750D01*
G37*
G36*
X1395002Y738400D02*
X1398538Y738400D01*
X1401806Y739753D01*
X1404307Y742254D01*
X1405660Y745522D01*
X1405660Y749058D01*
X1404307Y752326D01*
X1401806Y754827D01*
X1398538Y756180D01*
X1395002Y756180D01*
X1391734Y754827D01*
X1389233Y752326D01*
X1387880Y749058D01*
X1387880Y745522D01*
X1389233Y742254D01*
X1391734Y739753D01*
X1395002Y738400D01*
G37*
G36*
X1268002Y738400D02*
X1271538Y738400D01*
X1274806Y739753D01*
X1277307Y742254D01*
X1278660Y745522D01*
X1278660Y749058D01*
X1277307Y752326D01*
X1274806Y754827D01*
X1271538Y756180D01*
X1268002Y756180D01*
X1264734Y754827D01*
X1262233Y752326D01*
X1260880Y749058D01*
X1260880Y745522D01*
X1262233Y742254D01*
X1264734Y739753D01*
X1268002Y738400D01*
G37*
G36*
X962964Y736100D02*
X987856Y736100D01*
X990528Y737207D01*
X992573Y739252D01*
X993680Y741924D01*
X993680Y744816D01*
X992573Y747488D01*
X990528Y749533D01*
X987856Y750640D01*
X962964Y750640D01*
X960292Y749533D01*
X958247Y747488D01*
X957140Y744816D01*
X957140Y741924D01*
X958247Y739252D01*
X960292Y737207D01*
X962964Y736100D01*
G37*
G36*
X101783Y727432D02*
X105017Y727432D01*
X108004Y728669D01*
X110291Y730956D01*
X111528Y733943D01*
X111528Y737177D01*
X110291Y740164D01*
X108004Y742451D01*
X105017Y743688D01*
X101783Y743688D01*
X98796Y742451D01*
X96509Y740164D01*
X95272Y737177D01*
X95272Y733943D01*
X96509Y730956D01*
X98796Y728669D01*
X101783Y727432D01*
G37*
G36*
X493687Y730165D02*
X496913Y730165D01*
X499195Y732447D01*
X499195Y735673D01*
X496913Y737955D01*
X493687Y737955D01*
X491405Y735673D01*
X491405Y732447D01*
X493687Y730165D01*
G37*
G36*
X84003Y717272D02*
X87237Y717272D01*
X90224Y718509D01*
X92511Y720796D01*
X93748Y723783D01*
X93748Y727017D01*
X92511Y730004D01*
X90224Y732291D01*
X87237Y733528D01*
X84003Y733528D01*
X81016Y732291D01*
X78729Y730004D01*
X77492Y727017D01*
X77492Y723783D01*
X78729Y720796D01*
X81016Y718509D01*
X84003Y717272D01*
G37*
G36*
X1395002Y713000D02*
X1398538Y713000D01*
X1401806Y714353D01*
X1404307Y716854D01*
X1405660Y720122D01*
X1405660Y723658D01*
X1404307Y726926D01*
X1401806Y729427D01*
X1398538Y730780D01*
X1395002Y730780D01*
X1391734Y729427D01*
X1389233Y726926D01*
X1387880Y723658D01*
X1387880Y720122D01*
X1389233Y716854D01*
X1391734Y714353D01*
X1395002Y713000D01*
G37*
G36*
X1268002Y713000D02*
X1271538Y713000D01*
X1274806Y714353D01*
X1277307Y716854D01*
X1278660Y720122D01*
X1278660Y723658D01*
X1277307Y726926D01*
X1274806Y729427D01*
X1271538Y730780D01*
X1268002Y730780D01*
X1264734Y729427D01*
X1262233Y726926D01*
X1260880Y723658D01*
X1260880Y720122D01*
X1262233Y716854D01*
X1264734Y714353D01*
X1268002Y713000D01*
G37*
G36*
X101783Y707112D02*
X105017Y707112D01*
X108004Y708349D01*
X110291Y710636D01*
X111528Y713623D01*
X111528Y716857D01*
X110291Y719844D01*
X108004Y722131D01*
X105017Y723368D01*
X101783Y723368D01*
X98796Y722131D01*
X96509Y719844D01*
X95272Y716857D01*
X95272Y713623D01*
X96509Y710636D01*
X98796Y708349D01*
X101783Y707112D01*
G37*
G36*
X86382Y705842D02*
X95018Y705842D01*
X95018Y706949D01*
X93587Y710404D01*
X90944Y713047D01*
X87489Y714478D01*
X86382Y714478D01*
X86382Y705842D01*
G37*
G36*
X76222Y705842D02*
X84858Y705842D01*
X84858Y714478D01*
X83751Y714478D01*
X80296Y713047D01*
X77653Y710404D01*
X76222Y706949D01*
X76222Y705842D01*
G37*
G36*
X366490Y692355D02*
X369650Y692355D01*
X372571Y693565D01*
X374805Y695800D01*
X376015Y698720D01*
X376015Y701880D01*
X374805Y704801D01*
X372571Y707035D01*
X369650Y708245D01*
X366490Y708245D01*
X363570Y707035D01*
X361335Y704801D01*
X360125Y701880D01*
X360125Y698720D01*
X361335Y695800D01*
X363570Y693565D01*
X366490Y692355D01*
G37*
G36*
X610330Y692355D02*
X613490Y692355D01*
X616411Y693565D01*
X618645Y695800D01*
X619855Y698720D01*
X619855Y701880D01*
X618645Y704801D01*
X616411Y707035D01*
X613490Y708245D01*
X610330Y708245D01*
X607410Y707035D01*
X605175Y704801D01*
X603965Y701880D01*
X603965Y698720D01*
X605175Y695800D01*
X607410Y693565D01*
X610330Y692355D01*
G37*
G36*
X822420Y692355D02*
X825580Y692355D01*
X828501Y693565D01*
X830735Y695800D01*
X831945Y698720D01*
X831945Y701880D01*
X830735Y704801D01*
X828501Y707035D01*
X825580Y708245D01*
X822420Y708245D01*
X819500Y707035D01*
X817265Y704801D01*
X816055Y701880D01*
X816055Y698720D01*
X817265Y695800D01*
X819500Y693565D01*
X822420Y692355D01*
G37*
G36*
X797020Y692355D02*
X800180Y692355D01*
X803101Y693565D01*
X805335Y695800D01*
X806545Y698720D01*
X806545Y701880D01*
X805335Y704801D01*
X803101Y707035D01*
X800180Y708245D01*
X797020Y708245D01*
X794100Y707035D01*
X791865Y704801D01*
X790655Y701880D01*
X790655Y698720D01*
X791865Y695800D01*
X794100Y693565D01*
X797020Y692355D01*
G37*
G36*
X584930Y692355D02*
X588090Y692355D01*
X591011Y693565D01*
X593245Y695800D01*
X594455Y698720D01*
X594455Y701880D01*
X593245Y704801D01*
X591011Y707035D01*
X588090Y708245D01*
X584930Y708245D01*
X582010Y707035D01*
X579775Y704801D01*
X578565Y701880D01*
X578565Y698720D01*
X579775Y695800D01*
X582010Y693565D01*
X584930Y692355D01*
G37*
G36*
X391890Y692355D02*
X395050Y692355D01*
X397971Y693565D01*
X400205Y695800D01*
X401415Y698720D01*
X401415Y701880D01*
X400205Y704801D01*
X397971Y707035D01*
X395050Y708245D01*
X391890Y708245D01*
X388970Y707035D01*
X386735Y704801D01*
X385525Y701880D01*
X385525Y698720D01*
X386735Y695800D01*
X388970Y693565D01*
X391890Y692355D01*
G37*
G36*
X1034477Y698945D02*
X1037703Y698945D01*
X1039985Y701227D01*
X1039985Y704453D01*
X1037703Y706735D01*
X1034477Y706735D01*
X1032195Y704453D01*
X1032195Y701227D01*
X1034477Y698945D01*
G37*
G36*
X1268002Y687600D02*
X1271538Y687600D01*
X1274806Y688953D01*
X1277307Y691454D01*
X1278660Y694722D01*
X1278660Y698258D01*
X1277307Y701526D01*
X1274806Y704027D01*
X1271538Y705380D01*
X1268002Y705380D01*
X1264734Y704027D01*
X1262233Y701526D01*
X1260880Y698258D01*
X1260880Y694722D01*
X1262233Y691454D01*
X1264734Y688953D01*
X1268002Y687600D01*
G37*
G36*
X1395002Y687600D02*
X1398538Y687600D01*
X1401806Y688953D01*
X1404307Y691454D01*
X1405660Y694722D01*
X1405660Y698258D01*
X1404307Y701526D01*
X1401806Y704027D01*
X1398538Y705380D01*
X1395002Y705380D01*
X1391734Y704027D01*
X1389233Y701526D01*
X1387880Y698258D01*
X1387880Y694722D01*
X1389233Y691454D01*
X1391734Y688953D01*
X1395002Y687600D01*
G37*
G36*
X86382Y695682D02*
X87489Y695682D01*
X90944Y697113D01*
X93587Y699756D01*
X95018Y703211D01*
X95018Y704318D01*
X86382Y704318D01*
X86382Y695682D01*
G37*
G36*
X83751Y695682D02*
X84858Y695682D01*
X84858Y704318D01*
X76222Y704318D01*
X76222Y703211D01*
X77653Y699756D01*
X80296Y697113D01*
X83751Y695682D01*
G37*
G36*
X101783Y686792D02*
X105017Y686792D01*
X108004Y688029D01*
X110291Y690316D01*
X111528Y693303D01*
X111528Y696537D01*
X110291Y699524D01*
X108004Y701811D01*
X105017Y703048D01*
X101783Y703048D01*
X98796Y701811D01*
X96509Y699524D01*
X95272Y696537D01*
X95272Y693303D01*
X96509Y690316D01*
X98796Y688029D01*
X101783Y686792D01*
G37*
G36*
X84003Y676632D02*
X87237Y676632D01*
X90224Y677869D01*
X92511Y680156D01*
X93748Y683143D01*
X93748Y686377D01*
X92511Y689364D01*
X90224Y691651D01*
X87237Y692888D01*
X84003Y692888D01*
X81016Y691651D01*
X78729Y689364D01*
X77492Y686377D01*
X77492Y683143D01*
X78729Y680156D01*
X81016Y677869D01*
X84003Y676632D01*
G37*
G36*
X254927Y684445D02*
X258153Y684445D01*
X260435Y686727D01*
X260435Y689953D01*
X258153Y692235D01*
X254927Y692235D01*
X252645Y689953D01*
X252645Y686727D01*
X254927Y684445D01*
G37*
G36*
X317157Y659045D02*
X320383Y659045D01*
X322665Y661327D01*
X322665Y664553D01*
X321007Y666211D01*
X320849Y666442D01*
X320784Y666738D01*
X320840Y667036D01*
X321007Y667289D01*
X322665Y668947D01*
X322665Y672173D01*
X321007Y673831D01*
X320849Y674062D01*
X320784Y674358D01*
X320840Y674656D01*
X321007Y674909D01*
X322665Y676567D01*
X322665Y679793D01*
X321557Y680901D01*
X321399Y681132D01*
X321334Y681428D01*
X321390Y681726D01*
X321557Y681979D01*
X322698Y683120D01*
X322698Y686346D01*
X320416Y688628D01*
X317190Y688628D01*
X314908Y686346D01*
X314908Y683120D01*
X316016Y682012D01*
X316174Y681781D01*
X316239Y681485D01*
X316183Y681187D01*
X316016Y680934D01*
X314875Y679793D01*
X314875Y676567D01*
X316533Y674909D01*
X316691Y674678D01*
X316756Y674382D01*
X316700Y674084D01*
X316533Y673831D01*
X314875Y672173D01*
X314875Y668947D01*
X316533Y667289D01*
X316691Y667058D01*
X316756Y666762D01*
X316700Y666464D01*
X316533Y666211D01*
X314875Y664553D01*
X314875Y661327D01*
X317157Y659045D01*
G37*
G36*
X101783Y666472D02*
X105017Y666472D01*
X108004Y667709D01*
X110291Y669996D01*
X111528Y672983D01*
X111528Y676217D01*
X110291Y679204D01*
X108004Y681491D01*
X105017Y682728D01*
X101783Y682728D01*
X98796Y681491D01*
X96509Y679204D01*
X95272Y676217D01*
X95272Y672983D01*
X96509Y669996D01*
X98796Y667709D01*
X101783Y666472D01*
G37*
G36*
X237147Y673015D02*
X240373Y673015D01*
X242655Y675297D01*
X242655Y678523D01*
X240373Y680805D01*
X237147Y680805D01*
X234865Y678523D01*
X234865Y675297D01*
X237147Y673015D01*
G37*
G36*
X1268002Y662200D02*
X1271538Y662200D01*
X1274806Y663553D01*
X1277307Y666054D01*
X1278660Y669322D01*
X1278660Y672858D01*
X1277307Y676126D01*
X1274806Y678627D01*
X1271538Y679980D01*
X1268002Y679980D01*
X1264734Y678627D01*
X1262233Y676126D01*
X1260880Y672858D01*
X1260880Y669322D01*
X1262233Y666054D01*
X1264734Y663553D01*
X1268002Y662200D01*
G37*
G36*
X1395002Y662200D02*
X1398538Y662200D01*
X1401806Y663553D01*
X1404307Y666054D01*
X1405660Y669322D01*
X1405660Y672858D01*
X1404307Y676126D01*
X1401806Y678627D01*
X1398538Y679980D01*
X1395002Y679980D01*
X1391734Y678627D01*
X1389233Y676126D01*
X1387880Y672858D01*
X1387880Y669322D01*
X1389233Y666054D01*
X1391734Y663553D01*
X1395002Y662200D01*
G37*
G36*
X84003Y656312D02*
X87237Y656312D01*
X90224Y657549D01*
X92511Y659836D01*
X93748Y662823D01*
X93748Y666057D01*
X92511Y669044D01*
X90224Y671331D01*
X87237Y672568D01*
X84003Y672568D01*
X81016Y671331D01*
X78729Y669044D01*
X77492Y666057D01*
X77492Y662823D01*
X78729Y659836D01*
X81016Y657549D01*
X84003Y656312D01*
G37*
G36*
X91574Y602230D02*
X98046Y602230D01*
X104026Y604707D01*
X108603Y609284D01*
X111080Y615264D01*
X111080Y621736D01*
X108603Y627716D01*
X104026Y632293D01*
X98046Y634770D01*
X91574Y634770D01*
X87434Y633055D01*
X87166Y632998D01*
X86867Y633048D01*
X86612Y633212D01*
X86440Y633462D01*
X86380Y633759D01*
X86380Y639944D01*
X84597Y646597D01*
X81153Y652563D01*
X76283Y657433D01*
X70317Y660877D01*
X63664Y662660D01*
X56776Y662660D01*
X50123Y660877D01*
X44157Y657433D01*
X39287Y652563D01*
X35843Y646597D01*
X34060Y639944D01*
X34060Y633056D01*
X35843Y626403D01*
X39287Y620437D01*
X44157Y615567D01*
X50123Y612123D01*
X56776Y610340D01*
X63664Y610340D01*
X70317Y612123D01*
X76283Y615567D01*
X77239Y616523D01*
X77459Y616676D01*
X77754Y616746D01*
X78053Y616695D01*
X78308Y616532D01*
X78480Y616282D01*
X78540Y615985D01*
X78540Y615264D01*
X81017Y609284D01*
X85594Y604707D01*
X91574Y602230D01*
G37*
G36*
X437840Y634882D02*
X441066Y634882D01*
X443348Y637164D01*
X443348Y640390D01*
X442240Y641498D01*
X442082Y641729D01*
X442017Y642025D01*
X442073Y642323D01*
X442240Y642576D01*
X443348Y643684D01*
X443348Y646910D01*
X442240Y648018D01*
X442082Y648249D01*
X442017Y648545D01*
X442073Y648843D01*
X442240Y649096D01*
X443348Y650204D01*
X443348Y653430D01*
X442207Y654571D01*
X442049Y654802D01*
X441984Y655098D01*
X442040Y655396D01*
X442207Y655649D01*
X443315Y656757D01*
X443315Y659983D01*
X441033Y662265D01*
X437807Y662265D01*
X435525Y659983D01*
X435525Y656757D01*
X436666Y655616D01*
X436824Y655385D01*
X436889Y655089D01*
X436833Y654791D01*
X436666Y654538D01*
X435558Y653430D01*
X435558Y650204D01*
X436666Y649096D01*
X436824Y648865D01*
X436889Y648569D01*
X436833Y648271D01*
X436666Y648018D01*
X435558Y646910D01*
X435558Y643684D01*
X436666Y642576D01*
X436824Y642345D01*
X436889Y642049D01*
X436833Y641751D01*
X436666Y641498D01*
X435558Y640390D01*
X435558Y637164D01*
X437840Y634882D01*
G37*
G36*
X605447Y651425D02*
X608673Y651425D01*
X610955Y653707D01*
X610955Y656933D01*
X608673Y659215D01*
X605447Y659215D01*
X603165Y656933D01*
X603165Y653707D01*
X605447Y651425D01*
G37*
G36*
X1268002Y636800D02*
X1271538Y636800D01*
X1274806Y638153D01*
X1277307Y640654D01*
X1278660Y643922D01*
X1278660Y647458D01*
X1277307Y650726D01*
X1274806Y653227D01*
X1271538Y654580D01*
X1268002Y654580D01*
X1264734Y653227D01*
X1262233Y650726D01*
X1260880Y647458D01*
X1260880Y643922D01*
X1262233Y640654D01*
X1264734Y638153D01*
X1268002Y636800D01*
G37*
G36*
X1395002Y636800D02*
X1398538Y636800D01*
X1401806Y638153D01*
X1404307Y640654D01*
X1405660Y643922D01*
X1405660Y647458D01*
X1404307Y650726D01*
X1401806Y653227D01*
X1398538Y654580D01*
X1395002Y654580D01*
X1391734Y653227D01*
X1389233Y650726D01*
X1387880Y647458D01*
X1387880Y643922D01*
X1389233Y640654D01*
X1391734Y638153D01*
X1395002Y636800D01*
G37*
G36*
X113957Y642112D02*
X117183Y642112D01*
X119465Y644394D01*
X119465Y647620D01*
X117183Y649902D01*
X113957Y649902D01*
X111675Y647620D01*
X111675Y644394D01*
X113957Y642112D01*
G37*
G36*
X590094Y600860D02*
X599606Y600860D01*
X608394Y604500D01*
X615120Y611226D01*
X618760Y620014D01*
X618760Y629526D01*
X615120Y638314D01*
X608394Y645040D01*
X599606Y648680D01*
X590094Y648680D01*
X581306Y645040D01*
X574580Y638314D01*
X570940Y629526D01*
X570940Y620014D01*
X574580Y611226D01*
X581306Y604500D01*
X590094Y600860D01*
G37*
G36*
X1081094Y600540D02*
X1090606Y600540D01*
X1099394Y604180D01*
X1106120Y610906D01*
X1109760Y619694D01*
X1109760Y629206D01*
X1106120Y637994D01*
X1099394Y644720D01*
X1090606Y648360D01*
X1081094Y648360D01*
X1072306Y644720D01*
X1065580Y637994D01*
X1061940Y629206D01*
X1061940Y619694D01*
X1065580Y610906D01*
X1072306Y604180D01*
X1081094Y600540D01*
G37*
G36*
X1395002Y611400D02*
X1398538Y611400D01*
X1401806Y612753D01*
X1404307Y615254D01*
X1405660Y618522D01*
X1405660Y622058D01*
X1404307Y625326D01*
X1401806Y627827D01*
X1398538Y629180D01*
X1395002Y629180D01*
X1391734Y627827D01*
X1389233Y625326D01*
X1387880Y622058D01*
X1387880Y618522D01*
X1389233Y615254D01*
X1391734Y612753D01*
X1395002Y611400D01*
G37*
G36*
X1268002Y611400D02*
X1271538Y611400D01*
X1274806Y612753D01*
X1277307Y615254D01*
X1278660Y618522D01*
X1278660Y622058D01*
X1277307Y625326D01*
X1274806Y627827D01*
X1271538Y629180D01*
X1268002Y629180D01*
X1264734Y627827D01*
X1262233Y625326D01*
X1260880Y622058D01*
X1260880Y618522D01*
X1262233Y615254D01*
X1264734Y612753D01*
X1268002Y611400D01*
G37*
G36*
X651242Y594030D02*
X654778Y594030D01*
X658046Y595383D01*
X660547Y597884D01*
X661900Y601152D01*
X661900Y604688D01*
X660547Y607956D01*
X658046Y610457D01*
X654778Y611810D01*
X651242Y611810D01*
X647974Y610457D01*
X645473Y607956D01*
X644120Y604688D01*
X644120Y601152D01*
X645473Y597884D01*
X647974Y595383D01*
X651242Y594030D01*
G37*
G36*
X420027Y599355D02*
X423253Y599355D01*
X425535Y601637D01*
X425535Y604863D01*
X423253Y607145D01*
X420027Y607145D01*
X417745Y604863D01*
X417745Y601637D01*
X420027Y599355D01*
G37*
G36*
X473367Y599355D02*
X476593Y599355D01*
X478875Y601637D01*
X478875Y604863D01*
X476593Y607145D01*
X473367Y607145D01*
X471085Y604863D01*
X471085Y601637D01*
X473367Y599355D01*
G37*
G36*
X446697Y599355D02*
X449923Y599355D01*
X452205Y601637D01*
X452205Y604863D01*
X449923Y607145D01*
X446697Y607145D01*
X444415Y604863D01*
X444415Y601637D01*
X446697Y599355D01*
G37*
G36*
X1268002Y586000D02*
X1271538Y586000D01*
X1274806Y587353D01*
X1277307Y589854D01*
X1278660Y593122D01*
X1278660Y596658D01*
X1277307Y599926D01*
X1274806Y602427D01*
X1271538Y603780D01*
X1268002Y603780D01*
X1264734Y602427D01*
X1262233Y599926D01*
X1260880Y596658D01*
X1260880Y593122D01*
X1262233Y589854D01*
X1264734Y587353D01*
X1268002Y586000D01*
G37*
G36*
X1395002Y586000D02*
X1398538Y586000D01*
X1401806Y587353D01*
X1404307Y589854D01*
X1405660Y593122D01*
X1405660Y596658D01*
X1404307Y599926D01*
X1401806Y602427D01*
X1398538Y603780D01*
X1395002Y603780D01*
X1391734Y602427D01*
X1389233Y599926D01*
X1387880Y596658D01*
X1387880Y593122D01*
X1389233Y589854D01*
X1391734Y587353D01*
X1395002Y586000D01*
G37*
G36*
X237147Y595545D02*
X240373Y595545D01*
X242655Y597827D01*
X242655Y601053D01*
X240373Y603335D01*
X237147Y603335D01*
X234865Y601053D01*
X234865Y597827D01*
X237147Y595545D01*
G37*
G36*
X781536Y582130D02*
X785024Y582130D01*
X788248Y583465D01*
X790715Y585932D01*
X792050Y589156D01*
X792050Y592644D01*
X790715Y595868D01*
X788248Y598335D01*
X785024Y599670D01*
X781536Y599670D01*
X778312Y598335D01*
X775845Y595868D01*
X774510Y592644D01*
X774510Y589156D01*
X775845Y585932D01*
X778312Y583465D01*
X781536Y582130D01*
G37*
G36*
X1001246Y582130D02*
X1004734Y582130D01*
X1007958Y583465D01*
X1010425Y585932D01*
X1011760Y589156D01*
X1011760Y592644D01*
X1010425Y595868D01*
X1007958Y598335D01*
X1004734Y599670D01*
X1001246Y599670D01*
X998022Y598335D01*
X995555Y595868D01*
X994220Y592644D01*
X994220Y589156D01*
X995555Y585932D01*
X998022Y583465D01*
X1001246Y582130D01*
G37*
G36*
X966246Y582130D02*
X969734Y582130D01*
X972958Y583465D01*
X975425Y585932D01*
X976760Y589156D01*
X976760Y592644D01*
X975425Y595868D01*
X972958Y598335D01*
X969734Y599670D01*
X966246Y599670D01*
X963022Y598335D01*
X960555Y595868D01*
X959220Y592644D01*
X959220Y589156D01*
X960555Y585932D01*
X963022Y583465D01*
X966246Y582130D01*
G37*
G36*
X890756Y582130D02*
X894244Y582130D01*
X897468Y583465D01*
X899935Y585932D01*
X901270Y589156D01*
X901270Y592644D01*
X899935Y595868D01*
X897468Y598335D01*
X894244Y599670D01*
X890756Y599670D01*
X887532Y598335D01*
X885065Y595868D01*
X883730Y592644D01*
X883730Y589156D01*
X885065Y585932D01*
X887532Y583465D01*
X890756Y582130D01*
G37*
G36*
X855756Y582130D02*
X859244Y582130D01*
X862468Y583465D01*
X864935Y585932D01*
X866270Y589156D01*
X866270Y592644D01*
X864935Y595868D01*
X862468Y598335D01*
X859244Y599670D01*
X855756Y599670D01*
X852532Y598335D01*
X850065Y595868D01*
X848730Y592644D01*
X848730Y589156D01*
X850065Y585932D01*
X852532Y583465D01*
X855756Y582130D01*
G37*
G36*
X746536Y582130D02*
X750024Y582130D01*
X753248Y583465D01*
X755715Y585932D01*
X757050Y589156D01*
X757050Y592644D01*
X755715Y595868D01*
X753248Y598335D01*
X750024Y599670D01*
X746536Y599670D01*
X743312Y598335D01*
X740845Y595868D01*
X739510Y592644D01*
X739510Y589156D01*
X740845Y585932D01*
X743312Y583465D01*
X746536Y582130D01*
G37*
G36*
X56776Y536680D02*
X63664Y536680D01*
X70317Y538463D01*
X76283Y541907D01*
X81153Y546777D01*
X84597Y552743D01*
X86380Y559396D01*
X86380Y565581D01*
X86429Y565850D01*
X86590Y566107D01*
X86839Y566280D01*
X87136Y566343D01*
X87434Y566285D01*
X91574Y564570D01*
X98046Y564570D01*
X104026Y567047D01*
X108603Y571624D01*
X111080Y577604D01*
X111080Y584076D01*
X108603Y590056D01*
X104026Y594633D01*
X98046Y597110D01*
X91574Y597110D01*
X85594Y594633D01*
X81017Y590056D01*
X78540Y584076D01*
X78540Y583355D01*
X78493Y583092D01*
X78334Y582834D01*
X78086Y582659D01*
X77790Y582594D01*
X77492Y582649D01*
X77239Y582817D01*
X76283Y583773D01*
X70317Y587217D01*
X63664Y589000D01*
X56776Y589000D01*
X50123Y587217D01*
X44157Y583773D01*
X39287Y578903D01*
X35843Y572937D01*
X34060Y566284D01*
X34060Y559396D01*
X35843Y552743D01*
X39287Y546777D01*
X44157Y541907D01*
X50123Y538463D01*
X56776Y536680D01*
G37*
G36*
X263443Y588420D02*
X266670Y588420D01*
X268952Y590702D01*
X268952Y593928D01*
X266670Y596210D01*
X263443Y596210D01*
X261162Y593928D01*
X261162Y590702D01*
X263443Y588420D01*
G37*
G36*
X584619Y587736D02*
X587845Y587736D01*
X590127Y590018D01*
X590127Y593244D01*
X587845Y595526D01*
X584619Y595526D01*
X582337Y593244D01*
X582337Y590018D01*
X584619Y587736D01*
G37*
G36*
X252387Y585385D02*
X255613Y585385D01*
X257895Y587667D01*
X257895Y590893D01*
X255613Y593175D01*
X252387Y593175D01*
X250105Y590893D01*
X250105Y587667D01*
X252387Y585385D01*
G37*
G36*
X1100312Y578992D02*
X1110340Y578992D01*
X1110340Y580376D01*
X1108697Y584342D01*
X1105662Y587377D01*
X1101696Y589020D01*
X1100312Y589020D01*
X1100312Y578992D01*
G37*
G36*
X1088760Y578992D02*
X1098788Y578992D01*
X1098788Y589020D01*
X1097404Y589020D01*
X1093438Y587377D01*
X1090403Y584342D01*
X1088760Y580376D01*
X1088760Y578992D01*
G37*
G36*
X1072256Y568710D02*
X1076044Y568710D01*
X1079543Y570159D01*
X1082221Y572837D01*
X1083670Y576336D01*
X1083670Y580124D01*
X1082221Y583623D01*
X1079543Y586301D01*
X1076044Y587750D01*
X1072256Y587750D01*
X1068757Y586301D01*
X1066079Y583623D01*
X1064630Y580124D01*
X1064630Y576336D01*
X1066079Y572837D01*
X1068757Y570159D01*
X1072256Y568710D01*
G37*
G36*
X651242Y568630D02*
X654778Y568630D01*
X658046Y569983D01*
X660547Y572484D01*
X661900Y575752D01*
X661900Y579288D01*
X660547Y582556D01*
X658046Y585057D01*
X654778Y586410D01*
X651242Y586410D01*
X647974Y585057D01*
X645473Y582556D01*
X644120Y579288D01*
X644120Y575752D01*
X645473Y572484D01*
X647974Y569983D01*
X651242Y568630D01*
G37*
G36*
X1268002Y560600D02*
X1271538Y560600D01*
X1274806Y561953D01*
X1277307Y564454D01*
X1278660Y567722D01*
X1278660Y571258D01*
X1277307Y574526D01*
X1274806Y577027D01*
X1271538Y578380D01*
X1268002Y578380D01*
X1264734Y577027D01*
X1262233Y574526D01*
X1260880Y571258D01*
X1260880Y567722D01*
X1262233Y564454D01*
X1264734Y561953D01*
X1268002Y560600D01*
G37*
G36*
X1395002Y560600D02*
X1398538Y560600D01*
X1401806Y561953D01*
X1404307Y564454D01*
X1405660Y567722D01*
X1405660Y571258D01*
X1404307Y574526D01*
X1401806Y577027D01*
X1398538Y578380D01*
X1395002Y578380D01*
X1391734Y577027D01*
X1389233Y574526D01*
X1387880Y571258D01*
X1387880Y567722D01*
X1389233Y564454D01*
X1391734Y561953D01*
X1395002Y560600D01*
G37*
G36*
X1100312Y567440D02*
X1101696Y567440D01*
X1105662Y569083D01*
X1108697Y572118D01*
X1110340Y576084D01*
X1110340Y577468D01*
X1100312Y577468D01*
X1100312Y567440D01*
G37*
G36*
X1097404Y567440D02*
X1098788Y567440D01*
X1098788Y577468D01*
X1088760Y577468D01*
X1088760Y576084D01*
X1090403Y572118D01*
X1093438Y569083D01*
X1097404Y567440D01*
G37*
G36*
X247307Y562525D02*
X250533Y562525D01*
X252815Y564807D01*
X252815Y568033D01*
X250533Y570315D01*
X247307Y570315D01*
X245025Y568033D01*
X245025Y564807D01*
X247307Y562525D01*
G37*
G36*
X195237Y556175D02*
X198463Y556175D01*
X200745Y558457D01*
X200745Y561683D01*
X198463Y563965D01*
X195237Y563965D01*
X192955Y561683D01*
X192955Y558457D01*
X195237Y556175D01*
G37*
G36*
X1088760Y553592D02*
X1098788Y553592D01*
X1098788Y563620D01*
X1097404Y563620D01*
X1093438Y561977D01*
X1090403Y558942D01*
X1088760Y554976D01*
X1088760Y553592D01*
G37*
G36*
X1100312Y553592D02*
X1110340Y553592D01*
X1110340Y554976D01*
X1108697Y558942D01*
X1105662Y561977D01*
X1101696Y563620D01*
X1100312Y563620D01*
X1100312Y553592D01*
G37*
G36*
X1072256Y543310D02*
X1076044Y543310D01*
X1079543Y544759D01*
X1082221Y547437D01*
X1083670Y550936D01*
X1083670Y554724D01*
X1082221Y558223D01*
X1079543Y560901D01*
X1076044Y562350D01*
X1072256Y562350D01*
X1068757Y560901D01*
X1066079Y558223D01*
X1064630Y554724D01*
X1064630Y550936D01*
X1066079Y547437D01*
X1068757Y544759D01*
X1072256Y543310D01*
G37*
G36*
X651242Y543230D02*
X654778Y543230D01*
X658046Y544583D01*
X660547Y547084D01*
X661900Y550352D01*
X661900Y553888D01*
X660547Y557156D01*
X658046Y559657D01*
X654778Y561010D01*
X651242Y561010D01*
X647974Y559657D01*
X645473Y557156D01*
X644120Y553888D01*
X644120Y550352D01*
X645473Y547084D01*
X647974Y544583D01*
X651242Y543230D01*
G37*
G36*
X771817Y551095D02*
X775043Y551095D01*
X777325Y553377D01*
X777325Y556603D01*
X775043Y558885D01*
X771817Y558885D01*
X769535Y556603D01*
X769535Y553377D01*
X771817Y551095D01*
G37*
G36*
X1213547Y549085D02*
X1216773Y549085D01*
X1219055Y551367D01*
X1219055Y554593D01*
X1216773Y556875D01*
X1213547Y556875D01*
X1211265Y554593D01*
X1211265Y551367D01*
X1213547Y549085D01*
G37*
G36*
X119037Y544745D02*
X122263Y544745D01*
X124545Y547027D01*
X124545Y550253D01*
X122263Y552535D01*
X119037Y552535D01*
X116755Y550253D01*
X116755Y547027D01*
X119037Y544745D01*
G37*
G36*
X1100312Y542040D02*
X1101696Y542040D01*
X1105662Y543683D01*
X1108697Y546718D01*
X1110340Y550684D01*
X1110340Y552068D01*
X1100312Y552068D01*
X1100312Y542040D01*
G37*
G36*
X1097404Y542040D02*
X1098788Y542040D01*
X1098788Y552068D01*
X1088760Y552068D01*
X1088760Y550684D01*
X1090403Y546718D01*
X1093438Y543683D01*
X1097404Y542040D01*
G37*
G36*
X139357Y537125D02*
X142583Y537125D01*
X144865Y539407D01*
X144865Y542633D01*
X142583Y544915D01*
X139357Y544915D01*
X137075Y542633D01*
X137075Y539407D01*
X139357Y537125D01*
G37*
G36*
X101783Y526772D02*
X105017Y526772D01*
X108004Y528009D01*
X110291Y530296D01*
X111528Y533283D01*
X111528Y536517D01*
X110291Y539504D01*
X108004Y541791D01*
X105017Y543028D01*
X101783Y543028D01*
X98796Y541791D01*
X96509Y539504D01*
X95272Y536517D01*
X95272Y533283D01*
X96509Y530296D01*
X98796Y528009D01*
X101783Y526772D01*
G37*
G36*
X771817Y529505D02*
X775043Y529505D01*
X777325Y531787D01*
X777325Y535013D01*
X775043Y537295D01*
X771817Y537295D01*
X769535Y535013D01*
X769535Y531787D01*
X771817Y529505D01*
G37*
G36*
X1097656Y517910D02*
X1101444Y517910D01*
X1104943Y519359D01*
X1107621Y522037D01*
X1109070Y525536D01*
X1109070Y529324D01*
X1107621Y532823D01*
X1104943Y535501D01*
X1101444Y536950D01*
X1097656Y536950D01*
X1094157Y535501D01*
X1091479Y532823D01*
X1090030Y529324D01*
X1090030Y525536D01*
X1091479Y522037D01*
X1094157Y519359D01*
X1097656Y517910D01*
G37*
G36*
X1072256Y517910D02*
X1076044Y517910D01*
X1079543Y519359D01*
X1082221Y522037D01*
X1083670Y525536D01*
X1083670Y529324D01*
X1082221Y532823D01*
X1079543Y535501D01*
X1076044Y536950D01*
X1072256Y536950D01*
X1068757Y535501D01*
X1066079Y532823D01*
X1064630Y529324D01*
X1064630Y525536D01*
X1066079Y522037D01*
X1068757Y519359D01*
X1072256Y517910D01*
G37*
G36*
X257578Y518075D02*
X260804Y518075D01*
X263086Y520357D01*
X263086Y523583D01*
X261376Y525294D01*
X261218Y525524D01*
X261152Y525820D01*
X261208Y526119D01*
X261376Y526371D01*
X263086Y528082D01*
X263086Y531309D01*
X260804Y533590D01*
X257578Y533590D01*
X255296Y531309D01*
X255296Y528082D01*
X257006Y526371D01*
X257164Y526141D01*
X257230Y525845D01*
X257174Y525547D01*
X257006Y525294D01*
X255296Y523583D01*
X255296Y520357D01*
X257578Y518075D01*
G37*
G36*
X84003Y516612D02*
X87237Y516612D01*
X90224Y517849D01*
X92511Y520136D01*
X93748Y523123D01*
X93748Y526357D01*
X92511Y529344D01*
X90224Y531631D01*
X87237Y532868D01*
X84003Y532868D01*
X81016Y531631D01*
X78729Y529344D01*
X77492Y526357D01*
X77492Y523123D01*
X78729Y520136D01*
X81016Y517849D01*
X84003Y516612D01*
G37*
G36*
X233337Y521885D02*
X236563Y521885D01*
X238845Y524167D01*
X238845Y527393D01*
X236563Y529675D01*
X233337Y529675D01*
X231055Y527393D01*
X231055Y524167D01*
X233337Y521885D01*
G37*
G36*
X223177Y521885D02*
X226403Y521885D01*
X228685Y524167D01*
X228685Y527393D01*
X226403Y529675D01*
X223177Y529675D01*
X220895Y527393D01*
X220895Y524167D01*
X223177Y521885D01*
G37*
G36*
X101783Y506452D02*
X105017Y506452D01*
X108004Y507689D01*
X110291Y509976D01*
X111528Y512963D01*
X111528Y516197D01*
X110291Y519184D01*
X108004Y521471D01*
X105017Y522708D01*
X101783Y522708D01*
X98796Y521471D01*
X96509Y519184D01*
X95272Y516197D01*
X95272Y512963D01*
X96509Y509976D01*
X98796Y507689D01*
X101783Y506452D01*
G37*
G36*
X76222Y505182D02*
X84858Y505182D01*
X84858Y513818D01*
X83751Y513818D01*
X80296Y512387D01*
X77653Y509744D01*
X76222Y506289D01*
X76222Y505182D01*
G37*
G36*
X86382Y505182D02*
X95018Y505182D01*
X95018Y506289D01*
X93587Y509744D01*
X90944Y512387D01*
X87489Y513818D01*
X86382Y513818D01*
X86382Y505182D01*
G37*
G36*
X1097656Y492510D02*
X1101444Y492510D01*
X1104943Y493959D01*
X1107621Y496637D01*
X1109070Y500136D01*
X1109070Y503924D01*
X1107621Y507423D01*
X1104943Y510101D01*
X1101444Y511550D01*
X1097656Y511550D01*
X1094157Y510101D01*
X1091479Y507423D01*
X1090030Y503924D01*
X1090030Y500136D01*
X1091479Y496637D01*
X1094157Y493959D01*
X1097656Y492510D01*
G37*
G36*
X1072256Y492510D02*
X1076044Y492510D01*
X1079543Y493959D01*
X1082221Y496637D01*
X1083670Y500136D01*
X1083670Y503924D01*
X1082221Y507423D01*
X1079543Y510101D01*
X1076044Y511550D01*
X1072256Y511550D01*
X1068757Y510101D01*
X1066079Y507423D01*
X1064630Y503924D01*
X1064630Y500136D01*
X1066079Y496637D01*
X1068757Y493959D01*
X1072256Y492510D01*
G37*
G36*
X86382Y495022D02*
X87489Y495022D01*
X90944Y496453D01*
X93587Y499096D01*
X95018Y502551D01*
X95018Y503658D01*
X86382Y503658D01*
X86382Y495022D01*
G37*
G36*
X83751Y495022D02*
X84858Y495022D01*
X84858Y503658D01*
X76222Y503658D01*
X76222Y502551D01*
X77653Y499096D01*
X80296Y496453D01*
X83751Y495022D01*
G37*
G36*
X101783Y486132D02*
X105017Y486132D01*
X108004Y487369D01*
X110291Y489656D01*
X111528Y492643D01*
X111528Y495877D01*
X110291Y498864D01*
X108004Y501151D01*
X105017Y502388D01*
X101783Y502388D01*
X98796Y501151D01*
X96509Y498864D01*
X95272Y495877D01*
X95272Y492643D01*
X96509Y489656D01*
X98796Y487369D01*
X101783Y486132D01*
G37*
G36*
X503847Y491405D02*
X507073Y491405D01*
X509355Y493687D01*
X509355Y496913D01*
X507073Y499195D01*
X503847Y499195D01*
X501565Y496913D01*
X501565Y493687D01*
X503847Y491405D01*
G37*
G36*
X84003Y475972D02*
X87237Y475972D01*
X90224Y477209D01*
X92511Y479496D01*
X93748Y482483D01*
X93748Y485717D01*
X92511Y488704D01*
X90224Y490991D01*
X87237Y492228D01*
X84003Y492228D01*
X81016Y490991D01*
X78729Y488704D01*
X77492Y485717D01*
X77492Y482483D01*
X78729Y479496D01*
X81016Y477209D01*
X84003Y475972D01*
G37*
G36*
X1097656Y467110D02*
X1101444Y467110D01*
X1104943Y468559D01*
X1107621Y471237D01*
X1109070Y474736D01*
X1109070Y478524D01*
X1107621Y482023D01*
X1104943Y484701D01*
X1101444Y486150D01*
X1097656Y486150D01*
X1094157Y484701D01*
X1091479Y482023D01*
X1090030Y478524D01*
X1090030Y474736D01*
X1091479Y471237D01*
X1094157Y468559D01*
X1097656Y467110D01*
G37*
G36*
X1072256Y467110D02*
X1076044Y467110D01*
X1079543Y468559D01*
X1082221Y471237D01*
X1083670Y474736D01*
X1083670Y478524D01*
X1082221Y482023D01*
X1079543Y484701D01*
X1076044Y486150D01*
X1072256Y486150D01*
X1068757Y484701D01*
X1066079Y482023D01*
X1064630Y478524D01*
X1064630Y474736D01*
X1066079Y471237D01*
X1068757Y468559D01*
X1072256Y467110D01*
G37*
G36*
X101783Y465812D02*
X105017Y465812D01*
X108004Y467049D01*
X110291Y469336D01*
X111528Y472323D01*
X111528Y475557D01*
X110291Y478544D01*
X108004Y480831D01*
X105017Y482068D01*
X101783Y482068D01*
X98796Y480831D01*
X96509Y478544D01*
X95272Y475557D01*
X95272Y472323D01*
X96509Y469336D01*
X98796Y467049D01*
X101783Y465812D01*
G37*
G36*
X532032Y464981D02*
X535259Y464981D01*
X537541Y467262D01*
X537541Y470489D01*
X535259Y472771D01*
X532032Y472771D01*
X529751Y470489D01*
X529751Y467262D01*
X532032Y464981D01*
G37*
G36*
X84003Y455652D02*
X87237Y455652D01*
X90224Y456889D01*
X92511Y459176D01*
X93748Y462163D01*
X93748Y465397D01*
X92511Y468384D01*
X90224Y470671D01*
X87237Y471908D01*
X84003Y471908D01*
X81016Y470671D01*
X78729Y468384D01*
X77492Y465397D01*
X77492Y462163D01*
X78729Y459176D01*
X81016Y456889D01*
X84003Y455652D01*
G37*
G36*
X890756Y452590D02*
X894244Y452590D01*
X897468Y453925D01*
X899935Y456392D01*
X901270Y459616D01*
X901270Y463104D01*
X899935Y466328D01*
X897468Y468795D01*
X894244Y470130D01*
X890756Y470130D01*
X887532Y468795D01*
X885065Y466328D01*
X883730Y463104D01*
X883730Y459616D01*
X885065Y456392D01*
X887532Y453925D01*
X890756Y452590D01*
G37*
G36*
X855756Y452590D02*
X859244Y452590D01*
X862468Y453925D01*
X864935Y456392D01*
X866270Y459616D01*
X866270Y463104D01*
X864935Y466328D01*
X862468Y468795D01*
X859244Y470130D01*
X855756Y470130D01*
X852532Y468795D01*
X850065Y466328D01*
X848730Y463104D01*
X848730Y459616D01*
X850065Y456392D01*
X852532Y453925D01*
X855756Y452590D01*
G37*
G36*
X781536Y452590D02*
X785024Y452590D01*
X788248Y453925D01*
X790715Y456392D01*
X792050Y459616D01*
X792050Y463104D01*
X790715Y466328D01*
X788248Y468795D01*
X785024Y470130D01*
X781536Y470130D01*
X778312Y468795D01*
X775845Y466328D01*
X774510Y463104D01*
X774510Y459616D01*
X775845Y456392D01*
X778312Y453925D01*
X781536Y452590D01*
G37*
G36*
X746536Y452590D02*
X750024Y452590D01*
X753248Y453925D01*
X755715Y456392D01*
X757050Y459616D01*
X757050Y463104D01*
X755715Y466328D01*
X753248Y468795D01*
X750024Y470130D01*
X746536Y470130D01*
X743312Y468795D01*
X740845Y466328D01*
X739510Y463104D01*
X739510Y459616D01*
X740845Y456392D01*
X743312Y453925D01*
X746536Y452590D01*
G37*
G36*
X1251877Y461255D02*
X1255103Y461255D01*
X1257385Y463537D01*
X1257385Y466763D01*
X1255103Y469045D01*
X1251877Y469045D01*
X1249595Y466763D01*
X1249595Y463537D01*
X1251877Y461255D01*
G37*
G36*
X966246Y451320D02*
X969734Y451320D01*
X972958Y452655D01*
X975425Y455122D01*
X976760Y458346D01*
X976760Y461834D01*
X975425Y465058D01*
X972958Y467525D01*
X969734Y468860D01*
X966246Y468860D01*
X963022Y467525D01*
X960555Y465058D01*
X959220Y461834D01*
X959220Y458346D01*
X960555Y455122D01*
X963022Y452655D01*
X966246Y451320D01*
G37*
G36*
X1001246Y451320D02*
X1004734Y451320D01*
X1007958Y452655D01*
X1010425Y455122D01*
X1011760Y458346D01*
X1011760Y461834D01*
X1010425Y465058D01*
X1007958Y467525D01*
X1004734Y468860D01*
X1001246Y468860D01*
X998022Y467525D01*
X995555Y465058D01*
X994220Y461834D01*
X994220Y458346D01*
X995555Y455122D01*
X998022Y452655D01*
X1001246Y451320D01*
G37*
G36*
X437807Y457456D02*
X441033Y457456D01*
X443315Y459738D01*
X443315Y462964D01*
X441033Y465246D01*
X437807Y465246D01*
X435525Y462964D01*
X435525Y459738D01*
X437807Y457456D01*
G37*
G36*
X91574Y401570D02*
X98046Y401570D01*
X104026Y404047D01*
X108603Y408624D01*
X111080Y414604D01*
X111080Y421076D01*
X108603Y427056D01*
X104026Y431633D01*
X98046Y434110D01*
X91574Y434110D01*
X87434Y432395D01*
X87166Y432338D01*
X86867Y432388D01*
X86612Y432552D01*
X86440Y432802D01*
X86380Y433099D01*
X86380Y439284D01*
X84597Y445937D01*
X81153Y451903D01*
X76283Y456773D01*
X70317Y460217D01*
X63664Y462000D01*
X56776Y462000D01*
X50123Y460217D01*
X44157Y456773D01*
X39287Y451903D01*
X35843Y445937D01*
X34060Y439284D01*
X34060Y432396D01*
X35843Y425743D01*
X39287Y419777D01*
X44157Y414907D01*
X50123Y411463D01*
X56776Y409680D01*
X63664Y409680D01*
X70317Y411463D01*
X76283Y414907D01*
X77239Y415863D01*
X77459Y416016D01*
X77754Y416086D01*
X78053Y416035D01*
X78308Y415872D01*
X78480Y415622D01*
X78540Y415325D01*
X78540Y414604D01*
X81017Y408624D01*
X85594Y404047D01*
X91574Y401570D01*
G37*
G36*
X1072256Y441710D02*
X1076044Y441710D01*
X1079543Y443159D01*
X1082221Y445837D01*
X1083670Y449336D01*
X1083670Y453124D01*
X1082221Y456623D01*
X1079543Y459301D01*
X1076044Y460750D01*
X1072256Y460750D01*
X1068757Y459301D01*
X1066079Y456623D01*
X1064630Y453124D01*
X1064630Y449336D01*
X1066079Y445837D01*
X1068757Y443159D01*
X1072256Y441710D01*
G37*
G36*
X1097656Y441710D02*
X1101444Y441710D01*
X1104943Y443159D01*
X1107621Y445837D01*
X1109070Y449336D01*
X1109070Y453124D01*
X1107621Y456623D01*
X1104943Y459301D01*
X1101444Y460750D01*
X1097656Y460750D01*
X1094157Y459301D01*
X1091479Y456623D01*
X1090030Y453124D01*
X1090030Y449336D01*
X1091479Y445837D01*
X1094157Y443159D01*
X1097656Y441710D01*
G37*
G36*
X501307Y448225D02*
X504533Y448225D01*
X506815Y450507D01*
X506815Y453733D01*
X504533Y456015D01*
X501307Y456015D01*
X499025Y453733D01*
X499025Y450507D01*
X501307Y448225D01*
G37*
G36*
X787057Y440605D02*
X790283Y440605D01*
X792565Y442887D01*
X792565Y446113D01*
X790283Y448395D01*
X787057Y448395D01*
X784775Y446113D01*
X784775Y442887D01*
X787057Y440605D01*
G37*
G36*
X230797Y440605D02*
X234023Y440605D01*
X236305Y442887D01*
X236305Y446113D01*
X234023Y448395D01*
X230797Y448395D01*
X228515Y446113D01*
X228515Y442887D01*
X230797Y440605D01*
G37*
G36*
X263733Y436216D02*
X266959Y436216D01*
X269241Y438497D01*
X269241Y441724D01*
X266959Y444006D01*
X263737Y444006D01*
X263462Y444057D01*
X263207Y444220D01*
X263035Y444470D01*
X262975Y444768D01*
X262975Y446113D01*
X260693Y448395D01*
X257467Y448395D01*
X255185Y446113D01*
X255185Y442887D01*
X257467Y440605D01*
X260689Y440605D01*
X260964Y440554D01*
X261219Y440390D01*
X261391Y440140D01*
X261451Y439843D01*
X261451Y438497D01*
X263733Y436216D01*
G37*
G36*
X433997Y432985D02*
X437223Y432985D01*
X439516Y435278D01*
X439747Y435436D01*
X440043Y435501D01*
X440341Y435445D01*
X440594Y435278D01*
X442887Y432985D01*
X446113Y432985D01*
X448395Y435267D01*
X448395Y438493D01*
X446113Y440775D01*
X442887Y440775D01*
X440594Y438482D01*
X440363Y438324D01*
X440067Y438259D01*
X439769Y438315D01*
X439516Y438482D01*
X437223Y440775D01*
X433997Y440775D01*
X431715Y438493D01*
X431715Y435267D01*
X433997Y432985D01*
G37*
G36*
X239687Y431715D02*
X242913Y431715D01*
X245195Y433997D01*
X245195Y437223D01*
X242913Y439505D01*
X239687Y439505D01*
X237405Y437223D01*
X237405Y433997D01*
X239687Y431715D01*
G37*
G36*
X178727Y429175D02*
X181953Y429175D01*
X184235Y431457D01*
X184235Y434683D01*
X181953Y436965D01*
X178727Y436965D01*
X176445Y434683D01*
X176445Y431457D01*
X178727Y429175D01*
G37*
G36*
X194052Y428413D02*
X197278Y428413D01*
X199560Y430695D01*
X199560Y433921D01*
X197278Y436203D01*
X194052Y436203D01*
X191770Y433921D01*
X191770Y430695D01*
X194052Y428413D01*
G37*
G36*
X780707Y427905D02*
X783933Y427905D01*
X786215Y430187D01*
X786215Y433413D01*
X783933Y435695D01*
X780707Y435695D01*
X778425Y433413D01*
X778425Y430187D01*
X780707Y427905D01*
G37*
G36*
X226987Y427905D02*
X230213Y427905D01*
X232495Y430187D01*
X232495Y433413D01*
X230213Y435695D01*
X226987Y435695D01*
X224705Y433413D01*
X224705Y430187D01*
X226987Y427905D01*
G37*
G36*
X210477Y427905D02*
X213703Y427905D01*
X215985Y430187D01*
X215985Y433413D01*
X213703Y435695D01*
X210477Y435695D01*
X208195Y433413D01*
X208195Y430187D01*
X210477Y427905D01*
G37*
G36*
X1097656Y416310D02*
X1101444Y416310D01*
X1104943Y417759D01*
X1107621Y420437D01*
X1109070Y423936D01*
X1109070Y427724D01*
X1107621Y431223D01*
X1104943Y433901D01*
X1101444Y435350D01*
X1097656Y435350D01*
X1094157Y433901D01*
X1091479Y431223D01*
X1090030Y427724D01*
X1090030Y423936D01*
X1091479Y420437D01*
X1094157Y417759D01*
X1097656Y416310D01*
G37*
G36*
X1072256Y416310D02*
X1076044Y416310D01*
X1079543Y417759D01*
X1082221Y420437D01*
X1083670Y423936D01*
X1083670Y427724D01*
X1082221Y431223D01*
X1079543Y433901D01*
X1076044Y435350D01*
X1072256Y435350D01*
X1068757Y433901D01*
X1066079Y431223D01*
X1064630Y427724D01*
X1064630Y423936D01*
X1066079Y420437D01*
X1068757Y417759D01*
X1072256Y416310D01*
G37*
G36*
X255056Y419393D02*
X258283Y419393D01*
X260565Y421675D01*
X260565Y424902D01*
X258283Y427183D01*
X255056Y427183D01*
X252775Y424902D01*
X252775Y421675D01*
X255056Y419393D01*
G37*
G36*
X244007Y419266D02*
X247234Y419266D01*
X249516Y421548D01*
X249516Y424775D01*
X247234Y427056D01*
X244007Y427056D01*
X241726Y424775D01*
X241726Y421548D01*
X244007Y419266D01*
G37*
G36*
X513499Y417999D02*
X516725Y417999D01*
X519007Y420281D01*
X519007Y423507D01*
X516725Y425789D01*
X513499Y425789D01*
X511217Y423507D01*
X511217Y420281D01*
X513499Y417999D01*
G37*
G36*
X648727Y414385D02*
X651953Y414385D01*
X654235Y416667D01*
X654235Y419893D01*
X651953Y422175D01*
X648727Y422175D01*
X646445Y419893D01*
X646445Y416667D01*
X648727Y414385D01*
G37*
G36*
X1072256Y390910D02*
X1076044Y390910D01*
X1079543Y392359D01*
X1082221Y395037D01*
X1083670Y398536D01*
X1083670Y402324D01*
X1082221Y405823D01*
X1079543Y408501D01*
X1076044Y409950D01*
X1072256Y409950D01*
X1068757Y408501D01*
X1066079Y405823D01*
X1064630Y402324D01*
X1064630Y398536D01*
X1066079Y395037D01*
X1068757Y392359D01*
X1072256Y390910D01*
G37*
G36*
X1097656Y390910D02*
X1101444Y390910D01*
X1104943Y392359D01*
X1107621Y395037D01*
X1109070Y398536D01*
X1109070Y402324D01*
X1107621Y405823D01*
X1104943Y408501D01*
X1101444Y409950D01*
X1097656Y409950D01*
X1094157Y408501D01*
X1091479Y405823D01*
X1090030Y402324D01*
X1090030Y398536D01*
X1091479Y395037D01*
X1094157Y392359D01*
X1097656Y390910D01*
G37*
G36*
X235553Y398371D02*
X238779Y398371D01*
X241061Y400653D01*
X241061Y403879D01*
X238779Y406161D01*
X235553Y406161D01*
X233271Y403879D01*
X233271Y400653D01*
X235553Y398371D01*
G37*
G36*
X56776Y330940D02*
X63664Y330940D01*
X70317Y332723D01*
X76283Y336167D01*
X81153Y341037D01*
X84597Y347003D01*
X86380Y353656D01*
X86380Y359841D01*
X86429Y360110D01*
X86590Y360367D01*
X86839Y360540D01*
X87136Y360603D01*
X87434Y360545D01*
X91574Y358830D01*
X98046Y358830D01*
X104026Y361307D01*
X108603Y365884D01*
X111080Y371864D01*
X111080Y378336D01*
X108603Y384316D01*
X104026Y388893D01*
X98046Y391370D01*
X91574Y391370D01*
X85594Y388893D01*
X81017Y384316D01*
X78540Y378336D01*
X78540Y377615D01*
X78493Y377352D01*
X78334Y377094D01*
X78086Y376919D01*
X77790Y376854D01*
X77492Y376909D01*
X77239Y377077D01*
X76283Y378033D01*
X70317Y381477D01*
X63664Y383260D01*
X56776Y383260D01*
X50123Y381477D01*
X44157Y378033D01*
X39287Y373163D01*
X35843Y367197D01*
X34060Y360544D01*
X34060Y353656D01*
X35843Y347003D01*
X39287Y341037D01*
X44157Y336167D01*
X50123Y332723D01*
X56776Y330940D01*
G37*
G36*
X149000Y378375D02*
X152227Y378375D01*
X154509Y380657D01*
X154509Y383883D01*
X152227Y386165D01*
X149000Y386165D01*
X146719Y383883D01*
X146719Y380657D01*
X149000Y378375D01*
G37*
G36*
X1072256Y365510D02*
X1076044Y365510D01*
X1079543Y366959D01*
X1082221Y369637D01*
X1083670Y373136D01*
X1083670Y376924D01*
X1082221Y380423D01*
X1079543Y383101D01*
X1076044Y384550D01*
X1072256Y384550D01*
X1068757Y383101D01*
X1066079Y380423D01*
X1064630Y376924D01*
X1064630Y373136D01*
X1066079Y369637D01*
X1068757Y366959D01*
X1072256Y365510D01*
G37*
G36*
X1097656Y365510D02*
X1101444Y365510D01*
X1104943Y366959D01*
X1107621Y369637D01*
X1109070Y373136D01*
X1109070Y376924D01*
X1107621Y380423D01*
X1104943Y383101D01*
X1101444Y384550D01*
X1097656Y384550D01*
X1094157Y383101D01*
X1091479Y380423D01*
X1090030Y376924D01*
X1090030Y373136D01*
X1091479Y369637D01*
X1094157Y366959D01*
X1097656Y365510D01*
G37*
G36*
X178727Y373295D02*
X181953Y373295D01*
X184235Y375577D01*
X184235Y378803D01*
X181953Y381085D01*
X178727Y381085D01*
X176445Y378803D01*
X176445Y375577D01*
X178727Y373295D01*
G37*
G36*
X350177Y365675D02*
X353403Y365675D01*
X355685Y367957D01*
X355685Y371183D01*
X353403Y373465D01*
X350177Y373465D01*
X347895Y371183D01*
X347895Y367957D01*
X350177Y365675D01*
G37*
G36*
X439077Y364405D02*
X442303Y364405D01*
X444585Y366687D01*
X444585Y369913D01*
X442303Y372195D01*
X439077Y372195D01*
X436795Y369913D01*
X436795Y366687D01*
X439077Y364405D01*
G37*
G36*
X449237Y364405D02*
X452463Y364405D01*
X454745Y366687D01*
X454745Y369913D01*
X452463Y372195D01*
X449237Y372195D01*
X446955Y369913D01*
X446955Y366687D01*
X449237Y364405D01*
G37*
G36*
X1097656Y340110D02*
X1101444Y340110D01*
X1104943Y341559D01*
X1107621Y344237D01*
X1109070Y347736D01*
X1109070Y351524D01*
X1107621Y355023D01*
X1104943Y357701D01*
X1101444Y359150D01*
X1097656Y359150D01*
X1094157Y357701D01*
X1091479Y355023D01*
X1090030Y351524D01*
X1090030Y347736D01*
X1091479Y344237D01*
X1094157Y341559D01*
X1097656Y340110D01*
G37*
G36*
X1072256Y340110D02*
X1076044Y340110D01*
X1079543Y341559D01*
X1082221Y344237D01*
X1083670Y347736D01*
X1083670Y351524D01*
X1082221Y355023D01*
X1079543Y357701D01*
X1076044Y359150D01*
X1072256Y359150D01*
X1068757Y357701D01*
X1066079Y355023D01*
X1064630Y351524D01*
X1064630Y347736D01*
X1066079Y344237D01*
X1068757Y341559D01*
X1072256Y340110D01*
G37*
G36*
X362877Y350435D02*
X366103Y350435D01*
X368385Y352717D01*
X368385Y355943D01*
X366103Y358225D01*
X362877Y358225D01*
X360595Y355943D01*
X360595Y352717D01*
X362877Y350435D01*
G37*
G36*
X1315377Y333925D02*
X1318603Y333925D01*
X1320885Y336207D01*
X1320885Y339433D01*
X1318603Y341715D01*
X1315377Y341715D01*
X1313095Y339433D01*
X1313095Y336207D01*
X1315377Y333925D01*
G37*
G36*
X1178217Y332985D02*
X1181443Y332985D01*
X1183725Y335267D01*
X1183725Y338493D01*
X1181443Y340775D01*
X1178217Y340775D01*
X1175935Y338493D01*
X1175935Y335267D01*
X1178217Y332985D01*
G37*
G36*
X101783Y321032D02*
X105017Y321032D01*
X108004Y322269D01*
X110291Y324556D01*
X111528Y327543D01*
X111528Y330777D01*
X110291Y333764D01*
X108004Y336051D01*
X105017Y337288D01*
X101783Y337288D01*
X98796Y336051D01*
X96509Y333764D01*
X95272Y330777D01*
X95272Y327543D01*
X96509Y324556D01*
X98796Y322269D01*
X101783Y321032D01*
G37*
G36*
X890756Y319240D02*
X894244Y319240D01*
X897468Y320575D01*
X899935Y323042D01*
X901270Y326266D01*
X901270Y329754D01*
X899935Y332978D01*
X897468Y335445D01*
X894244Y336780D01*
X890756Y336780D01*
X887532Y335445D01*
X885065Y332978D01*
X883730Y329754D01*
X883730Y326266D01*
X885065Y323042D01*
X887532Y320575D01*
X890756Y319240D01*
G37*
G36*
X855756Y319240D02*
X859244Y319240D01*
X862468Y320575D01*
X864935Y323042D01*
X866270Y326266D01*
X866270Y329754D01*
X864935Y332978D01*
X862468Y335445D01*
X859244Y336780D01*
X855756Y336780D01*
X852532Y335445D01*
X850065Y332978D01*
X848730Y329754D01*
X848730Y326266D01*
X850065Y323042D01*
X852532Y320575D01*
X855756Y319240D01*
G37*
G36*
X781536Y319240D02*
X785024Y319240D01*
X788248Y320575D01*
X790715Y323042D01*
X792050Y326266D01*
X792050Y329754D01*
X790715Y332978D01*
X788248Y335445D01*
X785024Y336780D01*
X781536Y336780D01*
X778312Y335445D01*
X775845Y332978D01*
X774510Y329754D01*
X774510Y326266D01*
X775845Y323042D01*
X778312Y320575D01*
X781536Y319240D01*
G37*
G36*
X746536Y319240D02*
X750024Y319240D01*
X753248Y320575D01*
X755715Y323042D01*
X757050Y326266D01*
X757050Y329754D01*
X755715Y332978D01*
X753248Y335445D01*
X750024Y336780D01*
X746536Y336780D01*
X743312Y335445D01*
X740845Y332978D01*
X739510Y329754D01*
X739510Y326266D01*
X740845Y323042D01*
X743312Y320575D01*
X746536Y319240D01*
G37*
G36*
X1001246Y317970D02*
X1004734Y317970D01*
X1007958Y319305D01*
X1010425Y321772D01*
X1011760Y324996D01*
X1011760Y328484D01*
X1010425Y331708D01*
X1007958Y334175D01*
X1004734Y335510D01*
X1001246Y335510D01*
X998022Y334175D01*
X995555Y331708D01*
X994220Y328484D01*
X994220Y324996D01*
X995555Y321772D01*
X998022Y319305D01*
X1001246Y317970D01*
G37*
G36*
X966246Y317970D02*
X969734Y317970D01*
X972958Y319305D01*
X975425Y321772D01*
X976760Y324996D01*
X976760Y328484D01*
X975425Y331708D01*
X972958Y334175D01*
X969734Y335510D01*
X966246Y335510D01*
X963022Y334175D01*
X960555Y331708D01*
X959220Y328484D01*
X959220Y324996D01*
X960555Y321772D01*
X963022Y319305D01*
X966246Y317970D01*
G37*
G36*
X1097656Y314710D02*
X1101444Y314710D01*
X1104943Y316159D01*
X1107621Y318837D01*
X1109070Y322336D01*
X1109070Y326124D01*
X1107621Y329623D01*
X1104943Y332301D01*
X1101444Y333750D01*
X1097656Y333750D01*
X1094157Y332301D01*
X1091479Y329623D01*
X1090030Y326124D01*
X1090030Y322336D01*
X1091479Y318837D01*
X1094157Y316159D01*
X1097656Y314710D01*
G37*
G36*
X1072256Y314710D02*
X1076044Y314710D01*
X1079543Y316159D01*
X1082221Y318837D01*
X1083670Y322336D01*
X1083670Y326124D01*
X1082221Y329623D01*
X1079543Y332301D01*
X1076044Y333750D01*
X1072256Y333750D01*
X1068757Y332301D01*
X1066079Y329623D01*
X1064630Y326124D01*
X1064630Y322336D01*
X1066079Y318837D01*
X1068757Y316159D01*
X1072256Y314710D01*
G37*
G36*
X84003Y310872D02*
X87237Y310872D01*
X90224Y312109D01*
X92511Y314396D01*
X93748Y317383D01*
X93748Y320617D01*
X92511Y323604D01*
X90224Y325891D01*
X87237Y327128D01*
X84003Y327128D01*
X81016Y325891D01*
X78729Y323604D01*
X77492Y320617D01*
X77492Y317383D01*
X78729Y314396D01*
X81016Y312109D01*
X84003Y310872D01*
G37*
G36*
X330856Y317415D02*
X334083Y317415D01*
X336365Y319697D01*
X336365Y322923D01*
X334083Y325205D01*
X330856Y325205D01*
X328575Y322923D01*
X328575Y319697D01*
X330856Y317415D01*
G37*
G36*
X229527Y314875D02*
X232753Y314875D01*
X235035Y317157D01*
X235035Y320383D01*
X232753Y322665D01*
X229527Y322665D01*
X227245Y320383D01*
X227245Y317157D01*
X229527Y314875D01*
G37*
G36*
X379387Y312335D02*
X382613Y312335D01*
X384895Y314617D01*
X384895Y317843D01*
X382613Y320125D01*
X379387Y320125D01*
X377105Y317843D01*
X377105Y314617D01*
X379387Y312335D01*
G37*
G36*
X101783Y300712D02*
X105017Y300712D01*
X108004Y301949D01*
X110291Y304236D01*
X111528Y307223D01*
X111528Y310457D01*
X110291Y313444D01*
X108004Y315731D01*
X105017Y316968D01*
X101783Y316968D01*
X98796Y315731D01*
X96509Y313444D01*
X95272Y310457D01*
X95272Y307223D01*
X96509Y304236D01*
X98796Y301949D01*
X101783Y300712D01*
G37*
G36*
X611797Y305985D02*
X615023Y305985D01*
X617305Y308267D01*
X617305Y311493D01*
X615023Y313775D01*
X611797Y313775D01*
X609515Y311493D01*
X609515Y308267D01*
X611797Y305985D01*
G37*
G36*
X1097656Y289310D02*
X1101444Y289310D01*
X1104943Y290759D01*
X1107621Y293437D01*
X1109070Y296936D01*
X1109070Y300724D01*
X1107621Y304223D01*
X1104943Y306901D01*
X1101444Y308350D01*
X1097656Y308350D01*
X1094157Y306901D01*
X1091479Y304223D01*
X1090030Y300724D01*
X1090030Y296936D01*
X1091479Y293437D01*
X1094157Y290759D01*
X1097656Y289310D01*
G37*
G36*
X1072256Y289310D02*
X1076044Y289310D01*
X1079543Y290759D01*
X1082221Y293437D01*
X1083670Y296936D01*
X1083670Y300724D01*
X1082221Y304223D01*
X1079543Y306901D01*
X1076044Y308350D01*
X1072256Y308350D01*
X1068757Y306901D01*
X1066079Y304223D01*
X1064630Y300724D01*
X1064630Y296936D01*
X1066079Y293437D01*
X1068757Y290759D01*
X1072256Y289310D01*
G37*
G36*
X76222Y299442D02*
X84858Y299442D01*
X84858Y308078D01*
X83751Y308078D01*
X80296Y306647D01*
X77653Y304004D01*
X76222Y300549D01*
X76222Y299442D01*
G37*
G36*
X86382Y299442D02*
X95018Y299442D01*
X95018Y300549D01*
X93587Y304004D01*
X90944Y306647D01*
X87489Y308078D01*
X86382Y308078D01*
X86382Y299442D01*
G37*
G36*
X236978Y292015D02*
X240204Y292015D01*
X242709Y294520D01*
X242940Y294678D01*
X243236Y294743D01*
X243534Y294687D01*
X243787Y294520D01*
X246292Y292015D01*
X249518Y292015D01*
X251800Y294297D01*
X251800Y297523D01*
X249518Y299805D01*
X246292Y299805D01*
X243787Y297300D01*
X243556Y297142D01*
X243260Y297077D01*
X242962Y297133D01*
X242709Y297300D01*
X240204Y299805D01*
X236978Y299805D01*
X234696Y297523D01*
X234696Y294297D01*
X236978Y292015D01*
G37*
G36*
X653199Y292015D02*
X656425Y292015D01*
X658707Y294297D01*
X658707Y297523D01*
X656425Y299805D01*
X653199Y299805D01*
X650917Y297523D01*
X650917Y294297D01*
X653199Y292015D01*
G37*
G36*
X86382Y289282D02*
X87489Y289282D01*
X90944Y290713D01*
X93587Y293356D01*
X95018Y296811D01*
X95018Y297918D01*
X86382Y297918D01*
X86382Y289282D01*
G37*
G36*
X83751Y289282D02*
X84858Y289282D01*
X84858Y297918D01*
X76222Y297918D01*
X76222Y296811D01*
X77653Y293356D01*
X80296Y290713D01*
X83751Y289282D01*
G37*
G36*
X101783Y280392D02*
X105017Y280392D01*
X108004Y281629D01*
X110291Y283916D01*
X111528Y286903D01*
X111528Y290137D01*
X110291Y293124D01*
X108004Y295411D01*
X105017Y296648D01*
X101783Y296648D01*
X98796Y295411D01*
X96509Y293124D01*
X95272Y290137D01*
X95272Y286903D01*
X96509Y283916D01*
X98796Y281629D01*
X101783Y280392D01*
G37*
G36*
X174917Y284395D02*
X178143Y284395D01*
X180425Y286677D01*
X180425Y289903D01*
X178143Y292185D01*
X174917Y292185D01*
X172635Y289903D01*
X172635Y286677D01*
X174917Y284395D01*
G37*
G36*
X492417Y284395D02*
X495643Y284395D01*
X497925Y286677D01*
X497925Y289903D01*
X495643Y292185D01*
X492417Y292185D01*
X490135Y289903D01*
X490135Y286677D01*
X492417Y284395D01*
G37*
G36*
X191512Y283125D02*
X194738Y283125D01*
X197020Y285407D01*
X197020Y288633D01*
X194738Y290915D01*
X191512Y290915D01*
X189230Y288633D01*
X189230Y285407D01*
X191512Y283125D01*
G37*
G36*
X220637Y283125D02*
X223863Y283125D01*
X226145Y285407D01*
X226145Y288633D01*
X223863Y290915D01*
X220637Y290915D01*
X218355Y288633D01*
X218355Y285407D01*
X220637Y283125D01*
G37*
G36*
X206667Y283125D02*
X209893Y283125D01*
X212175Y285407D01*
X212175Y288633D01*
X209893Y290915D01*
X206667Y290915D01*
X204385Y288633D01*
X204385Y285407D01*
X206667Y283125D01*
G37*
G36*
X84003Y270232D02*
X87237Y270232D01*
X90224Y271469D01*
X92511Y273756D01*
X93748Y276743D01*
X93748Y279977D01*
X92511Y282964D01*
X90224Y285251D01*
X87237Y286488D01*
X84003Y286488D01*
X81016Y285251D01*
X78729Y282964D01*
X77492Y279977D01*
X77492Y276743D01*
X78729Y273756D01*
X81016Y271469D01*
X84003Y270232D01*
G37*
G36*
X1072256Y263910D02*
X1076044Y263910D01*
X1079543Y265359D01*
X1082221Y268037D01*
X1083670Y271536D01*
X1083670Y275324D01*
X1082221Y278823D01*
X1079543Y281501D01*
X1076044Y282950D01*
X1072256Y282950D01*
X1068757Y281501D01*
X1066079Y278823D01*
X1064630Y275324D01*
X1064630Y271536D01*
X1066079Y268037D01*
X1068757Y265359D01*
X1072256Y263910D01*
G37*
G36*
X1097656Y263910D02*
X1101444Y263910D01*
X1104943Y265359D01*
X1107621Y268037D01*
X1109070Y271536D01*
X1109070Y275324D01*
X1107621Y278823D01*
X1104943Y281501D01*
X1101444Y282950D01*
X1097656Y282950D01*
X1094157Y281501D01*
X1091479Y278823D01*
X1090030Y275324D01*
X1090030Y271536D01*
X1091479Y268037D01*
X1094157Y265359D01*
X1097656Y263910D01*
G37*
G36*
X439077Y274235D02*
X442303Y274235D01*
X444585Y276517D01*
X444585Y279743D01*
X442303Y282025D01*
X439077Y282025D01*
X436795Y279743D01*
X436795Y276517D01*
X439077Y274235D01*
G37*
G36*
X101783Y260072D02*
X105017Y260072D01*
X108004Y261309D01*
X110291Y263596D01*
X111528Y266583D01*
X111528Y269817D01*
X110291Y272804D01*
X108004Y275091D01*
X105017Y276328D01*
X101783Y276328D01*
X98796Y275091D01*
X96509Y272804D01*
X95272Y269817D01*
X95272Y266583D01*
X96509Y263596D01*
X98796Y261309D01*
X101783Y260072D01*
G37*
G36*
X439077Y264075D02*
X442303Y264075D01*
X444585Y266357D01*
X444585Y269583D01*
X442303Y271865D01*
X439077Y271865D01*
X436795Y269583D01*
X436795Y266357D01*
X439077Y264075D01*
G37*
G36*
X653199Y261281D02*
X656425Y261281D01*
X658707Y263563D01*
X658707Y266789D01*
X656425Y269071D01*
X653199Y269071D01*
X650917Y266789D01*
X650917Y263563D01*
X653199Y261281D01*
G37*
G36*
X84003Y249912D02*
X87237Y249912D01*
X90224Y251149D01*
X92511Y253436D01*
X93748Y256423D01*
X93748Y259657D01*
X92511Y262644D01*
X90224Y264931D01*
X87237Y266168D01*
X84003Y266168D01*
X81016Y264931D01*
X78729Y262644D01*
X77492Y259657D01*
X77492Y256423D01*
X78729Y253436D01*
X81016Y251149D01*
X84003Y249912D01*
G37*
G36*
X703216Y254850D02*
X712494Y254850D01*
X712494Y264128D01*
X711259Y264128D01*
X707569Y262600D01*
X704745Y259775D01*
X703216Y256085D01*
X703216Y254850D01*
G37*
G36*
X768216Y254850D02*
X777494Y254850D01*
X777494Y264128D01*
X776259Y264128D01*
X772569Y262600D01*
X769745Y259775D01*
X768216Y256085D01*
X768216Y254850D01*
G37*
G36*
X779018Y254850D02*
X788296Y254850D01*
X788296Y256085D01*
X786768Y259775D01*
X783943Y262600D01*
X780253Y264128D01*
X779018Y264128D01*
X779018Y254850D01*
G37*
G36*
X714018Y254850D02*
X723296Y254850D01*
X723296Y256085D01*
X721768Y259775D01*
X718943Y262600D01*
X715253Y264128D01*
X714018Y264128D01*
X714018Y254850D01*
G37*
G36*
X940906Y245930D02*
X944394Y245930D01*
X947618Y247265D01*
X950085Y249732D01*
X951420Y252955D01*
X951420Y256444D01*
X950085Y259667D01*
X947618Y262134D01*
X944394Y263470D01*
X940906Y263470D01*
X937682Y262134D01*
X935215Y259667D01*
X933880Y256444D01*
X933880Y252955D01*
X935215Y249732D01*
X937682Y247265D01*
X940906Y245930D01*
G37*
G36*
X1005906Y245930D02*
X1009394Y245930D01*
X1012618Y247265D01*
X1015085Y249732D01*
X1016420Y252955D01*
X1016420Y256444D01*
X1015085Y259667D01*
X1012618Y262134D01*
X1009394Y263470D01*
X1005906Y263470D01*
X1002682Y262134D01*
X1000215Y259667D01*
X998880Y256444D01*
X998880Y252955D01*
X1000215Y249732D01*
X1002682Y247265D01*
X1005906Y245930D01*
G37*
G36*
X826352Y245810D02*
X829840Y245810D01*
X833064Y247145D01*
X835531Y249612D01*
X836866Y252836D01*
X836866Y256324D01*
X835531Y259548D01*
X833064Y262015D01*
X829840Y263350D01*
X826352Y263350D01*
X823128Y262015D01*
X820661Y259548D01*
X819326Y256324D01*
X819326Y252836D01*
X820661Y249612D01*
X823128Y247145D01*
X826352Y245810D01*
G37*
G36*
X891352Y245810D02*
X894840Y245810D01*
X898064Y247145D01*
X900531Y249612D01*
X901866Y252836D01*
X901866Y256324D01*
X900531Y259548D01*
X898064Y262015D01*
X894840Y263350D01*
X891352Y263350D01*
X888128Y262015D01*
X885661Y259548D01*
X884326Y256324D01*
X884326Y252836D01*
X885661Y249612D01*
X888128Y247145D01*
X891352Y245810D01*
G37*
G36*
X802043Y252645D02*
X805269Y252645D01*
X807551Y254927D01*
X807551Y258153D01*
X805269Y260435D01*
X802043Y260435D01*
X799761Y258153D01*
X799761Y254927D01*
X802043Y252645D01*
G37*
G36*
X1072256Y238510D02*
X1076044Y238510D01*
X1079543Y239959D01*
X1082221Y242637D01*
X1083670Y246136D01*
X1083670Y249924D01*
X1082221Y253423D01*
X1079543Y256101D01*
X1076044Y257550D01*
X1072256Y257550D01*
X1068757Y256101D01*
X1066079Y253423D01*
X1064630Y249924D01*
X1064630Y246136D01*
X1066079Y242637D01*
X1068757Y239959D01*
X1072256Y238510D01*
G37*
G36*
X1097656Y238510D02*
X1101444Y238510D01*
X1104943Y239959D01*
X1107621Y242637D01*
X1109070Y246136D01*
X1109070Y249924D01*
X1107621Y253423D01*
X1104943Y256101D01*
X1101444Y257550D01*
X1097656Y257550D01*
X1094157Y256101D01*
X1091479Y253423D01*
X1090030Y249924D01*
X1090030Y246136D01*
X1091479Y242637D01*
X1094157Y239959D01*
X1097656Y238510D01*
G37*
G36*
X91574Y195830D02*
X98046Y195830D01*
X104026Y198307D01*
X108603Y202884D01*
X111080Y208864D01*
X111080Y215336D01*
X108603Y221316D01*
X104026Y225893D01*
X98046Y228370D01*
X91574Y228370D01*
X87434Y226655D01*
X87166Y226598D01*
X86867Y226648D01*
X86612Y226812D01*
X86440Y227062D01*
X86380Y227359D01*
X86380Y233544D01*
X84597Y240197D01*
X81153Y246163D01*
X76283Y251033D01*
X70317Y254477D01*
X63664Y256260D01*
X56776Y256260D01*
X50123Y254477D01*
X44157Y251033D01*
X39287Y246163D01*
X35843Y240197D01*
X34060Y233544D01*
X34060Y226656D01*
X35843Y220003D01*
X39287Y214037D01*
X44157Y209167D01*
X50123Y205723D01*
X56776Y203940D01*
X63664Y203940D01*
X70317Y205723D01*
X76283Y209167D01*
X77239Y210123D01*
X77459Y210276D01*
X77754Y210346D01*
X78053Y210295D01*
X78308Y210132D01*
X78480Y209882D01*
X78540Y209585D01*
X78540Y208864D01*
X81017Y202884D01*
X85594Y198307D01*
X91574Y195830D01*
G37*
G36*
X779018Y244048D02*
X780253Y244048D01*
X783943Y245577D01*
X786768Y248401D01*
X788296Y252091D01*
X788296Y253326D01*
X779018Y253326D01*
X779018Y244048D01*
G37*
G36*
X776259Y244048D02*
X777494Y244048D01*
X777494Y253326D01*
X768216Y253326D01*
X768216Y252091D01*
X769745Y248401D01*
X772569Y245577D01*
X776259Y244048D01*
G37*
G36*
X714018Y244048D02*
X715253Y244048D01*
X718943Y245577D01*
X721768Y248401D01*
X723296Y252091D01*
X723296Y253326D01*
X714018Y253326D01*
X714018Y244048D01*
G37*
G36*
X711259Y244048D02*
X712494Y244048D01*
X712494Y253326D01*
X703216Y253326D01*
X703216Y252091D01*
X704745Y248401D01*
X707569Y245577D01*
X711259Y244048D01*
G37*
G36*
X653199Y235458D02*
X656425Y235458D01*
X658707Y237740D01*
X658707Y240966D01*
X656425Y243248D01*
X653199Y243248D01*
X650917Y240966D01*
X650917Y237740D01*
X653199Y235458D01*
G37*
G36*
X1072256Y213110D02*
X1076044Y213110D01*
X1079543Y214559D01*
X1082221Y217237D01*
X1083670Y220736D01*
X1083670Y224524D01*
X1082221Y228023D01*
X1079543Y230701D01*
X1076044Y232150D01*
X1072256Y232150D01*
X1068757Y230701D01*
X1066079Y228023D01*
X1064630Y224524D01*
X1064630Y220736D01*
X1066079Y217237D01*
X1068757Y214559D01*
X1072256Y213110D01*
G37*
G36*
X1097656Y213110D02*
X1101444Y213110D01*
X1104943Y214559D01*
X1107621Y217237D01*
X1109070Y220736D01*
X1109070Y224524D01*
X1107621Y228023D01*
X1104943Y230701D01*
X1101444Y232150D01*
X1097656Y232150D01*
X1094157Y230701D01*
X1091479Y228023D01*
X1090030Y224524D01*
X1090030Y220736D01*
X1091479Y217237D01*
X1094157Y214559D01*
X1097656Y213110D01*
G37*
G36*
X940906Y200930D02*
X944394Y200930D01*
X947618Y202265D01*
X950085Y204732D01*
X951420Y207955D01*
X951420Y211444D01*
X950085Y214667D01*
X947618Y217134D01*
X944394Y218470D01*
X940906Y218470D01*
X937682Y217134D01*
X935215Y214667D01*
X933880Y211444D01*
X933880Y207955D01*
X935215Y204732D01*
X937682Y202265D01*
X940906Y200930D01*
G37*
G36*
X1005906Y200930D02*
X1009394Y200930D01*
X1012618Y202265D01*
X1015085Y204732D01*
X1016420Y207955D01*
X1016420Y211444D01*
X1015085Y214667D01*
X1012618Y217134D01*
X1009394Y218470D01*
X1005906Y218470D01*
X1002682Y217134D01*
X1000215Y214667D01*
X998880Y211444D01*
X998880Y207955D01*
X1000215Y204732D01*
X1002682Y202265D01*
X1005906Y200930D01*
G37*
G36*
X891352Y200810D02*
X894840Y200810D01*
X898064Y202145D01*
X900531Y204612D01*
X901866Y207836D01*
X901866Y211324D01*
X900531Y214548D01*
X898064Y217015D01*
X894840Y218350D01*
X891352Y218350D01*
X888128Y217015D01*
X885661Y214548D01*
X884326Y211324D01*
X884326Y207836D01*
X885661Y204612D01*
X888128Y202145D01*
X891352Y200810D01*
G37*
G36*
X826352Y200810D02*
X829840Y200810D01*
X833064Y202145D01*
X835531Y204612D01*
X836866Y207836D01*
X836866Y211324D01*
X835531Y214548D01*
X833064Y217015D01*
X829840Y218350D01*
X826352Y218350D01*
X823128Y217015D01*
X820661Y214548D01*
X819326Y211324D01*
X819326Y207836D01*
X820661Y204612D01*
X823128Y202145D01*
X826352Y200810D01*
G37*
G36*
X711512Y200318D02*
X715000Y200318D01*
X718224Y201653D01*
X720691Y204120D01*
X722026Y207344D01*
X722026Y210832D01*
X720691Y214056D01*
X718224Y216523D01*
X715000Y217858D01*
X711512Y217858D01*
X708288Y216523D01*
X705821Y214056D01*
X704486Y210832D01*
X704486Y207344D01*
X705821Y204120D01*
X708288Y201653D01*
X711512Y200318D01*
G37*
G36*
X776512Y200318D02*
X780000Y200318D01*
X783224Y201653D01*
X785691Y204120D01*
X787026Y207344D01*
X787026Y210832D01*
X785691Y214056D01*
X783224Y216523D01*
X780000Y217858D01*
X776512Y217858D01*
X773288Y216523D01*
X770821Y214056D01*
X769486Y210832D01*
X769486Y207344D01*
X770821Y204120D01*
X773288Y201653D01*
X776512Y200318D01*
G37*
G36*
X1315123Y206671D02*
X1318349Y206671D01*
X1320631Y208953D01*
X1320631Y212179D01*
X1318349Y214461D01*
X1315123Y214461D01*
X1312841Y212179D01*
X1312841Y208953D01*
X1315123Y206671D01*
G37*
G36*
X1031969Y205505D02*
X1035195Y205505D01*
X1037477Y207787D01*
X1037477Y211013D01*
X1035195Y213295D01*
X1031969Y213295D01*
X1029687Y211013D01*
X1029687Y207787D01*
X1031969Y205505D01*
G37*
G36*
X916907Y204235D02*
X920133Y204235D01*
X922415Y206517D01*
X922415Y209743D01*
X920133Y212025D01*
X916907Y212025D01*
X914625Y209743D01*
X914625Y206517D01*
X916907Y204235D01*
G37*
G36*
X1072256Y187710D02*
X1076044Y187710D01*
X1079543Y189159D01*
X1082221Y191837D01*
X1083670Y195336D01*
X1083670Y199124D01*
X1082221Y202623D01*
X1079543Y205301D01*
X1076044Y206750D01*
X1072256Y206750D01*
X1068757Y205301D01*
X1066079Y202623D01*
X1064630Y199124D01*
X1064630Y195336D01*
X1066079Y191837D01*
X1068757Y189159D01*
X1072256Y187710D01*
G37*
G36*
X1097656Y187710D02*
X1101444Y187710D01*
X1104943Y189159D01*
X1107621Y191837D01*
X1109070Y195336D01*
X1109070Y199124D01*
X1107621Y202623D01*
X1104943Y205301D01*
X1101444Y206750D01*
X1097656Y206750D01*
X1094157Y205301D01*
X1091479Y202623D01*
X1090030Y199124D01*
X1090030Y195336D01*
X1091479Y191837D01*
X1094157Y189159D01*
X1097656Y187710D01*
G37*
G36*
X973406Y182430D02*
X976894Y182430D01*
X980118Y183765D01*
X982585Y186232D01*
X983920Y189455D01*
X983920Y192944D01*
X982585Y196167D01*
X980118Y198634D01*
X976894Y199970D01*
X973406Y199970D01*
X970182Y198634D01*
X967715Y196167D01*
X966380Y192944D01*
X966380Y189455D01*
X967715Y186232D01*
X970182Y183765D01*
X973406Y182430D01*
G37*
G36*
X858852Y182310D02*
X862340Y182310D01*
X865564Y183645D01*
X868031Y186112D01*
X869366Y189336D01*
X869366Y192824D01*
X868031Y196048D01*
X865564Y198515D01*
X862340Y199850D01*
X858852Y199850D01*
X855628Y198515D01*
X853161Y196048D01*
X851826Y192824D01*
X851826Y189336D01*
X853161Y186112D01*
X855628Y183645D01*
X858852Y182310D01*
G37*
G36*
X744012Y181818D02*
X747500Y181818D01*
X750724Y183153D01*
X753191Y185620D01*
X754526Y188844D01*
X754526Y192332D01*
X753191Y195556D01*
X750724Y198023D01*
X747500Y199358D01*
X744012Y199358D01*
X740788Y198023D01*
X738321Y195556D01*
X736986Y192332D01*
X736986Y188844D01*
X738321Y185620D01*
X740788Y183153D01*
X744012Y181818D01*
G37*
G36*
X1097656Y162310D02*
X1101444Y162310D01*
X1104943Y163759D01*
X1107621Y166437D01*
X1109070Y169936D01*
X1109070Y173724D01*
X1107621Y177223D01*
X1104943Y179901D01*
X1101444Y181350D01*
X1097656Y181350D01*
X1094157Y179901D01*
X1091479Y177223D01*
X1090030Y173724D01*
X1090030Y169936D01*
X1091479Y166437D01*
X1094157Y163759D01*
X1097656Y162310D01*
G37*
G36*
X1072256Y162310D02*
X1076044Y162310D01*
X1079543Y163759D01*
X1082221Y166437D01*
X1083670Y169936D01*
X1083670Y173724D01*
X1082221Y177223D01*
X1079543Y179901D01*
X1076044Y181350D01*
X1072256Y181350D01*
X1068757Y179901D01*
X1066079Y177223D01*
X1064630Y173724D01*
X1064630Y169936D01*
X1066079Y166437D01*
X1068757Y163759D01*
X1072256Y162310D01*
G37*
G36*
X886371Y166793D02*
X889597Y166793D01*
X891879Y169075D01*
X891879Y172301D01*
X889597Y174583D01*
X886371Y174583D01*
X884089Y172301D01*
X884089Y169075D01*
X886371Y166793D01*
G37*
G36*
X467271Y161713D02*
X470497Y161713D01*
X472779Y163995D01*
X472779Y167221D01*
X470497Y169503D01*
X467271Y169503D01*
X464989Y167221D01*
X464989Y163995D01*
X467271Y161713D01*
G37*
G36*
X676821Y161713D02*
X680047Y161713D01*
X682329Y163995D01*
X682329Y167221D01*
X680047Y169503D01*
X676821Y169503D01*
X674539Y167221D01*
X674539Y163995D01*
X676821Y161713D01*
G37*
G36*
X303441Y152823D02*
X306667Y152823D01*
X308949Y155105D01*
X308949Y158331D01*
X306667Y160613D01*
X303441Y160613D01*
X301159Y158331D01*
X301159Y155105D01*
X303441Y152823D01*
G37*
G36*
X1097656Y136910D02*
X1101444Y136910D01*
X1104943Y138359D01*
X1107621Y141037D01*
X1109070Y144536D01*
X1109070Y148324D01*
X1107621Y151823D01*
X1104943Y154501D01*
X1101444Y155950D01*
X1097656Y155950D01*
X1094157Y154501D01*
X1091479Y151823D01*
X1090030Y148324D01*
X1090030Y144536D01*
X1091479Y141037D01*
X1094157Y138359D01*
X1097656Y136910D01*
G37*
G36*
X1072256Y136910D02*
X1076044Y136910D01*
X1079543Y138359D01*
X1082221Y141037D01*
X1083670Y144536D01*
X1083670Y148324D01*
X1082221Y151823D01*
X1079543Y154501D01*
X1076044Y155950D01*
X1072256Y155950D01*
X1068757Y154501D01*
X1066079Y151823D01*
X1064630Y148324D01*
X1064630Y144536D01*
X1066079Y141037D01*
X1068757Y138359D01*
X1072256Y136910D01*
G37*
G36*
X1097656Y111510D02*
X1101444Y111510D01*
X1104943Y112959D01*
X1107621Y115637D01*
X1109070Y119136D01*
X1109070Y122924D01*
X1107621Y126423D01*
X1104943Y129101D01*
X1101444Y130550D01*
X1097656Y130550D01*
X1094157Y129101D01*
X1091479Y126423D01*
X1090030Y122924D01*
X1090030Y119136D01*
X1091479Y115637D01*
X1094157Y112959D01*
X1097656Y111510D01*
G37*
G36*
X1072256Y111510D02*
X1076044Y111510D01*
X1079543Y112959D01*
X1082221Y115637D01*
X1083670Y119136D01*
X1083670Y122924D01*
X1082221Y126423D01*
X1079543Y129101D01*
X1076044Y130550D01*
X1072256Y130550D01*
X1068757Y129101D01*
X1066079Y126423D01*
X1064630Y122924D01*
X1064630Y119136D01*
X1066079Y115637D01*
X1068757Y112959D01*
X1072256Y111510D01*
G37*
G36*
X345088Y107181D02*
X348321Y107181D01*
X351309Y108418D01*
X353595Y110704D01*
X354833Y113692D01*
X354833Y116925D01*
X353595Y119913D01*
X351309Y122199D01*
X348321Y123437D01*
X345088Y123437D01*
X342100Y122199D01*
X339814Y119913D01*
X338577Y116925D01*
X338577Y113692D01*
X339814Y110704D01*
X342100Y108418D01*
X345088Y107181D01*
G37*
G36*
X324768Y107181D02*
X328001Y107181D01*
X330989Y108418D01*
X333275Y110704D01*
X334513Y113692D01*
X334513Y116925D01*
X333275Y119913D01*
X330989Y122199D01*
X328001Y123437D01*
X324768Y123437D01*
X321780Y122199D01*
X319494Y119913D01*
X318257Y116925D01*
X318257Y113692D01*
X319494Y110704D01*
X321780Y108418D01*
X324768Y107181D01*
G37*
G36*
X304448Y107181D02*
X307681Y107181D01*
X310669Y108418D01*
X312955Y110704D01*
X314193Y113692D01*
X314193Y116925D01*
X312955Y119913D01*
X310669Y122199D01*
X307681Y123437D01*
X304448Y123437D01*
X301460Y122199D01*
X299174Y119913D01*
X297937Y116925D01*
X297937Y113692D01*
X299174Y110704D01*
X301460Y108418D01*
X304448Y107181D01*
G37*
G36*
X284128Y107181D02*
X287361Y107181D01*
X290349Y108418D01*
X292635Y110704D01*
X293873Y113692D01*
X293873Y116925D01*
X292635Y119913D01*
X290349Y122199D01*
X287361Y123437D01*
X284128Y123437D01*
X281140Y122199D01*
X278854Y119913D01*
X277617Y116925D01*
X277617Y113692D01*
X278854Y110704D01*
X281140Y108418D01*
X284128Y107181D01*
G37*
G36*
X752988Y106951D02*
X756221Y106951D01*
X759209Y108188D01*
X761495Y110474D01*
X762733Y113462D01*
X762733Y116695D01*
X761495Y119683D01*
X759209Y121969D01*
X756221Y123207D01*
X752988Y123207D01*
X750000Y121969D01*
X747714Y119683D01*
X746477Y116695D01*
X746477Y113462D01*
X747714Y110474D01*
X750000Y108188D01*
X752988Y106951D01*
G37*
G36*
X692028Y106951D02*
X695261Y106951D01*
X698249Y108188D01*
X700535Y110474D01*
X701773Y113462D01*
X701773Y116695D01*
X700535Y119683D01*
X698249Y121969D01*
X695261Y123207D01*
X692028Y123207D01*
X689040Y121969D01*
X686754Y119683D01*
X685517Y116695D01*
X685517Y113462D01*
X686754Y110474D01*
X689040Y108188D01*
X692028Y106951D01*
G37*
G36*
X732668Y106951D02*
X735901Y106951D01*
X738889Y108188D01*
X741175Y110474D01*
X742413Y113462D01*
X742413Y116695D01*
X741175Y119683D01*
X738889Y121969D01*
X735901Y123207D01*
X732668Y123207D01*
X729680Y121969D01*
X727394Y119683D01*
X726157Y116695D01*
X726157Y113462D01*
X727394Y110474D01*
X729680Y108188D01*
X732668Y106951D01*
G37*
G36*
X712348Y106951D02*
X715581Y106951D01*
X718569Y108188D01*
X720855Y110474D01*
X722093Y113462D01*
X722093Y116695D01*
X720855Y119683D01*
X718569Y121969D01*
X715581Y123207D01*
X712348Y123207D01*
X709360Y121969D01*
X707074Y119683D01*
X705837Y116695D01*
X705837Y113462D01*
X707074Y110474D01*
X709360Y108188D01*
X712348Y106951D01*
G37*
G36*
X80502Y106755D02*
X83735Y106755D01*
X86723Y107992D01*
X89009Y110278D01*
X90247Y113266D01*
X90247Y116499D01*
X89009Y119487D01*
X86723Y121773D01*
X83735Y123011D01*
X80502Y123011D01*
X77514Y121773D01*
X75228Y119487D01*
X73991Y116499D01*
X73991Y113266D01*
X75228Y110278D01*
X77514Y107992D01*
X80502Y106755D01*
G37*
G36*
X141462Y106755D02*
X144695Y106755D01*
X147683Y107992D01*
X149969Y110278D01*
X151207Y113266D01*
X151207Y116499D01*
X149969Y119487D01*
X147683Y121773D01*
X144695Y123011D01*
X141462Y123011D01*
X138474Y121773D01*
X136188Y119487D01*
X134951Y116499D01*
X134951Y113266D01*
X136188Y110278D01*
X138474Y107992D01*
X141462Y106755D01*
G37*
G36*
X121142Y106755D02*
X124375Y106755D01*
X127363Y107992D01*
X129649Y110278D01*
X130887Y113266D01*
X130887Y116499D01*
X129649Y119487D01*
X127363Y121773D01*
X124375Y123011D01*
X121142Y123011D01*
X118154Y121773D01*
X115868Y119487D01*
X114631Y116499D01*
X114631Y113266D01*
X115868Y110278D01*
X118154Y107992D01*
X121142Y106755D01*
G37*
G36*
X100822Y106755D02*
X104055Y106755D01*
X107043Y107992D01*
X109329Y110278D01*
X110567Y113266D01*
X110567Y116499D01*
X109329Y119487D01*
X107043Y121773D01*
X104055Y123011D01*
X100822Y123011D01*
X97834Y121773D01*
X95548Y119487D01*
X94311Y116499D01*
X94311Y113266D01*
X95548Y110278D01*
X97834Y107992D01*
X100822Y106755D01*
G37*
G36*
X381361Y45969D02*
X388249Y45969D01*
X394902Y47751D01*
X400867Y51195D01*
X405738Y56066D01*
X409182Y62031D01*
X410965Y68685D01*
X410965Y75573D01*
X409182Y82226D01*
X405738Y88191D01*
X404781Y89148D01*
X404628Y89367D01*
X404558Y89662D01*
X404609Y89961D01*
X404773Y90217D01*
X405023Y90388D01*
X405320Y90449D01*
X406041Y90449D01*
X412021Y92926D01*
X416598Y97502D01*
X419075Y103482D01*
X419075Y109955D01*
X416598Y115935D01*
X412021Y120512D01*
X406041Y122989D01*
X399568Y122989D01*
X393588Y120512D01*
X389012Y115935D01*
X386535Y109955D01*
X386535Y103482D01*
X388249Y99342D01*
X388307Y99075D01*
X388256Y98776D01*
X388093Y98520D01*
X387843Y98349D01*
X387545Y98289D01*
X381361Y98289D01*
X374707Y96506D01*
X368742Y93062D01*
X363871Y88191D01*
X360427Y82226D01*
X358645Y75573D01*
X358645Y68685D01*
X360427Y62031D01*
X363871Y56066D01*
X368742Y51195D01*
X374707Y47751D01*
X381361Y45969D01*
G37*
G36*
X254361Y45969D02*
X261249Y45969D01*
X267902Y47751D01*
X273867Y51195D01*
X278738Y56066D01*
X282182Y62031D01*
X283965Y68685D01*
X283965Y75573D01*
X282182Y82226D01*
X278738Y88191D01*
X273867Y93062D01*
X267902Y96506D01*
X261249Y98289D01*
X255064Y98289D01*
X254795Y98338D01*
X254538Y98499D01*
X254364Y98748D01*
X254302Y99045D01*
X254360Y99342D01*
X256075Y103482D01*
X256075Y109955D01*
X253598Y115935D01*
X249021Y120512D01*
X243041Y122989D01*
X236568Y122989D01*
X230588Y120512D01*
X226012Y115935D01*
X223535Y109955D01*
X223535Y103482D01*
X226012Y97502D01*
X230588Y92926D01*
X236568Y90449D01*
X237289Y90449D01*
X237552Y90402D01*
X237810Y90242D01*
X237986Y89995D01*
X238051Y89699D01*
X237995Y89401D01*
X237828Y89148D01*
X236871Y88191D01*
X233427Y82226D01*
X231645Y75573D01*
X231645Y68685D01*
X233427Y62031D01*
X236871Y56066D01*
X241742Y51195D01*
X247707Y47751D01*
X254361Y45969D01*
G37*
G36*
X662261Y45739D02*
X669149Y45739D01*
X675802Y47521D01*
X681767Y50965D01*
X686638Y55836D01*
X690082Y61801D01*
X691865Y68455D01*
X691865Y75343D01*
X690082Y81996D01*
X686638Y87961D01*
X681767Y92832D01*
X675802Y96276D01*
X669149Y98059D01*
X662964Y98059D01*
X662695Y98108D01*
X662438Y98269D01*
X662264Y98518D01*
X662202Y98815D01*
X662260Y99112D01*
X663975Y103252D01*
X663975Y109725D01*
X661498Y115705D01*
X656921Y120282D01*
X650941Y122759D01*
X644468Y122759D01*
X638488Y120282D01*
X633912Y115705D01*
X631435Y109725D01*
X631435Y103252D01*
X633912Y97272D01*
X638488Y92696D01*
X644468Y90219D01*
X645189Y90219D01*
X645452Y90172D01*
X645710Y90012D01*
X645886Y89765D01*
X645951Y89469D01*
X645895Y89171D01*
X645728Y88918D01*
X644771Y87961D01*
X641327Y81996D01*
X639545Y75343D01*
X639545Y68455D01*
X641327Y61801D01*
X644771Y55836D01*
X649642Y50965D01*
X655607Y47521D01*
X662261Y45739D01*
G37*
G36*
X789261Y45739D02*
X796149Y45739D01*
X802802Y47521D01*
X808767Y50965D01*
X813638Y55836D01*
X817082Y61801D01*
X818865Y68455D01*
X818865Y75343D01*
X817082Y81996D01*
X813638Y87961D01*
X812681Y88918D01*
X812528Y89137D01*
X812458Y89432D01*
X812509Y89731D01*
X812673Y89987D01*
X812923Y90158D01*
X813220Y90219D01*
X813941Y90219D01*
X819921Y92696D01*
X824498Y97272D01*
X826975Y103252D01*
X826975Y109725D01*
X824498Y115705D01*
X819921Y120282D01*
X813941Y122759D01*
X807468Y122759D01*
X801488Y120282D01*
X796912Y115705D01*
X794435Y109725D01*
X794435Y103252D01*
X796149Y99112D01*
X796207Y98845D01*
X796156Y98546D01*
X795993Y98290D01*
X795743Y98119D01*
X795445Y98059D01*
X789261Y98059D01*
X782607Y96276D01*
X776642Y92832D01*
X771771Y87961D01*
X768327Y81996D01*
X766545Y75343D01*
X766545Y68455D01*
X768327Y61801D01*
X771771Y55836D01*
X776642Y50965D01*
X782607Y47521D01*
X789261Y45739D01*
G37*
G36*
X959497Y106450D02*
X962731Y106450D01*
X965718Y107687D01*
X968005Y109974D01*
X969242Y112961D01*
X969242Y116195D01*
X968005Y119182D01*
X965718Y121469D01*
X962731Y122706D01*
X959497Y122706D01*
X956510Y121469D01*
X954223Y119182D01*
X952986Y116195D01*
X952986Y112961D01*
X954223Y109974D01*
X956510Y107687D01*
X959497Y106450D01*
G37*
G36*
X506107Y106450D02*
X509341Y106450D01*
X512328Y107687D01*
X514615Y109974D01*
X515852Y112961D01*
X515852Y116195D01*
X514615Y119182D01*
X512328Y121469D01*
X509341Y122706D01*
X506107Y122706D01*
X503120Y121469D01*
X500833Y119182D01*
X499596Y116195D01*
X499596Y112961D01*
X500833Y109974D01*
X503120Y107687D01*
X506107Y106450D01*
G37*
G36*
X485787Y106450D02*
X489021Y106450D01*
X492008Y107687D01*
X494295Y109974D01*
X495532Y112961D01*
X495532Y116195D01*
X494295Y119182D01*
X492008Y121469D01*
X489021Y122706D01*
X485787Y122706D01*
X482800Y121469D01*
X480513Y119182D01*
X479276Y116195D01*
X479276Y112961D01*
X480513Y109974D01*
X482800Y107687D01*
X485787Y106450D01*
G37*
G36*
X526427Y106450D02*
X529661Y106450D01*
X532648Y107687D01*
X534935Y109974D01*
X536172Y112961D01*
X536172Y116195D01*
X534935Y119182D01*
X532648Y121469D01*
X529661Y122706D01*
X526427Y122706D01*
X523440Y121469D01*
X521153Y119182D01*
X519916Y116195D01*
X519916Y112961D01*
X521153Y109974D01*
X523440Y107687D01*
X526427Y106450D01*
G37*
G36*
X546747Y106450D02*
X549981Y106450D01*
X552968Y107687D01*
X555255Y109974D01*
X556492Y112961D01*
X556492Y116195D01*
X555255Y119182D01*
X552968Y121469D01*
X549981Y122706D01*
X546747Y122706D01*
X543760Y121469D01*
X541473Y119182D01*
X540236Y116195D01*
X540236Y112961D01*
X541473Y109974D01*
X543760Y107687D01*
X546747Y106450D01*
G37*
G36*
X898537Y106450D02*
X901771Y106450D01*
X904758Y107687D01*
X907045Y109974D01*
X908282Y112961D01*
X908282Y116195D01*
X907045Y119182D01*
X904758Y121469D01*
X901771Y122706D01*
X898537Y122706D01*
X895550Y121469D01*
X893263Y119182D01*
X892026Y116195D01*
X892026Y112961D01*
X893263Y109974D01*
X895550Y107687D01*
X898537Y106450D01*
G37*
G36*
X918857Y106450D02*
X922091Y106450D01*
X925078Y107687D01*
X927365Y109974D01*
X928602Y112961D01*
X928602Y116195D01*
X927365Y119182D01*
X925078Y121469D01*
X922091Y122706D01*
X918857Y122706D01*
X915870Y121469D01*
X913583Y119182D01*
X912346Y116195D01*
X912346Y112961D01*
X913583Y109974D01*
X915870Y107687D01*
X918857Y106450D01*
G37*
G36*
X939177Y106450D02*
X942411Y106450D01*
X945398Y107687D01*
X947685Y109974D01*
X948922Y112961D01*
X948922Y116195D01*
X947685Y119182D01*
X945398Y121469D01*
X942411Y122706D01*
X939177Y122706D01*
X936190Y121469D01*
X933903Y119182D01*
X932666Y116195D01*
X932666Y112961D01*
X933903Y109974D01*
X936190Y107687D01*
X939177Y106450D01*
G37*
G36*
X177735Y45543D02*
X184623Y45543D01*
X191276Y47325D01*
X197241Y50769D01*
X202112Y55640D01*
X205556Y61605D01*
X207339Y68259D01*
X207339Y75147D01*
X205556Y81800D01*
X202112Y87765D01*
X201155Y88722D01*
X201002Y88941D01*
X200932Y89236D01*
X200983Y89535D01*
X201147Y89791D01*
X201397Y89962D01*
X201694Y90023D01*
X202415Y90023D01*
X208395Y92500D01*
X212972Y97076D01*
X215449Y103056D01*
X215449Y109529D01*
X212972Y115509D01*
X208395Y120086D01*
X202415Y122563D01*
X195942Y122563D01*
X189962Y120086D01*
X185386Y115509D01*
X182909Y109529D01*
X182909Y103056D01*
X184624Y98916D01*
X184681Y98649D01*
X184630Y98350D01*
X184467Y98094D01*
X184217Y97923D01*
X183920Y97863D01*
X177735Y97863D01*
X171081Y96080D01*
X165116Y92636D01*
X160245Y87765D01*
X156801Y81800D01*
X155019Y75147D01*
X155019Y68259D01*
X156801Y61605D01*
X160245Y55640D01*
X165116Y50769D01*
X171081Y47325D01*
X177735Y45543D01*
G37*
G36*
X50735Y45543D02*
X57623Y45543D01*
X64276Y47325D01*
X70241Y50769D01*
X75112Y55640D01*
X78556Y61605D01*
X80339Y68259D01*
X80339Y75147D01*
X78556Y81800D01*
X75112Y87765D01*
X70241Y92636D01*
X64276Y96080D01*
X57623Y97863D01*
X51438Y97863D01*
X51169Y97912D01*
X50912Y98073D01*
X50739Y98322D01*
X50676Y98619D01*
X50734Y98916D01*
X52449Y103056D01*
X52449Y109529D01*
X49972Y115509D01*
X45395Y120086D01*
X39415Y122563D01*
X32942Y122563D01*
X26962Y120086D01*
X22386Y115509D01*
X19909Y109529D01*
X19909Y103056D01*
X22386Y97076D01*
X26962Y92500D01*
X32942Y90023D01*
X33663Y90023D01*
X33926Y89976D01*
X34185Y89816D01*
X34360Y89569D01*
X34425Y89273D01*
X34369Y88975D01*
X34202Y88722D01*
X33245Y87765D01*
X29801Y81800D01*
X28019Y75147D01*
X28019Y68259D01*
X29801Y61605D01*
X33245Y55640D01*
X38116Y50769D01*
X44081Y47325D01*
X50735Y45543D01*
G37*
G36*
X995770Y45238D02*
X1002658Y45238D01*
X1009311Y47021D01*
X1015277Y50465D01*
X1020147Y55335D01*
X1023591Y61301D01*
X1025374Y67954D01*
X1025374Y74842D01*
X1023591Y81495D01*
X1020147Y87461D01*
X1019191Y88417D01*
X1019038Y88637D01*
X1018968Y88932D01*
X1019019Y89231D01*
X1019182Y89486D01*
X1019432Y89658D01*
X1019729Y89718D01*
X1020450Y89718D01*
X1026430Y92195D01*
X1031007Y96772D01*
X1033484Y102752D01*
X1033484Y109224D01*
X1031007Y115204D01*
X1026430Y119781D01*
X1020450Y122258D01*
X1013978Y122258D01*
X1007998Y119781D01*
X1003421Y115204D01*
X1000944Y109224D01*
X1000944Y102752D01*
X1002659Y98612D01*
X1002717Y98344D01*
X1002666Y98045D01*
X1002502Y97790D01*
X1002252Y97618D01*
X1001955Y97558D01*
X995770Y97558D01*
X989117Y95775D01*
X983151Y92331D01*
X978281Y87461D01*
X974837Y81495D01*
X973054Y74842D01*
X973054Y67954D01*
X974837Y61301D01*
X978281Y55335D01*
X983151Y50465D01*
X989117Y47021D01*
X995770Y45238D01*
G37*
G36*
X868770Y45238D02*
X875658Y45238D01*
X882311Y47021D01*
X888277Y50465D01*
X893147Y55335D01*
X896591Y61301D01*
X898374Y67954D01*
X898374Y74842D01*
X896591Y81495D01*
X893147Y87461D01*
X888277Y92331D01*
X882311Y95775D01*
X875658Y97558D01*
X869473Y97558D01*
X869204Y97607D01*
X868947Y97768D01*
X868774Y98017D01*
X868711Y98314D01*
X868769Y98612D01*
X870484Y102752D01*
X870484Y109224D01*
X868007Y115204D01*
X863430Y119781D01*
X857450Y122258D01*
X850978Y122258D01*
X844998Y119781D01*
X840421Y115204D01*
X837944Y109224D01*
X837944Y102752D01*
X840421Y96772D01*
X844998Y92195D01*
X850978Y89718D01*
X851699Y89718D01*
X851962Y89671D01*
X852220Y89512D01*
X852395Y89264D01*
X852460Y88968D01*
X852405Y88670D01*
X852237Y88417D01*
X851281Y87461D01*
X847837Y81495D01*
X846054Y74842D01*
X846054Y67954D01*
X847837Y61301D01*
X851281Y55335D01*
X856151Y50465D01*
X862117Y47021D01*
X868770Y45238D01*
G37*
G36*
X583020Y45238D02*
X589908Y45238D01*
X596561Y47021D01*
X602527Y50465D01*
X607397Y55335D01*
X610841Y61301D01*
X612624Y67954D01*
X612624Y74842D01*
X610841Y81495D01*
X607397Y87461D01*
X606441Y88417D01*
X606288Y88637D01*
X606218Y88932D01*
X606269Y89231D01*
X606432Y89486D01*
X606682Y89658D01*
X606979Y89718D01*
X607700Y89718D01*
X613680Y92195D01*
X618257Y96772D01*
X620734Y102752D01*
X620734Y109224D01*
X618257Y115204D01*
X613680Y119781D01*
X607700Y122258D01*
X601228Y122258D01*
X595248Y119781D01*
X590671Y115204D01*
X588194Y109224D01*
X588194Y102752D01*
X589909Y98612D01*
X589967Y98344D01*
X589916Y98045D01*
X589752Y97790D01*
X589502Y97618D01*
X589205Y97558D01*
X583020Y97558D01*
X576367Y95775D01*
X570401Y92331D01*
X565531Y87461D01*
X562087Y81495D01*
X560304Y74842D01*
X560304Y67954D01*
X562087Y61301D01*
X565531Y55335D01*
X570401Y50465D01*
X576367Y47021D01*
X583020Y45238D01*
G37*
G36*
X456020Y45238D02*
X462908Y45238D01*
X469561Y47021D01*
X475527Y50465D01*
X480397Y55335D01*
X483841Y61301D01*
X485624Y67954D01*
X485624Y74842D01*
X483841Y81495D01*
X480397Y87461D01*
X475527Y92331D01*
X469561Y95775D01*
X462908Y97558D01*
X456723Y97558D01*
X456454Y97607D01*
X456197Y97768D01*
X456024Y98017D01*
X455961Y98314D01*
X456019Y98612D01*
X457734Y102752D01*
X457734Y109224D01*
X455257Y115204D01*
X450680Y119781D01*
X444700Y122258D01*
X438228Y122258D01*
X432248Y119781D01*
X427671Y115204D01*
X425194Y109224D01*
X425194Y102752D01*
X427671Y96772D01*
X432248Y92195D01*
X438228Y89718D01*
X438949Y89718D01*
X439212Y89671D01*
X439470Y89512D01*
X439645Y89264D01*
X439710Y88968D01*
X439655Y88670D01*
X439487Y88417D01*
X438531Y87461D01*
X435087Y81495D01*
X433304Y74842D01*
X433304Y67954D01*
X435087Y61301D01*
X438531Y55335D01*
X443401Y50465D01*
X449367Y47021D01*
X456020Y45238D01*
G37*
G36*
X306827Y98291D02*
X315463Y98291D01*
X315463Y106927D01*
X314355Y106927D01*
X310901Y105496D01*
X308257Y102852D01*
X306827Y99398D01*
X306827Y98291D01*
G37*
G36*
X316987Y98291D02*
X325623Y98291D01*
X325623Y99398D01*
X324192Y102852D01*
X321548Y105496D01*
X318094Y106927D01*
X316987Y106927D01*
X316987Y98291D01*
G37*
G36*
X714727Y98061D02*
X723363Y98061D01*
X723363Y106697D01*
X722255Y106697D01*
X718801Y105266D01*
X716157Y102622D01*
X714727Y99168D01*
X714727Y98061D01*
G37*
G36*
X724887Y98061D02*
X733523Y98061D01*
X733523Y99168D01*
X732092Y102622D01*
X729448Y105266D01*
X725994Y106697D01*
X724887Y106697D01*
X724887Y98061D01*
G37*
G36*
X103201Y97865D02*
X111837Y97865D01*
X111837Y106501D01*
X110729Y106501D01*
X107275Y105070D01*
X104631Y102426D01*
X103201Y98972D01*
X103201Y97865D01*
G37*
G36*
X113361Y97865D02*
X121997Y97865D01*
X121997Y98972D01*
X120566Y102426D01*
X117922Y105070D01*
X114468Y106501D01*
X113361Y106501D01*
X113361Y97865D01*
G37*
G36*
X518646Y97560D02*
X527282Y97560D01*
X527282Y98667D01*
X525851Y102122D01*
X523208Y104765D01*
X519753Y106196D01*
X518646Y106196D01*
X518646Y97560D01*
G37*
G36*
X508486Y97560D02*
X517122Y97560D01*
X517122Y106196D01*
X516015Y106196D01*
X512560Y104765D01*
X509917Y102122D01*
X508486Y98667D01*
X508486Y97560D01*
G37*
G36*
X921236Y97560D02*
X929872Y97560D01*
X929872Y106196D01*
X928765Y106196D01*
X925310Y104765D01*
X922667Y102122D01*
X921236Y98667D01*
X921236Y97560D01*
G37*
G36*
X931396Y97560D02*
X940032Y97560D01*
X940032Y98667D01*
X938601Y102122D01*
X935958Y104765D01*
X932503Y106196D01*
X931396Y106196D01*
X931396Y97560D01*
G37*
G36*
X355248Y89401D02*
X358481Y89401D01*
X361469Y90638D01*
X363755Y92924D01*
X364993Y95912D01*
X364993Y99145D01*
X363755Y102133D01*
X361469Y104419D01*
X358481Y105657D01*
X355248Y105657D01*
X352260Y104419D01*
X349974Y102133D01*
X348737Y99145D01*
X348737Y95912D01*
X349974Y92924D01*
X352260Y90638D01*
X355248Y89401D01*
G37*
G36*
X294288Y89401D02*
X297521Y89401D01*
X300509Y90638D01*
X302795Y92924D01*
X304033Y95912D01*
X304033Y99145D01*
X302795Y102133D01*
X300509Y104419D01*
X297521Y105657D01*
X294288Y105657D01*
X291300Y104419D01*
X289014Y102133D01*
X287777Y99145D01*
X287777Y95912D01*
X289014Y92924D01*
X291300Y90638D01*
X294288Y89401D01*
G37*
G36*
X334928Y89401D02*
X338161Y89401D01*
X341149Y90638D01*
X343435Y92924D01*
X344673Y95912D01*
X344673Y99145D01*
X343435Y102133D01*
X341149Y104419D01*
X338161Y105657D01*
X334928Y105657D01*
X331940Y104419D01*
X329654Y102133D01*
X328417Y99145D01*
X328417Y95912D01*
X329654Y92924D01*
X331940Y90638D01*
X334928Y89401D01*
G37*
G36*
X702188Y89171D02*
X705421Y89171D01*
X708409Y90408D01*
X710695Y92694D01*
X711933Y95682D01*
X711933Y98915D01*
X710695Y101903D01*
X708409Y104189D01*
X705421Y105427D01*
X702188Y105427D01*
X699200Y104189D01*
X696914Y101903D01*
X695677Y98915D01*
X695677Y95682D01*
X696914Y92694D01*
X699200Y90408D01*
X702188Y89171D01*
G37*
G36*
X763148Y89171D02*
X766381Y89171D01*
X769369Y90408D01*
X771655Y92694D01*
X772893Y95682D01*
X772893Y98915D01*
X771655Y101903D01*
X769369Y104189D01*
X766381Y105427D01*
X763148Y105427D01*
X760160Y104189D01*
X757874Y101903D01*
X756637Y98915D01*
X756637Y95682D01*
X757874Y92694D01*
X760160Y90408D01*
X763148Y89171D01*
G37*
G36*
X742828Y89171D02*
X746061Y89171D01*
X749049Y90408D01*
X751335Y92694D01*
X752573Y95682D01*
X752573Y98915D01*
X751335Y101903D01*
X749049Y104189D01*
X746061Y105427D01*
X742828Y105427D01*
X739840Y104189D01*
X737554Y101903D01*
X736317Y98915D01*
X736317Y95682D01*
X737554Y92694D01*
X739840Y90408D01*
X742828Y89171D01*
G37*
G36*
X131302Y88975D02*
X134535Y88975D01*
X137523Y90212D01*
X139809Y92498D01*
X141047Y95486D01*
X141047Y98719D01*
X139809Y101707D01*
X137523Y103993D01*
X134535Y105231D01*
X131302Y105231D01*
X128314Y103993D01*
X126028Y101707D01*
X124791Y98719D01*
X124791Y95486D01*
X126028Y92498D01*
X128314Y90212D01*
X131302Y88975D01*
G37*
G36*
X90662Y88975D02*
X93895Y88975D01*
X96883Y90212D01*
X99169Y92498D01*
X100407Y95486D01*
X100407Y98719D01*
X99169Y101707D01*
X96883Y103993D01*
X93895Y105231D01*
X90662Y105231D01*
X87674Y103993D01*
X85388Y101707D01*
X84151Y98719D01*
X84151Y95486D01*
X85388Y92498D01*
X87674Y90212D01*
X90662Y88975D01*
G37*
G36*
X151622Y88975D02*
X154855Y88975D01*
X157843Y90212D01*
X160129Y92498D01*
X161367Y95486D01*
X161367Y98719D01*
X160129Y101707D01*
X157843Y103993D01*
X154855Y105231D01*
X151622Y105231D01*
X148634Y103993D01*
X146348Y101707D01*
X145111Y98719D01*
X145111Y95486D01*
X146348Y92498D01*
X148634Y90212D01*
X151622Y88975D01*
G37*
G36*
X1072256Y86110D02*
X1076044Y86110D01*
X1079543Y87559D01*
X1082221Y90237D01*
X1083670Y93736D01*
X1083670Y97524D01*
X1082221Y101023D01*
X1079543Y103701D01*
X1076044Y105150D01*
X1072256Y105150D01*
X1068757Y103701D01*
X1066079Y101023D01*
X1064630Y97524D01*
X1064630Y93736D01*
X1066079Y90237D01*
X1068757Y87559D01*
X1072256Y86110D01*
G37*
G36*
X1097656Y86110D02*
X1101444Y86110D01*
X1104943Y87559D01*
X1107621Y90237D01*
X1109070Y93736D01*
X1109070Y97524D01*
X1107621Y101023D01*
X1104943Y103701D01*
X1101444Y105150D01*
X1097656Y105150D01*
X1094157Y103701D01*
X1091479Y101023D01*
X1090030Y97524D01*
X1090030Y93736D01*
X1091479Y90237D01*
X1094157Y87559D01*
X1097656Y86110D01*
G37*
G36*
X536587Y88670D02*
X539821Y88670D01*
X542808Y89907D01*
X545095Y92194D01*
X546332Y95181D01*
X546332Y98415D01*
X545095Y101402D01*
X542808Y103689D01*
X539821Y104926D01*
X536587Y104926D01*
X533600Y103689D01*
X531313Y101402D01*
X530076Y98415D01*
X530076Y95181D01*
X531313Y92194D01*
X533600Y89907D01*
X536587Y88670D01*
G37*
G36*
X556907Y88670D02*
X560141Y88670D01*
X563128Y89907D01*
X565415Y92194D01*
X566652Y95181D01*
X566652Y98415D01*
X565415Y101402D01*
X563128Y103689D01*
X560141Y104926D01*
X556907Y104926D01*
X553920Y103689D01*
X551633Y101402D01*
X550396Y98415D01*
X550396Y95181D01*
X551633Y92194D01*
X553920Y89907D01*
X556907Y88670D01*
G37*
G36*
X908697Y88670D02*
X911931Y88670D01*
X914918Y89907D01*
X917205Y92194D01*
X918442Y95181D01*
X918442Y98415D01*
X917205Y101402D01*
X914918Y103689D01*
X911931Y104926D01*
X908697Y104926D01*
X905710Y103689D01*
X903423Y101402D01*
X902186Y98415D01*
X902186Y95181D01*
X903423Y92194D01*
X905710Y89907D01*
X908697Y88670D01*
G37*
G36*
X949337Y88670D02*
X952571Y88670D01*
X955558Y89907D01*
X957845Y92194D01*
X959082Y95181D01*
X959082Y98415D01*
X957845Y101402D01*
X955558Y103689D01*
X952571Y104926D01*
X949337Y104926D01*
X946350Y103689D01*
X944063Y101402D01*
X942826Y98415D01*
X942826Y95181D01*
X944063Y92194D01*
X946350Y89907D01*
X949337Y88670D01*
G37*
G36*
X969657Y88670D02*
X972891Y88670D01*
X975878Y89907D01*
X978165Y92194D01*
X979402Y95181D01*
X979402Y98415D01*
X978165Y101402D01*
X975878Y103689D01*
X972891Y104926D01*
X969657Y104926D01*
X966670Y103689D01*
X964383Y101402D01*
X963146Y98415D01*
X963146Y95181D01*
X964383Y92194D01*
X966670Y89907D01*
X969657Y88670D01*
G37*
G36*
X495947Y88670D02*
X499181Y88670D01*
X502168Y89907D01*
X504455Y92194D01*
X505692Y95181D01*
X505692Y98415D01*
X504455Y101402D01*
X502168Y103689D01*
X499181Y104926D01*
X495947Y104926D01*
X492960Y103689D01*
X490673Y101402D01*
X489436Y98415D01*
X489436Y95181D01*
X490673Y92194D01*
X492960Y89907D01*
X495947Y88670D01*
G37*
G36*
X316987Y88131D02*
X318094Y88131D01*
X321548Y89561D01*
X324192Y92205D01*
X325623Y95659D01*
X325623Y96767D01*
X316987Y96767D01*
X316987Y88131D01*
G37*
G36*
X314355Y88131D02*
X315463Y88131D01*
X315463Y96767D01*
X306827Y96767D01*
X306827Y95659D01*
X308257Y92205D01*
X310901Y89561D01*
X314355Y88131D01*
G37*
G36*
X722255Y87901D02*
X723363Y87901D01*
X723363Y96537D01*
X714727Y96537D01*
X714727Y95429D01*
X716157Y91975D01*
X718801Y89331D01*
X722255Y87901D01*
G37*
G36*
X724887Y87901D02*
X725994Y87901D01*
X729448Y89331D01*
X732092Y91975D01*
X733523Y95429D01*
X733523Y96537D01*
X724887Y96537D01*
X724887Y87901D01*
G37*
G36*
X110729Y87705D02*
X111837Y87705D01*
X111837Y96341D01*
X103201Y96341D01*
X103201Y95233D01*
X104631Y91779D01*
X107275Y89135D01*
X110729Y87705D01*
G37*
G36*
X113361Y87705D02*
X114468Y87705D01*
X117922Y89135D01*
X120566Y91779D01*
X121997Y95233D01*
X121997Y96341D01*
X113361Y96341D01*
X113361Y87705D01*
G37*
G36*
X516015Y87400D02*
X517122Y87400D01*
X517122Y96036D01*
X508486Y96036D01*
X508486Y94929D01*
X509917Y91474D01*
X512560Y88831D01*
X516015Y87400D01*
G37*
G36*
X931396Y87400D02*
X932503Y87400D01*
X935958Y88831D01*
X938601Y91474D01*
X940032Y94929D01*
X940032Y96036D01*
X931396Y96036D01*
X931396Y87400D01*
G37*
G36*
X928765Y87400D02*
X929872Y87400D01*
X929872Y96036D01*
X921236Y96036D01*
X921236Y94929D01*
X922667Y91474D01*
X925310Y88831D01*
X928765Y87400D01*
G37*
G36*
X518646Y87400D02*
X519753Y87400D01*
X523208Y88831D01*
X525851Y91474D01*
X527282Y94929D01*
X527282Y96036D01*
X518646Y96036D01*
X518646Y87400D01*
G37*
G36*
X1194497Y80455D02*
X1197723Y80455D01*
X1200005Y82737D01*
X1200005Y85963D01*
X1197723Y88245D01*
X1194497Y88245D01*
X1192215Y85963D01*
X1192215Y82737D01*
X1194497Y80455D01*
G37*
G36*
X1304987Y79185D02*
X1308213Y79185D01*
X1310495Y81467D01*
X1310495Y84693D01*
X1308213Y86975D01*
X1304987Y86975D01*
X1302705Y84693D01*
X1302705Y81467D01*
X1304987Y79185D01*
G37*
%LPD*%
D10*
X967990Y326740D03*
X1002990Y326740D03*
D11*
X1396770Y569490D03*
X1396770Y594890D03*
X1396770Y620290D03*
X1396770Y645690D03*
X1396770Y671090D03*
X1396770Y696490D03*
X1396770Y721890D03*
X1396770Y747290D03*
X1269770Y569490D03*
X1269770Y594890D03*
X1269770Y620290D03*
X1269770Y645690D03*
X1269770Y671090D03*
X1269770Y696490D03*
X1269770Y721890D03*
X1269770Y747290D03*
D12*
X393470Y700300D03*
X368070Y700300D03*
D13*
X444270Y751100D03*
X342670Y751100D03*
D12*
X824000Y700300D03*
X798600Y700300D03*
D13*
X874800Y751100D03*
X773200Y751100D03*
D14*
X900154Y114578D03*
X920474Y114578D03*
X940794Y114578D03*
X961114Y114578D03*
X910314Y96798D03*
X930634Y96798D03*
X950954Y96798D03*
X971274Y96798D03*
D13*
X1017214Y105988D03*
X854214Y105988D03*
D14*
X693645Y115079D03*
X713965Y115079D03*
X734285Y115079D03*
X754605Y115079D03*
X703805Y97299D03*
X724125Y97299D03*
X744445Y97299D03*
X764765Y97299D03*
D13*
X810705Y106489D03*
X647705Y106489D03*
D14*
X487404Y114578D03*
X507724Y114578D03*
X528044Y114578D03*
X548364Y114578D03*
X497564Y96798D03*
X517884Y96798D03*
X538204Y96798D03*
X558524Y96798D03*
D13*
X604464Y105988D03*
X441464Y105988D03*
D14*
X285745Y115309D03*
X306065Y115309D03*
X326385Y115309D03*
X346705Y115309D03*
X295905Y97529D03*
X316225Y97529D03*
X336545Y97529D03*
X356865Y97529D03*
D13*
X402805Y106719D03*
X239805Y106719D03*
D14*
X82119Y114883D03*
X102439Y114883D03*
X122759Y114883D03*
X143079Y114883D03*
X92279Y97103D03*
X112599Y97103D03*
X132919Y97103D03*
X153239Y97103D03*
D13*
X199179Y106293D03*
X36179Y106293D03*
D14*
X103400Y329160D03*
X103400Y308840D03*
X103400Y288520D03*
X103400Y268200D03*
X85620Y319000D03*
X85620Y298680D03*
X85620Y278360D03*
X85620Y258040D03*
D13*
X94810Y212100D03*
X94810Y375100D03*
D14*
X103400Y534900D03*
X103400Y514580D03*
X103400Y494260D03*
X103400Y473940D03*
X85620Y524740D03*
X85620Y504420D03*
X85620Y484100D03*
X85620Y463780D03*
D13*
X94810Y417840D03*
X94810Y580840D03*
D14*
X103400Y735560D03*
X103400Y715240D03*
X103400Y694920D03*
X103400Y674600D03*
X85620Y725400D03*
X85620Y705080D03*
X85620Y684760D03*
X85620Y664440D03*
D13*
X94810Y618500D03*
X94810Y781500D03*
D15*
X964410Y804370D02*
X986410Y804370D01*
X929410Y782870D02*
X929410Y760870D01*
X964410Y743370D02*
X986410Y743370D01*
D16*
X1294870Y799870D03*
X1319870Y799870D03*
X1344870Y799870D03*
X1369870Y799870D03*
D10*
X857500Y328010D03*
X892500Y328010D03*
X748280Y328010D03*
X783280Y328010D03*
X967990Y460090D03*
X1002990Y460090D03*
X857500Y461360D03*
X892500Y461360D03*
X748280Y461360D03*
X783280Y461360D03*
X967990Y590900D03*
X1002990Y590900D03*
X857500Y590900D03*
X892500Y590900D03*
X748280Y590900D03*
X783280Y590900D03*
D12*
X611910Y700300D03*
X586510Y700300D03*
D13*
X662710Y751100D03*
X561110Y751100D03*
D17*
X1216430Y798090D03*
X1178330Y798090D03*
X1099550Y578230D03*
X1074150Y578230D03*
X1099550Y552830D03*
X1074150Y552830D03*
X1099550Y527430D03*
X1074150Y527430D03*
X1099550Y502030D03*
X1074150Y502030D03*
X1099550Y476630D03*
X1074150Y476630D03*
X1099550Y451230D03*
X1074150Y451230D03*
X1099550Y425830D03*
X1074150Y425830D03*
X1099550Y400430D03*
X1074150Y400430D03*
X1099550Y375030D03*
X1074150Y375030D03*
X1099550Y349630D03*
X1074150Y349630D03*
X1099550Y324230D03*
X1074150Y324230D03*
X1099550Y298830D03*
X1074150Y298830D03*
X1099550Y273430D03*
X1074150Y273430D03*
X1099550Y248030D03*
X1074150Y248030D03*
X1099550Y222630D03*
X1074150Y222630D03*
X1099550Y197230D03*
X1074150Y197230D03*
X1099550Y171830D03*
X1074150Y171830D03*
X1099550Y146430D03*
X1074150Y146430D03*
X1099550Y121030D03*
X1074150Y121030D03*
X1099550Y95630D03*
X1074150Y95630D03*
D11*
X653010Y552120D03*
X653010Y577520D03*
X653010Y602920D03*
D10*
X942650Y254700D03*
X1007650Y254700D03*
X1007650Y209700D03*
X942650Y209700D03*
X975150Y191200D03*
X828096Y254580D03*
X893096Y254580D03*
X893096Y209580D03*
X828096Y209580D03*
X860596Y191080D03*
X713256Y254088D03*
X778256Y254088D03*
X778256Y209088D03*
X713256Y209088D03*
X745756Y190588D03*
D18*
X1036090Y702840D03*
X1215160Y552980D03*
X1033582Y209400D03*
X1306600Y83080D03*
X1196110Y84350D03*
X650340Y418280D03*
X918520Y208130D03*
X1179830Y336880D03*
X1253490Y465150D03*
X1316990Y337820D03*
X803656Y256540D03*
X654812Y265176D03*
X654812Y295910D03*
X248920Y566420D03*
X196850Y560070D03*
X440690Y368300D03*
X450850Y368300D03*
X654812Y239353D03*
X421640Y603250D03*
X448310Y603250D03*
X474980Y603250D03*
X176530Y288290D03*
X208280Y287020D03*
X222250Y287020D03*
X351790Y369570D03*
X231140Y318770D03*
X180340Y433070D03*
X212090Y431800D03*
X228600Y431800D03*
X238760Y599440D03*
X259191Y521970D03*
X234950Y525780D03*
X256540Y688340D03*
X238760Y676910D03*
X241300Y435610D03*
X254000Y589280D03*
X259080Y444500D03*
X440690Y278130D03*
X440690Y267970D03*
X494030Y288290D03*
X444500Y436880D03*
X435610Y436880D03*
X439420Y461351D03*
X495300Y734060D03*
X607060Y655320D03*
X332470Y321310D03*
X613410Y309880D03*
X237166Y402266D03*
X180340Y377190D03*
X1316736Y210566D03*
X195665Y432308D03*
X193125Y287020D03*
X247905Y295910D03*
X238591Y295910D03*
X245621Y423161D03*
X256670Y423288D03*
X485140Y601980D03*
X683768Y277622D03*
X684784Y247650D03*
X684784Y219710D03*
X237211Y411201D03*
X458470Y603250D03*
X433070Y603250D03*
X250889Y323405D03*
X246380Y688340D03*
X186690Y542290D03*
X251460Y435610D03*
X458470Y259080D03*
X458470Y354330D03*
X445770Y551180D03*
X548640Y275590D03*
X541274Y452897D03*
X454553Y454660D03*
X558038Y547624D03*
X560070Y498856D03*
X150614Y382270D03*
X120650Y548640D03*
X887984Y170688D03*
X439453Y638777D03*
X439420Y658370D03*
X305054Y156718D03*
X678434Y165608D03*
X439453Y645297D03*
X318770Y662940D03*
X468884Y165608D03*
X439453Y651817D03*
X318770Y670560D03*
X318803Y684733D03*
X318770Y678180D03*
X773430Y533400D03*
X773430Y554990D03*
X505460Y495300D03*
X502920Y452120D03*
X586232Y591631D03*
X364490Y354330D03*
X515112Y421894D03*
X533646Y468876D03*
X381000Y316230D03*
X265346Y440111D03*
X232410Y444500D03*
X259191Y529695D03*
X224790Y525780D03*
X265057Y592315D03*
X140970Y541020D03*
X115570Y646007D03*
X788670Y444500D03*
X782320Y431800D03*
M02*
