G04 EAGLE Gerber RS-274X export*
G75*
%MOMM*%
%FSLAX34Y34*%
%LPD*%
%INTop Copper*%
%IPPOS*%
%AMOC8*
5,1,8,0,0,1.08239X$1,22.5*%
G01*
G04 Define Apertures*
%ADD10R,2.000000X1.500000*%
%ADD11R,2.715300X1.164600*%
%ADD12R,0.560000X0.629100*%
%ADD13R,0.629100X0.560000*%
%ADD14R,2.115300X4.415700*%
%ADD15R,1.500000X1.500000*%
%ADD16C,1.500000*%
%ADD17R,2.000000X0.600000*%
%ADD18R,0.600000X2.000000*%
%ADD19C,1.524000*%
%ADD20R,0.635000X1.270000*%
%ADD21R,1.270000X0.635000*%
%ADD22R,1.335000X1.335000*%
%ADD23C,1.335000*%
%ADD24C,3.000000*%
%ADD25C,1.524000*%
%ADD26R,1.524000X1.524000*%
%ADD27C,1.200000*%
%ADD28C,1.260000*%
%ADD29R,0.973900X0.798700*%
%ADD30R,0.798700X0.973900*%
%ADD31R,0.355600X1.409700*%
%ADD32R,1.000000X1.000000*%
%ADD33C,0.600000*%
%ADD34C,1.100000*%
%ADD35C,1.050000*%
%ADD36R,0.558800X1.981200*%
%ADD37R,1.650000X1.650000*%
%ADD38C,1.650000*%
%ADD39C,0.150000*%
%ADD40R,0.304800X1.168400*%
%ADD41C,0.147500*%
%ADD42C,0.203200*%
%ADD43C,0.152400*%
%ADD44C,2.540000*%
%ADD45C,0.525000*%
%ADD46C,0.812800*%
%ADD47C,0.508000*%
%ADD48C,1.270000*%
%ADD49C,0.609600*%
%ADD50C,0.406400*%
G36*
X1136808Y76100D02*
X1136808Y92200D01*
X1166862Y92200D01*
X1167389Y92131D01*
X1167884Y91926D01*
X1168308Y91600D01*
X1168634Y91175D01*
X1168839Y90681D01*
X1168908Y90153D01*
X1168908Y78147D01*
X1168839Y77619D01*
X1168634Y77125D01*
X1168308Y76700D01*
X1167884Y76374D01*
X1167389Y76169D01*
X1166862Y76100D01*
X1136808Y76100D01*
G37*
G36*
X1136808Y76100D02*
X1136808Y92200D01*
X1166862Y92200D01*
X1167389Y92131D01*
X1167884Y91926D01*
X1168308Y91600D01*
X1168634Y91175D01*
X1168839Y90681D01*
X1168908Y90153D01*
X1168908Y78147D01*
X1168839Y77619D01*
X1168634Y77125D01*
X1168308Y76700D01*
X1167884Y76374D01*
X1167389Y76169D01*
X1166862Y76100D01*
X1136808Y76100D01*
G37*
G36*
X1136808Y203100D02*
X1136808Y219200D01*
X1166862Y219200D01*
X1167389Y219131D01*
X1167884Y218926D01*
X1168308Y218600D01*
X1168634Y218175D01*
X1168839Y217681D01*
X1168908Y217153D01*
X1168908Y205147D01*
X1168839Y204619D01*
X1168634Y204125D01*
X1168308Y203700D01*
X1167884Y203374D01*
X1167389Y203169D01*
X1166862Y203100D01*
X1136808Y203100D01*
G37*
G36*
X1136808Y203100D02*
X1136808Y219200D01*
X1166862Y219200D01*
X1167389Y219131D01*
X1167884Y218926D01*
X1168308Y218600D01*
X1168634Y218175D01*
X1168839Y217681D01*
X1168908Y217153D01*
X1168908Y205147D01*
X1168839Y204619D01*
X1168634Y204125D01*
X1168308Y203700D01*
X1167884Y203374D01*
X1167389Y203169D01*
X1166862Y203100D01*
X1136808Y203100D01*
G37*
G36*
X1136808Y330100D02*
X1136808Y346200D01*
X1166862Y346200D01*
X1167389Y346131D01*
X1167884Y345926D01*
X1168308Y345600D01*
X1168634Y345175D01*
X1168839Y344681D01*
X1168908Y344153D01*
X1168908Y332147D01*
X1168839Y331619D01*
X1168634Y331125D01*
X1168308Y330700D01*
X1167884Y330374D01*
X1167389Y330169D01*
X1166862Y330100D01*
X1136808Y330100D01*
G37*
G36*
X1136808Y330100D02*
X1136808Y346200D01*
X1166862Y346200D01*
X1167389Y346131D01*
X1167884Y345926D01*
X1168308Y345600D01*
X1168634Y345175D01*
X1168839Y344681D01*
X1168908Y344153D01*
X1168908Y332147D01*
X1168839Y331619D01*
X1168634Y331125D01*
X1168308Y330700D01*
X1167884Y330374D01*
X1167389Y330169D01*
X1166862Y330100D01*
X1136808Y330100D01*
G37*
G36*
X1136808Y457100D02*
X1136808Y473200D01*
X1166862Y473200D01*
X1167389Y473131D01*
X1167884Y472926D01*
X1168308Y472600D01*
X1168634Y472175D01*
X1168839Y471681D01*
X1168908Y471153D01*
X1168908Y459147D01*
X1168839Y458619D01*
X1168634Y458125D01*
X1168308Y457700D01*
X1167884Y457374D01*
X1167389Y457169D01*
X1166862Y457100D01*
X1136808Y457100D01*
G37*
G36*
X1136808Y457100D02*
X1136808Y473200D01*
X1166862Y473200D01*
X1167389Y473131D01*
X1167884Y472926D01*
X1168308Y472600D01*
X1168634Y472175D01*
X1168839Y471681D01*
X1168908Y471153D01*
X1168908Y459147D01*
X1168839Y458619D01*
X1168634Y458125D01*
X1168308Y457700D01*
X1167884Y457374D01*
X1167389Y457169D01*
X1166862Y457100D01*
X1136808Y457100D01*
G37*
G36*
X1241708Y507647D02*
X1241708Y537700D01*
X1257808Y537700D01*
X1257808Y507647D01*
X1257739Y507119D01*
X1257534Y506625D01*
X1257208Y506200D01*
X1256784Y505874D01*
X1256289Y505669D01*
X1255762Y505600D01*
X1243755Y505600D01*
X1243228Y505669D01*
X1242733Y505874D01*
X1242309Y506200D01*
X1241983Y506625D01*
X1241778Y507119D01*
X1241708Y507647D01*
G37*
G36*
X1241708Y507647D02*
X1241708Y537700D01*
X1257808Y537700D01*
X1257808Y507647D01*
X1257739Y507119D01*
X1257534Y506625D01*
X1257208Y506200D01*
X1256784Y505874D01*
X1256289Y505669D01*
X1255762Y505600D01*
X1243755Y505600D01*
X1243228Y505669D01*
X1242733Y505874D01*
X1242309Y506200D01*
X1241983Y506625D01*
X1241778Y507119D01*
X1241708Y507647D01*
G37*
G36*
X1332128Y92131D02*
X1332655Y92200D01*
X1362708Y92200D01*
X1362708Y76100D01*
X1332655Y76100D01*
X1332128Y76169D01*
X1331633Y76374D01*
X1331209Y76700D01*
X1330883Y77125D01*
X1330678Y77619D01*
X1330608Y78147D01*
X1330608Y90153D01*
X1330678Y90681D01*
X1330883Y91175D01*
X1331209Y91600D01*
X1331633Y91926D01*
X1332128Y92131D01*
G37*
G36*
X1332128Y92131D02*
X1332655Y92200D01*
X1362708Y92200D01*
X1362708Y76100D01*
X1332655Y76100D01*
X1332128Y76169D01*
X1331633Y76374D01*
X1331209Y76700D01*
X1330883Y77125D01*
X1330678Y77619D01*
X1330608Y78147D01*
X1330608Y90153D01*
X1330678Y90681D01*
X1330883Y91175D01*
X1331209Y91600D01*
X1331633Y91926D01*
X1332128Y92131D01*
G37*
G36*
X1332128Y219131D02*
X1332655Y219200D01*
X1362708Y219200D01*
X1362708Y203100D01*
X1332655Y203100D01*
X1332128Y203169D01*
X1331633Y203374D01*
X1331209Y203700D01*
X1330883Y204125D01*
X1330678Y204619D01*
X1330608Y205147D01*
X1330608Y217153D01*
X1330678Y217681D01*
X1330883Y218175D01*
X1331209Y218600D01*
X1331633Y218926D01*
X1332128Y219131D01*
G37*
G36*
X1332128Y219131D02*
X1332655Y219200D01*
X1362708Y219200D01*
X1362708Y203100D01*
X1332655Y203100D01*
X1332128Y203169D01*
X1331633Y203374D01*
X1331209Y203700D01*
X1330883Y204125D01*
X1330678Y204619D01*
X1330608Y205147D01*
X1330608Y217153D01*
X1330678Y217681D01*
X1330883Y218175D01*
X1331209Y218600D01*
X1331633Y218926D01*
X1332128Y219131D01*
G37*
G36*
X1332128Y346131D02*
X1332655Y346200D01*
X1362708Y346200D01*
X1362708Y330100D01*
X1332655Y330100D01*
X1332128Y330169D01*
X1331633Y330374D01*
X1331209Y330700D01*
X1330883Y331125D01*
X1330678Y331619D01*
X1330608Y332147D01*
X1330608Y344153D01*
X1330678Y344681D01*
X1330883Y345175D01*
X1331209Y345600D01*
X1331633Y345926D01*
X1332128Y346131D01*
G37*
G36*
X1332128Y346131D02*
X1332655Y346200D01*
X1362708Y346200D01*
X1362708Y330100D01*
X1332655Y330100D01*
X1332128Y330169D01*
X1331633Y330374D01*
X1331209Y330700D01*
X1330883Y331125D01*
X1330678Y331619D01*
X1330608Y332147D01*
X1330608Y344153D01*
X1330678Y344681D01*
X1330883Y345175D01*
X1331209Y345600D01*
X1331633Y345926D01*
X1332128Y346131D01*
G37*
G36*
X1332128Y473131D02*
X1332655Y473200D01*
X1362708Y473200D01*
X1362708Y457100D01*
X1332655Y457100D01*
X1332128Y457169D01*
X1331633Y457374D01*
X1331209Y457700D01*
X1330883Y458125D01*
X1330678Y458619D01*
X1330608Y459147D01*
X1330608Y471153D01*
X1330678Y471681D01*
X1330883Y472175D01*
X1331209Y472600D01*
X1331633Y472926D01*
X1332128Y473131D01*
G37*
G36*
X1332128Y473131D02*
X1332655Y473200D01*
X1362708Y473200D01*
X1362708Y457100D01*
X1332655Y457100D01*
X1332128Y457169D01*
X1331633Y457374D01*
X1331209Y457700D01*
X1330883Y458125D01*
X1330678Y458619D01*
X1330608Y459147D01*
X1330608Y471153D01*
X1330678Y471681D01*
X1330883Y472175D01*
X1331209Y472600D01*
X1331633Y472926D01*
X1332128Y473131D01*
G37*
G36*
X1136808Y25300D02*
X1136808Y41400D01*
X1160861Y41400D01*
X1162429Y41246D01*
X1163939Y40787D01*
X1165331Y40044D01*
X1166551Y39042D01*
X1167552Y37822D01*
X1168296Y36431D01*
X1168754Y34921D01*
X1168909Y33350D01*
X1168754Y31779D01*
X1168296Y30269D01*
X1167552Y28878D01*
X1166551Y27658D01*
X1165331Y26656D01*
X1163939Y25913D01*
X1162429Y25454D01*
X1160861Y25300D01*
X1136808Y25300D01*
G37*
G36*
X1136808Y25300D02*
X1136808Y41400D01*
X1160861Y41400D01*
X1162429Y41246D01*
X1163939Y40787D01*
X1165331Y40044D01*
X1166551Y39042D01*
X1167552Y37822D01*
X1168296Y36431D01*
X1168754Y34921D01*
X1168909Y33350D01*
X1168754Y31779D01*
X1168296Y30269D01*
X1167552Y28878D01*
X1166551Y27658D01*
X1165331Y26656D01*
X1163939Y25913D01*
X1162429Y25454D01*
X1160861Y25300D01*
X1136808Y25300D01*
G37*
G36*
X1136808Y50700D02*
X1136808Y66800D01*
X1160861Y66800D01*
X1162429Y66646D01*
X1163939Y66187D01*
X1165331Y65444D01*
X1166551Y64442D01*
X1167552Y63222D01*
X1168296Y61831D01*
X1168754Y60321D01*
X1168909Y58750D01*
X1168754Y57179D01*
X1168296Y55669D01*
X1167552Y54278D01*
X1166551Y53058D01*
X1165331Y52056D01*
X1163939Y51313D01*
X1162429Y50854D01*
X1160861Y50700D01*
X1136808Y50700D01*
G37*
G36*
X1136808Y50700D02*
X1136808Y66800D01*
X1160861Y66800D01*
X1162429Y66646D01*
X1163939Y66187D01*
X1165331Y65444D01*
X1166551Y64442D01*
X1167552Y63222D01*
X1168296Y61831D01*
X1168754Y60321D01*
X1168909Y58750D01*
X1168754Y57179D01*
X1168296Y55669D01*
X1167552Y54278D01*
X1166551Y53058D01*
X1165331Y52056D01*
X1163939Y51313D01*
X1162429Y50854D01*
X1160861Y50700D01*
X1136808Y50700D01*
G37*
G36*
X1136808Y101500D02*
X1136808Y117600D01*
X1160861Y117600D01*
X1162429Y117446D01*
X1163939Y116987D01*
X1165331Y116244D01*
X1166551Y115242D01*
X1167552Y114022D01*
X1168296Y112631D01*
X1168754Y111121D01*
X1168909Y109550D01*
X1168754Y107979D01*
X1168296Y106469D01*
X1167552Y105078D01*
X1166551Y103858D01*
X1165331Y102856D01*
X1163939Y102113D01*
X1162429Y101654D01*
X1160861Y101500D01*
X1136808Y101500D01*
G37*
G36*
X1136808Y101500D02*
X1136808Y117600D01*
X1160861Y117600D01*
X1162429Y117446D01*
X1163939Y116987D01*
X1165331Y116244D01*
X1166551Y115242D01*
X1167552Y114022D01*
X1168296Y112631D01*
X1168754Y111121D01*
X1168909Y109550D01*
X1168754Y107979D01*
X1168296Y106469D01*
X1167552Y105078D01*
X1166551Y103858D01*
X1165331Y102856D01*
X1163939Y102113D01*
X1162429Y101654D01*
X1160861Y101500D01*
X1136808Y101500D01*
G37*
G36*
X1136808Y126900D02*
X1136808Y143000D01*
X1160861Y143000D01*
X1162429Y142846D01*
X1163939Y142387D01*
X1165331Y141644D01*
X1166551Y140642D01*
X1167552Y139422D01*
X1168296Y138031D01*
X1168754Y136521D01*
X1168909Y134950D01*
X1168754Y133379D01*
X1168296Y131869D01*
X1167552Y130478D01*
X1166551Y129258D01*
X1165331Y128256D01*
X1163939Y127513D01*
X1162429Y127054D01*
X1160861Y126900D01*
X1136808Y126900D01*
G37*
G36*
X1136808Y126900D02*
X1136808Y143000D01*
X1160861Y143000D01*
X1162429Y142846D01*
X1163939Y142387D01*
X1165331Y141644D01*
X1166551Y140642D01*
X1167552Y139422D01*
X1168296Y138031D01*
X1168754Y136521D01*
X1168909Y134950D01*
X1168754Y133379D01*
X1168296Y131869D01*
X1167552Y130478D01*
X1166551Y129258D01*
X1165331Y128256D01*
X1163939Y127513D01*
X1162429Y127054D01*
X1160861Y126900D01*
X1136808Y126900D01*
G37*
G36*
X1136808Y152300D02*
X1136808Y168400D01*
X1160861Y168400D01*
X1162429Y168246D01*
X1163939Y167787D01*
X1165331Y167044D01*
X1166551Y166042D01*
X1167552Y164822D01*
X1168296Y163431D01*
X1168754Y161921D01*
X1168909Y160350D01*
X1168754Y158779D01*
X1168296Y157269D01*
X1167552Y155878D01*
X1166551Y154658D01*
X1165331Y153656D01*
X1163939Y152913D01*
X1162429Y152454D01*
X1160861Y152300D01*
X1136808Y152300D01*
G37*
G36*
X1136808Y152300D02*
X1136808Y168400D01*
X1160861Y168400D01*
X1162429Y168246D01*
X1163939Y167787D01*
X1165331Y167044D01*
X1166551Y166042D01*
X1167552Y164822D01*
X1168296Y163431D01*
X1168754Y161921D01*
X1168909Y160350D01*
X1168754Y158779D01*
X1168296Y157269D01*
X1167552Y155878D01*
X1166551Y154658D01*
X1165331Y153656D01*
X1163939Y152913D01*
X1162429Y152454D01*
X1160861Y152300D01*
X1136808Y152300D01*
G37*
G36*
X1136808Y177700D02*
X1136808Y193800D01*
X1160861Y193800D01*
X1162429Y193646D01*
X1163939Y193187D01*
X1165331Y192444D01*
X1166551Y191442D01*
X1167552Y190222D01*
X1168296Y188831D01*
X1168754Y187321D01*
X1168909Y185750D01*
X1168754Y184179D01*
X1168296Y182669D01*
X1167552Y181278D01*
X1166551Y180058D01*
X1165331Y179056D01*
X1163939Y178313D01*
X1162429Y177854D01*
X1160861Y177700D01*
X1136808Y177700D01*
G37*
G36*
X1136808Y177700D02*
X1136808Y193800D01*
X1160861Y193800D01*
X1162429Y193646D01*
X1163939Y193187D01*
X1165331Y192444D01*
X1166551Y191442D01*
X1167552Y190222D01*
X1168296Y188831D01*
X1168754Y187321D01*
X1168909Y185750D01*
X1168754Y184179D01*
X1168296Y182669D01*
X1167552Y181278D01*
X1166551Y180058D01*
X1165331Y179056D01*
X1163939Y178313D01*
X1162429Y177854D01*
X1160861Y177700D01*
X1136808Y177700D01*
G37*
G36*
X1136808Y228500D02*
X1136808Y244600D01*
X1160861Y244600D01*
X1162429Y244446D01*
X1163939Y243987D01*
X1165331Y243244D01*
X1166551Y242242D01*
X1167552Y241022D01*
X1168296Y239631D01*
X1168754Y238121D01*
X1168909Y236550D01*
X1168754Y234979D01*
X1168296Y233469D01*
X1167552Y232078D01*
X1166551Y230858D01*
X1165331Y229856D01*
X1163939Y229113D01*
X1162429Y228654D01*
X1160861Y228500D01*
X1136808Y228500D01*
G37*
G36*
X1136808Y228500D02*
X1136808Y244600D01*
X1160861Y244600D01*
X1162429Y244446D01*
X1163939Y243987D01*
X1165331Y243244D01*
X1166551Y242242D01*
X1167552Y241022D01*
X1168296Y239631D01*
X1168754Y238121D01*
X1168909Y236550D01*
X1168754Y234979D01*
X1168296Y233469D01*
X1167552Y232078D01*
X1166551Y230858D01*
X1165331Y229856D01*
X1163939Y229113D01*
X1162429Y228654D01*
X1160861Y228500D01*
X1136808Y228500D01*
G37*
G36*
X1136808Y253900D02*
X1136808Y270000D01*
X1160861Y270000D01*
X1162429Y269846D01*
X1163939Y269387D01*
X1165331Y268644D01*
X1166551Y267642D01*
X1167552Y266422D01*
X1168296Y265031D01*
X1168754Y263521D01*
X1168909Y261950D01*
X1168754Y260379D01*
X1168296Y258869D01*
X1167552Y257478D01*
X1166551Y256258D01*
X1165331Y255256D01*
X1163939Y254513D01*
X1162429Y254054D01*
X1160861Y253900D01*
X1136808Y253900D01*
G37*
G36*
X1136808Y253900D02*
X1136808Y270000D01*
X1160861Y270000D01*
X1162429Y269846D01*
X1163939Y269387D01*
X1165331Y268644D01*
X1166551Y267642D01*
X1167552Y266422D01*
X1168296Y265031D01*
X1168754Y263521D01*
X1168909Y261950D01*
X1168754Y260379D01*
X1168296Y258869D01*
X1167552Y257478D01*
X1166551Y256258D01*
X1165331Y255256D01*
X1163939Y254513D01*
X1162429Y254054D01*
X1160861Y253900D01*
X1136808Y253900D01*
G37*
G36*
X1136808Y279300D02*
X1136808Y295400D01*
X1160861Y295400D01*
X1162429Y295246D01*
X1163939Y294787D01*
X1165331Y294044D01*
X1166551Y293042D01*
X1167552Y291822D01*
X1168296Y290431D01*
X1168754Y288921D01*
X1168909Y287350D01*
X1168754Y285779D01*
X1168296Y284269D01*
X1167552Y282878D01*
X1166551Y281658D01*
X1165331Y280656D01*
X1163939Y279913D01*
X1162429Y279454D01*
X1160861Y279300D01*
X1136808Y279300D01*
G37*
G36*
X1136808Y279300D02*
X1136808Y295400D01*
X1160861Y295400D01*
X1162429Y295246D01*
X1163939Y294787D01*
X1165331Y294044D01*
X1166551Y293042D01*
X1167552Y291822D01*
X1168296Y290431D01*
X1168754Y288921D01*
X1168909Y287350D01*
X1168754Y285779D01*
X1168296Y284269D01*
X1167552Y282878D01*
X1166551Y281658D01*
X1165331Y280656D01*
X1163939Y279913D01*
X1162429Y279454D01*
X1160861Y279300D01*
X1136808Y279300D01*
G37*
G36*
X1136808Y304700D02*
X1136808Y320800D01*
X1160861Y320800D01*
X1162429Y320646D01*
X1163939Y320187D01*
X1165331Y319444D01*
X1166551Y318442D01*
X1167552Y317222D01*
X1168296Y315831D01*
X1168754Y314321D01*
X1168909Y312750D01*
X1168754Y311179D01*
X1168296Y309669D01*
X1167552Y308278D01*
X1166551Y307058D01*
X1165331Y306056D01*
X1163939Y305313D01*
X1162429Y304854D01*
X1160861Y304700D01*
X1136808Y304700D01*
G37*
G36*
X1136808Y304700D02*
X1136808Y320800D01*
X1160861Y320800D01*
X1162429Y320646D01*
X1163939Y320187D01*
X1165331Y319444D01*
X1166551Y318442D01*
X1167552Y317222D01*
X1168296Y315831D01*
X1168754Y314321D01*
X1168909Y312750D01*
X1168754Y311179D01*
X1168296Y309669D01*
X1167552Y308278D01*
X1166551Y307058D01*
X1165331Y306056D01*
X1163939Y305313D01*
X1162429Y304854D01*
X1160861Y304700D01*
X1136808Y304700D01*
G37*
G36*
X1136808Y355500D02*
X1136808Y371600D01*
X1160861Y371600D01*
X1162429Y371446D01*
X1163939Y370987D01*
X1165331Y370244D01*
X1166551Y369242D01*
X1167552Y368022D01*
X1168296Y366631D01*
X1168754Y365121D01*
X1168909Y363550D01*
X1168754Y361979D01*
X1168296Y360469D01*
X1167552Y359078D01*
X1166551Y357858D01*
X1165331Y356856D01*
X1163939Y356113D01*
X1162429Y355654D01*
X1160861Y355500D01*
X1136808Y355500D01*
G37*
G36*
X1136808Y355500D02*
X1136808Y371600D01*
X1160861Y371600D01*
X1162429Y371446D01*
X1163939Y370987D01*
X1165331Y370244D01*
X1166551Y369242D01*
X1167552Y368022D01*
X1168296Y366631D01*
X1168754Y365121D01*
X1168909Y363550D01*
X1168754Y361979D01*
X1168296Y360469D01*
X1167552Y359078D01*
X1166551Y357858D01*
X1165331Y356856D01*
X1163939Y356113D01*
X1162429Y355654D01*
X1160861Y355500D01*
X1136808Y355500D01*
G37*
G36*
X1136808Y380900D02*
X1136808Y397000D01*
X1160861Y397000D01*
X1162429Y396846D01*
X1163939Y396387D01*
X1165331Y395644D01*
X1166551Y394642D01*
X1167552Y393422D01*
X1168296Y392031D01*
X1168754Y390521D01*
X1168909Y388950D01*
X1168754Y387379D01*
X1168296Y385869D01*
X1167552Y384478D01*
X1166551Y383258D01*
X1165331Y382256D01*
X1163939Y381513D01*
X1162429Y381054D01*
X1160861Y380900D01*
X1136808Y380900D01*
G37*
G36*
X1136808Y380900D02*
X1136808Y397000D01*
X1160861Y397000D01*
X1162429Y396846D01*
X1163939Y396387D01*
X1165331Y395644D01*
X1166551Y394642D01*
X1167552Y393422D01*
X1168296Y392031D01*
X1168754Y390521D01*
X1168909Y388950D01*
X1168754Y387379D01*
X1168296Y385869D01*
X1167552Y384478D01*
X1166551Y383258D01*
X1165331Y382256D01*
X1163939Y381513D01*
X1162429Y381054D01*
X1160861Y380900D01*
X1136808Y380900D01*
G37*
G36*
X1136808Y406300D02*
X1136808Y422400D01*
X1160861Y422400D01*
X1162429Y422246D01*
X1163939Y421787D01*
X1165331Y421044D01*
X1166551Y420042D01*
X1167552Y418822D01*
X1168296Y417431D01*
X1168754Y415921D01*
X1168909Y414350D01*
X1168754Y412779D01*
X1168296Y411269D01*
X1167552Y409878D01*
X1166551Y408658D01*
X1165331Y407656D01*
X1163939Y406913D01*
X1162429Y406454D01*
X1160861Y406300D01*
X1136808Y406300D01*
G37*
G36*
X1136808Y406300D02*
X1136808Y422400D01*
X1160861Y422400D01*
X1162429Y422246D01*
X1163939Y421787D01*
X1165331Y421044D01*
X1166551Y420042D01*
X1167552Y418822D01*
X1168296Y417431D01*
X1168754Y415921D01*
X1168909Y414350D01*
X1168754Y412779D01*
X1168296Y411269D01*
X1167552Y409878D01*
X1166551Y408658D01*
X1165331Y407656D01*
X1163939Y406913D01*
X1162429Y406454D01*
X1160861Y406300D01*
X1136808Y406300D01*
G37*
G36*
X1136808Y431700D02*
X1136808Y447800D01*
X1160861Y447800D01*
X1162429Y447646D01*
X1163939Y447187D01*
X1165331Y446444D01*
X1166551Y445442D01*
X1167552Y444222D01*
X1168296Y442831D01*
X1168754Y441321D01*
X1168909Y439750D01*
X1168754Y438179D01*
X1168296Y436669D01*
X1167552Y435278D01*
X1166551Y434058D01*
X1165331Y433056D01*
X1163939Y432313D01*
X1162429Y431854D01*
X1160861Y431700D01*
X1136808Y431700D01*
G37*
G36*
X1136808Y431700D02*
X1136808Y447800D01*
X1160861Y447800D01*
X1162429Y447646D01*
X1163939Y447187D01*
X1165331Y446444D01*
X1166551Y445442D01*
X1167552Y444222D01*
X1168296Y442831D01*
X1168754Y441321D01*
X1168909Y439750D01*
X1168754Y438179D01*
X1168296Y436669D01*
X1167552Y435278D01*
X1166551Y434058D01*
X1165331Y433056D01*
X1163939Y432313D01*
X1162429Y431854D01*
X1160861Y431700D01*
X1136808Y431700D01*
G37*
G36*
X1136808Y482500D02*
X1136808Y498600D01*
X1160861Y498600D01*
X1162429Y498446D01*
X1163939Y497987D01*
X1165331Y497244D01*
X1166551Y496242D01*
X1167552Y495022D01*
X1168296Y493631D01*
X1168754Y492121D01*
X1168909Y490550D01*
X1168754Y488979D01*
X1168296Y487469D01*
X1167552Y486078D01*
X1166551Y484858D01*
X1165331Y483856D01*
X1163939Y483113D01*
X1162429Y482654D01*
X1160861Y482500D01*
X1136808Y482500D01*
G37*
G36*
X1136808Y482500D02*
X1136808Y498600D01*
X1160861Y498600D01*
X1162429Y498446D01*
X1163939Y497987D01*
X1165331Y497244D01*
X1166551Y496242D01*
X1167552Y495022D01*
X1168296Y493631D01*
X1168754Y492121D01*
X1168909Y490550D01*
X1168754Y488979D01*
X1168296Y487469D01*
X1167552Y486078D01*
X1166551Y484858D01*
X1165331Y483856D01*
X1163939Y483113D01*
X1162429Y482654D01*
X1160861Y482500D01*
X1136808Y482500D01*
G37*
G36*
X1136808Y507900D02*
X1136808Y524000D01*
X1160861Y524000D01*
X1162429Y523846D01*
X1163939Y523387D01*
X1165331Y522644D01*
X1166551Y521642D01*
X1167552Y520422D01*
X1168296Y519031D01*
X1168754Y517521D01*
X1168909Y515950D01*
X1168754Y514379D01*
X1168296Y512869D01*
X1167552Y511478D01*
X1166551Y510258D01*
X1165331Y509256D01*
X1163939Y508513D01*
X1162429Y508054D01*
X1160861Y507900D01*
X1136808Y507900D01*
G37*
G36*
X1136808Y507900D02*
X1136808Y524000D01*
X1160861Y524000D01*
X1162429Y523846D01*
X1163939Y523387D01*
X1165331Y522644D01*
X1166551Y521642D01*
X1167552Y520422D01*
X1168296Y519031D01*
X1168754Y517521D01*
X1168909Y515950D01*
X1168754Y514379D01*
X1168296Y512869D01*
X1167552Y511478D01*
X1166551Y510258D01*
X1165331Y509256D01*
X1163939Y508513D01*
X1162429Y508054D01*
X1160861Y507900D01*
X1136808Y507900D01*
G37*
G36*
X1216308Y513648D02*
X1216308Y537700D01*
X1232408Y537700D01*
X1232408Y513648D01*
X1232254Y512079D01*
X1231796Y510569D01*
X1231052Y509178D01*
X1230051Y507958D01*
X1228831Y506956D01*
X1227439Y506213D01*
X1225929Y505754D01*
X1224358Y505600D01*
X1222788Y505754D01*
X1221278Y506213D01*
X1219886Y506956D01*
X1218666Y507958D01*
X1217665Y509178D01*
X1216921Y510569D01*
X1216463Y512079D01*
X1216308Y513648D01*
G37*
G36*
X1216308Y513648D02*
X1216308Y537700D01*
X1232408Y537700D01*
X1232408Y513648D01*
X1232254Y512079D01*
X1231796Y510569D01*
X1231052Y509178D01*
X1230051Y507958D01*
X1228831Y506956D01*
X1227439Y506213D01*
X1225929Y505754D01*
X1224358Y505600D01*
X1222788Y505754D01*
X1221278Y506213D01*
X1219886Y506956D01*
X1218666Y507958D01*
X1217665Y509178D01*
X1216921Y510569D01*
X1216463Y512079D01*
X1216308Y513648D01*
G37*
G36*
X1267108Y513648D02*
X1267108Y537700D01*
X1283208Y537700D01*
X1283208Y513648D01*
X1283054Y512079D01*
X1282596Y510569D01*
X1281852Y509178D01*
X1280851Y507958D01*
X1279631Y506956D01*
X1278239Y506213D01*
X1276729Y505754D01*
X1275158Y505600D01*
X1273588Y505754D01*
X1272078Y506213D01*
X1270686Y506956D01*
X1269466Y507958D01*
X1268465Y509178D01*
X1267721Y510569D01*
X1267263Y512079D01*
X1267108Y513648D01*
G37*
G36*
X1267108Y513648D02*
X1267108Y537700D01*
X1283208Y537700D01*
X1283208Y513648D01*
X1283054Y512079D01*
X1282596Y510569D01*
X1281852Y509178D01*
X1280851Y507958D01*
X1279631Y506956D01*
X1278239Y506213D01*
X1276729Y505754D01*
X1275158Y505600D01*
X1273588Y505754D01*
X1272078Y506213D01*
X1270686Y506956D01*
X1269466Y507958D01*
X1268465Y509178D01*
X1267721Y510569D01*
X1267263Y512079D01*
X1267108Y513648D01*
G37*
G36*
X1337088Y41246D02*
X1338656Y41400D01*
X1362708Y41400D01*
X1362708Y25300D01*
X1338656Y25300D01*
X1337088Y25454D01*
X1335578Y25913D01*
X1334186Y26656D01*
X1332966Y27658D01*
X1331965Y28878D01*
X1331221Y30269D01*
X1330763Y31779D01*
X1330608Y33350D01*
X1330763Y34921D01*
X1331221Y36431D01*
X1331965Y37822D01*
X1332966Y39042D01*
X1334186Y40044D01*
X1335578Y40787D01*
X1337088Y41246D01*
G37*
G36*
X1337088Y41246D02*
X1338656Y41400D01*
X1362708Y41400D01*
X1362708Y25300D01*
X1338656Y25300D01*
X1337088Y25454D01*
X1335578Y25913D01*
X1334186Y26656D01*
X1332966Y27658D01*
X1331965Y28878D01*
X1331221Y30269D01*
X1330763Y31779D01*
X1330608Y33350D01*
X1330763Y34921D01*
X1331221Y36431D01*
X1331965Y37822D01*
X1332966Y39042D01*
X1334186Y40044D01*
X1335578Y40787D01*
X1337088Y41246D01*
G37*
G36*
X1337088Y66646D02*
X1338656Y66800D01*
X1362708Y66800D01*
X1362708Y50700D01*
X1338656Y50700D01*
X1337088Y50854D01*
X1335578Y51313D01*
X1334186Y52056D01*
X1332966Y53058D01*
X1331965Y54278D01*
X1331221Y55669D01*
X1330763Y57179D01*
X1330608Y58750D01*
X1330763Y60321D01*
X1331221Y61831D01*
X1331965Y63222D01*
X1332966Y64442D01*
X1334186Y65444D01*
X1335578Y66187D01*
X1337088Y66646D01*
G37*
G36*
X1337088Y66646D02*
X1338656Y66800D01*
X1362708Y66800D01*
X1362708Y50700D01*
X1338656Y50700D01*
X1337088Y50854D01*
X1335578Y51313D01*
X1334186Y52056D01*
X1332966Y53058D01*
X1331965Y54278D01*
X1331221Y55669D01*
X1330763Y57179D01*
X1330608Y58750D01*
X1330763Y60321D01*
X1331221Y61831D01*
X1331965Y63222D01*
X1332966Y64442D01*
X1334186Y65444D01*
X1335578Y66187D01*
X1337088Y66646D01*
G37*
G36*
X1337088Y117446D02*
X1338656Y117600D01*
X1362708Y117600D01*
X1362708Y101500D01*
X1338656Y101500D01*
X1337088Y101654D01*
X1335578Y102113D01*
X1334186Y102856D01*
X1332966Y103858D01*
X1331965Y105078D01*
X1331221Y106469D01*
X1330763Y107979D01*
X1330608Y109550D01*
X1330763Y111121D01*
X1331221Y112631D01*
X1331965Y114022D01*
X1332966Y115242D01*
X1334186Y116244D01*
X1335578Y116987D01*
X1337088Y117446D01*
G37*
G36*
X1337088Y117446D02*
X1338656Y117600D01*
X1362708Y117600D01*
X1362708Y101500D01*
X1338656Y101500D01*
X1337088Y101654D01*
X1335578Y102113D01*
X1334186Y102856D01*
X1332966Y103858D01*
X1331965Y105078D01*
X1331221Y106469D01*
X1330763Y107979D01*
X1330608Y109550D01*
X1330763Y111121D01*
X1331221Y112631D01*
X1331965Y114022D01*
X1332966Y115242D01*
X1334186Y116244D01*
X1335578Y116987D01*
X1337088Y117446D01*
G37*
G36*
X1337088Y142846D02*
X1338656Y143000D01*
X1362708Y143000D01*
X1362708Y126900D01*
X1338656Y126900D01*
X1337088Y127054D01*
X1335578Y127513D01*
X1334186Y128256D01*
X1332966Y129258D01*
X1331965Y130478D01*
X1331221Y131869D01*
X1330763Y133379D01*
X1330608Y134950D01*
X1330763Y136521D01*
X1331221Y138031D01*
X1331965Y139422D01*
X1332966Y140642D01*
X1334186Y141644D01*
X1335578Y142387D01*
X1337088Y142846D01*
G37*
G36*
X1337088Y142846D02*
X1338656Y143000D01*
X1362708Y143000D01*
X1362708Y126900D01*
X1338656Y126900D01*
X1337088Y127054D01*
X1335578Y127513D01*
X1334186Y128256D01*
X1332966Y129258D01*
X1331965Y130478D01*
X1331221Y131869D01*
X1330763Y133379D01*
X1330608Y134950D01*
X1330763Y136521D01*
X1331221Y138031D01*
X1331965Y139422D01*
X1332966Y140642D01*
X1334186Y141644D01*
X1335578Y142387D01*
X1337088Y142846D01*
G37*
G36*
X1337088Y168246D02*
X1338656Y168400D01*
X1362708Y168400D01*
X1362708Y152300D01*
X1338656Y152300D01*
X1337088Y152454D01*
X1335578Y152913D01*
X1334186Y153656D01*
X1332966Y154658D01*
X1331965Y155878D01*
X1331221Y157269D01*
X1330763Y158779D01*
X1330608Y160350D01*
X1330763Y161921D01*
X1331221Y163431D01*
X1331965Y164822D01*
X1332966Y166042D01*
X1334186Y167044D01*
X1335578Y167787D01*
X1337088Y168246D01*
G37*
G36*
X1337088Y168246D02*
X1338656Y168400D01*
X1362708Y168400D01*
X1362708Y152300D01*
X1338656Y152300D01*
X1337088Y152454D01*
X1335578Y152913D01*
X1334186Y153656D01*
X1332966Y154658D01*
X1331965Y155878D01*
X1331221Y157269D01*
X1330763Y158779D01*
X1330608Y160350D01*
X1330763Y161921D01*
X1331221Y163431D01*
X1331965Y164822D01*
X1332966Y166042D01*
X1334186Y167044D01*
X1335578Y167787D01*
X1337088Y168246D01*
G37*
G36*
X1337088Y193646D02*
X1338656Y193800D01*
X1362708Y193800D01*
X1362708Y177700D01*
X1338656Y177700D01*
X1337088Y177854D01*
X1335578Y178313D01*
X1334186Y179056D01*
X1332966Y180058D01*
X1331965Y181278D01*
X1331221Y182669D01*
X1330763Y184179D01*
X1330608Y185750D01*
X1330763Y187321D01*
X1331221Y188831D01*
X1331965Y190222D01*
X1332966Y191442D01*
X1334186Y192444D01*
X1335578Y193187D01*
X1337088Y193646D01*
G37*
G36*
X1337088Y193646D02*
X1338656Y193800D01*
X1362708Y193800D01*
X1362708Y177700D01*
X1338656Y177700D01*
X1337088Y177854D01*
X1335578Y178313D01*
X1334186Y179056D01*
X1332966Y180058D01*
X1331965Y181278D01*
X1331221Y182669D01*
X1330763Y184179D01*
X1330608Y185750D01*
X1330763Y187321D01*
X1331221Y188831D01*
X1331965Y190222D01*
X1332966Y191442D01*
X1334186Y192444D01*
X1335578Y193187D01*
X1337088Y193646D01*
G37*
G36*
X1337088Y244446D02*
X1338656Y244600D01*
X1362708Y244600D01*
X1362708Y228500D01*
X1338656Y228500D01*
X1337088Y228654D01*
X1335578Y229113D01*
X1334186Y229856D01*
X1332966Y230858D01*
X1331965Y232078D01*
X1331221Y233469D01*
X1330763Y234979D01*
X1330608Y236550D01*
X1330763Y238121D01*
X1331221Y239631D01*
X1331965Y241022D01*
X1332966Y242242D01*
X1334186Y243244D01*
X1335578Y243987D01*
X1337088Y244446D01*
G37*
G36*
X1337088Y244446D02*
X1338656Y244600D01*
X1362708Y244600D01*
X1362708Y228500D01*
X1338656Y228500D01*
X1337088Y228654D01*
X1335578Y229113D01*
X1334186Y229856D01*
X1332966Y230858D01*
X1331965Y232078D01*
X1331221Y233469D01*
X1330763Y234979D01*
X1330608Y236550D01*
X1330763Y238121D01*
X1331221Y239631D01*
X1331965Y241022D01*
X1332966Y242242D01*
X1334186Y243244D01*
X1335578Y243987D01*
X1337088Y244446D01*
G37*
G36*
X1337088Y269846D02*
X1338656Y270000D01*
X1362708Y270000D01*
X1362708Y253900D01*
X1338656Y253900D01*
X1337088Y254054D01*
X1335578Y254513D01*
X1334186Y255256D01*
X1332966Y256258D01*
X1331965Y257478D01*
X1331221Y258869D01*
X1330763Y260379D01*
X1330608Y261950D01*
X1330763Y263521D01*
X1331221Y265031D01*
X1331965Y266422D01*
X1332966Y267642D01*
X1334186Y268644D01*
X1335578Y269387D01*
X1337088Y269846D01*
G37*
G36*
X1337088Y269846D02*
X1338656Y270000D01*
X1362708Y270000D01*
X1362708Y253900D01*
X1338656Y253900D01*
X1337088Y254054D01*
X1335578Y254513D01*
X1334186Y255256D01*
X1332966Y256258D01*
X1331965Y257478D01*
X1331221Y258869D01*
X1330763Y260379D01*
X1330608Y261950D01*
X1330763Y263521D01*
X1331221Y265031D01*
X1331965Y266422D01*
X1332966Y267642D01*
X1334186Y268644D01*
X1335578Y269387D01*
X1337088Y269846D01*
G37*
G36*
X1337088Y295246D02*
X1338656Y295400D01*
X1362708Y295400D01*
X1362708Y279300D01*
X1338656Y279300D01*
X1337088Y279454D01*
X1335578Y279913D01*
X1334186Y280656D01*
X1332966Y281658D01*
X1331965Y282878D01*
X1331221Y284269D01*
X1330763Y285779D01*
X1330608Y287350D01*
X1330763Y288921D01*
X1331221Y290431D01*
X1331965Y291822D01*
X1332966Y293042D01*
X1334186Y294044D01*
X1335578Y294787D01*
X1337088Y295246D01*
G37*
G36*
X1337088Y295246D02*
X1338656Y295400D01*
X1362708Y295400D01*
X1362708Y279300D01*
X1338656Y279300D01*
X1337088Y279454D01*
X1335578Y279913D01*
X1334186Y280656D01*
X1332966Y281658D01*
X1331965Y282878D01*
X1331221Y284269D01*
X1330763Y285779D01*
X1330608Y287350D01*
X1330763Y288921D01*
X1331221Y290431D01*
X1331965Y291822D01*
X1332966Y293042D01*
X1334186Y294044D01*
X1335578Y294787D01*
X1337088Y295246D01*
G37*
G36*
X1337088Y320646D02*
X1338656Y320800D01*
X1362708Y320800D01*
X1362708Y304700D01*
X1338656Y304700D01*
X1337088Y304854D01*
X1335578Y305313D01*
X1334186Y306056D01*
X1332966Y307058D01*
X1331965Y308278D01*
X1331221Y309669D01*
X1330763Y311179D01*
X1330608Y312750D01*
X1330763Y314321D01*
X1331221Y315831D01*
X1331965Y317222D01*
X1332966Y318442D01*
X1334186Y319444D01*
X1335578Y320187D01*
X1337088Y320646D01*
G37*
G36*
X1337088Y320646D02*
X1338656Y320800D01*
X1362708Y320800D01*
X1362708Y304700D01*
X1338656Y304700D01*
X1337088Y304854D01*
X1335578Y305313D01*
X1334186Y306056D01*
X1332966Y307058D01*
X1331965Y308278D01*
X1331221Y309669D01*
X1330763Y311179D01*
X1330608Y312750D01*
X1330763Y314321D01*
X1331221Y315831D01*
X1331965Y317222D01*
X1332966Y318442D01*
X1334186Y319444D01*
X1335578Y320187D01*
X1337088Y320646D01*
G37*
G36*
X1337088Y371446D02*
X1338656Y371600D01*
X1362708Y371600D01*
X1362708Y355500D01*
X1338656Y355500D01*
X1337088Y355654D01*
X1335578Y356113D01*
X1334186Y356856D01*
X1332966Y357858D01*
X1331965Y359078D01*
X1331221Y360469D01*
X1330763Y361979D01*
X1330608Y363550D01*
X1330763Y365121D01*
X1331221Y366631D01*
X1331965Y368022D01*
X1332966Y369242D01*
X1334186Y370244D01*
X1335578Y370987D01*
X1337088Y371446D01*
G37*
G36*
X1337088Y371446D02*
X1338656Y371600D01*
X1362708Y371600D01*
X1362708Y355500D01*
X1338656Y355500D01*
X1337088Y355654D01*
X1335578Y356113D01*
X1334186Y356856D01*
X1332966Y357858D01*
X1331965Y359078D01*
X1331221Y360469D01*
X1330763Y361979D01*
X1330608Y363550D01*
X1330763Y365121D01*
X1331221Y366631D01*
X1331965Y368022D01*
X1332966Y369242D01*
X1334186Y370244D01*
X1335578Y370987D01*
X1337088Y371446D01*
G37*
G36*
X1337088Y396846D02*
X1338656Y397000D01*
X1362708Y397000D01*
X1362708Y380900D01*
X1338656Y380900D01*
X1337088Y381054D01*
X1335578Y381513D01*
X1334186Y382256D01*
X1332966Y383258D01*
X1331965Y384478D01*
X1331221Y385869D01*
X1330763Y387379D01*
X1330608Y388950D01*
X1330763Y390521D01*
X1331221Y392031D01*
X1331965Y393422D01*
X1332966Y394642D01*
X1334186Y395644D01*
X1335578Y396387D01*
X1337088Y396846D01*
G37*
G36*
X1337088Y396846D02*
X1338656Y397000D01*
X1362708Y397000D01*
X1362708Y380900D01*
X1338656Y380900D01*
X1337088Y381054D01*
X1335578Y381513D01*
X1334186Y382256D01*
X1332966Y383258D01*
X1331965Y384478D01*
X1331221Y385869D01*
X1330763Y387379D01*
X1330608Y388950D01*
X1330763Y390521D01*
X1331221Y392031D01*
X1331965Y393422D01*
X1332966Y394642D01*
X1334186Y395644D01*
X1335578Y396387D01*
X1337088Y396846D01*
G37*
G36*
X1337088Y422246D02*
X1338656Y422400D01*
X1362708Y422400D01*
X1362708Y406300D01*
X1338656Y406300D01*
X1337088Y406454D01*
X1335578Y406913D01*
X1334186Y407656D01*
X1332966Y408658D01*
X1331965Y409878D01*
X1331221Y411269D01*
X1330763Y412779D01*
X1330608Y414350D01*
X1330763Y415921D01*
X1331221Y417431D01*
X1331965Y418822D01*
X1332966Y420042D01*
X1334186Y421044D01*
X1335578Y421787D01*
X1337088Y422246D01*
G37*
G36*
X1337088Y422246D02*
X1338656Y422400D01*
X1362708Y422400D01*
X1362708Y406300D01*
X1338656Y406300D01*
X1337088Y406454D01*
X1335578Y406913D01*
X1334186Y407656D01*
X1332966Y408658D01*
X1331965Y409878D01*
X1331221Y411269D01*
X1330763Y412779D01*
X1330608Y414350D01*
X1330763Y415921D01*
X1331221Y417431D01*
X1331965Y418822D01*
X1332966Y420042D01*
X1334186Y421044D01*
X1335578Y421787D01*
X1337088Y422246D01*
G37*
G36*
X1337088Y447646D02*
X1338656Y447800D01*
X1362708Y447800D01*
X1362708Y431700D01*
X1338656Y431700D01*
X1337088Y431854D01*
X1335578Y432313D01*
X1334186Y433056D01*
X1332966Y434058D01*
X1331965Y435278D01*
X1331221Y436669D01*
X1330763Y438179D01*
X1330608Y439750D01*
X1330763Y441321D01*
X1331221Y442831D01*
X1331965Y444222D01*
X1332966Y445442D01*
X1334186Y446444D01*
X1335578Y447187D01*
X1337088Y447646D01*
G37*
G36*
X1337088Y447646D02*
X1338656Y447800D01*
X1362708Y447800D01*
X1362708Y431700D01*
X1338656Y431700D01*
X1337088Y431854D01*
X1335578Y432313D01*
X1334186Y433056D01*
X1332966Y434058D01*
X1331965Y435278D01*
X1331221Y436669D01*
X1330763Y438179D01*
X1330608Y439750D01*
X1330763Y441321D01*
X1331221Y442831D01*
X1331965Y444222D01*
X1332966Y445442D01*
X1334186Y446444D01*
X1335578Y447187D01*
X1337088Y447646D01*
G37*
G36*
X1337088Y498446D02*
X1338656Y498600D01*
X1362708Y498600D01*
X1362708Y482500D01*
X1338656Y482500D01*
X1337088Y482654D01*
X1335578Y483113D01*
X1334186Y483856D01*
X1332966Y484858D01*
X1331965Y486078D01*
X1331221Y487469D01*
X1330763Y488979D01*
X1330608Y490550D01*
X1330763Y492121D01*
X1331221Y493631D01*
X1331965Y495022D01*
X1332966Y496242D01*
X1334186Y497244D01*
X1335578Y497987D01*
X1337088Y498446D01*
G37*
G36*
X1337088Y498446D02*
X1338656Y498600D01*
X1362708Y498600D01*
X1362708Y482500D01*
X1338656Y482500D01*
X1337088Y482654D01*
X1335578Y483113D01*
X1334186Y483856D01*
X1332966Y484858D01*
X1331965Y486078D01*
X1331221Y487469D01*
X1330763Y488979D01*
X1330608Y490550D01*
X1330763Y492121D01*
X1331221Y493631D01*
X1331965Y495022D01*
X1332966Y496242D01*
X1334186Y497244D01*
X1335578Y497987D01*
X1337088Y498446D01*
G37*
G36*
X1337088Y523846D02*
X1338656Y524000D01*
X1362708Y524000D01*
X1362708Y507900D01*
X1338656Y507900D01*
X1337088Y508054D01*
X1335578Y508513D01*
X1334186Y509256D01*
X1332966Y510258D01*
X1331965Y511478D01*
X1331221Y512869D01*
X1330763Y514379D01*
X1330608Y515950D01*
X1330763Y517521D01*
X1331221Y519031D01*
X1331965Y520422D01*
X1332966Y521642D01*
X1334186Y522644D01*
X1335578Y523387D01*
X1337088Y523846D01*
G37*
G36*
X1337088Y523846D02*
X1338656Y524000D01*
X1362708Y524000D01*
X1362708Y507900D01*
X1338656Y507900D01*
X1337088Y508054D01*
X1335578Y508513D01*
X1334186Y509256D01*
X1332966Y510258D01*
X1331965Y511478D01*
X1331221Y512869D01*
X1330763Y514379D01*
X1330608Y515950D01*
X1330763Y517521D01*
X1331221Y519031D01*
X1331965Y520422D01*
X1332966Y521642D01*
X1334186Y522644D01*
X1335578Y523387D01*
X1337088Y523846D01*
G37*
D10*
X285060Y820310D03*
X215060Y820310D03*
X215060Y786310D03*
X215060Y731310D03*
X285060Y748310D03*
X285060Y728310D03*
D11*
X1236750Y582974D03*
X1236750Y553466D03*
D12*
X458006Y268500D03*
X448314Y268500D03*
D13*
X443760Y454656D03*
X443760Y444964D03*
X434870Y454656D03*
X434870Y444964D03*
D14*
X1084050Y807510D03*
X1084050Y720456D03*
D13*
X256770Y404834D03*
X256770Y414526D03*
X450810Y350714D03*
X450810Y360406D03*
X238530Y313986D03*
X238530Y304294D03*
X245340Y404834D03*
X245340Y414526D03*
X440650Y350714D03*
X440650Y360406D03*
X247420Y313986D03*
X247420Y304294D03*
D12*
X458006Y278660D03*
X448314Y278660D03*
D15*
X967990Y326740D03*
D16*
X1002990Y326740D03*
D17*
X473884Y402060D03*
X473884Y389360D03*
X473884Y376660D03*
X473884Y363960D03*
X473884Y351260D03*
X473884Y338560D03*
X473884Y325860D03*
X473884Y313160D03*
X473884Y300460D03*
X473884Y287760D03*
X473884Y275060D03*
X473884Y262360D03*
X473884Y249660D03*
X473884Y236960D03*
X567884Y236960D03*
X567884Y249660D03*
X567884Y262360D03*
X567884Y275060D03*
X567884Y287760D03*
X567884Y300460D03*
X567884Y313160D03*
X567884Y325860D03*
X567884Y338560D03*
X567884Y351260D03*
X567884Y363960D03*
X567884Y376660D03*
X567884Y389360D03*
X567884Y402060D03*
D18*
X319510Y474740D03*
X332210Y474740D03*
X344910Y474740D03*
X357610Y474740D03*
X370310Y474740D03*
X383010Y474740D03*
X395710Y474740D03*
X408410Y474740D03*
X421110Y474740D03*
X433810Y474740D03*
X446510Y474740D03*
X459210Y474740D03*
X471910Y474740D03*
X484610Y474740D03*
X484610Y568740D03*
X471910Y568740D03*
X459210Y568740D03*
X446510Y568740D03*
X433810Y568740D03*
X421110Y568740D03*
X408410Y568740D03*
X395710Y568740D03*
X383010Y568740D03*
X370310Y568740D03*
X357610Y568740D03*
X344910Y568740D03*
X332210Y568740D03*
X319510Y568740D03*
D19*
X1389150Y569490D02*
X1404390Y569490D01*
X1404390Y594890D02*
X1389150Y594890D01*
X1389150Y620290D02*
X1404390Y620290D01*
X1404390Y645690D02*
X1389150Y645690D01*
X1389150Y671090D02*
X1404390Y671090D01*
X1404390Y696490D02*
X1389150Y696490D01*
X1389150Y721890D02*
X1404390Y721890D01*
X1404390Y747290D02*
X1389150Y747290D01*
X1277390Y569490D02*
X1262150Y569490D01*
X1262150Y594890D02*
X1277390Y594890D01*
X1277390Y620290D02*
X1262150Y620290D01*
X1262150Y645690D02*
X1277390Y645690D01*
X1277390Y671090D02*
X1262150Y671090D01*
X1262150Y696490D02*
X1277390Y696490D01*
X1277390Y721890D02*
X1262150Y721890D01*
X1262150Y747290D02*
X1277390Y747290D01*
D20*
X673838Y220138D03*
X665710Y220138D03*
X673121Y248136D03*
X664993Y248136D03*
X673629Y277854D03*
X665501Y277854D03*
D21*
X484910Y612162D03*
X484910Y620290D03*
X458240Y612416D03*
X458240Y620544D03*
X432840Y612416D03*
X432840Y620544D03*
D22*
X393470Y700300D03*
D23*
X368070Y700300D03*
D24*
X444270Y751100D03*
X342670Y751100D03*
D22*
X824000Y700300D03*
D23*
X798600Y700300D03*
D24*
X874800Y751100D03*
X773200Y751100D03*
D25*
X900154Y114578D03*
X920474Y114578D03*
X940794Y114578D03*
X961114Y114578D03*
X910314Y96798D03*
X930634Y96798D03*
X950954Y96798D03*
D26*
X971274Y96798D03*
D24*
X1017214Y105988D03*
X854214Y105988D03*
D25*
X693645Y115079D03*
X713965Y115079D03*
X734285Y115079D03*
X754605Y115079D03*
X703805Y97299D03*
X724125Y97299D03*
X744445Y97299D03*
D26*
X764765Y97299D03*
D24*
X810705Y106489D03*
X647705Y106489D03*
D25*
X487404Y114578D03*
X507724Y114578D03*
X528044Y114578D03*
X548364Y114578D03*
X497564Y96798D03*
X517884Y96798D03*
X538204Y96798D03*
D26*
X558524Y96798D03*
D24*
X604464Y105988D03*
X441464Y105988D03*
D25*
X285745Y115309D03*
X306065Y115309D03*
X326385Y115309D03*
X346705Y115309D03*
X295905Y97529D03*
X316225Y97529D03*
X336545Y97529D03*
D26*
X356865Y97529D03*
D24*
X402805Y106719D03*
X239805Y106719D03*
D25*
X82119Y114883D03*
X102439Y114883D03*
X122759Y114883D03*
X143079Y114883D03*
X92279Y97103D03*
X112599Y97103D03*
X132919Y97103D03*
D26*
X153239Y97103D03*
D24*
X199179Y106293D03*
X36179Y106293D03*
D25*
X103400Y329160D03*
X103400Y308840D03*
X103400Y288520D03*
X103400Y268200D03*
X85620Y319000D03*
X85620Y298680D03*
X85620Y278360D03*
D26*
X85620Y258040D03*
D24*
X94810Y212100D03*
X94810Y375100D03*
D25*
X103400Y534900D03*
X103400Y514580D03*
X103400Y494260D03*
X103400Y473940D03*
X85620Y524740D03*
X85620Y504420D03*
X85620Y484100D03*
D26*
X85620Y463780D03*
D24*
X94810Y417840D03*
X94810Y580840D03*
D25*
X103400Y735560D03*
X103400Y715240D03*
X103400Y694920D03*
X103400Y674600D03*
X85620Y725400D03*
X85620Y705080D03*
X85620Y684760D03*
D26*
X85620Y664440D03*
D24*
X94810Y618500D03*
X94810Y781500D03*
D27*
X964410Y804370D02*
X986410Y804370D01*
X929410Y782870D02*
X929410Y760870D01*
X964410Y743370D02*
X986410Y743370D01*
D28*
X1294870Y799870D03*
X1319870Y799870D03*
X1344870Y799870D03*
X1369870Y799870D03*
D29*
X1032566Y263780D03*
X1032566Y247476D03*
X176300Y297768D03*
X176300Y314072D03*
X180361Y421433D03*
X180361Y405129D03*
X195664Y421642D03*
X195664Y405338D03*
X212320Y421642D03*
X212320Y405338D03*
X227560Y421114D03*
X227560Y404810D03*
X644756Y264924D03*
X644756Y248620D03*
X918520Y264542D03*
X918520Y248238D03*
X644882Y236823D03*
X644882Y220519D03*
X644882Y293372D03*
X644882Y277068D03*
D30*
X450848Y592050D03*
X467152Y592050D03*
X477357Y592007D03*
X493661Y592007D03*
X423763Y592007D03*
X440067Y592007D03*
D29*
X494560Y722122D03*
X494560Y705818D03*
X1032566Y218266D03*
X1032566Y234570D03*
X918520Y219028D03*
X918520Y235332D03*
X803886Y245112D03*
X803886Y228808D03*
X221720Y297688D03*
X221720Y313992D03*
X207750Y297688D03*
X207750Y313992D03*
X192510Y297688D03*
X192510Y313992D03*
D31*
X238059Y390437D03*
X231560Y390437D03*
X225060Y390437D03*
X218560Y390437D03*
X212060Y390437D03*
X205560Y390437D03*
X199060Y390437D03*
X192560Y390437D03*
X186060Y390437D03*
X179561Y390437D03*
X179561Y331383D03*
X186060Y331383D03*
X192560Y331383D03*
X199060Y331383D03*
X205560Y331383D03*
X212060Y331383D03*
X218560Y331383D03*
X225060Y331383D03*
X231560Y331383D03*
X238059Y331383D03*
D32*
X1346658Y33350D03*
X1152858Y33350D03*
X1152858Y84150D03*
X1275158Y521650D03*
X1249758Y521650D03*
X1346658Y58750D03*
X1346658Y109550D03*
X1346658Y134950D03*
X1346658Y160350D03*
X1346658Y185750D03*
X1346658Y236550D03*
X1346658Y261950D03*
X1346658Y287350D03*
X1346658Y312750D03*
X1346658Y363550D03*
X1346658Y388950D03*
X1346658Y414350D03*
X1346658Y439750D03*
X1346658Y490550D03*
X1346658Y515950D03*
X1346658Y84150D03*
X1346658Y211150D03*
X1346658Y338150D03*
X1346658Y465150D03*
X1152858Y58750D03*
X1152858Y109550D03*
X1152858Y134950D03*
X1152858Y160350D03*
X1152858Y185750D03*
X1152858Y236550D03*
X1152858Y261950D03*
X1152858Y287350D03*
X1152858Y312750D03*
X1152858Y363550D03*
X1152858Y388950D03*
X1152858Y414350D03*
X1152858Y439750D03*
X1152858Y490550D03*
X1152858Y515950D03*
X1152858Y211150D03*
X1152858Y338150D03*
X1152858Y465150D03*
X1224358Y521650D03*
D33*
X1255258Y36150D02*
X1264258Y36150D01*
X1264258Y27150D01*
X1255258Y27150D01*
X1255258Y36150D01*
X1255258Y32850D02*
X1264258Y32850D01*
X1244258Y36150D02*
X1235258Y36150D01*
X1244258Y36150D02*
X1244258Y27150D01*
X1235258Y27150D01*
X1235258Y36150D01*
X1235258Y32850D02*
X1244258Y32850D01*
X1245258Y69150D02*
X1254258Y69150D01*
X1254258Y60150D01*
X1245258Y60150D01*
X1245258Y69150D01*
X1245258Y65850D02*
X1254258Y65850D01*
X1270258Y104150D02*
X1279258Y104150D01*
X1279258Y95150D01*
X1270258Y95150D01*
X1270258Y104150D01*
X1270258Y100850D02*
X1279258Y100850D01*
X1279258Y129150D02*
X1270258Y129150D01*
X1279258Y129150D02*
X1279258Y120150D01*
X1270258Y120150D01*
X1270258Y129150D01*
X1270258Y125850D02*
X1279258Y125850D01*
X1279258Y154150D02*
X1270258Y154150D01*
X1279258Y154150D02*
X1279258Y145150D01*
X1270258Y145150D01*
X1270258Y154150D01*
X1270258Y150850D02*
X1279258Y150850D01*
D34*
X1277008Y38150D02*
X1277008Y31150D01*
X1222508Y31150D02*
X1222508Y38150D01*
D35*
X1274008Y62950D02*
X1274008Y66950D01*
X1225508Y66950D02*
X1225508Y62950D01*
D36*
X257898Y336447D03*
X270598Y336447D03*
X283298Y336447D03*
X295998Y336447D03*
X308698Y336447D03*
X321398Y336447D03*
X334098Y336447D03*
X334098Y385723D03*
X321398Y385723D03*
X308698Y385723D03*
X295998Y385723D03*
X283298Y385723D03*
X270598Y385723D03*
X257898Y385723D03*
X428030Y385278D03*
X415330Y385278D03*
X402630Y385278D03*
X389930Y385278D03*
X377230Y385278D03*
X364530Y385278D03*
X351830Y385278D03*
X351830Y336002D03*
X364530Y336002D03*
X377230Y336002D03*
X389930Y336002D03*
X402630Y336002D03*
X415330Y336002D03*
X428030Y336002D03*
D33*
X626400Y507070D02*
X634900Y507070D01*
X634900Y494370D02*
X626400Y494370D01*
X626400Y481670D02*
X634900Y481670D01*
X634900Y468970D02*
X626400Y468970D01*
X626400Y456270D02*
X634900Y456270D01*
X634900Y443570D02*
X626400Y443570D01*
X626400Y430870D02*
X634900Y430870D01*
X634900Y418170D02*
X626400Y418170D01*
X680900Y418170D02*
X689400Y418170D01*
X689400Y430870D02*
X680900Y430870D01*
X680900Y443570D02*
X689400Y443570D01*
X689400Y456270D02*
X680900Y456270D01*
X680900Y468970D02*
X689400Y468970D01*
X689400Y481670D02*
X680900Y481670D01*
X680900Y494370D02*
X689400Y494370D01*
X689400Y507070D02*
X680900Y507070D01*
X633360Y399310D02*
X624860Y399310D01*
X624860Y386610D02*
X633360Y386610D01*
X633360Y373910D02*
X624860Y373910D01*
X624860Y361210D02*
X633360Y361210D01*
X633360Y348510D02*
X624860Y348510D01*
X624860Y335810D02*
X633360Y335810D01*
X633360Y323110D02*
X624860Y323110D01*
X624860Y310410D02*
X633360Y310410D01*
X679360Y310410D02*
X687860Y310410D01*
X687860Y323110D02*
X679360Y323110D01*
X679360Y335810D02*
X687860Y335810D01*
X687860Y348510D02*
X679360Y348510D01*
X679360Y361210D02*
X687860Y361210D01*
X687860Y373910D02*
X679360Y373910D01*
X679360Y386610D02*
X687860Y386610D01*
X687860Y399310D02*
X679360Y399310D01*
D15*
X857500Y328010D03*
D16*
X892500Y328010D03*
D15*
X748280Y328010D03*
D16*
X783280Y328010D03*
D15*
X967990Y460090D03*
D16*
X1002990Y460090D03*
D15*
X857500Y461360D03*
D16*
X892500Y461360D03*
D15*
X748280Y461360D03*
D16*
X783280Y461360D03*
D15*
X967990Y590900D03*
D16*
X1002990Y590900D03*
D15*
X857500Y590900D03*
D16*
X892500Y590900D03*
D15*
X748280Y590900D03*
D16*
X783280Y590900D03*
D22*
X611910Y700300D03*
D23*
X586510Y700300D03*
D24*
X662710Y751100D03*
X561110Y751100D03*
D30*
X369362Y316460D03*
X353058Y316460D03*
X590548Y669132D03*
X606852Y669132D03*
D37*
X1216430Y798090D03*
D38*
X1178330Y798090D03*
D39*
X507650Y440850D02*
X496850Y440850D01*
X496850Y445350D01*
X507650Y445350D01*
X507650Y440850D01*
X507650Y442275D02*
X496850Y442275D01*
X496850Y443700D02*
X507650Y443700D01*
X507650Y445125D02*
X496850Y445125D01*
X518050Y431350D02*
X528850Y431350D01*
X518050Y431350D02*
X518050Y435850D01*
X528850Y435850D01*
X528850Y431350D01*
X528850Y432775D02*
X518050Y432775D01*
X518050Y434200D02*
X528850Y434200D01*
X528850Y435625D02*
X518050Y435625D01*
X507650Y421850D02*
X496850Y421850D01*
X496850Y426350D01*
X507650Y426350D01*
X507650Y421850D01*
X507650Y423275D02*
X496850Y423275D01*
X496850Y424700D02*
X507650Y424700D01*
X507650Y426125D02*
X496850Y426125D01*
D29*
X485670Y426418D03*
X485670Y442722D03*
X560048Y486204D03*
X560048Y469900D03*
X541223Y426466D03*
X541223Y442770D03*
X503960Y486202D03*
X503960Y469898D03*
D39*
X515900Y485300D02*
X526700Y485300D01*
X515900Y485300D02*
X515900Y489800D01*
X526700Y489800D01*
X526700Y485300D01*
X526700Y486725D02*
X515900Y486725D01*
X515900Y488150D02*
X526700Y488150D01*
X526700Y489575D02*
X515900Y489575D01*
X537100Y475800D02*
X547900Y475800D01*
X537100Y475800D02*
X537100Y480300D01*
X547900Y480300D01*
X547900Y475800D01*
X547900Y477225D02*
X537100Y477225D01*
X537100Y478650D02*
X547900Y478650D01*
X547900Y480075D02*
X537100Y480075D01*
X526700Y466300D02*
X515900Y466300D01*
X515900Y470800D01*
X526700Y470800D01*
X526700Y466300D01*
X526700Y467725D02*
X515900Y467725D01*
X515900Y469150D02*
X526700Y469150D01*
X526700Y470575D02*
X515900Y470575D01*
D37*
X1099550Y578230D03*
D38*
X1074150Y578230D03*
X1099550Y552830D03*
X1074150Y552830D03*
X1099550Y527430D03*
X1074150Y527430D03*
X1099550Y502030D03*
X1074150Y502030D03*
X1099550Y476630D03*
X1074150Y476630D03*
X1099550Y451230D03*
X1074150Y451230D03*
X1099550Y425830D03*
X1074150Y425830D03*
X1099550Y400430D03*
X1074150Y400430D03*
X1099550Y375030D03*
X1074150Y375030D03*
X1099550Y349630D03*
X1074150Y349630D03*
X1099550Y324230D03*
X1074150Y324230D03*
X1099550Y298830D03*
X1074150Y298830D03*
X1099550Y273430D03*
X1074150Y273430D03*
X1099550Y248030D03*
X1074150Y248030D03*
X1099550Y222630D03*
X1074150Y222630D03*
X1099550Y197230D03*
X1074150Y197230D03*
X1099550Y171830D03*
X1074150Y171830D03*
X1099550Y146430D03*
X1074150Y146430D03*
X1099550Y121030D03*
X1074150Y121030D03*
X1099550Y95630D03*
X1074150Y95630D03*
D19*
X660630Y552120D02*
X645390Y552120D01*
X645390Y577520D02*
X660630Y577520D01*
X660630Y602920D02*
X645390Y602920D01*
D16*
X942650Y254700D03*
X1007650Y254700D03*
X1007650Y209700D03*
X942650Y209700D03*
X975150Y191200D03*
X828096Y254580D03*
X893096Y254580D03*
X893096Y209580D03*
X828096Y209580D03*
X860596Y191080D03*
X713256Y254088D03*
X778256Y254088D03*
X778256Y209088D03*
X713256Y209088D03*
X745756Y190588D03*
D29*
X271250Y402937D03*
X271250Y419241D03*
X283950Y403098D03*
X283950Y419402D03*
X308080Y403098D03*
X308080Y419402D03*
X321201Y403098D03*
X321201Y419402D03*
X309140Y314452D03*
X309140Y298148D03*
X296440Y314452D03*
X296440Y298148D03*
X273580Y314452D03*
X273580Y298148D03*
X260880Y314452D03*
X260880Y298148D03*
D40*
X278170Y512064D03*
X271670Y512064D03*
X265170Y512064D03*
X258670Y512064D03*
X252170Y512064D03*
X245670Y512064D03*
X239170Y512064D03*
X232670Y512064D03*
X226170Y512064D03*
X219670Y512064D03*
X219670Y456692D03*
X226170Y456692D03*
X232670Y456692D03*
X239170Y456692D03*
X245670Y456692D03*
X252170Y456692D03*
X258670Y456692D03*
X265170Y456692D03*
X271670Y456692D03*
X278170Y456692D03*
X219820Y610362D03*
X226320Y610362D03*
X232820Y610362D03*
X239320Y610362D03*
X245820Y610362D03*
X252320Y610362D03*
X258820Y610362D03*
X265320Y610362D03*
X271820Y610362D03*
X278320Y610362D03*
X278320Y665734D03*
X271820Y665734D03*
X265320Y665734D03*
X258820Y665734D03*
X252320Y665734D03*
X245820Y665734D03*
X239320Y665734D03*
X232820Y665734D03*
X226320Y665734D03*
X219820Y665734D03*
D41*
X255667Y543233D02*
X273893Y543233D01*
X273893Y538807D01*
X255667Y538807D01*
X255667Y543233D01*
X255667Y540208D02*
X273893Y540208D01*
X273893Y541609D02*
X255667Y541609D01*
X255667Y543010D02*
X273893Y543010D01*
X273893Y555933D02*
X255667Y555933D01*
X273893Y555933D02*
X273893Y551507D01*
X255667Y551507D01*
X255667Y555933D01*
X255667Y552908D02*
X273893Y552908D01*
X273893Y554309D02*
X255667Y554309D01*
X255667Y555710D02*
X273893Y555710D01*
X273893Y568633D02*
X255667Y568633D01*
X273893Y568633D02*
X273893Y564207D01*
X255667Y564207D01*
X255667Y568633D01*
X255667Y565608D02*
X273893Y565608D01*
X273893Y567009D02*
X255667Y567009D01*
X255667Y568410D02*
X273893Y568410D01*
X273893Y581333D02*
X255667Y581333D01*
X273893Y581333D02*
X273893Y576907D01*
X255667Y576907D01*
X255667Y581333D01*
X255667Y578308D02*
X273893Y578308D01*
X273893Y579709D02*
X255667Y579709D01*
X255667Y581110D02*
X273893Y581110D01*
X224393Y581333D02*
X206167Y581333D01*
X224393Y581333D02*
X224393Y576907D01*
X206167Y576907D01*
X206167Y581333D01*
X206167Y578308D02*
X224393Y578308D01*
X224393Y579709D02*
X206167Y579709D01*
X206167Y581110D02*
X224393Y581110D01*
X224393Y568633D02*
X206167Y568633D01*
X224393Y568633D02*
X224393Y564207D01*
X206167Y564207D01*
X206167Y568633D01*
X206167Y565608D02*
X224393Y565608D01*
X224393Y567009D02*
X206167Y567009D01*
X206167Y568410D02*
X224393Y568410D01*
X224393Y555933D02*
X206167Y555933D01*
X224393Y555933D02*
X224393Y551507D01*
X206167Y551507D01*
X206167Y555933D01*
X206167Y552908D02*
X224393Y552908D01*
X224393Y554309D02*
X206167Y554309D01*
X206167Y555710D02*
X224393Y555710D01*
X224393Y543233D02*
X206167Y543233D01*
X224393Y543233D02*
X224393Y538807D01*
X206167Y538807D01*
X206167Y543233D01*
X206167Y540208D02*
X224393Y540208D01*
X224393Y541609D02*
X206167Y541609D01*
X206167Y543010D02*
X224393Y543010D01*
D13*
X196850Y542524D03*
X196850Y552216D03*
X280670Y562844D03*
X280670Y572536D03*
X198120Y567924D03*
X198120Y577616D03*
D12*
X246614Y679450D03*
X256306Y679450D03*
X246614Y596900D03*
X256306Y596900D03*
X252496Y525780D03*
X242804Y525780D03*
X251226Y443230D03*
X241534Y443230D03*
D39*
X591940Y563488D02*
X602740Y563488D01*
X602740Y558988D01*
X591940Y558988D01*
X591940Y563488D01*
X591940Y560413D02*
X602740Y560413D01*
X602740Y561838D02*
X591940Y561838D01*
X591940Y563263D02*
X602740Y563263D01*
X581540Y572988D02*
X570740Y572988D01*
X581540Y572988D02*
X581540Y568488D01*
X570740Y568488D01*
X570740Y572988D01*
X570740Y569913D02*
X581540Y569913D01*
X581540Y571338D02*
X570740Y571338D01*
X570740Y572763D02*
X581540Y572763D01*
X591940Y582488D02*
X602740Y582488D01*
X602740Y577988D01*
X591940Y577988D01*
X591940Y582488D01*
X591940Y579413D02*
X602740Y579413D01*
X602740Y580838D02*
X591940Y580838D01*
X591940Y582263D02*
X602740Y582263D01*
D29*
X558038Y578636D03*
X558038Y562332D03*
X612902Y562840D03*
X612902Y579144D03*
D39*
X602994Y520697D02*
X592194Y520697D01*
X602994Y520697D02*
X602994Y516197D01*
X592194Y516197D01*
X592194Y520697D01*
X592194Y517622D02*
X602994Y517622D01*
X602994Y519047D02*
X592194Y519047D01*
X592194Y520472D02*
X602994Y520472D01*
X581794Y530197D02*
X570994Y530197D01*
X581794Y530197D02*
X581794Y525697D01*
X570994Y525697D01*
X570994Y530197D01*
X570994Y527122D02*
X581794Y527122D01*
X581794Y528547D02*
X570994Y528547D01*
X570994Y529972D02*
X581794Y529972D01*
X592194Y539697D02*
X602994Y539697D01*
X602994Y535197D01*
X592194Y535197D01*
X592194Y539697D01*
X592194Y536622D02*
X602994Y536622D01*
X602994Y538047D02*
X592194Y538047D01*
X592194Y539472D02*
X602994Y539472D01*
D29*
X614172Y519914D03*
X614172Y536218D03*
X558546Y517882D03*
X558546Y534186D03*
D42*
X285060Y820310D02*
X220400Y755650D01*
X26924Y691771D02*
X26924Y488696D01*
X26924Y281686D01*
X132334Y44958D02*
X338074Y44958D01*
X541274Y44958D01*
X745744Y44958D01*
D43*
X950214Y44958D01*
D42*
X960860Y114324D02*
X961114Y114578D01*
D43*
X960860Y55604D02*
X950214Y44958D01*
X960860Y55604D02*
X960860Y114324D01*
X64032Y674600D02*
X36892Y701740D01*
X64032Y674600D02*
X103400Y674600D01*
X26924Y488696D02*
X41680Y473940D01*
X103400Y473940D01*
X26924Y281686D02*
X40410Y268200D01*
X103400Y268200D01*
X143079Y55703D02*
X132334Y44958D01*
X143079Y55703D02*
X143079Y114883D01*
X338074Y44958D02*
X346705Y53589D01*
X346705Y115309D01*
X541274Y44958D02*
X548364Y52048D01*
X548364Y114578D01*
X745744Y44958D02*
X754605Y53819D01*
X754605Y115079D01*
D42*
X90803Y755650D02*
X36892Y701740D01*
X26924Y691771D01*
X90803Y755650D02*
X220400Y755650D01*
X132334Y44958D02*
X93076Y44958D01*
X79069Y58965D01*
X26924Y146851D02*
X26924Y281686D01*
X26924Y146851D02*
X79069Y94707D01*
X79069Y58965D01*
D19*
X1083886Y720620D02*
X1084050Y720456D01*
X1083886Y720620D02*
X1072920Y720620D01*
D44*
X1055140Y702840D01*
X1036090Y702840D01*
D45*
X1036090Y702840D03*
D46*
X1236750Y553466D02*
X1236750Y552980D01*
X1215160Y552980D01*
D45*
X1215160Y552980D03*
X1033582Y209400D03*
D46*
X1253490Y465150D02*
X1346658Y465150D01*
X1253490Y465150D02*
X1253236Y465404D01*
X1153112Y465404D01*
X1154128Y336880D02*
X1179830Y336880D01*
X1154128Y336880D02*
X1152858Y338150D01*
X1307670Y84150D02*
X1346658Y84150D01*
X1307670Y84150D02*
X1306600Y83080D01*
D45*
X1306600Y83080D03*
D46*
X1196110Y84350D02*
X1195910Y84150D01*
X1152858Y84150D01*
D45*
X1196110Y84350D03*
D47*
X650340Y418280D02*
X630760Y418280D01*
X630650Y418170D01*
D45*
X650340Y418280D03*
D43*
X629690Y361210D02*
X629110Y361210D01*
X629690Y361210D02*
X639850Y351050D01*
X639850Y339620D01*
X639850Y328190D01*
X639850Y320040D02*
X639850Y313530D01*
X639850Y320040D02*
X639850Y328190D01*
X639850Y313530D02*
X636730Y310410D01*
X629110Y310410D01*
X629110Y348510D02*
X630960Y348510D01*
X639850Y339620D01*
X632230Y335810D02*
X629110Y335810D01*
X632230Y335810D02*
X639850Y328190D01*
X1032566Y218266D02*
X1032566Y210416D01*
X1033582Y209400D01*
X918520Y208130D02*
X918520Y219028D01*
D45*
X918520Y208130D03*
X1179830Y336880D03*
X1253490Y465150D03*
D46*
X1249758Y468882D02*
X1249758Y521650D01*
X1249758Y468882D02*
X1253490Y465150D01*
X1346658Y338150D02*
X1346328Y337820D01*
X1316990Y337820D01*
D45*
X1316990Y337820D03*
D43*
X803886Y256310D02*
X803886Y245112D01*
X803886Y256310D02*
X803656Y256540D01*
D45*
X803656Y256540D03*
D43*
X646565Y238506D02*
X644882Y236823D01*
X644756Y264924D02*
X654560Y264924D01*
X654812Y265176D01*
D45*
X654812Y265176D03*
D43*
X654812Y295910D02*
X649732Y295910D01*
X647194Y293372D01*
X644882Y293372D01*
D45*
X654812Y295910D03*
D47*
X264780Y566420D02*
X248920Y566420D01*
D45*
X248920Y566420D03*
D47*
X198120Y567924D02*
X196850Y566654D01*
X196850Y560070D01*
D45*
X196850Y560070D03*
D47*
X440650Y368260D02*
X440650Y360406D01*
X440650Y368260D02*
X440690Y368300D01*
D45*
X440690Y368300D03*
D47*
X450810Y360406D02*
X450850Y360446D01*
X450850Y368300D01*
D45*
X450850Y368300D03*
D43*
X238059Y390437D02*
X237490Y391006D01*
D45*
X654812Y239353D03*
D43*
X653965Y238506D02*
X646565Y238506D01*
X653965Y238506D02*
X654812Y239353D01*
X423763Y592007D02*
X421640Y594130D01*
X421640Y603250D01*
D45*
X421640Y603250D03*
D43*
X448310Y594588D02*
X450848Y592050D01*
X448310Y594588D02*
X448310Y603250D01*
D45*
X448310Y603250D03*
D43*
X474980Y594384D02*
X477357Y592007D01*
X474980Y594384D02*
X474980Y603250D01*
D45*
X474980Y603250D03*
D43*
X176300Y297768D02*
X176300Y288520D01*
X176530Y288290D01*
D45*
X176530Y288290D03*
D43*
X207750Y287550D02*
X207750Y297688D01*
X207750Y287550D02*
X208280Y287020D01*
D45*
X208280Y287020D03*
D43*
X221720Y287550D02*
X221720Y297688D01*
X221720Y287550D02*
X222250Y287020D01*
D45*
X222250Y287020D03*
D47*
X238530Y296140D02*
X238530Y304294D01*
X351830Y369610D02*
X351830Y385278D01*
X351830Y369610D02*
X351790Y369570D01*
D45*
X351790Y369570D03*
D47*
X231560Y331383D02*
X231560Y319190D01*
X231140Y318770D01*
D45*
X231140Y318770D03*
D43*
X180361Y421433D02*
X180361Y433049D01*
X180340Y433070D01*
D45*
X180340Y433070D03*
D43*
X212320Y431570D02*
X212320Y421642D01*
X212320Y431570D02*
X212090Y431800D01*
D45*
X212090Y431800D03*
D43*
X227560Y430760D02*
X227560Y421114D01*
X227560Y430760D02*
X228600Y431800D01*
D45*
X228600Y431800D03*
D47*
X215280Y566420D02*
X215280Y566654D01*
X199390Y566654D01*
X198120Y567924D01*
X256306Y596900D02*
X256306Y599440D01*
X252320Y603427D02*
X252320Y610362D01*
X252320Y603427D02*
X256306Y599440D01*
D43*
X239320Y600000D02*
X239320Y610362D01*
X239320Y600000D02*
X238760Y599440D01*
D45*
X238760Y599440D03*
D43*
X252320Y610362D02*
X258820Y610362D01*
X245670Y512064D02*
X239170Y512064D01*
D45*
X259191Y521970D03*
D43*
X258670Y521449D02*
X258670Y512064D01*
X258670Y521449D02*
X259191Y521970D01*
D47*
X245670Y522914D02*
X245670Y512064D01*
X245670Y522914D02*
X242804Y525780D01*
X234950Y525780D01*
D45*
X234950Y525780D03*
D47*
X196850Y552216D02*
X196850Y560070D01*
X256306Y679450D02*
X256306Y688106D01*
X256540Y688340D01*
D45*
X256540Y688340D03*
D43*
X239320Y676351D02*
X239320Y665734D01*
X239320Y676351D02*
X238760Y676910D01*
D45*
X238760Y676910D03*
D43*
X258820Y676937D02*
X258820Y665734D01*
X258820Y676937D02*
X256306Y679450D01*
D47*
X241534Y443230D02*
X241534Y435844D01*
X241300Y435610D01*
D45*
X241300Y435610D03*
D43*
X239170Y445594D02*
X239170Y456692D01*
X239170Y445594D02*
X241534Y443230D01*
D47*
X256306Y591586D02*
X256306Y596900D01*
X256306Y591586D02*
X254000Y589280D01*
D45*
X254000Y589280D03*
D43*
X258670Y456692D02*
X258670Y444910D01*
X259080Y444500D01*
D45*
X259080Y444500D03*
D47*
X447784Y278130D02*
X448314Y278660D01*
X447784Y278130D02*
X440690Y278130D01*
D45*
X440690Y278130D03*
D47*
X448314Y268500D02*
X447784Y267970D01*
X440690Y267970D01*
D45*
X440690Y267970D03*
D47*
X473884Y287760D02*
X493500Y287760D01*
X494030Y288290D01*
D45*
X494030Y288290D03*
D47*
X443760Y437620D02*
X443760Y444964D01*
X443760Y437620D02*
X444500Y436880D01*
D45*
X444500Y436880D03*
D47*
X434870Y437620D02*
X434870Y444964D01*
X434870Y437620D02*
X435610Y436880D01*
D45*
X435610Y436880D03*
X439420Y461351D03*
D47*
X433810Y464421D02*
X433810Y474740D01*
X436880Y461351D02*
X439420Y461351D01*
X436880Y461351D02*
X433810Y464421D01*
D43*
X494560Y733320D02*
X495300Y734060D01*
X494560Y733320D02*
X494560Y722122D01*
D45*
X495300Y734060D03*
D43*
X606852Y669132D02*
X606852Y655528D01*
X607060Y655320D01*
D45*
X607060Y655320D03*
X332470Y321310D03*
D47*
X334098Y325721D02*
X334098Y336447D01*
X334098Y325721D02*
X332555Y324178D01*
X332555Y321395D01*
X332470Y321310D01*
X628580Y309880D02*
X629110Y310410D01*
X628580Y309880D02*
X613410Y309880D01*
D45*
X613410Y309880D03*
D43*
X636780Y323110D02*
X639850Y320040D01*
X636780Y323110D02*
X629110Y323110D01*
D45*
X237166Y402266D03*
D43*
X237490Y401942D02*
X237490Y391006D01*
X237490Y401942D02*
X237166Y402266D01*
D47*
X179561Y390437D02*
X179561Y377969D01*
X180340Y377190D01*
D45*
X180340Y377190D03*
D47*
X1152858Y465150D02*
X1153112Y465404D01*
D46*
X1346658Y211150D02*
X1346658Y210566D01*
X1316736Y210566D01*
D45*
X1316736Y210566D03*
X195665Y432308D03*
D43*
X195664Y432307D01*
X195664Y421642D01*
D45*
X193125Y287020D03*
D43*
X192510Y287635D01*
X192510Y297688D01*
D45*
X247905Y295910D03*
X238591Y295910D03*
D47*
X238591Y296079D02*
X238530Y296140D01*
X238591Y296079D02*
X238591Y295910D01*
X247420Y296395D02*
X247420Y304294D01*
X247420Y296395D02*
X247905Y295910D01*
D45*
X245621Y423161D03*
D47*
X245621Y414807D01*
X245340Y414526D01*
D45*
X256670Y423288D03*
D47*
X256770Y423288D01*
X256770Y414526D01*
D43*
X484910Y620290D02*
X484910Y621030D01*
X490220Y621030D02*
X494030Y617220D01*
X490220Y621030D02*
X484910Y621030D01*
X484910Y612162D02*
X484910Y602210D01*
X485140Y601980D01*
D45*
X485140Y601980D03*
D43*
X673629Y277854D02*
X683536Y277854D01*
X683768Y277622D01*
D45*
X683768Y277622D03*
D43*
X684298Y248136D02*
X684784Y247650D01*
X684298Y248136D02*
X673121Y248136D01*
D45*
X684784Y247650D03*
D43*
X684356Y220138D02*
X684784Y219710D01*
X684356Y220138D02*
X673838Y220138D01*
D45*
X684784Y219710D03*
D47*
X450810Y350714D02*
X440650Y350714D01*
X428030Y338094D01*
X428030Y336002D01*
X256770Y404834D02*
X245340Y404834D01*
D45*
X237211Y411201D03*
D47*
X237331Y411201D01*
D43*
X494030Y592376D02*
X494030Y617220D01*
X494030Y592376D02*
X493661Y592007D01*
X493661Y585411D01*
X484610Y576360D01*
X484610Y568740D01*
X458240Y603480D02*
X458240Y612416D01*
X458240Y603480D02*
X458470Y603250D01*
D45*
X458470Y603250D03*
D43*
X432840Y603480D02*
X432840Y612416D01*
X432840Y603480D02*
X433070Y603250D01*
D45*
X433070Y603250D03*
D43*
X484910Y612162D02*
X484910Y620290D01*
D47*
X247420Y313986D02*
X238530Y313986D01*
X238530Y314402D01*
X238059Y314873D01*
X238059Y331383D01*
X257898Y385723D02*
X257898Y403706D01*
X256770Y404834D01*
D45*
X250889Y323405D03*
D47*
X250931Y317497D02*
X247420Y313986D01*
X250931Y317497D02*
X250931Y323405D01*
X250889Y323405D01*
X245820Y665734D02*
X245820Y675314D01*
X246614Y679450D01*
X215280Y541020D02*
X198354Y541020D01*
X196850Y542524D01*
X246614Y679450D02*
X246380Y679684D01*
X246380Y688340D01*
D45*
X246380Y688340D03*
D47*
X196850Y542524D02*
X186924Y542524D01*
X186690Y542290D01*
D45*
X186690Y542290D03*
D47*
X252170Y456692D02*
X252170Y444174D01*
X251226Y443230D01*
X251226Y435844D01*
X251460Y435610D01*
D45*
X251460Y435610D03*
D47*
X458006Y278660D02*
X458006Y268500D01*
X473884Y300460D02*
X473424Y300920D01*
X464846Y300920D01*
X458006Y294080D02*
X458006Y278660D01*
X458006Y294080D02*
X464846Y300920D01*
X458006Y268500D02*
X458470Y268036D01*
X458470Y259080D01*
D45*
X458470Y259080D03*
D47*
X421110Y462810D02*
X421110Y474740D01*
X421110Y462810D02*
X429264Y454656D01*
X434870Y454656D01*
X443760Y454656D01*
X450810Y350714D02*
X454854Y350714D01*
X458470Y354330D01*
D45*
X458470Y354330D03*
D47*
X446510Y551920D02*
X446510Y568740D01*
X446510Y551920D02*
X445770Y551180D01*
D45*
X445770Y551180D03*
D47*
X549170Y275060D02*
X567884Y275060D01*
X549170Y275060D02*
X548640Y275590D01*
D45*
X548640Y275590D03*
D47*
X245340Y404834D02*
X243698Y404834D01*
X237331Y411201D01*
D45*
X541274Y452897D03*
X454553Y454660D03*
D47*
X454549Y454656D02*
X443760Y454656D01*
X454549Y454656D02*
X454553Y454660D01*
D43*
X558038Y547624D02*
X558038Y562332D01*
D45*
X558038Y547624D03*
D43*
X558546Y547116D02*
X558546Y534186D01*
X558546Y547116D02*
X558038Y547624D01*
X541274Y452897D02*
X541223Y452845D01*
X541223Y442770D01*
X560048Y486204D02*
X560048Y498834D01*
X560070Y498856D01*
D45*
X560070Y498856D03*
D48*
X976130Y669630D02*
X1077233Y669630D01*
X1096283Y669630D01*
X976130Y669630D02*
X861430Y669630D01*
D49*
X924060Y617560D02*
X976130Y669630D01*
X1029740Y611378D02*
X1029740Y489712D01*
X1029740Y353490D01*
D46*
X814440Y622300D02*
X814440Y622640D01*
D49*
X814440Y622300D02*
X814440Y496570D01*
X814440Y491744D02*
X814440Y373394D01*
X814440Y491744D02*
X814440Y496570D01*
X814440Y622640D02*
X861090Y669290D01*
X1029740Y622137D02*
X1029740Y611378D01*
D46*
X1268500Y570760D02*
X1269770Y569490D01*
X1268500Y570760D02*
X1248964Y570760D01*
X1236750Y582974D01*
X1236518Y583206D01*
X1236518Y640542D02*
X1186066Y690994D01*
X1236518Y640542D02*
X1236518Y583206D01*
D49*
X924060Y617560D02*
X924060Y487840D01*
X924060Y358300D01*
D47*
X783280Y591140D02*
X814440Y622300D01*
X783280Y591140D02*
X783280Y590900D01*
X814440Y496570D02*
X814440Y492520D01*
X897580Y461360D02*
X924060Y487840D01*
X1029740Y353490D02*
X1002990Y326740D01*
D49*
X666750Y532130D02*
X803910Y669290D01*
X666750Y532130D02*
X666750Y431800D01*
D47*
X680380Y418170D01*
X685150Y418170D01*
X666750Y431800D02*
X666750Y324634D01*
D49*
X803910Y669290D02*
X861090Y669290D01*
X861430Y669630D01*
D47*
X924060Y617560D02*
X897400Y590900D01*
X892500Y590900D01*
D49*
X1029740Y622137D02*
X1077233Y669630D01*
D44*
X1002080Y743370D02*
X1066220Y807510D01*
X1002080Y743370D02*
X975410Y743370D01*
X1066220Y807510D02*
X1084050Y807510D01*
X1184794Y756294D02*
X1186066Y757566D01*
X1184794Y756294D02*
X1151776Y756294D01*
X1100560Y807510D01*
X1084050Y807510D01*
X1216430Y798090D02*
X1216430Y787930D01*
X1186066Y757566D01*
D48*
X1151776Y725123D02*
X1096283Y669630D01*
D46*
X1186066Y690994D02*
X1186066Y757566D01*
D48*
X1151776Y756294D02*
X1151776Y725123D01*
D47*
X897580Y461360D02*
X892500Y461360D01*
X924060Y358300D02*
X893770Y328010D01*
X892500Y328010D01*
X784056Y461360D02*
X814440Y491744D01*
X784056Y461360D02*
X783280Y461360D01*
X1009262Y590900D02*
X1029740Y611378D01*
X1009262Y590900D02*
X1002990Y590900D01*
X1029740Y489712D02*
X1029740Y486840D01*
X1002990Y460090D01*
X814440Y373394D02*
X814440Y359170D01*
X783280Y328010D01*
X680974Y310410D02*
X666750Y324634D01*
X680974Y310410D02*
X683610Y310410D01*
D43*
X901676Y96798D02*
X910314Y96798D01*
X901676Y96798D02*
X817626Y180848D01*
X283464Y180848D01*
X228600Y235712D01*
X228622Y292853D02*
X228622Y302523D01*
X221720Y309425D02*
X221720Y313992D01*
X221720Y309425D02*
X228622Y302523D01*
X228600Y292831D02*
X228600Y235712D01*
X228600Y292831D02*
X228622Y292853D01*
X221720Y313992D02*
X221720Y323023D01*
X218560Y326183D01*
X218560Y331383D01*
X207750Y313992D02*
X207750Y309425D01*
X214652Y302523D01*
X214652Y235691D02*
X277114Y173228D01*
X214652Y235691D02*
X214652Y302523D01*
X680982Y97299D02*
X703805Y97299D01*
X680982Y97299D02*
X605052Y173228D01*
X277114Y173228D01*
X207750Y313992D02*
X207750Y322843D01*
X205560Y325033D01*
X205560Y331383D01*
X483084Y96798D02*
X497564Y96798D01*
X483084Y96798D02*
X414274Y165608D01*
X269494Y165608D01*
X199412Y235691D01*
X192510Y309425D02*
X192510Y313992D01*
X192510Y309425D02*
X199412Y302523D01*
X199412Y235691D01*
X192510Y313992D02*
X192510Y331333D01*
X192560Y331383D01*
X295905Y126497D02*
X295905Y97529D01*
X295905Y126497D02*
X184150Y238252D01*
X184150Y306222D01*
X176300Y314072D01*
X176300Y328122D01*
X179561Y331383D01*
X150614Y389374D02*
X167640Y406400D01*
X150614Y389374D02*
X150614Y382270D01*
D45*
X150614Y382270D03*
D43*
X167640Y406400D02*
X179090Y406400D01*
X180361Y405129D01*
X183068Y405129D01*
X191140Y391857D02*
X192560Y390437D01*
X191140Y397057D02*
X183068Y405129D01*
X191140Y397057D02*
X191140Y391857D01*
X168484Y414347D02*
X138960Y384822D01*
X168484Y414347D02*
X186690Y414347D01*
X195664Y405373D01*
X195664Y405338D01*
X195859Y405338D02*
X205560Y395637D01*
X195859Y405338D02*
X195664Y405338D01*
X205560Y395637D02*
X205560Y390437D01*
X138960Y384822D02*
X138960Y345350D01*
X112610Y319000D01*
X85620Y319000D01*
X85620Y524740D02*
X113555Y524740D01*
X204470Y433825D01*
X218410Y390587D02*
X218560Y390437D01*
X204470Y413188D02*
X204470Y433825D01*
X204470Y413188D02*
X212320Y405338D01*
X212320Y402798D02*
X218410Y396708D01*
X212320Y402798D02*
X212320Y405338D01*
X218410Y396708D02*
X218410Y390587D01*
D45*
X120650Y548640D03*
D43*
X120650Y532669D01*
X220659Y432660D01*
X220659Y410441D01*
X226290Y404810D02*
X227560Y404810D01*
X226290Y404810D02*
X220659Y410441D01*
X227560Y399730D02*
X231560Y395730D01*
X227560Y399730D02*
X227560Y404810D01*
X231560Y395730D02*
X231560Y390437D01*
X319510Y474740D02*
X319510Y480800D01*
X355600Y516890D01*
X449580Y516890D01*
X504190Y571500D01*
X504190Y624840D01*
D45*
X887984Y170688D03*
D43*
X920474Y138198D01*
X920474Y114578D01*
D45*
X439453Y638777D03*
D43*
X490253Y638777D02*
X504190Y624840D01*
X490253Y638777D02*
X439453Y638777D01*
X357610Y480800D02*
X357610Y474740D01*
X357610Y480800D02*
X381000Y504190D01*
X458470Y504190D01*
X519430Y565150D01*
X519430Y632460D01*
X495300Y656590D01*
X439420Y656590D01*
D45*
X439420Y658370D03*
D43*
X439420Y656590D01*
D45*
X305054Y156718D03*
D43*
X306065Y155707D01*
X306065Y115309D01*
X332210Y474740D02*
X332210Y485880D01*
X359410Y513080D01*
X452120Y513080D01*
X509270Y570230D01*
X509270Y627380D01*
X491490Y645160D01*
X439590Y645160D01*
X439453Y645297D01*
D45*
X678434Y165608D03*
D43*
X713965Y130077D01*
X713965Y115079D01*
D45*
X439453Y645297D03*
D43*
X370310Y482070D02*
X370310Y474740D01*
X370310Y482070D02*
X388620Y500380D01*
X461010Y500380D01*
D45*
X318770Y662940D03*
D43*
X437404Y662940D02*
X437491Y663027D01*
X437404Y662940D02*
X318770Y662940D01*
X461010Y500380D02*
X525018Y564388D01*
X525018Y633883D01*
X495874Y663027D01*
X437491Y663027D01*
X344910Y483340D02*
X344910Y474740D01*
X344910Y483340D02*
X369570Y508000D01*
X454660Y508000D01*
X514350Y567690D01*
X514350Y629920D01*
X492760Y651510D01*
X439760Y651510D01*
X439453Y651817D01*
D45*
X468884Y165608D03*
D43*
X507724Y126768D01*
X507724Y114578D01*
D45*
X439453Y651817D03*
D43*
X383010Y480800D02*
X383010Y474740D01*
X383010Y480800D02*
X397510Y495300D01*
X462280Y495300D01*
D45*
X318770Y670560D03*
D43*
X462280Y495300D02*
X530352Y563372D01*
X530352Y635040D01*
X494832Y670560D01*
X318770Y670560D01*
X408410Y478260D02*
X408410Y474740D01*
X408410Y478260D02*
X417830Y487680D01*
X467360Y487680D01*
X539750Y560070D01*
X539750Y638810D01*
X494030Y684530D01*
D45*
X318803Y684733D03*
D43*
X319006Y684530D01*
X494030Y684530D01*
X395710Y480800D02*
X395710Y474740D01*
X395710Y480800D02*
X406400Y491490D01*
X464820Y491490D01*
D45*
X318770Y678180D03*
D43*
X464820Y491490D02*
X534416Y561086D01*
X534416Y637468D01*
X493704Y678180D01*
X318770Y678180D01*
X408410Y568740D02*
X408410Y559216D01*
X371164Y521970D01*
X284318Y456692D02*
X278170Y456692D01*
X349596Y521970D02*
X371164Y521970D01*
X349596Y521970D02*
X284318Y456692D01*
X395710Y559216D02*
X395710Y568740D01*
X395710Y559216D02*
X363798Y527304D01*
X220074Y460836D02*
X220074Y457096D01*
X219670Y456692D01*
X348641Y527304D02*
X363798Y527304D01*
X348641Y527304D02*
X291491Y470154D01*
X229392Y470154D02*
X220074Y460836D01*
X229392Y470154D02*
X291491Y470154D01*
X384280Y567470D02*
X383010Y568740D01*
X384280Y567470D02*
X384280Y560486D01*
X356432Y532638D01*
X219670Y512064D02*
X219670Y506770D01*
X347483Y532638D02*
X356432Y532638D01*
X229870Y496570D02*
X219670Y506770D01*
X229870Y496570D02*
X311415Y496570D01*
X347483Y532638D01*
X337820Y551180D02*
X344910Y558270D01*
X337820Y551180D02*
X313690Y551180D01*
X300990Y563880D01*
X300990Y601980D01*
X275590Y627380D01*
X232410Y627380D01*
X219820Y614790D01*
X219820Y610362D01*
X344910Y568740D02*
X344910Y558270D01*
X319510Y568740D02*
X313160Y568740D01*
X308610Y573290D01*
X308610Y628650D01*
X278320Y658941D01*
X278320Y665734D01*
X332210Y568740D02*
X332210Y562080D01*
X325120Y554990D01*
X314960Y554990D01*
X304800Y565150D01*
X304800Y626110D01*
X279400Y651510D01*
X227330Y651510D01*
X219820Y659021D01*
X219820Y665734D01*
X370262Y568692D02*
X370310Y568740D01*
X370262Y568692D02*
X370262Y561708D01*
X315538Y506984D01*
X283250Y506984D01*
X278170Y512064D01*
X357610Y563350D02*
X357610Y568740D01*
X357610Y563350D02*
X341630Y547370D01*
X311150Y547370D01*
X297180Y561340D01*
X297180Y577850D01*
X278320Y596711D01*
X278320Y610362D01*
X321398Y345528D02*
X321398Y336447D01*
X377230Y392390D02*
X370840Y398780D01*
X377230Y392390D02*
X377230Y385278D01*
X343194Y392216D02*
X343194Y367324D01*
X343194Y392216D02*
X349758Y398780D01*
X370840Y398780D01*
X343194Y367324D02*
X321398Y345528D01*
X293269Y305887D02*
X407138Y305887D01*
X283298Y315857D02*
X283298Y336447D01*
X283298Y315857D02*
X293269Y305887D01*
X425490Y385278D02*
X428030Y385278D01*
X422696Y321444D02*
X407138Y305887D01*
X422696Y321444D02*
X422696Y382484D01*
X425490Y385278D01*
X402630Y385278D02*
X402630Y375880D01*
X415330Y363180D01*
X415330Y336002D01*
X402630Y343034D02*
X365800Y379864D01*
X365800Y384008D02*
X364530Y385278D01*
X365800Y384008D02*
X365800Y379864D01*
X402630Y343034D02*
X402630Y336002D01*
D47*
X685150Y468970D02*
X721020Y468970D01*
X728630Y461360D01*
X748280Y461360D01*
X720430Y481670D02*
X685150Y481670D01*
X772160Y533400D02*
X773430Y533400D01*
X772160Y533400D02*
X720430Y481670D01*
D45*
X773430Y533400D03*
D47*
X712810Y494370D02*
X685150Y494370D01*
X712810Y494370D02*
X773430Y554990D01*
D45*
X773430Y554990D03*
D47*
X748280Y565120D02*
X690230Y507070D01*
X685150Y507070D01*
X748280Y565120D02*
X748280Y590900D01*
D50*
X683610Y386610D02*
X683610Y373910D01*
D47*
X701301Y373910D02*
X716280Y358931D01*
X701301Y373910D02*
X683610Y373910D01*
X716280Y358931D02*
X716280Y314960D01*
X736600Y294640D01*
X941828Y294640D01*
X967990Y320802D01*
X967990Y326740D01*
D43*
X505308Y487550D02*
X503960Y486202D01*
X505308Y487550D02*
X521300Y487550D01*
X503960Y486202D02*
X503960Y493800D01*
X505460Y495300D01*
D45*
X505460Y495300D03*
D43*
X502250Y443100D02*
X501872Y442722D01*
X485670Y442722D01*
X502250Y443100D02*
X502250Y451450D01*
X502920Y452120D01*
D45*
X502920Y452120D03*
X586232Y591631D03*
D47*
X594038Y561238D02*
X597340Y561238D01*
D43*
X594038Y561238D02*
X586354Y568922D01*
D47*
X597594Y518955D02*
X597594Y518447D01*
D43*
X597594Y518955D02*
X586354Y530195D01*
D47*
X586354Y568922D01*
X586354Y591509D02*
X586232Y591631D01*
X586354Y591509D02*
X586354Y568922D01*
D43*
X597340Y561238D02*
X611300Y561238D01*
X612902Y562840D01*
X599062Y519914D02*
X597594Y518447D01*
X599062Y519914D02*
X614172Y519914D01*
X285060Y748310D02*
X278430Y741680D01*
X275590Y741680D01*
X270510Y736600D01*
X290830Y539750D02*
X271670Y520590D01*
X271670Y512064D01*
X271670Y506620D01*
X266700Y501650D01*
X232410Y501650D01*
X226170Y507890D01*
X226170Y512064D01*
X226170Y516780D01*
X222250Y520700D01*
X215900Y520700D01*
X212090Y516890D01*
X226170Y456692D02*
X226170Y450412D01*
X226170Y460432D02*
X231828Y466090D01*
X226170Y460432D02*
X226170Y456692D01*
X231828Y466090D02*
X266012Y466090D01*
X271266Y460836D02*
X271266Y457096D01*
X271670Y456692D01*
X271266Y460836D02*
X266012Y466090D01*
X226170Y450412D02*
X223306Y447548D01*
X216034Y447548D01*
X212090Y451492D02*
X212090Y516890D01*
X212090Y451492D02*
X216034Y447548D01*
X290830Y576182D02*
X271820Y595192D01*
X271820Y610362D01*
X290830Y576182D02*
X290830Y539750D01*
X226320Y606050D02*
X222250Y601980D01*
X226320Y606050D02*
X226320Y610362D01*
X226320Y614940D01*
X232410Y621030D01*
X266700Y621030D01*
X271820Y615911D01*
X271820Y610362D01*
X213360Y670560D02*
X217170Y674370D01*
X222250Y674370D01*
X226320Y670301D01*
X226320Y665734D01*
X222250Y601980D02*
X217962Y601980D01*
X213360Y606582D01*
X213360Y670560D01*
X226320Y665734D02*
X226320Y660141D01*
X231140Y655320D01*
X265145Y655320D01*
X271820Y661994D01*
X271820Y665734D01*
X270510Y667044D02*
X270510Y736600D01*
X270510Y667044D02*
X271820Y665734D01*
X1396770Y550440D02*
X1413280Y533930D01*
X1396770Y550440D02*
X1396770Y569490D01*
X1413280Y533930D02*
X1413280Y167108D01*
X1355722Y109550D01*
X1346658Y109550D01*
X1379498Y559142D02*
X1379498Y582378D01*
X1379498Y559142D02*
X1405660Y532980D01*
X1396770Y594890D02*
X1392010Y594890D01*
X1379498Y582378D01*
X1405660Y183618D02*
X1356992Y134950D01*
X1346658Y134950D01*
X1405660Y183618D02*
X1405660Y532980D01*
X1397786Y282216D02*
X1352120Y236550D01*
X1346658Y236550D01*
X1396770Y616160D02*
X1396770Y620290D01*
X1397786Y533093D02*
X1397786Y282216D01*
X1375434Y594824D02*
X1396770Y616160D01*
X1375434Y594824D02*
X1375434Y555445D01*
X1397786Y533093D01*
X1396770Y641560D02*
X1396770Y645690D01*
X1390420Y299188D02*
X1353182Y261950D01*
X1346658Y261950D01*
X1390420Y299188D02*
X1390420Y533967D01*
X1370100Y614890D02*
X1396770Y641560D01*
X1370100Y614890D02*
X1370100Y554287D01*
X1390420Y533967D01*
X1381276Y535350D02*
X1381276Y313078D01*
X1355548Y287350D01*
X1346658Y287350D01*
X1396770Y719350D02*
X1396770Y721890D01*
X1364766Y551860D02*
X1381276Y535350D01*
X1364766Y687346D02*
X1396770Y719350D01*
X1364766Y687346D02*
X1364766Y551860D01*
X1372386Y329588D02*
X1355548Y312750D01*
X1346658Y312750D01*
X1372386Y329588D02*
X1372386Y536479D01*
X1358162Y550703D01*
X1358162Y688631D01*
X1392010Y747290D02*
X1396770Y747290D01*
X1392010Y747290D02*
X1379498Y734778D01*
X1379498Y709967D02*
X1358162Y688631D01*
X1379498Y709967D02*
X1379498Y734778D01*
X576050Y313160D02*
X567884Y313160D01*
X576050Y313160D02*
X615950Y353060D01*
X615950Y388620D01*
X626640Y399310D01*
X629110Y399310D01*
X574780Y325860D02*
X567884Y325860D01*
X574780Y325860D02*
X610870Y361950D01*
X610870Y417440D01*
X624300Y430870D02*
X630650Y430870D01*
X624300Y430870D02*
X610870Y417440D01*
X578590Y338560D02*
X567884Y338560D01*
X578590Y338560D02*
X605790Y365760D01*
X605790Y423790D01*
X625570Y443570D02*
X630650Y443570D01*
X625570Y443570D02*
X605790Y423790D01*
X581533Y353187D02*
X580368Y352022D01*
X581533Y353187D02*
X600710Y372364D01*
X600710Y430530D01*
X626450Y456270D01*
X630650Y456270D01*
X580368Y352022D02*
X579606Y351260D01*
X567884Y351260D01*
X627380Y468970D02*
X630650Y468970D01*
X576050Y363960D02*
X567884Y363960D01*
X576050Y363960D02*
X595630Y383540D01*
X595630Y437220D01*
X627380Y468970D01*
X627380Y481670D02*
X630650Y481670D01*
X574780Y376660D02*
X567884Y376660D01*
X574780Y376660D02*
X590550Y392430D01*
X590550Y444840D01*
X627380Y481670D01*
X626840Y494370D02*
X630650Y494370D01*
X626840Y494370D02*
X585470Y453000D01*
X574868Y389360D02*
X567884Y389360D01*
X574868Y389360D02*
X585470Y399962D01*
X585470Y453000D01*
X570424Y402060D02*
X567884Y402060D01*
X570424Y402060D02*
X580390Y412026D01*
X580390Y456810D01*
X630650Y507070D01*
X1032566Y247476D02*
X1032566Y234570D01*
X1007650Y209700D02*
X942650Y209700D01*
X1031291Y234570D02*
X1032566Y234570D01*
X1031291Y234570D02*
X1007650Y210929D01*
X1007650Y209700D01*
X918520Y235332D02*
X918520Y248238D01*
X918520Y235332D02*
X913948Y235332D01*
X893096Y214480D01*
X893096Y209580D01*
X1032566Y278501D02*
X1064973Y310908D01*
X1032566Y278501D02*
X1032566Y263780D01*
X1119819Y310908D02*
X1133773Y324862D01*
X1119819Y310908D02*
X1064973Y310908D01*
X1290920Y363550D02*
X1346658Y363550D01*
X1290920Y363550D02*
X1252232Y324862D01*
X1133773Y324862D01*
X958808Y289900D02*
X933450Y264542D01*
X918520Y264542D01*
X958808Y289900D02*
X1005978Y289900D01*
X1052386Y336308D01*
X1112743Y336308D01*
X1127967Y351532D01*
X1254630Y351532D01*
X1292048Y388950D02*
X1346658Y388950D01*
X1292048Y388950D02*
X1254630Y351532D01*
X778256Y209088D02*
X713256Y209088D01*
X778256Y209088D02*
X797976Y228808D01*
X803886Y228808D01*
X713256Y209088D02*
X693166Y229178D01*
X693166Y286004D01*
X647700Y331470D01*
X647700Y360680D01*
X634470Y373910D01*
X629110Y373910D01*
X353058Y334774D02*
X351830Y336002D01*
X353058Y334774D02*
X353058Y316460D01*
X393470Y700300D02*
X489042Y700300D01*
X494560Y705818D01*
D45*
X364490Y354330D03*
D43*
X364490Y336042D01*
X364530Y336002D01*
D46*
X1369870Y713500D02*
X1369870Y799870D01*
X1369870Y713500D02*
X1277930Y621560D01*
X1271040Y621560D01*
X1269770Y620290D01*
X1269770Y645690D02*
X1277930Y645690D01*
X1344870Y712630D01*
X1344870Y799870D01*
X1273871Y670836D02*
X1270024Y670836D01*
X1269770Y671090D01*
X1273871Y670836D02*
X1319870Y716835D01*
X1319870Y799870D01*
X1276660Y696490D02*
X1269770Y696490D01*
X1294870Y714700D02*
X1294870Y727710D01*
X1294870Y740410D01*
X1294870Y799870D01*
X1294870Y714700D02*
X1276660Y696490D01*
D43*
X389930Y336002D02*
X377230Y336002D01*
X225210Y390287D02*
X225060Y390437D01*
X225210Y390287D02*
X225210Y381277D01*
X270598Y379039D02*
X270598Y385723D01*
X270598Y379039D02*
X265344Y373785D01*
X232702Y373785D02*
X225210Y381277D01*
X232702Y373785D02*
X265344Y373785D01*
X270598Y385723D02*
X270598Y402285D01*
X271250Y402937D01*
X212210Y390287D02*
X212060Y390437D01*
X212210Y390287D02*
X212210Y385087D01*
X226457Y370840D01*
X274320Y370840D01*
X283298Y379818D01*
X283298Y385723D01*
X283298Y402446D01*
X283950Y403098D01*
X199210Y390287D02*
X199060Y390437D01*
X199210Y390287D02*
X199210Y385087D01*
X217267Y367030D01*
X308444Y380055D02*
X308444Y385469D01*
X308698Y385723D01*
X295419Y367030D02*
X217267Y367030D01*
X295419Y367030D02*
X308444Y380055D01*
X308698Y385723D02*
X308698Y402480D01*
X308080Y403098D01*
X321398Y402901D02*
X321398Y385723D01*
X321398Y402901D02*
X321201Y403098D01*
X186060Y390437D02*
X186060Y379090D01*
X201930Y363220D01*
X321144Y382595D02*
X321144Y385469D01*
X321398Y385723D01*
X301769Y363220D02*
X201930Y363220D01*
X301769Y363220D02*
X321144Y382595D01*
X308698Y336447D02*
X309140Y336005D01*
X309140Y314452D01*
X186060Y331383D02*
X186060Y337190D01*
X208280Y359410D01*
X292100Y359410D01*
X308698Y342812D01*
X308698Y336447D01*
X296440Y336005D02*
X295998Y336447D01*
X296440Y336005D02*
X296440Y314452D01*
X295744Y336701D02*
X295744Y344654D01*
X295744Y336701D02*
X295998Y336447D01*
X295744Y344654D02*
X285560Y354838D01*
X199060Y336583D02*
X199060Y331383D01*
X199060Y336583D02*
X217315Y354838D01*
X285560Y354838D01*
X270598Y328827D02*
X273580Y325845D01*
X270598Y328827D02*
X270598Y336447D01*
X273580Y325845D02*
X273580Y314452D01*
X270344Y336701D02*
X270344Y345924D01*
X270344Y336701D02*
X270598Y336447D01*
X212060Y337853D02*
X212060Y331383D01*
X212060Y337853D02*
X226251Y352044D01*
X264224Y352044D01*
X270344Y345924D01*
X257898Y328827D02*
X260880Y325845D01*
X257898Y328827D02*
X257898Y336447D01*
X260880Y325845D02*
X260880Y314452D01*
X225060Y331383D02*
X225060Y339360D01*
X234950Y349250D01*
X248905Y349250D01*
X257898Y340257D02*
X257898Y336447D01*
X257898Y340257D02*
X248905Y349250D01*
X646960Y386610D02*
X656590Y396240D01*
X646960Y386610D02*
X629110Y386610D01*
X671552Y548122D02*
X671552Y591932D01*
X656590Y533160D02*
X656590Y396240D01*
X656590Y533160D02*
X671552Y548122D01*
X671552Y591932D02*
X660564Y602920D01*
X653010Y602920D01*
X499932Y426418D02*
X485670Y426418D01*
X499932Y426418D02*
X502250Y424100D01*
D45*
X515112Y421894D03*
D43*
X504456Y421894D01*
X502250Y424100D01*
X471910Y474740D02*
X471910Y485880D01*
X546499Y478050D02*
X560048Y469900D01*
X546499Y478050D02*
X542500Y478050D01*
X492230Y249660D02*
X473884Y249660D01*
X492230Y249660D02*
X510540Y267970D01*
X542500Y478050D02*
X519071Y501479D01*
X487509Y501479D01*
X471910Y485880D01*
X542500Y468398D02*
X553952Y456947D01*
X542500Y468398D02*
X542500Y478050D01*
X510540Y381018D02*
X510540Y267970D01*
X510540Y381018D02*
X553952Y424430D01*
X553952Y456947D01*
X459210Y455190D02*
X459210Y474740D01*
X500380Y274320D02*
X488420Y262360D01*
X473884Y262360D01*
X536531Y426466D02*
X541223Y426466D01*
X536531Y426466D02*
X531355Y433600D01*
X523450Y433600D01*
X480800Y433600D01*
X523450Y433600D02*
X523450Y412960D01*
X500380Y389890D01*
X500380Y274320D01*
X480800Y433600D02*
X459210Y455190D01*
X503960Y469898D02*
X504038Y469820D01*
X520030Y469820D02*
X521300Y468550D01*
X520030Y469820D02*
X504038Y469820D01*
D45*
X533646Y468876D03*
D43*
X522896Y468876D01*
X522570Y468550D01*
X521300Y468550D01*
X639951Y220519D02*
X644882Y220519D01*
X639951Y220519D02*
X623510Y236960D01*
X567884Y236960D01*
X665329Y220519D02*
X665710Y220138D01*
X665329Y220519D02*
X644882Y220519D01*
X664993Y248136D02*
X664509Y248620D01*
X644756Y248620D01*
X568924Y248620D01*
X567884Y249660D01*
X631398Y277068D02*
X644882Y277068D01*
X631398Y277068D02*
X616690Y262360D01*
X567884Y262360D01*
X645668Y277854D02*
X665501Y277854D01*
X645668Y277854D02*
X644882Y277068D01*
X459891Y618893D02*
X458240Y620544D01*
X459891Y618893D02*
X464162Y618893D01*
X469692Y613363D01*
X469692Y594590D01*
X467152Y592050D01*
X471910Y585717D02*
X471910Y568740D01*
X467152Y590475D02*
X467152Y592050D01*
X467152Y590475D02*
X471910Y585717D01*
X433221Y620163D02*
X432840Y620544D01*
X433221Y620163D02*
X437492Y620163D01*
X442492Y615163D01*
X442492Y594432D01*
X440067Y592007D01*
X440067Y590737D02*
X442283Y588521D01*
X440067Y590737D02*
X440067Y592007D01*
X459210Y571914D02*
X459210Y568740D01*
X459210Y571914D02*
X442603Y588521D01*
X442283Y588521D01*
X380770Y316460D02*
X369362Y316460D01*
X380770Y316460D02*
X381000Y316230D01*
D45*
X381000Y316230D03*
D43*
X652832Y577698D02*
X653010Y577520D01*
X611808Y580238D02*
X597340Y580238D01*
X611808Y580238D02*
X612902Y579144D01*
X651386Y579144D01*
X653010Y577520D01*
X567884Y287760D02*
X557530Y287760D01*
X575310Y435610D02*
X575310Y494006D01*
X575310Y435610D02*
X549910Y410210D01*
X549910Y295380D01*
X557530Y287760D01*
X575310Y494006D02*
X558546Y510770D01*
X558546Y517882D01*
X558546Y521021D02*
X565472Y527947D01*
X558546Y521021D02*
X558546Y517882D01*
X565472Y527947D02*
X576394Y527947D01*
X590392Y669132D02*
X590548Y669132D01*
X590392Y669132D02*
X558038Y636778D01*
X590548Y669132D02*
X611910Y690494D01*
X611910Y700300D01*
X558038Y636778D02*
X558038Y578636D01*
X565936Y570738D01*
X576140Y570738D01*
X293969Y441960D02*
X271250Y419241D01*
X293969Y441960D02*
X423824Y441960D01*
X463724Y402060D02*
X473884Y402060D01*
X463724Y402060D02*
X423824Y441960D01*
X464360Y389360D02*
X473884Y389360D01*
X301428Y436880D02*
X283950Y419402D01*
X416840Y436880D02*
X464360Y389360D01*
X416840Y436880D02*
X301428Y436880D01*
X308080Y419840D02*
X308080Y419402D01*
X308080Y419840D02*
X320040Y431800D01*
X410210Y431800D01*
X465350Y376660D01*
X473884Y376660D01*
X472614Y365230D02*
X473884Y363960D01*
X403558Y425752D02*
X327551Y425752D01*
X321201Y419402D01*
X465350Y363960D02*
X473884Y363960D01*
X465350Y363960D02*
X403558Y425752D01*
X309140Y298148D02*
X315490Y291798D01*
X464083Y351260D02*
X473884Y351260D01*
X464083Y351260D02*
X404621Y291798D01*
X315490Y291798D01*
X307568Y287020D02*
X296440Y298148D01*
X307568Y287020D02*
X414020Y287020D01*
X465560Y338560D01*
X473884Y338560D01*
X473884Y325860D02*
X464290Y325860D01*
X289437Y282292D02*
X273580Y298148D01*
X420722Y282292D02*
X464290Y325860D01*
X420722Y282292D02*
X289437Y282292D01*
X464290Y313160D02*
X473884Y313160D01*
X282071Y276958D02*
X260880Y298148D01*
X428088Y276958D02*
X464290Y313160D01*
X428088Y276958D02*
X282071Y276958D01*
X630074Y552120D02*
X653010Y552120D01*
X612944Y537447D02*
X597594Y537447D01*
X612944Y537447D02*
X614172Y536218D01*
X630074Y552120D01*
D45*
X265346Y440111D03*
D43*
X265170Y440287D02*
X265170Y456692D01*
X265170Y440287D02*
X265346Y440111D01*
X232670Y456692D02*
X232410Y456432D01*
X232410Y444500D01*
D45*
X232410Y444500D03*
D43*
X265170Y512064D02*
X265170Y523736D01*
X259211Y529695D01*
D45*
X259191Y529695D03*
D43*
X259211Y529695D01*
X232670Y517900D02*
X232670Y512064D01*
X232670Y517900D02*
X224790Y525780D01*
D45*
X224790Y525780D03*
X265057Y592315D03*
D43*
X265320Y592578D02*
X265320Y610362D01*
X265320Y592578D02*
X265057Y592315D01*
D45*
X140970Y541020D03*
D43*
X222293Y591722D02*
X232820Y602248D01*
X232820Y610362D01*
X191672Y591722D02*
X140970Y541020D01*
X191672Y591722D02*
X222293Y591722D01*
X85620Y664440D02*
X84350Y664440D01*
X84858Y664948D01*
X121368Y664948D01*
X251786Y701828D02*
X265320Y688295D01*
X251786Y701828D02*
X158248Y701828D01*
X121368Y664948D01*
X265320Y665734D02*
X265320Y688295D01*
X155363Y685800D02*
X115570Y646007D01*
X155363Y685800D02*
X222335Y685800D01*
X232820Y675316D01*
X232820Y665734D01*
D45*
X115570Y646007D03*
D47*
X271546Y553720D02*
X280670Y562844D01*
X271546Y553720D02*
X264780Y553720D01*
X264780Y579120D02*
X274086Y579120D01*
X280670Y572536D01*
X199624Y579120D02*
X198120Y577616D01*
X199624Y579120D02*
X215280Y579120D01*
X231140Y579120D01*
X229870Y580390D01*
X231140Y579120D02*
X237490Y572770D01*
X237490Y546100D01*
X252496Y531094D01*
X246614Y596900D02*
X246380Y596900D01*
X229870Y580390D01*
X246614Y596900D02*
X245820Y597695D01*
X245820Y610362D01*
X252496Y531094D02*
X252496Y525780D01*
X252496Y512390D01*
X252170Y512064D01*
D43*
X295998Y405218D02*
X295998Y385723D01*
X295998Y405218D02*
X302260Y411480D01*
X395812Y411480D01*
X415330Y391962D02*
X415330Y385278D01*
X415330Y391962D02*
X395812Y411480D01*
X344616Y406400D02*
X334098Y395883D01*
X334098Y385723D01*
X344616Y406400D02*
X377190Y406400D01*
X389930Y393660D01*
X389930Y385278D01*
D47*
X707050Y456270D02*
X718820Y444500D01*
X788670Y444500D01*
D45*
X788670Y444500D03*
D47*
X707050Y456270D02*
X685150Y456270D01*
X685150Y443570D02*
X698160Y443570D01*
X709930Y431800D01*
X782320Y431800D01*
D45*
X782320Y431800D03*
D47*
X748280Y380750D02*
X698160Y430870D01*
X748280Y380750D02*
X748280Y328010D01*
X698160Y430870D02*
X685150Y430870D01*
X700031Y399310D02*
X731520Y367821D01*
X700031Y399310D02*
X683610Y399310D01*
X731520Y367821D02*
X731520Y320040D01*
X742950Y308610D01*
X838100Y308610D01*
X857500Y328010D01*
M02*
