G04 EAGLE Gerber RS-274X export*
G75*
%MOMM*%
%FSLAX34Y34*%
%LPD*%
%INBottom Copper*%
%IPPOS*%
%AMOC8*
5,1,8,0,0,1.08239X$1,22.5*%
G01*
G04 Define Apertures*
%ADD10R,1.500000X1.500000*%
%ADD11C,1.500000*%
%ADD12C,1.524000*%
%ADD13R,1.335000X1.335000*%
%ADD14C,1.335000*%
%ADD15C,3.000000*%
%ADD16C,1.524000*%
%ADD17R,1.524000X1.524000*%
%ADD18C,1.200000*%
%ADD19C,1.260000*%
%ADD20R,1.650000X1.650000*%
%ADD21C,1.650000*%
%ADD22C,0.525000*%
%ADD23C,0.152400*%
%ADD24C,0.508000*%
D10*
X967990Y326740D03*
D11*
X1002990Y326740D03*
D12*
X1389150Y569490D02*
X1404390Y569490D01*
X1404390Y594890D02*
X1389150Y594890D01*
X1389150Y620290D02*
X1404390Y620290D01*
X1404390Y645690D02*
X1389150Y645690D01*
X1389150Y671090D02*
X1404390Y671090D01*
X1404390Y696490D02*
X1389150Y696490D01*
X1389150Y721890D02*
X1404390Y721890D01*
X1404390Y747290D02*
X1389150Y747290D01*
X1277390Y569490D02*
X1262150Y569490D01*
X1262150Y594890D02*
X1277390Y594890D01*
X1277390Y620290D02*
X1262150Y620290D01*
X1262150Y645690D02*
X1277390Y645690D01*
X1277390Y671090D02*
X1262150Y671090D01*
X1262150Y696490D02*
X1277390Y696490D01*
X1277390Y721890D02*
X1262150Y721890D01*
X1262150Y747290D02*
X1277390Y747290D01*
D13*
X393470Y700300D03*
D14*
X368070Y700300D03*
D15*
X444270Y751100D03*
X342670Y751100D03*
D13*
X824000Y700300D03*
D14*
X798600Y700300D03*
D15*
X874800Y751100D03*
X773200Y751100D03*
D16*
X900154Y114578D03*
X920474Y114578D03*
X940794Y114578D03*
X961114Y114578D03*
X910314Y96798D03*
X930634Y96798D03*
X950954Y96798D03*
D17*
X971274Y96798D03*
D15*
X1017214Y105988D03*
X854214Y105988D03*
D16*
X693645Y115079D03*
X713965Y115079D03*
X734285Y115079D03*
X754605Y115079D03*
X703805Y97299D03*
X724125Y97299D03*
X744445Y97299D03*
D17*
X764765Y97299D03*
D15*
X810705Y106489D03*
X647705Y106489D03*
D16*
X487404Y114578D03*
X507724Y114578D03*
X528044Y114578D03*
X548364Y114578D03*
X497564Y96798D03*
X517884Y96798D03*
X538204Y96798D03*
D17*
X558524Y96798D03*
D15*
X604464Y105988D03*
X441464Y105988D03*
D16*
X285745Y115309D03*
X306065Y115309D03*
X326385Y115309D03*
X346705Y115309D03*
X295905Y97529D03*
X316225Y97529D03*
X336545Y97529D03*
D17*
X356865Y97529D03*
D15*
X402805Y106719D03*
X239805Y106719D03*
D16*
X82119Y114883D03*
X102439Y114883D03*
X122759Y114883D03*
X143079Y114883D03*
X92279Y97103D03*
X112599Y97103D03*
X132919Y97103D03*
D17*
X153239Y97103D03*
D15*
X199179Y106293D03*
X36179Y106293D03*
D16*
X103400Y329160D03*
X103400Y308840D03*
X103400Y288520D03*
X103400Y268200D03*
X85620Y319000D03*
X85620Y298680D03*
X85620Y278360D03*
D17*
X85620Y258040D03*
D15*
X94810Y212100D03*
X94810Y375100D03*
D16*
X103400Y534900D03*
X103400Y514580D03*
X103400Y494260D03*
X103400Y473940D03*
X85620Y524740D03*
X85620Y504420D03*
X85620Y484100D03*
D17*
X85620Y463780D03*
D15*
X94810Y417840D03*
X94810Y580840D03*
D16*
X103400Y735560D03*
X103400Y715240D03*
X103400Y694920D03*
X103400Y674600D03*
X85620Y725400D03*
X85620Y705080D03*
X85620Y684760D03*
D17*
X85620Y664440D03*
D15*
X94810Y618500D03*
X94810Y781500D03*
D18*
X964410Y804370D02*
X986410Y804370D01*
X929410Y782870D02*
X929410Y760870D01*
X964410Y743370D02*
X986410Y743370D01*
D19*
X1294870Y799870D03*
X1319870Y799870D03*
X1344870Y799870D03*
X1369870Y799870D03*
D10*
X857500Y328010D03*
D11*
X892500Y328010D03*
D10*
X748280Y328010D03*
D11*
X783280Y328010D03*
D10*
X967990Y460090D03*
D11*
X1002990Y460090D03*
D10*
X857500Y461360D03*
D11*
X892500Y461360D03*
D10*
X748280Y461360D03*
D11*
X783280Y461360D03*
D10*
X967990Y590900D03*
D11*
X1002990Y590900D03*
D10*
X857500Y590900D03*
D11*
X892500Y590900D03*
D10*
X748280Y590900D03*
D11*
X783280Y590900D03*
D13*
X611910Y700300D03*
D14*
X586510Y700300D03*
D15*
X662710Y751100D03*
X561110Y751100D03*
D20*
X1216430Y798090D03*
D21*
X1178330Y798090D03*
D20*
X1099550Y578230D03*
D21*
X1074150Y578230D03*
X1099550Y552830D03*
X1074150Y552830D03*
X1099550Y527430D03*
X1074150Y527430D03*
X1099550Y502030D03*
X1074150Y502030D03*
X1099550Y476630D03*
X1074150Y476630D03*
X1099550Y451230D03*
X1074150Y451230D03*
X1099550Y425830D03*
X1074150Y425830D03*
X1099550Y400430D03*
X1074150Y400430D03*
X1099550Y375030D03*
X1074150Y375030D03*
X1099550Y349630D03*
X1074150Y349630D03*
X1099550Y324230D03*
X1074150Y324230D03*
X1099550Y298830D03*
X1074150Y298830D03*
X1099550Y273430D03*
X1074150Y273430D03*
X1099550Y248030D03*
X1074150Y248030D03*
X1099550Y222630D03*
X1074150Y222630D03*
X1099550Y197230D03*
X1074150Y197230D03*
X1099550Y171830D03*
X1074150Y171830D03*
X1099550Y146430D03*
X1074150Y146430D03*
X1099550Y121030D03*
X1074150Y121030D03*
X1099550Y95630D03*
X1074150Y95630D03*
D12*
X660630Y552120D02*
X645390Y552120D01*
X645390Y577520D02*
X660630Y577520D01*
X660630Y602920D02*
X645390Y602920D01*
D11*
X942650Y254700D03*
X1007650Y254700D03*
X1007650Y209700D03*
X942650Y209700D03*
X975150Y191200D03*
X828096Y254580D03*
X893096Y254580D03*
X893096Y209580D03*
X828096Y209580D03*
X860596Y191080D03*
X713256Y254088D03*
X778256Y254088D03*
X778256Y209088D03*
X713256Y209088D03*
X745756Y190588D03*
D22*
X1036090Y702840D03*
X1215160Y552980D03*
X1033582Y209400D03*
X1306600Y83080D03*
X1196110Y84350D03*
X650340Y418280D03*
X918520Y208130D03*
X1179830Y336880D03*
X1253490Y465150D03*
X1316990Y337820D03*
X803656Y256540D03*
X654812Y265176D03*
X654812Y295910D03*
X248920Y566420D03*
X196850Y560070D03*
X440690Y368300D03*
X450850Y368300D03*
X654812Y239353D03*
X421640Y603250D03*
X448310Y603250D03*
X474980Y603250D03*
X176530Y288290D03*
X208280Y287020D03*
X222250Y287020D03*
X351790Y369570D03*
X231140Y318770D03*
X180340Y433070D03*
X212090Y431800D03*
X228600Y431800D03*
X238760Y599440D03*
X259191Y521970D03*
X234950Y525780D03*
X256540Y688340D03*
X238760Y676910D03*
X241300Y435610D03*
X254000Y589280D03*
X259080Y444500D03*
X440690Y278130D03*
X440690Y267970D03*
X494030Y288290D03*
X444500Y436880D03*
X435610Y436880D03*
X439420Y461351D03*
X495300Y734060D03*
X607060Y655320D03*
X332470Y321310D03*
X613410Y309880D03*
X237166Y402266D03*
X180340Y377190D03*
X1316736Y210566D03*
X195665Y432308D03*
X193125Y287020D03*
X247905Y295910D03*
X238591Y295910D03*
X245621Y423161D03*
X256670Y423288D03*
X485140Y601980D03*
X683768Y277622D03*
X684784Y247650D03*
X684784Y219710D03*
X237211Y411201D03*
X458470Y603250D03*
X433070Y603250D03*
X250889Y323405D03*
X246380Y688340D03*
X186690Y542290D03*
X251460Y435610D03*
X458470Y259080D03*
X458470Y354330D03*
X445770Y551180D03*
X548640Y275590D03*
X541274Y452897D03*
X454553Y454660D03*
X558038Y547624D03*
X560070Y498856D03*
D23*
X92279Y122236D02*
X92279Y97103D01*
X92279Y122236D02*
X150868Y180825D01*
X150868Y382016D02*
X150614Y382270D01*
X150868Y382016D02*
X150868Y180825D01*
D22*
X150614Y382270D03*
D23*
X86890Y724130D02*
X85620Y725400D01*
X111462Y705588D02*
X120650Y696400D01*
X120650Y548640D01*
D22*
X120650Y548640D03*
D23*
X86890Y718100D02*
X86890Y724130D01*
X86890Y718100D02*
X99402Y705588D01*
X111462Y705588D01*
X416560Y236982D02*
X482854Y170688D01*
X887984Y170688D01*
D22*
X887984Y170688D03*
X439453Y638777D03*
D23*
X416560Y629854D02*
X416560Y236982D01*
X425483Y638777D02*
X439453Y638777D01*
X425483Y638777D02*
X416560Y629854D01*
D22*
X439420Y658370D03*
D23*
X410210Y658370D01*
X393700Y641860D01*
X393700Y265684D01*
X305054Y177038D01*
X305054Y156718D01*
D22*
X305054Y156718D03*
D23*
X408940Y235712D02*
X408940Y635170D01*
X408940Y235712D02*
X479044Y165608D01*
X678434Y165608D01*
D22*
X678434Y165608D03*
X439453Y645297D03*
D23*
X419067Y645297D01*
X408940Y635170D01*
X155271Y167715D02*
X102439Y114883D01*
D22*
X318770Y662940D03*
D23*
X283210Y698500D01*
X185420Y698500D01*
X155271Y668351D01*
X155271Y167715D01*
X402590Y231902D02*
X402590Y639150D01*
X402590Y231902D02*
X468884Y165608D01*
D22*
X468884Y165608D03*
X439453Y651817D03*
D23*
X415257Y651817D01*
X402590Y639150D01*
D22*
X318770Y670560D03*
D23*
X284480Y704850D01*
X180340Y704850D01*
X145957Y670467D01*
X145957Y351397D02*
X103400Y308840D01*
X145957Y351397D02*
X145957Y670467D01*
X103400Y715240D02*
X288230Y715240D01*
D22*
X318803Y684733D03*
D23*
X318737Y684733D02*
X288230Y715240D01*
X318737Y684733D02*
X318803Y684733D01*
D22*
X318770Y678180D03*
D23*
X285750Y711200D01*
X175260Y711200D01*
X134620Y670560D01*
X134620Y545800D02*
X103400Y514580D01*
X134620Y545800D02*
X134620Y670560D01*
D22*
X773430Y533400D03*
D24*
X910490Y533400D01*
X967990Y590900D01*
D22*
X773430Y554990D03*
D24*
X857500Y589530D02*
X857500Y590900D01*
X857500Y589530D02*
X822960Y554990D01*
X773430Y554990D01*
X1387880Y671090D02*
X1395500Y671090D01*
X1396770Y671090D01*
X1396770Y672360D02*
X1396770Y696490D01*
X1396770Y672360D02*
X1395500Y671090D01*
X1387880Y671090D02*
X1338350Y621560D01*
X1047520Y348400D02*
X1047520Y304730D01*
X1047520Y348400D02*
X1074150Y375030D01*
X1338350Y516150D02*
X1338350Y621560D01*
X1047520Y304730D02*
X1007650Y264860D01*
X1007650Y254700D01*
X942650Y254700D01*
X942634Y254684D01*
X891826Y255850D02*
X829366Y255850D01*
X828096Y254580D01*
X1210560Y388360D02*
X1338350Y516150D01*
X1210560Y388360D02*
X1087480Y388360D01*
X1074150Y375030D01*
X1074150Y578230D02*
X1070230Y578230D01*
X1009650Y638810D01*
X657352Y638810D01*
X612902Y594360D01*
X514350Y519749D02*
X514350Y504190D01*
X514350Y463550D01*
X1074150Y578230D02*
X1086210Y566170D01*
X1086210Y387090D01*
X1074150Y375030D01*
D22*
X505460Y495300D03*
D24*
X588961Y594360D02*
X612902Y594360D01*
D22*
X502920Y452120D03*
D23*
X514350Y463550D01*
X505460Y495300D02*
X514350Y504190D01*
D24*
X891826Y255850D02*
X893096Y254580D01*
X942531Y254580D01*
X942650Y254700D01*
D22*
X586232Y591631D03*
D24*
X588961Y594360D01*
X586232Y591631D02*
X514350Y519749D01*
D23*
X828096Y209580D02*
X893096Y209580D01*
X393470Y700300D02*
X364490Y671320D01*
X364490Y354330D01*
D22*
X364490Y354330D03*
X515112Y421894D03*
D23*
X1074150Y519810D02*
X1074150Y527430D01*
X1074150Y519810D02*
X1031582Y477242D01*
X535450Y421894D02*
X515112Y421894D01*
X590798Y477242D02*
X1031582Y477242D01*
X590798Y477242D02*
X535450Y421894D01*
D22*
X533646Y468876D03*
D23*
X1074150Y545210D02*
X1074150Y552830D01*
X1074150Y545210D02*
X1017866Y488926D01*
X570206Y488926D01*
X550156Y468876D01*
X533646Y468876D01*
D22*
X381000Y316230D03*
D23*
X383540Y318770D02*
X383540Y652780D01*
X383540Y318770D02*
X381000Y316230D01*
X383540Y652780D02*
X412193Y681433D01*
X824000Y698146D02*
X824000Y700300D01*
X824000Y698146D02*
X807287Y681433D01*
X412193Y681433D01*
X261874Y146558D02*
X949134Y146558D01*
X971274Y124418D01*
X971274Y96798D01*
D22*
X265346Y440111D03*
D23*
X243248Y165184D02*
X261874Y146558D01*
X265346Y417505D02*
X265346Y440111D01*
X265346Y417505D02*
X243248Y395407D01*
X243248Y165184D01*
D22*
X232410Y444500D03*
D23*
X213360Y425450D01*
X213360Y179832D01*
X767334Y126238D02*
X767334Y99868D01*
X764765Y97299D01*
X767334Y126238D02*
X753618Y139954D01*
X253238Y139954D02*
X213360Y179832D01*
X253238Y139954D02*
X753618Y139954D01*
X214207Y531707D02*
X188468Y505968D01*
X188468Y184965D02*
X290375Y83058D01*
X188468Y184965D02*
X188468Y505968D01*
X290375Y83058D02*
X342394Y83058D01*
X356865Y97529D01*
X259185Y529695D02*
X257174Y531707D01*
X214207Y531707D01*
D22*
X259191Y529695D03*
D23*
X259185Y529695D01*
D22*
X224790Y525780D03*
D23*
X214630Y525780D01*
X201930Y513080D01*
X201930Y181102D01*
X558524Y121688D02*
X558524Y96798D01*
X558524Y121688D02*
X546862Y133350D01*
X249682Y133350D02*
X201930Y181102D01*
X249682Y133350D02*
X546862Y133350D01*
D22*
X265057Y592315D03*
D23*
X256942Y582930D02*
X191085Y582930D01*
X265057Y591045D02*
X265057Y592315D01*
X265057Y591045D02*
X256942Y582930D01*
X191085Y582930D02*
X159843Y551688D01*
X159843Y103707D01*
X153239Y97103D01*
D22*
X140970Y541020D03*
D23*
X121920Y521970D01*
X121920Y370840D01*
X72390Y321310D01*
X72390Y271270D01*
X85620Y258040D01*
D22*
X115570Y646007D03*
D23*
X115570Y572770D01*
X68580Y525780D01*
X68580Y480060D01*
X84860Y463780D01*
X85620Y463780D01*
D22*
X788670Y444500D03*
D24*
X840640Y444500D01*
X857500Y461360D01*
D22*
X782320Y431800D03*
D24*
X939700Y431800D01*
X967990Y460090D01*
M02*
