M48
;GenerationSoftware,Autodesk,EAGLE,9.7.0*%
;CreationDate,2025-02-16T04:01:30Z*%
FMAT,2
ICI,OFF
METRIC,TZ,000.000
T12C0.350
T11C0.800
T10C0.840
T9C0.890
T8C0.914
T7C1.000
T6C1.016
T5C1.100
T4C1.500
T3C2.000
T2C2.750
T1C3.200
%
G90
M71
T1
X87221Y7140
X99921Y7140
X66570Y7190
X79270Y7190
X6022Y63650
X6022Y76350
X6022Y43584
X6022Y56284
X6022Y23010
X6022Y35710
X18118Y7170
X5418Y7170
X38480Y7213
X25780Y7213
X58646Y7140
X45946Y7140
T2
X108585Y4445
X59485Y62477
X108585Y62445
T3
X60446Y10599
X44146Y10599
X40280Y10672
X23980Y10672
X9481Y78150
X9481Y61850
X64770Y10649
X81070Y10649
X85421Y10599
X101721Y10599
X77320Y75110
X87480Y75110
X34267Y75110
X44427Y75110
X9481Y58084
X9481Y41784
X9481Y21210
X56111Y75110
X66271Y75110
X9481Y37510
X19918Y10629
X3618Y10629
T4
X24996Y74641
X24996Y81641
T5
X107415Y40043
X109955Y40043
X107415Y42583
X109955Y42583
X107415Y45123
X109955Y45123
X107415Y47663
X109955Y47663
X107415Y50203
X109955Y50203
X107415Y52743
X109955Y52743
X107415Y55283
X109955Y55283
X107415Y57823
X109955Y57823
X117833Y79809
X121643Y79809
X107415Y9563
X107415Y37503
X109955Y34963
X107415Y34963
X109955Y32423
X107415Y32423
X109955Y29883
X107415Y29883
X109955Y27343
X107415Y27343
X109955Y24803
X107415Y24803
X109955Y22263
X107415Y22263
X109955Y19723
X107415Y19723
X109955Y17183
X107415Y17183
X109955Y14643
X107415Y14643
X109955Y12103
X107415Y12103
X109955Y9563
X109955Y37503
T6
X139677Y72189
X65301Y57752
X139677Y69649
X139677Y67109
X139677Y64569
X139677Y62029
X139677Y59489
X139677Y56949
X65301Y60292
X65301Y55212
X139677Y74729
X126977Y56949
X126977Y74729
X126977Y72189
X126977Y69649
X126977Y67109
X126977Y64569
X126977Y62029
X126977Y59489
T7
X100299Y59090
X96799Y59090
X85750Y32801
X89250Y59090
X74828Y59090
X78328Y59090
X78328Y46136
X89250Y32801
X74828Y46136
X94265Y25470
X100765Y25470
X100765Y20970
X94265Y20970
X97515Y19120
X82810Y25458
X89310Y25458
X89310Y20958
X82810Y20958
X86060Y19108
X71326Y25409
X77826Y25409
X77826Y20909
X71326Y20909
X74576Y19059
X96799Y32674
X100299Y32674
X89250Y46136
X85750Y46136
X100299Y46009
X96799Y46009
X78328Y32801
X74828Y32801
X85750Y59090
T8
X95095Y9680
X10340Y53490
X10340Y51458
X10340Y49426
X10340Y47394
X8562Y52474
X8562Y50442
X8562Y48410
X8562Y46378
X8562Y27836
X8562Y29868
X10340Y73556
X10340Y71524
X8562Y31900
X10340Y26820
X10340Y69492
X10340Y67460
X90015Y11458
X92047Y11458
X94079Y11458
X96111Y11458
X91031Y9680
X93063Y9680
X8562Y25804
X97127Y9680
X8562Y72540
X8562Y70508
X69364Y11508
X71396Y11508
X73428Y11508
X75460Y11508
X70380Y9730
X72412Y9730
X74444Y9730
X76476Y9730
X8562Y68476
X8562Y66444
X48740Y11458
X50772Y11458
X52804Y11458
X54836Y11458
X49756Y9680
X51788Y9680
X53820Y9680
X55852Y9680
X10340Y28852
X10340Y30884
X28574Y11531
X30606Y11531
X32638Y11531
X34670Y11531
X29590Y9753
X31622Y9753
X33654Y9753
X35686Y9753
X10340Y32916
X15324Y9710
X8212Y11488
X10244Y11488
X12276Y11488
X14308Y11488
X9228Y9710
X11260Y9710
X13292Y9710
T9
X39347Y70030
X61191Y70030
X58651Y70030
X36807Y70030
X82400Y70030
X79860Y70030
T10
X136987Y79987
X131987Y79987
X134487Y79987
X129487Y79987
T11
G00X98641Y74337
M15
G01X96441Y74337
M16
X97541Y74337
G00X92941Y76087
M15
G01X92941Y78287
M16
X92941Y77187
G00X96441Y80437
M15
G01X98641Y80437
M16
X97541Y80437
T12
G05
X11557Y64601
X14097Y54102
X26506Y59231
X22479Y52578
X25919Y52970
X23241Y44450
X26535Y44011
X38100Y31623
X53365Y46888
X51511Y42189
X36449Y35433
X58623Y59163
X50292Y45212
X50546Y49530
X77343Y55499
X77343Y53340
X31877Y67818
X31880Y68473
X31877Y67056
X43945Y65182
X46888Y16561
X31877Y66294
X43945Y64530
X67843Y16561
X30505Y15672
X43942Y65837
X43945Y63878
X88798Y17069
X12065Y54864
X15061Y38227
X56007Y49886
X55804Y54762
X45455Y45466
X54127Y45290
X54864Y27559
X44577Y55118
X45847Y35433
X45847Y25908
X25146Y43561
X18669Y54229
X24638Y68834
X25089Y32340
X43307Y60325
X45847Y60325
X23721Y41120
X68478Y21971
X68478Y24765
X68377Y27762
X48514Y60198
X25667Y42329
X24562Y42316
X23859Y29591
X24790Y29591
X19313Y28702
X19567Y43231
X131674Y21057
X18034Y37719
X23717Y40227
X61341Y30988
X33247Y32131
X60706Y65532
X49530Y73406
X43942Y46135
X43561Y43688
X44450Y43688
X49403Y28829
X44069Y26797
X44069Y27813
X25908Y44450
X25400Y58928
X24130Y43561
X23876Y67691
X25654Y68834
X23495Y52578
X25919Y52197
X23876Y59944
X22860Y43180
X21209Y43180
X18034Y43307
X23114Y31877
X35179Y36957
X22225Y28702
X20828Y28702
X17653Y28829
X47498Y60325
X44831Y60325
X42164Y60325
X65481Y23935
X45085Y36830
X44069Y36830
X19685Y56007
X24892Y56642
X65481Y29591
X65481Y26518
X80366Y25654
X131699Y33782
X125349Y46515
X117983Y33688
X91852Y20813
X65034Y41828
X119611Y8435
X130660Y8308
X103358Y20940
X121516Y55298
X78867Y44450
X78232Y43180
X103609Y70284
M30