G04 EAGLE Gerber RS-274X export*
G75*
%MOMM*%
%FSLAX34Y34*%
%LPD*%
%IN*%
%IPPOS*%
%AMOC8*
5,1,8,0,0,1.08239X$1,22.5*%
G01*
G04 Define Apertures*
%ADD10C,0.254000*%
D10*
X4850Y59130D02*
X5015Y55351D01*
X5509Y51601D01*
X6327Y47908D01*
X7465Y44300D01*
X8913Y40806D01*
X10659Y37450D01*
X12692Y34260D01*
X14994Y31259D01*
X17550Y28470D01*
X20339Y25914D01*
X23340Y23612D01*
X26530Y21579D01*
X29886Y19833D01*
X33380Y18385D01*
X36988Y17247D01*
X40681Y16429D01*
X44431Y15935D01*
X48210Y15770D01*
X1370301Y15770D01*
X1375818Y16011D01*
X1381293Y16732D01*
X1386684Y17927D01*
X1391950Y19587D01*
X1397052Y21701D01*
X1401950Y24251D01*
X1406608Y27218D01*
X1410989Y30579D01*
X1415060Y34310D01*
X1418791Y38381D01*
X1422152Y42762D01*
X1425120Y47420D01*
X1427669Y52318D01*
X1429783Y57420D01*
X1431443Y62686D01*
X1432638Y68077D01*
X1433359Y73552D01*
X1433600Y79069D01*
X1433600Y786518D01*
X1433385Y791445D01*
X1432741Y796335D01*
X1431674Y801150D01*
X1430191Y805853D01*
X1428303Y810410D01*
X1426026Y814784D01*
X1423376Y818943D01*
X1420374Y822856D01*
X1417042Y826492D01*
X1413406Y829824D01*
X1409493Y832826D01*
X1405334Y835476D01*
X1400960Y837753D01*
X1396403Y839641D01*
X1391700Y841124D01*
X1386885Y842191D01*
X1381995Y842835D01*
X1377068Y843050D01*
X61382Y843050D01*
X56455Y842835D01*
X51565Y842191D01*
X46750Y841124D01*
X42047Y839641D01*
X37491Y837753D01*
X33116Y835476D01*
X28957Y832826D01*
X25044Y829824D01*
X21408Y826492D01*
X18076Y822856D01*
X15074Y818943D01*
X12424Y814784D01*
X10147Y810410D01*
X8259Y805853D01*
X6776Y801150D01*
X5709Y796335D01*
X5065Y791445D01*
X4850Y786518D01*
X4850Y59130D01*
M02*
