G04 EAGLE Gerber RS-274X export*
G75*
%MOMM*%
%FSLAX34Y34*%
%LPD*%
%INTop Copper*%
%IPPOS*%
%AMOC8*
5,1,8,0,0,1.08239X$1,22.5*%
G01*
G04 Define Apertures*
%ADD10C,1.800000*%
%ADD11C,1.260000*%
%ADD12C,1.524000*%
%ADD13C,1.700000*%
%ADD14C,2.280000*%
%ADD15R,1.335000X1.335000*%
%ADD16C,1.335000*%
%ADD17C,1.450000*%
%ADD18R,1.170000X1.170000*%
%ADD19C,1.170000*%
%ADD20C,0.152400*%
%ADD21C,0.508000*%
G36*
X314768Y2039D02*
X314669Y2032D01*
X24310Y2032D01*
X24211Y2039D01*
X13712Y3421D01*
X13519Y3472D01*
X3736Y7525D01*
X3563Y7624D01*
X-4838Y14071D01*
X-4979Y14212D01*
X-11426Y22613D01*
X-11525Y22786D01*
X-15578Y32569D01*
X-15629Y32762D01*
X-17011Y43261D01*
X-17018Y43360D01*
X-17018Y511475D01*
X-17011Y511575D01*
X-15282Y524711D01*
X-15231Y524903D01*
X-10160Y537145D01*
X-10061Y537317D01*
X-1995Y547829D01*
X-1854Y547970D01*
X8658Y556036D01*
X8830Y556135D01*
X21072Y561206D01*
X21264Y561257D01*
X34400Y562986D01*
X34500Y562993D01*
X314902Y562993D01*
X315001Y562986D01*
X328047Y561269D01*
X328239Y561218D01*
X340395Y556182D01*
X340568Y556083D01*
X351007Y548072D01*
X351147Y547932D01*
X359158Y537493D01*
X359257Y537320D01*
X364293Y525164D01*
X364344Y524972D01*
X366061Y511926D01*
X366068Y511827D01*
X366068Y53431D01*
X366061Y53332D01*
X364336Y40226D01*
X364285Y40034D01*
X359226Y27821D01*
X359126Y27649D01*
X351079Y17161D01*
X350939Y17021D01*
X340451Y8974D01*
X340279Y8874D01*
X328066Y3815D01*
X327874Y3764D01*
X314768Y2039D01*
G37*
%LPC*%
G36*
X324254Y111810D02*
X327266Y111810D01*
X330048Y112962D01*
X332178Y115092D01*
X333330Y117874D01*
X333330Y120886D01*
X332590Y122671D01*
X332532Y122951D01*
X332588Y123249D01*
X332756Y123502D01*
X351282Y142028D01*
X351282Y418672D01*
X305642Y464312D01*
X181497Y464312D01*
X181211Y464368D01*
X180959Y464535D01*
X115142Y530352D01*
X75358Y530352D01*
X61468Y516462D01*
X61468Y499192D01*
X61415Y498912D01*
X61249Y498658D01*
X60998Y498488D01*
X57966Y497233D01*
X55217Y494484D01*
X53730Y490893D01*
X53730Y487007D01*
X55217Y483416D01*
X57966Y480667D01*
X61557Y479180D01*
X65443Y479180D01*
X69034Y480667D01*
X71783Y483416D01*
X73270Y487007D01*
X73270Y490893D01*
X71783Y494484D01*
X69034Y497233D01*
X66002Y498488D01*
X65764Y498645D01*
X65592Y498895D01*
X65532Y499192D01*
X65532Y514463D01*
X65588Y514749D01*
X65755Y515002D01*
X76819Y526065D01*
X77060Y526228D01*
X77357Y526288D01*
X113143Y526288D01*
X113429Y526232D01*
X113682Y526065D01*
X179498Y460248D01*
X303643Y460248D01*
X303929Y460192D01*
X304182Y460025D01*
X346995Y417212D01*
X347158Y416970D01*
X347218Y416673D01*
X347218Y144027D01*
X347162Y143741D01*
X346995Y143489D01*
X329882Y126376D01*
X329646Y126215D01*
X329349Y126152D01*
X329051Y126210D01*
X327266Y126950D01*
X324254Y126950D01*
X321472Y125798D01*
X319342Y123668D01*
X318190Y120886D01*
X318190Y117874D01*
X319342Y115092D01*
X321472Y112962D01*
X324254Y111810D01*
G37*
G36*
X279897Y479950D02*
X283983Y479950D01*
X287758Y481514D01*
X290646Y484403D01*
X292210Y488177D01*
X292210Y492263D01*
X290646Y496038D01*
X287758Y498926D01*
X283983Y500490D01*
X279897Y500490D01*
X276582Y499117D01*
X276303Y499059D01*
X276005Y499115D01*
X275752Y499282D01*
X258652Y516382D01*
X213442Y516382D01*
X213162Y516435D01*
X212908Y516601D01*
X212738Y516852D01*
X211483Y519884D01*
X208734Y522633D01*
X205143Y524120D01*
X201257Y524120D01*
X197666Y522633D01*
X194917Y519884D01*
X193430Y516293D01*
X193430Y512407D01*
X194917Y508816D01*
X197666Y506067D01*
X201257Y504580D01*
X205143Y504580D01*
X208734Y506067D01*
X211483Y508816D01*
X212738Y511848D01*
X212895Y512086D01*
X213145Y512258D01*
X213442Y512318D01*
X256653Y512318D01*
X256939Y512262D01*
X257192Y512095D01*
X272878Y496408D01*
X273038Y496172D01*
X273101Y495876D01*
X273043Y495578D01*
X271670Y492263D01*
X271670Y488177D01*
X273234Y484403D01*
X276123Y481514D01*
X279897Y479950D01*
G37*
G36*
X284244Y283260D02*
X287256Y283260D01*
X290038Y284412D01*
X292168Y286542D01*
X292907Y288328D01*
X293064Y288566D01*
X293314Y288738D01*
X293611Y288798D01*
X308182Y288798D01*
X344932Y325548D01*
X344932Y416132D01*
X303102Y457962D01*
X175147Y457962D01*
X174861Y458018D01*
X174609Y458185D01*
X113872Y518922D01*
X98090Y518922D01*
X97810Y518975D01*
X97556Y519141D01*
X97386Y519392D01*
X97183Y519884D01*
X94434Y522633D01*
X90843Y524120D01*
X86957Y524120D01*
X83366Y522633D01*
X80617Y519884D01*
X79130Y516293D01*
X79130Y512407D01*
X80617Y508816D01*
X83366Y506067D01*
X86957Y504580D01*
X90843Y504580D01*
X94434Y506067D01*
X97183Y508816D01*
X98670Y512407D01*
X98670Y514096D01*
X98721Y514371D01*
X98885Y514626D01*
X99135Y514798D01*
X99432Y514858D01*
X111873Y514858D01*
X112159Y514802D01*
X112412Y514635D01*
X173148Y453898D01*
X301103Y453898D01*
X301389Y453842D01*
X301642Y453675D01*
X340645Y414672D01*
X340808Y414430D01*
X340868Y414133D01*
X340868Y327547D01*
X340812Y327261D01*
X340645Y327009D01*
X306722Y293085D01*
X306480Y292922D01*
X306183Y292862D01*
X293611Y292862D01*
X293331Y292915D01*
X293077Y293081D01*
X292907Y293332D01*
X292168Y295118D01*
X290038Y297248D01*
X287256Y298400D01*
X284244Y298400D01*
X281462Y297248D01*
X279332Y295118D01*
X278180Y292336D01*
X278180Y289324D01*
X279332Y286542D01*
X281462Y284412D01*
X284244Y283260D01*
G37*
G36*
X295800Y490982D02*
X306578Y490982D01*
X306578Y501760D01*
X305045Y501760D01*
X300803Y500003D01*
X297557Y496757D01*
X295800Y492515D01*
X295800Y490982D01*
G37*
G36*
X308102Y490982D02*
X318880Y490982D01*
X318880Y492515D01*
X317123Y496757D01*
X313877Y500003D01*
X309635Y501760D01*
X308102Y501760D01*
X308102Y490982D01*
G37*
G36*
X166760Y489712D02*
X177038Y489712D01*
X177038Y499990D01*
X175604Y499990D01*
X171546Y498309D01*
X168441Y495204D01*
X166760Y491146D01*
X166760Y489712D01*
G37*
G36*
X103260Y489712D02*
X113538Y489712D01*
X113538Y499990D01*
X112104Y499990D01*
X108046Y498309D01*
X104941Y495204D01*
X103260Y491146D01*
X103260Y489712D01*
G37*
G36*
X115062Y489712D02*
X125340Y489712D01*
X125340Y491146D01*
X123659Y495204D01*
X120554Y498309D01*
X116496Y499990D01*
X115062Y499990D01*
X115062Y489712D01*
G37*
G36*
X178562Y489712D02*
X188840Y489712D01*
X188840Y491146D01*
X187159Y495204D01*
X184054Y498309D01*
X179996Y499990D01*
X178562Y499990D01*
X178562Y489712D01*
G37*
G36*
X324254Y86762D02*
X327266Y86762D01*
X330048Y87914D01*
X332178Y90044D01*
X333330Y92826D01*
X333330Y95838D01*
X332590Y97623D01*
X332532Y97903D01*
X332588Y98201D01*
X332756Y98454D01*
X357632Y123330D01*
X357632Y421353D01*
X308069Y470916D01*
X276493Y470916D01*
X276207Y470972D01*
X275955Y471139D01*
X256112Y490982D01*
X238842Y490982D01*
X238562Y491035D01*
X238308Y491201D01*
X238138Y491452D01*
X236883Y494484D01*
X234134Y497233D01*
X230543Y498720D01*
X226657Y498720D01*
X223066Y497233D01*
X220317Y494484D01*
X218830Y490893D01*
X218830Y487007D01*
X220317Y483416D01*
X223066Y480667D01*
X226657Y479180D01*
X230543Y479180D01*
X234134Y480667D01*
X236883Y483416D01*
X238138Y486448D01*
X238295Y486686D01*
X238545Y486858D01*
X238842Y486918D01*
X254113Y486918D01*
X254399Y486862D01*
X254652Y486695D01*
X274494Y466852D01*
X306070Y466852D01*
X306356Y466796D01*
X306609Y466629D01*
X353345Y419893D01*
X353508Y419651D01*
X353568Y419354D01*
X353568Y125329D01*
X353512Y125043D01*
X353345Y124791D01*
X329882Y101328D01*
X329646Y101167D01*
X329349Y101104D01*
X329051Y101162D01*
X327266Y101902D01*
X324254Y101902D01*
X321472Y100750D01*
X319342Y98620D01*
X318190Y95838D01*
X318190Y92826D01*
X319342Y90044D01*
X321472Y87914D01*
X324254Y86762D01*
G37*
G36*
X308102Y478680D02*
X309635Y478680D01*
X313877Y480437D01*
X317123Y483683D01*
X318880Y487925D01*
X318880Y489458D01*
X308102Y489458D01*
X308102Y478680D01*
G37*
G36*
X305045Y478680D02*
X306578Y478680D01*
X306578Y489458D01*
X295800Y489458D01*
X295800Y487925D01*
X297557Y483683D01*
X300803Y480437D01*
X305045Y478680D01*
G37*
G36*
X178562Y477910D02*
X179996Y477910D01*
X184054Y479591D01*
X187159Y482696D01*
X188840Y486754D01*
X188840Y488188D01*
X178562Y488188D01*
X178562Y477910D01*
G37*
G36*
X175604Y477910D02*
X177038Y477910D01*
X177038Y488188D01*
X166760Y488188D01*
X166760Y486754D01*
X168441Y482696D01*
X171546Y479591D01*
X175604Y477910D01*
G37*
G36*
X115062Y477910D02*
X116496Y477910D01*
X120554Y479591D01*
X123659Y482696D01*
X125340Y486754D01*
X125340Y488188D01*
X115062Y488188D01*
X115062Y477910D01*
G37*
G36*
X112104Y477910D02*
X113538Y477910D01*
X113538Y488188D01*
X103260Y488188D01*
X103260Y486754D01*
X104941Y482696D01*
X108046Y479591D01*
X112104Y477910D01*
G37*
G36*
X173367Y70995D02*
X176903Y70995D01*
X180171Y72348D01*
X182672Y74849D01*
X184025Y78117D01*
X184025Y96893D01*
X182672Y100161D01*
X180171Y102662D01*
X179415Y102974D01*
X179177Y103131D01*
X179005Y103381D01*
X178945Y103678D01*
X178945Y113213D01*
X157703Y134455D01*
X157540Y134696D01*
X157480Y134994D01*
X157480Y150754D01*
X157527Y151018D01*
X157686Y151276D01*
X157934Y151451D01*
X158230Y151516D01*
X158528Y151461D01*
X158781Y151293D01*
X160600Y149475D01*
X162598Y148647D01*
X162836Y148490D01*
X163008Y148240D01*
X163068Y147943D01*
X163068Y140128D01*
X193116Y110080D01*
X234423Y110080D01*
X234709Y110024D01*
X234962Y109857D01*
X246364Y98454D01*
X246525Y98218D01*
X246588Y97921D01*
X246530Y97623D01*
X245790Y95838D01*
X245790Y92826D01*
X246942Y90044D01*
X249072Y87914D01*
X251854Y86762D01*
X254866Y86762D01*
X257648Y87914D01*
X259778Y90044D01*
X260930Y92826D01*
X260930Y95838D01*
X259778Y98620D01*
X257648Y100750D01*
X254866Y101902D01*
X251854Y101902D01*
X250069Y101162D01*
X249789Y101104D01*
X249491Y101160D01*
X249238Y101328D01*
X236297Y114269D01*
X236144Y114489D01*
X236074Y114784D01*
X236125Y115083D01*
X236288Y115338D01*
X236538Y115510D01*
X236835Y115570D01*
X246235Y115570D01*
X246516Y115517D01*
X246770Y115351D01*
X246939Y115100D01*
X246942Y115092D01*
X249072Y112962D01*
X251854Y111810D01*
X254866Y111810D01*
X257648Y112962D01*
X259778Y115092D01*
X260930Y117874D01*
X260930Y120886D01*
X259778Y123668D01*
X257648Y125798D01*
X257640Y125801D01*
X257402Y125957D01*
X257230Y126208D01*
X257170Y126505D01*
X257170Y137003D01*
X257226Y137289D01*
X257393Y137542D01*
X259426Y139574D01*
X260578Y142356D01*
X260578Y145368D01*
X259426Y148150D01*
X257296Y150280D01*
X254514Y151432D01*
X251502Y151432D01*
X248720Y150280D01*
X246590Y148150D01*
X245438Y145368D01*
X245438Y142356D01*
X246590Y139574D01*
X248720Y137444D01*
X249080Y137296D01*
X249318Y137139D01*
X249490Y136889D01*
X249550Y136592D01*
X249550Y126505D01*
X249497Y126224D01*
X249331Y125970D01*
X249080Y125801D01*
X249072Y125798D01*
X246942Y123668D01*
X246939Y123660D01*
X246783Y123422D01*
X246533Y123250D01*
X246235Y123190D01*
X200400Y123190D01*
X200114Y123246D01*
X199861Y123413D01*
X180746Y142528D01*
X180583Y142770D01*
X180523Y143067D01*
X180523Y152386D01*
X180568Y152643D01*
X180725Y152903D01*
X180971Y153080D01*
X181267Y153148D01*
X181565Y153094D01*
X181820Y152929D01*
X181989Y152677D01*
X182688Y150990D01*
X185280Y148398D01*
X188667Y146995D01*
X189738Y146995D01*
X189738Y156972D01*
X199715Y156972D01*
X199715Y158043D01*
X198312Y161430D01*
X195720Y164022D01*
X192364Y165412D01*
X192144Y165552D01*
X191964Y165797D01*
X191894Y166092D01*
X191945Y166391D01*
X192109Y166646D01*
X192359Y166818D01*
X192656Y166878D01*
X245499Y166878D01*
X245779Y166825D01*
X246033Y166659D01*
X246203Y166408D01*
X246942Y164622D01*
X249072Y162492D01*
X251854Y161340D01*
X254866Y161340D01*
X257648Y162492D01*
X259778Y164622D01*
X260930Y167404D01*
X260930Y170416D01*
X259778Y173198D01*
X257648Y175328D01*
X254866Y176480D01*
X251854Y176480D01*
X249072Y175328D01*
X246942Y173198D01*
X246203Y171412D01*
X246046Y171174D01*
X245796Y171002D01*
X245499Y170942D01*
X191657Y170942D01*
X191371Y170998D01*
X191119Y171165D01*
X185083Y177201D01*
X184922Y177437D01*
X184859Y177734D01*
X184917Y178032D01*
X185745Y180030D01*
X185745Y183190D01*
X184535Y186111D01*
X182301Y188345D01*
X179380Y189555D01*
X176220Y189555D01*
X173300Y188345D01*
X171065Y186111D01*
X169855Y183190D01*
X169855Y180030D01*
X171065Y177110D01*
X173300Y174875D01*
X176220Y173665D01*
X179380Y173665D01*
X181378Y174493D01*
X181658Y174551D01*
X181956Y174495D01*
X182209Y174327D01*
X189811Y166726D01*
X189964Y166506D01*
X190033Y166211D01*
X189982Y165912D01*
X189819Y165657D01*
X189569Y165485D01*
X189272Y165425D01*
X188667Y165425D01*
X185280Y164022D01*
X182688Y161430D01*
X181989Y159743D01*
X181849Y159522D01*
X181604Y159342D01*
X181309Y159273D01*
X181010Y159323D01*
X180755Y159487D01*
X180583Y159737D01*
X180523Y160034D01*
X180523Y162685D01*
X160568Y182640D01*
X160405Y182882D01*
X160345Y183179D01*
X160345Y183190D01*
X159135Y186111D01*
X156901Y188345D01*
X156674Y188439D01*
X156436Y188596D01*
X156264Y188846D01*
X156204Y189143D01*
X156204Y367060D01*
X156260Y367346D01*
X156427Y367599D01*
X193040Y404212D01*
X193040Y409045D01*
X193096Y409331D01*
X193263Y409584D01*
X195266Y411587D01*
X196350Y414204D01*
X196350Y417036D01*
X195266Y419653D01*
X193263Y421656D01*
X190646Y422740D01*
X187814Y422740D01*
X185197Y421656D01*
X183194Y419653D01*
X182110Y417036D01*
X182110Y414204D01*
X183194Y411587D01*
X185197Y409584D01*
X185360Y409342D01*
X185420Y409045D01*
X185420Y407684D01*
X185364Y407398D01*
X185197Y407145D01*
X151663Y373611D01*
X151432Y373453D01*
X151136Y373388D01*
X150838Y373443D01*
X150585Y373611D01*
X129825Y394371D01*
X129665Y394607D01*
X129602Y394904D01*
X129660Y395202D01*
X130440Y397085D01*
X130440Y400475D01*
X129143Y403606D01*
X126746Y406003D01*
X123615Y407300D01*
X120225Y407300D01*
X117094Y406003D01*
X114697Y403606D01*
X113400Y400475D01*
X113400Y397085D01*
X114697Y393954D01*
X117094Y391557D01*
X120225Y390260D01*
X122844Y390260D01*
X123130Y390204D01*
X123383Y390037D01*
X148361Y365059D01*
X148524Y364817D01*
X148584Y364520D01*
X148584Y189138D01*
X148531Y188858D01*
X148365Y188604D01*
X148114Y188434D01*
X147900Y188345D01*
X145665Y186111D01*
X144455Y183190D01*
X144455Y180030D01*
X145665Y177110D01*
X147900Y174875D01*
X149390Y174257D01*
X149628Y174101D01*
X149800Y173851D01*
X149860Y173553D01*
X149860Y159592D01*
X149815Y159335D01*
X149658Y159076D01*
X149412Y158898D01*
X149116Y158831D01*
X148818Y158884D01*
X148564Y159049D01*
X148394Y159301D01*
X147512Y161430D01*
X144920Y164022D01*
X141533Y165425D01*
X140462Y165425D01*
X140462Y146995D01*
X141533Y146995D01*
X144920Y148398D01*
X147512Y150990D01*
X148394Y153119D01*
X148534Y153340D01*
X148779Y153519D01*
X149074Y153589D01*
X149373Y153538D01*
X149628Y153375D01*
X149800Y153125D01*
X149860Y152828D01*
X149860Y131522D01*
X171102Y110280D01*
X171265Y110038D01*
X171325Y109741D01*
X171325Y103678D01*
X171272Y103398D01*
X171106Y103144D01*
X170855Y102974D01*
X170099Y102662D01*
X167598Y100161D01*
X166245Y96893D01*
X166245Y78117D01*
X167598Y74849D01*
X170099Y72348D01*
X173367Y70995D01*
G37*
G36*
X213214Y408500D02*
X216046Y408500D01*
X218663Y409584D01*
X220666Y411587D01*
X221750Y414204D01*
X221750Y417036D01*
X220666Y419653D01*
X218663Y421656D01*
X216046Y422740D01*
X213214Y422740D01*
X210597Y421656D01*
X208594Y419653D01*
X207510Y417036D01*
X207510Y414204D01*
X208594Y411587D01*
X210597Y409584D01*
X213214Y408500D01*
G37*
G36*
X238614Y408500D02*
X241446Y408500D01*
X244063Y409584D01*
X246066Y411587D01*
X247150Y414204D01*
X247150Y417036D01*
X246066Y419653D01*
X244063Y421656D01*
X241446Y422740D01*
X238614Y422740D01*
X235997Y421656D01*
X233994Y419653D01*
X232910Y417036D01*
X232910Y414204D01*
X233994Y411587D01*
X235997Y409584D01*
X238614Y408500D01*
G37*
G36*
X264014Y408500D02*
X266846Y408500D01*
X269463Y409584D01*
X271466Y411587D01*
X272550Y414204D01*
X272550Y417036D01*
X271466Y419653D01*
X269463Y421656D01*
X266846Y422740D01*
X264014Y422740D01*
X261397Y421656D01*
X259394Y419653D01*
X258310Y417036D01*
X258310Y414204D01*
X259394Y411587D01*
X261397Y409584D01*
X264014Y408500D01*
G37*
G36*
X306270Y362818D02*
X316030Y362818D01*
X325046Y366553D01*
X331947Y373454D01*
X335682Y382470D01*
X335682Y392230D01*
X331947Y401246D01*
X325046Y408147D01*
X316030Y411882D01*
X306270Y411882D01*
X297254Y408147D01*
X290353Y401246D01*
X286618Y392230D01*
X286618Y382470D01*
X290353Y373454D01*
X297254Y366553D01*
X306270Y362818D01*
G37*
G36*
X39570Y362818D02*
X49330Y362818D01*
X58346Y366553D01*
X65247Y373454D01*
X68982Y382470D01*
X68982Y392230D01*
X65247Y401246D01*
X58346Y408147D01*
X49330Y411882D01*
X39570Y411882D01*
X30554Y408147D01*
X23653Y401246D01*
X19918Y392230D01*
X19918Y382470D01*
X23653Y373454D01*
X30554Y366553D01*
X39570Y362818D01*
G37*
G36*
X112130Y348742D02*
X121158Y348742D01*
X121158Y357770D01*
X119973Y357770D01*
X116374Y356280D01*
X113620Y353526D01*
X112130Y349927D01*
X112130Y348742D01*
G37*
G36*
X122682Y348742D02*
X131710Y348742D01*
X131710Y349927D01*
X130220Y353526D01*
X127466Y356280D01*
X123867Y357770D01*
X122682Y357770D01*
X122682Y348742D01*
G37*
G36*
X119973Y338190D02*
X121158Y338190D01*
X121158Y347218D01*
X112130Y347218D01*
X112130Y346033D01*
X113620Y342434D01*
X116374Y339680D01*
X119973Y338190D01*
G37*
G36*
X122682Y338190D02*
X123867Y338190D01*
X127466Y339680D01*
X130220Y342434D01*
X131710Y346033D01*
X131710Y347218D01*
X122682Y347218D01*
X122682Y338190D01*
G37*
G36*
X266192Y336982D02*
X273820Y336982D01*
X273820Y337889D01*
X272543Y340973D01*
X270183Y343333D01*
X267099Y344610D01*
X266192Y344610D01*
X266192Y336982D01*
G37*
G36*
X257040Y336982D02*
X264668Y336982D01*
X264668Y344610D01*
X263761Y344610D01*
X260677Y343333D01*
X258317Y340973D01*
X257040Y337889D01*
X257040Y336982D01*
G37*
G36*
X324254Y161340D02*
X327266Y161340D01*
X330048Y162492D01*
X332178Y164622D01*
X333330Y167404D01*
X333330Y170416D01*
X332178Y173198D01*
X330048Y175328D01*
X327266Y176480D01*
X324254Y176480D01*
X321472Y175328D01*
X319342Y173198D01*
X318603Y171412D01*
X318446Y171174D01*
X318196Y171002D01*
X317899Y170942D01*
X315694Y170942D01*
X315408Y170998D01*
X315155Y171165D01*
X191485Y294835D01*
X191322Y295077D01*
X191262Y295374D01*
X191262Y328338D01*
X191313Y328613D01*
X191477Y328868D01*
X191727Y329040D01*
X192024Y329100D01*
X195606Y329100D01*
X196350Y329844D01*
X196350Y333426D01*
X196401Y333701D01*
X196565Y333956D01*
X196815Y334128D01*
X197112Y334188D01*
X207256Y334188D01*
X207536Y334135D01*
X207790Y333969D01*
X207960Y333718D01*
X208594Y332187D01*
X210597Y330184D01*
X213214Y329100D01*
X216046Y329100D01*
X218663Y330184D01*
X220666Y332187D01*
X221750Y334804D01*
X221750Y337636D01*
X220666Y340253D01*
X218663Y342256D01*
X216046Y343340D01*
X213214Y343340D01*
X210597Y342256D01*
X208594Y340253D01*
X207960Y338722D01*
X207803Y338484D01*
X207553Y338312D01*
X207256Y338252D01*
X197112Y338252D01*
X196837Y338303D01*
X196582Y338467D01*
X196410Y338717D01*
X196350Y339014D01*
X196350Y342596D01*
X195606Y343340D01*
X182854Y343340D01*
X182110Y342596D01*
X182110Y329844D01*
X182854Y329100D01*
X186436Y329100D01*
X186711Y329049D01*
X186966Y328885D01*
X187138Y328635D01*
X187198Y328338D01*
X187198Y293375D01*
X313695Y166878D01*
X317899Y166878D01*
X318179Y166825D01*
X318433Y166659D01*
X318603Y166408D01*
X319342Y164622D01*
X321472Y162492D01*
X324254Y161340D01*
G37*
G36*
X323902Y136292D02*
X326914Y136292D01*
X329696Y137444D01*
X331826Y139574D01*
X332978Y142356D01*
X332978Y145368D01*
X332238Y147153D01*
X332180Y147433D01*
X332236Y147731D01*
X332404Y147984D01*
X344465Y160045D01*
X344465Y186259D01*
X293118Y237606D01*
X292957Y237842D01*
X292894Y238139D01*
X292952Y238437D01*
X293320Y239324D01*
X293320Y242336D01*
X292168Y245118D01*
X290038Y247248D01*
X287256Y248400D01*
X284244Y248400D01*
X281462Y247248D01*
X281103Y246888D01*
X280872Y246730D01*
X280576Y246665D01*
X280278Y246721D01*
X280025Y246888D01*
X242547Y284367D01*
X242384Y284608D01*
X242324Y284905D01*
X242324Y328954D01*
X242377Y329235D01*
X242543Y329489D01*
X242794Y329658D01*
X244063Y330184D01*
X246066Y332187D01*
X247150Y334804D01*
X247150Y337636D01*
X246066Y340253D01*
X244063Y342256D01*
X241446Y343340D01*
X238614Y343340D01*
X235997Y342256D01*
X233994Y340253D01*
X232910Y337636D01*
X232910Y334804D01*
X233994Y332187D01*
X235997Y330184D01*
X237790Y329441D01*
X238028Y329285D01*
X238200Y329035D01*
X238260Y328737D01*
X238260Y282906D01*
X278011Y243156D01*
X278171Y242920D01*
X278234Y242623D01*
X278180Y242347D01*
X278180Y239324D01*
X279332Y236542D01*
X281462Y234412D01*
X284244Y233260D01*
X287256Y233260D01*
X289939Y234372D01*
X290219Y234430D01*
X290517Y234374D01*
X290770Y234206D01*
X340177Y184799D01*
X340340Y184557D01*
X340401Y184260D01*
X340401Y162044D01*
X340345Y161758D01*
X340177Y161505D01*
X329530Y150858D01*
X329294Y150697D01*
X328997Y150634D01*
X328699Y150692D01*
X326914Y151432D01*
X323902Y151432D01*
X321120Y150280D01*
X318990Y148150D01*
X317838Y145368D01*
X317838Y142356D01*
X318990Y139574D01*
X321120Y137444D01*
X323902Y136292D01*
G37*
G36*
X263761Y327830D02*
X264668Y327830D01*
X264668Y335458D01*
X257040Y335458D01*
X257040Y334551D01*
X258317Y331467D01*
X260677Y329107D01*
X263761Y327830D01*
G37*
G36*
X266192Y327830D02*
X267099Y327830D01*
X270183Y329107D01*
X272543Y331467D01*
X273820Y334551D01*
X273820Y335458D01*
X266192Y335458D01*
X266192Y327830D01*
G37*
G36*
X276910Y266592D02*
X284988Y266592D01*
X284988Y274670D01*
X283992Y274670D01*
X280743Y273324D01*
X278256Y270837D01*
X276910Y267588D01*
X276910Y266592D01*
G37*
G36*
X286512Y266592D02*
X294590Y266592D01*
X294590Y267588D01*
X293244Y270837D01*
X290757Y273324D01*
X287508Y274670D01*
X286512Y274670D01*
X286512Y266592D01*
G37*
G36*
X286512Y256990D02*
X287508Y256990D01*
X290757Y258336D01*
X293244Y260823D01*
X294590Y264072D01*
X294590Y265068D01*
X286512Y265068D01*
X286512Y256990D01*
G37*
G36*
X283992Y256990D02*
X284988Y256990D01*
X284988Y265068D01*
X276910Y265068D01*
X276910Y264072D01*
X278256Y260823D01*
X280743Y258336D01*
X283992Y256990D01*
G37*
G36*
X199563Y226828D02*
X206837Y226828D01*
X213556Y229611D01*
X218699Y234754D01*
X221482Y241473D01*
X221482Y248747D01*
X218699Y255466D01*
X213556Y260609D01*
X206837Y263392D01*
X199563Y263392D01*
X192844Y260609D01*
X187701Y255466D01*
X184918Y248747D01*
X184918Y241473D01*
X187701Y234754D01*
X192844Y229611D01*
X199563Y226828D01*
G37*
G36*
X85263Y226828D02*
X92537Y226828D01*
X99256Y229611D01*
X104399Y234754D01*
X107182Y241473D01*
X107182Y248747D01*
X104399Y255466D01*
X99256Y260609D01*
X92537Y263392D01*
X85263Y263392D01*
X78544Y260609D01*
X73401Y255466D01*
X70618Y248747D01*
X70618Y241473D01*
X73401Y234754D01*
X78544Y229611D01*
X85263Y226828D01*
G37*
G36*
X222280Y202940D02*
X227320Y202940D01*
X231977Y204869D01*
X235541Y208433D01*
X237470Y213090D01*
X237470Y218130D01*
X235541Y222787D01*
X231977Y226351D01*
X227320Y228280D01*
X222280Y228280D01*
X217623Y226351D01*
X214059Y222787D01*
X212130Y218130D01*
X212130Y213090D01*
X214059Y208433D01*
X217623Y204869D01*
X222280Y202940D01*
G37*
G36*
X64780Y202940D02*
X69820Y202940D01*
X74477Y204869D01*
X78041Y208433D01*
X79970Y213090D01*
X79970Y218130D01*
X78041Y222787D01*
X74477Y226351D01*
X69820Y228280D01*
X64780Y228280D01*
X60123Y226351D01*
X56559Y222787D01*
X54630Y218130D01*
X54630Y213090D01*
X56559Y208433D01*
X60123Y204869D01*
X64780Y202940D01*
G37*
G36*
X276910Y216592D02*
X284988Y216592D01*
X284988Y224670D01*
X283992Y224670D01*
X280743Y223324D01*
X278256Y220837D01*
X276910Y217588D01*
X276910Y216592D01*
G37*
G36*
X286512Y216592D02*
X294590Y216592D01*
X294590Y217588D01*
X293244Y220837D01*
X290757Y223324D01*
X287508Y224670D01*
X286512Y224670D01*
X286512Y216592D01*
G37*
G36*
X283992Y206990D02*
X284988Y206990D01*
X284988Y215068D01*
X276910Y215068D01*
X276910Y214072D01*
X278256Y210823D01*
X280743Y208336D01*
X283992Y206990D01*
G37*
G36*
X286512Y206990D02*
X287508Y206990D01*
X290757Y208336D01*
X293244Y210823D01*
X294590Y214072D01*
X294590Y215068D01*
X286512Y215068D01*
X286512Y206990D01*
G37*
G36*
X147967Y70995D02*
X151503Y70995D01*
X154771Y72348D01*
X157272Y74849D01*
X158625Y78117D01*
X158625Y96893D01*
X157272Y100161D01*
X154771Y102662D01*
X151503Y104015D01*
X147967Y104015D01*
X144699Y102662D01*
X142198Y100161D01*
X141977Y99627D01*
X141829Y99397D01*
X141581Y99221D01*
X141285Y99156D01*
X140987Y99212D01*
X140734Y99379D01*
X129255Y110858D01*
X129092Y111100D01*
X129032Y111397D01*
X129032Y154054D01*
X129077Y154312D01*
X129234Y154571D01*
X129480Y154748D01*
X129776Y154816D01*
X130074Y154763D01*
X130329Y154597D01*
X130498Y154346D01*
X131888Y150990D01*
X134480Y148398D01*
X137867Y146995D01*
X138938Y146995D01*
X138938Y165425D01*
X137867Y165425D01*
X134480Y164022D01*
X131888Y161430D01*
X130498Y158074D01*
X130358Y157854D01*
X130113Y157674D01*
X129818Y157604D01*
X129519Y157655D01*
X129264Y157819D01*
X129092Y158069D01*
X129032Y158366D01*
X129032Y173343D01*
X129085Y173623D01*
X129251Y173877D01*
X129502Y174047D01*
X131501Y174875D01*
X133735Y177110D01*
X134945Y180030D01*
X134945Y183190D01*
X133735Y186111D01*
X131501Y188345D01*
X128580Y189555D01*
X125420Y189555D01*
X122500Y188345D01*
X120265Y186111D01*
X119055Y183190D01*
X119055Y180030D01*
X120265Y177110D01*
X122500Y174875D01*
X124498Y174047D01*
X124736Y173890D01*
X124908Y173640D01*
X124968Y173343D01*
X124968Y109398D01*
X140622Y93744D01*
X140785Y93503D01*
X140845Y93206D01*
X140845Y78117D01*
X142198Y74849D01*
X144699Y72348D01*
X147967Y70995D01*
G37*
G36*
X97167Y70995D02*
X100703Y70995D01*
X103971Y72348D01*
X106472Y74849D01*
X107825Y78117D01*
X107825Y96893D01*
X106472Y100161D01*
X103878Y102755D01*
X103864Y102764D01*
X103692Y103014D01*
X103632Y103311D01*
X103632Y172903D01*
X103683Y173178D01*
X103847Y173433D01*
X104097Y173605D01*
X104394Y173665D01*
X108801Y173665D01*
X109545Y174409D01*
X109545Y188811D01*
X108801Y189555D01*
X94399Y189555D01*
X93655Y188811D01*
X93655Y174409D01*
X94399Y173665D01*
X98806Y173665D01*
X99081Y173614D01*
X99336Y173450D01*
X99508Y173200D01*
X99568Y172903D01*
X99568Y104777D01*
X99517Y104502D01*
X99353Y104247D01*
X99103Y104075D01*
X98806Y104015D01*
X97167Y104015D01*
X93899Y102662D01*
X91398Y100161D01*
X90045Y96893D01*
X90045Y78117D01*
X91398Y74849D01*
X93899Y72348D01*
X97167Y70995D01*
G37*
G36*
X122567Y70995D02*
X126103Y70995D01*
X129371Y72348D01*
X131872Y74849D01*
X133225Y78117D01*
X133225Y96893D01*
X131872Y100161D01*
X129371Y102662D01*
X126103Y104015D01*
X122567Y104015D01*
X119299Y102662D01*
X117633Y100995D01*
X117413Y100842D01*
X117118Y100772D01*
X116819Y100823D01*
X116564Y100987D01*
X116392Y101237D01*
X116332Y101534D01*
X116332Y147943D01*
X116385Y148223D01*
X116551Y148477D01*
X116802Y148647D01*
X118801Y149475D01*
X121035Y151710D01*
X122245Y154630D01*
X122245Y157790D01*
X121035Y160711D01*
X118801Y162945D01*
X115880Y164155D01*
X112720Y164155D01*
X109800Y162945D01*
X107565Y160711D01*
X106355Y157790D01*
X106355Y154630D01*
X107565Y151710D01*
X109800Y149475D01*
X111798Y148647D01*
X112036Y148490D01*
X112208Y148240D01*
X112268Y147943D01*
X112268Y96698D01*
X115222Y93744D01*
X115385Y93503D01*
X115445Y93206D01*
X115445Y78117D01*
X116798Y74849D01*
X119299Y72348D01*
X122567Y70995D01*
G37*
G36*
X191262Y146995D02*
X192333Y146995D01*
X195720Y148398D01*
X198312Y150990D01*
X199715Y154377D01*
X199715Y155448D01*
X191262Y155448D01*
X191262Y146995D01*
G37*
G36*
X190375Y88267D02*
X199773Y88267D01*
X199773Y105285D01*
X198514Y105285D01*
X194780Y103738D01*
X191922Y100880D01*
X190375Y97146D01*
X190375Y88267D01*
G37*
G36*
X201297Y88267D02*
X210695Y88267D01*
X210695Y97146D01*
X209148Y100880D01*
X206290Y103738D01*
X202556Y105285D01*
X201297Y105285D01*
X201297Y88267D01*
G37*
G36*
X201297Y69725D02*
X202556Y69725D01*
X206290Y71272D01*
X209148Y74130D01*
X210695Y77864D01*
X210695Y86743D01*
X201297Y86743D01*
X201297Y69725D01*
G37*
G36*
X198514Y69725D02*
X199773Y69725D01*
X199773Y86743D01*
X190375Y86743D01*
X190375Y77864D01*
X191922Y74130D01*
X194780Y71272D01*
X198514Y69725D01*
G37*
G36*
X306270Y19918D02*
X316030Y19918D01*
X325046Y23653D01*
X331947Y30554D01*
X335682Y39570D01*
X335682Y49330D01*
X331947Y58346D01*
X325046Y65247D01*
X316030Y68982D01*
X306270Y68982D01*
X297254Y65247D01*
X290353Y58346D01*
X286618Y49330D01*
X286618Y39570D01*
X290353Y30554D01*
X297254Y23653D01*
X306270Y19918D01*
G37*
G36*
X39570Y19918D02*
X49330Y19918D01*
X58346Y23653D01*
X65247Y30554D01*
X68982Y39570D01*
X68982Y49330D01*
X65247Y58346D01*
X58346Y65247D01*
X49330Y68982D01*
X39570Y68982D01*
X30554Y65247D01*
X23653Y58346D01*
X19918Y49330D01*
X19918Y39570D01*
X23653Y30554D01*
X30554Y23653D01*
X39570Y19918D01*
G37*
%LPD*%
D10*
X307340Y490220D03*
X281940Y490220D03*
D11*
X285750Y290830D03*
X285750Y265830D03*
X285750Y240830D03*
X285750Y215830D03*
D12*
X200535Y95125D02*
X200535Y79885D01*
X175135Y79885D02*
X175135Y95125D01*
X149735Y95125D02*
X149735Y79885D01*
X124335Y79885D02*
X124335Y95125D01*
X98935Y95125D02*
X98935Y79885D01*
D13*
X228600Y488950D03*
X203200Y514350D03*
X177800Y488950D03*
D14*
X67300Y215610D03*
X224800Y215610D03*
D15*
X101600Y181610D03*
D16*
X114300Y156210D03*
X127000Y181610D03*
X139700Y156210D03*
X152400Y181610D03*
X165100Y156210D03*
X177800Y181610D03*
X190500Y156210D03*
D13*
X114300Y488950D03*
X88900Y514350D03*
X63500Y488950D03*
D11*
X253360Y94332D03*
X325760Y94332D03*
X325760Y119380D03*
X253360Y119380D03*
X325408Y143862D03*
X253008Y143862D03*
D17*
X121920Y398780D03*
X121920Y347980D03*
D11*
X325760Y168910D03*
X253360Y168910D03*
D18*
X189230Y336220D03*
D19*
X214630Y336220D03*
X240030Y336220D03*
X265430Y336220D03*
X265430Y415620D03*
X240030Y415620D03*
X214630Y415620D03*
X189230Y415620D03*
D20*
X114300Y156210D02*
X114300Y97540D01*
X124335Y87505D01*
X127000Y110240D02*
X127000Y181610D01*
X127000Y110240D02*
X149735Y87505D01*
D21*
X153670Y180340D02*
X152400Y181610D01*
X153670Y180340D02*
X153670Y133100D01*
X175135Y111635D02*
X175135Y87505D01*
X175135Y111635D02*
X153670Y133100D01*
X152394Y181616D02*
X152394Y368954D01*
X152394Y181616D02*
X152400Y181610D01*
X156210Y181610D02*
X176713Y161107D01*
X156210Y181610D02*
X152400Y181610D01*
X176713Y161107D02*
X176713Y141173D01*
X198506Y119380D01*
X253360Y119380D01*
X151124Y367684D02*
X152394Y368954D01*
X189230Y405790D02*
X189230Y415620D01*
X189230Y405790D02*
X152394Y368954D01*
X151124Y367684D02*
X121920Y396888D01*
X121920Y398780D01*
X253360Y143510D02*
X253360Y119380D01*
X253360Y143510D02*
X253008Y143862D01*
D20*
X101600Y181610D02*
X101600Y90170D01*
X98935Y87505D01*
X165100Y156210D02*
X165283Y156393D01*
X165100Y140970D02*
X193958Y112112D01*
X165100Y140970D02*
X165100Y156210D01*
X235580Y112112D02*
X253360Y94332D01*
X235580Y112112D02*
X193958Y112112D01*
X203200Y514350D02*
X257810Y514350D01*
X281940Y490220D01*
X302260Y455930D02*
X173990Y455930D01*
X113030Y516890D01*
X91440Y516890D01*
X88900Y514350D01*
X342900Y415290D02*
X342900Y326390D01*
X307340Y290830D01*
X285750Y290830D01*
X342900Y415290D02*
X302260Y455930D01*
X285750Y240830D02*
X283210Y240830D01*
X240292Y283748D01*
X285750Y240830D02*
X287020Y240830D01*
X342433Y185417D01*
X342433Y160887D01*
X325408Y143862D01*
X240292Y283748D02*
X240292Y335958D01*
X240030Y336220D01*
X325760Y119380D02*
X325485Y119105D01*
X325760Y119380D02*
X349250Y142870D01*
X349250Y417830D01*
X304800Y462280D01*
X180340Y462280D01*
X114300Y528320D01*
X76200Y528320D01*
X63500Y515620D01*
X63500Y488950D01*
X355600Y124172D02*
X325760Y94332D01*
X255270Y488950D02*
X228600Y488950D01*
X275336Y468884D02*
X307227Y468884D01*
X275336Y468884D02*
X255270Y488950D01*
X355600Y420511D02*
X355600Y124172D01*
X355600Y420511D02*
X307227Y468884D01*
X314537Y168910D02*
X325760Y168910D01*
X314537Y168910D02*
X189230Y294217D01*
X189230Y336220D01*
X214630Y336220D01*
X190500Y168910D02*
X253360Y168910D01*
X190500Y168910D02*
X177800Y181610D01*
M02*
