M48
;GenerationSoftware,Autodesk,EAGLE,9.7.0*%
;CreationDate,2024-04-12T06:58:18Z*%
FMAT,2
ICI,OFF
METRIC,TZ,000.000
T11C0.660
T10C0.780
T9C0.840
T8C0.850
T7C0.890
T6C1.000
T5C1.016
T4C1.200
T3C1.520
T2C3.250
T1C4.500
%
G90
M71
T1
X4445Y38735
X4445Y4445
X31115Y4445
X31115Y38735
T2
X8890Y24511
X20320Y24511
T3
X22480Y21561
X6730Y21561
T4
X30734Y49022
X28194Y49022
T5
X20053Y8750
X17513Y8750
X14973Y8750
X12433Y8750
X9893Y8750
T6
X6350Y48895
X8890Y51435
X11430Y48895
X22860Y48895
X20320Y51435
X17780Y48895
T7
X13970Y15621
X10160Y18161
X11430Y15621
X12700Y18161
X15240Y18161
X16510Y15621
X17780Y18161
X19050Y15621
T8
X12192Y39878
X12192Y34798
T9
X28575Y21583
X28575Y24083
X28575Y26583
X28575Y29083
T10
X18923Y33622
X21463Y33622
X24003Y33622
X26543Y33622
X26543Y41562
X24003Y41562
X21463Y41562
X18923Y41562
T11
X25336Y9433
X32576Y9433
X32576Y11938
X25336Y11938
X32541Y14386
X25301Y14386
X32576Y16891
X25336Y16891
M30