G04 EAGLE Gerber RS-274X export*
G75*
%MOMM*%
%FSLAX34Y34*%
%LPD*%
%IN*%
%IPPOS*%
%AMOC8*
5,1,8,0,0,1.08239X$1,22.5*%
G01*
G04 Define Apertures*
%ADD10C,0.254000*%
D10*
X-19050Y43360D02*
X-18885Y39581D01*
X-18391Y35831D01*
X-17573Y32138D01*
X-16435Y28530D01*
X-14987Y25036D01*
X-13241Y21680D01*
X-11208Y18490D01*
X-8906Y15489D01*
X-6350Y12700D01*
X-3561Y10144D01*
X-560Y7842D01*
X2630Y5809D01*
X5986Y4063D01*
X9480Y2615D01*
X13088Y1477D01*
X16781Y659D01*
X20531Y165D01*
X24310Y0D01*
X314669Y0D01*
X319326Y203D01*
X323947Y812D01*
X328498Y1821D01*
X332943Y3222D01*
X337250Y5006D01*
X341384Y7158D01*
X345316Y9663D01*
X349014Y12501D01*
X352450Y15650D01*
X355599Y19086D01*
X358437Y22784D01*
X360942Y26716D01*
X363094Y30850D01*
X364878Y35157D01*
X366279Y39602D01*
X367288Y44153D01*
X367897Y48774D01*
X368100Y53431D01*
X368100Y511827D01*
X367898Y516463D01*
X367292Y521064D01*
X366287Y525595D01*
X364892Y530022D01*
X363116Y534309D01*
X360973Y538426D01*
X358479Y542340D01*
X355654Y546022D01*
X352519Y549444D01*
X349097Y552579D01*
X345415Y555404D01*
X341501Y557898D01*
X337384Y560041D01*
X333097Y561817D01*
X328670Y563212D01*
X324139Y564217D01*
X319538Y564823D01*
X314902Y565025D01*
X34500Y565025D01*
X29833Y564821D01*
X25201Y564211D01*
X20640Y563200D01*
X16185Y561796D01*
X11869Y560008D01*
X7725Y557851D01*
X3785Y555341D01*
X79Y552497D01*
X-3366Y549341D01*
X-6522Y545896D01*
X-9366Y542190D01*
X-11876Y538250D01*
X-14033Y534106D01*
X-15821Y529790D01*
X-17225Y525335D01*
X-18236Y520774D01*
X-18846Y516142D01*
X-19050Y511475D01*
X-19050Y43360D01*
M02*
