M48
;GenerationSoftware,Autodesk,EAGLE,9.7.0*%
;CreationDate,2024-04-12T05:55:48Z*%
FMAT,2
ICI,OFF
METRIC,TZ,000.000
T13C0.350
T12C0.660
T11C0.800
T10C0.840
T9C0.890
T8C0.914
T7C1.000
T6C1.016
T5C1.100
T4C1.500
T3C2.000
T2C2.750
T1C3.200
%
G90
M71
T1
X5946Y63807
X5946Y76507
X5946Y56187
X5946Y43487
X5946Y35867
X5946Y23167
X6835Y7038
X19535Y7038
X27155Y7038
X39855Y7038
X47475Y7038
X60175Y7038
X67795Y7038
X80495Y7038
X88115Y7038
X100815Y7038
T2
X108585Y4445
X59485Y62477
X108585Y62445
T3
X45675Y10497
X66271Y75110
X82295Y10497
X65995Y10497
X44427Y75110
X34267Y75110
X87480Y75110
X77320Y75110
X102615Y10497
X86315Y10497
X9405Y62007
X9405Y78307
X9405Y41687
X9405Y57987
X61975Y10497
X25355Y10497
X41655Y10497
X5035Y10497
X21335Y10497
X9405Y21367
X9405Y37667
X56111Y75110
T4
X24996Y81641
X24996Y74641
T5
X107415Y40043
X109955Y40043
X107415Y42583
X109955Y42583
X107415Y45123
X109955Y45123
X107415Y47663
X109955Y47663
X107415Y50203
X109955Y50203
X107415Y52743
X109955Y52743
X107415Y55283
X109955Y55283
X107415Y57823
X109955Y57823
X117833Y79809
X121643Y79809
X109955Y37503
X109955Y9563
X107415Y37503
X109955Y34963
X107415Y34963
X109955Y32423
X107415Y32423
X107415Y9563
X109955Y29883
X107415Y29883
X109955Y27343
X107415Y12103
X109955Y12103
X107415Y14643
X109955Y14643
X107415Y17183
X109955Y17183
X107415Y27343
X107415Y19723
X109955Y19723
X109955Y24803
X107415Y24803
X109955Y22263
X107415Y22263
T6
X139677Y67109
X139677Y64569
X139677Y62029
X139677Y59489
X139677Y56949
X68222Y64737
X126977Y74729
X126977Y72189
X126977Y69649
X126977Y67109
X65682Y64737
X63142Y64737
X126977Y64569
X126977Y62029
X126977Y59489
X126977Y56949
X139677Y74729
X139677Y72189
X139677Y69649
T7
X74955Y59090
X78455Y59090
X85750Y59090
X89250Y59090
X96672Y58963
X100172Y58963
X100426Y33436
X96926Y33436
X74828Y46390
X78328Y46390
X85750Y46390
X89250Y46390
X96672Y46390
X94646Y25699
X101146Y25699
X101146Y21199
X94646Y21199
X97896Y19349
X83978Y25839
X90478Y25839
X90478Y21339
X100172Y46390
X78328Y33436
X83978Y21339
X87228Y19489
X72494Y25739
X78994Y25739
X78994Y21239
X72494Y21239
X86004Y33436
X89504Y33436
X75744Y19389
X74828Y33436
T8
X13693Y11356
X15725Y11356
X10645Y9578
X12677Y9578
X14709Y9578
X16741Y9578
X29949Y11356
X31981Y11356
X34013Y11356
X36045Y11356
X30965Y9578
X32997Y9578
X35029Y9578
X37061Y9578
X50269Y11356
X52301Y11356
X54333Y11356
X56365Y11356
X51285Y9578
X53317Y9578
X55349Y9578
X57381Y9578
X10264Y71681
X70589Y11356
X72621Y11356
X74653Y11356
X76685Y11356
X71605Y9578
X73637Y9578
X75669Y9578
X77701Y9578
X90909Y11356
X92941Y11356
X94973Y11356
X97005Y11356
X9629Y11356
X8486Y25961
X91925Y9578
X93957Y9578
X8486Y27993
X8486Y30025
X95989Y9578
X98021Y9578
X10264Y73713
X11661Y11356
X10264Y69649
X10264Y67617
X8486Y72697
X8486Y70665
X8486Y68633
X8486Y66601
X8486Y32057
X10264Y26977
X10264Y53393
X10264Y51361
X10264Y49329
X10264Y47297
X8486Y52377
X8486Y50345
X8486Y48313
X8486Y46281
X10264Y29009
X10264Y31041
X10264Y33073
T9
X79860Y70030
X82400Y70030
X36807Y70030
X61191Y70030
X58651Y70030
X39347Y70030
T10
X136987Y79987
X134487Y79987
X131987Y79987
X129487Y79987
T11
G00X98641Y74337
M15
G01X96441Y74337
M16
X97541Y74337
G00X92941Y76087
M15
G01X92941Y78287
M16
X92941Y77187
G00X96441Y80437
M15
G01X98641Y80437
M16
X97541Y80437
T12
G05
X18583Y39677
X11343Y39677
X18583Y59997
X11343Y59997
X18456Y81587
X11216Y81587
X84305Y19548
X84305Y12308
X63985Y19548
X63985Y12308
X43665Y19421
X43665Y12181
X23239Y19442
X23239Y12202
X3025Y19353
X3025Y12113
T13
X60138Y49239
X118110Y58674
X45713Y49270
X77582Y63650
X117706Y64183
X58651Y48821
X45655Y48618
X77666Y64456
X65278Y37084
X26901Y62156
X48618Y54790
X28425Y62156
X48618Y56060
X30076Y62156
X48364Y58600
X31473Y62156
X48364Y60505
X64770Y34036
X70358Y23221
X77130Y4176
X56936Y4176
X36641Y4176
X16448Y4176
X3211Y26308
X3211Y46662
X3211Y66970
X97664Y4092
X54991Y66802
X48260Y68072
X45316Y66728
X70354Y42317
X78655Y43614
X79555Y44911
X80214Y53882
X47602Y42471
X51054Y62992
X39982Y59362
X39985Y54556
X40774Y59362
X40764Y54539
X41553Y59362
X41489Y54536
X42144Y54539
X42205Y59404
X2686Y68062
X2686Y47805
X2686Y27358
X15217Y3457
X35410Y3524
X55857Y3524
X80087Y55025
X35664Y22320
X23853Y20881
X26832Y31618
X30584Y40312
X31374Y39423
X67287Y17537
X25377Y40185
X25367Y38905
X88369Y16690
X25377Y41328
X42395Y20373
X21313Y45265
X25377Y42725
X28044Y40185
X21313Y46535
X21183Y47805
X31981Y58473
X32108Y57076
X32108Y55933
X34944Y28882
X32108Y54536
X15598Y53266
X22768Y59859
X54060Y61486
X50419Y66675
X35433Y59690
X119888Y59690
X119888Y64008
X42776Y66728
X63756Y58984
X40702Y40058
X31134Y35105
X21948Y39804
X47602Y43741
X56746Y39042
X32870Y25961
X29822Y26088
X26901Y25834
X39330Y66457
X49403Y66675
X52705Y65024
X52705Y67668
X53158Y51439
X42799Y64897
X81534Y25781
X131699Y33782
X125349Y46515
X117983Y33688
X34065Y22099
X45239Y67643
X92614Y20940
X134597Y21389
X32108Y59743
X21821Y36375
X23345Y60505
X20932Y37010
X20932Y39804
X42395Y40693
X42395Y43360
X42416Y46027
X31219Y22151
X28298Y22151
X58524Y39991
X61826Y27866
X64526Y41066
X57381Y42471
X58524Y40820
X119611Y8435
X130660Y8308
X23345Y54663
X47221Y53520
X52555Y59743
X53317Y59743
X103028Y21067
X121516Y55298
X103609Y70284
X61853Y57281
X62742Y57281
X34267Y58727
X75796Y3524
X96497Y3524
X33378Y58727
M30