G04 EAGLE Gerber RS-274X export*
G75*
%MOMM*%
%FSLAX34Y34*%
%LPD*%
%INSoldermask Bottom*%
%IPPOS*%
%AMOC8*
5,1,8,0,0,1.08239X$1,22.5*%
G01*
G04 Define Apertures*
%ADD10C,2.877000*%
%ADD11C,1.627000*%
%ADD12R,1.627000X1.627000*%
%ADD13C,1.651000*%
%ADD14R,1.462000X1.462000*%
%ADD15C,1.462000*%
%ADD16C,3.127000*%
%ADD17C,1.651000*%
%ADD18R,1.651000X1.651000*%
%ADD19C,3.327000*%
%ADD20C,1.327000*%
%ADD21C,1.387000*%
%ADD22R,1.777000X1.777000*%
%ADD23C,1.777000*%
%ADD24C,0.652000*%
D10*
X1085850Y44450D03*
X594850Y624770D03*
X1085850Y624450D03*
D11*
X249960Y816410D03*
X249960Y746410D03*
D12*
X969260Y334360D03*
D11*
X1004260Y334360D03*
D13*
X1389150Y569490D02*
X1404390Y569490D01*
X1404390Y594890D02*
X1389150Y594890D01*
X1389150Y620290D02*
X1404390Y620290D01*
X1404390Y645690D02*
X1389150Y645690D01*
X1389150Y671090D02*
X1404390Y671090D01*
X1404390Y696490D02*
X1389150Y696490D01*
X1389150Y721890D02*
X1404390Y721890D01*
X1404390Y747290D02*
X1389150Y747290D01*
X1277390Y569490D02*
X1262150Y569490D01*
X1262150Y594890D02*
X1277390Y594890D01*
X1277390Y620290D02*
X1262150Y620290D01*
X1262150Y645690D02*
X1277390Y645690D01*
X1277390Y671090D02*
X1262150Y671090D01*
X1262150Y696490D02*
X1277390Y696490D01*
X1277390Y721890D02*
X1262150Y721890D01*
X1262150Y747290D02*
X1277390Y747290D01*
D14*
X393470Y700300D03*
D15*
X368070Y700300D03*
D16*
X444270Y751100D03*
X342670Y751100D03*
D14*
X824000Y700300D03*
D15*
X798600Y700300D03*
D16*
X874800Y751100D03*
X773200Y751100D03*
D17*
X102640Y737130D03*
X102640Y716810D03*
X102640Y696490D03*
X102640Y676170D03*
X84860Y726970D03*
X84860Y706650D03*
X84860Y686330D03*
D18*
X84860Y666010D03*
D19*
X59460Y765070D03*
X59460Y638070D03*
D16*
X94050Y620070D03*
X94050Y783070D03*
D17*
X102640Y533930D03*
X102640Y513610D03*
X102640Y493290D03*
X102640Y472970D03*
X84860Y523770D03*
X84860Y503450D03*
X84860Y483130D03*
D18*
X84860Y462810D03*
D19*
X59460Y561870D03*
X59460Y434870D03*
D16*
X94050Y416870D03*
X94050Y579870D03*
D17*
X102640Y330730D03*
X102640Y310410D03*
X102640Y290090D03*
X102640Y269770D03*
X84860Y320570D03*
X84860Y300250D03*
X84860Y279930D03*
D18*
X84860Y259610D03*
D19*
X59460Y358670D03*
X59460Y231670D03*
D16*
X94050Y213670D03*
X94050Y376670D03*
D17*
X96290Y113560D03*
X116610Y113560D03*
X136930Y113560D03*
X157250Y113560D03*
X106450Y95780D03*
X126770Y95780D03*
X147090Y95780D03*
D18*
X167410Y95780D03*
D19*
X68350Y70380D03*
X195350Y70380D03*
D16*
X213350Y104970D03*
X50350Y104970D03*
D17*
X299490Y113560D03*
X319810Y113560D03*
X340130Y113560D03*
X360450Y113560D03*
X309650Y95780D03*
X329970Y95780D03*
X350290Y95780D03*
D18*
X370610Y95780D03*
D19*
X271550Y70380D03*
X398550Y70380D03*
D16*
X416550Y104970D03*
X253550Y104970D03*
D17*
X502690Y113560D03*
X523010Y113560D03*
X543330Y113560D03*
X563650Y113560D03*
X512850Y95780D03*
X533170Y95780D03*
X553490Y95780D03*
D18*
X573810Y95780D03*
D19*
X474750Y70380D03*
X601750Y70380D03*
D16*
X619750Y104970D03*
X456750Y104970D03*
D17*
X705890Y113560D03*
X726210Y113560D03*
X746530Y113560D03*
X766850Y113560D03*
X716050Y95780D03*
X736370Y95780D03*
X756690Y95780D03*
D18*
X777010Y95780D03*
D19*
X677950Y70380D03*
X804950Y70380D03*
D16*
X822950Y104970D03*
X659950Y104970D03*
D17*
X909090Y113560D03*
X929410Y113560D03*
X949730Y113560D03*
X970050Y113560D03*
X919250Y95780D03*
X939570Y95780D03*
X959890Y95780D03*
D18*
X980210Y95780D03*
D19*
X881150Y70380D03*
X1008150Y70380D03*
D16*
X1026150Y104970D03*
X863150Y104970D03*
D20*
X964410Y804370D02*
X986410Y804370D01*
X929410Y782870D02*
X929410Y760870D01*
X964410Y743370D02*
X986410Y743370D01*
D21*
X1294870Y799870D03*
X1319870Y799870D03*
X1344870Y799870D03*
X1369870Y799870D03*
X30250Y121130D03*
X30250Y193530D03*
X232389Y122019D03*
X232389Y194419D03*
X436650Y121810D03*
X436650Y194210D03*
X639850Y123080D03*
X639850Y195480D03*
X843050Y123080D03*
X843050Y195480D03*
X112160Y815870D03*
X184560Y815870D03*
X113430Y599970D03*
X185830Y599970D03*
X113430Y396770D03*
X185830Y396770D03*
D12*
X749550Y590900D03*
D11*
X784550Y590900D03*
D12*
X857500Y590900D03*
D11*
X892500Y590900D03*
D12*
X966720Y589630D03*
D11*
X1001720Y589630D03*
D12*
X748280Y463900D03*
D11*
X783280Y463900D03*
D12*
X857500Y463900D03*
D11*
X892500Y463900D03*
D12*
X966720Y463900D03*
D11*
X1001720Y463900D03*
D12*
X748280Y334360D03*
D11*
X783280Y334360D03*
D12*
X860040Y334360D03*
D11*
X895040Y334360D03*
D14*
X611910Y700300D03*
D15*
X586510Y700300D03*
D16*
X662710Y751100D03*
X561110Y751100D03*
D22*
X1216430Y798090D03*
D23*
X1178330Y798090D03*
D22*
X1099550Y578230D03*
D23*
X1074150Y578230D03*
X1099550Y552830D03*
X1074150Y552830D03*
X1099550Y527430D03*
X1074150Y527430D03*
X1099550Y502030D03*
X1074150Y502030D03*
X1099550Y476630D03*
X1074150Y476630D03*
X1099550Y451230D03*
X1074150Y451230D03*
X1099550Y425830D03*
X1074150Y425830D03*
X1099550Y400430D03*
X1074150Y400430D03*
X1099550Y375030D03*
X1074150Y375030D03*
X1099550Y349630D03*
X1074150Y349630D03*
X1099550Y324230D03*
X1074150Y324230D03*
X1099550Y298830D03*
X1074150Y298830D03*
X1099550Y273430D03*
X1074150Y273430D03*
X1099550Y248030D03*
X1074150Y248030D03*
X1099550Y222630D03*
X1074150Y222630D03*
X1099550Y197230D03*
X1074150Y197230D03*
X1099550Y171830D03*
X1074150Y171830D03*
X1099550Y146430D03*
X1074150Y146430D03*
X1099550Y121030D03*
X1074150Y121030D03*
X1099550Y95630D03*
X1074150Y95630D03*
D13*
X682220Y639750D02*
X682220Y654990D01*
X656820Y654990D02*
X656820Y639750D01*
X631420Y639750D02*
X631420Y654990D01*
D11*
X946460Y256986D03*
X1011460Y256986D03*
X1011460Y211986D03*
X946460Y211986D03*
X978960Y193486D03*
X839780Y258390D03*
X904780Y258390D03*
X904780Y213390D03*
X839780Y213390D03*
X872280Y194890D03*
X724940Y257390D03*
X789940Y257390D03*
X789940Y212390D03*
X724940Y212390D03*
X757440Y193890D03*
D24*
X333780Y587270D03*
X342670Y587270D03*
X627420Y572810D03*
X618530Y572810D03*
X1036090Y702840D03*
X1215160Y552980D03*
X1030280Y210670D03*
X533170Y597430D03*
X525550Y597430D03*
X472210Y535200D03*
X233450Y546630D03*
X1306600Y83080D03*
X1196110Y84350D03*
X585240Y408200D03*
X573810Y424710D03*
X645260Y410660D03*
X618260Y278660D03*
X585240Y399911D03*
X282980Y221510D03*
X312190Y221510D03*
X424162Y460270D03*
X423950Y433600D03*
X423950Y406930D03*
X209320Y398040D03*
X209320Y370100D03*
X233450Y605050D03*
X218210Y363750D03*
X321080Y597430D03*
X1345970Y213890D03*
X926140Y209400D03*
X452388Y676434D03*
X340647Y220993D03*
X1179830Y336880D03*
X1253490Y465150D03*
X1316990Y337820D03*
X815340Y257810D03*
X427990Y648970D03*
X531577Y514390D03*
X527050Y676676D03*
X527050Y650240D03*
X494030Y666750D03*
X393302Y664572D03*
X269010Y258340D03*
X298220Y260880D03*
X328700Y259610D03*
X567460Y390420D03*
X476020Y437410D03*
X219480Y398040D03*
X311343Y351050D03*
X407017Y400580D03*
X637557Y589837D03*
X427760Y667280D03*
X1198880Y640080D03*
X1198880Y596900D03*
X354330Y596900D03*
X504190Y666750D03*
X540604Y614861D03*
X227679Y598590D03*
X155980Y532660D03*
X321080Y545360D03*
X349443Y288820D03*
X321080Y559330D03*
X321080Y570760D03*
X319810Y584730D03*
X211828Y478050D03*
X213130Y465350D03*
X280440Y401850D03*
X253770Y427250D03*
X213130Y452650D03*
X423950Y203730D03*
X253770Y413280D03*
X883690Y166900D03*
X253674Y389054D03*
X253770Y401850D03*
X672870Y175367D03*
X313742Y394230D03*
X305840Y403120D03*
X268317Y316183D03*
X238530Y208810D03*
X356640Y223201D03*
X800870Y550250D03*
X802140Y538820D03*
X795550Y449110D03*
X786550Y436140D03*
X703540Y423170D03*
X453160Y667280D03*
X482600Y680720D03*
X549910Y668020D03*
X976645Y40925D03*
X32113Y669697D03*
X32113Y466620D03*
X32113Y263081D03*
X164480Y41763D03*
X366410Y41763D03*
X569365Y41763D03*
X771295Y41763D03*
X703580Y232209D03*
X647700Y340360D03*
X483640Y605050D03*
X314730Y621560D03*
X483640Y586000D03*
X300760Y621560D03*
X486180Y560600D03*
X284250Y621560D03*
X486180Y547900D03*
X269010Y621560D03*
X652780Y370840D03*
X776655Y644561D03*
X456547Y486182D03*
X586510Y488210D03*
X1177060Y641833D03*
X775824Y636503D03*
X457130Y492702D03*
X1181100Y586740D03*
X601377Y492393D03*
X476020Y424710D03*
X510540Y629920D03*
X399820Y593620D03*
X399853Y545563D03*
X407735Y593620D03*
X407643Y545393D03*
X415525Y593620D03*
X414890Y545360D03*
X421443Y545393D03*
X422045Y594043D03*
X26863Y680615D03*
X26863Y478050D03*
X26863Y273580D03*
X152170Y34566D03*
X354100Y35243D03*
X558570Y35243D03*
X757960Y35243D03*
X964970Y35243D03*
M02*
