G04 EAGLE Gerber RS-274X export*
G75*
%MOMM*%
%FSLAX34Y34*%
%LPD*%
%INSilkscreen Top*%
%IPPOS*%
%AMOC8*
5,1,8,0,0,1.08239X$1,22.5*%
G01*
G04 Define Apertures*
%ADD10C,0.152400*%
%ADD11C,0.500000*%
%ADD12C,0.120000*%
%ADD13C,0.127000*%
G36*
X217331Y369527D02*
X215540Y369527D01*
X215540Y374728D01*
X210289Y374728D01*
X210289Y376532D01*
X215540Y376532D01*
X215540Y381734D01*
X217331Y381734D01*
X217331Y376532D01*
X222582Y376532D01*
X222582Y374728D01*
X217331Y374728D01*
X217331Y369527D01*
G37*
G36*
X245768Y369416D02*
X243805Y369416D01*
X243805Y375550D01*
X245768Y375550D01*
X245768Y369416D01*
G37*
G36*
X93018Y74422D02*
X91909Y74422D01*
X95129Y82312D01*
X96344Y82312D01*
X99514Y74422D01*
X98422Y74422D01*
X97520Y76729D01*
X93925Y76729D01*
X93018Y74422D01*
G37*
%LPC*%
G36*
X97201Y77564D02*
X96187Y80168D01*
X96031Y80579D01*
X95874Y81041D01*
X95723Y81506D01*
X95672Y81349D01*
X95499Y80819D01*
X95258Y80156D01*
X94250Y77564D01*
X97201Y77564D01*
G37*
%LPD*%
G36*
X103269Y75430D02*
X102446Y75430D01*
X102446Y77827D01*
X100072Y77827D01*
X100072Y78644D01*
X102446Y78644D01*
X102446Y81041D01*
X103269Y81041D01*
X103269Y78644D01*
X105644Y78644D01*
X105644Y77827D01*
X103269Y77827D01*
X103269Y75430D01*
G37*
G36*
X119857Y73152D02*
X118748Y73152D01*
X121968Y81042D01*
X123183Y81042D01*
X126353Y73152D01*
X125261Y73152D01*
X124359Y75459D01*
X120764Y75459D01*
X119857Y73152D01*
G37*
%LPC*%
G36*
X124040Y76294D02*
X123027Y78898D01*
X122870Y79309D01*
X122713Y79771D01*
X122562Y80236D01*
X122511Y80079D01*
X122338Y79549D01*
X122097Y78886D01*
X121089Y76294D01*
X124040Y76294D01*
G37*
%LPD*%
G36*
X129660Y75750D02*
X126860Y75750D01*
X126860Y76646D01*
X129660Y76646D01*
X129660Y75750D01*
G37*
G36*
X153411Y73152D02*
X150460Y73152D01*
X150460Y81042D01*
X153070Y81042D01*
X153556Y81027D01*
X154015Y80980D01*
X154444Y80901D01*
X154845Y80791D01*
X155218Y80650D01*
X155562Y80477D01*
X155877Y80273D01*
X156164Y80037D01*
X156419Y79773D01*
X156640Y79482D01*
X156827Y79164D01*
X156980Y78820D01*
X157100Y78449D01*
X157185Y78052D01*
X157236Y77629D01*
X157253Y77178D01*
X157245Y76878D01*
X157223Y76587D01*
X157186Y76306D01*
X157134Y76034D01*
X157067Y75772D01*
X156985Y75519D01*
X156888Y75276D01*
X156777Y75042D01*
X156652Y74820D01*
X156514Y74611D01*
X156364Y74416D01*
X156201Y74233D01*
X156026Y74065D01*
X155839Y73910D01*
X155639Y73768D01*
X155427Y73639D01*
X155205Y73525D01*
X154974Y73426D01*
X154734Y73342D01*
X154486Y73274D01*
X154230Y73221D01*
X153966Y73182D01*
X153693Y73160D01*
X153411Y73152D01*
G37*
%LPC*%
G36*
X153288Y74009D02*
X153709Y74033D01*
X154103Y74104D01*
X154472Y74223D01*
X154814Y74390D01*
X155124Y74601D01*
X155396Y74854D01*
X155629Y75150D01*
X155825Y75487D01*
X155979Y75862D01*
X156089Y76268D01*
X156156Y76707D01*
X156178Y77178D01*
X156165Y77534D01*
X156127Y77868D01*
X156065Y78181D01*
X155977Y78471D01*
X155864Y78740D01*
X155726Y78987D01*
X155562Y79212D01*
X155374Y79416D01*
X155162Y79596D01*
X154927Y79752D01*
X154670Y79885D01*
X154390Y79993D01*
X154088Y80077D01*
X153764Y80137D01*
X153417Y80174D01*
X153047Y80186D01*
X151530Y80186D01*
X151530Y74009D01*
X153288Y74009D01*
G37*
%LPD*%
G36*
X145758Y73040D02*
X145407Y73048D01*
X145075Y73071D01*
X144762Y73111D01*
X144468Y73165D01*
X144192Y73236D01*
X143936Y73322D01*
X143699Y73424D01*
X143480Y73541D01*
X143281Y73674D01*
X143100Y73823D01*
X142939Y73988D01*
X142796Y74168D01*
X142672Y74363D01*
X142568Y74575D01*
X142482Y74802D01*
X142415Y75045D01*
X143451Y75252D01*
X143502Y75080D01*
X143566Y74920D01*
X143642Y74772D01*
X143731Y74635D01*
X143832Y74511D01*
X143947Y74398D01*
X144073Y74297D01*
X144213Y74208D01*
X144530Y74062D01*
X144900Y73958D01*
X145322Y73895D01*
X145797Y73874D01*
X146286Y73897D01*
X146715Y73963D01*
X146908Y74013D01*
X147085Y74074D01*
X147248Y74147D01*
X147396Y74230D01*
X147528Y74324D01*
X147642Y74429D01*
X147739Y74544D01*
X147818Y74669D01*
X147880Y74805D01*
X147924Y74951D01*
X147950Y75107D01*
X147959Y75274D01*
X147948Y75458D01*
X147915Y75624D01*
X147860Y75772D01*
X147783Y75902D01*
X147685Y76017D01*
X147570Y76121D01*
X147438Y76216D01*
X147287Y76299D01*
X146937Y76443D01*
X146525Y76562D01*
X145545Y76792D01*
X144723Y76999D01*
X144396Y77103D01*
X144126Y77206D01*
X143896Y77313D01*
X143692Y77425D01*
X143514Y77544D01*
X143361Y77668D01*
X143230Y77801D01*
X143114Y77945D01*
X143015Y78099D01*
X142933Y78265D01*
X142868Y78442D01*
X142822Y78632D01*
X142794Y78834D01*
X142785Y79049D01*
X142797Y79295D01*
X142833Y79527D01*
X142894Y79744D01*
X142978Y79946D01*
X143088Y80134D01*
X143221Y80308D01*
X143378Y80467D01*
X143560Y80611D01*
X143765Y80740D01*
X143990Y80851D01*
X144236Y80946D01*
X144503Y81023D01*
X144791Y81083D01*
X145100Y81126D01*
X145430Y81151D01*
X145781Y81160D01*
X146107Y81154D01*
X146413Y81134D01*
X146700Y81102D01*
X146966Y81057D01*
X147213Y80999D01*
X147441Y80928D01*
X147648Y80845D01*
X147836Y80748D01*
X148007Y80636D01*
X148165Y80506D01*
X148309Y80358D01*
X148441Y80192D01*
X148559Y80007D01*
X148663Y79805D01*
X148755Y79584D01*
X148833Y79346D01*
X147780Y79161D01*
X147673Y79453D01*
X147528Y79702D01*
X147343Y79908D01*
X147119Y80071D01*
X146852Y80194D01*
X146538Y80283D01*
X146177Y80336D01*
X145769Y80354D01*
X145324Y80334D01*
X144935Y80275D01*
X144602Y80177D01*
X144325Y80040D01*
X144208Y79957D01*
X144107Y79864D01*
X144021Y79761D01*
X143951Y79649D01*
X143896Y79528D01*
X143857Y79396D01*
X143834Y79255D01*
X143826Y79105D01*
X143838Y78931D01*
X143874Y78772D01*
X143935Y78630D01*
X144019Y78503D01*
X144127Y78388D01*
X144255Y78283D01*
X144405Y78187D01*
X144577Y78100D01*
X144804Y78012D01*
X145121Y77915D01*
X146027Y77694D01*
X146752Y77523D01*
X147106Y77428D01*
X147444Y77316D01*
X147764Y77185D01*
X148063Y77033D01*
X148332Y76852D01*
X148564Y76635D01*
X148753Y76379D01*
X148897Y76081D01*
X148950Y75914D01*
X148987Y75734D01*
X149010Y75539D01*
X149017Y75330D01*
X149004Y75065D01*
X148964Y74815D01*
X148897Y74581D01*
X148804Y74362D01*
X148684Y74158D01*
X148537Y73970D01*
X148364Y73797D01*
X148163Y73639D01*
X147939Y73499D01*
X147693Y73377D01*
X147425Y73274D01*
X147135Y73190D01*
X146824Y73124D01*
X146490Y73077D01*
X146135Y73049D01*
X145758Y73040D01*
G37*
G36*
X172142Y73040D02*
X171873Y73048D01*
X171617Y73070D01*
X171374Y73108D01*
X171145Y73160D01*
X170929Y73228D01*
X170727Y73311D01*
X170537Y73409D01*
X170361Y73522D01*
X170200Y73649D01*
X170054Y73789D01*
X169923Y73943D01*
X169808Y74111D01*
X169709Y74292D01*
X169625Y74487D01*
X169557Y74695D01*
X169504Y74916D01*
X170524Y75034D01*
X170619Y74759D01*
X170746Y74522D01*
X170904Y74320D01*
X171093Y74156D01*
X171314Y74028D01*
X171566Y73936D01*
X171850Y73881D01*
X172164Y73863D01*
X172362Y73871D01*
X172548Y73894D01*
X172724Y73932D01*
X172888Y73986D01*
X173042Y74055D01*
X173184Y74139D01*
X173315Y74238D01*
X173436Y74353D01*
X173543Y74481D01*
X173636Y74621D01*
X173715Y74772D01*
X173780Y74935D01*
X173830Y75109D01*
X173866Y75295D01*
X173888Y75492D01*
X173895Y75700D01*
X173888Y75882D01*
X173866Y76055D01*
X173830Y76218D01*
X173779Y76373D01*
X173714Y76519D01*
X173635Y76657D01*
X173541Y76785D01*
X173433Y76904D01*
X173312Y77012D01*
X173182Y77105D01*
X173041Y77184D01*
X172890Y77248D01*
X172730Y77299D01*
X172559Y77334D01*
X172378Y77356D01*
X172187Y77363D01*
X171986Y77355D01*
X171792Y77331D01*
X171605Y77291D01*
X171425Y77234D01*
X171249Y77159D01*
X171072Y77061D01*
X170896Y76940D01*
X170720Y76798D01*
X169734Y76798D01*
X169997Y81042D01*
X174483Y81042D01*
X174483Y80186D01*
X170916Y80186D01*
X170764Y77682D01*
X170933Y77801D01*
X171112Y77903D01*
X171301Y77990D01*
X171499Y78060D01*
X171708Y78116D01*
X171927Y78155D01*
X172155Y78179D01*
X172394Y78186D01*
X172678Y78176D01*
X172947Y78144D01*
X173201Y78090D01*
X173440Y78016D01*
X173665Y77920D01*
X173875Y77802D01*
X174070Y77663D01*
X174250Y77503D01*
X174412Y77326D01*
X174553Y77136D01*
X174672Y76933D01*
X174769Y76716D01*
X174845Y76487D01*
X174899Y76245D01*
X174931Y75990D01*
X174942Y75722D01*
X174930Y75419D01*
X174896Y75131D01*
X174838Y74861D01*
X174756Y74607D01*
X174652Y74369D01*
X174525Y74148D01*
X174374Y73944D01*
X174200Y73757D01*
X174006Y73589D01*
X173793Y73443D01*
X173563Y73320D01*
X173315Y73219D01*
X173048Y73141D01*
X172764Y73085D01*
X172462Y73051D01*
X172142Y73040D01*
G37*
G36*
X179799Y73152D02*
X178691Y73152D01*
X175471Y81042D01*
X176596Y81042D01*
X178780Y75487D01*
X179251Y74093D01*
X179721Y75487D01*
X181894Y81042D01*
X183019Y81042D01*
X179799Y73152D01*
G37*
G36*
X166115Y74160D02*
X165292Y74160D01*
X165292Y76557D01*
X162918Y76557D01*
X162918Y77374D01*
X165292Y77374D01*
X165292Y79771D01*
X166115Y79771D01*
X166115Y77374D01*
X168490Y77374D01*
X168490Y76557D01*
X166115Y76557D01*
X166115Y74160D01*
G37*
G36*
X208997Y73152D02*
X206046Y73152D01*
X206046Y81042D01*
X208655Y81042D01*
X209142Y81027D01*
X209601Y80980D01*
X210030Y80901D01*
X210431Y80791D01*
X210804Y80650D01*
X211148Y80477D01*
X211463Y80273D01*
X211749Y80037D01*
X212005Y79773D01*
X212226Y79482D01*
X212413Y79164D01*
X212566Y78820D01*
X212685Y78449D01*
X212771Y78052D01*
X212822Y77629D01*
X212839Y77178D01*
X212831Y76878D01*
X212809Y76587D01*
X212772Y76306D01*
X212720Y76034D01*
X212653Y75772D01*
X212571Y75519D01*
X212474Y75276D01*
X212363Y75042D01*
X212237Y74820D01*
X212100Y74611D01*
X211950Y74416D01*
X211787Y74233D01*
X211612Y74065D01*
X211425Y73910D01*
X211225Y73768D01*
X211013Y73639D01*
X210790Y73525D01*
X210559Y73426D01*
X210320Y73342D01*
X210072Y73274D01*
X209816Y73221D01*
X209551Y73182D01*
X209278Y73160D01*
X208997Y73152D01*
G37*
%LPC*%
G36*
X208874Y74009D02*
X209295Y74033D01*
X209689Y74104D01*
X210058Y74223D01*
X210400Y74390D01*
X210710Y74601D01*
X210982Y74854D01*
X211215Y75150D01*
X211411Y75487D01*
X211565Y75862D01*
X211675Y76268D01*
X211741Y76707D01*
X211763Y77178D01*
X211751Y77534D01*
X211713Y77868D01*
X211650Y78181D01*
X211563Y78471D01*
X211450Y78740D01*
X211311Y78987D01*
X211148Y79212D01*
X210960Y79416D01*
X210748Y79596D01*
X210513Y79752D01*
X210256Y79885D01*
X209976Y79993D01*
X209674Y80077D01*
X209350Y80137D01*
X209003Y80174D01*
X208633Y80186D01*
X207115Y80186D01*
X207115Y74009D01*
X208874Y74009D01*
G37*
%LPD*%
G36*
X198717Y73152D02*
X197765Y73152D01*
X197765Y81042D01*
X199008Y81042D01*
X203275Y74278D01*
X203225Y75224D01*
X203208Y75868D01*
X203208Y81042D01*
X204171Y81042D01*
X204171Y73152D01*
X202883Y73152D01*
X198661Y79872D01*
X198689Y79329D01*
X198717Y78394D01*
X198717Y73152D01*
G37*
G36*
X192470Y73040D02*
X192166Y73048D01*
X191873Y73071D01*
X191590Y73109D01*
X191318Y73163D01*
X191057Y73232D01*
X190806Y73317D01*
X190566Y73417D01*
X190337Y73533D01*
X190119Y73663D01*
X189915Y73806D01*
X189724Y73963D01*
X189546Y74134D01*
X189382Y74318D01*
X189231Y74516D01*
X189092Y74727D01*
X188968Y74952D01*
X188857Y75189D01*
X188761Y75436D01*
X188679Y75694D01*
X188613Y75961D01*
X188561Y76239D01*
X188524Y76527D01*
X188502Y76825D01*
X188494Y77134D01*
X188510Y77600D01*
X188559Y78040D01*
X188639Y78452D01*
X188752Y78837D01*
X188897Y79196D01*
X189074Y79527D01*
X189283Y79830D01*
X189525Y80107D01*
X189795Y80354D01*
X190092Y80568D01*
X190415Y80749D01*
X190764Y80897D01*
X191139Y81012D01*
X191540Y81094D01*
X191967Y81144D01*
X192420Y81160D01*
X192740Y81153D01*
X193044Y81132D01*
X193333Y81098D01*
X193607Y81049D01*
X193865Y80987D01*
X194108Y80911D01*
X194336Y80821D01*
X194548Y80718D01*
X194747Y80599D01*
X194933Y80463D01*
X195108Y80311D01*
X195272Y80142D01*
X195423Y79957D01*
X195563Y79755D01*
X195691Y79536D01*
X195808Y79301D01*
X194789Y78998D01*
X194605Y79312D01*
X194389Y79579D01*
X194141Y79802D01*
X193862Y79978D01*
X193549Y80113D01*
X193199Y80209D01*
X192814Y80267D01*
X192392Y80286D01*
X192060Y80273D01*
X191749Y80235D01*
X191458Y80170D01*
X191187Y80080D01*
X190936Y79964D01*
X190705Y79822D01*
X190494Y79654D01*
X190303Y79460D01*
X190134Y79243D01*
X189987Y79005D01*
X189863Y78746D01*
X189761Y78466D01*
X189682Y78164D01*
X189626Y77842D01*
X189592Y77498D01*
X189581Y77134D01*
X189593Y76770D01*
X189629Y76425D01*
X189689Y76101D01*
X189773Y75796D01*
X189880Y75511D01*
X190012Y75245D01*
X190168Y74999D01*
X190348Y74773D01*
X190549Y74570D01*
X190768Y74395D01*
X191006Y74246D01*
X191262Y74124D01*
X191537Y74030D01*
X191830Y73962D01*
X192141Y73922D01*
X192470Y73908D01*
X192850Y73923D01*
X193217Y73967D01*
X193571Y74040D01*
X193912Y74143D01*
X194231Y74271D01*
X194518Y74420D01*
X194773Y74590D01*
X194996Y74782D01*
X194996Y76204D01*
X192638Y76204D01*
X192638Y77100D01*
X195982Y77100D01*
X195982Y74378D01*
X195650Y74077D01*
X195284Y73812D01*
X194882Y73583D01*
X194444Y73390D01*
X193980Y73237D01*
X193496Y73128D01*
X192993Y73062D01*
X192470Y73040D01*
G37*
G36*
X229018Y385420D02*
X224402Y385420D01*
X224402Y397761D01*
X228484Y397761D01*
X228870Y397755D01*
X229245Y397736D01*
X229609Y397706D01*
X229962Y397663D01*
X230304Y397607D01*
X230634Y397540D01*
X230953Y397460D01*
X231261Y397368D01*
X231558Y397263D01*
X231844Y397147D01*
X232118Y397018D01*
X232382Y396876D01*
X232634Y396723D01*
X232875Y396557D01*
X233104Y396379D01*
X233323Y396189D01*
X233529Y395987D01*
X233722Y395775D01*
X233902Y395552D01*
X234068Y395320D01*
X234221Y395076D01*
X234361Y394823D01*
X234488Y394559D01*
X234601Y394285D01*
X234700Y394000D01*
X234787Y393705D01*
X234860Y393400D01*
X234920Y393084D01*
X234967Y392758D01*
X235000Y392421D01*
X235020Y392075D01*
X235027Y391717D01*
X235015Y391248D01*
X234980Y390793D01*
X234922Y390352D01*
X234840Y389927D01*
X234736Y389517D01*
X234608Y389122D01*
X234457Y388741D01*
X234282Y388376D01*
X234086Y388028D01*
X233871Y387702D01*
X233636Y387396D01*
X233382Y387111D01*
X233109Y386848D01*
X232816Y386605D01*
X232503Y386383D01*
X232171Y386182D01*
X231823Y386003D01*
X231462Y385849D01*
X231087Y385718D01*
X230700Y385610D01*
X230299Y385527D01*
X229885Y385468D01*
X229458Y385432D01*
X229018Y385420D01*
G37*
%LPC*%
G36*
X228825Y386760D02*
X229160Y386769D01*
X229484Y386797D01*
X229797Y386844D01*
X230101Y386909D01*
X230394Y386993D01*
X230677Y387095D01*
X230950Y387216D01*
X231212Y387356D01*
X231462Y387513D01*
X231697Y387686D01*
X231917Y387876D01*
X232122Y388083D01*
X232312Y388305D01*
X232487Y388545D01*
X232648Y388800D01*
X232793Y389072D01*
X232922Y389359D01*
X233034Y389658D01*
X233129Y389970D01*
X233207Y390294D01*
X233267Y390631D01*
X233310Y390981D01*
X233336Y391343D01*
X233345Y391717D01*
X233325Y392274D01*
X233266Y392797D01*
X233168Y393285D01*
X233031Y393740D01*
X232854Y394160D01*
X232638Y394546D01*
X232383Y394898D01*
X232088Y395216D01*
X231756Y395499D01*
X231389Y395743D01*
X230987Y395950D01*
X230550Y396120D01*
X230077Y396251D01*
X229570Y396345D01*
X229027Y396402D01*
X228449Y396421D01*
X226075Y396421D01*
X226075Y386760D01*
X228825Y386760D01*
G37*
%LPD*%
G36*
X222156Y385420D02*
X212434Y385420D01*
X212434Y397761D01*
X221797Y397761D01*
X221797Y396394D01*
X214107Y396394D01*
X214107Y392436D01*
X221271Y392436D01*
X221271Y391087D01*
X214107Y391087D01*
X214107Y386786D01*
X222156Y386786D01*
X222156Y385420D01*
G37*
G36*
X210374Y385420D02*
X202465Y385420D01*
X202465Y397761D01*
X204138Y397761D01*
X204138Y386786D01*
X210374Y386786D01*
X210374Y385420D01*
G37*
G36*
X286702Y276860D02*
X285029Y276860D01*
X285029Y289201D01*
X286702Y289201D01*
X286702Y283017D01*
X292649Y289201D01*
X294620Y289201D01*
X289365Y283841D01*
X295321Y276860D01*
X293245Y276860D01*
X288314Y282816D01*
X286702Y281590D01*
X286702Y276860D01*
G37*
G36*
X277517Y276685D02*
X277059Y276697D01*
X276616Y276733D01*
X276189Y276794D01*
X275778Y276879D01*
X275382Y276988D01*
X275002Y277121D01*
X274638Y277278D01*
X274290Y277460D01*
X273959Y277664D01*
X273649Y277889D01*
X273359Y278135D01*
X273090Y278402D01*
X272841Y278689D01*
X272611Y278997D01*
X272403Y279326D01*
X272214Y279676D01*
X272047Y280044D01*
X271902Y280429D01*
X271779Y280831D01*
X271679Y281249D01*
X271601Y281684D01*
X271545Y282135D01*
X271511Y282603D01*
X271500Y283087D01*
X271506Y283451D01*
X271525Y283805D01*
X271556Y284149D01*
X271600Y284483D01*
X271656Y284807D01*
X271724Y285121D01*
X271805Y285425D01*
X271899Y285719D01*
X272005Y286003D01*
X272123Y286277D01*
X272397Y286795D01*
X272721Y287274D01*
X273094Y287712D01*
X273512Y288104D01*
X273968Y288444D01*
X274210Y288594D01*
X274462Y288731D01*
X274724Y288855D01*
X274995Y288966D01*
X275276Y289065D01*
X275566Y289149D01*
X275866Y289221D01*
X276175Y289280D01*
X276494Y289326D01*
X276823Y289359D01*
X277161Y289378D01*
X277509Y289385D01*
X277991Y289373D01*
X278453Y289337D01*
X278895Y289276D01*
X279317Y289192D01*
X279719Y289084D01*
X280100Y288951D01*
X280461Y288795D01*
X280802Y288614D01*
X281121Y288410D01*
X281419Y288182D01*
X281695Y287931D01*
X281949Y287657D01*
X282181Y287360D01*
X282391Y287039D01*
X282580Y286695D01*
X282746Y286328D01*
X281161Y285802D01*
X281045Y286064D01*
X280914Y286309D01*
X280766Y286539D01*
X280601Y286753D01*
X280421Y286951D01*
X280224Y287133D01*
X280011Y287299D01*
X279781Y287449D01*
X279538Y287583D01*
X279284Y287698D01*
X279019Y287796D01*
X278742Y287876D01*
X278455Y287938D01*
X278156Y287983D01*
X277847Y288009D01*
X277526Y288018D01*
X277028Y287998D01*
X276558Y287936D01*
X276117Y287833D01*
X275704Y287689D01*
X275320Y287503D01*
X274964Y287277D01*
X274637Y287009D01*
X274338Y286700D01*
X274071Y286355D01*
X273840Y285980D01*
X273644Y285574D01*
X273484Y285138D01*
X273359Y284671D01*
X273270Y284174D01*
X273217Y283646D01*
X273199Y283087D01*
X273218Y282534D01*
X273274Y282009D01*
X273366Y281511D01*
X273496Y281041D01*
X273663Y280599D01*
X273867Y280185D01*
X274108Y279798D01*
X274386Y279439D01*
X274696Y279116D01*
X275032Y278836D01*
X275394Y278599D01*
X275782Y278405D01*
X276196Y278254D01*
X276637Y278146D01*
X277103Y278081D01*
X277596Y278060D01*
X277915Y278070D01*
X278224Y278100D01*
X278523Y278150D01*
X278812Y278220D01*
X279091Y278311D01*
X279359Y278421D01*
X279618Y278551D01*
X279867Y278701D01*
X280105Y278872D01*
X280334Y279062D01*
X280552Y279273D01*
X280761Y279503D01*
X280959Y279754D01*
X281147Y280025D01*
X281326Y280315D01*
X281494Y280626D01*
X282860Y279943D01*
X282660Y279556D01*
X282440Y279194D01*
X282202Y278855D01*
X281944Y278539D01*
X281666Y278248D01*
X281370Y277981D01*
X281054Y277737D01*
X280719Y277517D01*
X280367Y277322D01*
X280001Y277153D01*
X279622Y277010D01*
X279228Y276893D01*
X278821Y276802D01*
X278401Y276737D01*
X277966Y276698D01*
X277517Y276685D01*
G37*
G36*
X265032Y276860D02*
X257123Y276860D01*
X257123Y289201D01*
X258796Y289201D01*
X258796Y278226D01*
X265032Y278226D01*
X265032Y276860D01*
G37*
G36*
X268949Y276860D02*
X267276Y276860D01*
X267276Y289201D01*
X268949Y289201D01*
X268949Y276860D01*
G37*
G36*
X121842Y119763D02*
X120169Y119763D01*
X120169Y132104D01*
X125363Y132104D01*
X125867Y132089D01*
X126343Y132043D01*
X126788Y131967D01*
X127205Y131861D01*
X127592Y131724D01*
X127950Y131557D01*
X128278Y131359D01*
X128578Y131132D01*
X128844Y130876D01*
X129076Y130596D01*
X129271Y130290D01*
X129432Y129960D01*
X129556Y129605D01*
X129645Y129225D01*
X129698Y128820D01*
X129716Y128390D01*
X129698Y127963D01*
X129645Y127559D01*
X129555Y127177D01*
X129430Y126818D01*
X129270Y126481D01*
X129073Y126167D01*
X128841Y125874D01*
X128573Y125605D01*
X128275Y125363D01*
X127951Y125153D01*
X127601Y124975D01*
X127225Y124830D01*
X126825Y124717D01*
X126398Y124636D01*
X125946Y124588D01*
X125468Y124571D01*
X121842Y124571D01*
X121842Y119763D01*
G37*
%LPC*%
G36*
X125232Y125894D02*
X125571Y125904D01*
X125889Y125933D01*
X126184Y125981D01*
X126458Y126049D01*
X126710Y126136D01*
X126940Y126242D01*
X127148Y126368D01*
X127334Y126514D01*
X127498Y126678D01*
X127640Y126862D01*
X127761Y127065D01*
X127859Y127288D01*
X127936Y127530D01*
X127991Y127792D01*
X128024Y128072D01*
X128035Y128373D01*
X128023Y128662D01*
X127990Y128933D01*
X127934Y129185D01*
X127855Y129419D01*
X127754Y129634D01*
X127631Y129830D01*
X127485Y130007D01*
X127316Y130166D01*
X127126Y130306D01*
X126912Y130427D01*
X126677Y130530D01*
X126419Y130614D01*
X126138Y130680D01*
X125835Y130726D01*
X125510Y130754D01*
X125162Y130764D01*
X121842Y130764D01*
X121842Y125894D01*
X125232Y125894D01*
G37*
%LPD*%
G36*
X106721Y119763D02*
X105232Y119763D01*
X105232Y132104D01*
X107430Y132104D01*
X110715Y123547D01*
X110887Y123011D01*
X111052Y122439D01*
X111267Y121585D01*
X111375Y122026D01*
X111560Y122649D01*
X111747Y123230D01*
X111862Y123547D01*
X115085Y132104D01*
X117231Y132104D01*
X117231Y119763D01*
X115725Y119763D01*
X115725Y127996D01*
X115744Y129336D01*
X115803Y130624D01*
X115396Y129227D01*
X115209Y128656D01*
X115033Y128171D01*
X111845Y119763D01*
X110671Y119763D01*
X107439Y128171D01*
X106949Y129660D01*
X106660Y130624D01*
X106686Y129651D01*
X106721Y127996D01*
X106721Y119763D01*
G37*
G36*
X93592Y119763D02*
X91858Y119763D01*
X96894Y132104D01*
X98795Y132104D01*
X103752Y119763D01*
X102044Y119763D01*
X100634Y123371D01*
X95011Y123371D01*
X93592Y119763D01*
G37*
%LPC*%
G36*
X100135Y124676D02*
X98550Y128749D01*
X98304Y129393D01*
X98059Y130116D01*
X97823Y130842D01*
X97744Y130597D01*
X97472Y129767D01*
X97096Y128732D01*
X95519Y124676D01*
X100135Y124676D01*
G37*
%LPD*%
G36*
X89570Y381000D02*
X87897Y381000D01*
X87897Y393341D01*
X93704Y393341D01*
X94210Y393326D01*
X94687Y393282D01*
X95134Y393210D01*
X95551Y393108D01*
X95938Y392976D01*
X96296Y392816D01*
X96624Y392627D01*
X96923Y392408D01*
X97188Y392163D01*
X97419Y391896D01*
X97614Y391606D01*
X97773Y391292D01*
X97897Y390956D01*
X97986Y390597D01*
X98039Y390216D01*
X98057Y389811D01*
X98044Y389474D01*
X98007Y389151D01*
X97944Y388841D01*
X97856Y388545D01*
X97744Y388263D01*
X97606Y387995D01*
X97443Y387740D01*
X97255Y387499D01*
X97045Y387275D01*
X96817Y387074D01*
X96569Y386893D01*
X96458Y386827D01*
X96302Y386735D01*
X96016Y386598D01*
X95711Y386482D01*
X95387Y386389D01*
X95044Y386316D01*
X96535Y384053D01*
X98547Y381000D01*
X96620Y381000D01*
X93415Y386124D01*
X89570Y386124D01*
X89570Y381000D01*
G37*
%LPC*%
G36*
X93607Y387446D02*
X93929Y387456D01*
X94231Y387485D01*
X94515Y387533D01*
X94780Y387601D01*
X95026Y387687D01*
X95254Y387794D01*
X95463Y387919D01*
X95653Y388064D01*
X95822Y388226D01*
X95969Y388403D01*
X96093Y388596D01*
X96194Y388805D01*
X96274Y389029D01*
X96330Y389268D01*
X96364Y389523D01*
X96375Y389794D01*
X96364Y390055D01*
X96329Y390300D01*
X96272Y390530D01*
X96192Y390743D01*
X96089Y390940D01*
X95964Y391121D01*
X95815Y391287D01*
X95644Y391436D01*
X95451Y391568D01*
X95238Y391683D01*
X95005Y391780D01*
X94751Y391860D01*
X94478Y391921D01*
X94185Y391965D01*
X93871Y391992D01*
X93537Y392001D01*
X89570Y392001D01*
X89570Y387446D01*
X93607Y387446D01*
G37*
%LPD*%
G36*
X107079Y381000D02*
X105590Y381000D01*
X105590Y383794D01*
X99775Y383794D01*
X99775Y385020D01*
X105424Y393341D01*
X107079Y393341D01*
X107079Y385038D01*
X108813Y385038D01*
X108813Y383794D01*
X107079Y383794D01*
X107079Y381000D01*
G37*
%LPC*%
G36*
X105590Y385038D02*
X105590Y391563D01*
X105345Y391099D01*
X105003Y390521D01*
X101842Y385861D01*
X101369Y385213D01*
X101228Y385038D01*
X105590Y385038D01*
G37*
%LPD*%
G36*
X255840Y109609D02*
X254167Y109609D01*
X254167Y121950D01*
X259974Y121950D01*
X260480Y121935D01*
X260957Y121891D01*
X261404Y121819D01*
X261821Y121717D01*
X262208Y121585D01*
X262566Y121425D01*
X262894Y121236D01*
X263193Y121017D01*
X263458Y120772D01*
X263689Y120505D01*
X263884Y120215D01*
X264043Y119901D01*
X264167Y119565D01*
X264256Y119206D01*
X264309Y118825D01*
X264327Y118420D01*
X264314Y118083D01*
X264277Y117760D01*
X264214Y117450D01*
X264126Y117154D01*
X264014Y116872D01*
X263876Y116604D01*
X263713Y116349D01*
X263525Y116108D01*
X263315Y115884D01*
X263087Y115683D01*
X262839Y115502D01*
X262728Y115436D01*
X262572Y115344D01*
X262286Y115207D01*
X261981Y115091D01*
X261657Y114998D01*
X261314Y114925D01*
X262805Y112662D01*
X264817Y109609D01*
X262890Y109609D01*
X259685Y114733D01*
X255840Y114733D01*
X255840Y109609D01*
G37*
%LPC*%
G36*
X259877Y116055D02*
X260199Y116065D01*
X260501Y116094D01*
X260785Y116142D01*
X261050Y116210D01*
X261296Y116296D01*
X261524Y116403D01*
X261733Y116528D01*
X261923Y116673D01*
X262092Y116835D01*
X262239Y117012D01*
X262363Y117205D01*
X262464Y117414D01*
X262544Y117638D01*
X262600Y117877D01*
X262634Y118132D01*
X262645Y118403D01*
X262634Y118664D01*
X262599Y118909D01*
X262542Y119139D01*
X262462Y119352D01*
X262359Y119549D01*
X262234Y119730D01*
X262085Y119896D01*
X261914Y120045D01*
X261721Y120177D01*
X261508Y120292D01*
X261275Y120389D01*
X261021Y120469D01*
X260748Y120530D01*
X260455Y120574D01*
X260141Y120601D01*
X259807Y120610D01*
X255840Y120610D01*
X255840Y116055D01*
X259877Y116055D01*
G37*
%LPD*%
G36*
X274733Y109609D02*
X266999Y109609D01*
X266999Y110949D01*
X270144Y110949D01*
X270144Y120443D01*
X267358Y118455D01*
X267358Y119944D01*
X270275Y121950D01*
X271729Y121950D01*
X271729Y110949D01*
X274733Y110949D01*
X274733Y109609D01*
G37*
G36*
X254570Y76589D02*
X252897Y76589D01*
X252897Y88930D01*
X258704Y88930D01*
X259210Y88915D01*
X259687Y88871D01*
X260134Y88799D01*
X260551Y88697D01*
X260938Y88565D01*
X261296Y88405D01*
X261624Y88216D01*
X261923Y87997D01*
X262188Y87752D01*
X262419Y87485D01*
X262614Y87195D01*
X262773Y86881D01*
X262897Y86545D01*
X262986Y86186D01*
X263039Y85805D01*
X263057Y85400D01*
X263044Y85063D01*
X263007Y84740D01*
X262944Y84430D01*
X262856Y84134D01*
X262744Y83852D01*
X262606Y83584D01*
X262443Y83329D01*
X262255Y83088D01*
X262045Y82864D01*
X261817Y82663D01*
X261569Y82482D01*
X261458Y82416D01*
X261302Y82324D01*
X261016Y82187D01*
X260711Y82071D01*
X260387Y81978D01*
X260044Y81905D01*
X261535Y79642D01*
X263547Y76589D01*
X261620Y76589D01*
X258415Y81713D01*
X254570Y81713D01*
X254570Y76589D01*
G37*
%LPC*%
G36*
X258607Y83035D02*
X258929Y83045D01*
X259231Y83074D01*
X259515Y83122D01*
X259780Y83190D01*
X260026Y83276D01*
X260254Y83383D01*
X260463Y83508D01*
X260653Y83653D01*
X260822Y83815D01*
X260969Y83992D01*
X261093Y84185D01*
X261194Y84394D01*
X261274Y84618D01*
X261330Y84857D01*
X261364Y85112D01*
X261375Y85383D01*
X261364Y85644D01*
X261329Y85889D01*
X261272Y86119D01*
X261192Y86332D01*
X261089Y86529D01*
X260964Y86710D01*
X260815Y86876D01*
X260644Y87025D01*
X260451Y87157D01*
X260238Y87272D01*
X260005Y87369D01*
X259751Y87449D01*
X259478Y87510D01*
X259185Y87554D01*
X258871Y87581D01*
X258537Y87590D01*
X254570Y87590D01*
X254570Y83035D01*
X258607Y83035D01*
G37*
%LPD*%
G36*
X273437Y76589D02*
X265265Y76589D01*
X265265Y77701D01*
X265501Y78199D01*
X265761Y78666D01*
X266046Y79103D01*
X266355Y79510D01*
X266681Y79893D01*
X267016Y80257D01*
X267358Y80602D01*
X267709Y80929D01*
X268415Y81541D01*
X269114Y82107D01*
X269777Y82650D01*
X270371Y83193D01*
X270638Y83468D01*
X270878Y83749D01*
X271091Y84037D01*
X271278Y84332D01*
X271429Y84639D01*
X271537Y84967D01*
X271602Y85314D01*
X271624Y85680D01*
X271614Y85927D01*
X271587Y86160D01*
X271540Y86378D01*
X271475Y86582D01*
X271391Y86772D01*
X271289Y86948D01*
X271168Y87110D01*
X271028Y87257D01*
X270872Y87388D01*
X270701Y87502D01*
X270516Y87598D01*
X270317Y87677D01*
X270102Y87739D01*
X269874Y87782D01*
X269630Y87809D01*
X269373Y87817D01*
X269127Y87809D01*
X268891Y87783D01*
X268667Y87740D01*
X268454Y87681D01*
X268252Y87604D01*
X268061Y87510D01*
X267882Y87398D01*
X267713Y87270D01*
X267558Y87126D01*
X267420Y86969D01*
X267299Y86797D01*
X267195Y86612D01*
X267108Y86413D01*
X267037Y86200D01*
X266984Y85973D01*
X266947Y85733D01*
X265335Y85882D01*
X265393Y86242D01*
X265479Y86584D01*
X265594Y86907D01*
X265737Y87211D01*
X265908Y87496D01*
X266108Y87762D01*
X266336Y88009D01*
X266592Y88238D01*
X266872Y88443D01*
X267171Y88621D01*
X267490Y88772D01*
X267828Y88895D01*
X268185Y88991D01*
X268562Y89059D01*
X268958Y89100D01*
X269373Y89114D01*
X269826Y89100D01*
X270252Y89059D01*
X270651Y88990D01*
X271023Y88894D01*
X271368Y88770D01*
X271686Y88619D01*
X271977Y88440D01*
X272241Y88233D01*
X272476Y88002D01*
X272680Y87747D01*
X272852Y87469D01*
X272993Y87168D01*
X273103Y86844D01*
X273181Y86497D01*
X273228Y86126D01*
X273244Y85733D01*
X273224Y85374D01*
X273162Y85017D01*
X273059Y84661D01*
X272916Y84305D01*
X272731Y83951D01*
X272507Y83596D01*
X272243Y83241D01*
X271939Y82886D01*
X271541Y82483D01*
X270995Y81982D01*
X270302Y81384D01*
X269460Y80688D01*
X268982Y80286D01*
X268556Y79905D01*
X268181Y79544D01*
X267858Y79203D01*
X267581Y78876D01*
X267345Y78554D01*
X267151Y78239D01*
X266999Y77929D01*
X273437Y77929D01*
X273437Y76589D01*
G37*
G36*
X293940Y105799D02*
X292267Y105799D01*
X292267Y118140D01*
X298074Y118140D01*
X298580Y118125D01*
X299057Y118081D01*
X299504Y118009D01*
X299921Y117907D01*
X300308Y117775D01*
X300666Y117615D01*
X300994Y117426D01*
X301293Y117207D01*
X301558Y116962D01*
X301789Y116695D01*
X301984Y116405D01*
X302143Y116091D01*
X302267Y115755D01*
X302356Y115396D01*
X302409Y115015D01*
X302427Y114610D01*
X302414Y114273D01*
X302377Y113950D01*
X302314Y113640D01*
X302226Y113344D01*
X302114Y113062D01*
X301976Y112794D01*
X301813Y112539D01*
X301625Y112298D01*
X301415Y112074D01*
X301187Y111873D01*
X300939Y111692D01*
X300828Y111626D01*
X300672Y111534D01*
X300386Y111397D01*
X300081Y111281D01*
X299757Y111188D01*
X299414Y111115D01*
X300905Y108852D01*
X302917Y105799D01*
X300990Y105799D01*
X297785Y110923D01*
X293940Y110923D01*
X293940Y105799D01*
G37*
%LPC*%
G36*
X297977Y112245D02*
X298299Y112255D01*
X298601Y112284D01*
X298885Y112332D01*
X299150Y112400D01*
X299396Y112486D01*
X299624Y112593D01*
X299833Y112718D01*
X300023Y112863D01*
X300192Y113025D01*
X300339Y113202D01*
X300463Y113395D01*
X300564Y113604D01*
X300644Y113828D01*
X300700Y114067D01*
X300734Y114322D01*
X300745Y114593D01*
X300734Y114854D01*
X300699Y115099D01*
X300642Y115329D01*
X300562Y115542D01*
X300459Y115739D01*
X300334Y115920D01*
X300185Y116086D01*
X300014Y116235D01*
X299821Y116367D01*
X299608Y116482D01*
X299375Y116579D01*
X299121Y116659D01*
X298848Y116720D01*
X298555Y116764D01*
X298241Y116791D01*
X297907Y116800D01*
X293940Y116800D01*
X293940Y112245D01*
X297977Y112245D01*
G37*
%LPD*%
G36*
X308734Y105624D02*
X308277Y105637D01*
X307844Y105677D01*
X307435Y105743D01*
X307049Y105835D01*
X306687Y105954D01*
X306349Y106099D01*
X306034Y106271D01*
X305743Y106469D01*
X305478Y106693D01*
X305241Y106942D01*
X305033Y107217D01*
X304853Y107517D01*
X304701Y107842D01*
X304578Y108193D01*
X304483Y108568D01*
X304416Y108970D01*
X306045Y109118D01*
X306093Y108853D01*
X306156Y108605D01*
X306236Y108374D01*
X306331Y108161D01*
X306443Y107964D01*
X306571Y107784D01*
X306715Y107622D01*
X306875Y107476D01*
X307051Y107348D01*
X307243Y107237D01*
X307452Y107143D01*
X307676Y107066D01*
X307916Y107006D01*
X308173Y106963D01*
X308445Y106937D01*
X308734Y106929D01*
X309024Y106938D01*
X309298Y106966D01*
X309555Y107011D01*
X309797Y107076D01*
X310023Y107158D01*
X310233Y107259D01*
X310426Y107378D01*
X310604Y107516D01*
X310763Y107671D01*
X310901Y107845D01*
X311018Y108036D01*
X311113Y108245D01*
X311187Y108472D01*
X311240Y108716D01*
X311272Y108978D01*
X311283Y109259D01*
X311271Y109504D01*
X311234Y109735D01*
X311174Y109952D01*
X311089Y110155D01*
X310980Y110345D01*
X310847Y110521D01*
X310689Y110683D01*
X310508Y110831D01*
X310303Y110963D01*
X310077Y111078D01*
X309830Y111175D01*
X309561Y111254D01*
X309270Y111316D01*
X308958Y111360D01*
X308625Y111387D01*
X308270Y111396D01*
X307376Y111396D01*
X307376Y112762D01*
X308235Y112762D01*
X308550Y112771D01*
X308847Y112797D01*
X309125Y112841D01*
X309385Y112903D01*
X309628Y112983D01*
X309852Y113080D01*
X310057Y113195D01*
X310245Y113327D01*
X310412Y113475D01*
X310557Y113637D01*
X310680Y113812D01*
X310780Y114000D01*
X310858Y114202D01*
X310914Y114418D01*
X310948Y114648D01*
X310959Y114890D01*
X310950Y115131D01*
X310922Y115359D01*
X310877Y115574D01*
X310813Y115776D01*
X310731Y115965D01*
X310631Y116141D01*
X310513Y116304D01*
X310376Y116454D01*
X310222Y116588D01*
X310050Y116705D01*
X309860Y116803D01*
X309653Y116884D01*
X309428Y116947D01*
X309185Y116992D01*
X308924Y117018D01*
X308646Y117027D01*
X308392Y117019D01*
X308150Y116994D01*
X307921Y116952D01*
X307704Y116894D01*
X307499Y116819D01*
X307307Y116727D01*
X307128Y116618D01*
X306960Y116493D01*
X306808Y116353D01*
X306672Y116199D01*
X306553Y116031D01*
X306451Y115849D01*
X306366Y115654D01*
X306298Y115445D01*
X306246Y115223D01*
X306212Y114987D01*
X304626Y115109D01*
X304684Y115478D01*
X304771Y115825D01*
X304885Y116152D01*
X305028Y116458D01*
X305199Y116743D01*
X305399Y117008D01*
X305627Y117251D01*
X305883Y117474D01*
X306163Y117673D01*
X306463Y117846D01*
X306781Y117992D01*
X307119Y118111D01*
X307476Y118204D01*
X307853Y118271D01*
X308249Y118310D01*
X308664Y118324D01*
X309115Y118310D01*
X309541Y118270D01*
X309940Y118202D01*
X310314Y118108D01*
X310662Y117987D01*
X310984Y117838D01*
X311280Y117663D01*
X311550Y117461D01*
X311791Y117235D01*
X312000Y116987D01*
X312177Y116719D01*
X312322Y116429D01*
X312434Y116117D01*
X312515Y115785D01*
X312563Y115432D01*
X312579Y115057D01*
X312569Y114768D01*
X312538Y114493D01*
X312486Y114232D01*
X312414Y113985D01*
X312321Y113752D01*
X312207Y113532D01*
X312073Y113326D01*
X311918Y113134D01*
X311743Y112957D01*
X311550Y112794D01*
X311337Y112646D01*
X311107Y112514D01*
X310857Y112396D01*
X310588Y112293D01*
X310301Y112205D01*
X309995Y112131D01*
X309995Y112096D01*
X310332Y112049D01*
X310649Y111983D01*
X310947Y111896D01*
X311226Y111790D01*
X311486Y111664D01*
X311726Y111518D01*
X311948Y111353D01*
X312150Y111168D01*
X312331Y110967D01*
X312487Y110753D01*
X312620Y110527D01*
X312728Y110288D01*
X312812Y110036D01*
X312872Y109772D01*
X312909Y109495D01*
X312921Y109206D01*
X312904Y108791D01*
X312853Y108400D01*
X312768Y108034D01*
X312649Y107691D01*
X312496Y107372D01*
X312310Y107078D01*
X312089Y106807D01*
X311835Y106561D01*
X311549Y106341D01*
X311234Y106151D01*
X310889Y105990D01*
X310516Y105858D01*
X310114Y105756D01*
X309683Y105682D01*
X309223Y105639D01*
X308734Y105624D01*
G37*
D10*
X202190Y297470D02*
X202190Y365470D01*
X260090Y365470D01*
X260090Y297470D01*
X202190Y297470D01*
X310090Y274690D02*
X310090Y150690D01*
X252590Y150690D02*
X252590Y274690D01*
X310090Y274690D01*
X310090Y150690D02*
X252590Y150690D01*
X130685Y87505D02*
X117985Y87505D01*
X111635Y93855D01*
X111635Y106555D01*
X117985Y112905D01*
X156085Y87505D02*
X162435Y93855D01*
X156085Y87505D02*
X143385Y87505D01*
X137035Y93855D01*
X137035Y106555D01*
X143385Y112905D01*
X156085Y112905D01*
X162435Y106555D01*
X137035Y93855D02*
X130685Y87505D01*
X137035Y106555D02*
X130685Y112905D01*
X117985Y112905D01*
X194185Y87505D02*
X206885Y87505D01*
X194185Y87505D02*
X187835Y93855D01*
X187835Y106555D01*
X194185Y112905D01*
X187835Y93855D02*
X181485Y87505D01*
X168785Y87505D01*
X162435Y93855D01*
X162435Y106555D01*
X168785Y112905D01*
X181485Y112905D01*
X187835Y106555D01*
X213235Y106555D02*
X213235Y93855D01*
X206885Y87505D01*
X213235Y106555D02*
X206885Y112905D01*
X194185Y112905D01*
X105285Y87505D02*
X92585Y87505D01*
X86235Y93855D01*
X86235Y106555D01*
X92585Y112905D01*
X111635Y93855D02*
X105285Y87505D01*
X111635Y106555D02*
X105285Y112905D01*
X92585Y112905D01*
D11*
X195100Y330200D03*
D12*
X188700Y379450D02*
X90900Y379450D01*
X188700Y379450D02*
X188700Y276650D01*
X90900Y276650D01*
X90900Y379450D01*
D13*
X255660Y137549D02*
X272660Y137549D01*
X272660Y121531D02*
X255660Y121531D01*
X255660Y108339D02*
X272660Y108339D01*
X272660Y92321D02*
X255660Y92321D01*
X293760Y137549D02*
X310760Y137549D01*
X310760Y121531D02*
X293760Y121531D01*
M02*
