G04 EAGLE Gerber RS-274X export*
G75*
%MOMM*%
%FSLAX34Y34*%
%LPD*%
%INSilkscreen Bottom*%
%IPPOS*%
%AMOC8*
5,1,8,0,0,1.08239X$1,22.5*%
G01*
G04 Define Apertures*
%ADD10C,0.127000*%
%ADD11C,0.200000*%
G36*
X59271Y121705D02*
X51524Y121705D01*
X51524Y123047D01*
X54534Y123047D01*
X54534Y134067D01*
X55990Y134067D01*
X58912Y132058D01*
X58912Y130566D01*
X56122Y132558D01*
X56122Y123047D01*
X59271Y123047D01*
X59271Y121705D01*
G37*
G36*
X65599Y121529D02*
X65187Y121545D01*
X64798Y121593D01*
X64430Y121674D01*
X64086Y121787D01*
X63764Y121932D01*
X63464Y122109D01*
X63187Y122318D01*
X62932Y122560D01*
X62704Y122830D01*
X62506Y123123D01*
X62339Y123441D01*
X62202Y123783D01*
X62095Y124148D01*
X62019Y124538D01*
X61973Y124952D01*
X61958Y125389D01*
X61958Y134067D01*
X66003Y134067D01*
X66003Y132698D01*
X63625Y132698D01*
X63625Y125354D01*
X63633Y125061D01*
X63658Y124785D01*
X63699Y124528D01*
X63757Y124289D01*
X63831Y124069D01*
X63921Y123866D01*
X64028Y123682D01*
X64152Y123516D01*
X64289Y123369D01*
X64439Y123242D01*
X64601Y123134D01*
X64775Y123046D01*
X64960Y122977D01*
X65158Y122928D01*
X65368Y122899D01*
X65590Y122889D01*
X65794Y122898D01*
X65990Y122925D01*
X66176Y122969D01*
X66354Y123032D01*
X66523Y123112D01*
X66683Y123210D01*
X66834Y123326D01*
X66977Y123459D01*
X67109Y123609D01*
X67228Y123772D01*
X67336Y123950D01*
X67431Y124141D01*
X67513Y124347D01*
X67584Y124566D01*
X67642Y124800D01*
X67687Y125047D01*
X69328Y124775D01*
X69245Y124382D01*
X69141Y124014D01*
X69018Y123672D01*
X68875Y123355D01*
X68711Y123063D01*
X68528Y122797D01*
X68325Y122556D01*
X68102Y122341D01*
X67859Y122150D01*
X67596Y121986D01*
X67313Y121846D01*
X67010Y121732D01*
X66687Y121643D01*
X66345Y121580D01*
X65982Y121542D01*
X65599Y121529D01*
G37*
D10*
X52200Y309910D02*
X52200Y142210D01*
X239900Y142210D01*
X239900Y309910D01*
X52200Y309910D01*
D11*
X45990Y181610D02*
X45992Y181673D01*
X45998Y181735D01*
X46008Y181797D01*
X46021Y181859D01*
X46039Y181919D01*
X46060Y181978D01*
X46085Y182036D01*
X46114Y182092D01*
X46146Y182146D01*
X46181Y182198D01*
X46219Y182247D01*
X46261Y182295D01*
X46305Y182339D01*
X46353Y182381D01*
X46402Y182419D01*
X46454Y182454D01*
X46508Y182486D01*
X46564Y182515D01*
X46622Y182540D01*
X46681Y182561D01*
X46741Y182579D01*
X46803Y182592D01*
X46865Y182602D01*
X46927Y182608D01*
X46990Y182610D01*
X47053Y182608D01*
X47115Y182602D01*
X47177Y182592D01*
X47239Y182579D01*
X47299Y182561D01*
X47358Y182540D01*
X47416Y182515D01*
X47472Y182486D01*
X47526Y182454D01*
X47578Y182419D01*
X47627Y182381D01*
X47675Y182339D01*
X47719Y182295D01*
X47761Y182247D01*
X47799Y182198D01*
X47834Y182146D01*
X47866Y182092D01*
X47895Y182036D01*
X47920Y181978D01*
X47941Y181919D01*
X47959Y181859D01*
X47972Y181797D01*
X47982Y181735D01*
X47988Y181673D01*
X47990Y181610D01*
X47988Y181547D01*
X47982Y181485D01*
X47972Y181423D01*
X47959Y181361D01*
X47941Y181301D01*
X47920Y181242D01*
X47895Y181184D01*
X47866Y181128D01*
X47834Y181074D01*
X47799Y181022D01*
X47761Y180973D01*
X47719Y180925D01*
X47675Y180881D01*
X47627Y180839D01*
X47578Y180801D01*
X47526Y180766D01*
X47472Y180734D01*
X47416Y180705D01*
X47358Y180680D01*
X47299Y180659D01*
X47239Y180641D01*
X47177Y180628D01*
X47115Y180618D01*
X47053Y180612D01*
X46990Y180610D01*
X46927Y180612D01*
X46865Y180618D01*
X46803Y180628D01*
X46741Y180641D01*
X46681Y180659D01*
X46622Y180680D01*
X46564Y180705D01*
X46508Y180734D01*
X46454Y180766D01*
X46402Y180801D01*
X46353Y180839D01*
X46305Y180881D01*
X46261Y180925D01*
X46219Y180973D01*
X46181Y181022D01*
X46146Y181074D01*
X46114Y181128D01*
X46085Y181184D01*
X46060Y181242D01*
X46039Y181301D01*
X46021Y181361D01*
X46008Y181423D01*
X45998Y181485D01*
X45992Y181547D01*
X45990Y181610D01*
M02*
