G04 EAGLE Gerber RS-274X export*
G75*
%MOMM*%
%FSLAX34Y34*%
%LPD*%
%INBottom Copper*%
%IPPOS*%
%AMOC8*
5,1,8,0,0,1.08239X$1,22.5*%
G01*
G04 Define Apertures*
%ADD10R,1.500000X1.500000*%
%ADD11C,1.500000*%
%ADD12C,1.524000*%
%ADD13R,1.335000X1.335000*%
%ADD14C,1.335000*%
%ADD15C,3.000000*%
%ADD16C,1.524000*%
%ADD17R,1.524000X1.524000*%
%ADD18C,1.200000*%
%ADD19C,1.260000*%
%ADD20R,1.650000X1.650000*%
%ADD21C,1.650000*%
%ADD22C,0.525000*%
%ADD23C,0.152400*%
%ADD24C,0.508000*%
D10*
X967990Y326740D03*
D11*
X1002990Y326740D03*
D12*
X1389150Y569490D02*
X1404390Y569490D01*
X1404390Y594890D02*
X1389150Y594890D01*
X1389150Y620290D02*
X1404390Y620290D01*
X1404390Y645690D02*
X1389150Y645690D01*
X1389150Y671090D02*
X1404390Y671090D01*
X1404390Y696490D02*
X1389150Y696490D01*
X1389150Y721890D02*
X1404390Y721890D01*
X1404390Y747290D02*
X1389150Y747290D01*
X1277390Y569490D02*
X1262150Y569490D01*
X1262150Y594890D02*
X1277390Y594890D01*
X1277390Y620290D02*
X1262150Y620290D01*
X1262150Y645690D02*
X1277390Y645690D01*
X1277390Y671090D02*
X1262150Y671090D01*
X1262150Y696490D02*
X1277390Y696490D01*
X1277390Y721890D02*
X1262150Y721890D01*
X1262150Y747290D02*
X1277390Y747290D01*
D13*
X393470Y700300D03*
D14*
X368070Y700300D03*
D15*
X444270Y751100D03*
X342670Y751100D03*
D13*
X824000Y700300D03*
D14*
X798600Y700300D03*
D15*
X874800Y751100D03*
X773200Y751100D03*
D16*
X917680Y114070D03*
X938000Y114070D03*
X958320Y114070D03*
X978640Y114070D03*
X927840Y96290D03*
X948160Y96290D03*
X968480Y96290D03*
D17*
X988800Y96290D03*
D15*
X1034740Y105480D03*
X871740Y105480D03*
D16*
X711171Y114571D03*
X731491Y114571D03*
X751811Y114571D03*
X772131Y114571D03*
X721331Y96791D03*
X741651Y96791D03*
X761971Y96791D03*
D17*
X782291Y96791D03*
D15*
X828231Y105981D03*
X665231Y105981D03*
D16*
X504930Y114070D03*
X525250Y114070D03*
X545570Y114070D03*
X565890Y114070D03*
X515090Y96290D03*
X535410Y96290D03*
X555730Y96290D03*
D17*
X576050Y96290D03*
D15*
X621990Y105480D03*
X458990Y105480D03*
D16*
X303271Y114801D03*
X323591Y114801D03*
X343911Y114801D03*
X364231Y114801D03*
X313431Y97021D03*
X333751Y97021D03*
X354071Y97021D03*
D17*
X374391Y97021D03*
D15*
X420331Y106211D03*
X257331Y106211D03*
D16*
X99645Y114375D03*
X119965Y114375D03*
X140285Y114375D03*
X160605Y114375D03*
X109805Y96595D03*
X130125Y96595D03*
X150445Y96595D03*
D17*
X170765Y96595D03*
D15*
X216705Y105785D03*
X53705Y105785D03*
D16*
X103400Y329160D03*
X103400Y308840D03*
X103400Y288520D03*
X103400Y268200D03*
X85620Y319000D03*
X85620Y298680D03*
X85620Y278360D03*
D17*
X85620Y258040D03*
D15*
X94810Y212100D03*
X94810Y375100D03*
D16*
X103400Y534900D03*
X103400Y514580D03*
X103400Y494260D03*
X103400Y473940D03*
X85620Y524740D03*
X85620Y504420D03*
X85620Y484100D03*
D17*
X85620Y463780D03*
D15*
X94810Y417840D03*
X94810Y580840D03*
D16*
X103400Y735560D03*
X103400Y715240D03*
X103400Y694920D03*
X103400Y674600D03*
X85620Y725400D03*
X85620Y705080D03*
X85620Y684760D03*
D17*
X85620Y664440D03*
D15*
X94810Y618500D03*
X94810Y781500D03*
D18*
X964410Y804370D02*
X986410Y804370D01*
X929410Y782870D02*
X929410Y760870D01*
X964410Y743370D02*
X986410Y743370D01*
D19*
X1294870Y799870D03*
X1319870Y799870D03*
X1344870Y799870D03*
X1369870Y799870D03*
D10*
X857500Y328010D03*
D11*
X892500Y328010D03*
D10*
X748280Y328010D03*
D11*
X783280Y328010D03*
D10*
X967990Y460090D03*
D11*
X1002990Y460090D03*
D10*
X857500Y461360D03*
D11*
X892500Y461360D03*
D10*
X748280Y461360D03*
D11*
X783280Y461360D03*
D10*
X967990Y590900D03*
D11*
X1002990Y590900D03*
D10*
X857500Y590900D03*
D11*
X892500Y590900D03*
D10*
X748280Y590900D03*
D11*
X783280Y590900D03*
D13*
X611910Y700300D03*
D14*
X586510Y700300D03*
D15*
X662710Y751100D03*
X561110Y751100D03*
D20*
X1216430Y798090D03*
D21*
X1178330Y798090D03*
D20*
X1099550Y578230D03*
D21*
X1074150Y578230D03*
X1099550Y552830D03*
X1074150Y552830D03*
X1099550Y527430D03*
X1074150Y527430D03*
X1099550Y502030D03*
X1074150Y502030D03*
X1099550Y476630D03*
X1074150Y476630D03*
X1099550Y451230D03*
X1074150Y451230D03*
X1099550Y425830D03*
X1074150Y425830D03*
X1099550Y400430D03*
X1074150Y400430D03*
X1099550Y375030D03*
X1074150Y375030D03*
X1099550Y349630D03*
X1074150Y349630D03*
X1099550Y324230D03*
X1074150Y324230D03*
X1099550Y298830D03*
X1074150Y298830D03*
X1099550Y273430D03*
X1074150Y273430D03*
X1099550Y248030D03*
X1074150Y248030D03*
X1099550Y222630D03*
X1074150Y222630D03*
X1099550Y197230D03*
X1074150Y197230D03*
X1099550Y171830D03*
X1074150Y171830D03*
X1099550Y146430D03*
X1074150Y146430D03*
X1099550Y121030D03*
X1074150Y121030D03*
X1099550Y95630D03*
X1074150Y95630D03*
D12*
X660630Y552120D02*
X645390Y552120D01*
X645390Y577520D02*
X660630Y577520D01*
X660630Y602920D02*
X645390Y602920D01*
D11*
X946460Y256986D03*
X1011460Y256986D03*
X1011460Y211986D03*
X946460Y211986D03*
X978960Y193486D03*
X839780Y258390D03*
X904780Y258390D03*
X904780Y213390D03*
X839780Y213390D03*
X872280Y194890D03*
X724940Y257390D03*
X789940Y257390D03*
X789940Y212390D03*
X724940Y212390D03*
X757440Y193890D03*
D22*
X1036090Y702840D03*
X1215160Y552980D03*
X1030280Y210670D03*
X1306600Y83080D03*
X1196110Y84350D03*
X650340Y418280D03*
X1345970Y213890D03*
X926140Y209400D03*
X1179830Y336880D03*
X1253490Y465150D03*
X1316990Y337820D03*
X815340Y257810D03*
X654050Y266700D03*
X659130Y295910D03*
X248920Y566420D03*
X196850Y560070D03*
X440690Y368300D03*
X450850Y368300D03*
X245110Y421640D03*
X256540Y421640D03*
X654050Y240877D03*
X421640Y603250D03*
X448310Y603250D03*
X474980Y603250D03*
X176530Y288290D03*
X191770Y287020D03*
X208280Y287020D03*
X222250Y287020D03*
X238760Y295910D03*
X247650Y295910D03*
X351790Y369570D03*
X231140Y318770D03*
X180340Y433070D03*
X191770Y433070D03*
X212090Y431800D03*
X228600Y431800D03*
X238760Y599440D03*
X259191Y521970D03*
X234950Y525780D03*
X256540Y688340D03*
X238760Y676910D03*
X241300Y435610D03*
X254000Y589280D03*
X259080Y444500D03*
X440690Y278130D03*
X440690Y267970D03*
X494030Y288290D03*
X444500Y436880D03*
X435610Y436880D03*
X439420Y461351D03*
X495300Y734060D03*
X575310Y544596D03*
X572770Y515620D03*
X581660Y594656D03*
X582930Y566420D03*
X607060Y655320D03*
X332470Y321310D03*
X613410Y309880D03*
X237166Y402266D03*
X180340Y377190D03*
X485140Y601980D03*
X683260Y278130D03*
X681990Y250190D03*
X681990Y222250D03*
X237211Y411201D03*
X458470Y603250D03*
X433070Y603250D03*
X252413Y320357D03*
X246380Y688340D03*
X186690Y542290D03*
X251460Y435610D03*
X458470Y259080D03*
X552450Y534670D03*
X561340Y584200D03*
X458470Y354330D03*
X445770Y551180D03*
X548640Y275590D03*
X544830Y436880D03*
X454553Y454660D03*
X566950Y477814D03*
D23*
X109805Y121728D02*
X109805Y96595D01*
X109805Y121728D02*
X150614Y162537D01*
X150614Y382270D01*
D22*
X150614Y382270D03*
D23*
X86890Y724130D02*
X85620Y725400D01*
X111462Y705588D02*
X120650Y696400D01*
X120650Y548640D01*
D22*
X120650Y548640D03*
D23*
X86890Y718100D02*
X86890Y724130D01*
X86890Y718100D02*
X99402Y705588D01*
X111462Y705588D01*
X416560Y254000D02*
X500380Y170180D01*
X905510Y170180D01*
D22*
X905510Y170180D03*
X439453Y638777D03*
D23*
X416560Y629854D02*
X416560Y254000D01*
X425483Y638777D02*
X439453Y638777D01*
X425483Y638777D02*
X416560Y629854D01*
D22*
X439420Y658370D03*
D23*
X410210Y658370D01*
X393700Y641860D01*
X393700Y247650D01*
X322580Y176530D01*
X322580Y156210D01*
D22*
X322580Y156210D03*
D23*
X408940Y252730D02*
X408940Y635170D01*
X408940Y252730D02*
X496570Y165100D01*
X695960Y165100D01*
D22*
X695960Y165100D03*
X439453Y645297D03*
D23*
X419067Y645297D01*
X408940Y635170D01*
X156541Y669621D02*
X156541Y150951D01*
X119965Y114375D01*
D22*
X318770Y662940D03*
D23*
X283210Y698500D01*
X185420Y698500D01*
X156541Y669621D01*
X402590Y639150D02*
X402590Y248920D01*
X486410Y165100D01*
D22*
X486410Y165100D03*
X439453Y651817D03*
D23*
X415257Y651817D01*
X402590Y639150D01*
D22*
X318770Y670560D03*
D23*
X284480Y704850D01*
X180340Y704850D01*
X145957Y345047D02*
X109750Y308840D01*
X103400Y308840D01*
X145957Y345047D02*
X145957Y670467D01*
X180340Y704850D01*
X103400Y715240D02*
X288230Y715240D01*
D22*
X318803Y684733D03*
D23*
X318737Y684733D02*
X288230Y715240D01*
X318737Y684733D02*
X318803Y684733D01*
D22*
X318770Y678180D03*
D23*
X285750Y711200D01*
X175260Y711200D01*
X134620Y670560D01*
X134620Y545800D02*
X103400Y514580D01*
X134620Y545800D02*
X134620Y670560D01*
D22*
X773430Y533400D03*
D24*
X910490Y533400D01*
X967990Y590900D01*
D22*
X773430Y554990D03*
D24*
X857500Y589530D02*
X857500Y590900D01*
X857500Y589530D02*
X822960Y554990D01*
X773430Y554990D01*
X1387880Y671090D02*
X1395500Y671090D01*
X1396770Y671090D01*
X1396770Y672360D02*
X1396770Y696490D01*
X1396770Y672360D02*
X1395500Y671090D01*
X1387880Y671090D02*
X1338350Y621560D01*
X1047520Y348400D02*
X1047520Y294316D01*
X1047520Y348400D02*
X1074150Y375030D01*
X1338350Y516150D02*
X1338350Y621560D01*
X1047520Y294316D02*
X1011460Y258256D01*
X1011460Y256986D01*
X946460Y256986D01*
X945460Y257986D01*
X905185Y257986D01*
X904780Y258390D01*
X839780Y258390D01*
X1210560Y388360D02*
X1338350Y516150D01*
X1210560Y388360D02*
X1087480Y388360D01*
X1074150Y375030D01*
X1074150Y578230D02*
X1070230Y578230D01*
X1009650Y638810D01*
X657860Y638810D01*
X617220Y598170D01*
D22*
X610870Y590550D03*
D24*
X618490Y598170D01*
X594360Y598170D02*
X514350Y518160D01*
X514350Y504190D01*
X514350Y463550D01*
X1074150Y578230D02*
X1086210Y566170D01*
X1086210Y387090D01*
X1074150Y375030D01*
D22*
X505460Y495300D03*
D24*
X594360Y598170D02*
X617220Y598170D01*
X618490Y598170D01*
D22*
X502920Y452120D03*
D23*
X514350Y463550D01*
X505460Y495300D02*
X514350Y504190D01*
D24*
X618490Y556260D02*
X618490Y598170D01*
X618490Y556260D02*
X600710Y538480D01*
D22*
X600710Y538480D03*
D23*
X839780Y213390D02*
X904780Y213390D01*
X393470Y700300D02*
X364490Y671320D01*
X364490Y354330D01*
D22*
X364490Y354330D03*
D23*
X518160Y421640D02*
X537210Y421640D01*
D22*
X518160Y421640D03*
D23*
X537210Y421640D02*
X592812Y477242D01*
X1031582Y477242D01*
X1074150Y519810D02*
X1074150Y527430D01*
X1074150Y519810D02*
X1031582Y477242D01*
D22*
X533646Y468876D03*
D23*
X1074150Y545210D02*
X1074150Y552830D01*
X1074150Y545210D02*
X1017866Y488926D01*
X566396Y488926D01*
X546346Y468876D01*
X533646Y468876D01*
D22*
X381000Y316230D03*
D23*
X383540Y318770D02*
X383540Y652780D01*
X383540Y318770D02*
X381000Y316230D01*
X383540Y652780D02*
X412193Y681433D01*
X824000Y698146D02*
X824000Y700300D01*
X824000Y698146D02*
X807287Y681433D01*
X412193Y681433D01*
X279400Y146050D02*
X966660Y146050D01*
X988800Y123910D01*
X988800Y96290D01*
D22*
X267632Y444429D03*
D23*
X267632Y157818D01*
X279400Y146050D01*
D22*
X232410Y444500D03*
D23*
X213360Y425450D01*
X213360Y196850D01*
X784860Y125730D02*
X784860Y99360D01*
X782291Y96791D01*
X784860Y125730D02*
X771144Y139446D01*
X270764Y139446D02*
X213360Y196850D01*
X270764Y139446D02*
X771144Y139446D01*
X214207Y531707D02*
X196850Y514350D01*
X196850Y193601D02*
X307901Y82550D01*
X196850Y193601D02*
X196850Y514350D01*
X307901Y82550D02*
X359920Y82550D01*
X374391Y97021D01*
X259185Y529695D02*
X257174Y531707D01*
X214207Y531707D01*
D22*
X259191Y529695D03*
D23*
X259185Y529695D01*
D22*
X224790Y525780D03*
D23*
X214630Y525780D01*
X201930Y513080D01*
X201930Y198120D01*
X576050Y121180D02*
X576050Y96290D01*
X576050Y121180D02*
X564388Y132842D01*
X267208Y132842D02*
X201930Y198120D01*
X267208Y132842D02*
X564388Y132842D01*
X163145Y554990D02*
X191085Y582930D01*
X170765Y142635D02*
X170765Y96595D01*
X170765Y142635D02*
X163145Y150255D01*
X163145Y554990D01*
D22*
X265057Y592315D03*
D23*
X256942Y582930D02*
X191085Y582930D01*
X265057Y591045D02*
X265057Y592315D01*
X265057Y591045D02*
X256942Y582930D01*
D22*
X140970Y541020D03*
D23*
X121920Y521970D01*
X121920Y370840D01*
X72390Y321310D01*
X72390Y271270D01*
X85620Y258040D01*
D22*
X115570Y646007D03*
D23*
X115570Y572770D01*
X68580Y525780D01*
X68580Y480060D01*
X84860Y463780D01*
X85620Y463780D01*
D22*
X788670Y444500D03*
D24*
X840640Y444500D01*
X857500Y461360D01*
D22*
X782320Y431800D03*
D24*
X939700Y431800D01*
X967990Y460090D01*
M02*
