M48
;GenerationSoftware,Autodesk,EAGLE,9.7.0*%
;CreationDate,2024-08-02T08:23:40Z*%
FMAT,2
ICI,OFF
METRIC,TZ,000.000
T12C0.350
T11C0.800
T10C0.840
T9C0.890
T8C0.914
T7C1.000
T6C1.016
T5C1.100
T4C1.500
T3C2.000
T2C2.750
T1C3.200
%
G90
M71
T1
X88974Y7089
X6022Y63650
X6022Y76350
X6022Y43584
X6022Y56284
X6022Y23010
X6022Y35710
X19870Y7119
X7170Y7119
X40233Y7162
X27533Y7162
X60399Y7089
X47699Y7089
X81023Y7139
X68323Y7139
X101674Y7089
T2
X108585Y62445
X59485Y62477
X108585Y4445
T3
X62199Y10548
X45899Y10548
X42033Y10621
X25733Y10621
X9481Y78150
X9481Y61850
X66523Y10598
X82823Y10598
X87174Y10548
X103474Y10548
X77320Y75110
X87480Y75110
X34267Y75110
X44427Y75110
X9481Y58084
X9481Y41784
X9481Y21210
X9481Y37510
X21670Y10578
X5370Y10578
X66271Y75110
X56111Y75110
T4
X24996Y81641
X24996Y74641
T5
X107415Y40043
X109955Y40043
X107415Y42583
X109955Y42583
X107415Y45123
X109955Y45123
X107415Y47663
X109955Y47663
X107415Y50203
X109955Y50203
X107415Y52743
X109955Y52743
X107415Y55283
X109955Y55283
X107415Y57823
X109955Y57823
X117833Y79809
X121643Y79809
X107415Y9563
X107415Y37503
X109955Y34963
X107415Y34963
X109955Y32423
X107415Y32423
X109955Y29883
X107415Y29883
X109955Y27343
X107415Y27343
X109955Y24803
X107415Y24803
X109955Y22263
X107415Y22263
X109955Y19723
X107415Y19723
X109955Y17183
X107415Y17183
X109955Y14643
X107415Y14643
X109955Y12103
X107415Y12103
X109955Y9563
X109955Y37503
T6
X139677Y56949
X139677Y62029
X65301Y60292
X65301Y57752
X65301Y55212
X139677Y59489
X139677Y64569
X139677Y67109
X139677Y69649
X139677Y72189
X139677Y74729
X126977Y56949
X126977Y74729
X126977Y72189
X126977Y69649
X126977Y67109
X126977Y64569
X126977Y62029
X126977Y59489
T7
X100299Y59090
X96799Y59090
X85750Y32801
X78328Y46136
X74828Y46136
X89250Y46136
X85750Y46136
X89250Y32801
X100299Y46009
X89250Y59090
X74828Y59090
X78328Y59090
X96799Y46009
X78328Y32801
X74828Y32801
X94646Y25699
X101146Y25699
X101146Y21199
X94646Y21199
X97896Y19349
X83978Y25839
X90478Y25839
X90478Y21339
X83978Y21339
X87228Y19489
X72494Y25739
X78994Y25739
X78994Y21239
X72494Y21239
X75744Y19389
X96799Y32674
X100299Y32674
X85750Y59090
T8
X10340Y28852
X10340Y26820
X8562Y31900
X8562Y29868
X8562Y27836
X8562Y25804
X97864Y11407
X10340Y53490
X10340Y51458
X10340Y49426
X10340Y47394
X8562Y52474
X8562Y50442
X8562Y48410
X8562Y46378
X10340Y32916
X17076Y9659
X10340Y73556
X10340Y71524
X15044Y9659
X13012Y9659
X10340Y69492
X10340Y67460
X91768Y11407
X93800Y11407
X95832Y11407
X10340Y30884
X92784Y9629
X94816Y9629
X96848Y9629
X98880Y9629
X8562Y72540
X8562Y70508
X71117Y11457
X73149Y11457
X75181Y11457
X77213Y11457
X72133Y9679
X74165Y9679
X76197Y9679
X78229Y9679
X8562Y68476
X8562Y66444
X50493Y11407
X52525Y11407
X54557Y11407
X56589Y11407
X51509Y9629
X53541Y9629
X55573Y9629
X57605Y9629
X10980Y9659
X16060Y11437
X30327Y11480
X32359Y11480
X34391Y11480
X36423Y11480
X31343Y9702
X33375Y9702
X35407Y9702
X37439Y9702
X14028Y11437
X11996Y11437
X9964Y11437
T9
X79860Y70030
X82400Y70030
X36807Y70030
X61191Y70030
X58651Y70030
X39347Y70030
T10
X136987Y79987
X134487Y79987
X131987Y79987
X129487Y79987
T11
G00X98641Y74337
M15
G01X96441Y74337
M16
X97541Y74337
G00X92941Y76087
M15
G01X92941Y78287
M16
X92941Y77187
G00X96441Y80437
M15
G01X98641Y80437
M16
X97541Y80437
T12
G05
X11557Y64601
X14097Y54102
X26506Y59231
X22479Y52578
X25919Y52970
X23241Y44450
X26763Y44443
X38100Y31623
X53365Y46888
X51816Y42164
X36449Y35433
X60071Y53848
X50292Y45212
X50546Y49530
X61087Y59055
X77343Y55499
X77343Y53340
X31877Y67818
X31880Y68473
X31877Y67056
X43945Y65182
X48641Y16510
X31877Y66294
X43945Y64530
X69596Y16510
X32258Y15621
X43942Y65837
X43945Y63878
X90551Y17018
X12065Y54864
X15061Y38227
X56695Y47781
X45455Y45466
X54483Y43688
X54864Y27559
X44577Y55118
X45847Y35433
X56134Y58420
X55245Y53467
X45847Y25908
X25146Y43561
X18669Y54229
X24638Y68834
X25241Y32036
X43307Y60325
X45847Y60325
X23721Y41120
X68199Y22225
X68199Y25019
X68326Y27813
X48514Y60198
X18034Y37719
X23717Y40227
X61341Y30988
X33247Y32131
X60706Y65532
X58293Y56642
X58166Y59466
X57277Y51562
X57531Y54460
X49530Y73406
X43942Y46135
X43561Y43688
X44450Y43688
X49403Y28829
X44069Y26797
X44069Y27813
X25908Y44450
X25400Y58928
X24130Y43561
X23876Y67691
X25654Y68834
X23495Y52578
X25919Y52197
X23876Y59944
X22860Y43180
X21209Y43180
X19177Y43307
X18034Y43307
X23114Y31877
X35179Y36957
X24765Y29591
X23876Y29591
X22225Y28702
X20828Y28702
X19177Y28702
X17653Y28829
X47498Y60325
X44831Y60325
X42164Y60325
X65405Y24088
X25654Y42164
X24511Y42164
X45085Y36830
X44069Y36830
X19685Y56007
X24892Y56642
X65913Y29591
X65405Y26670
X81534Y25781
X131699Y33782
X125349Y46515
X117983Y33688
X92614Y20940
X134597Y21389
X65034Y41828
X119611Y8435
X130660Y8308
X103028Y21067
X121516Y55298
X78867Y44450
X78232Y43180
X103609Y70284
M30