G04 EAGLE Gerber RS-274X export*
G75*
%MOMM*%
%FSLAX34Y34*%
%LPD*%
%INSoldermask Top*%
%IPPOS*%
%AMOC8*
5,1,8,0,0,1.08239X$1,22.5*%
G01*
G04 Define Apertures*
%ADD10C,2.877000*%
%ADD11R,2.127000X1.627000*%
%ADD12C,1.627000*%
%ADD13R,2.842300X1.291600*%
%ADD14R,0.687000X0.756100*%
%ADD15R,0.756100X0.687000*%
%ADD16R,2.242300X4.542700*%
%ADD17R,1.627000X1.627000*%
%ADD18R,2.127000X0.727000*%
%ADD19R,0.727000X2.127000*%
%ADD20C,1.651000*%
%ADD21R,0.762000X1.397000*%
%ADD22R,1.397000X0.762000*%
%ADD23R,1.462000X1.462000*%
%ADD24C,1.462000*%
%ADD25C,3.127000*%
%ADD26C,1.651000*%
%ADD27R,1.651000X1.651000*%
%ADD28C,3.327000*%
%ADD29C,1.327000*%
%ADD30C,1.387000*%
%ADD31R,1.100900X0.925700*%
%ADD32R,0.925700X1.100900*%
%ADD33R,0.482600X1.536700*%
%ADD34C,0.732150*%
%ADD35C,1.227000*%
%ADD36C,1.177000*%
%ADD37R,0.685800X2.108200*%
%ADD38C,0.727000*%
%ADD39R,1.777000X1.777000*%
%ADD40C,1.777000*%
%ADD41C,0.276259*%
%ADD42R,1.104900X0.685800*%
%ADD43R,0.431800X1.295400*%
%ADD44C,0.272459*%
%ADD45C,0.652000*%
G36*
X1135808Y75100D02*
X1135808Y93200D01*
X1166861Y93200D01*
X1167537Y93124D01*
X1168182Y92898D01*
X1168760Y92535D01*
X1169243Y92052D01*
X1169607Y91474D01*
X1169832Y90829D01*
X1169908Y90153D01*
X1169908Y78147D01*
X1169832Y77471D01*
X1169607Y76827D01*
X1169243Y76248D01*
X1168760Y75765D01*
X1168182Y75402D01*
X1167537Y75176D01*
X1166861Y75100D01*
X1135808Y75100D01*
G37*
G36*
X1135808Y202100D02*
X1135808Y220200D01*
X1166861Y220200D01*
X1167537Y220124D01*
X1168182Y219898D01*
X1168760Y219535D01*
X1169243Y219052D01*
X1169607Y218474D01*
X1169832Y217829D01*
X1169908Y217153D01*
X1169908Y205147D01*
X1169832Y204471D01*
X1169607Y203827D01*
X1169243Y203248D01*
X1168760Y202765D01*
X1168182Y202402D01*
X1167537Y202176D01*
X1166861Y202100D01*
X1135808Y202100D01*
G37*
G36*
X1135808Y329100D02*
X1135808Y347200D01*
X1166861Y347200D01*
X1167537Y347124D01*
X1168182Y346898D01*
X1168760Y346535D01*
X1169243Y346052D01*
X1169607Y345474D01*
X1169832Y344829D01*
X1169908Y344153D01*
X1169908Y332147D01*
X1169832Y331471D01*
X1169607Y330827D01*
X1169243Y330248D01*
X1168760Y329765D01*
X1168182Y329402D01*
X1167537Y329176D01*
X1166861Y329100D01*
X1135808Y329100D01*
G37*
G36*
X1135808Y456100D02*
X1135808Y474200D01*
X1166861Y474200D01*
X1167537Y474124D01*
X1168182Y473898D01*
X1168760Y473535D01*
X1169243Y473052D01*
X1169607Y472474D01*
X1169832Y471829D01*
X1169908Y471153D01*
X1169908Y459147D01*
X1169832Y458471D01*
X1169607Y457827D01*
X1169243Y457248D01*
X1168760Y456765D01*
X1168182Y456402D01*
X1167537Y456176D01*
X1166861Y456100D01*
X1135808Y456100D01*
G37*
G36*
X1240708Y507647D02*
X1240708Y538700D01*
X1258808Y538700D01*
X1258808Y507647D01*
X1258732Y506971D01*
X1258507Y506327D01*
X1258143Y505748D01*
X1257660Y505265D01*
X1257082Y504902D01*
X1256437Y504676D01*
X1255761Y504600D01*
X1243756Y504600D01*
X1243080Y504676D01*
X1242435Y504902D01*
X1241857Y505265D01*
X1241374Y505748D01*
X1241010Y506327D01*
X1240785Y506971D01*
X1240708Y507647D01*
G37*
G36*
X1331980Y93124D02*
X1332656Y93200D01*
X1363708Y93200D01*
X1363708Y75100D01*
X1332656Y75100D01*
X1331980Y75176D01*
X1331335Y75402D01*
X1330757Y75765D01*
X1330274Y76248D01*
X1329910Y76827D01*
X1329685Y77471D01*
X1329608Y78147D01*
X1329608Y90153D01*
X1329685Y90829D01*
X1329910Y91474D01*
X1330274Y92052D01*
X1330757Y92535D01*
X1331335Y92898D01*
X1331980Y93124D01*
G37*
G36*
X1331980Y220124D02*
X1332656Y220200D01*
X1363708Y220200D01*
X1363708Y202100D01*
X1332656Y202100D01*
X1331980Y202176D01*
X1331335Y202402D01*
X1330757Y202765D01*
X1330274Y203248D01*
X1329910Y203827D01*
X1329685Y204471D01*
X1329608Y205147D01*
X1329608Y217153D01*
X1329685Y217829D01*
X1329910Y218474D01*
X1330274Y219052D01*
X1330757Y219535D01*
X1331335Y219898D01*
X1331980Y220124D01*
G37*
G36*
X1331980Y347124D02*
X1332656Y347200D01*
X1363708Y347200D01*
X1363708Y329100D01*
X1332656Y329100D01*
X1331980Y329176D01*
X1331335Y329402D01*
X1330757Y329765D01*
X1330274Y330248D01*
X1329910Y330827D01*
X1329685Y331471D01*
X1329608Y332147D01*
X1329608Y344153D01*
X1329685Y344829D01*
X1329910Y345474D01*
X1330274Y346052D01*
X1330757Y346535D01*
X1331335Y346898D01*
X1331980Y347124D01*
G37*
G36*
X1331980Y474124D02*
X1332656Y474200D01*
X1363708Y474200D01*
X1363708Y456100D01*
X1332656Y456100D01*
X1331980Y456176D01*
X1331335Y456402D01*
X1330757Y456765D01*
X1330274Y457248D01*
X1329910Y457827D01*
X1329685Y458471D01*
X1329608Y459147D01*
X1329608Y471153D01*
X1329685Y471829D01*
X1329910Y472474D01*
X1330274Y473052D01*
X1330757Y473535D01*
X1331335Y473898D01*
X1331980Y474124D01*
G37*
G36*
X1135808Y24300D02*
X1135808Y42400D01*
X1160861Y42400D01*
X1162624Y42226D01*
X1164322Y41711D01*
X1165886Y40875D01*
X1167258Y39750D01*
X1168383Y38378D01*
X1169220Y36813D01*
X1169735Y35116D01*
X1169909Y33350D01*
X1169735Y31584D01*
X1169220Y29887D01*
X1168383Y28322D01*
X1167258Y26951D01*
X1165886Y25825D01*
X1164322Y24989D01*
X1162624Y24474D01*
X1160861Y24300D01*
X1135808Y24300D01*
G37*
G36*
X1135808Y49700D02*
X1135808Y67800D01*
X1160861Y67800D01*
X1162624Y67626D01*
X1164322Y67111D01*
X1165886Y66275D01*
X1167258Y65150D01*
X1168383Y63778D01*
X1169220Y62213D01*
X1169735Y60516D01*
X1169909Y58750D01*
X1169735Y56984D01*
X1169220Y55287D01*
X1168383Y53722D01*
X1167258Y52351D01*
X1165886Y51225D01*
X1164322Y50389D01*
X1162624Y49874D01*
X1160861Y49700D01*
X1135808Y49700D01*
G37*
G36*
X1135808Y100500D02*
X1135808Y118600D01*
X1160861Y118600D01*
X1162624Y118426D01*
X1164322Y117911D01*
X1165886Y117075D01*
X1167258Y115950D01*
X1168383Y114578D01*
X1169220Y113013D01*
X1169735Y111316D01*
X1169909Y109550D01*
X1169735Y107784D01*
X1169220Y106087D01*
X1168383Y104522D01*
X1167258Y103151D01*
X1165886Y102025D01*
X1164322Y101189D01*
X1162624Y100674D01*
X1160861Y100500D01*
X1135808Y100500D01*
G37*
G36*
X1135808Y125900D02*
X1135808Y144000D01*
X1160861Y144000D01*
X1162624Y143826D01*
X1164322Y143311D01*
X1165886Y142475D01*
X1167258Y141350D01*
X1168383Y139978D01*
X1169220Y138413D01*
X1169735Y136716D01*
X1169909Y134950D01*
X1169735Y133184D01*
X1169220Y131487D01*
X1168383Y129922D01*
X1167258Y128551D01*
X1165886Y127425D01*
X1164322Y126589D01*
X1162624Y126074D01*
X1160861Y125900D01*
X1135808Y125900D01*
G37*
G36*
X1135808Y151300D02*
X1135808Y169400D01*
X1160861Y169400D01*
X1162624Y169226D01*
X1164322Y168711D01*
X1165886Y167875D01*
X1167258Y166750D01*
X1168383Y165378D01*
X1169220Y163813D01*
X1169735Y162116D01*
X1169909Y160350D01*
X1169735Y158584D01*
X1169220Y156887D01*
X1168383Y155322D01*
X1167258Y153951D01*
X1165886Y152825D01*
X1164322Y151989D01*
X1162624Y151474D01*
X1160861Y151300D01*
X1135808Y151300D01*
G37*
G36*
X1135808Y176700D02*
X1135808Y194800D01*
X1160861Y194800D01*
X1162624Y194626D01*
X1164322Y194111D01*
X1165886Y193275D01*
X1167258Y192150D01*
X1168383Y190778D01*
X1169220Y189213D01*
X1169735Y187516D01*
X1169909Y185750D01*
X1169735Y183984D01*
X1169220Y182287D01*
X1168383Y180722D01*
X1167258Y179351D01*
X1165886Y178225D01*
X1164322Y177389D01*
X1162624Y176874D01*
X1160861Y176700D01*
X1135808Y176700D01*
G37*
G36*
X1135808Y227500D02*
X1135808Y245600D01*
X1160861Y245600D01*
X1162624Y245426D01*
X1164322Y244911D01*
X1165886Y244075D01*
X1167258Y242950D01*
X1168383Y241578D01*
X1169220Y240013D01*
X1169735Y238316D01*
X1169909Y236550D01*
X1169735Y234784D01*
X1169220Y233087D01*
X1168383Y231522D01*
X1167258Y230151D01*
X1165886Y229025D01*
X1164322Y228189D01*
X1162624Y227674D01*
X1160861Y227500D01*
X1135808Y227500D01*
G37*
G36*
X1135808Y252900D02*
X1135808Y271000D01*
X1160861Y271000D01*
X1162624Y270826D01*
X1164322Y270311D01*
X1165886Y269475D01*
X1167258Y268350D01*
X1168383Y266978D01*
X1169220Y265413D01*
X1169735Y263716D01*
X1169909Y261950D01*
X1169735Y260184D01*
X1169220Y258487D01*
X1168383Y256922D01*
X1167258Y255551D01*
X1165886Y254425D01*
X1164322Y253589D01*
X1162624Y253074D01*
X1160861Y252900D01*
X1135808Y252900D01*
G37*
G36*
X1135808Y278300D02*
X1135808Y296400D01*
X1160861Y296400D01*
X1162624Y296226D01*
X1164322Y295711D01*
X1165886Y294875D01*
X1167258Y293750D01*
X1168383Y292378D01*
X1169220Y290813D01*
X1169735Y289116D01*
X1169909Y287350D01*
X1169735Y285584D01*
X1169220Y283887D01*
X1168383Y282322D01*
X1167258Y280951D01*
X1165886Y279825D01*
X1164322Y278989D01*
X1162624Y278474D01*
X1160861Y278300D01*
X1135808Y278300D01*
G37*
G36*
X1135808Y303700D02*
X1135808Y321800D01*
X1160861Y321800D01*
X1162624Y321626D01*
X1164322Y321111D01*
X1165886Y320275D01*
X1167258Y319150D01*
X1168383Y317778D01*
X1169220Y316213D01*
X1169735Y314516D01*
X1169909Y312750D01*
X1169735Y310984D01*
X1169220Y309287D01*
X1168383Y307722D01*
X1167258Y306351D01*
X1165886Y305225D01*
X1164322Y304389D01*
X1162624Y303874D01*
X1160861Y303700D01*
X1135808Y303700D01*
G37*
G36*
X1135808Y354500D02*
X1135808Y372600D01*
X1160861Y372600D01*
X1162624Y372426D01*
X1164322Y371911D01*
X1165886Y371075D01*
X1167258Y369950D01*
X1168383Y368578D01*
X1169220Y367013D01*
X1169735Y365316D01*
X1169909Y363550D01*
X1169735Y361784D01*
X1169220Y360087D01*
X1168383Y358522D01*
X1167258Y357151D01*
X1165886Y356025D01*
X1164322Y355189D01*
X1162624Y354674D01*
X1160861Y354500D01*
X1135808Y354500D01*
G37*
G36*
X1135808Y379900D02*
X1135808Y398000D01*
X1160861Y398000D01*
X1162624Y397826D01*
X1164322Y397311D01*
X1165886Y396475D01*
X1167258Y395350D01*
X1168383Y393978D01*
X1169220Y392413D01*
X1169735Y390716D01*
X1169909Y388950D01*
X1169735Y387184D01*
X1169220Y385487D01*
X1168383Y383922D01*
X1167258Y382551D01*
X1165886Y381425D01*
X1164322Y380589D01*
X1162624Y380074D01*
X1160861Y379900D01*
X1135808Y379900D01*
G37*
G36*
X1135808Y405300D02*
X1135808Y423400D01*
X1160861Y423400D01*
X1162624Y423226D01*
X1164322Y422711D01*
X1165886Y421875D01*
X1167258Y420750D01*
X1168383Y419378D01*
X1169220Y417813D01*
X1169735Y416116D01*
X1169909Y414350D01*
X1169735Y412584D01*
X1169220Y410887D01*
X1168383Y409322D01*
X1167258Y407951D01*
X1165886Y406825D01*
X1164322Y405989D01*
X1162624Y405474D01*
X1160861Y405300D01*
X1135808Y405300D01*
G37*
G36*
X1135808Y430700D02*
X1135808Y448800D01*
X1160861Y448800D01*
X1162624Y448626D01*
X1164322Y448111D01*
X1165886Y447275D01*
X1167258Y446150D01*
X1168383Y444778D01*
X1169220Y443213D01*
X1169735Y441516D01*
X1169909Y439750D01*
X1169735Y437984D01*
X1169220Y436287D01*
X1168383Y434722D01*
X1167258Y433351D01*
X1165886Y432225D01*
X1164322Y431389D01*
X1162624Y430874D01*
X1160861Y430700D01*
X1135808Y430700D01*
G37*
G36*
X1135808Y481500D02*
X1135808Y499600D01*
X1160861Y499600D01*
X1162624Y499426D01*
X1164322Y498911D01*
X1165886Y498075D01*
X1167258Y496950D01*
X1168383Y495578D01*
X1169220Y494013D01*
X1169735Y492316D01*
X1169909Y490550D01*
X1169735Y488784D01*
X1169220Y487087D01*
X1168383Y485522D01*
X1167258Y484151D01*
X1165886Y483025D01*
X1164322Y482189D01*
X1162624Y481674D01*
X1160861Y481500D01*
X1135808Y481500D01*
G37*
G36*
X1135808Y506900D02*
X1135808Y525000D01*
X1160861Y525000D01*
X1162624Y524826D01*
X1164322Y524311D01*
X1165886Y523475D01*
X1167258Y522350D01*
X1168383Y520978D01*
X1169220Y519413D01*
X1169735Y517716D01*
X1169909Y515950D01*
X1169735Y514184D01*
X1169220Y512487D01*
X1168383Y510922D01*
X1167258Y509551D01*
X1165886Y508425D01*
X1164322Y507589D01*
X1162624Y507074D01*
X1160861Y506900D01*
X1135808Y506900D01*
G37*
G36*
X1215308Y513648D02*
X1215308Y538700D01*
X1233408Y538700D01*
X1233408Y513648D01*
X1233235Y511884D01*
X1232720Y510187D01*
X1231883Y508622D01*
X1230758Y507251D01*
X1229386Y506125D01*
X1227822Y505289D01*
X1226124Y504774D01*
X1224358Y504600D01*
X1222593Y504774D01*
X1220895Y505289D01*
X1219330Y506125D01*
X1217959Y507251D01*
X1216833Y508622D01*
X1215997Y510187D01*
X1215482Y511884D01*
X1215308Y513648D01*
G37*
G36*
X1266108Y513648D02*
X1266108Y538700D01*
X1284208Y538700D01*
X1284208Y513648D01*
X1284035Y511884D01*
X1283520Y510187D01*
X1282683Y508622D01*
X1281558Y507251D01*
X1280186Y506125D01*
X1278622Y505289D01*
X1276924Y504774D01*
X1275158Y504600D01*
X1273393Y504774D01*
X1271695Y505289D01*
X1270130Y506125D01*
X1268759Y507251D01*
X1267633Y508622D01*
X1266797Y510187D01*
X1266282Y511884D01*
X1266108Y513648D01*
G37*
G36*
X1336893Y42226D02*
X1338656Y42400D01*
X1363708Y42400D01*
X1363708Y24300D01*
X1338656Y24300D01*
X1336893Y24474D01*
X1335195Y24989D01*
X1333630Y25825D01*
X1332259Y26951D01*
X1331133Y28322D01*
X1330297Y29887D01*
X1329782Y31584D01*
X1329608Y33350D01*
X1329782Y35116D01*
X1330297Y36813D01*
X1331133Y38378D01*
X1332259Y39750D01*
X1333630Y40875D01*
X1335195Y41711D01*
X1336893Y42226D01*
G37*
G36*
X1336893Y67626D02*
X1338656Y67800D01*
X1363708Y67800D01*
X1363708Y49700D01*
X1338656Y49700D01*
X1336893Y49874D01*
X1335195Y50389D01*
X1333630Y51225D01*
X1332259Y52351D01*
X1331133Y53722D01*
X1330297Y55287D01*
X1329782Y56984D01*
X1329608Y58750D01*
X1329782Y60516D01*
X1330297Y62213D01*
X1331133Y63778D01*
X1332259Y65150D01*
X1333630Y66275D01*
X1335195Y67111D01*
X1336893Y67626D01*
G37*
G36*
X1336893Y118426D02*
X1338656Y118600D01*
X1363708Y118600D01*
X1363708Y100500D01*
X1338656Y100500D01*
X1336893Y100674D01*
X1335195Y101189D01*
X1333630Y102025D01*
X1332259Y103151D01*
X1331133Y104522D01*
X1330297Y106087D01*
X1329782Y107784D01*
X1329608Y109550D01*
X1329782Y111316D01*
X1330297Y113013D01*
X1331133Y114578D01*
X1332259Y115950D01*
X1333630Y117075D01*
X1335195Y117911D01*
X1336893Y118426D01*
G37*
G36*
X1336893Y143826D02*
X1338656Y144000D01*
X1363708Y144000D01*
X1363708Y125900D01*
X1338656Y125900D01*
X1336893Y126074D01*
X1335195Y126589D01*
X1333630Y127425D01*
X1332259Y128551D01*
X1331133Y129922D01*
X1330297Y131487D01*
X1329782Y133184D01*
X1329608Y134950D01*
X1329782Y136716D01*
X1330297Y138413D01*
X1331133Y139978D01*
X1332259Y141350D01*
X1333630Y142475D01*
X1335195Y143311D01*
X1336893Y143826D01*
G37*
G36*
X1336893Y169226D02*
X1338656Y169400D01*
X1363708Y169400D01*
X1363708Y151300D01*
X1338656Y151300D01*
X1336893Y151474D01*
X1335195Y151989D01*
X1333630Y152825D01*
X1332259Y153951D01*
X1331133Y155322D01*
X1330297Y156887D01*
X1329782Y158584D01*
X1329608Y160350D01*
X1329782Y162116D01*
X1330297Y163813D01*
X1331133Y165378D01*
X1332259Y166750D01*
X1333630Y167875D01*
X1335195Y168711D01*
X1336893Y169226D01*
G37*
G36*
X1336893Y194626D02*
X1338656Y194800D01*
X1363708Y194800D01*
X1363708Y176700D01*
X1338656Y176700D01*
X1336893Y176874D01*
X1335195Y177389D01*
X1333630Y178225D01*
X1332259Y179351D01*
X1331133Y180722D01*
X1330297Y182287D01*
X1329782Y183984D01*
X1329608Y185750D01*
X1329782Y187516D01*
X1330297Y189213D01*
X1331133Y190778D01*
X1332259Y192150D01*
X1333630Y193275D01*
X1335195Y194111D01*
X1336893Y194626D01*
G37*
G36*
X1336893Y245426D02*
X1338656Y245600D01*
X1363708Y245600D01*
X1363708Y227500D01*
X1338656Y227500D01*
X1336893Y227674D01*
X1335195Y228189D01*
X1333630Y229025D01*
X1332259Y230151D01*
X1331133Y231522D01*
X1330297Y233087D01*
X1329782Y234784D01*
X1329608Y236550D01*
X1329782Y238316D01*
X1330297Y240013D01*
X1331133Y241578D01*
X1332259Y242950D01*
X1333630Y244075D01*
X1335195Y244911D01*
X1336893Y245426D01*
G37*
G36*
X1336893Y270826D02*
X1338656Y271000D01*
X1363708Y271000D01*
X1363708Y252900D01*
X1338656Y252900D01*
X1336893Y253074D01*
X1335195Y253589D01*
X1333630Y254425D01*
X1332259Y255551D01*
X1331133Y256922D01*
X1330297Y258487D01*
X1329782Y260184D01*
X1329608Y261950D01*
X1329782Y263716D01*
X1330297Y265413D01*
X1331133Y266978D01*
X1332259Y268350D01*
X1333630Y269475D01*
X1335195Y270311D01*
X1336893Y270826D01*
G37*
G36*
X1336893Y296226D02*
X1338656Y296400D01*
X1363708Y296400D01*
X1363708Y278300D01*
X1338656Y278300D01*
X1336893Y278474D01*
X1335195Y278989D01*
X1333630Y279825D01*
X1332259Y280951D01*
X1331133Y282322D01*
X1330297Y283887D01*
X1329782Y285584D01*
X1329608Y287350D01*
X1329782Y289116D01*
X1330297Y290813D01*
X1331133Y292378D01*
X1332259Y293750D01*
X1333630Y294875D01*
X1335195Y295711D01*
X1336893Y296226D01*
G37*
G36*
X1336893Y321626D02*
X1338656Y321800D01*
X1363708Y321800D01*
X1363708Y303700D01*
X1338656Y303700D01*
X1336893Y303874D01*
X1335195Y304389D01*
X1333630Y305225D01*
X1332259Y306351D01*
X1331133Y307722D01*
X1330297Y309287D01*
X1329782Y310984D01*
X1329608Y312750D01*
X1329782Y314516D01*
X1330297Y316213D01*
X1331133Y317778D01*
X1332259Y319150D01*
X1333630Y320275D01*
X1335195Y321111D01*
X1336893Y321626D01*
G37*
G36*
X1336893Y372426D02*
X1338656Y372600D01*
X1363708Y372600D01*
X1363708Y354500D01*
X1338656Y354500D01*
X1336893Y354674D01*
X1335195Y355189D01*
X1333630Y356025D01*
X1332259Y357151D01*
X1331133Y358522D01*
X1330297Y360087D01*
X1329782Y361784D01*
X1329608Y363550D01*
X1329782Y365316D01*
X1330297Y367013D01*
X1331133Y368578D01*
X1332259Y369950D01*
X1333630Y371075D01*
X1335195Y371911D01*
X1336893Y372426D01*
G37*
G36*
X1336893Y397826D02*
X1338656Y398000D01*
X1363708Y398000D01*
X1363708Y379900D01*
X1338656Y379900D01*
X1336893Y380074D01*
X1335195Y380589D01*
X1333630Y381425D01*
X1332259Y382551D01*
X1331133Y383922D01*
X1330297Y385487D01*
X1329782Y387184D01*
X1329608Y388950D01*
X1329782Y390716D01*
X1330297Y392413D01*
X1331133Y393978D01*
X1332259Y395350D01*
X1333630Y396475D01*
X1335195Y397311D01*
X1336893Y397826D01*
G37*
G36*
X1336893Y423226D02*
X1338656Y423400D01*
X1363708Y423400D01*
X1363708Y405300D01*
X1338656Y405300D01*
X1336893Y405474D01*
X1335195Y405989D01*
X1333630Y406825D01*
X1332259Y407951D01*
X1331133Y409322D01*
X1330297Y410887D01*
X1329782Y412584D01*
X1329608Y414350D01*
X1329782Y416116D01*
X1330297Y417813D01*
X1331133Y419378D01*
X1332259Y420750D01*
X1333630Y421875D01*
X1335195Y422711D01*
X1336893Y423226D01*
G37*
G36*
X1336893Y448626D02*
X1338656Y448800D01*
X1363708Y448800D01*
X1363708Y430700D01*
X1338656Y430700D01*
X1336893Y430874D01*
X1335195Y431389D01*
X1333630Y432225D01*
X1332259Y433351D01*
X1331133Y434722D01*
X1330297Y436287D01*
X1329782Y437984D01*
X1329608Y439750D01*
X1329782Y441516D01*
X1330297Y443213D01*
X1331133Y444778D01*
X1332259Y446150D01*
X1333630Y447275D01*
X1335195Y448111D01*
X1336893Y448626D01*
G37*
G36*
X1336893Y499426D02*
X1338656Y499600D01*
X1363708Y499600D01*
X1363708Y481500D01*
X1338656Y481500D01*
X1336893Y481674D01*
X1335195Y482189D01*
X1333630Y483025D01*
X1332259Y484151D01*
X1331133Y485522D01*
X1330297Y487087D01*
X1329782Y488784D01*
X1329608Y490550D01*
X1329782Y492316D01*
X1330297Y494013D01*
X1331133Y495578D01*
X1332259Y496950D01*
X1333630Y498075D01*
X1335195Y498911D01*
X1336893Y499426D01*
G37*
G36*
X1336893Y524826D02*
X1338656Y525000D01*
X1363708Y525000D01*
X1363708Y506900D01*
X1338656Y506900D01*
X1336893Y507074D01*
X1335195Y507589D01*
X1333630Y508425D01*
X1332259Y509551D01*
X1331133Y510922D01*
X1330297Y512487D01*
X1329782Y514184D01*
X1329608Y515950D01*
X1329782Y517716D01*
X1330297Y519413D01*
X1331133Y520978D01*
X1332259Y522350D01*
X1333630Y523475D01*
X1335195Y524311D01*
X1336893Y524826D01*
G37*
D10*
X1085850Y44450D03*
X594850Y624770D03*
X1085850Y624450D03*
D11*
X285060Y820310D03*
X215060Y820310D03*
X215060Y786310D03*
X215060Y731310D03*
X285060Y748310D03*
X285060Y728310D03*
D12*
X249960Y816410D03*
X249960Y746410D03*
D13*
X1236750Y582974D03*
X1236750Y553466D03*
D14*
X458006Y268500D03*
X448314Y268500D03*
D15*
X443760Y454656D03*
X443760Y444964D03*
X434870Y454656D03*
X434870Y444964D03*
D16*
X1084050Y807510D03*
X1084050Y720456D03*
D15*
X256770Y404834D03*
X256770Y414526D03*
X450810Y350714D03*
X450810Y360406D03*
X238530Y313986D03*
X238530Y304294D03*
X245340Y404834D03*
X245340Y414526D03*
X440650Y350714D03*
X440650Y360406D03*
X247420Y313986D03*
X247420Y304294D03*
D14*
X458006Y278660D03*
X448314Y278660D03*
D17*
X967990Y326740D03*
D12*
X1002990Y326740D03*
D18*
X473884Y402060D03*
X473884Y389360D03*
X473884Y376660D03*
X473884Y363960D03*
X473884Y351260D03*
X473884Y338560D03*
X473884Y325860D03*
X473884Y313160D03*
X473884Y300460D03*
X473884Y287760D03*
X473884Y275060D03*
X473884Y262360D03*
X473884Y249660D03*
X473884Y236960D03*
X567884Y236960D03*
X567884Y249660D03*
X567884Y262360D03*
X567884Y275060D03*
X567884Y287760D03*
X567884Y300460D03*
X567884Y313160D03*
X567884Y325860D03*
X567884Y338560D03*
X567884Y351260D03*
X567884Y363960D03*
X567884Y376660D03*
X567884Y389360D03*
X567884Y402060D03*
D19*
X319510Y474740D03*
X332210Y474740D03*
X344910Y474740D03*
X357610Y474740D03*
X370310Y474740D03*
X383010Y474740D03*
X395710Y474740D03*
X408410Y474740D03*
X421110Y474740D03*
X433810Y474740D03*
X446510Y474740D03*
X459210Y474740D03*
X471910Y474740D03*
X484610Y474740D03*
X484610Y568740D03*
X471910Y568740D03*
X459210Y568740D03*
X446510Y568740D03*
X433810Y568740D03*
X421110Y568740D03*
X408410Y568740D03*
X395710Y568740D03*
X383010Y568740D03*
X370310Y568740D03*
X357610Y568740D03*
X344910Y568740D03*
X332210Y568740D03*
X319510Y568740D03*
D20*
X1389150Y569490D02*
X1404390Y569490D01*
X1404390Y594890D02*
X1389150Y594890D01*
X1389150Y620290D02*
X1404390Y620290D01*
X1404390Y645690D02*
X1389150Y645690D01*
X1389150Y671090D02*
X1404390Y671090D01*
X1404390Y696490D02*
X1389150Y696490D01*
X1389150Y721890D02*
X1404390Y721890D01*
X1404390Y747290D02*
X1389150Y747290D01*
X1277390Y569490D02*
X1262150Y569490D01*
X1262150Y594890D02*
X1277390Y594890D01*
X1277390Y620290D02*
X1262150Y620290D01*
X1262150Y645690D02*
X1277390Y645690D01*
X1277390Y671090D02*
X1262150Y671090D01*
X1262150Y696490D02*
X1277390Y696490D01*
X1277390Y721890D02*
X1262150Y721890D01*
X1262150Y747290D02*
X1277390Y747290D01*
D21*
X673076Y221662D03*
X664948Y221662D03*
X672359Y249660D03*
X664231Y249660D03*
X673121Y277854D03*
X664993Y277854D03*
D22*
X484910Y612162D03*
X484910Y620290D03*
X458240Y612416D03*
X458240Y620544D03*
X432840Y612416D03*
X432840Y620544D03*
D23*
X393470Y700300D03*
D24*
X368070Y700300D03*
D25*
X444270Y751100D03*
X342670Y751100D03*
D23*
X824000Y700300D03*
D24*
X798600Y700300D03*
D25*
X874800Y751100D03*
X773200Y751100D03*
D26*
X917680Y114070D03*
X938000Y114070D03*
X958320Y114070D03*
X978640Y114070D03*
X927840Y96290D03*
X948160Y96290D03*
X968480Y96290D03*
D27*
X988800Y96290D03*
D28*
X889740Y70890D03*
X1016740Y70890D03*
D25*
X1034740Y105480D03*
X871740Y105480D03*
D26*
X711171Y114571D03*
X731491Y114571D03*
X751811Y114571D03*
X772131Y114571D03*
X721331Y96791D03*
X741651Y96791D03*
X761971Y96791D03*
D27*
X782291Y96791D03*
D28*
X683231Y71391D03*
X810231Y71391D03*
D25*
X828231Y105981D03*
X665231Y105981D03*
D26*
X504930Y114070D03*
X525250Y114070D03*
X545570Y114070D03*
X565890Y114070D03*
X515090Y96290D03*
X535410Y96290D03*
X555730Y96290D03*
D27*
X576050Y96290D03*
D28*
X476990Y70890D03*
X603990Y70890D03*
D25*
X621990Y105480D03*
X458990Y105480D03*
D26*
X303271Y114801D03*
X323591Y114801D03*
X343911Y114801D03*
X364231Y114801D03*
X313431Y97021D03*
X333751Y97021D03*
X354071Y97021D03*
D27*
X374391Y97021D03*
D28*
X275331Y71621D03*
X402331Y71621D03*
D25*
X420331Y106211D03*
X257331Y106211D03*
D26*
X99645Y114375D03*
X119965Y114375D03*
X140285Y114375D03*
X160605Y114375D03*
X109805Y96595D03*
X130125Y96595D03*
X150445Y96595D03*
D27*
X170765Y96595D03*
D28*
X71705Y71195D03*
X198705Y71195D03*
D25*
X216705Y105785D03*
X53705Y105785D03*
D26*
X103400Y329160D03*
X103400Y308840D03*
X103400Y288520D03*
X103400Y268200D03*
X85620Y319000D03*
X85620Y298680D03*
X85620Y278360D03*
D27*
X85620Y258040D03*
D28*
X60220Y357100D03*
X60220Y230100D03*
D25*
X94810Y212100D03*
X94810Y375100D03*
D26*
X103400Y534900D03*
X103400Y514580D03*
X103400Y494260D03*
X103400Y473940D03*
X85620Y524740D03*
X85620Y504420D03*
X85620Y484100D03*
D27*
X85620Y463780D03*
D28*
X60220Y562840D03*
X60220Y435840D03*
D25*
X94810Y417840D03*
X94810Y580840D03*
D26*
X103400Y735560D03*
X103400Y715240D03*
X103400Y694920D03*
X103400Y674600D03*
X85620Y725400D03*
X85620Y705080D03*
X85620Y684760D03*
D27*
X85620Y664440D03*
D28*
X60220Y763500D03*
X60220Y636500D03*
D25*
X94810Y618500D03*
X94810Y781500D03*
D29*
X964410Y804370D02*
X986410Y804370D01*
X929410Y782870D02*
X929410Y760870D01*
X964410Y743370D02*
X986410Y743370D01*
D30*
X1294870Y799870D03*
X1319870Y799870D03*
X1344870Y799870D03*
X1369870Y799870D03*
D31*
X1030280Y267082D03*
X1030280Y250778D03*
X176300Y297768D03*
X176300Y314072D03*
X180361Y421433D03*
X180361Y405129D03*
X195664Y421642D03*
X195664Y405338D03*
X212320Y421642D03*
X212320Y405338D03*
X227560Y421114D03*
X227560Y404810D03*
X643994Y266448D03*
X643994Y250144D03*
X926140Y265812D03*
X926140Y249508D03*
X644120Y238347D03*
X644120Y222043D03*
X649200Y293372D03*
X649200Y277068D03*
D32*
X450848Y592050D03*
X467152Y592050D03*
X477357Y592007D03*
X493661Y592007D03*
X423763Y592007D03*
X440067Y592007D03*
D31*
X494560Y722122D03*
X494560Y705818D03*
X1030280Y221568D03*
X1030280Y237872D03*
X926140Y220298D03*
X926140Y236602D03*
X815570Y246382D03*
X815570Y230078D03*
X221720Y297688D03*
X221720Y313992D03*
X207750Y297688D03*
X207750Y313992D03*
X192510Y297688D03*
X192510Y313992D03*
D33*
X238059Y390437D03*
X231560Y390437D03*
X225060Y390437D03*
X218560Y390437D03*
X212060Y390437D03*
X205560Y390437D03*
X199060Y390437D03*
X192560Y390437D03*
X186060Y390437D03*
X179561Y390437D03*
X179561Y331383D03*
X186060Y331383D03*
X192560Y331383D03*
X199060Y331383D03*
X205560Y331383D03*
X212060Y331383D03*
X218560Y331383D03*
X225060Y331383D03*
X231560Y331383D03*
X238059Y331383D03*
D34*
X1255284Y36124D02*
X1264232Y36124D01*
X1264232Y27176D01*
X1255284Y27176D01*
X1255284Y36124D01*
X1255284Y34132D02*
X1264232Y34132D01*
X1244232Y36124D02*
X1235284Y36124D01*
X1244232Y36124D02*
X1244232Y27176D01*
X1235284Y27176D01*
X1235284Y36124D01*
X1235284Y34132D02*
X1244232Y34132D01*
X1245284Y69124D02*
X1254232Y69124D01*
X1254232Y60176D01*
X1245284Y60176D01*
X1245284Y69124D01*
X1245284Y67132D02*
X1254232Y67132D01*
X1270284Y104124D02*
X1279232Y104124D01*
X1279232Y95176D01*
X1270284Y95176D01*
X1270284Y104124D01*
X1270284Y102132D02*
X1279232Y102132D01*
X1279232Y129124D02*
X1270284Y129124D01*
X1279232Y129124D02*
X1279232Y120176D01*
X1270284Y120176D01*
X1270284Y129124D01*
X1270284Y127132D02*
X1279232Y127132D01*
X1279232Y154124D02*
X1270284Y154124D01*
X1279232Y154124D02*
X1279232Y145176D01*
X1270284Y145176D01*
X1270284Y154124D01*
X1270284Y152132D02*
X1279232Y152132D01*
D35*
X1277008Y38150D02*
X1277008Y31150D01*
X1222508Y31150D02*
X1222508Y38150D01*
D36*
X1274008Y62950D02*
X1274008Y66950D01*
X1225508Y66950D02*
X1225508Y62950D01*
D37*
X257898Y336447D03*
X270598Y336447D03*
X283298Y336447D03*
X295998Y336447D03*
X308698Y336447D03*
X321398Y336447D03*
X334098Y336447D03*
X334098Y385723D03*
X321398Y385723D03*
X308698Y385723D03*
X295998Y385723D03*
X283298Y385723D03*
X270598Y385723D03*
X257898Y385723D03*
X428030Y385278D03*
X415330Y385278D03*
X402630Y385278D03*
X389930Y385278D03*
X377230Y385278D03*
X364530Y385278D03*
X351830Y385278D03*
X351830Y336002D03*
X364530Y336002D03*
X377230Y336002D03*
X389930Y336002D03*
X402630Y336002D03*
X415330Y336002D03*
X428030Y336002D03*
D38*
X626400Y507070D02*
X634900Y507070D01*
X634900Y494370D02*
X626400Y494370D01*
X626400Y481670D02*
X634900Y481670D01*
X634900Y468970D02*
X626400Y468970D01*
X626400Y456270D02*
X634900Y456270D01*
X634900Y443570D02*
X626400Y443570D01*
X626400Y430870D02*
X634900Y430870D01*
X634900Y418170D02*
X626400Y418170D01*
X680900Y418170D02*
X689400Y418170D01*
X689400Y430870D02*
X680900Y430870D01*
X680900Y443570D02*
X689400Y443570D01*
X689400Y456270D02*
X680900Y456270D01*
X680900Y468970D02*
X689400Y468970D01*
X689400Y481670D02*
X680900Y481670D01*
X680900Y494370D02*
X689400Y494370D01*
X689400Y507070D02*
X680900Y507070D01*
X633360Y399310D02*
X624860Y399310D01*
X624860Y386610D02*
X633360Y386610D01*
X633360Y373910D02*
X624860Y373910D01*
X624860Y361210D02*
X633360Y361210D01*
X633360Y348510D02*
X624860Y348510D01*
X624860Y335810D02*
X633360Y335810D01*
X633360Y323110D02*
X624860Y323110D01*
X624860Y310410D02*
X633360Y310410D01*
X679360Y310410D02*
X687860Y310410D01*
X687860Y323110D02*
X679360Y323110D01*
X679360Y335810D02*
X687860Y335810D01*
X687860Y348510D02*
X679360Y348510D01*
X679360Y361210D02*
X687860Y361210D01*
X687860Y373910D02*
X679360Y373910D01*
X679360Y386610D02*
X687860Y386610D01*
X687860Y399310D02*
X679360Y399310D01*
D17*
X857500Y328010D03*
D12*
X892500Y328010D03*
D17*
X748280Y328010D03*
D12*
X783280Y328010D03*
D17*
X967990Y460090D03*
D12*
X1002990Y460090D03*
D17*
X857500Y461360D03*
D12*
X892500Y461360D03*
D17*
X748280Y461360D03*
D12*
X783280Y461360D03*
D17*
X967990Y590900D03*
D12*
X1002990Y590900D03*
D17*
X857500Y590900D03*
D12*
X892500Y590900D03*
D17*
X748280Y590900D03*
D12*
X783280Y590900D03*
D23*
X611910Y700300D03*
D24*
X586510Y700300D03*
D25*
X662710Y751100D03*
X561110Y751100D03*
D32*
X369362Y316460D03*
X353058Y316460D03*
D31*
X614150Y576120D03*
X614150Y559816D03*
D32*
X590548Y669132D03*
X606852Y669132D03*
D39*
X1216430Y798090D03*
D40*
X1178330Y798090D03*
D41*
X507654Y440846D02*
X496846Y440846D01*
X496846Y445354D01*
X507654Y445354D01*
X507654Y440846D01*
X507654Y443471D02*
X496846Y443471D01*
X518046Y431346D02*
X528854Y431346D01*
X518046Y431346D02*
X518046Y435854D01*
X528854Y435854D01*
X528854Y431346D01*
X528854Y433971D02*
X518046Y433971D01*
X507654Y421846D02*
X496846Y421846D01*
X496846Y426354D01*
X507654Y426354D01*
X507654Y421846D01*
X507654Y424471D02*
X496846Y424471D01*
D31*
X485670Y426418D03*
X485670Y442722D03*
D32*
X566722Y490750D03*
X550418Y490750D03*
X528828Y448870D03*
X545132Y448870D03*
D31*
X503960Y486202D03*
X503960Y469898D03*
D41*
X515896Y485296D02*
X526704Y485296D01*
X515896Y485296D02*
X515896Y489804D01*
X526704Y489804D01*
X526704Y485296D01*
X526704Y487921D02*
X515896Y487921D01*
X537096Y475796D02*
X547904Y475796D01*
X537096Y475796D02*
X537096Y480304D01*
X547904Y480304D01*
X547904Y475796D01*
X547904Y478421D02*
X537096Y478421D01*
X526704Y466296D02*
X515896Y466296D01*
X515896Y470804D01*
X526704Y470804D01*
X526704Y466296D01*
X526704Y468921D02*
X515896Y468921D01*
D39*
X1099550Y578230D03*
D40*
X1074150Y578230D03*
X1099550Y552830D03*
X1074150Y552830D03*
X1099550Y527430D03*
X1074150Y527430D03*
X1099550Y502030D03*
X1074150Y502030D03*
X1099550Y476630D03*
X1074150Y476630D03*
X1099550Y451230D03*
X1074150Y451230D03*
X1099550Y425830D03*
X1074150Y425830D03*
X1099550Y400430D03*
X1074150Y400430D03*
X1099550Y375030D03*
X1074150Y375030D03*
X1099550Y349630D03*
X1074150Y349630D03*
X1099550Y324230D03*
X1074150Y324230D03*
X1099550Y298830D03*
X1074150Y298830D03*
X1099550Y273430D03*
X1074150Y273430D03*
X1099550Y248030D03*
X1074150Y248030D03*
X1099550Y222630D03*
X1074150Y222630D03*
X1099550Y197230D03*
X1074150Y197230D03*
X1099550Y171830D03*
X1074150Y171830D03*
X1099550Y146430D03*
X1074150Y146430D03*
X1099550Y121030D03*
X1074150Y121030D03*
X1099550Y95630D03*
X1074150Y95630D03*
D20*
X660630Y552120D02*
X645390Y552120D01*
X645390Y577520D02*
X660630Y577520D01*
X660630Y602920D02*
X645390Y602920D01*
D12*
X946460Y256986D03*
X1011460Y256986D03*
X1011460Y211986D03*
X946460Y211986D03*
X978960Y193486D03*
X839780Y258390D03*
X904780Y258390D03*
X904780Y213390D03*
X839780Y213390D03*
X872280Y194890D03*
X724940Y257390D03*
X789940Y257390D03*
X789940Y212390D03*
X724940Y212390D03*
X757440Y193890D03*
D31*
X271250Y402937D03*
X271250Y419241D03*
X283950Y403098D03*
X283950Y419402D03*
X308080Y403098D03*
X308080Y419402D03*
X321201Y403098D03*
X321201Y419402D03*
X309140Y314452D03*
X309140Y298148D03*
X296440Y314452D03*
X296440Y298148D03*
X273580Y314452D03*
X273580Y298148D03*
X260880Y314452D03*
X260880Y298148D03*
D15*
X570000Y584964D03*
X570000Y594656D03*
X596670Y584964D03*
X596670Y594656D03*
D42*
X570548Y575920D03*
X570548Y566420D03*
X570548Y556920D03*
X597852Y556920D03*
X597852Y566420D03*
X597852Y575920D03*
D31*
X604520Y527582D03*
X604520Y511278D03*
X544127Y508503D03*
X544127Y524807D03*
D15*
X562610Y534904D03*
X562610Y544596D03*
X589280Y534904D03*
X589280Y544596D03*
D42*
X562928Y527660D03*
X562928Y518160D03*
X562928Y508660D03*
X590232Y508660D03*
X590232Y518160D03*
X590232Y527660D03*
D43*
X278170Y512064D03*
X271670Y512064D03*
X265170Y512064D03*
X258670Y512064D03*
X252170Y512064D03*
X245670Y512064D03*
X239170Y512064D03*
X232670Y512064D03*
X226170Y512064D03*
X219670Y512064D03*
X219670Y456692D03*
X226170Y456692D03*
X232670Y456692D03*
X239170Y456692D03*
X245670Y456692D03*
X252170Y456692D03*
X258670Y456692D03*
X265170Y456692D03*
X271670Y456692D03*
X278170Y456692D03*
X219820Y610362D03*
X226320Y610362D03*
X232820Y610362D03*
X239320Y610362D03*
X245820Y610362D03*
X252320Y610362D03*
X258820Y610362D03*
X265320Y610362D03*
X271820Y610362D03*
X278320Y610362D03*
X278320Y665734D03*
X271820Y665734D03*
X265320Y665734D03*
X258820Y665734D03*
X252320Y665734D03*
X245820Y665734D03*
X239320Y665734D03*
X232820Y665734D03*
X226320Y665734D03*
X219820Y665734D03*
D44*
X255657Y543243D02*
X273903Y543243D01*
X273903Y538797D01*
X255657Y538797D01*
X255657Y543243D01*
X255657Y541386D02*
X273903Y541386D01*
X273903Y555943D02*
X255657Y555943D01*
X273903Y555943D02*
X273903Y551497D01*
X255657Y551497D01*
X255657Y555943D01*
X255657Y554086D02*
X273903Y554086D01*
X273903Y568643D02*
X255657Y568643D01*
X273903Y568643D02*
X273903Y564197D01*
X255657Y564197D01*
X255657Y568643D01*
X255657Y566786D02*
X273903Y566786D01*
X273903Y581343D02*
X255657Y581343D01*
X273903Y581343D02*
X273903Y576897D01*
X255657Y576897D01*
X255657Y581343D01*
X255657Y579486D02*
X273903Y579486D01*
X224403Y581343D02*
X206157Y581343D01*
X224403Y581343D02*
X224403Y576897D01*
X206157Y576897D01*
X206157Y581343D01*
X206157Y579486D02*
X224403Y579486D01*
X224403Y568643D02*
X206157Y568643D01*
X224403Y568643D02*
X224403Y564197D01*
X206157Y564197D01*
X206157Y568643D01*
X206157Y566786D02*
X224403Y566786D01*
X224403Y555943D02*
X206157Y555943D01*
X224403Y555943D02*
X224403Y551497D01*
X206157Y551497D01*
X206157Y555943D01*
X206157Y554086D02*
X224403Y554086D01*
X224403Y543243D02*
X206157Y543243D01*
X224403Y543243D02*
X224403Y538797D01*
X206157Y538797D01*
X206157Y543243D01*
X206157Y541386D02*
X224403Y541386D01*
D15*
X196850Y542524D03*
X196850Y552216D03*
X280670Y562844D03*
X280670Y572536D03*
X198120Y567924D03*
X198120Y577616D03*
D14*
X246614Y679450D03*
X256306Y679450D03*
X246614Y596900D03*
X256306Y596900D03*
X252496Y525780D03*
X242804Y525780D03*
X251226Y443230D03*
X241534Y443230D03*
D45*
X1036090Y702840D03*
X1215160Y552980D03*
X1030280Y210670D03*
X1306600Y83080D03*
X1196110Y84350D03*
X650340Y418280D03*
X1345970Y213890D03*
X926140Y209400D03*
X1179830Y336880D03*
X1253490Y465150D03*
X1316990Y337820D03*
X815340Y257810D03*
X654050Y266700D03*
X659130Y295910D03*
X248920Y566420D03*
X196850Y560070D03*
X440690Y368300D03*
X450850Y368300D03*
X245110Y421640D03*
X256540Y421640D03*
X654050Y240877D03*
X421640Y603250D03*
X448310Y603250D03*
X474980Y603250D03*
X176530Y288290D03*
X191770Y287020D03*
X208280Y287020D03*
X222250Y287020D03*
X238760Y295910D03*
X247650Y295910D03*
X351790Y369570D03*
X231140Y318770D03*
X180340Y433070D03*
X191770Y433070D03*
X212090Y431800D03*
X228600Y431800D03*
X238760Y599440D03*
X259191Y521970D03*
X234950Y525780D03*
X256540Y688340D03*
X238760Y676910D03*
X241300Y435610D03*
X254000Y589280D03*
X259080Y444500D03*
X440690Y278130D03*
X440690Y267970D03*
X494030Y288290D03*
X444500Y436880D03*
X435610Y436880D03*
X439420Y461351D03*
X495300Y734060D03*
X575310Y544596D03*
X572770Y515620D03*
X581660Y594656D03*
X582930Y566420D03*
X607060Y655320D03*
X332470Y321310D03*
X613410Y309880D03*
X237166Y402266D03*
X180340Y377190D03*
X485140Y601980D03*
X683260Y278130D03*
X681990Y250190D03*
X681990Y222250D03*
X237211Y411201D03*
X458470Y603250D03*
X433070Y603250D03*
X252413Y320357D03*
X246380Y688340D03*
X186690Y542290D03*
X251460Y435610D03*
X458470Y259080D03*
X552450Y534670D03*
X561340Y584200D03*
X458470Y354330D03*
X445770Y551180D03*
X548640Y275590D03*
X544830Y436880D03*
X454553Y454660D03*
X566950Y477814D03*
X150614Y382270D03*
X120650Y548640D03*
X905510Y170180D03*
X439453Y638777D03*
X439420Y658370D03*
X322580Y156210D03*
X695960Y165100D03*
X439453Y645297D03*
X318770Y662940D03*
X486410Y165100D03*
X439453Y651817D03*
X318770Y670560D03*
X318803Y684733D03*
X318770Y678180D03*
X773430Y533400D03*
X773430Y554990D03*
X610870Y590550D03*
X505460Y495300D03*
X502920Y452120D03*
X600710Y538480D03*
X364490Y354330D03*
X518160Y421640D03*
X533646Y468876D03*
X381000Y316230D03*
X267632Y444429D03*
X232410Y444500D03*
X259191Y529695D03*
X224790Y525780D03*
X265057Y592315D03*
X140970Y541020D03*
X115570Y646007D03*
X788670Y444500D03*
X782320Y431800D03*
M02*
