G04 EAGLE Gerber RS-274X export*
G75*
%MOMM*%
%FSLAX34Y34*%
%LPD*%
%INSilkscreen Bottom*%
%IPPOS*%
%AMOC8*
5,1,8,0,0,1.08239X$1,22.5*%
G01*
G04 Define Apertures*
%ADD10C,0.127000*%
%ADD11C,0.200000*%
G36*
X40221Y204255D02*
X32474Y204255D01*
X32474Y205597D01*
X35484Y205597D01*
X35484Y216617D01*
X36940Y216617D01*
X39862Y214608D01*
X39862Y213116D01*
X37072Y215108D01*
X37072Y205597D01*
X40221Y205597D01*
X40221Y204255D01*
G37*
G36*
X46549Y204079D02*
X46137Y204095D01*
X45748Y204143D01*
X45380Y204224D01*
X45036Y204337D01*
X44714Y204482D01*
X44414Y204659D01*
X44137Y204868D01*
X43882Y205110D01*
X43654Y205380D01*
X43456Y205673D01*
X43289Y205991D01*
X43152Y206333D01*
X43045Y206698D01*
X42969Y207088D01*
X42923Y207502D01*
X42908Y207939D01*
X42908Y216617D01*
X46953Y216617D01*
X46953Y215248D01*
X44575Y215248D01*
X44575Y207904D01*
X44583Y207611D01*
X44608Y207335D01*
X44649Y207078D01*
X44707Y206839D01*
X44781Y206619D01*
X44871Y206416D01*
X44978Y206232D01*
X45102Y206066D01*
X45239Y205919D01*
X45389Y205792D01*
X45551Y205684D01*
X45725Y205596D01*
X45910Y205527D01*
X46108Y205478D01*
X46318Y205449D01*
X46540Y205439D01*
X46744Y205448D01*
X46940Y205475D01*
X47126Y205519D01*
X47304Y205582D01*
X47473Y205662D01*
X47633Y205760D01*
X47784Y205876D01*
X47927Y206009D01*
X48059Y206159D01*
X48178Y206322D01*
X48286Y206500D01*
X48381Y206691D01*
X48463Y206897D01*
X48534Y207116D01*
X48592Y207350D01*
X48637Y207597D01*
X50278Y207325D01*
X50195Y206932D01*
X50091Y206564D01*
X49968Y206222D01*
X49825Y205905D01*
X49661Y205613D01*
X49478Y205347D01*
X49275Y205106D01*
X49052Y204891D01*
X48809Y204700D01*
X48546Y204536D01*
X48263Y204396D01*
X47960Y204282D01*
X47637Y204193D01*
X47295Y204130D01*
X46932Y204092D01*
X46549Y204079D01*
G37*
D10*
X33150Y392460D02*
X33150Y224760D01*
X220850Y224760D01*
X220850Y392460D01*
X33150Y392460D01*
D11*
X26940Y264160D02*
X26942Y264223D01*
X26948Y264285D01*
X26958Y264347D01*
X26971Y264409D01*
X26989Y264469D01*
X27010Y264528D01*
X27035Y264586D01*
X27064Y264642D01*
X27096Y264696D01*
X27131Y264748D01*
X27169Y264797D01*
X27211Y264845D01*
X27255Y264889D01*
X27303Y264931D01*
X27352Y264969D01*
X27404Y265004D01*
X27458Y265036D01*
X27514Y265065D01*
X27572Y265090D01*
X27631Y265111D01*
X27691Y265129D01*
X27753Y265142D01*
X27815Y265152D01*
X27877Y265158D01*
X27940Y265160D01*
X28003Y265158D01*
X28065Y265152D01*
X28127Y265142D01*
X28189Y265129D01*
X28249Y265111D01*
X28308Y265090D01*
X28366Y265065D01*
X28422Y265036D01*
X28476Y265004D01*
X28528Y264969D01*
X28577Y264931D01*
X28625Y264889D01*
X28669Y264845D01*
X28711Y264797D01*
X28749Y264748D01*
X28784Y264696D01*
X28816Y264642D01*
X28845Y264586D01*
X28870Y264528D01*
X28891Y264469D01*
X28909Y264409D01*
X28922Y264347D01*
X28932Y264285D01*
X28938Y264223D01*
X28940Y264160D01*
X28938Y264097D01*
X28932Y264035D01*
X28922Y263973D01*
X28909Y263911D01*
X28891Y263851D01*
X28870Y263792D01*
X28845Y263734D01*
X28816Y263678D01*
X28784Y263624D01*
X28749Y263572D01*
X28711Y263523D01*
X28669Y263475D01*
X28625Y263431D01*
X28577Y263389D01*
X28528Y263351D01*
X28476Y263316D01*
X28422Y263284D01*
X28366Y263255D01*
X28308Y263230D01*
X28249Y263209D01*
X28189Y263191D01*
X28127Y263178D01*
X28065Y263168D01*
X28003Y263162D01*
X27940Y263160D01*
X27877Y263162D01*
X27815Y263168D01*
X27753Y263178D01*
X27691Y263191D01*
X27631Y263209D01*
X27572Y263230D01*
X27514Y263255D01*
X27458Y263284D01*
X27404Y263316D01*
X27352Y263351D01*
X27303Y263389D01*
X27255Y263431D01*
X27211Y263475D01*
X27169Y263523D01*
X27131Y263572D01*
X27096Y263624D01*
X27064Y263678D01*
X27035Y263734D01*
X27010Y263792D01*
X26989Y263851D01*
X26971Y263911D01*
X26958Y263973D01*
X26948Y264035D01*
X26942Y264097D01*
X26940Y264160D01*
M02*
