G04 EAGLE Gerber RS-274X export*
G75*
%MOMM*%
%FSLAX34Y34*%
%LPD*%
%INSilkscreen Top*%
%IPPOS*%
%AMOC8*
5,1,8,0,0,1.08239X$1,22.5*%
G01*
G04 Define Apertures*
%ADD10C,0.152400*%
%ADD11C,0.500000*%
%ADD12C,0.120000*%
%ADD13C,0.127000*%
G36*
X250351Y496527D02*
X248560Y496527D01*
X248560Y501728D01*
X243309Y501728D01*
X243309Y503532D01*
X248560Y503532D01*
X248560Y508734D01*
X250351Y508734D01*
X250351Y503532D01*
X255602Y503532D01*
X255602Y501728D01*
X250351Y501728D01*
X250351Y496527D01*
G37*
G36*
X278788Y496416D02*
X276825Y496416D01*
X276825Y502550D01*
X278788Y502550D01*
X278788Y496416D01*
G37*
G36*
X87938Y153162D02*
X86829Y153162D01*
X90049Y161052D01*
X91264Y161052D01*
X94434Y153162D01*
X93342Y153162D01*
X92440Y155469D01*
X88845Y155469D01*
X87938Y153162D01*
G37*
%LPC*%
G36*
X92121Y156304D02*
X91107Y158908D01*
X90951Y159319D01*
X90794Y159781D01*
X90643Y160246D01*
X90592Y160089D01*
X90419Y159559D01*
X90178Y158896D01*
X89170Y156304D01*
X92121Y156304D01*
G37*
%LPD*%
G36*
X98189Y154170D02*
X97366Y154170D01*
X97366Y156567D01*
X94992Y156567D01*
X94992Y157384D01*
X97366Y157384D01*
X97366Y159781D01*
X98189Y159781D01*
X98189Y157384D01*
X100564Y157384D01*
X100564Y156567D01*
X98189Y156567D01*
X98189Y154170D01*
G37*
G36*
X114777Y151892D02*
X113668Y151892D01*
X116888Y159782D01*
X118103Y159782D01*
X121273Y151892D01*
X120181Y151892D01*
X119279Y154199D01*
X115684Y154199D01*
X114777Y151892D01*
G37*
%LPC*%
G36*
X118960Y155034D02*
X117947Y157638D01*
X117790Y158049D01*
X117633Y158511D01*
X117482Y158976D01*
X117431Y158819D01*
X117258Y158289D01*
X117017Y157626D01*
X116009Y155034D01*
X118960Y155034D01*
G37*
%LPD*%
G36*
X124580Y154490D02*
X121780Y154490D01*
X121780Y155386D01*
X124580Y155386D01*
X124580Y154490D01*
G37*
G36*
X148331Y151892D02*
X145380Y151892D01*
X145380Y159782D01*
X147990Y159782D01*
X148476Y159767D01*
X148935Y159720D01*
X149364Y159641D01*
X149765Y159531D01*
X150138Y159390D01*
X150482Y159217D01*
X150797Y159013D01*
X151084Y158777D01*
X151339Y158513D01*
X151560Y158222D01*
X151747Y157904D01*
X151900Y157560D01*
X152020Y157189D01*
X152105Y156792D01*
X152156Y156369D01*
X152173Y155918D01*
X152165Y155618D01*
X152143Y155327D01*
X152106Y155046D01*
X152054Y154774D01*
X151987Y154512D01*
X151905Y154259D01*
X151808Y154016D01*
X151697Y153782D01*
X151572Y153560D01*
X151434Y153351D01*
X151284Y153156D01*
X151121Y152973D01*
X150946Y152805D01*
X150759Y152650D01*
X150559Y152508D01*
X150347Y152379D01*
X150125Y152265D01*
X149894Y152166D01*
X149654Y152082D01*
X149406Y152014D01*
X149150Y151961D01*
X148886Y151922D01*
X148613Y151900D01*
X148331Y151892D01*
G37*
%LPC*%
G36*
X148208Y152749D02*
X148629Y152773D01*
X149023Y152844D01*
X149392Y152963D01*
X149734Y153130D01*
X150044Y153341D01*
X150316Y153594D01*
X150549Y153890D01*
X150745Y154227D01*
X150899Y154602D01*
X151009Y155008D01*
X151076Y155447D01*
X151098Y155918D01*
X151085Y156274D01*
X151047Y156608D01*
X150985Y156921D01*
X150897Y157211D01*
X150784Y157480D01*
X150646Y157727D01*
X150482Y157952D01*
X150294Y158156D01*
X150082Y158336D01*
X149847Y158492D01*
X149590Y158625D01*
X149310Y158733D01*
X149008Y158817D01*
X148684Y158877D01*
X148337Y158914D01*
X147967Y158926D01*
X146450Y158926D01*
X146450Y152749D01*
X148208Y152749D01*
G37*
%LPD*%
G36*
X140678Y151780D02*
X140327Y151788D01*
X139995Y151811D01*
X139682Y151851D01*
X139388Y151905D01*
X139112Y151976D01*
X138856Y152062D01*
X138619Y152164D01*
X138400Y152281D01*
X138201Y152414D01*
X138020Y152563D01*
X137859Y152728D01*
X137716Y152908D01*
X137592Y153103D01*
X137488Y153315D01*
X137402Y153542D01*
X137335Y153785D01*
X138371Y153992D01*
X138422Y153820D01*
X138486Y153660D01*
X138562Y153512D01*
X138651Y153375D01*
X138752Y153251D01*
X138867Y153138D01*
X138993Y153037D01*
X139133Y152948D01*
X139450Y152802D01*
X139820Y152698D01*
X140242Y152635D01*
X140717Y152614D01*
X141206Y152637D01*
X141635Y152703D01*
X141828Y152753D01*
X142005Y152814D01*
X142168Y152887D01*
X142316Y152970D01*
X142448Y153064D01*
X142562Y153169D01*
X142659Y153284D01*
X142738Y153409D01*
X142800Y153545D01*
X142844Y153691D01*
X142870Y153847D01*
X142879Y154014D01*
X142868Y154198D01*
X142835Y154364D01*
X142780Y154512D01*
X142703Y154642D01*
X142605Y154757D01*
X142490Y154861D01*
X142358Y154956D01*
X142207Y155039D01*
X141857Y155183D01*
X141445Y155302D01*
X140465Y155532D01*
X139643Y155739D01*
X139316Y155843D01*
X139046Y155946D01*
X138816Y156053D01*
X138612Y156165D01*
X138434Y156284D01*
X138281Y156408D01*
X138150Y156541D01*
X138034Y156685D01*
X137935Y156839D01*
X137853Y157005D01*
X137788Y157182D01*
X137742Y157372D01*
X137714Y157574D01*
X137705Y157789D01*
X137717Y158035D01*
X137753Y158267D01*
X137814Y158484D01*
X137898Y158686D01*
X138008Y158874D01*
X138141Y159048D01*
X138298Y159207D01*
X138480Y159351D01*
X138685Y159480D01*
X138910Y159591D01*
X139156Y159686D01*
X139423Y159763D01*
X139711Y159823D01*
X140020Y159866D01*
X140350Y159891D01*
X140701Y159900D01*
X141027Y159894D01*
X141333Y159874D01*
X141620Y159842D01*
X141886Y159797D01*
X142133Y159739D01*
X142361Y159668D01*
X142568Y159585D01*
X142756Y159488D01*
X142927Y159376D01*
X143085Y159246D01*
X143229Y159098D01*
X143361Y158932D01*
X143479Y158747D01*
X143583Y158545D01*
X143675Y158324D01*
X143753Y158086D01*
X142700Y157901D01*
X142593Y158193D01*
X142448Y158442D01*
X142263Y158648D01*
X142039Y158811D01*
X141772Y158934D01*
X141458Y159023D01*
X141097Y159076D01*
X140689Y159094D01*
X140244Y159074D01*
X139855Y159015D01*
X139522Y158917D01*
X139245Y158780D01*
X139128Y158697D01*
X139027Y158604D01*
X138941Y158501D01*
X138871Y158389D01*
X138816Y158268D01*
X138777Y158136D01*
X138754Y157995D01*
X138746Y157845D01*
X138758Y157671D01*
X138794Y157512D01*
X138855Y157370D01*
X138939Y157243D01*
X139047Y157128D01*
X139175Y157023D01*
X139325Y156927D01*
X139497Y156840D01*
X139724Y156752D01*
X140041Y156655D01*
X140947Y156434D01*
X141672Y156263D01*
X142026Y156168D01*
X142364Y156056D01*
X142684Y155925D01*
X142983Y155773D01*
X143252Y155592D01*
X143484Y155375D01*
X143673Y155119D01*
X143817Y154821D01*
X143870Y154654D01*
X143907Y154474D01*
X143930Y154279D01*
X143937Y154070D01*
X143924Y153805D01*
X143884Y153555D01*
X143817Y153321D01*
X143724Y153102D01*
X143604Y152898D01*
X143457Y152710D01*
X143284Y152537D01*
X143083Y152379D01*
X142859Y152239D01*
X142613Y152117D01*
X142345Y152014D01*
X142055Y151930D01*
X141744Y151864D01*
X141410Y151817D01*
X141055Y151789D01*
X140678Y151780D01*
G37*
G36*
X167062Y151780D02*
X166793Y151788D01*
X166537Y151810D01*
X166294Y151848D01*
X166065Y151900D01*
X165849Y151968D01*
X165647Y152051D01*
X165457Y152149D01*
X165281Y152262D01*
X165120Y152389D01*
X164974Y152529D01*
X164843Y152683D01*
X164728Y152851D01*
X164629Y153032D01*
X164545Y153227D01*
X164477Y153435D01*
X164424Y153656D01*
X165444Y153774D01*
X165539Y153499D01*
X165666Y153262D01*
X165824Y153060D01*
X166013Y152896D01*
X166234Y152768D01*
X166486Y152676D01*
X166770Y152621D01*
X167084Y152603D01*
X167282Y152611D01*
X167468Y152634D01*
X167644Y152672D01*
X167808Y152726D01*
X167962Y152795D01*
X168104Y152879D01*
X168235Y152978D01*
X168356Y153093D01*
X168463Y153221D01*
X168556Y153361D01*
X168635Y153512D01*
X168700Y153675D01*
X168750Y153849D01*
X168786Y154035D01*
X168808Y154232D01*
X168815Y154440D01*
X168808Y154622D01*
X168786Y154795D01*
X168750Y154958D01*
X168699Y155113D01*
X168634Y155259D01*
X168555Y155397D01*
X168461Y155525D01*
X168353Y155644D01*
X168232Y155752D01*
X168102Y155845D01*
X167961Y155924D01*
X167810Y155988D01*
X167650Y156039D01*
X167479Y156074D01*
X167298Y156096D01*
X167107Y156103D01*
X166906Y156095D01*
X166712Y156071D01*
X166525Y156031D01*
X166345Y155974D01*
X166169Y155899D01*
X165992Y155801D01*
X165816Y155680D01*
X165640Y155538D01*
X164654Y155538D01*
X164917Y159782D01*
X169403Y159782D01*
X169403Y158926D01*
X165836Y158926D01*
X165684Y156422D01*
X165853Y156541D01*
X166032Y156643D01*
X166221Y156730D01*
X166419Y156800D01*
X166628Y156856D01*
X166847Y156895D01*
X167075Y156919D01*
X167314Y156926D01*
X167598Y156916D01*
X167867Y156884D01*
X168121Y156830D01*
X168360Y156756D01*
X168585Y156660D01*
X168795Y156542D01*
X168990Y156403D01*
X169170Y156243D01*
X169332Y156066D01*
X169473Y155876D01*
X169592Y155673D01*
X169689Y155456D01*
X169765Y155227D01*
X169819Y154985D01*
X169851Y154730D01*
X169862Y154462D01*
X169850Y154159D01*
X169816Y153871D01*
X169758Y153601D01*
X169676Y153347D01*
X169572Y153109D01*
X169445Y152888D01*
X169294Y152684D01*
X169120Y152497D01*
X168926Y152329D01*
X168713Y152183D01*
X168483Y152060D01*
X168235Y151959D01*
X167968Y151881D01*
X167684Y151825D01*
X167382Y151791D01*
X167062Y151780D01*
G37*
G36*
X174719Y151892D02*
X173611Y151892D01*
X170391Y159782D01*
X171516Y159782D01*
X173700Y154227D01*
X174171Y152833D01*
X174641Y154227D01*
X176814Y159782D01*
X177939Y159782D01*
X174719Y151892D01*
G37*
G36*
X161035Y152900D02*
X160212Y152900D01*
X160212Y155297D01*
X157838Y155297D01*
X157838Y156114D01*
X160212Y156114D01*
X160212Y158511D01*
X161035Y158511D01*
X161035Y156114D01*
X163410Y156114D01*
X163410Y155297D01*
X161035Y155297D01*
X161035Y152900D01*
G37*
G36*
X203917Y151892D02*
X200966Y151892D01*
X200966Y159782D01*
X203575Y159782D01*
X204062Y159767D01*
X204521Y159720D01*
X204950Y159641D01*
X205351Y159531D01*
X205724Y159390D01*
X206068Y159217D01*
X206383Y159013D01*
X206669Y158777D01*
X206925Y158513D01*
X207146Y158222D01*
X207333Y157904D01*
X207486Y157560D01*
X207605Y157189D01*
X207691Y156792D01*
X207742Y156369D01*
X207759Y155918D01*
X207751Y155618D01*
X207729Y155327D01*
X207692Y155046D01*
X207640Y154774D01*
X207573Y154512D01*
X207491Y154259D01*
X207394Y154016D01*
X207283Y153782D01*
X207157Y153560D01*
X207020Y153351D01*
X206870Y153156D01*
X206707Y152973D01*
X206532Y152805D01*
X206345Y152650D01*
X206145Y152508D01*
X205933Y152379D01*
X205710Y152265D01*
X205479Y152166D01*
X205240Y152082D01*
X204992Y152014D01*
X204736Y151961D01*
X204471Y151922D01*
X204198Y151900D01*
X203917Y151892D01*
G37*
%LPC*%
G36*
X203794Y152749D02*
X204215Y152773D01*
X204609Y152844D01*
X204978Y152963D01*
X205320Y153130D01*
X205630Y153341D01*
X205902Y153594D01*
X206135Y153890D01*
X206331Y154227D01*
X206485Y154602D01*
X206595Y155008D01*
X206661Y155447D01*
X206683Y155918D01*
X206671Y156274D01*
X206633Y156608D01*
X206570Y156921D01*
X206483Y157211D01*
X206370Y157480D01*
X206231Y157727D01*
X206068Y157952D01*
X205880Y158156D01*
X205668Y158336D01*
X205433Y158492D01*
X205176Y158625D01*
X204896Y158733D01*
X204594Y158817D01*
X204270Y158877D01*
X203923Y158914D01*
X203553Y158926D01*
X202035Y158926D01*
X202035Y152749D01*
X203794Y152749D01*
G37*
%LPD*%
G36*
X193637Y151892D02*
X192685Y151892D01*
X192685Y159782D01*
X193928Y159782D01*
X198195Y153018D01*
X198145Y153964D01*
X198128Y154608D01*
X198128Y159782D01*
X199091Y159782D01*
X199091Y151892D01*
X197803Y151892D01*
X193581Y158612D01*
X193609Y158069D01*
X193637Y157134D01*
X193637Y151892D01*
G37*
G36*
X187390Y151780D02*
X187086Y151788D01*
X186793Y151811D01*
X186510Y151849D01*
X186238Y151903D01*
X185977Y151972D01*
X185726Y152057D01*
X185486Y152157D01*
X185257Y152273D01*
X185039Y152403D01*
X184835Y152546D01*
X184644Y152703D01*
X184466Y152874D01*
X184302Y153058D01*
X184151Y153256D01*
X184012Y153467D01*
X183888Y153692D01*
X183777Y153929D01*
X183681Y154176D01*
X183599Y154434D01*
X183533Y154701D01*
X183481Y154979D01*
X183444Y155267D01*
X183422Y155565D01*
X183414Y155874D01*
X183430Y156340D01*
X183479Y156780D01*
X183559Y157192D01*
X183672Y157577D01*
X183817Y157936D01*
X183994Y158267D01*
X184203Y158570D01*
X184445Y158847D01*
X184715Y159094D01*
X185012Y159308D01*
X185335Y159489D01*
X185684Y159637D01*
X186059Y159752D01*
X186460Y159834D01*
X186887Y159884D01*
X187340Y159900D01*
X187660Y159893D01*
X187964Y159872D01*
X188253Y159838D01*
X188527Y159789D01*
X188785Y159727D01*
X189028Y159651D01*
X189256Y159561D01*
X189468Y159458D01*
X189667Y159339D01*
X189853Y159203D01*
X190028Y159051D01*
X190192Y158882D01*
X190343Y158697D01*
X190483Y158495D01*
X190611Y158276D01*
X190728Y158041D01*
X189709Y157738D01*
X189525Y158052D01*
X189309Y158319D01*
X189061Y158542D01*
X188782Y158718D01*
X188469Y158853D01*
X188119Y158949D01*
X187734Y159007D01*
X187312Y159026D01*
X186980Y159013D01*
X186669Y158975D01*
X186378Y158910D01*
X186107Y158820D01*
X185856Y158704D01*
X185625Y158562D01*
X185414Y158394D01*
X185223Y158200D01*
X185054Y157983D01*
X184907Y157745D01*
X184783Y157486D01*
X184681Y157206D01*
X184602Y156904D01*
X184546Y156582D01*
X184512Y156238D01*
X184501Y155874D01*
X184513Y155510D01*
X184549Y155165D01*
X184609Y154841D01*
X184693Y154536D01*
X184800Y154251D01*
X184932Y153985D01*
X185088Y153739D01*
X185268Y153513D01*
X185469Y153310D01*
X185688Y153135D01*
X185926Y152986D01*
X186182Y152864D01*
X186457Y152770D01*
X186750Y152702D01*
X187061Y152662D01*
X187390Y152648D01*
X187770Y152663D01*
X188137Y152707D01*
X188491Y152780D01*
X188832Y152883D01*
X189151Y153011D01*
X189438Y153160D01*
X189693Y153330D01*
X189916Y153522D01*
X189916Y154944D01*
X187558Y154944D01*
X187558Y155840D01*
X190902Y155840D01*
X190902Y153118D01*
X190570Y152817D01*
X190204Y152552D01*
X189802Y152323D01*
X189364Y152130D01*
X188900Y151977D01*
X188416Y151868D01*
X187913Y151802D01*
X187390Y151780D01*
G37*
G36*
X260768Y512420D02*
X256152Y512420D01*
X256152Y524761D01*
X260234Y524761D01*
X260620Y524755D01*
X260995Y524736D01*
X261359Y524706D01*
X261712Y524663D01*
X262054Y524607D01*
X262384Y524540D01*
X262703Y524460D01*
X263011Y524368D01*
X263308Y524263D01*
X263594Y524147D01*
X263868Y524018D01*
X264132Y523876D01*
X264384Y523723D01*
X264625Y523557D01*
X264854Y523379D01*
X265073Y523189D01*
X265279Y522987D01*
X265472Y522775D01*
X265652Y522552D01*
X265818Y522320D01*
X265971Y522076D01*
X266111Y521823D01*
X266238Y521559D01*
X266351Y521285D01*
X266450Y521000D01*
X266537Y520705D01*
X266610Y520400D01*
X266670Y520084D01*
X266717Y519758D01*
X266750Y519421D01*
X266770Y519075D01*
X266777Y518717D01*
X266765Y518248D01*
X266730Y517793D01*
X266672Y517352D01*
X266590Y516927D01*
X266486Y516517D01*
X266358Y516122D01*
X266207Y515741D01*
X266032Y515376D01*
X265836Y515028D01*
X265621Y514702D01*
X265386Y514396D01*
X265132Y514111D01*
X264859Y513848D01*
X264566Y513605D01*
X264253Y513383D01*
X263921Y513182D01*
X263573Y513003D01*
X263212Y512849D01*
X262837Y512718D01*
X262450Y512610D01*
X262049Y512527D01*
X261635Y512468D01*
X261208Y512432D01*
X260768Y512420D01*
G37*
%LPC*%
G36*
X260575Y513760D02*
X260910Y513769D01*
X261234Y513797D01*
X261547Y513844D01*
X261851Y513909D01*
X262144Y513993D01*
X262427Y514095D01*
X262700Y514216D01*
X262962Y514356D01*
X263212Y514513D01*
X263447Y514686D01*
X263667Y514876D01*
X263872Y515083D01*
X264062Y515305D01*
X264237Y515545D01*
X264398Y515800D01*
X264543Y516072D01*
X264672Y516359D01*
X264784Y516658D01*
X264879Y516970D01*
X264957Y517294D01*
X265017Y517631D01*
X265060Y517981D01*
X265086Y518343D01*
X265095Y518717D01*
X265075Y519274D01*
X265016Y519797D01*
X264918Y520285D01*
X264781Y520740D01*
X264604Y521160D01*
X264388Y521546D01*
X264133Y521898D01*
X263838Y522216D01*
X263506Y522499D01*
X263139Y522743D01*
X262737Y522950D01*
X262300Y523120D01*
X261827Y523251D01*
X261320Y523345D01*
X260777Y523402D01*
X260199Y523421D01*
X257825Y523421D01*
X257825Y513760D01*
X260575Y513760D01*
G37*
%LPD*%
G36*
X253906Y512420D02*
X244184Y512420D01*
X244184Y524761D01*
X253547Y524761D01*
X253547Y523394D01*
X245857Y523394D01*
X245857Y519436D01*
X253021Y519436D01*
X253021Y518087D01*
X245857Y518087D01*
X245857Y513786D01*
X253906Y513786D01*
X253906Y512420D01*
G37*
G36*
X242124Y512420D02*
X234215Y512420D01*
X234215Y524761D01*
X235888Y524761D01*
X235888Y513786D01*
X242124Y513786D01*
X242124Y512420D01*
G37*
G36*
X267652Y403860D02*
X265979Y403860D01*
X265979Y416201D01*
X267652Y416201D01*
X267652Y410017D01*
X273599Y416201D01*
X275570Y416201D01*
X270315Y410841D01*
X276271Y403860D01*
X274195Y403860D01*
X269264Y409816D01*
X267652Y408590D01*
X267652Y403860D01*
G37*
G36*
X258467Y403685D02*
X258009Y403697D01*
X257566Y403733D01*
X257139Y403794D01*
X256728Y403879D01*
X256332Y403988D01*
X255952Y404121D01*
X255588Y404278D01*
X255240Y404460D01*
X254909Y404664D01*
X254599Y404889D01*
X254309Y405135D01*
X254040Y405402D01*
X253791Y405689D01*
X253561Y405997D01*
X253353Y406326D01*
X253164Y406676D01*
X252997Y407044D01*
X252852Y407429D01*
X252729Y407831D01*
X252629Y408249D01*
X252551Y408684D01*
X252495Y409135D01*
X252461Y409603D01*
X252450Y410087D01*
X252456Y410451D01*
X252475Y410805D01*
X252506Y411149D01*
X252550Y411483D01*
X252606Y411807D01*
X252674Y412121D01*
X252755Y412425D01*
X252849Y412719D01*
X252955Y413003D01*
X253073Y413277D01*
X253347Y413795D01*
X253671Y414274D01*
X254044Y414712D01*
X254462Y415104D01*
X254918Y415444D01*
X255160Y415594D01*
X255412Y415731D01*
X255674Y415855D01*
X255945Y415966D01*
X256226Y416065D01*
X256516Y416149D01*
X256816Y416221D01*
X257125Y416280D01*
X257444Y416326D01*
X257773Y416359D01*
X258111Y416378D01*
X258459Y416385D01*
X258941Y416373D01*
X259403Y416337D01*
X259845Y416276D01*
X260267Y416192D01*
X260669Y416084D01*
X261050Y415951D01*
X261411Y415795D01*
X261752Y415614D01*
X262071Y415410D01*
X262369Y415182D01*
X262645Y414931D01*
X262899Y414657D01*
X263131Y414360D01*
X263341Y414039D01*
X263530Y413695D01*
X263696Y413328D01*
X262111Y412802D01*
X261995Y413064D01*
X261864Y413309D01*
X261716Y413539D01*
X261551Y413753D01*
X261371Y413951D01*
X261174Y414133D01*
X260961Y414299D01*
X260731Y414449D01*
X260488Y414583D01*
X260234Y414698D01*
X259969Y414796D01*
X259692Y414876D01*
X259405Y414938D01*
X259106Y414983D01*
X258797Y415009D01*
X258476Y415018D01*
X257978Y414998D01*
X257508Y414936D01*
X257067Y414833D01*
X256654Y414689D01*
X256270Y414503D01*
X255914Y414277D01*
X255587Y414009D01*
X255288Y413700D01*
X255021Y413355D01*
X254790Y412980D01*
X254594Y412574D01*
X254434Y412138D01*
X254309Y411671D01*
X254220Y411174D01*
X254167Y410646D01*
X254149Y410087D01*
X254168Y409534D01*
X254224Y409009D01*
X254316Y408511D01*
X254446Y408041D01*
X254613Y407599D01*
X254817Y407185D01*
X255058Y406798D01*
X255336Y406439D01*
X255646Y406116D01*
X255982Y405836D01*
X256344Y405599D01*
X256732Y405405D01*
X257146Y405254D01*
X257587Y405146D01*
X258053Y405081D01*
X258546Y405060D01*
X258865Y405070D01*
X259174Y405100D01*
X259473Y405150D01*
X259762Y405220D01*
X260041Y405311D01*
X260309Y405421D01*
X260568Y405551D01*
X260817Y405701D01*
X261055Y405872D01*
X261284Y406062D01*
X261502Y406273D01*
X261711Y406503D01*
X261909Y406754D01*
X262097Y407025D01*
X262276Y407315D01*
X262444Y407626D01*
X263810Y406943D01*
X263610Y406556D01*
X263390Y406194D01*
X263152Y405855D01*
X262894Y405539D01*
X262616Y405248D01*
X262320Y404981D01*
X262004Y404737D01*
X261669Y404517D01*
X261317Y404322D01*
X260951Y404153D01*
X260572Y404010D01*
X260178Y403893D01*
X259771Y403802D01*
X259351Y403737D01*
X258916Y403698D01*
X258467Y403685D01*
G37*
G36*
X245982Y403860D02*
X238073Y403860D01*
X238073Y416201D01*
X239746Y416201D01*
X239746Y405226D01*
X245982Y405226D01*
X245982Y403860D01*
G37*
G36*
X249899Y403860D02*
X248226Y403860D01*
X248226Y416201D01*
X249899Y416201D01*
X249899Y403860D01*
G37*
G36*
X116887Y197358D02*
X115214Y197358D01*
X115214Y209699D01*
X120408Y209699D01*
X120913Y209684D01*
X121388Y209638D01*
X121833Y209562D01*
X122250Y209456D01*
X122637Y209319D01*
X122995Y209152D01*
X123323Y208954D01*
X123623Y208727D01*
X123890Y208471D01*
X124121Y208191D01*
X124316Y207885D01*
X124477Y207555D01*
X124601Y207200D01*
X124690Y206820D01*
X124743Y206415D01*
X124761Y205985D01*
X124743Y205558D01*
X124690Y205154D01*
X124601Y204772D01*
X124476Y204413D01*
X124315Y204076D01*
X124118Y203762D01*
X123886Y203470D01*
X123618Y203200D01*
X123320Y202958D01*
X122996Y202748D01*
X122646Y202570D01*
X122271Y202425D01*
X121870Y202312D01*
X121443Y202231D01*
X120991Y202183D01*
X120513Y202166D01*
X116887Y202166D01*
X116887Y197358D01*
G37*
%LPC*%
G36*
X120277Y203489D02*
X120616Y203499D01*
X120934Y203528D01*
X121229Y203576D01*
X121503Y203644D01*
X121755Y203731D01*
X121985Y203838D01*
X122193Y203963D01*
X122379Y204109D01*
X122543Y204273D01*
X122685Y204457D01*
X122806Y204661D01*
X122904Y204883D01*
X122981Y205125D01*
X123036Y205387D01*
X123069Y205667D01*
X123080Y205968D01*
X123068Y206257D01*
X123035Y206528D01*
X122979Y206780D01*
X122900Y207014D01*
X122799Y207229D01*
X122676Y207425D01*
X122530Y207602D01*
X122361Y207761D01*
X122171Y207901D01*
X121957Y208022D01*
X121722Y208125D01*
X121464Y208209D01*
X121183Y208275D01*
X120880Y208321D01*
X120555Y208349D01*
X120207Y208359D01*
X116887Y208359D01*
X116887Y203489D01*
X120277Y203489D01*
G37*
%LPD*%
G36*
X101766Y197358D02*
X100277Y197358D01*
X100277Y209699D01*
X102475Y209699D01*
X105760Y201142D01*
X105932Y200606D01*
X106097Y200034D01*
X106312Y199180D01*
X106420Y199621D01*
X106605Y200244D01*
X106792Y200825D01*
X106907Y201142D01*
X110130Y209699D01*
X112276Y209699D01*
X112276Y197358D01*
X110770Y197358D01*
X110770Y205591D01*
X110789Y206931D01*
X110848Y208219D01*
X110441Y206822D01*
X110254Y206251D01*
X110078Y205766D01*
X106890Y197358D01*
X105716Y197358D01*
X102484Y205766D01*
X101994Y207255D01*
X101705Y208219D01*
X101731Y207246D01*
X101766Y205591D01*
X101766Y197358D01*
G37*
G36*
X88637Y197358D02*
X86903Y197358D01*
X91939Y209699D01*
X93840Y209699D01*
X98797Y197358D01*
X97089Y197358D01*
X95679Y200967D01*
X90056Y200967D01*
X88637Y197358D01*
G37*
%LPC*%
G36*
X95180Y202272D02*
X93595Y206344D01*
X93349Y206988D01*
X93104Y207711D01*
X92868Y208438D01*
X92789Y208192D01*
X92517Y207362D01*
X92141Y206327D01*
X90564Y202272D01*
X95180Y202272D01*
G37*
%LPD*%
G36*
X76870Y508000D02*
X75197Y508000D01*
X75197Y520341D01*
X81004Y520341D01*
X81510Y520326D01*
X81987Y520282D01*
X82434Y520210D01*
X82851Y520108D01*
X83238Y519976D01*
X83596Y519816D01*
X83924Y519627D01*
X84223Y519408D01*
X84488Y519163D01*
X84719Y518896D01*
X84914Y518606D01*
X85073Y518292D01*
X85197Y517956D01*
X85286Y517597D01*
X85339Y517216D01*
X85357Y516811D01*
X85344Y516474D01*
X85307Y516151D01*
X85244Y515841D01*
X85156Y515545D01*
X85044Y515263D01*
X84906Y514995D01*
X84743Y514740D01*
X84555Y514499D01*
X84345Y514275D01*
X84117Y514074D01*
X83869Y513893D01*
X83758Y513827D01*
X83602Y513735D01*
X83316Y513598D01*
X83011Y513482D01*
X82687Y513389D01*
X82344Y513316D01*
X83835Y511053D01*
X85847Y508000D01*
X83920Y508000D01*
X80715Y513124D01*
X76870Y513124D01*
X76870Y508000D01*
G37*
%LPC*%
G36*
X80907Y514446D02*
X81229Y514456D01*
X81531Y514485D01*
X81815Y514533D01*
X82080Y514601D01*
X82326Y514687D01*
X82554Y514794D01*
X82763Y514919D01*
X82953Y515064D01*
X83122Y515226D01*
X83269Y515403D01*
X83393Y515596D01*
X83494Y515805D01*
X83574Y516029D01*
X83630Y516268D01*
X83664Y516523D01*
X83675Y516794D01*
X83664Y517055D01*
X83629Y517300D01*
X83572Y517530D01*
X83492Y517743D01*
X83389Y517940D01*
X83264Y518121D01*
X83115Y518287D01*
X82944Y518436D01*
X82751Y518568D01*
X82538Y518683D01*
X82305Y518780D01*
X82051Y518860D01*
X81778Y518921D01*
X81485Y518965D01*
X81171Y518992D01*
X80837Y519001D01*
X76870Y519001D01*
X76870Y514446D01*
X80907Y514446D01*
G37*
%LPD*%
G36*
X94379Y508000D02*
X92890Y508000D01*
X92890Y510794D01*
X87075Y510794D01*
X87075Y512020D01*
X92724Y520341D01*
X94379Y520341D01*
X94379Y512038D01*
X96113Y512038D01*
X96113Y510794D01*
X94379Y510794D01*
X94379Y508000D01*
G37*
%LPC*%
G36*
X92890Y512038D02*
X92890Y518563D01*
X92645Y518099D01*
X92303Y517521D01*
X89142Y512861D01*
X88669Y512213D01*
X88528Y512038D01*
X92890Y512038D01*
G37*
%LPD*%
G36*
X236790Y236609D02*
X235117Y236609D01*
X235117Y248950D01*
X240924Y248950D01*
X241430Y248935D01*
X241907Y248891D01*
X242354Y248819D01*
X242771Y248717D01*
X243158Y248585D01*
X243516Y248425D01*
X243844Y248236D01*
X244143Y248017D01*
X244408Y247772D01*
X244639Y247505D01*
X244834Y247215D01*
X244993Y246901D01*
X245117Y246565D01*
X245206Y246206D01*
X245259Y245825D01*
X245277Y245420D01*
X245264Y245083D01*
X245227Y244760D01*
X245164Y244450D01*
X245076Y244154D01*
X244964Y243872D01*
X244826Y243604D01*
X244663Y243349D01*
X244475Y243108D01*
X244265Y242884D01*
X244037Y242683D01*
X243789Y242502D01*
X243678Y242436D01*
X243522Y242344D01*
X243236Y242207D01*
X242931Y242091D01*
X242607Y241998D01*
X242264Y241925D01*
X243755Y239662D01*
X245767Y236609D01*
X243840Y236609D01*
X240635Y241733D01*
X236790Y241733D01*
X236790Y236609D01*
G37*
%LPC*%
G36*
X240827Y243055D02*
X241149Y243065D01*
X241451Y243094D01*
X241735Y243142D01*
X242000Y243210D01*
X242246Y243296D01*
X242474Y243403D01*
X242683Y243528D01*
X242873Y243673D01*
X243042Y243835D01*
X243189Y244012D01*
X243313Y244205D01*
X243414Y244414D01*
X243494Y244638D01*
X243550Y244877D01*
X243584Y245132D01*
X243595Y245403D01*
X243584Y245664D01*
X243549Y245909D01*
X243492Y246139D01*
X243412Y246352D01*
X243309Y246549D01*
X243184Y246730D01*
X243035Y246896D01*
X242864Y247045D01*
X242671Y247177D01*
X242458Y247292D01*
X242225Y247389D01*
X241971Y247469D01*
X241698Y247530D01*
X241405Y247574D01*
X241091Y247601D01*
X240757Y247610D01*
X236790Y247610D01*
X236790Y243055D01*
X240827Y243055D01*
G37*
%LPD*%
G36*
X255683Y236609D02*
X247949Y236609D01*
X247949Y237949D01*
X251094Y237949D01*
X251094Y247443D01*
X248308Y245455D01*
X248308Y246944D01*
X251225Y248950D01*
X252679Y248950D01*
X252679Y237949D01*
X255683Y237949D01*
X255683Y236609D01*
G37*
G36*
X235520Y203589D02*
X233847Y203589D01*
X233847Y215930D01*
X239654Y215930D01*
X240160Y215915D01*
X240637Y215871D01*
X241084Y215799D01*
X241501Y215697D01*
X241888Y215565D01*
X242246Y215405D01*
X242574Y215216D01*
X242873Y214997D01*
X243138Y214752D01*
X243369Y214485D01*
X243564Y214195D01*
X243723Y213881D01*
X243847Y213545D01*
X243936Y213186D01*
X243989Y212805D01*
X244007Y212400D01*
X243994Y212063D01*
X243957Y211740D01*
X243894Y211430D01*
X243806Y211134D01*
X243694Y210852D01*
X243556Y210584D01*
X243393Y210329D01*
X243205Y210088D01*
X242995Y209864D01*
X242767Y209663D01*
X242519Y209482D01*
X242408Y209416D01*
X242252Y209324D01*
X241966Y209187D01*
X241661Y209071D01*
X241337Y208978D01*
X240994Y208905D01*
X242485Y206642D01*
X244497Y203589D01*
X242570Y203589D01*
X239365Y208713D01*
X235520Y208713D01*
X235520Y203589D01*
G37*
%LPC*%
G36*
X239557Y210035D02*
X239879Y210045D01*
X240181Y210074D01*
X240465Y210122D01*
X240730Y210190D01*
X240976Y210276D01*
X241204Y210383D01*
X241413Y210508D01*
X241603Y210653D01*
X241772Y210815D01*
X241919Y210992D01*
X242043Y211185D01*
X242144Y211394D01*
X242224Y211618D01*
X242280Y211857D01*
X242314Y212112D01*
X242325Y212383D01*
X242314Y212644D01*
X242279Y212889D01*
X242222Y213119D01*
X242142Y213332D01*
X242039Y213529D01*
X241914Y213710D01*
X241765Y213876D01*
X241594Y214025D01*
X241401Y214157D01*
X241188Y214272D01*
X240955Y214369D01*
X240701Y214449D01*
X240428Y214510D01*
X240135Y214554D01*
X239821Y214581D01*
X239487Y214590D01*
X235520Y214590D01*
X235520Y210035D01*
X239557Y210035D01*
G37*
%LPD*%
G36*
X254387Y203589D02*
X246215Y203589D01*
X246215Y204701D01*
X246451Y205199D01*
X246711Y205666D01*
X246996Y206103D01*
X247305Y206510D01*
X247631Y206893D01*
X247966Y207257D01*
X248308Y207602D01*
X248659Y207929D01*
X249365Y208541D01*
X250064Y209107D01*
X250727Y209650D01*
X251321Y210193D01*
X251588Y210468D01*
X251828Y210749D01*
X252041Y211037D01*
X252228Y211332D01*
X252379Y211639D01*
X252487Y211967D01*
X252552Y212314D01*
X252574Y212680D01*
X252564Y212927D01*
X252537Y213160D01*
X252490Y213378D01*
X252425Y213582D01*
X252341Y213772D01*
X252239Y213948D01*
X252118Y214110D01*
X251978Y214257D01*
X251822Y214388D01*
X251651Y214502D01*
X251466Y214598D01*
X251267Y214677D01*
X251052Y214739D01*
X250824Y214782D01*
X250580Y214809D01*
X250323Y214817D01*
X250077Y214809D01*
X249841Y214783D01*
X249617Y214740D01*
X249404Y214681D01*
X249202Y214604D01*
X249011Y214510D01*
X248832Y214398D01*
X248663Y214270D01*
X248508Y214126D01*
X248370Y213969D01*
X248249Y213797D01*
X248145Y213612D01*
X248058Y213413D01*
X247987Y213200D01*
X247934Y212973D01*
X247897Y212733D01*
X246285Y212882D01*
X246343Y213242D01*
X246429Y213584D01*
X246544Y213907D01*
X246687Y214211D01*
X246858Y214496D01*
X247058Y214762D01*
X247286Y215009D01*
X247542Y215238D01*
X247822Y215443D01*
X248121Y215621D01*
X248440Y215772D01*
X248778Y215895D01*
X249135Y215991D01*
X249512Y216059D01*
X249908Y216100D01*
X250323Y216114D01*
X250776Y216100D01*
X251202Y216059D01*
X251601Y215990D01*
X251973Y215894D01*
X252318Y215770D01*
X252636Y215619D01*
X252927Y215440D01*
X253191Y215233D01*
X253426Y215002D01*
X253630Y214747D01*
X253802Y214469D01*
X253943Y214168D01*
X254053Y213844D01*
X254131Y213497D01*
X254178Y213126D01*
X254194Y212733D01*
X254174Y212374D01*
X254112Y212017D01*
X254009Y211661D01*
X253866Y211305D01*
X253681Y210951D01*
X253457Y210596D01*
X253193Y210241D01*
X252889Y209886D01*
X252491Y209483D01*
X251945Y208982D01*
X251252Y208384D01*
X250410Y207688D01*
X249932Y207286D01*
X249506Y206905D01*
X249131Y206544D01*
X248808Y206203D01*
X248531Y205876D01*
X248295Y205554D01*
X248101Y205239D01*
X247949Y204929D01*
X254387Y204929D01*
X254387Y203589D01*
G37*
G36*
X268540Y203589D02*
X266867Y203589D01*
X266867Y215930D01*
X272674Y215930D01*
X273180Y215915D01*
X273657Y215871D01*
X274104Y215799D01*
X274521Y215697D01*
X274908Y215565D01*
X275266Y215405D01*
X275594Y215216D01*
X275893Y214997D01*
X276158Y214752D01*
X276389Y214485D01*
X276584Y214195D01*
X276743Y213881D01*
X276867Y213545D01*
X276956Y213186D01*
X277009Y212805D01*
X277027Y212400D01*
X277014Y212063D01*
X276977Y211740D01*
X276914Y211430D01*
X276826Y211134D01*
X276714Y210852D01*
X276576Y210584D01*
X276413Y210329D01*
X276225Y210088D01*
X276015Y209864D01*
X275787Y209663D01*
X275539Y209482D01*
X275428Y209416D01*
X275272Y209324D01*
X274986Y209187D01*
X274681Y209071D01*
X274357Y208978D01*
X274014Y208905D01*
X275505Y206642D01*
X277517Y203589D01*
X275590Y203589D01*
X272385Y208713D01*
X268540Y208713D01*
X268540Y203589D01*
G37*
%LPC*%
G36*
X272577Y210035D02*
X272899Y210045D01*
X273201Y210074D01*
X273485Y210122D01*
X273750Y210190D01*
X273996Y210276D01*
X274224Y210383D01*
X274433Y210508D01*
X274623Y210653D01*
X274792Y210815D01*
X274939Y210992D01*
X275063Y211185D01*
X275164Y211394D01*
X275244Y211618D01*
X275300Y211857D01*
X275334Y212112D01*
X275345Y212383D01*
X275334Y212644D01*
X275299Y212889D01*
X275242Y213119D01*
X275162Y213332D01*
X275059Y213529D01*
X274934Y213710D01*
X274785Y213876D01*
X274614Y214025D01*
X274421Y214157D01*
X274208Y214272D01*
X273975Y214369D01*
X273721Y214449D01*
X273448Y214510D01*
X273155Y214554D01*
X272841Y214581D01*
X272507Y214590D01*
X268540Y214590D01*
X268540Y210035D01*
X272577Y210035D01*
G37*
%LPD*%
G36*
X283334Y203414D02*
X282877Y203427D01*
X282444Y203467D01*
X282035Y203533D01*
X281649Y203625D01*
X281287Y203744D01*
X280949Y203889D01*
X280634Y204061D01*
X280343Y204259D01*
X280078Y204483D01*
X279841Y204732D01*
X279633Y205007D01*
X279453Y205307D01*
X279301Y205632D01*
X279178Y205983D01*
X279083Y206358D01*
X279016Y206760D01*
X280645Y206908D01*
X280693Y206643D01*
X280756Y206395D01*
X280836Y206164D01*
X280931Y205951D01*
X281043Y205754D01*
X281171Y205574D01*
X281315Y205412D01*
X281475Y205266D01*
X281651Y205138D01*
X281843Y205027D01*
X282052Y204933D01*
X282276Y204856D01*
X282516Y204796D01*
X282773Y204753D01*
X283045Y204727D01*
X283334Y204719D01*
X283624Y204728D01*
X283898Y204756D01*
X284155Y204801D01*
X284397Y204866D01*
X284623Y204948D01*
X284833Y205049D01*
X285026Y205168D01*
X285204Y205306D01*
X285363Y205461D01*
X285501Y205635D01*
X285618Y205826D01*
X285713Y206035D01*
X285787Y206262D01*
X285840Y206506D01*
X285872Y206768D01*
X285883Y207049D01*
X285871Y207294D01*
X285834Y207525D01*
X285774Y207742D01*
X285689Y207945D01*
X285580Y208135D01*
X285447Y208311D01*
X285289Y208473D01*
X285108Y208621D01*
X284903Y208753D01*
X284677Y208868D01*
X284430Y208965D01*
X284161Y209044D01*
X283870Y209106D01*
X283558Y209150D01*
X283225Y209177D01*
X282870Y209186D01*
X281976Y209186D01*
X281976Y210552D01*
X282835Y210552D01*
X283150Y210561D01*
X283447Y210587D01*
X283725Y210631D01*
X283985Y210693D01*
X284228Y210773D01*
X284452Y210870D01*
X284657Y210985D01*
X284845Y211117D01*
X285012Y211265D01*
X285157Y211427D01*
X285280Y211602D01*
X285380Y211790D01*
X285458Y211992D01*
X285514Y212208D01*
X285548Y212438D01*
X285559Y212680D01*
X285550Y212921D01*
X285522Y213149D01*
X285477Y213364D01*
X285413Y213566D01*
X285331Y213755D01*
X285231Y213931D01*
X285113Y214094D01*
X284976Y214244D01*
X284822Y214378D01*
X284650Y214495D01*
X284460Y214593D01*
X284253Y214674D01*
X284028Y214737D01*
X283785Y214782D01*
X283524Y214808D01*
X283246Y214817D01*
X282992Y214809D01*
X282750Y214784D01*
X282521Y214742D01*
X282304Y214684D01*
X282099Y214609D01*
X281907Y214517D01*
X281728Y214408D01*
X281560Y214283D01*
X281408Y214143D01*
X281272Y213989D01*
X281153Y213821D01*
X281051Y213639D01*
X280966Y213444D01*
X280898Y213235D01*
X280846Y213013D01*
X280812Y212777D01*
X279226Y212899D01*
X279284Y213268D01*
X279371Y213615D01*
X279485Y213942D01*
X279628Y214248D01*
X279799Y214533D01*
X279999Y214798D01*
X280227Y215041D01*
X280483Y215264D01*
X280763Y215463D01*
X281063Y215636D01*
X281381Y215782D01*
X281719Y215901D01*
X282076Y215994D01*
X282453Y216061D01*
X282849Y216100D01*
X283264Y216114D01*
X283715Y216100D01*
X284141Y216060D01*
X284540Y215992D01*
X284914Y215898D01*
X285262Y215777D01*
X285584Y215628D01*
X285880Y215453D01*
X286150Y215251D01*
X286391Y215025D01*
X286600Y214777D01*
X286777Y214509D01*
X286922Y214219D01*
X287034Y213907D01*
X287115Y213575D01*
X287163Y213222D01*
X287179Y212847D01*
X287169Y212558D01*
X287138Y212283D01*
X287086Y212022D01*
X287014Y211775D01*
X286921Y211542D01*
X286807Y211322D01*
X286673Y211116D01*
X286518Y210924D01*
X286343Y210747D01*
X286150Y210584D01*
X285937Y210436D01*
X285707Y210304D01*
X285457Y210186D01*
X285188Y210083D01*
X284901Y209995D01*
X284595Y209921D01*
X284595Y209886D01*
X284932Y209839D01*
X285249Y209773D01*
X285547Y209686D01*
X285826Y209580D01*
X286086Y209454D01*
X286326Y209308D01*
X286548Y209143D01*
X286750Y208958D01*
X286931Y208757D01*
X287087Y208543D01*
X287220Y208317D01*
X287328Y208078D01*
X287412Y207826D01*
X287472Y207562D01*
X287509Y207285D01*
X287521Y206996D01*
X287504Y206581D01*
X287453Y206190D01*
X287368Y205824D01*
X287249Y205481D01*
X287096Y205162D01*
X286910Y204868D01*
X286689Y204597D01*
X286435Y204351D01*
X286149Y204131D01*
X285834Y203941D01*
X285489Y203780D01*
X285116Y203648D01*
X284714Y203546D01*
X284283Y203472D01*
X283823Y203429D01*
X283334Y203414D01*
G37*
D10*
X233940Y424470D02*
X233940Y492470D01*
X291840Y492470D01*
X291840Y424470D01*
X233940Y424470D01*
X291040Y401690D02*
X291040Y277690D01*
X233540Y277690D02*
X233540Y401690D01*
X291040Y401690D01*
X291040Y277690D02*
X233540Y277690D01*
X125730Y165100D02*
X113030Y165100D01*
X106680Y171450D01*
X106680Y184150D01*
X113030Y190500D01*
X151130Y165100D02*
X157480Y171450D01*
X151130Y165100D02*
X138430Y165100D01*
X132080Y171450D01*
X132080Y184150D01*
X138430Y190500D01*
X151130Y190500D01*
X157480Y184150D01*
X132080Y171450D02*
X125730Y165100D01*
X132080Y184150D02*
X125730Y190500D01*
X113030Y190500D01*
X189230Y165100D02*
X201930Y165100D01*
X189230Y165100D02*
X182880Y171450D01*
X182880Y184150D01*
X189230Y190500D01*
X182880Y171450D02*
X176530Y165100D01*
X163830Y165100D01*
X157480Y171450D01*
X157480Y184150D01*
X163830Y190500D01*
X176530Y190500D01*
X182880Y184150D01*
X208280Y184150D02*
X208280Y171450D01*
X201930Y165100D01*
X208280Y184150D02*
X201930Y190500D01*
X189230Y190500D01*
X100330Y165100D02*
X87630Y165100D01*
X81280Y171450D01*
X81280Y184150D01*
X87630Y190500D01*
X106680Y171450D02*
X100330Y165100D01*
X106680Y184150D02*
X100330Y190500D01*
X87630Y190500D01*
D11*
X182400Y457200D03*
D12*
X176000Y506450D02*
X78200Y506450D01*
X176000Y506450D02*
X176000Y403650D01*
X78200Y403650D01*
X78200Y506450D01*
D13*
X236610Y264549D02*
X253610Y264549D01*
X253610Y248531D02*
X236610Y248531D01*
X236610Y235339D02*
X253610Y235339D01*
X253610Y219321D02*
X236610Y219321D01*
X268360Y235339D02*
X285360Y235339D01*
X285360Y219321D02*
X268360Y219321D01*
M02*
