G04 EAGLE Gerber RS-274X export*
G75*
%MOMM*%
%FSLAX34Y34*%
%LPD*%
%INTop Copper*%
%IPPOS*%
%AMOC8*
5,1,8,0,0,1.08239X$1,22.5*%
G01*
G04 Define Apertures*
%ADD10C,1.310000*%
%ADD11C,1.100000*%
%ADD12R,1.500000X1.500000*%
%ADD13C,1.500000*%
%ADD14R,1.150000X1.150000*%
%ADD15C,1.150000*%
%ADD16C,2.400000*%
%ADD17C,1.260000*%
%ADD18C,1.360000*%
%ADD19C,0.600000*%
%ADD20R,0.558800X1.981200*%
%ADD21R,1.650000X1.650000*%
%ADD22C,1.650000*%
%ADD23C,1.524000*%
%ADD24R,1.524000X1.524000*%
%ADD25C,2.540000*%
%ADD26R,1.500000X2.000000*%
%ADD27C,1.060000*%
%ADD28R,2.200000X1.270000*%
%ADD29R,2.115300X3.763600*%
%ADD30C,0.152400*%
%ADD31C,0.756400*%
G36*
X1576675Y157540D02*
X1576378Y157480D01*
X-52578Y157480D01*
X-52853Y157531D01*
X-53108Y157695D01*
X-53280Y157945D01*
X-53340Y158242D01*
X-53340Y970028D01*
X-53289Y970303D01*
X-53125Y970558D01*
X-52875Y970730D01*
X-52578Y970790D01*
X1576378Y970790D01*
X1576653Y970739D01*
X1576908Y970575D01*
X1577080Y970325D01*
X1577140Y970028D01*
X1577140Y472636D01*
X1577089Y472361D01*
X1576925Y472106D01*
X1576675Y471934D01*
X1576378Y471874D01*
X1561509Y471874D01*
X1560616Y470981D01*
X1560616Y449719D01*
X1561509Y448826D01*
X1576378Y448826D01*
X1576653Y448775D01*
X1576908Y448611D01*
X1577080Y448361D01*
X1577140Y448064D01*
X1577140Y440865D01*
X1577093Y440601D01*
X1576934Y440343D01*
X1576686Y440168D01*
X1576390Y440103D01*
X1576092Y440158D01*
X1575839Y440326D01*
X1575744Y440421D01*
X1569253Y443110D01*
X1562227Y443110D01*
X1555736Y440421D01*
X1550769Y435454D01*
X1548080Y428963D01*
X1548080Y421937D01*
X1550769Y415446D01*
X1555736Y410479D01*
X1562227Y407790D01*
X1569253Y407790D01*
X1575744Y410479D01*
X1575839Y410574D01*
X1576059Y410727D01*
X1576354Y410797D01*
X1576653Y410746D01*
X1576908Y410583D01*
X1577080Y410333D01*
X1577140Y410035D01*
X1577140Y402636D01*
X1577089Y402361D01*
X1576925Y402106D01*
X1576675Y401934D01*
X1576378Y401874D01*
X1561665Y401874D01*
X1561379Y401930D01*
X1561126Y402097D01*
X1554537Y408686D01*
X1505247Y408686D01*
X1504989Y408731D01*
X1504730Y408888D01*
X1504552Y409134D01*
X1504485Y409430D01*
X1504538Y409728D01*
X1504704Y409983D01*
X1504955Y410152D01*
X1505744Y410479D01*
X1510711Y415446D01*
X1513400Y421937D01*
X1513400Y428963D01*
X1510711Y435454D01*
X1505744Y440421D01*
X1499253Y443110D01*
X1492227Y443110D01*
X1485736Y440421D01*
X1480769Y435454D01*
X1478080Y428963D01*
X1478080Y421937D01*
X1480769Y415446D01*
X1485736Y410479D01*
X1486525Y410152D01*
X1486746Y410012D01*
X1486925Y409767D01*
X1486995Y409472D01*
X1486944Y409173D01*
X1486781Y408918D01*
X1486531Y408746D01*
X1486233Y408686D01*
X1472010Y408686D01*
X1458214Y394890D01*
X1458214Y367353D01*
X1472253Y353314D01*
X1472295Y353314D01*
X1472581Y353258D01*
X1472833Y353091D01*
X1496091Y329833D01*
X1496254Y329592D01*
X1496314Y329295D01*
X1496314Y253300D01*
X1496261Y253019D01*
X1496095Y252765D01*
X1495844Y252596D01*
X1493420Y251592D01*
X1492027Y250198D01*
X1491807Y250045D01*
X1491512Y249976D01*
X1491213Y250026D01*
X1490958Y250190D01*
X1490786Y250440D01*
X1490726Y250737D01*
X1490726Y300936D01*
X1440634Y351028D01*
X1292551Y351028D01*
X1292288Y351075D01*
X1292030Y351234D01*
X1291855Y351482D01*
X1291790Y351778D01*
X1291845Y352076D01*
X1292013Y352329D01*
X1294356Y354672D01*
X1294356Y359068D01*
X1291559Y361865D01*
X1291396Y362106D01*
X1291336Y362403D01*
X1291336Y513197D01*
X1286997Y517536D01*
X1286834Y517777D01*
X1286774Y518075D01*
X1286774Y527681D01*
X1285881Y528574D01*
X1262619Y528574D01*
X1261726Y527681D01*
X1261726Y523748D01*
X1261675Y523473D01*
X1261511Y523218D01*
X1261261Y523046D01*
X1260964Y522986D01*
X1242513Y522986D01*
X1242227Y523042D01*
X1241975Y523209D01*
X1239178Y526006D01*
X1234782Y526006D01*
X1231674Y522898D01*
X1231674Y518502D01*
X1234782Y515394D01*
X1239178Y515394D01*
X1241975Y518191D01*
X1242216Y518354D01*
X1242513Y518414D01*
X1260964Y518414D01*
X1261239Y518363D01*
X1261494Y518199D01*
X1261666Y517949D01*
X1261726Y517652D01*
X1261726Y513719D01*
X1262619Y512826D01*
X1284925Y512826D01*
X1285211Y512770D01*
X1285464Y512603D01*
X1286541Y511526D01*
X1286704Y511285D01*
X1286764Y510987D01*
X1286764Y362403D01*
X1286708Y362117D01*
X1286541Y361865D01*
X1283744Y359068D01*
X1283744Y354672D01*
X1286087Y352329D01*
X1286240Y352109D01*
X1286310Y351814D01*
X1286259Y351515D01*
X1286096Y351260D01*
X1285846Y351088D01*
X1285549Y351028D01*
X236721Y351028D01*
X236435Y351084D01*
X236182Y351251D01*
X205709Y381724D01*
X205546Y381965D01*
X205486Y382263D01*
X205486Y648647D01*
X198714Y655419D01*
X198553Y655655D01*
X198490Y655952D01*
X198548Y656250D01*
X199524Y658605D01*
X199524Y662195D01*
X198150Y665512D01*
X195612Y668050D01*
X192295Y669424D01*
X188705Y669424D01*
X185388Y668050D01*
X182850Y665512D01*
X181476Y662195D01*
X181476Y658605D01*
X182850Y655288D01*
X185388Y652750D01*
X188705Y651376D01*
X192295Y651376D01*
X194650Y652352D01*
X194930Y652410D01*
X195228Y652354D01*
X195481Y652186D01*
X200691Y646976D01*
X200854Y646735D01*
X200914Y646437D01*
X200914Y573770D01*
X200869Y573512D01*
X200712Y573253D01*
X200466Y573076D01*
X200170Y573008D01*
X199872Y573062D01*
X199618Y573227D01*
X199448Y573478D01*
X198150Y576612D01*
X195612Y579150D01*
X192295Y580524D01*
X188705Y580524D01*
X185388Y579150D01*
X182850Y576612D01*
X181552Y573478D01*
X181412Y573258D01*
X181167Y573078D01*
X180872Y573008D01*
X180573Y573059D01*
X180318Y573223D01*
X180146Y573473D01*
X180086Y573770D01*
X180086Y648647D01*
X173314Y655419D01*
X173153Y655655D01*
X173090Y655952D01*
X173148Y656250D01*
X174124Y658605D01*
X174124Y662195D01*
X172750Y665512D01*
X170212Y668050D01*
X166895Y669424D01*
X163305Y669424D01*
X159988Y668050D01*
X157450Y665512D01*
X156076Y662195D01*
X156076Y658605D01*
X157450Y655288D01*
X159988Y652750D01*
X163305Y651376D01*
X166895Y651376D01*
X169250Y652352D01*
X169530Y652410D01*
X169828Y652354D01*
X170081Y652186D01*
X175291Y646976D01*
X175454Y646735D01*
X175514Y646437D01*
X175514Y573770D01*
X175469Y573512D01*
X175312Y573253D01*
X175066Y573076D01*
X174770Y573008D01*
X174472Y573062D01*
X174218Y573227D01*
X174048Y573478D01*
X172750Y576612D01*
X170212Y579150D01*
X166895Y580524D01*
X163305Y580524D01*
X159988Y579150D01*
X157450Y576612D01*
X156076Y573295D01*
X156076Y569705D01*
X157450Y566388D01*
X159988Y563850D01*
X163305Y562476D01*
X166895Y562476D01*
X170212Y563850D01*
X172750Y566388D01*
X174048Y569522D01*
X174188Y569742D01*
X174433Y569922D01*
X174728Y569992D01*
X175027Y569941D01*
X175282Y569777D01*
X175454Y569527D01*
X175514Y569230D01*
X175514Y548370D01*
X175469Y548112D01*
X175312Y547853D01*
X175066Y547676D01*
X174770Y547608D01*
X174472Y547662D01*
X174218Y547827D01*
X174048Y548078D01*
X172750Y551212D01*
X170212Y553750D01*
X166895Y555124D01*
X163305Y555124D01*
X159988Y553750D01*
X157450Y551212D01*
X156076Y547895D01*
X156076Y544305D01*
X157450Y540988D01*
X159988Y538450D01*
X162344Y537474D01*
X162582Y537318D01*
X162754Y537067D01*
X162814Y536770D01*
X162814Y521963D01*
X162758Y521677D01*
X162591Y521424D01*
X153113Y511946D01*
X152893Y511793D01*
X152598Y511723D01*
X152299Y511774D01*
X152044Y511937D01*
X151872Y512187D01*
X151812Y512485D01*
X151812Y651521D01*
X147914Y655419D01*
X147753Y655655D01*
X147690Y655952D01*
X147748Y656250D01*
X148724Y658605D01*
X148724Y662195D01*
X147350Y665512D01*
X144812Y668050D01*
X141495Y669424D01*
X137905Y669424D01*
X134588Y668050D01*
X132050Y665512D01*
X130676Y662195D01*
X130676Y658605D01*
X132050Y655288D01*
X134588Y652750D01*
X137905Y651376D01*
X141495Y651376D01*
X143850Y652352D01*
X144130Y652410D01*
X144428Y652354D01*
X144681Y652186D01*
X147017Y649850D01*
X147180Y649609D01*
X147240Y649311D01*
X147240Y578561D01*
X147193Y578298D01*
X147034Y578040D01*
X146786Y577865D01*
X146490Y577800D01*
X146192Y577855D01*
X145939Y578023D01*
X144812Y579150D01*
X141495Y580524D01*
X137905Y580524D01*
X134588Y579150D01*
X132050Y576612D01*
X130676Y573295D01*
X130676Y569705D01*
X132050Y566388D01*
X134588Y563850D01*
X137905Y562476D01*
X141495Y562476D01*
X144812Y563850D01*
X145939Y564977D01*
X146159Y565130D01*
X146454Y565200D01*
X146753Y565149D01*
X147008Y564986D01*
X147180Y564736D01*
X147240Y564439D01*
X147240Y553161D01*
X147193Y552898D01*
X147034Y552640D01*
X146786Y552465D01*
X146490Y552400D01*
X146192Y552455D01*
X145939Y552623D01*
X144812Y553750D01*
X141495Y555124D01*
X137905Y555124D01*
X134588Y553750D01*
X132050Y551212D01*
X130676Y547895D01*
X130676Y544305D01*
X132050Y540988D01*
X134588Y538450D01*
X136944Y537474D01*
X137182Y537318D01*
X137354Y537067D01*
X137414Y536770D01*
X137414Y509263D01*
X137358Y508977D01*
X137191Y508724D01*
X121443Y492976D01*
X121223Y492823D01*
X120928Y492753D01*
X120629Y492804D01*
X120374Y492967D01*
X120202Y493217D01*
X120142Y493515D01*
X120142Y501904D01*
X120198Y502190D01*
X120365Y502443D01*
X129112Y511190D01*
X129112Y648821D01*
X122514Y655419D01*
X122353Y655655D01*
X122290Y655952D01*
X122348Y656250D01*
X123324Y658605D01*
X123324Y662195D01*
X121950Y665512D01*
X119412Y668050D01*
X116095Y669424D01*
X112505Y669424D01*
X109188Y668050D01*
X106650Y665512D01*
X105276Y662195D01*
X105276Y658605D01*
X106650Y655288D01*
X109188Y652750D01*
X112505Y651376D01*
X116095Y651376D01*
X118450Y652352D01*
X118730Y652410D01*
X119028Y652354D01*
X119281Y652186D01*
X124317Y647150D01*
X124480Y646909D01*
X124540Y646611D01*
X124540Y574190D01*
X124495Y573933D01*
X124338Y573673D01*
X124092Y573496D01*
X123796Y573428D01*
X123498Y573482D01*
X123244Y573647D01*
X123074Y573899D01*
X121950Y576612D01*
X119412Y579150D01*
X116095Y580524D01*
X112505Y580524D01*
X109188Y579150D01*
X106650Y576612D01*
X105276Y573295D01*
X105276Y569705D01*
X106650Y566388D01*
X109188Y563850D01*
X112505Y562476D01*
X116095Y562476D01*
X119412Y563850D01*
X121950Y566388D01*
X123074Y569101D01*
X123214Y569322D01*
X123459Y569502D01*
X123754Y569572D01*
X124053Y569521D01*
X124308Y569357D01*
X124480Y569107D01*
X124540Y568810D01*
X124540Y548790D01*
X124495Y548533D01*
X124338Y548273D01*
X124092Y548096D01*
X123796Y548028D01*
X123498Y548082D01*
X123244Y548247D01*
X123074Y548499D01*
X121950Y551212D01*
X119412Y553750D01*
X116095Y555124D01*
X112505Y555124D01*
X109188Y553750D01*
X106650Y551212D01*
X105276Y547895D01*
X105276Y544305D01*
X106650Y540988D01*
X109188Y538450D01*
X111544Y537474D01*
X111782Y537318D01*
X111954Y537067D01*
X112014Y536770D01*
X112014Y498811D01*
X111967Y498548D01*
X111808Y498290D01*
X111560Y498115D01*
X111264Y498049D01*
X110966Y498105D01*
X110713Y498273D01*
X101235Y507751D01*
X101072Y507992D01*
X101012Y508289D01*
X101012Y651521D01*
X97114Y655419D01*
X96953Y655655D01*
X96890Y655952D01*
X96948Y656250D01*
X97924Y658605D01*
X97924Y662195D01*
X96550Y665512D01*
X94012Y668050D01*
X90695Y669424D01*
X87105Y669424D01*
X83788Y668050D01*
X81250Y665512D01*
X79876Y662195D01*
X79876Y658605D01*
X81250Y655288D01*
X83788Y652750D01*
X87105Y651376D01*
X90695Y651376D01*
X93050Y652352D01*
X93330Y652410D01*
X93628Y652354D01*
X93881Y652186D01*
X96217Y649850D01*
X96380Y649609D01*
X96440Y649311D01*
X96440Y578561D01*
X96393Y578298D01*
X96234Y578040D01*
X95986Y577865D01*
X95690Y577800D01*
X95392Y577855D01*
X95139Y578023D01*
X94012Y579150D01*
X90695Y580524D01*
X87105Y580524D01*
X83788Y579150D01*
X81250Y576612D01*
X79952Y573478D01*
X79812Y573258D01*
X79567Y573078D01*
X79272Y573008D01*
X78973Y573059D01*
X78718Y573223D01*
X78546Y573473D01*
X78486Y573770D01*
X78486Y648647D01*
X71714Y655419D01*
X71553Y655655D01*
X71490Y655952D01*
X71548Y656250D01*
X72524Y658605D01*
X72524Y662195D01*
X71150Y665512D01*
X68612Y668050D01*
X65295Y669424D01*
X61705Y669424D01*
X58388Y668050D01*
X55850Y665512D01*
X54476Y662195D01*
X54476Y658605D01*
X55850Y655288D01*
X58388Y652750D01*
X61705Y651376D01*
X65295Y651376D01*
X67650Y652352D01*
X67930Y652410D01*
X68228Y652354D01*
X68481Y652186D01*
X73691Y646976D01*
X73854Y646735D01*
X73914Y646437D01*
X73914Y573770D01*
X73869Y573512D01*
X73712Y573253D01*
X73466Y573076D01*
X73170Y573008D01*
X72872Y573062D01*
X72618Y573227D01*
X72448Y573478D01*
X71150Y576612D01*
X68612Y579150D01*
X65295Y580524D01*
X61705Y580524D01*
X58388Y579150D01*
X55850Y576612D01*
X54552Y573478D01*
X54412Y573258D01*
X54167Y573078D01*
X53872Y573008D01*
X53573Y573059D01*
X53318Y573223D01*
X53146Y573473D01*
X53086Y573770D01*
X53086Y648647D01*
X46314Y655419D01*
X46153Y655655D01*
X46090Y655952D01*
X46148Y656250D01*
X47124Y658605D01*
X47124Y662195D01*
X45750Y665512D01*
X43212Y668050D01*
X39895Y669424D01*
X36305Y669424D01*
X32988Y668050D01*
X30450Y665512D01*
X29076Y662195D01*
X29076Y658605D01*
X30450Y655288D01*
X32988Y652750D01*
X36305Y651376D01*
X39895Y651376D01*
X42250Y652352D01*
X42530Y652410D01*
X42828Y652354D01*
X43081Y652186D01*
X48291Y646976D01*
X48454Y646735D01*
X48514Y646437D01*
X48514Y573770D01*
X48469Y573512D01*
X48312Y573253D01*
X48066Y573076D01*
X47770Y573008D01*
X47472Y573062D01*
X47218Y573227D01*
X47048Y573478D01*
X45750Y576612D01*
X43212Y579150D01*
X39895Y580524D01*
X36305Y580524D01*
X32988Y579150D01*
X30450Y576612D01*
X29152Y573478D01*
X29012Y573258D01*
X28767Y573078D01*
X28472Y573008D01*
X28173Y573059D01*
X27918Y573223D01*
X27746Y573473D01*
X27686Y573770D01*
X27686Y648647D01*
X21947Y654386D01*
X21784Y654627D01*
X21724Y654925D01*
X21724Y668531D01*
X20831Y669424D01*
X4569Y669424D01*
X3676Y668531D01*
X3676Y652269D01*
X4569Y651376D01*
X18175Y651376D01*
X18461Y651320D01*
X18714Y651153D01*
X22891Y646976D01*
X23054Y646735D01*
X23114Y646437D01*
X23114Y573770D01*
X23069Y573512D01*
X22912Y573253D01*
X22666Y573076D01*
X22370Y573008D01*
X22072Y573062D01*
X21818Y573227D01*
X21648Y573478D01*
X20350Y576612D01*
X17812Y579150D01*
X14495Y580524D01*
X10905Y580524D01*
X7588Y579150D01*
X5050Y576612D01*
X3676Y573295D01*
X3676Y569705D01*
X5050Y566388D01*
X7588Y563850D01*
X10905Y562476D01*
X14495Y562476D01*
X17812Y563850D01*
X20350Y566388D01*
X21648Y569522D01*
X21788Y569742D01*
X22033Y569922D01*
X22328Y569992D01*
X22627Y569941D01*
X22882Y569777D01*
X23054Y569527D01*
X23114Y569230D01*
X23114Y554681D01*
X23067Y554418D01*
X22908Y554160D01*
X22660Y553984D01*
X22364Y553919D01*
X22066Y553975D01*
X21813Y554142D01*
X20831Y555124D01*
X4569Y555124D01*
X3676Y554231D01*
X3676Y537969D01*
X4569Y537076D01*
X18175Y537076D01*
X18461Y537020D01*
X18714Y536853D01*
X60483Y495084D01*
X60646Y494843D01*
X60706Y494545D01*
X60706Y348735D01*
X60650Y348449D01*
X60483Y348196D01*
X33274Y320987D01*
X33274Y253300D01*
X33221Y253019D01*
X33055Y252765D01*
X32804Y252596D01*
X30380Y251592D01*
X28987Y250198D01*
X28767Y250045D01*
X28472Y249976D01*
X28173Y250026D01*
X27918Y250190D01*
X27746Y250440D01*
X27686Y250737D01*
X27686Y299267D01*
X27742Y299553D01*
X27909Y299805D01*
X30706Y302602D01*
X30706Y306998D01*
X27598Y310106D01*
X23202Y310106D01*
X20094Y306998D01*
X20094Y302602D01*
X22891Y299805D01*
X23054Y299564D01*
X23114Y299267D01*
X23114Y250737D01*
X23067Y250474D01*
X22908Y250216D01*
X22660Y250040D01*
X22364Y249975D01*
X22066Y250031D01*
X21813Y250198D01*
X20420Y251592D01*
X17059Y252984D01*
X13421Y252984D01*
X10060Y251592D01*
X7488Y249020D01*
X6096Y245659D01*
X6096Y242021D01*
X7488Y238660D01*
X10060Y236088D01*
X13421Y234696D01*
X17059Y234696D01*
X20420Y236088D01*
X21813Y237482D01*
X22033Y237635D01*
X22328Y237704D01*
X22627Y237654D01*
X22882Y237490D01*
X23054Y237240D01*
X23114Y236943D01*
X23114Y235520D01*
X23061Y235239D01*
X22895Y234985D01*
X22644Y234816D01*
X20220Y233812D01*
X17648Y231240D01*
X16256Y227879D01*
X16256Y224241D01*
X17648Y220880D01*
X20220Y218308D01*
X23581Y216916D01*
X27219Y216916D01*
X30580Y218308D01*
X33152Y220880D01*
X34306Y223667D01*
X34450Y223892D01*
X34696Y224070D01*
X34992Y224137D01*
X35291Y224084D01*
X35545Y223918D01*
X35714Y223667D01*
X37107Y220305D01*
X39965Y217447D01*
X43699Y215900D01*
X44958Y215900D01*
X44958Y236220D01*
X43699Y236220D01*
X42412Y235687D01*
X42156Y235630D01*
X41857Y235676D01*
X41599Y235835D01*
X41423Y236082D01*
X41358Y236379D01*
X41414Y236677D01*
X41581Y236930D01*
X43312Y238660D01*
X44704Y242021D01*
X44704Y245659D01*
X43312Y249020D01*
X40740Y251592D01*
X38316Y252596D01*
X38078Y252752D01*
X37906Y253002D01*
X37846Y253300D01*
X37846Y318777D01*
X37902Y319063D01*
X38069Y319316D01*
X62453Y343700D01*
X62673Y343853D01*
X62968Y343923D01*
X63267Y343872D01*
X63522Y343709D01*
X63694Y343459D01*
X63754Y343161D01*
X63754Y250737D01*
X63707Y250474D01*
X63548Y250216D01*
X63300Y250040D01*
X63004Y249975D01*
X62706Y250031D01*
X62453Y250198D01*
X61060Y251592D01*
X57699Y252984D01*
X54061Y252984D01*
X50700Y251592D01*
X48128Y249020D01*
X46736Y245659D01*
X46736Y242021D01*
X48128Y238660D01*
X49859Y236930D01*
X50009Y236716D01*
X50082Y236421D01*
X50033Y236122D01*
X49872Y235865D01*
X49623Y235691D01*
X49326Y235629D01*
X49029Y235687D01*
X47741Y236220D01*
X46482Y236220D01*
X46482Y215900D01*
X47741Y215900D01*
X51475Y217447D01*
X54333Y220305D01*
X55726Y223667D01*
X55870Y223892D01*
X56116Y224070D01*
X56412Y224137D01*
X56710Y224084D01*
X56964Y223918D01*
X57134Y223667D01*
X58288Y220880D01*
X60860Y218308D01*
X64221Y216916D01*
X67859Y216916D01*
X71220Y218308D01*
X73792Y220880D01*
X75184Y224241D01*
X75184Y227879D01*
X73792Y231240D01*
X71220Y233812D01*
X68796Y234816D01*
X68558Y234972D01*
X68386Y235222D01*
X68326Y235520D01*
X68326Y236943D01*
X68373Y237206D01*
X68532Y237464D01*
X68780Y237640D01*
X69076Y237705D01*
X69374Y237649D01*
X69627Y237482D01*
X71020Y236088D01*
X74381Y234696D01*
X76454Y234696D01*
X76729Y234645D01*
X76984Y234481D01*
X77156Y234231D01*
X77216Y233934D01*
X77216Y217809D01*
X78109Y216916D01*
X83947Y216916D01*
X84222Y216865D01*
X84477Y216701D01*
X84649Y216451D01*
X84709Y216154D01*
X84709Y198748D01*
X84653Y198462D01*
X84486Y198209D01*
X73416Y187139D01*
X73175Y186976D01*
X72877Y186916D01*
X68922Y186916D01*
X65814Y183808D01*
X65814Y179412D01*
X68922Y176304D01*
X73318Y176304D01*
X76426Y179412D01*
X76426Y183367D01*
X76482Y183653D01*
X76649Y183906D01*
X87591Y194848D01*
X87909Y195039D01*
X88211Y195067D01*
X88500Y194975D01*
X88731Y194778D01*
X88866Y194507D01*
X89923Y190563D01*
X93367Y184597D01*
X98237Y179727D01*
X104203Y176283D01*
X110856Y174500D01*
X117744Y174500D01*
X124397Y176283D01*
X130363Y179727D01*
X135233Y184597D01*
X138677Y190563D01*
X140460Y197216D01*
X140460Y204104D01*
X138677Y210757D01*
X135233Y216723D01*
X132231Y219725D01*
X132078Y219945D01*
X132008Y220240D01*
X132059Y220539D01*
X132222Y220794D01*
X132472Y220966D01*
X132769Y221026D01*
X135129Y221026D01*
X140357Y223191D01*
X144359Y227193D01*
X146524Y232421D01*
X146524Y238079D01*
X144359Y243307D01*
X140357Y247309D01*
X135129Y249474D01*
X129471Y249474D01*
X124243Y247309D01*
X120241Y243307D01*
X118076Y238079D01*
X118076Y232421D01*
X120136Y227448D01*
X120183Y227286D01*
X120174Y226983D01*
X120047Y226707D01*
X119823Y226503D01*
X119537Y226402D01*
X119234Y226421D01*
X117744Y226820D01*
X110856Y226820D01*
X104203Y225037D01*
X98237Y221593D01*
X96805Y220161D01*
X96585Y220008D01*
X96290Y219938D01*
X95991Y219989D01*
X95736Y220152D01*
X95564Y220402D01*
X95504Y220699D01*
X95504Y234311D01*
X94611Y235204D01*
X82335Y235204D01*
X82072Y235251D01*
X81814Y235410D01*
X81638Y235658D01*
X81573Y235954D01*
X81629Y236252D01*
X81796Y236505D01*
X83952Y238660D01*
X85344Y242021D01*
X85344Y245659D01*
X83952Y249020D01*
X81380Y251592D01*
X78019Y252984D01*
X74381Y252984D01*
X71020Y251592D01*
X69627Y250198D01*
X69407Y250045D01*
X69112Y249976D01*
X68813Y250026D01*
X68558Y250190D01*
X68386Y250440D01*
X68326Y250737D01*
X68326Y498017D01*
X27909Y538434D01*
X27746Y538676D01*
X27686Y538973D01*
X27686Y543830D01*
X27731Y544088D01*
X27888Y544347D01*
X28134Y544524D01*
X28430Y544592D01*
X28728Y544539D01*
X28983Y544373D01*
X29152Y544122D01*
X30450Y540988D01*
X32988Y538450D01*
X36305Y537076D01*
X39895Y537076D01*
X42250Y538052D01*
X42530Y538110D01*
X42828Y538054D01*
X43081Y537886D01*
X94011Y486956D01*
X94174Y486715D01*
X94234Y486417D01*
X94234Y430696D01*
X236251Y288679D01*
X236414Y288437D01*
X236474Y288140D01*
X236474Y253300D01*
X236421Y253019D01*
X236255Y252765D01*
X236004Y252596D01*
X233580Y251592D01*
X232187Y250198D01*
X231967Y250045D01*
X231672Y249976D01*
X231373Y250026D01*
X231118Y250190D01*
X230946Y250440D01*
X230886Y250737D01*
X230886Y267517D01*
X230942Y267803D01*
X231109Y268055D01*
X233906Y270852D01*
X233906Y275248D01*
X230798Y278356D01*
X226402Y278356D01*
X223294Y275248D01*
X223294Y270852D01*
X226091Y268055D01*
X226254Y267814D01*
X226314Y267517D01*
X226314Y250737D01*
X226267Y250474D01*
X226108Y250216D01*
X225860Y250040D01*
X225564Y249975D01*
X225266Y250031D01*
X225013Y250198D01*
X223620Y251592D01*
X220259Y252984D01*
X216621Y252984D01*
X213260Y251592D01*
X210688Y249020D01*
X209296Y245659D01*
X209296Y242021D01*
X210688Y238660D01*
X213260Y236088D01*
X216621Y234696D01*
X220259Y234696D01*
X223620Y236088D01*
X225013Y237482D01*
X225233Y237635D01*
X225528Y237704D01*
X225827Y237654D01*
X226082Y237490D01*
X226254Y237240D01*
X226314Y236943D01*
X226314Y235520D01*
X226261Y235239D01*
X226095Y234985D01*
X225844Y234816D01*
X223420Y233812D01*
X220848Y231240D01*
X219456Y227879D01*
X219456Y224241D01*
X220848Y220880D01*
X223420Y218308D01*
X226781Y216916D01*
X230419Y216916D01*
X233780Y218308D01*
X236352Y220880D01*
X237506Y223667D01*
X237650Y223892D01*
X237896Y224070D01*
X238192Y224137D01*
X238491Y224084D01*
X238745Y223918D01*
X238914Y223667D01*
X240307Y220305D01*
X243165Y217447D01*
X246899Y215900D01*
X248158Y215900D01*
X248158Y236220D01*
X246899Y236220D01*
X245612Y235687D01*
X245356Y235630D01*
X245057Y235676D01*
X244799Y235835D01*
X244623Y236082D01*
X244558Y236379D01*
X244614Y236677D01*
X244781Y236930D01*
X246512Y238660D01*
X247904Y242021D01*
X247904Y245659D01*
X246512Y249020D01*
X243940Y251592D01*
X241516Y252596D01*
X241278Y252752D01*
X241106Y253002D01*
X241046Y253300D01*
X241046Y286355D01*
X241093Y286618D01*
X241252Y286876D01*
X241500Y287052D01*
X241796Y287117D01*
X242094Y287061D01*
X242347Y286894D01*
X266731Y262510D01*
X266894Y262268D01*
X266954Y261971D01*
X266954Y250737D01*
X266907Y250474D01*
X266748Y250216D01*
X266500Y250040D01*
X266204Y249975D01*
X265906Y250031D01*
X265653Y250198D01*
X264260Y251592D01*
X260899Y252984D01*
X257261Y252984D01*
X253900Y251592D01*
X251328Y249020D01*
X249936Y245659D01*
X249936Y242021D01*
X251328Y238660D01*
X253059Y236930D01*
X253209Y236716D01*
X253282Y236421D01*
X253233Y236122D01*
X253072Y235865D01*
X252823Y235691D01*
X252526Y235629D01*
X252229Y235687D01*
X250941Y236220D01*
X249682Y236220D01*
X249682Y215900D01*
X250941Y215900D01*
X254675Y217447D01*
X257533Y220305D01*
X258926Y223667D01*
X259070Y223892D01*
X259316Y224070D01*
X259612Y224137D01*
X259910Y224084D01*
X260164Y223918D01*
X260334Y223667D01*
X261488Y220880D01*
X264060Y218308D01*
X267421Y216916D01*
X271059Y216916D01*
X274420Y218308D01*
X276992Y220880D01*
X278384Y224241D01*
X278384Y227879D01*
X276992Y231240D01*
X274420Y233812D01*
X271996Y234816D01*
X271758Y234972D01*
X271586Y235222D01*
X271526Y235520D01*
X271526Y236943D01*
X271573Y237206D01*
X271732Y237464D01*
X271980Y237640D01*
X272276Y237705D01*
X272574Y237649D01*
X272827Y237482D01*
X274220Y236088D01*
X277581Y234696D01*
X279654Y234696D01*
X279929Y234645D01*
X280184Y234481D01*
X280356Y234231D01*
X280416Y233934D01*
X280416Y217809D01*
X281309Y216916D01*
X286512Y216916D01*
X286787Y216865D01*
X287042Y216701D01*
X287214Y216451D01*
X287274Y216154D01*
X287274Y189223D01*
X287218Y188937D01*
X287051Y188684D01*
X271536Y173169D01*
X271295Y173006D01*
X270997Y172946D01*
X267042Y172946D01*
X263934Y169838D01*
X263934Y165442D01*
X267042Y162334D01*
X271438Y162334D01*
X274546Y165442D01*
X274546Y169397D01*
X274602Y169683D01*
X274769Y169936D01*
X291846Y187013D01*
X291846Y189930D01*
X291863Y190092D01*
X291985Y190370D01*
X292206Y190578D01*
X292491Y190683D01*
X292793Y190669D01*
X293067Y190538D01*
X293268Y190311D01*
X296567Y184597D01*
X301437Y179727D01*
X307403Y176283D01*
X314056Y174500D01*
X320944Y174500D01*
X327597Y176283D01*
X333563Y179727D01*
X338433Y184597D01*
X341877Y190563D01*
X343660Y197216D01*
X343660Y204104D01*
X341877Y210757D01*
X338433Y216723D01*
X335431Y219725D01*
X335278Y219945D01*
X335208Y220240D01*
X335259Y220539D01*
X335422Y220794D01*
X335672Y220966D01*
X335969Y221026D01*
X338329Y221026D01*
X343557Y223191D01*
X347559Y227193D01*
X349724Y232421D01*
X349724Y238079D01*
X347559Y243307D01*
X343557Y247309D01*
X338329Y249474D01*
X332671Y249474D01*
X327443Y247309D01*
X323441Y243307D01*
X321276Y238079D01*
X321276Y232421D01*
X323336Y227448D01*
X323383Y227286D01*
X323374Y226983D01*
X323247Y226707D01*
X323023Y226503D01*
X322737Y226402D01*
X322434Y226421D01*
X320944Y226820D01*
X314056Y226820D01*
X307403Y225037D01*
X301437Y221593D01*
X300005Y220161D01*
X299785Y220008D01*
X299490Y219938D01*
X299191Y219989D01*
X298936Y220152D01*
X298764Y220402D01*
X298704Y220699D01*
X298704Y234311D01*
X297811Y235204D01*
X285535Y235204D01*
X285272Y235251D01*
X285014Y235410D01*
X284838Y235658D01*
X284773Y235954D01*
X284829Y236252D01*
X284996Y236505D01*
X287152Y238660D01*
X288544Y242021D01*
X288544Y245659D01*
X287152Y249020D01*
X284580Y251592D01*
X281219Y252984D01*
X277581Y252984D01*
X274220Y251592D01*
X272827Y250198D01*
X272607Y250045D01*
X272312Y249976D01*
X272013Y250026D01*
X271758Y250190D01*
X271586Y250440D01*
X271526Y250737D01*
X271526Y264180D01*
X224079Y311627D01*
X223926Y311847D01*
X223856Y312142D01*
X223907Y312441D01*
X224070Y312696D01*
X224321Y312868D01*
X224618Y312928D01*
X428705Y312928D01*
X428991Y312872D01*
X429244Y312705D01*
X439451Y302498D01*
X439614Y302256D01*
X439674Y301959D01*
X439674Y253300D01*
X439621Y253019D01*
X439455Y252765D01*
X439204Y252596D01*
X436780Y251592D01*
X435387Y250198D01*
X435167Y250045D01*
X434872Y249976D01*
X434573Y250026D01*
X434318Y250190D01*
X434146Y250440D01*
X434086Y250737D01*
X434086Y267517D01*
X434142Y267803D01*
X434309Y268055D01*
X437106Y270852D01*
X437106Y275248D01*
X433998Y278356D01*
X429602Y278356D01*
X426494Y275248D01*
X426494Y270852D01*
X429291Y268055D01*
X429454Y267814D01*
X429514Y267517D01*
X429514Y250737D01*
X429467Y250474D01*
X429308Y250216D01*
X429060Y250040D01*
X428764Y249975D01*
X428466Y250031D01*
X428213Y250198D01*
X426820Y251592D01*
X423459Y252984D01*
X419821Y252984D01*
X416460Y251592D01*
X413888Y249020D01*
X412496Y245659D01*
X412496Y242021D01*
X413888Y238660D01*
X416460Y236088D01*
X419821Y234696D01*
X423459Y234696D01*
X426820Y236088D01*
X428213Y237482D01*
X428433Y237635D01*
X428728Y237704D01*
X429027Y237654D01*
X429282Y237490D01*
X429454Y237240D01*
X429514Y236943D01*
X429514Y235520D01*
X429461Y235239D01*
X429295Y234985D01*
X429044Y234816D01*
X426620Y233812D01*
X424048Y231240D01*
X422656Y227879D01*
X422656Y224241D01*
X424048Y220880D01*
X426620Y218308D01*
X429981Y216916D01*
X433619Y216916D01*
X436980Y218308D01*
X439552Y220880D01*
X440706Y223667D01*
X440850Y223892D01*
X441096Y224070D01*
X441392Y224137D01*
X441691Y224084D01*
X441945Y223918D01*
X442114Y223667D01*
X443507Y220305D01*
X446365Y217447D01*
X450099Y215900D01*
X451358Y215900D01*
X451358Y236220D01*
X450099Y236220D01*
X448812Y235687D01*
X448556Y235630D01*
X448257Y235676D01*
X447999Y235835D01*
X447823Y236082D01*
X447758Y236379D01*
X447814Y236677D01*
X447981Y236930D01*
X449712Y238660D01*
X451104Y242021D01*
X451104Y245659D01*
X449712Y249020D01*
X447140Y251592D01*
X444716Y252596D01*
X444478Y252752D01*
X444306Y253002D01*
X444246Y253300D01*
X444246Y304168D01*
X433739Y314675D01*
X433586Y314895D01*
X433516Y315190D01*
X433567Y315489D01*
X433731Y315744D01*
X433981Y315916D01*
X434278Y315976D01*
X468068Y315976D01*
X468354Y315920D01*
X468606Y315753D01*
X469931Y314428D01*
X470094Y314187D01*
X470154Y313890D01*
X470154Y250737D01*
X470107Y250474D01*
X469948Y250216D01*
X469700Y250040D01*
X469404Y249975D01*
X469106Y250031D01*
X468853Y250198D01*
X467460Y251592D01*
X464099Y252984D01*
X460461Y252984D01*
X457100Y251592D01*
X454528Y249020D01*
X453136Y245659D01*
X453136Y242021D01*
X454528Y238660D01*
X456259Y236930D01*
X456409Y236716D01*
X456482Y236421D01*
X456433Y236122D01*
X456272Y235865D01*
X456023Y235691D01*
X455726Y235629D01*
X455429Y235687D01*
X454141Y236220D01*
X452882Y236220D01*
X452882Y215900D01*
X454141Y215900D01*
X457875Y217447D01*
X460733Y220305D01*
X462126Y223667D01*
X462270Y223892D01*
X462516Y224070D01*
X462812Y224137D01*
X463110Y224084D01*
X463364Y223918D01*
X463534Y223667D01*
X464688Y220880D01*
X467260Y218308D01*
X470621Y216916D01*
X474259Y216916D01*
X477620Y218308D01*
X480192Y220880D01*
X481584Y224241D01*
X481584Y227879D01*
X480192Y231240D01*
X477620Y233812D01*
X475196Y234816D01*
X474958Y234972D01*
X474786Y235222D01*
X474726Y235520D01*
X474726Y236943D01*
X474773Y237206D01*
X474932Y237464D01*
X475180Y237640D01*
X475476Y237705D01*
X475774Y237649D01*
X476027Y237482D01*
X477420Y236088D01*
X480781Y234696D01*
X482854Y234696D01*
X483129Y234645D01*
X483384Y234481D01*
X483556Y234231D01*
X483616Y233934D01*
X483616Y217809D01*
X484509Y216916D01*
X490730Y216916D01*
X491005Y216865D01*
X491260Y216701D01*
X491432Y216451D01*
X491492Y216154D01*
X491492Y190213D01*
X491436Y189927D01*
X491269Y189674D01*
X474736Y173141D01*
X474495Y172978D01*
X474197Y172918D01*
X470242Y172918D01*
X467134Y169810D01*
X467134Y165414D01*
X470242Y162306D01*
X474638Y162306D01*
X477746Y165414D01*
X477746Y169369D01*
X477802Y169655D01*
X477969Y169908D01*
X496064Y188003D01*
X496064Y188167D01*
X496081Y188329D01*
X496203Y188606D01*
X496424Y188814D01*
X496709Y188920D01*
X497011Y188906D01*
X497285Y188775D01*
X497486Y188548D01*
X499767Y184597D01*
X504637Y179727D01*
X510603Y176283D01*
X517256Y174500D01*
X524144Y174500D01*
X530797Y176283D01*
X536763Y179727D01*
X541633Y184597D01*
X545077Y190563D01*
X546860Y197216D01*
X546860Y204104D01*
X545077Y210757D01*
X541633Y216723D01*
X538631Y219725D01*
X538478Y219945D01*
X538408Y220240D01*
X538459Y220539D01*
X538622Y220794D01*
X538872Y220966D01*
X539169Y221026D01*
X541529Y221026D01*
X546757Y223191D01*
X550759Y227193D01*
X552924Y232421D01*
X552924Y238079D01*
X550759Y243307D01*
X546757Y247309D01*
X541529Y249474D01*
X535871Y249474D01*
X530643Y247309D01*
X526641Y243307D01*
X524476Y238079D01*
X524476Y232421D01*
X526536Y227448D01*
X526583Y227286D01*
X526574Y226983D01*
X526447Y226707D01*
X526223Y226503D01*
X525937Y226402D01*
X525634Y226421D01*
X524144Y226820D01*
X517256Y226820D01*
X510603Y225037D01*
X504637Y221593D01*
X503205Y220161D01*
X502985Y220008D01*
X502690Y219938D01*
X502391Y219989D01*
X502136Y220152D01*
X501964Y220402D01*
X501904Y220699D01*
X501904Y234311D01*
X501011Y235204D01*
X488735Y235204D01*
X488472Y235251D01*
X488214Y235410D01*
X488038Y235658D01*
X487973Y235954D01*
X488029Y236252D01*
X488196Y236505D01*
X490352Y238660D01*
X491744Y242021D01*
X491744Y245659D01*
X490352Y249020D01*
X487780Y251592D01*
X484419Y252984D01*
X480781Y252984D01*
X477420Y251592D01*
X476027Y250198D01*
X475807Y250045D01*
X475512Y249976D01*
X475213Y250026D01*
X474958Y250190D01*
X474786Y250440D01*
X474726Y250737D01*
X474726Y316099D01*
X473102Y317723D01*
X472949Y317943D01*
X472879Y318238D01*
X472930Y318537D01*
X473093Y318792D01*
X473343Y318964D01*
X473641Y319024D01*
X638509Y319024D01*
X638795Y318968D01*
X639048Y318801D01*
X642651Y315198D01*
X642814Y314956D01*
X642874Y314659D01*
X642874Y253300D01*
X642821Y253019D01*
X642655Y252765D01*
X642404Y252596D01*
X639980Y251592D01*
X638587Y250198D01*
X638367Y250045D01*
X638072Y249976D01*
X637773Y250026D01*
X637518Y250190D01*
X637346Y250440D01*
X637286Y250737D01*
X637286Y267517D01*
X637342Y267803D01*
X637509Y268055D01*
X640306Y270852D01*
X640306Y275248D01*
X637198Y278356D01*
X632802Y278356D01*
X629694Y275248D01*
X629694Y270852D01*
X632491Y268055D01*
X632654Y267814D01*
X632714Y267517D01*
X632714Y250737D01*
X632667Y250474D01*
X632508Y250216D01*
X632260Y250040D01*
X631964Y249975D01*
X631666Y250031D01*
X631413Y250198D01*
X630020Y251592D01*
X626659Y252984D01*
X623021Y252984D01*
X619660Y251592D01*
X617088Y249020D01*
X615696Y245659D01*
X615696Y242021D01*
X617088Y238660D01*
X619660Y236088D01*
X623021Y234696D01*
X626659Y234696D01*
X630020Y236088D01*
X631413Y237482D01*
X631633Y237635D01*
X631928Y237704D01*
X632227Y237654D01*
X632482Y237490D01*
X632654Y237240D01*
X632714Y236943D01*
X632714Y235520D01*
X632661Y235239D01*
X632495Y234985D01*
X632244Y234816D01*
X629820Y233812D01*
X627248Y231240D01*
X625856Y227879D01*
X625856Y224241D01*
X627248Y220880D01*
X629820Y218308D01*
X633181Y216916D01*
X636819Y216916D01*
X640180Y218308D01*
X642752Y220880D01*
X643906Y223667D01*
X644050Y223892D01*
X644296Y224070D01*
X644592Y224137D01*
X644891Y224084D01*
X645145Y223918D01*
X645314Y223667D01*
X646707Y220305D01*
X649565Y217447D01*
X653299Y215900D01*
X654558Y215900D01*
X654558Y236220D01*
X653299Y236220D01*
X652012Y235687D01*
X651756Y235630D01*
X651457Y235676D01*
X651199Y235835D01*
X651023Y236082D01*
X650958Y236379D01*
X651014Y236677D01*
X651181Y236930D01*
X652912Y238660D01*
X654304Y242021D01*
X654304Y245659D01*
X652912Y249020D01*
X650340Y251592D01*
X647916Y252596D01*
X647678Y252752D01*
X647506Y253002D01*
X647446Y253300D01*
X647446Y312874D01*
X647493Y313137D01*
X647652Y313395D01*
X647900Y313570D01*
X648196Y313635D01*
X648494Y313580D01*
X648747Y313412D01*
X673131Y289028D01*
X673294Y288787D01*
X673354Y288490D01*
X673354Y250737D01*
X673307Y250474D01*
X673148Y250216D01*
X672900Y250040D01*
X672604Y249975D01*
X672306Y250031D01*
X672053Y250198D01*
X670660Y251592D01*
X667299Y252984D01*
X663661Y252984D01*
X660300Y251592D01*
X657728Y249020D01*
X656336Y245659D01*
X656336Y242021D01*
X657728Y238660D01*
X659459Y236930D01*
X659609Y236716D01*
X659682Y236421D01*
X659633Y236122D01*
X659472Y235865D01*
X659223Y235691D01*
X658926Y235629D01*
X658629Y235687D01*
X657341Y236220D01*
X656082Y236220D01*
X656082Y215900D01*
X657341Y215900D01*
X661075Y217447D01*
X663933Y220305D01*
X665326Y223667D01*
X665470Y223892D01*
X665716Y224070D01*
X666012Y224137D01*
X666310Y224084D01*
X666564Y223918D01*
X666734Y223667D01*
X667888Y220880D01*
X670460Y218308D01*
X673821Y216916D01*
X677459Y216916D01*
X680820Y218308D01*
X683392Y220880D01*
X684784Y224241D01*
X684784Y227879D01*
X683392Y231240D01*
X680820Y233812D01*
X678396Y234816D01*
X678158Y234972D01*
X677986Y235222D01*
X677926Y235520D01*
X677926Y236943D01*
X677973Y237206D01*
X678132Y237464D01*
X678380Y237640D01*
X678676Y237705D01*
X678974Y237649D01*
X679227Y237482D01*
X680620Y236088D01*
X683981Y234696D01*
X686054Y234696D01*
X686329Y234645D01*
X686584Y234481D01*
X686756Y234231D01*
X686816Y233934D01*
X686816Y217809D01*
X687709Y216916D01*
X693930Y216916D01*
X694205Y216865D01*
X694460Y216701D01*
X694632Y216451D01*
X694692Y216154D01*
X694692Y190213D01*
X694636Y189927D01*
X694469Y189674D01*
X677936Y173141D01*
X677695Y172978D01*
X677397Y172918D01*
X673442Y172918D01*
X670334Y169810D01*
X670334Y165414D01*
X673442Y162306D01*
X677838Y162306D01*
X680946Y165414D01*
X680946Y169369D01*
X681002Y169655D01*
X681169Y169908D01*
X699264Y188003D01*
X699264Y188167D01*
X699281Y188329D01*
X699403Y188606D01*
X699624Y188814D01*
X699909Y188920D01*
X700211Y188906D01*
X700485Y188775D01*
X700686Y188548D01*
X702967Y184597D01*
X707837Y179727D01*
X713803Y176283D01*
X720456Y174500D01*
X727344Y174500D01*
X733997Y176283D01*
X739963Y179727D01*
X744833Y184597D01*
X748277Y190563D01*
X750060Y197216D01*
X750060Y204104D01*
X748277Y210757D01*
X744833Y216723D01*
X741831Y219725D01*
X741678Y219945D01*
X741608Y220240D01*
X741659Y220539D01*
X741822Y220794D01*
X742072Y220966D01*
X742369Y221026D01*
X744729Y221026D01*
X749957Y223191D01*
X753959Y227193D01*
X756124Y232421D01*
X756124Y238079D01*
X753959Y243307D01*
X749957Y247309D01*
X744729Y249474D01*
X739071Y249474D01*
X733843Y247309D01*
X729841Y243307D01*
X727676Y238079D01*
X727676Y232421D01*
X729736Y227448D01*
X729783Y227286D01*
X729774Y226983D01*
X729647Y226707D01*
X729423Y226503D01*
X729137Y226402D01*
X728834Y226421D01*
X727344Y226820D01*
X720456Y226820D01*
X713803Y225037D01*
X707837Y221593D01*
X706405Y220161D01*
X706185Y220008D01*
X705890Y219938D01*
X705591Y219989D01*
X705336Y220152D01*
X705164Y220402D01*
X705104Y220699D01*
X705104Y234311D01*
X704211Y235204D01*
X691935Y235204D01*
X691672Y235251D01*
X691414Y235410D01*
X691238Y235658D01*
X691173Y235954D01*
X691229Y236252D01*
X691396Y236505D01*
X693552Y238660D01*
X694944Y242021D01*
X694944Y245659D01*
X693552Y249020D01*
X690980Y251592D01*
X687619Y252984D01*
X683981Y252984D01*
X680620Y251592D01*
X679227Y250198D01*
X679007Y250045D01*
X678712Y249976D01*
X678413Y250026D01*
X678158Y250190D01*
X677986Y250440D01*
X677926Y250737D01*
X677926Y290699D01*
X644806Y323819D01*
X644653Y324039D01*
X644583Y324334D01*
X644634Y324633D01*
X644797Y324888D01*
X645047Y325060D01*
X645345Y325120D01*
X820681Y325120D01*
X820967Y325064D01*
X821220Y324897D01*
X845851Y300266D01*
X846014Y300025D01*
X846074Y299727D01*
X846074Y253300D01*
X846021Y253019D01*
X845855Y252765D01*
X845604Y252596D01*
X843180Y251592D01*
X841787Y250198D01*
X841567Y250045D01*
X841272Y249976D01*
X840973Y250026D01*
X840718Y250190D01*
X840546Y250440D01*
X840486Y250737D01*
X840486Y267517D01*
X840542Y267803D01*
X840709Y268055D01*
X843506Y270852D01*
X843506Y275248D01*
X840398Y278356D01*
X836002Y278356D01*
X832894Y275248D01*
X832894Y270852D01*
X835691Y268055D01*
X835854Y267814D01*
X835914Y267517D01*
X835914Y250737D01*
X835867Y250474D01*
X835708Y250216D01*
X835460Y250040D01*
X835164Y249975D01*
X834866Y250031D01*
X834613Y250198D01*
X833220Y251592D01*
X829859Y252984D01*
X826221Y252984D01*
X822860Y251592D01*
X820288Y249020D01*
X818896Y245659D01*
X818896Y242021D01*
X820288Y238660D01*
X822860Y236088D01*
X826221Y234696D01*
X829859Y234696D01*
X833220Y236088D01*
X834613Y237482D01*
X834833Y237635D01*
X835128Y237704D01*
X835427Y237654D01*
X835682Y237490D01*
X835854Y237240D01*
X835914Y236943D01*
X835914Y235520D01*
X835861Y235239D01*
X835695Y234985D01*
X835444Y234816D01*
X833020Y233812D01*
X830448Y231240D01*
X829056Y227879D01*
X829056Y224241D01*
X830448Y220880D01*
X833020Y218308D01*
X836381Y216916D01*
X840019Y216916D01*
X843380Y218308D01*
X845952Y220880D01*
X847106Y223667D01*
X847250Y223892D01*
X847496Y224070D01*
X847792Y224137D01*
X848091Y224084D01*
X848345Y223918D01*
X848514Y223667D01*
X849907Y220305D01*
X852765Y217447D01*
X856499Y215900D01*
X857758Y215900D01*
X857758Y236220D01*
X856499Y236220D01*
X855212Y235687D01*
X854956Y235630D01*
X854657Y235676D01*
X854399Y235835D01*
X854223Y236082D01*
X854158Y236379D01*
X854214Y236677D01*
X854381Y236930D01*
X856112Y238660D01*
X857504Y242021D01*
X857504Y245659D01*
X856112Y249020D01*
X853540Y251592D01*
X851116Y252596D01*
X850878Y252752D01*
X850706Y253002D01*
X850646Y253300D01*
X850646Y301937D01*
X825716Y326867D01*
X825563Y327087D01*
X825493Y327382D01*
X825544Y327681D01*
X825707Y327936D01*
X825957Y328108D01*
X826255Y328168D01*
X847344Y328168D01*
X847630Y328112D01*
X847883Y327945D01*
X876331Y299497D01*
X876494Y299255D01*
X876554Y298958D01*
X876554Y250737D01*
X876507Y250474D01*
X876348Y250216D01*
X876100Y250040D01*
X875804Y249975D01*
X875506Y250031D01*
X875253Y250198D01*
X873860Y251592D01*
X870499Y252984D01*
X866861Y252984D01*
X863500Y251592D01*
X860928Y249020D01*
X859536Y245659D01*
X859536Y242021D01*
X860928Y238660D01*
X862659Y236930D01*
X862809Y236716D01*
X862882Y236421D01*
X862833Y236122D01*
X862672Y235865D01*
X862423Y235691D01*
X862126Y235629D01*
X861829Y235687D01*
X860541Y236220D01*
X859282Y236220D01*
X859282Y215900D01*
X860541Y215900D01*
X864275Y217447D01*
X867133Y220305D01*
X868526Y223667D01*
X868670Y223892D01*
X868916Y224070D01*
X869212Y224137D01*
X869510Y224084D01*
X869764Y223918D01*
X869934Y223667D01*
X871088Y220880D01*
X873660Y218308D01*
X877021Y216916D01*
X880659Y216916D01*
X884020Y218308D01*
X886592Y220880D01*
X887984Y224241D01*
X887984Y227879D01*
X886592Y231240D01*
X884020Y233812D01*
X881596Y234816D01*
X881358Y234972D01*
X881186Y235222D01*
X881126Y235520D01*
X881126Y236943D01*
X881173Y237206D01*
X881332Y237464D01*
X881580Y237640D01*
X881876Y237705D01*
X882174Y237649D01*
X882427Y237482D01*
X883820Y236088D01*
X887181Y234696D01*
X889254Y234696D01*
X889529Y234645D01*
X889784Y234481D01*
X889956Y234231D01*
X890016Y233934D01*
X890016Y217809D01*
X890909Y216916D01*
X897130Y216916D01*
X897405Y216865D01*
X897660Y216701D01*
X897832Y216451D01*
X897892Y216154D01*
X897892Y190213D01*
X897836Y189927D01*
X897669Y189674D01*
X881136Y173141D01*
X880895Y172978D01*
X880597Y172918D01*
X876642Y172918D01*
X873534Y169810D01*
X873534Y165414D01*
X876642Y162306D01*
X881038Y162306D01*
X884146Y165414D01*
X884146Y169369D01*
X884202Y169655D01*
X884369Y169908D01*
X902464Y188003D01*
X902464Y188167D01*
X902481Y188329D01*
X902603Y188606D01*
X902824Y188814D01*
X903109Y188920D01*
X903411Y188906D01*
X903685Y188775D01*
X903886Y188548D01*
X906167Y184597D01*
X911037Y179727D01*
X917003Y176283D01*
X923656Y174500D01*
X930544Y174500D01*
X937197Y176283D01*
X943163Y179727D01*
X948033Y184597D01*
X951477Y190563D01*
X953260Y197216D01*
X953260Y204104D01*
X951477Y210757D01*
X948033Y216723D01*
X945031Y219725D01*
X944878Y219945D01*
X944808Y220240D01*
X944859Y220539D01*
X945022Y220794D01*
X945272Y220966D01*
X945569Y221026D01*
X947929Y221026D01*
X953157Y223191D01*
X957159Y227193D01*
X959324Y232421D01*
X959324Y238079D01*
X957159Y243307D01*
X953157Y247309D01*
X947929Y249474D01*
X942271Y249474D01*
X937043Y247309D01*
X933041Y243307D01*
X930876Y238079D01*
X930876Y232421D01*
X932936Y227448D01*
X932983Y227286D01*
X932974Y226983D01*
X932847Y226707D01*
X932623Y226503D01*
X932337Y226402D01*
X932034Y226421D01*
X930544Y226820D01*
X923656Y226820D01*
X917003Y225037D01*
X911037Y221593D01*
X909605Y220161D01*
X909385Y220008D01*
X909090Y219938D01*
X908791Y219989D01*
X908536Y220152D01*
X908364Y220402D01*
X908304Y220699D01*
X908304Y234311D01*
X907411Y235204D01*
X895135Y235204D01*
X894872Y235251D01*
X894614Y235410D01*
X894438Y235658D01*
X894373Y235954D01*
X894429Y236252D01*
X894596Y236505D01*
X896752Y238660D01*
X898144Y242021D01*
X898144Y245659D01*
X896752Y249020D01*
X894180Y251592D01*
X890819Y252984D01*
X887181Y252984D01*
X883820Y251592D01*
X882427Y250198D01*
X882207Y250045D01*
X881912Y249976D01*
X881613Y250026D01*
X881358Y250190D01*
X881186Y250440D01*
X881126Y250737D01*
X881126Y301167D01*
X852378Y329915D01*
X852225Y330135D01*
X852155Y330430D01*
X852206Y330729D01*
X852370Y330984D01*
X852620Y331156D01*
X852917Y331216D01*
X1017785Y331216D01*
X1018071Y331160D01*
X1018324Y330993D01*
X1049051Y300266D01*
X1049214Y300025D01*
X1049274Y299727D01*
X1049274Y253300D01*
X1049221Y253019D01*
X1049055Y252765D01*
X1048804Y252596D01*
X1046380Y251592D01*
X1044987Y250198D01*
X1044767Y250045D01*
X1044472Y249976D01*
X1044173Y250026D01*
X1043918Y250190D01*
X1043746Y250440D01*
X1043686Y250737D01*
X1043686Y267517D01*
X1043742Y267803D01*
X1043909Y268055D01*
X1046706Y270852D01*
X1046706Y275248D01*
X1043598Y278356D01*
X1039202Y278356D01*
X1036094Y275248D01*
X1036094Y270852D01*
X1038891Y268055D01*
X1039054Y267814D01*
X1039114Y267517D01*
X1039114Y250737D01*
X1039067Y250474D01*
X1038908Y250216D01*
X1038660Y250040D01*
X1038364Y249975D01*
X1038066Y250031D01*
X1037813Y250198D01*
X1036420Y251592D01*
X1033059Y252984D01*
X1029421Y252984D01*
X1026060Y251592D01*
X1023488Y249020D01*
X1022096Y245659D01*
X1022096Y242021D01*
X1023488Y238660D01*
X1026060Y236088D01*
X1029421Y234696D01*
X1033059Y234696D01*
X1036420Y236088D01*
X1037813Y237482D01*
X1038033Y237635D01*
X1038328Y237704D01*
X1038627Y237654D01*
X1038882Y237490D01*
X1039054Y237240D01*
X1039114Y236943D01*
X1039114Y235520D01*
X1039061Y235239D01*
X1038895Y234985D01*
X1038644Y234816D01*
X1036220Y233812D01*
X1033648Y231240D01*
X1032256Y227879D01*
X1032256Y224241D01*
X1033648Y220880D01*
X1036220Y218308D01*
X1039581Y216916D01*
X1043219Y216916D01*
X1046580Y218308D01*
X1049152Y220880D01*
X1050306Y223667D01*
X1050450Y223892D01*
X1050696Y224070D01*
X1050992Y224137D01*
X1051291Y224084D01*
X1051545Y223918D01*
X1051714Y223667D01*
X1053107Y220305D01*
X1055965Y217447D01*
X1059699Y215900D01*
X1060958Y215900D01*
X1060958Y236220D01*
X1059699Y236220D01*
X1058412Y235687D01*
X1058156Y235630D01*
X1057857Y235676D01*
X1057599Y235835D01*
X1057423Y236082D01*
X1057358Y236379D01*
X1057414Y236677D01*
X1057581Y236930D01*
X1059312Y238660D01*
X1060704Y242021D01*
X1060704Y245659D01*
X1059312Y249020D01*
X1056740Y251592D01*
X1054316Y252596D01*
X1054078Y252752D01*
X1053906Y253002D01*
X1053846Y253300D01*
X1053846Y301937D01*
X1022820Y332963D01*
X1022667Y333183D01*
X1022597Y333478D01*
X1022648Y333777D01*
X1022811Y334032D01*
X1023061Y334204D01*
X1023359Y334264D01*
X1044448Y334264D01*
X1044734Y334208D01*
X1044987Y334041D01*
X1079531Y299497D01*
X1079694Y299255D01*
X1079754Y298958D01*
X1079754Y250737D01*
X1079707Y250474D01*
X1079548Y250216D01*
X1079300Y250040D01*
X1079004Y249975D01*
X1078706Y250031D01*
X1078453Y250198D01*
X1077060Y251592D01*
X1073699Y252984D01*
X1070061Y252984D01*
X1066700Y251592D01*
X1064128Y249020D01*
X1062736Y245659D01*
X1062736Y242021D01*
X1064128Y238660D01*
X1065859Y236930D01*
X1066009Y236716D01*
X1066082Y236421D01*
X1066033Y236122D01*
X1065872Y235865D01*
X1065623Y235691D01*
X1065326Y235629D01*
X1065029Y235687D01*
X1063741Y236220D01*
X1062482Y236220D01*
X1062482Y215900D01*
X1063741Y215900D01*
X1067475Y217447D01*
X1070333Y220305D01*
X1071726Y223667D01*
X1071870Y223892D01*
X1072116Y224070D01*
X1072412Y224137D01*
X1072710Y224084D01*
X1072964Y223918D01*
X1073134Y223667D01*
X1074288Y220880D01*
X1076860Y218308D01*
X1080221Y216916D01*
X1083859Y216916D01*
X1087220Y218308D01*
X1089792Y220880D01*
X1091184Y224241D01*
X1091184Y227879D01*
X1089792Y231240D01*
X1087220Y233812D01*
X1084796Y234816D01*
X1084558Y234972D01*
X1084386Y235222D01*
X1084326Y235520D01*
X1084326Y236943D01*
X1084373Y237206D01*
X1084532Y237464D01*
X1084780Y237640D01*
X1085076Y237705D01*
X1085374Y237649D01*
X1085627Y237482D01*
X1087020Y236088D01*
X1090381Y234696D01*
X1092454Y234696D01*
X1092729Y234645D01*
X1092984Y234481D01*
X1093156Y234231D01*
X1093216Y233934D01*
X1093216Y217809D01*
X1094109Y216916D01*
X1100330Y216916D01*
X1100605Y216865D01*
X1100860Y216701D01*
X1101032Y216451D01*
X1101092Y216154D01*
X1101092Y190241D01*
X1101036Y189955D01*
X1100869Y189702D01*
X1084308Y173141D01*
X1084067Y172978D01*
X1083769Y172918D01*
X1079842Y172918D01*
X1076734Y169810D01*
X1076734Y165414D01*
X1079842Y162306D01*
X1084238Y162306D01*
X1087346Y165414D01*
X1087346Y169397D01*
X1087402Y169683D01*
X1087569Y169936D01*
X1105664Y188031D01*
X1105664Y188167D01*
X1105681Y188329D01*
X1105803Y188606D01*
X1106024Y188814D01*
X1106309Y188920D01*
X1106611Y188906D01*
X1106885Y188775D01*
X1107086Y188548D01*
X1109367Y184597D01*
X1114237Y179727D01*
X1120203Y176283D01*
X1126856Y174500D01*
X1133744Y174500D01*
X1140397Y176283D01*
X1146363Y179727D01*
X1151233Y184597D01*
X1154677Y190563D01*
X1156460Y197216D01*
X1156460Y204104D01*
X1154677Y210757D01*
X1151233Y216723D01*
X1148231Y219725D01*
X1148078Y219945D01*
X1148008Y220240D01*
X1148059Y220539D01*
X1148222Y220794D01*
X1148472Y220966D01*
X1148769Y221026D01*
X1151129Y221026D01*
X1156357Y223191D01*
X1160359Y227193D01*
X1162524Y232421D01*
X1162524Y238079D01*
X1160359Y243307D01*
X1156357Y247309D01*
X1151129Y249474D01*
X1145471Y249474D01*
X1140243Y247309D01*
X1136241Y243307D01*
X1134076Y238079D01*
X1134076Y232421D01*
X1136136Y227448D01*
X1136183Y227286D01*
X1136174Y226983D01*
X1136047Y226707D01*
X1135823Y226503D01*
X1135537Y226402D01*
X1135234Y226421D01*
X1133744Y226820D01*
X1126856Y226820D01*
X1120203Y225037D01*
X1114237Y221593D01*
X1112805Y220161D01*
X1112585Y220008D01*
X1112290Y219938D01*
X1111991Y219989D01*
X1111736Y220152D01*
X1111564Y220402D01*
X1111504Y220699D01*
X1111504Y234311D01*
X1110611Y235204D01*
X1098335Y235204D01*
X1098072Y235251D01*
X1097814Y235410D01*
X1097638Y235658D01*
X1097573Y235954D01*
X1097629Y236252D01*
X1097796Y236505D01*
X1099952Y238660D01*
X1101344Y242021D01*
X1101344Y245659D01*
X1099952Y249020D01*
X1097380Y251592D01*
X1094019Y252984D01*
X1090381Y252984D01*
X1087020Y251592D01*
X1085627Y250198D01*
X1085407Y250045D01*
X1085112Y249976D01*
X1084813Y250026D01*
X1084558Y250190D01*
X1084386Y250440D01*
X1084326Y250737D01*
X1084326Y301167D01*
X1049482Y336011D01*
X1049329Y336231D01*
X1049259Y336526D01*
X1049310Y336825D01*
X1049474Y337080D01*
X1049724Y337252D01*
X1050021Y337312D01*
X1214889Y337312D01*
X1215175Y337256D01*
X1215428Y337089D01*
X1251743Y300774D01*
X1251906Y300533D01*
X1251966Y300235D01*
X1251966Y278837D01*
X1251919Y278574D01*
X1251760Y278316D01*
X1251512Y278141D01*
X1251216Y278076D01*
X1250918Y278131D01*
X1250665Y278299D01*
X1248068Y280896D01*
X1243672Y280896D01*
X1240564Y277788D01*
X1240564Y273392D01*
X1242345Y271611D01*
X1242508Y271370D01*
X1242568Y271073D01*
X1242568Y250483D01*
X1242521Y250220D01*
X1242362Y249962D01*
X1242114Y249786D01*
X1241818Y249721D01*
X1241520Y249777D01*
X1241267Y249944D01*
X1239620Y251592D01*
X1236259Y252984D01*
X1232621Y252984D01*
X1229260Y251592D01*
X1226688Y249020D01*
X1225296Y245659D01*
X1225296Y242021D01*
X1226688Y238660D01*
X1229260Y236088D01*
X1232621Y234696D01*
X1236259Y234696D01*
X1239620Y236088D01*
X1241267Y237736D01*
X1241487Y237889D01*
X1241782Y237958D01*
X1242081Y237908D01*
X1242336Y237744D01*
X1242508Y237494D01*
X1242568Y237197D01*
X1242568Y235625D01*
X1242515Y235345D01*
X1242349Y235090D01*
X1242098Y234921D01*
X1239420Y233812D01*
X1236848Y231240D01*
X1235456Y227879D01*
X1235456Y224241D01*
X1236848Y220880D01*
X1239420Y218308D01*
X1242781Y216916D01*
X1246419Y216916D01*
X1249780Y218308D01*
X1252352Y220880D01*
X1253506Y223667D01*
X1253650Y223892D01*
X1253896Y224070D01*
X1254192Y224137D01*
X1254491Y224084D01*
X1254745Y223918D01*
X1254914Y223667D01*
X1256307Y220305D01*
X1259165Y217447D01*
X1262899Y215900D01*
X1264158Y215900D01*
X1264158Y236220D01*
X1262899Y236220D01*
X1261612Y235687D01*
X1261356Y235630D01*
X1261057Y235676D01*
X1260799Y235835D01*
X1260623Y236082D01*
X1260558Y236379D01*
X1260614Y236677D01*
X1260781Y236930D01*
X1262512Y238660D01*
X1263904Y242021D01*
X1263904Y245659D01*
X1262512Y249020D01*
X1259940Y251592D01*
X1257008Y252806D01*
X1256770Y252963D01*
X1256598Y253213D01*
X1256538Y253510D01*
X1256538Y302445D01*
X1219924Y339059D01*
X1219771Y339279D01*
X1219701Y339574D01*
X1219752Y339873D01*
X1219915Y340128D01*
X1220165Y340300D01*
X1220463Y340360D01*
X1241552Y340360D01*
X1241838Y340304D01*
X1242091Y340137D01*
X1282731Y299497D01*
X1282894Y299255D01*
X1282954Y298958D01*
X1282954Y250737D01*
X1282907Y250474D01*
X1282748Y250216D01*
X1282500Y250040D01*
X1282204Y249975D01*
X1281906Y250031D01*
X1281653Y250198D01*
X1280260Y251592D01*
X1276899Y252984D01*
X1273261Y252984D01*
X1269900Y251592D01*
X1267328Y249020D01*
X1265936Y245659D01*
X1265936Y242021D01*
X1267328Y238660D01*
X1269059Y236930D01*
X1269209Y236716D01*
X1269282Y236421D01*
X1269233Y236122D01*
X1269072Y235865D01*
X1268823Y235691D01*
X1268526Y235629D01*
X1268229Y235687D01*
X1266941Y236220D01*
X1265682Y236220D01*
X1265682Y215900D01*
X1266941Y215900D01*
X1270675Y217447D01*
X1273533Y220305D01*
X1274926Y223667D01*
X1275070Y223892D01*
X1275316Y224070D01*
X1275612Y224137D01*
X1275910Y224084D01*
X1276164Y223918D01*
X1276334Y223667D01*
X1277488Y220880D01*
X1280060Y218308D01*
X1283421Y216916D01*
X1287059Y216916D01*
X1290420Y218308D01*
X1292992Y220880D01*
X1294384Y224241D01*
X1294384Y227879D01*
X1292992Y231240D01*
X1290420Y233812D01*
X1287996Y234816D01*
X1287758Y234972D01*
X1287586Y235222D01*
X1287526Y235520D01*
X1287526Y236943D01*
X1287573Y237206D01*
X1287732Y237464D01*
X1287980Y237640D01*
X1288276Y237705D01*
X1288574Y237649D01*
X1288827Y237482D01*
X1290220Y236088D01*
X1293581Y234696D01*
X1295654Y234696D01*
X1295929Y234645D01*
X1296184Y234481D01*
X1296356Y234231D01*
X1296416Y233934D01*
X1296416Y217809D01*
X1297309Y216916D01*
X1303530Y216916D01*
X1303805Y216865D01*
X1304060Y216701D01*
X1304232Y216451D01*
X1304292Y216154D01*
X1304292Y190213D01*
X1304236Y189927D01*
X1304069Y189674D01*
X1287536Y173141D01*
X1287295Y172978D01*
X1286997Y172918D01*
X1283042Y172918D01*
X1279934Y169810D01*
X1279934Y165414D01*
X1283042Y162306D01*
X1287438Y162306D01*
X1290546Y165414D01*
X1290546Y169369D01*
X1290602Y169655D01*
X1290769Y169908D01*
X1308864Y188003D01*
X1308864Y188167D01*
X1308881Y188329D01*
X1309003Y188606D01*
X1309224Y188814D01*
X1309509Y188920D01*
X1309811Y188906D01*
X1310085Y188775D01*
X1310286Y188548D01*
X1312567Y184597D01*
X1317437Y179727D01*
X1323403Y176283D01*
X1330056Y174500D01*
X1336944Y174500D01*
X1343597Y176283D01*
X1349563Y179727D01*
X1354433Y184597D01*
X1357877Y190563D01*
X1359660Y197216D01*
X1359660Y204104D01*
X1357877Y210757D01*
X1354433Y216723D01*
X1351431Y219725D01*
X1351278Y219945D01*
X1351208Y220240D01*
X1351259Y220539D01*
X1351422Y220794D01*
X1351672Y220966D01*
X1351969Y221026D01*
X1354329Y221026D01*
X1359557Y223191D01*
X1363559Y227193D01*
X1365724Y232421D01*
X1365724Y238079D01*
X1363559Y243307D01*
X1359557Y247309D01*
X1354329Y249474D01*
X1348671Y249474D01*
X1343443Y247309D01*
X1339441Y243307D01*
X1337276Y238079D01*
X1337276Y232421D01*
X1339336Y227448D01*
X1339383Y227286D01*
X1339374Y226983D01*
X1339247Y226707D01*
X1339023Y226503D01*
X1338737Y226402D01*
X1338434Y226421D01*
X1336944Y226820D01*
X1330056Y226820D01*
X1323403Y225037D01*
X1317437Y221593D01*
X1316005Y220161D01*
X1315785Y220008D01*
X1315490Y219938D01*
X1315191Y219989D01*
X1314936Y220152D01*
X1314764Y220402D01*
X1314704Y220699D01*
X1314704Y234311D01*
X1313811Y235204D01*
X1301535Y235204D01*
X1301272Y235251D01*
X1301014Y235410D01*
X1300838Y235658D01*
X1300773Y235954D01*
X1300829Y236252D01*
X1300996Y236505D01*
X1303152Y238660D01*
X1304544Y242021D01*
X1304544Y245659D01*
X1303152Y249020D01*
X1300580Y251592D01*
X1297219Y252984D01*
X1293581Y252984D01*
X1290220Y251592D01*
X1288827Y250198D01*
X1288607Y250045D01*
X1288312Y249976D01*
X1288013Y250026D01*
X1287758Y250190D01*
X1287586Y250440D01*
X1287526Y250737D01*
X1287526Y301168D01*
X1246586Y342107D01*
X1246433Y342327D01*
X1246364Y342622D01*
X1246414Y342921D01*
X1246578Y343176D01*
X1246828Y343348D01*
X1247125Y343408D01*
X1411762Y343408D01*
X1412048Y343352D01*
X1412301Y343185D01*
X1455451Y300035D01*
X1455614Y299793D01*
X1455674Y299496D01*
X1455674Y253300D01*
X1455621Y253019D01*
X1455455Y252765D01*
X1455204Y252596D01*
X1452780Y251592D01*
X1451387Y250198D01*
X1451167Y250045D01*
X1450872Y249976D01*
X1450573Y250026D01*
X1450318Y250190D01*
X1450146Y250440D01*
X1450086Y250737D01*
X1450086Y261167D01*
X1450142Y261453D01*
X1450309Y261705D01*
X1453106Y264502D01*
X1453106Y268898D01*
X1449998Y272006D01*
X1445602Y272006D01*
X1442494Y268898D01*
X1442494Y264502D01*
X1445291Y261705D01*
X1445454Y261464D01*
X1445514Y261167D01*
X1445514Y250737D01*
X1445467Y250474D01*
X1445308Y250216D01*
X1445060Y250040D01*
X1444764Y249975D01*
X1444466Y250031D01*
X1444213Y250198D01*
X1442820Y251592D01*
X1439459Y252984D01*
X1435821Y252984D01*
X1432460Y251592D01*
X1429888Y249020D01*
X1428496Y245659D01*
X1428496Y242021D01*
X1429888Y238660D01*
X1432460Y236088D01*
X1435821Y234696D01*
X1439459Y234696D01*
X1442820Y236088D01*
X1444213Y237482D01*
X1444433Y237635D01*
X1444728Y237704D01*
X1445027Y237654D01*
X1445282Y237490D01*
X1445454Y237240D01*
X1445514Y236943D01*
X1445514Y235520D01*
X1445461Y235239D01*
X1445295Y234985D01*
X1445044Y234816D01*
X1442620Y233812D01*
X1440048Y231240D01*
X1438656Y227879D01*
X1438656Y224241D01*
X1440048Y220880D01*
X1442620Y218308D01*
X1445981Y216916D01*
X1449619Y216916D01*
X1452980Y218308D01*
X1455552Y220880D01*
X1456706Y223667D01*
X1456850Y223892D01*
X1457096Y224070D01*
X1457392Y224137D01*
X1457691Y224084D01*
X1457945Y223918D01*
X1458114Y223667D01*
X1459507Y220305D01*
X1462365Y217447D01*
X1466099Y215900D01*
X1467358Y215900D01*
X1467358Y236220D01*
X1466099Y236220D01*
X1464812Y235687D01*
X1464556Y235630D01*
X1464257Y235676D01*
X1463999Y235835D01*
X1463823Y236082D01*
X1463758Y236379D01*
X1463814Y236677D01*
X1463981Y236930D01*
X1465712Y238660D01*
X1467104Y242021D01*
X1467104Y245659D01*
X1465712Y249020D01*
X1463140Y251592D01*
X1460716Y252596D01*
X1460478Y252752D01*
X1460306Y253002D01*
X1460246Y253300D01*
X1460246Y301705D01*
X1416796Y345155D01*
X1416643Y345375D01*
X1416573Y345670D01*
X1416624Y345969D01*
X1416788Y346224D01*
X1417038Y346396D01*
X1417335Y346456D01*
X1438424Y346456D01*
X1438710Y346400D01*
X1438963Y346233D01*
X1485931Y299265D01*
X1486094Y299024D01*
X1486154Y298726D01*
X1486154Y250737D01*
X1486107Y250474D01*
X1485948Y250216D01*
X1485700Y250040D01*
X1485404Y249975D01*
X1485106Y250031D01*
X1484853Y250198D01*
X1483460Y251592D01*
X1480099Y252984D01*
X1476461Y252984D01*
X1473100Y251592D01*
X1470528Y249020D01*
X1469136Y245659D01*
X1469136Y242021D01*
X1470528Y238660D01*
X1472259Y236930D01*
X1472409Y236716D01*
X1472482Y236421D01*
X1472433Y236122D01*
X1472272Y235865D01*
X1472023Y235691D01*
X1471726Y235629D01*
X1471429Y235687D01*
X1470141Y236220D01*
X1468882Y236220D01*
X1468882Y215900D01*
X1470141Y215900D01*
X1473875Y217447D01*
X1476733Y220305D01*
X1478126Y223667D01*
X1478270Y223892D01*
X1478516Y224070D01*
X1478812Y224137D01*
X1479110Y224084D01*
X1479364Y223918D01*
X1479534Y223667D01*
X1480688Y220880D01*
X1483260Y218308D01*
X1486621Y216916D01*
X1490259Y216916D01*
X1493620Y218308D01*
X1496192Y220880D01*
X1497584Y224241D01*
X1497584Y227879D01*
X1496192Y231240D01*
X1493620Y233812D01*
X1491196Y234816D01*
X1490958Y234972D01*
X1490786Y235222D01*
X1490726Y235520D01*
X1490726Y236943D01*
X1490773Y237206D01*
X1490932Y237464D01*
X1491180Y237640D01*
X1491476Y237705D01*
X1491774Y237649D01*
X1492027Y237482D01*
X1493420Y236088D01*
X1496781Y234696D01*
X1498854Y234696D01*
X1499129Y234645D01*
X1499384Y234481D01*
X1499556Y234231D01*
X1499616Y233934D01*
X1499616Y217809D01*
X1500509Y216916D01*
X1514559Y216916D01*
X1514918Y216826D01*
X1515152Y216632D01*
X1515291Y216363D01*
X1515315Y216061D01*
X1515219Y215773D01*
X1512323Y210757D01*
X1510540Y204104D01*
X1510540Y197216D01*
X1512323Y190563D01*
X1515767Y184597D01*
X1520637Y179727D01*
X1526603Y176283D01*
X1533256Y174500D01*
X1540144Y174500D01*
X1546797Y176283D01*
X1552763Y179727D01*
X1557633Y184597D01*
X1561077Y190563D01*
X1562860Y197216D01*
X1562860Y204104D01*
X1561077Y210757D01*
X1557633Y216723D01*
X1554631Y219725D01*
X1554478Y219945D01*
X1554408Y220240D01*
X1554459Y220539D01*
X1554622Y220794D01*
X1554872Y220966D01*
X1555169Y221026D01*
X1557529Y221026D01*
X1562757Y223191D01*
X1566759Y227193D01*
X1568924Y232421D01*
X1568924Y238079D01*
X1566759Y243307D01*
X1562757Y247309D01*
X1557529Y249474D01*
X1551871Y249474D01*
X1546643Y247309D01*
X1542641Y243307D01*
X1540476Y238079D01*
X1540476Y232421D01*
X1542536Y227448D01*
X1542583Y227286D01*
X1542574Y226983D01*
X1542447Y226707D01*
X1542223Y226503D01*
X1541937Y226402D01*
X1541634Y226421D01*
X1540144Y226820D01*
X1533256Y226820D01*
X1526603Y225037D01*
X1520637Y221593D01*
X1519205Y220161D01*
X1518985Y220008D01*
X1518690Y219938D01*
X1518391Y219989D01*
X1518136Y220152D01*
X1517964Y220402D01*
X1517904Y220699D01*
X1517904Y234311D01*
X1517011Y235204D01*
X1511554Y235204D01*
X1511279Y235255D01*
X1511024Y235419D01*
X1510852Y235669D01*
X1510792Y235966D01*
X1510792Y380431D01*
X1506887Y384336D01*
X1506724Y384577D01*
X1506664Y384875D01*
X1506664Y400981D01*
X1505771Y401874D01*
X1489509Y401874D01*
X1488616Y400981D01*
X1488616Y379719D01*
X1489509Y378826D01*
X1505458Y378826D01*
X1505733Y378775D01*
X1505988Y378611D01*
X1506160Y378361D01*
X1506220Y378064D01*
X1506220Y250991D01*
X1506173Y250728D01*
X1506014Y250470D01*
X1505766Y250294D01*
X1505470Y250229D01*
X1505172Y250285D01*
X1504919Y250452D01*
X1503780Y251592D01*
X1501356Y252596D01*
X1501118Y252752D01*
X1500946Y253002D01*
X1500886Y253300D01*
X1500886Y331504D01*
X1474504Y357886D01*
X1474463Y357886D01*
X1474177Y357942D01*
X1473924Y358109D01*
X1463009Y369024D01*
X1462846Y369265D01*
X1462786Y369563D01*
X1462786Y392680D01*
X1462842Y392966D01*
X1463009Y393219D01*
X1467315Y397525D01*
X1467535Y397678D01*
X1467830Y397748D01*
X1468129Y397697D01*
X1468384Y397534D01*
X1468556Y397284D01*
X1468616Y396986D01*
X1468616Y379719D01*
X1469509Y378826D01*
X1485771Y378826D01*
X1486664Y379719D01*
X1486664Y400981D01*
X1485771Y401874D01*
X1473504Y401874D01*
X1473240Y401921D01*
X1472982Y402080D01*
X1472807Y402328D01*
X1472742Y402624D01*
X1472797Y402922D01*
X1472965Y403175D01*
X1473681Y403891D01*
X1473922Y404054D01*
X1474220Y404114D01*
X1552327Y404114D01*
X1552613Y404058D01*
X1552866Y403891D01*
X1560393Y396364D01*
X1560556Y396123D01*
X1560616Y395825D01*
X1560616Y379719D01*
X1561509Y378826D01*
X1576378Y378826D01*
X1576653Y378775D01*
X1576908Y378611D01*
X1577080Y378361D01*
X1577140Y378064D01*
X1577140Y158242D01*
X1577089Y157967D01*
X1576925Y157712D01*
X1576675Y157540D01*
G37*
%LPC*%
G36*
X17394Y379026D02*
X20706Y379026D01*
X23765Y380293D01*
X26107Y382635D01*
X27374Y385694D01*
X27374Y389006D01*
X26563Y390965D01*
X26505Y391244D01*
X26560Y391542D01*
X26728Y391795D01*
X40386Y405453D01*
X40386Y434947D01*
X18229Y457104D01*
X18066Y457346D01*
X18006Y457643D01*
X18006Y459398D01*
X14898Y462506D01*
X10943Y462506D01*
X10657Y462562D01*
X10404Y462729D01*
X-3841Y476974D01*
X-4004Y477215D01*
X-4064Y477513D01*
X-4064Y906009D01*
X-4008Y906295D01*
X-3841Y906547D01*
X2375Y912763D01*
X2595Y912916D01*
X2890Y912986D01*
X3189Y912935D01*
X3444Y912772D01*
X3616Y912522D01*
X3676Y912225D01*
X3676Y910687D01*
X5050Y907370D01*
X7588Y904831D01*
X10905Y903458D01*
X14495Y903458D01*
X17812Y904831D01*
X20350Y907370D01*
X21648Y910503D01*
X21788Y910724D01*
X22033Y910903D01*
X22328Y910973D01*
X22627Y910922D01*
X22882Y910759D01*
X23054Y910509D01*
X23114Y910212D01*
X23114Y901044D01*
X23058Y900758D01*
X22891Y900505D01*
X18714Y896329D01*
X18473Y896166D01*
X18175Y896106D01*
X4569Y896106D01*
X3676Y895213D01*
X3676Y878950D01*
X4569Y878058D01*
X20831Y878058D01*
X21724Y878950D01*
X21724Y892557D01*
X21780Y892843D01*
X21947Y893096D01*
X27686Y898835D01*
X27686Y910212D01*
X27731Y910469D01*
X27888Y910728D01*
X28134Y910906D01*
X28430Y910973D01*
X28728Y910920D01*
X28983Y910755D01*
X29152Y910503D01*
X30450Y907370D01*
X32988Y904831D01*
X36305Y903458D01*
X39895Y903458D01*
X43212Y904831D01*
X45750Y907370D01*
X47048Y910503D01*
X47188Y910724D01*
X47433Y910903D01*
X47728Y910973D01*
X48027Y910922D01*
X48282Y910759D01*
X48454Y910509D01*
X48514Y910212D01*
X48514Y901044D01*
X48458Y900758D01*
X48291Y900505D01*
X43081Y895295D01*
X42845Y895135D01*
X42548Y895072D01*
X42250Y895130D01*
X39895Y896106D01*
X36305Y896106D01*
X32988Y894732D01*
X30450Y892193D01*
X29076Y888877D01*
X29076Y885287D01*
X30450Y881970D01*
X32988Y879431D01*
X36305Y878058D01*
X39895Y878058D01*
X43212Y879431D01*
X45750Y881970D01*
X47124Y885287D01*
X47124Y888877D01*
X46148Y891232D01*
X46091Y891511D01*
X46146Y891809D01*
X46314Y892062D01*
X53086Y898835D01*
X53086Y910212D01*
X53131Y910469D01*
X53288Y910728D01*
X53534Y910906D01*
X53830Y910973D01*
X54128Y910920D01*
X54383Y910755D01*
X54552Y910503D01*
X55850Y907370D01*
X58388Y904831D01*
X61705Y903458D01*
X65295Y903458D01*
X68612Y904831D01*
X71150Y907370D01*
X72524Y910687D01*
X72524Y914277D01*
X71150Y917593D01*
X68612Y920132D01*
X65295Y921506D01*
X62978Y921506D01*
X62715Y921553D01*
X62457Y921712D01*
X62281Y921959D01*
X62216Y922255D01*
X62272Y922554D01*
X62439Y922806D01*
X74902Y935269D01*
X75143Y935432D01*
X75441Y935492D01*
X92942Y935492D01*
X93205Y935445D01*
X93463Y935286D01*
X93639Y935038D01*
X93704Y934742D01*
X93648Y934444D01*
X93481Y934191D01*
X76788Y917499D01*
X76788Y903918D01*
X76732Y903632D01*
X76565Y903379D01*
X68481Y895295D01*
X68245Y895135D01*
X67948Y895072D01*
X67650Y895130D01*
X65295Y896106D01*
X61705Y896106D01*
X58388Y894732D01*
X55850Y892193D01*
X54476Y888877D01*
X54476Y885287D01*
X55850Y881970D01*
X58388Y879431D01*
X61705Y878058D01*
X65295Y878058D01*
X68612Y879431D01*
X71150Y881970D01*
X72524Y885287D01*
X72524Y888877D01*
X71548Y891232D01*
X71491Y891511D01*
X71546Y891809D01*
X71714Y892062D01*
X81360Y901709D01*
X81360Y905420D01*
X81407Y905683D01*
X81566Y905942D01*
X81814Y906117D01*
X82110Y906182D01*
X82408Y906126D01*
X82661Y905959D01*
X83788Y904831D01*
X87105Y903458D01*
X90695Y903458D01*
X94012Y904831D01*
X96550Y907370D01*
X97848Y910503D01*
X97988Y910724D01*
X98233Y910903D01*
X98528Y910973D01*
X98827Y910922D01*
X99082Y910759D01*
X99254Y910509D01*
X99314Y910212D01*
X99314Y901044D01*
X99258Y900758D01*
X99091Y900505D01*
X93881Y895295D01*
X93645Y895135D01*
X93348Y895072D01*
X93050Y895130D01*
X90695Y896106D01*
X87105Y896106D01*
X83788Y894732D01*
X81250Y892193D01*
X79876Y888877D01*
X79876Y885287D01*
X81250Y881970D01*
X83788Y879431D01*
X87105Y878058D01*
X90695Y878058D01*
X94012Y879431D01*
X96550Y881970D01*
X97924Y885287D01*
X97924Y888877D01*
X96948Y891232D01*
X96891Y891511D01*
X96946Y891809D01*
X97114Y892062D01*
X103886Y898835D01*
X103886Y910212D01*
X103931Y910469D01*
X104088Y910728D01*
X104334Y910906D01*
X104630Y910973D01*
X104928Y910920D01*
X105183Y910755D01*
X105352Y910503D01*
X106650Y907370D01*
X109188Y904831D01*
X112505Y903458D01*
X116095Y903458D01*
X119412Y904831D01*
X121950Y907370D01*
X123248Y910503D01*
X123388Y910724D01*
X123633Y910903D01*
X123928Y910973D01*
X124227Y910922D01*
X124482Y910759D01*
X124654Y910509D01*
X124714Y910212D01*
X124714Y901044D01*
X124658Y900758D01*
X124491Y900505D01*
X119281Y895295D01*
X119045Y895135D01*
X118748Y895072D01*
X118450Y895130D01*
X116095Y896106D01*
X112505Y896106D01*
X109188Y894732D01*
X106650Y892193D01*
X105276Y888877D01*
X105276Y885287D01*
X106650Y881970D01*
X109188Y879431D01*
X112505Y878058D01*
X116095Y878058D01*
X119412Y879431D01*
X121950Y881970D01*
X123324Y885287D01*
X123324Y888877D01*
X122348Y891232D01*
X122291Y891511D01*
X122346Y891809D01*
X122514Y892062D01*
X129286Y898835D01*
X129286Y910212D01*
X129331Y910469D01*
X129488Y910728D01*
X129734Y910906D01*
X130030Y910973D01*
X130328Y910920D01*
X130583Y910755D01*
X130752Y910503D01*
X132050Y907370D01*
X134588Y904831D01*
X137905Y903458D01*
X141495Y903458D01*
X143213Y904169D01*
X143468Y904226D01*
X143768Y904180D01*
X144026Y904021D01*
X144202Y903774D01*
X144267Y903478D01*
X144211Y903179D01*
X144044Y902927D01*
X137387Y896270D01*
X137361Y896131D01*
X137195Y895877D01*
X136944Y895707D01*
X134588Y894732D01*
X132050Y892193D01*
X130676Y888877D01*
X130676Y885287D01*
X132050Y881970D01*
X134588Y879431D01*
X137905Y878058D01*
X141495Y878058D01*
X144812Y879431D01*
X147350Y881970D01*
X148724Y885287D01*
X148724Y888877D01*
X147350Y892193D01*
X144812Y894732D01*
X144100Y895027D01*
X143870Y895175D01*
X143694Y895422D01*
X143629Y895719D01*
X143685Y896017D01*
X143852Y896270D01*
X154686Y907103D01*
X154686Y910212D01*
X154731Y910469D01*
X154888Y910728D01*
X155134Y910906D01*
X155430Y910973D01*
X155728Y910920D01*
X155983Y910755D01*
X156152Y910503D01*
X157450Y907370D01*
X159988Y904831D01*
X163305Y903458D01*
X166895Y903458D01*
X170212Y904831D01*
X172750Y907370D01*
X174124Y910687D01*
X174124Y914277D01*
X172750Y917593D01*
X170212Y920132D01*
X166895Y921506D01*
X165357Y921506D01*
X165094Y921553D01*
X164836Y921712D01*
X164660Y921959D01*
X164595Y922255D01*
X164651Y922554D01*
X164818Y922806D01*
X165089Y923077D01*
X165330Y923240D01*
X165627Y923300D01*
X202988Y923300D01*
X203274Y923244D01*
X203527Y923077D01*
X283578Y843026D01*
X778562Y843026D01*
X778848Y842970D01*
X779101Y842803D01*
X817403Y804501D01*
X817566Y804259D01*
X817626Y803962D01*
X817626Y658691D01*
X842403Y633914D01*
X842566Y633673D01*
X842619Y633412D01*
X843855Y630426D01*
X846126Y628155D01*
X849094Y626926D01*
X865406Y626926D01*
X868374Y628155D01*
X870645Y630426D01*
X871874Y633394D01*
X871874Y636606D01*
X870645Y639574D01*
X868374Y641845D01*
X865406Y643074D01*
X849094Y643074D01*
X846126Y641845D01*
X844071Y639789D01*
X843841Y639631D01*
X843544Y639566D01*
X843246Y639622D01*
X842993Y639789D01*
X822421Y660362D01*
X822258Y660603D01*
X822198Y660901D01*
X822198Y677679D01*
X822245Y677943D01*
X822404Y678201D01*
X822652Y678376D01*
X822948Y678441D01*
X823246Y678386D01*
X823499Y678218D01*
X842403Y659314D01*
X842566Y659073D01*
X842619Y658812D01*
X843855Y655826D01*
X846126Y653555D01*
X849094Y652326D01*
X865406Y652326D01*
X868374Y653555D01*
X870645Y655826D01*
X871874Y658794D01*
X871874Y662006D01*
X870645Y664974D01*
X868374Y667245D01*
X865406Y668474D01*
X849094Y668474D01*
X846126Y667245D01*
X844071Y665189D01*
X843841Y665031D01*
X843544Y664966D01*
X843246Y665022D01*
X842993Y665189D01*
X825469Y682714D01*
X825306Y682955D01*
X825246Y683253D01*
X825246Y763531D01*
X825293Y763795D01*
X825452Y764053D01*
X825700Y764228D01*
X825996Y764293D01*
X826294Y764238D01*
X826547Y764070D01*
X846111Y744507D01*
X846269Y744276D01*
X846334Y743980D01*
X846278Y743682D01*
X846111Y743429D01*
X843855Y741174D01*
X842626Y738206D01*
X842626Y734994D01*
X843855Y732026D01*
X846126Y729755D01*
X849094Y728526D01*
X865406Y728526D01*
X868374Y729755D01*
X870645Y732026D01*
X871874Y734994D01*
X871874Y738206D01*
X870645Y741174D01*
X868374Y743445D01*
X865406Y744674D01*
X852725Y744674D01*
X852439Y744730D01*
X852186Y744897D01*
X828517Y768566D01*
X828354Y768807D01*
X828294Y769105D01*
X828294Y785883D01*
X828341Y786147D01*
X828500Y786405D01*
X828748Y786580D01*
X829044Y786645D01*
X829342Y786590D01*
X829595Y786422D01*
X846111Y769907D01*
X846269Y769676D01*
X846334Y769380D01*
X846278Y769082D01*
X846111Y768829D01*
X843855Y766574D01*
X842626Y763606D01*
X842626Y760394D01*
X843855Y757426D01*
X846126Y755155D01*
X849094Y753926D01*
X865406Y753926D01*
X868374Y755155D01*
X870645Y757426D01*
X871874Y760394D01*
X871874Y763606D01*
X870645Y766574D01*
X868374Y768845D01*
X865406Y770074D01*
X852725Y770074D01*
X852439Y770130D01*
X852186Y770297D01*
X831565Y790918D01*
X831402Y791159D01*
X831342Y791457D01*
X831342Y806704D01*
X831393Y806979D01*
X831557Y807234D01*
X831807Y807406D01*
X832104Y807466D01*
X833635Y807466D01*
X833921Y807410D01*
X834174Y807243D01*
X846111Y795307D01*
X846269Y795076D01*
X846334Y794780D01*
X846278Y794482D01*
X846111Y794229D01*
X843855Y791974D01*
X842626Y789006D01*
X842626Y785794D01*
X843855Y782826D01*
X846126Y780555D01*
X849094Y779326D01*
X865406Y779326D01*
X868374Y780555D01*
X870645Y782826D01*
X871874Y785794D01*
X871874Y789006D01*
X870645Y791974D01*
X868374Y794245D01*
X865406Y795474D01*
X852725Y795474D01*
X852439Y795530D01*
X852186Y795697D01*
X838670Y809213D01*
X838517Y809433D01*
X838447Y809728D01*
X838498Y810027D01*
X838661Y810282D01*
X838911Y810454D01*
X839209Y810514D01*
X842399Y810514D01*
X842679Y810461D01*
X842933Y810295D01*
X843103Y810044D01*
X843855Y808226D01*
X846126Y805955D01*
X849094Y804726D01*
X865406Y804726D01*
X868374Y805955D01*
X870645Y808226D01*
X871874Y811194D01*
X871874Y814406D01*
X870645Y817374D01*
X868374Y819645D01*
X865406Y820874D01*
X849094Y820874D01*
X846126Y819645D01*
X843855Y817374D01*
X843103Y815556D01*
X842946Y815318D01*
X842696Y815146D01*
X842399Y815086D01*
X835152Y815086D01*
X834866Y815142D01*
X834613Y815309D01*
X789909Y860013D01*
X789756Y860233D01*
X789686Y860528D01*
X789737Y860827D01*
X789901Y861082D01*
X790151Y861254D01*
X790448Y861314D01*
X830841Y861314D01*
X831105Y861267D01*
X831363Y861108D01*
X831538Y860860D01*
X831603Y860564D01*
X831548Y860266D01*
X831380Y860013D01*
X827796Y856429D01*
X827555Y856266D01*
X827257Y856206D01*
X823302Y856206D01*
X820194Y853098D01*
X820194Y848702D01*
X823302Y845594D01*
X827698Y845594D01*
X830806Y848702D01*
X830806Y852657D01*
X830862Y852943D01*
X831029Y853196D01*
X838924Y861091D01*
X839165Y861254D01*
X839463Y861314D01*
X1021341Y861314D01*
X1021605Y861267D01*
X1021863Y861108D01*
X1022038Y860860D01*
X1022103Y860564D01*
X1022048Y860266D01*
X1021880Y860013D01*
X982964Y821097D01*
X982723Y820934D01*
X982425Y820874D01*
X976094Y820874D01*
X973126Y819645D01*
X970855Y817374D01*
X969626Y814406D01*
X969626Y811194D01*
X970855Y808226D01*
X973126Y805955D01*
X976094Y804726D01*
X992406Y804726D01*
X995374Y805955D01*
X997645Y808226D01*
X998874Y811194D01*
X998874Y814406D01*
X997645Y817374D01*
X995374Y819645D01*
X992406Y820874D01*
X991047Y820874D01*
X990783Y820921D01*
X990525Y821080D01*
X990350Y821328D01*
X990285Y821624D01*
X990340Y821922D01*
X990508Y822175D01*
X1029424Y861091D01*
X1029665Y861254D01*
X1029963Y861314D01*
X1309047Y861314D01*
X1389949Y942216D01*
X1390168Y942369D01*
X1390463Y942439D01*
X1390762Y942388D01*
X1391018Y942224D01*
X1391189Y941974D01*
X1391250Y941677D01*
X1391250Y929210D01*
X1392142Y928317D01*
X1414558Y928317D01*
X1415451Y929210D01*
X1415451Y945611D01*
X1415502Y945886D01*
X1415665Y946141D01*
X1415915Y946313D01*
X1416213Y946373D01*
X1427128Y946373D01*
X1427414Y946317D01*
X1427667Y946150D01*
X1457153Y916664D01*
X1457316Y916423D01*
X1457376Y916125D01*
X1457376Y900493D01*
X1458415Y897985D01*
X1460335Y896065D01*
X1462843Y895026D01*
X1465557Y895026D01*
X1468066Y896065D01*
X1469985Y897985D01*
X1471024Y900493D01*
X1471024Y925207D01*
X1469985Y927716D01*
X1468066Y929635D01*
X1465557Y930674D01*
X1462843Y930674D01*
X1460335Y929635D01*
X1458415Y927716D01*
X1457376Y925207D01*
X1457376Y924747D01*
X1457329Y924483D01*
X1457170Y924225D01*
X1456922Y924050D01*
X1456626Y923985D01*
X1456328Y924040D01*
X1456075Y924208D01*
X1429338Y950945D01*
X1416213Y950945D01*
X1415938Y950996D01*
X1415682Y951160D01*
X1415511Y951410D01*
X1415451Y951707D01*
X1415451Y968108D01*
X1414558Y969001D01*
X1392142Y969001D01*
X1391250Y968108D01*
X1391250Y950298D01*
X1391194Y950012D01*
X1391026Y949759D01*
X1307376Y866109D01*
X1307135Y865946D01*
X1306837Y865886D01*
X293363Y865886D01*
X293077Y865942D01*
X292824Y866109D01*
X210497Y948436D01*
X31582Y948436D01*
X-8636Y908218D01*
X-8636Y475303D01*
X7171Y459496D01*
X7334Y459255D01*
X7394Y458957D01*
X7394Y455002D01*
X10502Y451894D01*
X14898Y451894D01*
X15397Y452393D01*
X15627Y452551D01*
X15923Y452616D01*
X16222Y452560D01*
X16474Y452393D01*
X21092Y447775D01*
X21245Y447555D01*
X21315Y447260D01*
X21264Y446961D01*
X21101Y446706D01*
X20851Y446534D01*
X20554Y446474D01*
X17394Y446474D01*
X14335Y445207D01*
X11993Y442865D01*
X10726Y439806D01*
X10726Y436494D01*
X11993Y433435D01*
X14335Y431093D01*
X17394Y429826D01*
X20706Y429826D01*
X23765Y431093D01*
X26107Y433435D01*
X27374Y436494D01*
X27374Y439654D01*
X27421Y439917D01*
X27580Y440175D01*
X27828Y440350D01*
X28124Y440416D01*
X28422Y440360D01*
X28675Y440192D01*
X35591Y433276D01*
X35754Y433035D01*
X35814Y432738D01*
X35814Y407663D01*
X35758Y407377D01*
X35591Y407124D01*
X23495Y395028D01*
X23259Y394867D01*
X22962Y394805D01*
X22665Y394863D01*
X20706Y395674D01*
X17394Y395674D01*
X14335Y394407D01*
X11993Y392065D01*
X10726Y389006D01*
X10726Y385694D01*
X11993Y382635D01*
X14335Y380293D01*
X17394Y379026D01*
G37*
G36*
X1480343Y952026D02*
X1505057Y952026D01*
X1507566Y953065D01*
X1509485Y954985D01*
X1510524Y957493D01*
X1510524Y960207D01*
X1509485Y962716D01*
X1507566Y964635D01*
X1505057Y965674D01*
X1480343Y965674D01*
X1477835Y964635D01*
X1475915Y962716D01*
X1474876Y960207D01*
X1474876Y957493D01*
X1475915Y954985D01*
X1477835Y953065D01*
X1480343Y952026D01*
G37*
G36*
X1214571Y891940D02*
X1223829Y891940D01*
X1232771Y894336D01*
X1240789Y898965D01*
X1247335Y905511D01*
X1251964Y913529D01*
X1254360Y922471D01*
X1254360Y931729D01*
X1251964Y940671D01*
X1247335Y948689D01*
X1240789Y955235D01*
X1232771Y959864D01*
X1223829Y962260D01*
X1214571Y962260D01*
X1205629Y959864D01*
X1197611Y955235D01*
X1191065Y948689D01*
X1186436Y940671D01*
X1184040Y931729D01*
X1184040Y922471D01*
X1186436Y913529D01*
X1191065Y905511D01*
X1197611Y898965D01*
X1205629Y894336D01*
X1214571Y891940D01*
G37*
G36*
X770071Y891940D02*
X779329Y891940D01*
X788271Y894336D01*
X796289Y898965D01*
X802835Y905511D01*
X807464Y913529D01*
X809860Y922471D01*
X809860Y931729D01*
X807464Y940671D01*
X802835Y948689D01*
X796289Y955235D01*
X788271Y959864D01*
X779329Y962260D01*
X770071Y962260D01*
X761129Y959864D01*
X753111Y955235D01*
X746565Y948689D01*
X741936Y940671D01*
X739540Y931729D01*
X739540Y922471D01*
X741936Y913529D01*
X746565Y905511D01*
X753111Y898965D01*
X761129Y894336D01*
X770071Y891940D01*
G37*
G36*
X325571Y891940D02*
X334829Y891940D01*
X343771Y894336D01*
X351789Y898965D01*
X358335Y905511D01*
X362964Y913529D01*
X365360Y922471D01*
X365360Y931729D01*
X362964Y940671D01*
X358335Y948689D01*
X351789Y955235D01*
X343771Y959864D01*
X334829Y962260D01*
X325571Y962260D01*
X316629Y959864D01*
X308611Y955235D01*
X302065Y948689D01*
X297436Y940671D01*
X295040Y931729D01*
X295040Y922471D01*
X297436Y913529D01*
X302065Y905511D01*
X308611Y898965D01*
X316629Y894336D01*
X325571Y891940D01*
G37*
G36*
X1523843Y895026D02*
X1526557Y895026D01*
X1529066Y896065D01*
X1530985Y897985D01*
X1532024Y900493D01*
X1532024Y925207D01*
X1530985Y927716D01*
X1529066Y929635D01*
X1526557Y930674D01*
X1523843Y930674D01*
X1521335Y929635D01*
X1519415Y927716D01*
X1518376Y925207D01*
X1518376Y900493D01*
X1519415Y897985D01*
X1521335Y896065D01*
X1523843Y895026D01*
G37*
G36*
X188705Y903458D02*
X192295Y903458D01*
X195612Y904831D01*
X198150Y907370D01*
X199524Y910687D01*
X199524Y914277D01*
X198150Y917593D01*
X195612Y920132D01*
X192295Y921506D01*
X188705Y921506D01*
X185388Y920132D01*
X182850Y917593D01*
X181476Y914277D01*
X181476Y910687D01*
X182850Y907370D01*
X185388Y904831D01*
X188705Y903458D01*
G37*
G36*
X1226619Y538226D02*
X1249881Y538226D01*
X1250774Y539119D01*
X1250774Y543052D01*
X1250825Y543327D01*
X1250989Y543582D01*
X1251239Y543754D01*
X1251536Y543814D01*
X1334447Y543814D01*
X1375156Y584523D01*
X1375156Y850907D01*
X1375212Y851193D01*
X1375379Y851446D01*
X1389949Y866016D01*
X1390168Y866169D01*
X1390463Y866239D01*
X1390762Y866188D01*
X1391018Y866024D01*
X1391189Y865774D01*
X1391250Y865477D01*
X1391250Y860692D01*
X1392142Y859799D01*
X1397789Y859799D01*
X1398052Y859752D01*
X1398310Y859593D01*
X1398485Y859345D01*
X1398550Y859049D01*
X1398495Y858751D01*
X1398327Y858498D01*
X1398044Y858215D01*
X1398044Y853819D01*
X1401152Y850711D01*
X1405548Y850711D01*
X1408656Y853819D01*
X1408656Y858215D01*
X1408373Y858498D01*
X1408220Y858718D01*
X1408150Y859013D01*
X1408201Y859312D01*
X1408364Y859567D01*
X1408614Y859739D01*
X1408911Y859799D01*
X1414558Y859799D01*
X1415451Y860692D01*
X1415451Y899590D01*
X1414558Y900483D01*
X1392142Y900483D01*
X1391250Y899590D01*
X1391250Y874098D01*
X1391194Y873812D01*
X1391026Y873559D01*
X1370584Y853117D01*
X1370584Y586733D01*
X1370528Y586447D01*
X1370361Y586194D01*
X1332776Y548609D01*
X1332535Y548446D01*
X1332237Y548386D01*
X1251536Y548386D01*
X1251261Y548437D01*
X1251006Y548601D01*
X1250834Y548851D01*
X1250774Y549148D01*
X1250774Y553081D01*
X1249881Y553974D01*
X1226619Y553974D01*
X1225726Y553081D01*
X1225726Y539119D01*
X1226619Y538226D01*
G37*
G36*
X410876Y395776D02*
X414624Y395776D01*
X417274Y398426D01*
X417274Y407653D01*
X417321Y407917D01*
X417480Y408175D01*
X417728Y408350D01*
X418024Y408415D01*
X418322Y408360D01*
X418575Y408192D01*
X420703Y406064D01*
X420866Y405823D01*
X420926Y405525D01*
X420926Y398426D01*
X423576Y395776D01*
X427324Y395776D01*
X429974Y398426D01*
X429974Y407653D01*
X430021Y407917D01*
X430180Y408175D01*
X430428Y408350D01*
X430724Y408415D01*
X431022Y408360D01*
X431275Y408192D01*
X433403Y406064D01*
X433566Y405823D01*
X433626Y405525D01*
X433626Y398426D01*
X436276Y395776D01*
X440024Y395776D01*
X442674Y398426D01*
X442674Y407653D01*
X442721Y407917D01*
X442880Y408175D01*
X443128Y408350D01*
X443424Y408415D01*
X443722Y408360D01*
X443975Y408192D01*
X446103Y406064D01*
X446266Y405823D01*
X446326Y405525D01*
X446326Y398426D01*
X448976Y395776D01*
X452724Y395776D01*
X455374Y398426D01*
X455374Y407653D01*
X455421Y407917D01*
X455580Y408175D01*
X455828Y408350D01*
X456124Y408415D01*
X456422Y408360D01*
X456675Y408192D01*
X458803Y406064D01*
X458966Y405823D01*
X459026Y405525D01*
X459026Y398426D01*
X461676Y395776D01*
X465424Y395776D01*
X468074Y398426D01*
X468074Y407653D01*
X468121Y407917D01*
X468280Y408175D01*
X468528Y408350D01*
X468824Y408415D01*
X469122Y408360D01*
X469375Y408192D01*
X471503Y406064D01*
X471666Y405823D01*
X471726Y405525D01*
X471726Y398426D01*
X474376Y395776D01*
X478124Y395776D01*
X480774Y398426D01*
X480774Y407653D01*
X480821Y407917D01*
X480980Y408175D01*
X481228Y408350D01*
X481524Y408415D01*
X481822Y408360D01*
X482075Y408192D01*
X484203Y406064D01*
X484366Y405823D01*
X484426Y405525D01*
X484426Y398426D01*
X487076Y395776D01*
X490824Y395776D01*
X493474Y398426D01*
X493474Y410674D01*
X490824Y413324D01*
X487076Y413324D01*
X485781Y412029D01*
X485551Y411871D01*
X485255Y411806D01*
X484957Y411862D01*
X484704Y412029D01*
X460107Y436626D01*
X410086Y436626D01*
X409800Y436682D01*
X409547Y436849D01*
X345400Y500996D01*
X286427Y500996D01*
X286141Y501052D01*
X285888Y501219D01*
X269463Y517644D01*
X269300Y517886D01*
X269240Y518183D01*
X269240Y546877D01*
X269287Y547140D01*
X269446Y547398D01*
X269694Y547574D01*
X269990Y547639D01*
X270288Y547583D01*
X270541Y547416D01*
X299543Y518414D01*
X324667Y518414D01*
X324953Y518358D01*
X325205Y518191D01*
X328002Y515394D01*
X332398Y515394D01*
X335506Y518502D01*
X335506Y522898D01*
X332398Y526006D01*
X328002Y526006D01*
X325205Y523209D01*
X324964Y523046D01*
X324667Y522986D01*
X301752Y522986D01*
X301466Y523042D01*
X301213Y523209D01*
X294609Y529813D01*
X294456Y530033D01*
X294386Y530328D01*
X294437Y530627D01*
X294601Y530882D01*
X294851Y531054D01*
X295148Y531114D01*
X324667Y531114D01*
X324953Y531058D01*
X325205Y530891D01*
X328002Y528094D01*
X332398Y528094D01*
X335506Y531202D01*
X335506Y535598D01*
X332398Y538706D01*
X328002Y538706D01*
X325205Y535909D01*
X324964Y535746D01*
X324667Y535686D01*
X293363Y535686D01*
X293077Y535742D01*
X292824Y535909D01*
X275559Y553174D01*
X275396Y553415D01*
X275336Y553713D01*
X275336Y693097D01*
X243809Y724624D01*
X243646Y724865D01*
X243586Y725163D01*
X243586Y811829D01*
X173314Y882101D01*
X173153Y882337D01*
X173090Y882634D01*
X173148Y882931D01*
X174124Y885287D01*
X174124Y888877D01*
X172750Y892193D01*
X170212Y894732D01*
X166895Y896106D01*
X163305Y896106D01*
X159988Y894732D01*
X157450Y892193D01*
X156076Y888877D01*
X156076Y885287D01*
X157450Y881970D01*
X159988Y879431D01*
X163305Y878058D01*
X166895Y878058D01*
X169250Y879033D01*
X169530Y879091D01*
X169828Y879036D01*
X170081Y878868D01*
X238791Y810158D01*
X238954Y809916D01*
X239014Y809619D01*
X239014Y726948D01*
X238967Y726685D01*
X238808Y726427D01*
X238560Y726251D01*
X238264Y726186D01*
X238252Y726188D01*
X238252Y726186D01*
X204463Y726186D01*
X204177Y726242D01*
X203924Y726409D01*
X193009Y737324D01*
X192846Y737565D01*
X192786Y737863D01*
X192786Y762872D01*
X192839Y763152D01*
X193005Y763406D01*
X193256Y763576D01*
X195612Y764551D01*
X198150Y767090D01*
X199524Y770407D01*
X199524Y773997D01*
X198150Y777313D01*
X195612Y779852D01*
X192295Y781226D01*
X188705Y781226D01*
X185388Y779852D01*
X182850Y777313D01*
X181476Y773997D01*
X181476Y770407D01*
X182850Y767090D01*
X185388Y764551D01*
X187744Y763576D01*
X187982Y763419D01*
X188154Y763169D01*
X188214Y762872D01*
X188214Y735653D01*
X199428Y724439D01*
X199581Y724219D01*
X199651Y723924D01*
X199600Y723625D01*
X199437Y723370D01*
X199187Y723198D01*
X198889Y723138D01*
X182111Y723138D01*
X181825Y723194D01*
X181572Y723361D01*
X167609Y737324D01*
X167446Y737565D01*
X167386Y737863D01*
X167386Y762872D01*
X167439Y763152D01*
X167605Y763406D01*
X167856Y763576D01*
X170212Y764551D01*
X172750Y767090D01*
X174124Y770407D01*
X174124Y773997D01*
X172750Y777313D01*
X170212Y779852D01*
X166895Y781226D01*
X163305Y781226D01*
X159988Y779852D01*
X157450Y777313D01*
X156076Y773997D01*
X156076Y770407D01*
X157450Y767090D01*
X159988Y764551D01*
X162344Y763576D01*
X162582Y763419D01*
X162754Y763169D01*
X162814Y762872D01*
X162814Y735653D01*
X177076Y721391D01*
X177229Y721171D01*
X177299Y720876D01*
X177248Y720577D01*
X177085Y720322D01*
X176835Y720150D01*
X176537Y720090D01*
X157260Y720090D01*
X156974Y720146D01*
X156721Y720313D01*
X142209Y734825D01*
X142046Y735067D01*
X141986Y735364D01*
X141986Y762872D01*
X142039Y763152D01*
X142205Y763406D01*
X142456Y763576D01*
X144812Y764551D01*
X147350Y767090D01*
X148724Y770407D01*
X148724Y773997D01*
X147350Y777313D01*
X144812Y779852D01*
X141495Y781226D01*
X137905Y781226D01*
X134588Y779852D01*
X132050Y777313D01*
X130676Y773997D01*
X130676Y770407D01*
X132050Y767090D01*
X134588Y764551D01*
X136944Y763576D01*
X137182Y763419D01*
X137354Y763169D01*
X137414Y762872D01*
X137414Y733155D01*
X152226Y718343D01*
X152379Y718123D01*
X152449Y717828D01*
X152398Y717529D01*
X152234Y717274D01*
X151984Y717102D01*
X151687Y717042D01*
X137407Y717042D01*
X137121Y717098D01*
X136868Y717265D01*
X116809Y737324D01*
X116646Y737565D01*
X116586Y737863D01*
X116586Y762872D01*
X116639Y763152D01*
X116805Y763406D01*
X117056Y763576D01*
X119412Y764551D01*
X121950Y767090D01*
X123324Y770407D01*
X123324Y773997D01*
X121950Y777313D01*
X119412Y779852D01*
X116095Y781226D01*
X112505Y781226D01*
X109188Y779852D01*
X106650Y777313D01*
X105276Y773997D01*
X105276Y770407D01*
X106650Y767090D01*
X109188Y764551D01*
X111544Y763576D01*
X111782Y763419D01*
X111954Y763169D01*
X112014Y762872D01*
X112014Y735653D01*
X132372Y715295D01*
X132525Y715075D01*
X132595Y714780D01*
X132544Y714481D01*
X132381Y714226D01*
X132131Y714054D01*
X131833Y713994D01*
X115055Y713994D01*
X114769Y714050D01*
X114516Y714217D01*
X91409Y737324D01*
X91246Y737565D01*
X91186Y737863D01*
X91186Y762872D01*
X91239Y763152D01*
X91405Y763406D01*
X91656Y763576D01*
X94012Y764551D01*
X96550Y767090D01*
X97924Y770407D01*
X97924Y773997D01*
X96550Y777313D01*
X94012Y779852D01*
X90695Y781226D01*
X87105Y781226D01*
X83788Y779852D01*
X81250Y777313D01*
X79876Y773997D01*
X79876Y770407D01*
X81250Y767090D01*
X83788Y764551D01*
X86144Y763576D01*
X86382Y763419D01*
X86554Y763169D01*
X86614Y762872D01*
X86614Y735653D01*
X110020Y712247D01*
X110173Y712027D01*
X110243Y711732D01*
X110192Y711433D01*
X110029Y711178D01*
X109779Y711006D01*
X109481Y710946D01*
X92703Y710946D01*
X92417Y711002D01*
X92164Y711169D01*
X66009Y737324D01*
X65846Y737565D01*
X65786Y737863D01*
X65786Y762872D01*
X65839Y763152D01*
X66005Y763406D01*
X66256Y763576D01*
X68612Y764551D01*
X71150Y767090D01*
X72524Y770407D01*
X72524Y773997D01*
X71150Y777313D01*
X68612Y779852D01*
X65295Y781226D01*
X61705Y781226D01*
X58388Y779852D01*
X55850Y777313D01*
X54476Y773997D01*
X54476Y770407D01*
X55850Y767090D01*
X58388Y764551D01*
X60744Y763576D01*
X60982Y763419D01*
X61154Y763169D01*
X61214Y762872D01*
X61214Y735653D01*
X87668Y709199D01*
X87821Y708979D01*
X87891Y708684D01*
X87840Y708385D01*
X87677Y708130D01*
X87427Y707958D01*
X87129Y707898D01*
X70351Y707898D01*
X70065Y707954D01*
X69812Y708121D01*
X40609Y737324D01*
X40446Y737565D01*
X40386Y737863D01*
X40386Y762872D01*
X40439Y763152D01*
X40605Y763406D01*
X40856Y763576D01*
X43212Y764551D01*
X45750Y767090D01*
X47124Y770407D01*
X47124Y773997D01*
X45750Y777313D01*
X43212Y779852D01*
X39895Y781226D01*
X36305Y781226D01*
X32988Y779852D01*
X30450Y777313D01*
X29076Y773997D01*
X29076Y770407D01*
X30450Y767090D01*
X32988Y764551D01*
X35344Y763576D01*
X35582Y763419D01*
X35754Y763169D01*
X35814Y762872D01*
X35814Y735653D01*
X65316Y706151D01*
X65469Y705931D01*
X65539Y705636D01*
X65488Y705337D01*
X65325Y705082D01*
X65075Y704910D01*
X64777Y704850D01*
X47999Y704850D01*
X47713Y704906D01*
X47460Y705073D01*
X15209Y737324D01*
X15046Y737565D01*
X14986Y737863D01*
X14986Y762416D01*
X15037Y762690D01*
X15201Y762946D01*
X15451Y763117D01*
X15748Y763178D01*
X20831Y763178D01*
X21724Y764070D01*
X21724Y780333D01*
X20831Y781226D01*
X4569Y781226D01*
X3676Y780333D01*
X3676Y764070D01*
X4569Y763178D01*
X9652Y763178D01*
X9927Y763126D01*
X10182Y762963D01*
X10354Y762713D01*
X10414Y762416D01*
X10414Y735653D01*
X45789Y700278D01*
X226889Y700278D01*
X227175Y700222D01*
X227428Y700055D01*
X246157Y681326D01*
X246320Y681084D01*
X246380Y680787D01*
X246380Y508398D01*
X276642Y478136D01*
X335615Y478136D01*
X335901Y478080D01*
X336154Y477913D01*
X408003Y406064D01*
X408166Y405823D01*
X408226Y405525D01*
X408226Y398426D01*
X410876Y395776D01*
G37*
G36*
X188705Y878058D02*
X192295Y878058D01*
X195612Y879431D01*
X198150Y881970D01*
X199524Y885287D01*
X199524Y888877D01*
X198150Y892193D01*
X195612Y894732D01*
X192295Y896106D01*
X188705Y896106D01*
X185388Y894732D01*
X182850Y892193D01*
X181476Y888877D01*
X181476Y885287D01*
X182850Y881970D01*
X185388Y879431D01*
X188705Y878058D01*
G37*
G36*
X379056Y803026D02*
X382944Y803026D01*
X386537Y804514D01*
X389286Y807263D01*
X390774Y810856D01*
X390774Y814744D01*
X389286Y818337D01*
X386537Y821086D01*
X382944Y822574D01*
X379056Y822574D01*
X375463Y821086D01*
X372714Y818337D01*
X371226Y814744D01*
X371226Y810856D01*
X372714Y807263D01*
X375463Y804514D01*
X379056Y803026D01*
G37*
G36*
X480656Y803026D02*
X484544Y803026D01*
X488137Y804514D01*
X490886Y807263D01*
X492374Y810856D01*
X492374Y814744D01*
X490886Y818337D01*
X488137Y821086D01*
X484544Y822574D01*
X480656Y822574D01*
X477063Y821086D01*
X474314Y818337D01*
X472826Y814744D01*
X472826Y810856D01*
X474314Y807263D01*
X477063Y804514D01*
X480656Y803026D01*
G37*
G36*
X582256Y803026D02*
X586144Y803026D01*
X589737Y804514D01*
X592486Y807263D01*
X593974Y810856D01*
X593974Y814744D01*
X592486Y818337D01*
X589737Y821086D01*
X586144Y822574D01*
X582256Y822574D01*
X578663Y821086D01*
X575914Y818337D01*
X574426Y814744D01*
X574426Y810856D01*
X575914Y807263D01*
X578663Y804514D01*
X582256Y803026D01*
G37*
G36*
X683856Y803026D02*
X687744Y803026D01*
X691337Y804514D01*
X694086Y807263D01*
X695574Y810856D01*
X695574Y814744D01*
X694086Y818337D01*
X691337Y821086D01*
X687744Y822574D01*
X683856Y822574D01*
X680263Y821086D01*
X677514Y818337D01*
X676026Y814744D01*
X676026Y810856D01*
X677514Y807263D01*
X680263Y804514D01*
X683856Y803026D01*
G37*
G36*
X1495910Y792926D02*
X1501290Y792926D01*
X1506261Y794985D01*
X1510065Y798789D01*
X1512124Y803760D01*
X1512124Y809140D01*
X1510065Y814111D01*
X1506261Y817915D01*
X1501290Y819974D01*
X1495910Y819974D01*
X1490939Y817915D01*
X1487135Y814111D01*
X1485076Y809140D01*
X1485076Y803760D01*
X1487135Y798789D01*
X1490939Y794985D01*
X1495910Y792926D01*
G37*
G36*
X1226619Y792226D02*
X1249881Y792226D01*
X1250774Y793119D01*
X1250774Y807081D01*
X1249881Y807974D01*
X1226619Y807974D01*
X1225726Y807081D01*
X1225726Y803148D01*
X1225675Y802873D01*
X1225511Y802618D01*
X1225261Y802446D01*
X1224964Y802386D01*
X1208223Y802386D01*
X1207937Y802442D01*
X1207685Y802609D01*
X1204888Y805406D01*
X1200492Y805406D01*
X1197384Y802298D01*
X1197384Y797902D01*
X1200492Y794794D01*
X1204888Y794794D01*
X1207685Y797591D01*
X1207926Y797754D01*
X1208223Y797814D01*
X1224964Y797814D01*
X1225239Y797763D01*
X1225494Y797599D01*
X1225666Y797349D01*
X1225726Y797052D01*
X1225726Y793119D01*
X1226619Y792226D01*
G37*
G36*
X10905Y788578D02*
X14495Y788578D01*
X17812Y789951D01*
X20350Y792490D01*
X21724Y795807D01*
X21724Y799397D01*
X20350Y802713D01*
X17812Y805252D01*
X14495Y806626D01*
X10905Y806626D01*
X7588Y805252D01*
X5050Y802713D01*
X3676Y799397D01*
X3676Y795807D01*
X5050Y792490D01*
X7588Y789951D01*
X10905Y788578D01*
G37*
G36*
X36305Y788578D02*
X39895Y788578D01*
X43212Y789951D01*
X45750Y792490D01*
X47124Y795807D01*
X47124Y799397D01*
X45750Y802713D01*
X43212Y805252D01*
X39895Y806626D01*
X36305Y806626D01*
X32988Y805252D01*
X30450Y802713D01*
X29076Y799397D01*
X29076Y795807D01*
X30450Y792490D01*
X32988Y789951D01*
X36305Y788578D01*
G37*
G36*
X61705Y788578D02*
X65295Y788578D01*
X68612Y789951D01*
X71150Y792490D01*
X72524Y795807D01*
X72524Y799397D01*
X71150Y802713D01*
X68612Y805252D01*
X65295Y806626D01*
X61705Y806626D01*
X58388Y805252D01*
X55850Y802713D01*
X54476Y799397D01*
X54476Y795807D01*
X55850Y792490D01*
X58388Y789951D01*
X61705Y788578D01*
G37*
G36*
X87105Y788578D02*
X90695Y788578D01*
X94012Y789951D01*
X96550Y792490D01*
X97924Y795807D01*
X97924Y799397D01*
X96550Y802713D01*
X94012Y805252D01*
X90695Y806626D01*
X87105Y806626D01*
X83788Y805252D01*
X81250Y802713D01*
X79876Y799397D01*
X79876Y795807D01*
X81250Y792490D01*
X83788Y789951D01*
X87105Y788578D01*
G37*
G36*
X137905Y788578D02*
X141495Y788578D01*
X144812Y789951D01*
X147350Y792490D01*
X148724Y795807D01*
X148724Y799397D01*
X147350Y802713D01*
X144812Y805252D01*
X141495Y806626D01*
X137905Y806626D01*
X134588Y805252D01*
X132050Y802713D01*
X130676Y799397D01*
X130676Y795807D01*
X132050Y792490D01*
X134588Y789951D01*
X137905Y788578D01*
G37*
G36*
X163305Y788578D02*
X166895Y788578D01*
X170212Y789951D01*
X172750Y792490D01*
X174124Y795807D01*
X174124Y799397D01*
X172750Y802713D01*
X170212Y805252D01*
X166895Y806626D01*
X163305Y806626D01*
X159988Y805252D01*
X157450Y802713D01*
X156076Y799397D01*
X156076Y795807D01*
X157450Y792490D01*
X159988Y789951D01*
X163305Y788578D01*
G37*
G36*
X188705Y788578D02*
X192295Y788578D01*
X195612Y789951D01*
X198150Y792490D01*
X199524Y795807D01*
X199524Y799397D01*
X198150Y802713D01*
X195612Y805252D01*
X192295Y806626D01*
X188705Y806626D01*
X185388Y805252D01*
X182850Y802713D01*
X181476Y799397D01*
X181476Y795807D01*
X182850Y792490D01*
X185388Y789951D01*
X188705Y788578D01*
G37*
G36*
X112505Y788578D02*
X116095Y788578D01*
X119412Y789951D01*
X121950Y792490D01*
X123324Y795807D01*
X123324Y799397D01*
X121950Y802713D01*
X119412Y805252D01*
X116095Y806626D01*
X112505Y806626D01*
X109188Y805252D01*
X106650Y802713D01*
X105276Y799397D01*
X105276Y795807D01*
X106650Y792490D01*
X109188Y789951D01*
X112505Y788578D01*
G37*
G36*
X976094Y779326D02*
X992406Y779326D01*
X995374Y780555D01*
X997645Y782826D01*
X998874Y785794D01*
X998874Y789006D01*
X997645Y791974D01*
X995374Y794245D01*
X992406Y795474D01*
X976094Y795474D01*
X973126Y794245D01*
X970855Y791974D01*
X969626Y789006D01*
X969626Y785794D01*
X970855Y782826D01*
X973126Y780555D01*
X976094Y779326D01*
G37*
G36*
X1446353Y773776D02*
X1449247Y773776D01*
X1451920Y774883D01*
X1453967Y776930D01*
X1455074Y779603D01*
X1455074Y782497D01*
X1453967Y785170D01*
X1451920Y787217D01*
X1449247Y788324D01*
X1446353Y788324D01*
X1443680Y787217D01*
X1441633Y785170D01*
X1440526Y782497D01*
X1440526Y779603D01*
X1441633Y776930D01*
X1443680Y774883D01*
X1446353Y773776D01*
G37*
G36*
X410876Y450276D02*
X414624Y450276D01*
X417274Y452926D01*
X417274Y462153D01*
X417321Y462417D01*
X417480Y462675D01*
X417728Y462850D01*
X418024Y462915D01*
X418322Y462860D01*
X418575Y462692D01*
X420703Y460564D01*
X420866Y460323D01*
X420926Y460025D01*
X420926Y452926D01*
X423576Y450276D01*
X427324Y450276D01*
X429974Y452926D01*
X429974Y462153D01*
X430021Y462417D01*
X430180Y462675D01*
X430428Y462850D01*
X430724Y462915D01*
X431022Y462860D01*
X431275Y462692D01*
X433403Y460564D01*
X433566Y460323D01*
X433626Y460025D01*
X433626Y452926D01*
X436276Y450276D01*
X440024Y450276D01*
X442674Y452926D01*
X442674Y462153D01*
X442721Y462417D01*
X442880Y462675D01*
X443128Y462850D01*
X443424Y462915D01*
X443722Y462860D01*
X443975Y462692D01*
X446103Y460564D01*
X446266Y460323D01*
X446326Y460025D01*
X446326Y452926D01*
X448976Y450276D01*
X452724Y450276D01*
X455374Y452926D01*
X455374Y461179D01*
X455421Y461442D01*
X455580Y461700D01*
X455828Y461876D01*
X456124Y461941D01*
X456422Y461885D01*
X456675Y461718D01*
X458803Y459590D01*
X458966Y459348D01*
X459026Y459051D01*
X459026Y452926D01*
X461676Y450276D01*
X465424Y450276D01*
X468074Y452926D01*
X468074Y462153D01*
X468121Y462417D01*
X468280Y462675D01*
X468528Y462850D01*
X468824Y462915D01*
X469122Y462860D01*
X469375Y462692D01*
X471503Y460564D01*
X471666Y460323D01*
X471726Y460025D01*
X471726Y452926D01*
X474376Y450276D01*
X478124Y450276D01*
X480774Y452926D01*
X480774Y462153D01*
X480821Y462417D01*
X480980Y462675D01*
X481228Y462850D01*
X481524Y462915D01*
X481822Y462860D01*
X482075Y462692D01*
X484203Y460564D01*
X484366Y460323D01*
X484426Y460025D01*
X484426Y452926D01*
X487076Y450276D01*
X490824Y450276D01*
X493474Y452926D01*
X493474Y465174D01*
X490824Y467824D01*
X487076Y467824D01*
X485781Y466529D01*
X485551Y466371D01*
X485255Y466306D01*
X484957Y466362D01*
X484704Y466529D01*
X465121Y486112D01*
X415100Y486112D01*
X414814Y486168D01*
X414561Y486335D01*
X367253Y533643D01*
X367090Y533885D01*
X367030Y534182D01*
X367030Y591850D01*
X367086Y592136D01*
X367253Y592389D01*
X385003Y610139D01*
X385245Y610302D01*
X385542Y610362D01*
X431989Y610362D01*
X432253Y610315D01*
X432511Y610156D01*
X432686Y609908D01*
X432751Y609612D01*
X432696Y609314D01*
X432528Y609061D01*
X410464Y586997D01*
X410464Y569328D01*
X410408Y569042D01*
X410241Y568789D01*
X408226Y566774D01*
X408226Y554526D01*
X410876Y551876D01*
X414624Y551876D01*
X417274Y554526D01*
X417274Y566774D01*
X415259Y568789D01*
X415096Y569030D01*
X415036Y569328D01*
X415036Y584787D01*
X415092Y585073D01*
X415259Y585326D01*
X437024Y607091D01*
X437265Y607254D01*
X437563Y607314D01*
X454341Y607314D01*
X454605Y607267D01*
X454863Y607108D01*
X455038Y606860D01*
X455103Y606564D01*
X455048Y606266D01*
X454880Y606013D01*
X435864Y586997D01*
X435864Y569328D01*
X435808Y569042D01*
X435641Y568789D01*
X433626Y566774D01*
X433626Y563698D01*
X433575Y563423D01*
X433411Y563168D01*
X433161Y562996D01*
X432864Y562936D01*
X430736Y562936D01*
X430461Y562987D01*
X430206Y563151D01*
X430034Y563401D01*
X429974Y563698D01*
X429974Y566774D01*
X427324Y569424D01*
X423576Y569424D01*
X420926Y566774D01*
X420926Y554526D01*
X423576Y551876D01*
X427324Y551876D01*
X429974Y554526D01*
X429974Y557602D01*
X430025Y557877D01*
X430189Y558132D01*
X430439Y558304D01*
X430736Y558364D01*
X432864Y558364D01*
X433139Y558313D01*
X433394Y558149D01*
X433566Y557899D01*
X433626Y557602D01*
X433626Y554526D01*
X436276Y551876D01*
X440024Y551876D01*
X442674Y554526D01*
X442674Y566774D01*
X440659Y568789D01*
X440496Y569030D01*
X440436Y569328D01*
X440436Y584787D01*
X440492Y585073D01*
X440659Y585326D01*
X459376Y604043D01*
X459617Y604206D01*
X459915Y604266D01*
X709331Y604266D01*
X767080Y662015D01*
X767080Y722285D01*
X737779Y751586D01*
X712463Y751586D01*
X712177Y751642D01*
X711924Y751809D01*
X695797Y767936D01*
X695634Y768177D01*
X695574Y768475D01*
X695574Y783581D01*
X694681Y784474D01*
X676919Y784474D01*
X676026Y783581D01*
X676026Y765819D01*
X676919Y764926D01*
X692025Y764926D01*
X692311Y764870D01*
X692564Y764703D01*
X707428Y749839D01*
X707581Y749619D01*
X707651Y749324D01*
X707600Y749025D01*
X707437Y748770D01*
X707187Y748598D01*
X706889Y748538D01*
X613911Y748538D01*
X613625Y748594D01*
X613372Y748761D01*
X594197Y767936D01*
X594034Y768177D01*
X593974Y768475D01*
X593974Y783581D01*
X593081Y784474D01*
X575319Y784474D01*
X574426Y783581D01*
X574426Y765819D01*
X575319Y764926D01*
X590425Y764926D01*
X590711Y764870D01*
X590964Y764703D01*
X608876Y746791D01*
X609029Y746571D01*
X609099Y746276D01*
X609048Y745977D01*
X608885Y745722D01*
X608635Y745550D01*
X608337Y745490D01*
X515359Y745490D01*
X515073Y745546D01*
X514820Y745713D01*
X492597Y767936D01*
X492434Y768177D01*
X492374Y768475D01*
X492374Y783581D01*
X491481Y784474D01*
X473719Y784474D01*
X472826Y783581D01*
X472826Y765819D01*
X473719Y764926D01*
X488825Y764926D01*
X489111Y764870D01*
X489364Y764703D01*
X513149Y740918D01*
X733044Y740918D01*
X733330Y740862D01*
X733583Y740695D01*
X734091Y740187D01*
X734244Y739967D01*
X734314Y739672D01*
X734263Y739373D01*
X734099Y739118D01*
X733849Y738946D01*
X733552Y738886D01*
X420363Y738886D01*
X420077Y738942D01*
X419824Y739109D01*
X390997Y767936D01*
X390834Y768177D01*
X390774Y768475D01*
X390774Y783581D01*
X389881Y784474D01*
X372119Y784474D01*
X371226Y783581D01*
X371226Y765819D01*
X372119Y764926D01*
X387225Y764926D01*
X387511Y764870D01*
X387764Y764703D01*
X418153Y734314D01*
X735337Y734314D01*
X735623Y734258D01*
X735876Y734091D01*
X753141Y716826D01*
X753304Y716585D01*
X753364Y716287D01*
X753364Y668013D01*
X753308Y667727D01*
X753141Y667474D01*
X703872Y618205D01*
X703631Y618042D01*
X703333Y617982D01*
X686555Y617982D01*
X686291Y618029D01*
X686033Y618188D01*
X685858Y618436D01*
X685793Y618732D01*
X685848Y619030D01*
X686016Y619283D01*
X729836Y663103D01*
X730077Y663266D01*
X730375Y663326D01*
X745481Y663326D01*
X746374Y664219D01*
X746374Y681981D01*
X745481Y682874D01*
X727719Y682874D01*
X726826Y681981D01*
X726826Y666875D01*
X726770Y666589D01*
X726603Y666336D01*
X682028Y621761D01*
X681787Y621598D01*
X681489Y621538D01*
X588511Y621538D01*
X588247Y621585D01*
X587989Y621744D01*
X587814Y621992D01*
X587749Y622288D01*
X587804Y622586D01*
X587972Y622839D01*
X628236Y663103D01*
X628477Y663266D01*
X628775Y663326D01*
X643881Y663326D01*
X644774Y664219D01*
X644774Y681981D01*
X643881Y682874D01*
X626119Y682874D01*
X625226Y681981D01*
X625226Y666875D01*
X625170Y666589D01*
X625003Y666336D01*
X583476Y624809D01*
X583235Y624646D01*
X582937Y624586D01*
X489959Y624586D01*
X489695Y624633D01*
X489437Y624792D01*
X489262Y625040D01*
X489197Y625336D01*
X489252Y625634D01*
X489420Y625887D01*
X526636Y663103D01*
X526877Y663266D01*
X527175Y663326D01*
X542281Y663326D01*
X543174Y664219D01*
X543174Y681981D01*
X542281Y682874D01*
X524519Y682874D01*
X523626Y681981D01*
X523626Y666875D01*
X523570Y666589D01*
X523403Y666336D01*
X484924Y627857D01*
X484683Y627694D01*
X484385Y627634D01*
X382785Y627634D01*
X382522Y627681D01*
X382264Y627840D01*
X382089Y628088D01*
X382024Y628384D01*
X382079Y628682D01*
X382247Y628935D01*
X420725Y667413D01*
X420945Y667566D01*
X421240Y667636D01*
X421539Y667585D01*
X421794Y667422D01*
X421966Y667172D01*
X422026Y666875D01*
X422026Y664219D01*
X422919Y663326D01*
X440681Y663326D01*
X441574Y664219D01*
X441574Y681981D01*
X440681Y682874D01*
X422919Y682874D01*
X422026Y681981D01*
X422026Y675496D01*
X421970Y675210D01*
X421803Y674957D01*
X350043Y603197D01*
X349823Y603044D01*
X349528Y602974D01*
X349229Y603025D01*
X348974Y603188D01*
X348802Y603438D01*
X348742Y603736D01*
X348742Y632391D01*
X332709Y648424D01*
X332546Y648665D01*
X332486Y648963D01*
X332486Y662564D01*
X332537Y662839D01*
X332701Y663094D01*
X332951Y663266D01*
X333248Y663326D01*
X339081Y663326D01*
X339974Y664219D01*
X339974Y681981D01*
X339081Y682874D01*
X321319Y682874D01*
X320426Y681981D01*
X320426Y664219D01*
X321319Y663326D01*
X327152Y663326D01*
X327427Y663275D01*
X327682Y663111D01*
X327854Y662861D01*
X327914Y662564D01*
X327914Y646753D01*
X343947Y630720D01*
X344110Y630479D01*
X344170Y630181D01*
X344170Y524397D01*
X408003Y460564D01*
X408166Y460323D01*
X408226Y460025D01*
X408226Y452926D01*
X410876Y450276D01*
G37*
G36*
X1262619Y766826D02*
X1285881Y766826D01*
X1286774Y767719D01*
X1286774Y781681D01*
X1285881Y782574D01*
X1262619Y782574D01*
X1261726Y781681D01*
X1261726Y777748D01*
X1261675Y777473D01*
X1261511Y777218D01*
X1261261Y777046D01*
X1260964Y776986D01*
X1210763Y776986D01*
X1210477Y777042D01*
X1210225Y777209D01*
X1207428Y780006D01*
X1203032Y780006D01*
X1199924Y776898D01*
X1199924Y772502D01*
X1203032Y769394D01*
X1207428Y769394D01*
X1210225Y772191D01*
X1210466Y772354D01*
X1210763Y772414D01*
X1260964Y772414D01*
X1261239Y772363D01*
X1261494Y772199D01*
X1261666Y771949D01*
X1261726Y771652D01*
X1261726Y767719D01*
X1262619Y766826D01*
G37*
G36*
X976094Y753926D02*
X992406Y753926D01*
X995374Y755155D01*
X997645Y757426D01*
X998874Y760394D01*
X998874Y763606D01*
X997645Y766574D01*
X995374Y768845D01*
X992406Y770074D01*
X976094Y770074D01*
X973126Y768845D01*
X970855Y766574D01*
X969626Y763606D01*
X969626Y760394D01*
X970855Y757426D01*
X973126Y755155D01*
X976094Y753926D01*
G37*
G36*
X1059053Y753776D02*
X1061847Y753776D01*
X1064429Y754845D01*
X1066405Y756821D01*
X1067474Y759403D01*
X1067474Y762197D01*
X1066405Y764779D01*
X1064429Y766755D01*
X1061847Y767824D01*
X1059053Y767824D01*
X1056471Y766755D01*
X1054495Y764779D01*
X1053426Y762197D01*
X1053426Y759403D01*
X1054495Y756821D01*
X1056471Y754845D01*
X1059053Y753776D01*
G37*
G36*
X1441419Y748376D02*
X1454181Y748376D01*
X1455074Y749269D01*
X1455074Y762031D01*
X1454181Y762924D01*
X1441419Y762924D01*
X1440526Y762031D01*
X1440526Y749269D01*
X1441419Y748376D01*
G37*
G36*
X697418Y374578D02*
X701814Y374578D01*
X704922Y377686D01*
X704922Y381642D01*
X704977Y381928D01*
X705145Y382181D01*
X727302Y404337D01*
X727302Y420993D01*
X727357Y421279D01*
X727525Y421531D01*
X733013Y427020D01*
X733233Y427173D01*
X733528Y427243D01*
X733827Y427192D01*
X734082Y427028D01*
X734254Y426778D01*
X734314Y426481D01*
X734314Y399233D01*
X734258Y398947D01*
X734091Y398695D01*
X731294Y395898D01*
X731294Y391502D01*
X734402Y388394D01*
X738798Y388394D01*
X741906Y391502D01*
X741906Y395898D01*
X739109Y398695D01*
X738946Y398936D01*
X738886Y399233D01*
X738886Y428266D01*
X738942Y428552D01*
X739109Y428805D01*
X745713Y435409D01*
X745933Y435562D01*
X746228Y435632D01*
X746527Y435581D01*
X746782Y435418D01*
X746954Y435168D01*
X747014Y434870D01*
X747014Y411933D01*
X746958Y411647D01*
X746791Y411395D01*
X743994Y408598D01*
X743994Y404202D01*
X747102Y401094D01*
X751498Y401094D01*
X754606Y404202D01*
X754606Y408598D01*
X751809Y411395D01*
X751646Y411636D01*
X751586Y411933D01*
X751586Y436656D01*
X751642Y436942D01*
X751809Y437195D01*
X758413Y443799D01*
X758633Y443952D01*
X758928Y444021D01*
X759227Y443971D01*
X759482Y443807D01*
X759654Y443557D01*
X759714Y443260D01*
X759714Y437333D01*
X759658Y437047D01*
X759491Y436795D01*
X756694Y433998D01*
X756694Y429602D01*
X759802Y426494D01*
X764198Y426494D01*
X767306Y429602D01*
X767306Y433998D01*
X764509Y436795D01*
X764346Y437036D01*
X764286Y437333D01*
X764286Y445045D01*
X764342Y445331D01*
X764509Y445584D01*
X774443Y455518D01*
X774663Y455671D01*
X774958Y455741D01*
X775257Y455690D01*
X775512Y455527D01*
X775684Y455276D01*
X775744Y454979D01*
X775744Y452462D01*
X778852Y449354D01*
X783248Y449354D01*
X786356Y452462D01*
X786356Y456417D01*
X786412Y456703D01*
X786579Y456956D01*
X805904Y476281D01*
X806145Y476444D01*
X806443Y476504D01*
X866205Y476504D01*
X866462Y476459D01*
X866721Y476302D01*
X866899Y476056D01*
X866966Y475760D01*
X866913Y475462D01*
X866748Y475208D01*
X866496Y475038D01*
X865518Y474633D01*
X863317Y472432D01*
X862126Y469556D01*
X862126Y466444D01*
X863317Y463568D01*
X865518Y461367D01*
X868394Y460176D01*
X871506Y460176D01*
X874382Y461367D01*
X876583Y463568D01*
X877774Y466444D01*
X877774Y469556D01*
X876583Y472432D01*
X874382Y474633D01*
X873404Y475038D01*
X873183Y475178D01*
X873004Y475423D01*
X872934Y475718D01*
X872985Y476017D01*
X873148Y476272D01*
X873398Y476444D01*
X873695Y476504D01*
X917005Y476504D01*
X917262Y476459D01*
X917521Y476302D01*
X917699Y476056D01*
X917766Y475760D01*
X917713Y475462D01*
X917548Y475208D01*
X917296Y475038D01*
X916318Y474633D01*
X914117Y472432D01*
X912926Y469556D01*
X912926Y466444D01*
X914117Y463568D01*
X916318Y461367D01*
X919194Y460176D01*
X922306Y460176D01*
X925182Y461367D01*
X927383Y463568D01*
X928574Y466444D01*
X928574Y469556D01*
X927383Y472432D01*
X925182Y474633D01*
X924204Y475038D01*
X923983Y475178D01*
X923804Y475423D01*
X923734Y475718D01*
X923785Y476017D01*
X923948Y476272D01*
X924198Y476444D01*
X924495Y476504D01*
X980505Y476504D01*
X980762Y476459D01*
X981021Y476302D01*
X981199Y476056D01*
X981266Y475760D01*
X981213Y475462D01*
X981048Y475208D01*
X980796Y475038D01*
X979818Y474633D01*
X977617Y472432D01*
X976426Y469556D01*
X976426Y466444D01*
X977617Y463568D01*
X979818Y461367D01*
X982694Y460176D01*
X985806Y460176D01*
X988682Y461367D01*
X990883Y463568D01*
X992074Y466444D01*
X992074Y469556D01*
X990883Y472432D01*
X988682Y474633D01*
X987704Y475038D01*
X987483Y475178D01*
X987304Y475423D01*
X987234Y475718D01*
X987285Y476017D01*
X987448Y476272D01*
X987698Y476444D01*
X987995Y476504D01*
X1031305Y476504D01*
X1031562Y476459D01*
X1031821Y476302D01*
X1031999Y476056D01*
X1032066Y475760D01*
X1032013Y475462D01*
X1031848Y475208D01*
X1031596Y475038D01*
X1030618Y474633D01*
X1028417Y472432D01*
X1027226Y469556D01*
X1027226Y466444D01*
X1028417Y463568D01*
X1030618Y461367D01*
X1033494Y460176D01*
X1036606Y460176D01*
X1039482Y461367D01*
X1041683Y463568D01*
X1042874Y466444D01*
X1042874Y469556D01*
X1041683Y472432D01*
X1039482Y474633D01*
X1038504Y475038D01*
X1038283Y475178D01*
X1038104Y475423D01*
X1038034Y475718D01*
X1038085Y476017D01*
X1038248Y476272D01*
X1038498Y476444D01*
X1038795Y476504D01*
X1094805Y476504D01*
X1095062Y476459D01*
X1095321Y476302D01*
X1095499Y476056D01*
X1095566Y475760D01*
X1095513Y475462D01*
X1095348Y475208D01*
X1095096Y475038D01*
X1094118Y474633D01*
X1091917Y472432D01*
X1090726Y469556D01*
X1090726Y466444D01*
X1091917Y463568D01*
X1094118Y461367D01*
X1096994Y460176D01*
X1100106Y460176D01*
X1102982Y461367D01*
X1105183Y463568D01*
X1106374Y466444D01*
X1106374Y469556D01*
X1105183Y472432D01*
X1102982Y474633D01*
X1102004Y475038D01*
X1101783Y475178D01*
X1101604Y475423D01*
X1101534Y475718D01*
X1101585Y476017D01*
X1101748Y476272D01*
X1101998Y476444D01*
X1102295Y476504D01*
X1157231Y476504D01*
X1157495Y476457D01*
X1157753Y476298D01*
X1157928Y476050D01*
X1157993Y475754D01*
X1157938Y475456D01*
X1157770Y475203D01*
X1098660Y416093D01*
X1098419Y415930D01*
X1098121Y415870D01*
X886987Y415870D01*
X874012Y402895D01*
X873776Y402735D01*
X873480Y402672D01*
X873182Y402730D01*
X871506Y403424D01*
X868394Y403424D01*
X865518Y402233D01*
X863317Y400032D01*
X862126Y397156D01*
X862126Y394044D01*
X863317Y391168D01*
X865518Y388967D01*
X868394Y387776D01*
X871506Y387776D01*
X874382Y388967D01*
X876583Y391168D01*
X877774Y394044D01*
X877774Y397156D01*
X877080Y398832D01*
X877022Y399111D01*
X877078Y399409D01*
X877245Y399662D01*
X888658Y411075D01*
X888899Y411238D01*
X889197Y411298D01*
X994875Y411298D01*
X995139Y411251D01*
X995397Y411092D01*
X995572Y410844D01*
X995637Y410548D01*
X995582Y410250D01*
X995414Y409997D01*
X988312Y402895D01*
X988076Y402735D01*
X987780Y402672D01*
X987482Y402730D01*
X985806Y403424D01*
X982694Y403424D01*
X979818Y402233D01*
X977617Y400032D01*
X976426Y397156D01*
X976426Y394044D01*
X977617Y391168D01*
X979818Y388967D01*
X982694Y387776D01*
X985806Y387776D01*
X988682Y388967D01*
X990883Y391168D01*
X992074Y394044D01*
X992074Y397156D01*
X991380Y398832D01*
X991322Y399111D01*
X991378Y399409D01*
X991545Y399662D01*
X999910Y408027D01*
X1000151Y408190D01*
X1000449Y408250D01*
X1101593Y408250D01*
X1216152Y522809D01*
X1216152Y552203D01*
X1216208Y552489D01*
X1216375Y552742D01*
X1232624Y568991D01*
X1232865Y569154D01*
X1233163Y569214D01*
X1260964Y569214D01*
X1261239Y569163D01*
X1261494Y568999D01*
X1261666Y568749D01*
X1261726Y568452D01*
X1261726Y564519D01*
X1262619Y563626D01*
X1285881Y563626D01*
X1286774Y564519D01*
X1286774Y578481D01*
X1285881Y579374D01*
X1262619Y579374D01*
X1261726Y578481D01*
X1261726Y574548D01*
X1261675Y574273D01*
X1261511Y574018D01*
X1261261Y573846D01*
X1260964Y573786D01*
X1230953Y573786D01*
X1214405Y557238D01*
X1214185Y557085D01*
X1213890Y557015D01*
X1213591Y557066D01*
X1213336Y557229D01*
X1213164Y557479D01*
X1213104Y557777D01*
X1213104Y578365D01*
X1213160Y578651D01*
X1213327Y578904D01*
X1224495Y590072D01*
X1224725Y590230D01*
X1225022Y590295D01*
X1225320Y590240D01*
X1225573Y590072D01*
X1226619Y589026D01*
X1249881Y589026D01*
X1250774Y589919D01*
X1250774Y603881D01*
X1249881Y604774D01*
X1226619Y604774D01*
X1225726Y603881D01*
X1225726Y598085D01*
X1225670Y597799D01*
X1225503Y597546D01*
X1211357Y583400D01*
X1211137Y583247D01*
X1210842Y583177D01*
X1210543Y583228D01*
X1210288Y583391D01*
X1210116Y583641D01*
X1210056Y583939D01*
X1210056Y599447D01*
X1210112Y599733D01*
X1210279Y599986D01*
X1230084Y619791D01*
X1230325Y619954D01*
X1230623Y620014D01*
X1260964Y620014D01*
X1261239Y619963D01*
X1261494Y619799D01*
X1261666Y619549D01*
X1261726Y619252D01*
X1261726Y615319D01*
X1262619Y614426D01*
X1285881Y614426D01*
X1286774Y615319D01*
X1286774Y629281D01*
X1285881Y630174D01*
X1262619Y630174D01*
X1261726Y629281D01*
X1261726Y625348D01*
X1261675Y625073D01*
X1261511Y624818D01*
X1261261Y624646D01*
X1260964Y624586D01*
X1228413Y624586D01*
X1208309Y604482D01*
X1208089Y604329D01*
X1207794Y604259D01*
X1207495Y604310D01*
X1207240Y604473D01*
X1207068Y604723D01*
X1207008Y605021D01*
X1207008Y623069D01*
X1207064Y623355D01*
X1207231Y623608D01*
X1224495Y640872D01*
X1224725Y641030D01*
X1225022Y641095D01*
X1225320Y641040D01*
X1225573Y640872D01*
X1226619Y639826D01*
X1249881Y639826D01*
X1250774Y640719D01*
X1250774Y654681D01*
X1249881Y655574D01*
X1226619Y655574D01*
X1225726Y654681D01*
X1225726Y648885D01*
X1225670Y648599D01*
X1225503Y648346D01*
X1205261Y628104D01*
X1205041Y627951D01*
X1204746Y627881D01*
X1204447Y627932D01*
X1204192Y628095D01*
X1204020Y628345D01*
X1203960Y628643D01*
X1203960Y644151D01*
X1204016Y644437D01*
X1204183Y644690D01*
X1230084Y670591D01*
X1230325Y670754D01*
X1230623Y670814D01*
X1260964Y670814D01*
X1261239Y670763D01*
X1261494Y670599D01*
X1261666Y670349D01*
X1261726Y670052D01*
X1261726Y666119D01*
X1262619Y665226D01*
X1285881Y665226D01*
X1286774Y666119D01*
X1286774Y680081D01*
X1285881Y680974D01*
X1262619Y680974D01*
X1261726Y680081D01*
X1261726Y676148D01*
X1261675Y675873D01*
X1261511Y675618D01*
X1261261Y675446D01*
X1260964Y675386D01*
X1228413Y675386D01*
X1202213Y649186D01*
X1201993Y649033D01*
X1201698Y648963D01*
X1201399Y649014D01*
X1201144Y649177D01*
X1200972Y649427D01*
X1200912Y649725D01*
X1200912Y667773D01*
X1200968Y668059D01*
X1201135Y668312D01*
X1224495Y691672D01*
X1224725Y691830D01*
X1225022Y691895D01*
X1225320Y691840D01*
X1225573Y691672D01*
X1226619Y690626D01*
X1249881Y690626D01*
X1250774Y691519D01*
X1250774Y705481D01*
X1249881Y706374D01*
X1226619Y706374D01*
X1225726Y705481D01*
X1225726Y699685D01*
X1225670Y699399D01*
X1225503Y699146D01*
X1199165Y672808D01*
X1198945Y672655D01*
X1198650Y672585D01*
X1198351Y672636D01*
X1198096Y672799D01*
X1197924Y673049D01*
X1197864Y673347D01*
X1197864Y690125D01*
X1197920Y690411D01*
X1198087Y690664D01*
X1228814Y721391D01*
X1229055Y721554D01*
X1229353Y721614D01*
X1260964Y721614D01*
X1261239Y721563D01*
X1261494Y721399D01*
X1261666Y721149D01*
X1261726Y720852D01*
X1261726Y716919D01*
X1262619Y716026D01*
X1285881Y716026D01*
X1286774Y716919D01*
X1286774Y730881D01*
X1285881Y731774D01*
X1262619Y731774D01*
X1261726Y730881D01*
X1261726Y726948D01*
X1261675Y726673D01*
X1261511Y726418D01*
X1261261Y726246D01*
X1260964Y726186D01*
X1227143Y726186D01*
X1196117Y695160D01*
X1195897Y695007D01*
X1195602Y694937D01*
X1195303Y694988D01*
X1195048Y695151D01*
X1194876Y695401D01*
X1194816Y695699D01*
X1194816Y712477D01*
X1194872Y712763D01*
X1195039Y713016D01*
X1224495Y742472D01*
X1224725Y742630D01*
X1225022Y742695D01*
X1225320Y742640D01*
X1225573Y742472D01*
X1226619Y741426D01*
X1249881Y741426D01*
X1250774Y742319D01*
X1250774Y756281D01*
X1249881Y757174D01*
X1226619Y757174D01*
X1225726Y756281D01*
X1225726Y750485D01*
X1225670Y750199D01*
X1225503Y749946D01*
X1190244Y714687D01*
X1190244Y534625D01*
X1190188Y534339D01*
X1190021Y534087D01*
X1152473Y496539D01*
X1152232Y496376D01*
X1151935Y496316D01*
X791533Y496316D01*
X678726Y383509D01*
X678485Y383346D01*
X678187Y383286D01*
X589733Y383286D01*
X589447Y383342D01*
X589195Y383509D01*
X587163Y385541D01*
X587005Y385772D01*
X586940Y386068D01*
X586995Y386366D01*
X587163Y386619D01*
X589506Y388962D01*
X589506Y393358D01*
X587917Y394946D01*
X587759Y395177D01*
X587694Y395473D01*
X587750Y395771D01*
X587917Y396024D01*
X588518Y396625D01*
X588518Y413704D01*
X588565Y413968D01*
X588724Y414226D01*
X588972Y414401D01*
X589268Y414466D01*
X589566Y414411D01*
X589819Y414243D01*
X592359Y411703D01*
X592522Y411462D01*
X592582Y411164D01*
X592582Y396625D01*
X593475Y395732D01*
X600325Y395732D01*
X601218Y396625D01*
X601218Y417699D01*
X600325Y418592D01*
X593475Y418592D01*
X593244Y418361D01*
X593014Y418203D01*
X592717Y418138D01*
X592419Y418194D01*
X592166Y418361D01*
X579013Y431515D01*
X578860Y431735D01*
X578790Y432030D01*
X578841Y432329D01*
X579004Y432584D01*
X579254Y432756D01*
X579551Y432816D01*
X643135Y432816D01*
X643421Y432760D01*
X643674Y432593D01*
X667571Y408696D01*
X667734Y408455D01*
X667794Y408157D01*
X667794Y404202D01*
X670902Y401094D01*
X675298Y401094D01*
X678406Y404202D01*
X678406Y408598D01*
X675298Y411706D01*
X671343Y411706D01*
X671057Y411762D01*
X670804Y411929D01*
X670240Y412493D01*
X670087Y412713D01*
X670017Y413008D01*
X670068Y413307D01*
X670231Y413562D01*
X670481Y413734D01*
X670779Y413794D01*
X675298Y413794D01*
X678406Y416902D01*
X678406Y421298D01*
X675298Y424406D01*
X671343Y424406D01*
X671057Y424462D01*
X670804Y424629D01*
X670240Y425193D01*
X670087Y425413D01*
X670017Y425708D01*
X670068Y426007D01*
X670231Y426262D01*
X670481Y426434D01*
X670779Y426494D01*
X675298Y426494D01*
X678406Y429602D01*
X678406Y433998D01*
X675298Y437106D01*
X671343Y437106D01*
X671057Y437162D01*
X670804Y437329D01*
X670240Y437893D01*
X670087Y438113D01*
X670017Y438408D01*
X670068Y438707D01*
X670231Y438962D01*
X670481Y439134D01*
X670779Y439194D01*
X675298Y439194D01*
X678406Y442302D01*
X678406Y446698D01*
X675298Y449806D01*
X670902Y449806D01*
X668105Y447009D01*
X667864Y446846D01*
X667567Y446786D01*
X614680Y446786D01*
X614405Y446837D01*
X614150Y447001D01*
X613978Y447251D01*
X613918Y447548D01*
X613918Y466975D01*
X613317Y467576D01*
X613159Y467806D01*
X613094Y468103D01*
X613150Y468401D01*
X613317Y468654D01*
X614906Y470242D01*
X614906Y474638D01*
X611798Y477746D01*
X607402Y477746D01*
X604294Y474638D01*
X604294Y470242D01*
X605883Y468654D01*
X606041Y468423D01*
X606106Y468127D01*
X606050Y467829D01*
X605883Y467576D01*
X605282Y466975D01*
X605282Y449896D01*
X605235Y449632D01*
X605076Y449374D01*
X604828Y449199D01*
X604532Y449134D01*
X604234Y449189D01*
X603981Y449357D01*
X601441Y451897D01*
X601278Y452138D01*
X601218Y452436D01*
X601218Y466975D01*
X600325Y467868D01*
X593475Y467868D01*
X592582Y466975D01*
X592582Y449896D01*
X592535Y449632D01*
X592376Y449374D01*
X592128Y449199D01*
X591832Y449134D01*
X591534Y449189D01*
X591281Y449357D01*
X588741Y451897D01*
X588578Y452138D01*
X588518Y452436D01*
X588518Y466975D01*
X587625Y467868D01*
X580775Y467868D01*
X579882Y466975D01*
X579882Y445901D01*
X580775Y445008D01*
X587625Y445008D01*
X587856Y445239D01*
X588086Y445397D01*
X588383Y445462D01*
X588681Y445406D01*
X588934Y445239D01*
X592435Y441737D01*
X592588Y441517D01*
X592658Y441222D01*
X592607Y440923D01*
X592444Y440668D01*
X592194Y440496D01*
X591897Y440436D01*
X575118Y440436D01*
X574832Y440492D01*
X574579Y440659D01*
X571531Y443707D01*
X571378Y443927D01*
X571308Y444222D01*
X571359Y444521D01*
X571522Y444776D01*
X571772Y444948D01*
X572070Y445008D01*
X574925Y445008D01*
X575818Y445901D01*
X575818Y466975D01*
X575570Y467223D01*
X575412Y467453D01*
X575347Y467750D01*
X575403Y468048D01*
X575570Y468301D01*
X576806Y469536D01*
X576806Y473932D01*
X573698Y477040D01*
X569302Y477040D01*
X566194Y473932D01*
X566194Y469536D01*
X567430Y468301D01*
X567588Y468070D01*
X567653Y467774D01*
X567597Y467476D01*
X567430Y467223D01*
X567182Y466975D01*
X567182Y449896D01*
X567135Y449632D01*
X566976Y449374D01*
X566728Y449199D01*
X566432Y449134D01*
X566134Y449189D01*
X565881Y449357D01*
X563341Y451897D01*
X563178Y452138D01*
X563118Y452436D01*
X563118Y466975D01*
X562225Y467868D01*
X555375Y467868D01*
X554482Y466975D01*
X554482Y449896D01*
X554435Y449632D01*
X554276Y449374D01*
X554028Y449199D01*
X553732Y449134D01*
X553434Y449189D01*
X553181Y449357D01*
X550641Y451897D01*
X550478Y452138D01*
X550418Y452436D01*
X550418Y466975D01*
X549525Y467868D01*
X542675Y467868D01*
X541782Y466975D01*
X541782Y445901D01*
X542675Y445008D01*
X549525Y445008D01*
X549756Y445239D01*
X549986Y445397D01*
X550283Y445462D01*
X550581Y445406D01*
X550834Y445239D01*
X554335Y441737D01*
X554488Y441517D01*
X554558Y441222D01*
X554507Y440923D01*
X554344Y440668D01*
X554094Y440496D01*
X553797Y440436D01*
X529398Y440436D01*
X529112Y440492D01*
X528859Y440659D01*
X523209Y446309D01*
X523046Y446550D01*
X522986Y446848D01*
X522986Y468568D01*
X523042Y468854D01*
X523209Y469107D01*
X535745Y481643D01*
X535986Y481806D01*
X536284Y481866D01*
X573743Y481866D01*
X586486Y494609D01*
X586486Y496570D01*
X586537Y496845D01*
X586701Y497100D01*
X586951Y497272D01*
X587248Y497332D01*
X587625Y497332D01*
X588518Y498225D01*
X588518Y515304D01*
X588565Y515568D01*
X588724Y515826D01*
X588972Y516001D01*
X589268Y516066D01*
X589566Y516011D01*
X589819Y515843D01*
X592359Y513303D01*
X592522Y513062D01*
X592582Y512764D01*
X592582Y498225D01*
X593475Y497332D01*
X600325Y497332D01*
X601218Y498225D01*
X601218Y519299D01*
X600325Y520192D01*
X593475Y520192D01*
X593244Y519961D01*
X593014Y519803D01*
X592717Y519738D01*
X592419Y519794D01*
X592166Y519961D01*
X563341Y548787D01*
X563178Y549028D01*
X563118Y549325D01*
X563118Y568575D01*
X562225Y569468D01*
X555375Y569468D01*
X554482Y568575D01*
X554482Y547501D01*
X555375Y546608D01*
X558738Y546608D01*
X559024Y546552D01*
X559277Y546385D01*
X584169Y521493D01*
X584322Y521273D01*
X584392Y520978D01*
X584341Y520679D01*
X584178Y520424D01*
X583928Y520252D01*
X583630Y520192D01*
X580775Y520192D01*
X579882Y519299D01*
X579882Y498225D01*
X580775Y497332D01*
X580904Y497332D01*
X581167Y497285D01*
X581425Y497126D01*
X581601Y496878D01*
X581666Y496582D01*
X581610Y496284D01*
X581443Y496031D01*
X578107Y492695D01*
X577887Y492542D01*
X577592Y492472D01*
X577293Y492523D01*
X577038Y492687D01*
X576866Y492937D01*
X576806Y493234D01*
X576806Y495720D01*
X575598Y496927D01*
X575440Y497158D01*
X575375Y497454D01*
X575431Y497752D01*
X575598Y498005D01*
X575818Y498225D01*
X575818Y519299D01*
X574925Y520192D01*
X568075Y520192D01*
X567182Y519299D01*
X567182Y498225D01*
X567402Y498005D01*
X567560Y497775D01*
X567625Y497478D01*
X567569Y497180D01*
X567402Y496927D01*
X566194Y495720D01*
X566194Y491324D01*
X569302Y488216D01*
X571788Y488216D01*
X572051Y488169D01*
X572309Y488010D01*
X572485Y487762D01*
X572550Y487466D01*
X572494Y487168D01*
X572327Y486915D01*
X572073Y486661D01*
X571831Y486498D01*
X571534Y486438D01*
X536448Y486438D01*
X536173Y486489D01*
X535918Y486653D01*
X535746Y486903D01*
X535686Y487200D01*
X535686Y496570D01*
X535737Y496845D01*
X535901Y497100D01*
X536151Y497272D01*
X536448Y497332D01*
X536825Y497332D01*
X537718Y498225D01*
X537718Y519299D01*
X536825Y520192D01*
X529975Y520192D01*
X529082Y519299D01*
X529082Y498225D01*
X529975Y497332D01*
X530352Y497332D01*
X530627Y497281D01*
X530882Y497117D01*
X531054Y496867D01*
X531114Y496570D01*
X531114Y488104D01*
X531058Y487818D01*
X530891Y487565D01*
X515366Y472040D01*
X515366Y443376D01*
X525926Y432816D01*
X553150Y432816D01*
X553436Y432760D01*
X553689Y432593D01*
X556291Y429991D01*
X556454Y429750D01*
X556514Y429452D01*
X556514Y419354D01*
X556463Y419079D01*
X556299Y418824D01*
X556049Y418652D01*
X555752Y418592D01*
X555375Y418592D01*
X554482Y417699D01*
X554482Y396625D01*
X555375Y395732D01*
X562225Y395732D01*
X563118Y396625D01*
X563118Y417699D01*
X562225Y418592D01*
X561848Y418592D01*
X561573Y418643D01*
X561318Y418807D01*
X561146Y419057D01*
X561086Y419354D01*
X561086Y429006D01*
X561137Y429281D01*
X561301Y429536D01*
X561551Y429708D01*
X561848Y429768D01*
X573978Y429768D01*
X574264Y429712D01*
X574517Y429545D01*
X584169Y419893D01*
X584322Y419673D01*
X584392Y419378D01*
X584341Y419079D01*
X584178Y418824D01*
X583928Y418652D01*
X583630Y418592D01*
X580775Y418592D01*
X579882Y417699D01*
X579882Y396625D01*
X580483Y396024D01*
X580641Y395794D01*
X580706Y395497D01*
X580650Y395199D01*
X580483Y394946D01*
X578894Y393358D01*
X578894Y391379D01*
X578847Y391115D01*
X578688Y390857D01*
X578440Y390682D01*
X578144Y390617D01*
X577846Y390672D01*
X577593Y390840D01*
X574009Y394424D01*
X573846Y394665D01*
X573786Y394963D01*
X573786Y394970D01*
X573837Y395245D01*
X574001Y395500D01*
X574251Y395672D01*
X574548Y395732D01*
X574925Y395732D01*
X575818Y396625D01*
X575818Y417699D01*
X574925Y418592D01*
X568075Y418592D01*
X567182Y417699D01*
X567182Y396625D01*
X568075Y395732D01*
X568452Y395732D01*
X568727Y395681D01*
X568982Y395517D01*
X569154Y395267D01*
X569214Y394970D01*
X569214Y392753D01*
X578671Y383296D01*
X578834Y383055D01*
X578894Y382757D01*
X578894Y378802D01*
X582002Y375694D01*
X586398Y375694D01*
X589195Y378491D01*
X589436Y378654D01*
X589733Y378714D01*
X680397Y378714D01*
X721429Y419746D01*
X721648Y419899D01*
X721943Y419969D01*
X722242Y419918D01*
X722498Y419755D01*
X722669Y419504D01*
X722730Y419207D01*
X722730Y406547D01*
X722674Y406261D01*
X722507Y406008D01*
X701912Y385413D01*
X701670Y385251D01*
X701373Y385190D01*
X697418Y385190D01*
X694310Y382082D01*
X694310Y377686D01*
X697418Y374578D01*
G37*
G36*
X976094Y728526D02*
X992406Y728526D01*
X995374Y729755D01*
X997645Y732026D01*
X998874Y734994D01*
X998874Y738206D01*
X997645Y741174D01*
X995374Y743445D01*
X992406Y744674D01*
X976094Y744674D01*
X973126Y743445D01*
X970855Y741174D01*
X969626Y738206D01*
X969626Y734994D01*
X970855Y732026D01*
X973126Y729755D01*
X976094Y728526D01*
G37*
G36*
X1059053Y728776D02*
X1061847Y728776D01*
X1064429Y729845D01*
X1066405Y731821D01*
X1067474Y734403D01*
X1067474Y737197D01*
X1066405Y739779D01*
X1064429Y741755D01*
X1061847Y742824D01*
X1059053Y742824D01*
X1056471Y741755D01*
X1054495Y739779D01*
X1053426Y737197D01*
X1053426Y734403D01*
X1054495Y731821D01*
X1056471Y729845D01*
X1059053Y728776D01*
G37*
G36*
X429856Y701426D02*
X433744Y701426D01*
X437337Y702914D01*
X440086Y705663D01*
X441574Y709256D01*
X441574Y713144D01*
X440086Y716737D01*
X437337Y719486D01*
X433744Y720974D01*
X429856Y720974D01*
X426263Y719486D01*
X423514Y716737D01*
X422026Y713144D01*
X422026Y709256D01*
X423514Y705663D01*
X426263Y702914D01*
X429856Y701426D01*
G37*
G36*
X328256Y701426D02*
X332144Y701426D01*
X335737Y702914D01*
X338486Y705663D01*
X339974Y709256D01*
X339974Y713144D01*
X338486Y716737D01*
X335737Y719486D01*
X332144Y720974D01*
X328256Y720974D01*
X324663Y719486D01*
X321914Y716737D01*
X320426Y713144D01*
X320426Y709256D01*
X321914Y705663D01*
X324663Y702914D01*
X328256Y701426D01*
G37*
G36*
X734656Y701426D02*
X738544Y701426D01*
X742137Y702914D01*
X744886Y705663D01*
X746374Y709256D01*
X746374Y713144D01*
X744886Y716737D01*
X742137Y719486D01*
X738544Y720974D01*
X734656Y720974D01*
X731063Y719486D01*
X728314Y716737D01*
X726826Y713144D01*
X726826Y709256D01*
X728314Y705663D01*
X731063Y702914D01*
X734656Y701426D01*
G37*
G36*
X531456Y701426D02*
X535344Y701426D01*
X538937Y702914D01*
X541686Y705663D01*
X543174Y709256D01*
X543174Y713144D01*
X541686Y716737D01*
X538937Y719486D01*
X535344Y720974D01*
X531456Y720974D01*
X527863Y719486D01*
X525114Y716737D01*
X523626Y713144D01*
X523626Y709256D01*
X525114Y705663D01*
X527863Y702914D01*
X531456Y701426D01*
G37*
G36*
X633056Y701426D02*
X636944Y701426D01*
X640537Y702914D01*
X643286Y705663D01*
X644774Y709256D01*
X644774Y713144D01*
X643286Y716737D01*
X640537Y719486D01*
X636944Y720974D01*
X633056Y720974D01*
X629463Y719486D01*
X626714Y716737D01*
X625226Y713144D01*
X625226Y709256D01*
X626714Y705663D01*
X629463Y702914D01*
X633056Y701426D01*
G37*
G36*
X822969Y523626D02*
X840731Y523626D01*
X841624Y524519D01*
X841624Y539625D01*
X841680Y539911D01*
X841847Y540164D01*
X851624Y549941D01*
X851865Y550104D01*
X852163Y550164D01*
X925837Y550164D01*
X926123Y550108D01*
X926376Y549941D01*
X936153Y540164D01*
X936316Y539923D01*
X936376Y539625D01*
X936376Y524519D01*
X937269Y523626D01*
X955031Y523626D01*
X955924Y524519D01*
X955924Y542281D01*
X955031Y543174D01*
X939925Y543174D01*
X939639Y543230D01*
X939386Y543397D01*
X933920Y548863D01*
X933767Y549083D01*
X933697Y549378D01*
X933748Y549677D01*
X933911Y549932D01*
X934161Y550104D01*
X934459Y550164D01*
X1143817Y550164D01*
X1144103Y550108D01*
X1144355Y549941D01*
X1147152Y547144D01*
X1151548Y547144D01*
X1154656Y550252D01*
X1154656Y554648D01*
X1151548Y557756D01*
X1147152Y557756D01*
X1144355Y554959D01*
X1144114Y554796D01*
X1143817Y554736D01*
X858259Y554736D01*
X857995Y554783D01*
X857737Y554942D01*
X857562Y555190D01*
X857497Y555486D01*
X857552Y555784D01*
X857720Y556037D01*
X878586Y576903D01*
X878586Y667697D01*
X877024Y669259D01*
X868389Y677893D01*
X868231Y678124D01*
X868166Y678420D01*
X868222Y678718D01*
X868389Y678971D01*
X870645Y681226D01*
X871874Y684194D01*
X871874Y687406D01*
X870645Y690374D01*
X868374Y692645D01*
X865406Y693874D01*
X860298Y693874D01*
X860023Y693925D01*
X859768Y694089D01*
X859596Y694339D01*
X859536Y694636D01*
X859536Y702364D01*
X859587Y702639D01*
X859751Y702894D01*
X860001Y703066D01*
X860298Y703126D01*
X865406Y703126D01*
X868374Y704355D01*
X870645Y706626D01*
X871874Y709594D01*
X871874Y712806D01*
X870645Y715774D01*
X868374Y718045D01*
X865406Y719274D01*
X849094Y719274D01*
X846126Y718045D01*
X843855Y715774D01*
X842626Y712806D01*
X842626Y709594D01*
X843855Y706626D01*
X846126Y704355D01*
X849094Y703126D01*
X854202Y703126D01*
X854477Y703075D01*
X854732Y702911D01*
X854904Y702661D01*
X854964Y702364D01*
X854964Y694636D01*
X854913Y694361D01*
X854749Y694106D01*
X854499Y693934D01*
X854202Y693874D01*
X849094Y693874D01*
X846126Y692645D01*
X843855Y690374D01*
X842626Y687406D01*
X842626Y684194D01*
X843855Y681226D01*
X846126Y678955D01*
X849094Y677726D01*
X861775Y677726D01*
X862061Y677670D01*
X862314Y677503D01*
X873791Y666026D01*
X873954Y665785D01*
X874014Y665487D01*
X874014Y579113D01*
X873958Y578827D01*
X873791Y578574D01*
X838614Y543397D01*
X838373Y543234D01*
X838075Y543174D01*
X822969Y543174D01*
X822076Y542281D01*
X822076Y524519D01*
X822969Y523626D01*
G37*
G36*
X976094Y703126D02*
X992406Y703126D01*
X995374Y704355D01*
X997645Y706626D01*
X998874Y709594D01*
X998874Y712806D01*
X997645Y715774D01*
X995374Y718045D01*
X992406Y719274D01*
X976094Y719274D01*
X973126Y718045D01*
X970855Y715774D01*
X969626Y712806D01*
X969626Y709594D01*
X970855Y706626D01*
X973126Y704355D01*
X976094Y703126D01*
G37*
G36*
X1495910Y691326D02*
X1501290Y691326D01*
X1506261Y693385D01*
X1510065Y697189D01*
X1512124Y702160D01*
X1512124Y707540D01*
X1510065Y712511D01*
X1506261Y716315D01*
X1501290Y718374D01*
X1495910Y718374D01*
X1490939Y716315D01*
X1487135Y712511D01*
X1485076Y707540D01*
X1485076Y702160D01*
X1487135Y697189D01*
X1490939Y693385D01*
X1495910Y691326D01*
G37*
G36*
X1059053Y703776D02*
X1061847Y703776D01*
X1064429Y704845D01*
X1066405Y706821D01*
X1067474Y709403D01*
X1067474Y712197D01*
X1066405Y714779D01*
X1064429Y716755D01*
X1061847Y717824D01*
X1059053Y717824D01*
X1056471Y716755D01*
X1054495Y714779D01*
X1053426Y712197D01*
X1053426Y709403D01*
X1054495Y706821D01*
X1056471Y704845D01*
X1059053Y703776D01*
G37*
G36*
X163305Y676776D02*
X166895Y676776D01*
X170212Y678150D01*
X172750Y680688D01*
X174124Y684005D01*
X174124Y687595D01*
X172750Y690912D01*
X170212Y693450D01*
X166895Y694824D01*
X163305Y694824D01*
X159988Y693450D01*
X157450Y690912D01*
X156076Y687595D01*
X156076Y684005D01*
X157450Y680688D01*
X159988Y678150D01*
X163305Y676776D01*
G37*
G36*
X188705Y676776D02*
X192295Y676776D01*
X195612Y678150D01*
X198150Y680688D01*
X199524Y684005D01*
X199524Y687595D01*
X198150Y690912D01*
X195612Y693450D01*
X192295Y694824D01*
X188705Y694824D01*
X185388Y693450D01*
X182850Y690912D01*
X181476Y687595D01*
X181476Y684005D01*
X182850Y680688D01*
X185388Y678150D01*
X188705Y676776D01*
G37*
G36*
X10905Y676776D02*
X14495Y676776D01*
X17812Y678150D01*
X20350Y680688D01*
X21724Y684005D01*
X21724Y687595D01*
X20350Y690912D01*
X17812Y693450D01*
X14495Y694824D01*
X10905Y694824D01*
X7588Y693450D01*
X5050Y690912D01*
X3676Y687595D01*
X3676Y684005D01*
X5050Y680688D01*
X7588Y678150D01*
X10905Y676776D01*
G37*
G36*
X137905Y676776D02*
X141495Y676776D01*
X144812Y678150D01*
X147350Y680688D01*
X148724Y684005D01*
X148724Y687595D01*
X147350Y690912D01*
X144812Y693450D01*
X141495Y694824D01*
X137905Y694824D01*
X134588Y693450D01*
X132050Y690912D01*
X130676Y687595D01*
X130676Y684005D01*
X132050Y680688D01*
X134588Y678150D01*
X137905Y676776D01*
G37*
G36*
X87105Y676776D02*
X90695Y676776D01*
X94012Y678150D01*
X96550Y680688D01*
X97924Y684005D01*
X97924Y687595D01*
X96550Y690912D01*
X94012Y693450D01*
X90695Y694824D01*
X87105Y694824D01*
X83788Y693450D01*
X81250Y690912D01*
X79876Y687595D01*
X79876Y684005D01*
X81250Y680688D01*
X83788Y678150D01*
X87105Y676776D01*
G37*
G36*
X112505Y676776D02*
X116095Y676776D01*
X119412Y678150D01*
X121950Y680688D01*
X123324Y684005D01*
X123324Y687595D01*
X121950Y690912D01*
X119412Y693450D01*
X116095Y694824D01*
X112505Y694824D01*
X109188Y693450D01*
X106650Y690912D01*
X105276Y687595D01*
X105276Y684005D01*
X106650Y680688D01*
X109188Y678150D01*
X112505Y676776D01*
G37*
G36*
X61705Y676776D02*
X65295Y676776D01*
X68612Y678150D01*
X71150Y680688D01*
X72524Y684005D01*
X72524Y687595D01*
X71150Y690912D01*
X68612Y693450D01*
X65295Y694824D01*
X61705Y694824D01*
X58388Y693450D01*
X55850Y690912D01*
X54476Y687595D01*
X54476Y684005D01*
X55850Y680688D01*
X58388Y678150D01*
X61705Y676776D01*
G37*
G36*
X36305Y676776D02*
X39895Y676776D01*
X43212Y678150D01*
X45750Y680688D01*
X47124Y684005D01*
X47124Y687595D01*
X45750Y690912D01*
X43212Y693450D01*
X39895Y694824D01*
X36305Y694824D01*
X32988Y693450D01*
X30450Y690912D01*
X29076Y687595D01*
X29076Y684005D01*
X30450Y680688D01*
X32988Y678150D01*
X36305Y676776D01*
G37*
G36*
X976094Y677726D02*
X992406Y677726D01*
X995374Y678955D01*
X997645Y681226D01*
X998874Y684194D01*
X998874Y687406D01*
X997645Y690374D01*
X995374Y692645D01*
X992406Y693874D01*
X976094Y693874D01*
X973126Y692645D01*
X970855Y690374D01*
X969626Y687406D01*
X969626Y684194D01*
X970855Y681226D01*
X973126Y678955D01*
X976094Y677726D01*
G37*
G36*
X1059053Y678776D02*
X1061847Y678776D01*
X1064429Y679845D01*
X1066405Y681821D01*
X1067474Y684403D01*
X1067474Y687197D01*
X1066405Y689779D01*
X1064429Y691755D01*
X1061847Y692824D01*
X1059053Y692824D01*
X1056471Y691755D01*
X1054495Y689779D01*
X1053426Y687197D01*
X1053426Y684403D01*
X1054495Y681821D01*
X1056471Y679845D01*
X1059053Y678776D01*
G37*
G36*
X976094Y652326D02*
X992406Y652326D01*
X995374Y653555D01*
X997645Y655826D01*
X998874Y658794D01*
X998874Y662006D01*
X997645Y664974D01*
X995374Y667245D01*
X992406Y668474D01*
X976094Y668474D01*
X973126Y667245D01*
X970855Y664974D01*
X969626Y662006D01*
X969626Y658794D01*
X970855Y655826D01*
X973126Y653555D01*
X976094Y652326D01*
G37*
G36*
X976094Y626926D02*
X992406Y626926D01*
X995374Y628155D01*
X997645Y630426D01*
X998874Y633394D01*
X998874Y636606D01*
X997645Y639574D01*
X995374Y641845D01*
X992406Y643074D01*
X976094Y643074D01*
X973126Y641845D01*
X970855Y639574D01*
X969626Y636606D01*
X969626Y633394D01*
X970855Y630426D01*
X973126Y628155D01*
X976094Y626926D01*
G37*
G36*
X1495910Y602426D02*
X1501290Y602426D01*
X1506261Y604485D01*
X1510065Y608289D01*
X1512124Y613260D01*
X1512124Y618640D01*
X1510065Y623611D01*
X1506261Y627415D01*
X1501290Y629474D01*
X1495910Y629474D01*
X1490939Y627415D01*
X1487135Y623611D01*
X1485076Y618640D01*
X1485076Y613260D01*
X1487135Y608289D01*
X1490939Y604485D01*
X1495910Y602426D01*
G37*
G36*
X499776Y450276D02*
X503524Y450276D01*
X506174Y452926D01*
X506174Y460025D01*
X506230Y460311D01*
X506397Y460564D01*
X510286Y464453D01*
X510286Y555247D01*
X506397Y559136D01*
X506234Y559377D01*
X506174Y559675D01*
X506174Y566774D01*
X504159Y568789D01*
X503996Y569030D01*
X503936Y569328D01*
X503936Y576587D01*
X503992Y576873D01*
X504159Y577126D01*
X521424Y594391D01*
X521665Y594554D01*
X521963Y594614D01*
X616767Y594614D01*
X617053Y594558D01*
X617305Y594391D01*
X620102Y591594D01*
X624498Y591594D01*
X627606Y594702D01*
X627606Y599098D01*
X624498Y602206D01*
X620102Y602206D01*
X617305Y599409D01*
X617064Y599246D01*
X616767Y599186D01*
X519753Y599186D01*
X499364Y578797D01*
X499364Y569328D01*
X499308Y569042D01*
X499141Y568789D01*
X497126Y566774D01*
X497126Y554526D01*
X499776Y551876D01*
X503524Y551876D01*
X504413Y552765D01*
X504633Y552918D01*
X504928Y552988D01*
X505227Y552937D01*
X505482Y552774D01*
X505654Y552524D01*
X505714Y552226D01*
X505714Y514574D01*
X505667Y514310D01*
X505508Y514052D01*
X505260Y513877D01*
X504964Y513812D01*
X504666Y513867D01*
X504413Y514035D01*
X503524Y514924D01*
X499776Y514924D01*
X497126Y512274D01*
X497126Y500026D01*
X498313Y498839D01*
X498471Y498608D01*
X498536Y498312D01*
X498481Y498014D01*
X498313Y497761D01*
X496344Y495792D01*
X496344Y491396D01*
X499452Y488288D01*
X503848Y488288D01*
X504413Y488853D01*
X504633Y489006D01*
X504928Y489076D01*
X505227Y489025D01*
X505482Y488862D01*
X505654Y488612D01*
X505714Y488315D01*
X505714Y467474D01*
X505667Y467210D01*
X505508Y466952D01*
X505260Y466777D01*
X504964Y466712D01*
X504666Y466767D01*
X504413Y466935D01*
X503524Y467824D01*
X499776Y467824D01*
X497126Y465174D01*
X497126Y452926D01*
X499776Y450276D01*
G37*
G36*
X1446353Y583276D02*
X1449247Y583276D01*
X1451920Y584383D01*
X1453967Y586430D01*
X1455074Y589103D01*
X1455074Y591997D01*
X1453967Y594670D01*
X1451920Y596717D01*
X1449247Y597824D01*
X1446353Y597824D01*
X1443680Y596717D01*
X1441633Y594670D01*
X1440526Y591997D01*
X1440526Y589103D01*
X1441633Y586430D01*
X1443680Y584383D01*
X1446353Y583276D01*
G37*
G36*
X593475Y546608D02*
X600325Y546608D01*
X601218Y547501D01*
X601218Y568575D01*
X600325Y569468D01*
X599948Y569468D01*
X599673Y569519D01*
X599418Y569683D01*
X599246Y569933D01*
X599186Y570230D01*
X599186Y570237D01*
X599242Y570523D01*
X599409Y570776D01*
X610324Y581691D01*
X610565Y581854D01*
X610863Y581914D01*
X616767Y581914D01*
X617053Y581858D01*
X617305Y581691D01*
X620102Y578894D01*
X624498Y578894D01*
X627606Y582002D01*
X627606Y586398D01*
X624498Y589506D01*
X620102Y589506D01*
X617305Y586709D01*
X617064Y586546D01*
X616767Y586486D01*
X608653Y586486D01*
X594614Y572447D01*
X594614Y570230D01*
X594563Y569955D01*
X594399Y569700D01*
X594149Y569528D01*
X593852Y569468D01*
X593475Y569468D01*
X592582Y568575D01*
X592582Y547501D01*
X593475Y546608D01*
G37*
G36*
X606175Y546608D02*
X613025Y546608D01*
X613918Y547501D01*
X613918Y559569D01*
X613974Y559855D01*
X614141Y560108D01*
X620004Y565971D01*
X620245Y566134D01*
X620543Y566194D01*
X624498Y566194D01*
X627606Y569302D01*
X627606Y573698D01*
X624498Y576806D01*
X620102Y576806D01*
X616994Y573698D01*
X616994Y569743D01*
X616938Y569457D01*
X616771Y569204D01*
X615219Y567652D01*
X614999Y567499D01*
X614704Y567429D01*
X614405Y567480D01*
X614150Y567643D01*
X613978Y567893D01*
X613918Y568191D01*
X613918Y568575D01*
X613025Y569468D01*
X606175Y569468D01*
X605282Y568575D01*
X605282Y547501D01*
X606175Y546608D01*
G37*
G36*
X1441419Y557876D02*
X1454181Y557876D01*
X1455074Y558769D01*
X1455074Y571531D01*
X1454181Y572424D01*
X1441419Y572424D01*
X1440526Y571531D01*
X1440526Y558769D01*
X1441419Y557876D01*
G37*
G36*
X534162Y558800D02*
X538734Y558800D01*
X538734Y568996D01*
X537246Y570484D01*
X534162Y570484D01*
X534162Y558800D01*
G37*
G36*
X528066Y558800D02*
X532638Y558800D01*
X532638Y570484D01*
X529554Y570484D01*
X528066Y568996D01*
X528066Y558800D01*
G37*
G36*
X555375Y497332D02*
X562225Y497332D01*
X563118Y498225D01*
X563118Y519299D01*
X562225Y520192D01*
X561848Y520192D01*
X561573Y520243D01*
X561318Y520407D01*
X561146Y520657D01*
X561086Y520954D01*
X561086Y534347D01*
X549714Y545719D01*
X549556Y545949D01*
X549491Y546246D01*
X549546Y546544D01*
X549714Y546797D01*
X550418Y547501D01*
X550418Y568575D01*
X549525Y569468D01*
X542675Y569468D01*
X541782Y568575D01*
X541782Y547501D01*
X542675Y546608D01*
X543052Y546608D01*
X543327Y546557D01*
X543582Y546393D01*
X543754Y546143D01*
X543814Y545846D01*
X543814Y545153D01*
X556291Y532676D01*
X556454Y532435D01*
X556514Y532137D01*
X556514Y520954D01*
X556463Y520679D01*
X556299Y520424D01*
X556049Y520252D01*
X555752Y520192D01*
X555375Y520192D01*
X554482Y519299D01*
X554482Y498225D01*
X555375Y497332D01*
G37*
G36*
X568075Y546608D02*
X574925Y546608D01*
X575818Y547501D01*
X575818Y568575D01*
X574925Y569468D01*
X568075Y569468D01*
X567182Y568575D01*
X567182Y547501D01*
X568075Y546608D01*
G37*
G36*
X580775Y546608D02*
X587625Y546608D01*
X588518Y547501D01*
X588518Y568575D01*
X587625Y569468D01*
X580775Y569468D01*
X579882Y568575D01*
X579882Y547501D01*
X580775Y546608D01*
G37*
G36*
X487076Y551876D02*
X490824Y551876D01*
X493474Y554526D01*
X493474Y566774D01*
X490824Y569424D01*
X487076Y569424D01*
X484426Y566774D01*
X484426Y554526D01*
X487076Y551876D01*
G37*
G36*
X448976Y551876D02*
X452724Y551876D01*
X455374Y554526D01*
X455374Y566774D01*
X452724Y569424D01*
X448976Y569424D01*
X446326Y566774D01*
X446326Y554526D01*
X448976Y551876D01*
G37*
G36*
X461676Y551876D02*
X465424Y551876D01*
X468074Y554526D01*
X468074Y566774D01*
X465424Y569424D01*
X461676Y569424D01*
X459026Y566774D01*
X459026Y554526D01*
X461676Y551876D01*
G37*
G36*
X474376Y551876D02*
X478124Y551876D01*
X480774Y554526D01*
X480774Y566774D01*
X478124Y569424D01*
X474376Y569424D01*
X471726Y566774D01*
X471726Y554526D01*
X474376Y551876D01*
G37*
G36*
X529554Y545592D02*
X532638Y545592D01*
X532638Y557276D01*
X528066Y557276D01*
X528066Y547080D01*
X529554Y545592D01*
G37*
G36*
X534162Y545592D02*
X537246Y545592D01*
X538734Y547080D01*
X538734Y557276D01*
X534162Y557276D01*
X534162Y545592D01*
G37*
G36*
X1061212Y534162D02*
X1071240Y534162D01*
X1071240Y542702D01*
X1069752Y544190D01*
X1061212Y544190D01*
X1061212Y534162D01*
G37*
G36*
X1049660Y534162D02*
X1059688Y534162D01*
X1059688Y544190D01*
X1051148Y544190D01*
X1049660Y542702D01*
X1049660Y534162D01*
G37*
G36*
X824738Y512064D02*
X1080447Y512064D01*
X1092995Y524612D01*
X1093231Y524773D01*
X1093528Y524836D01*
X1093826Y524778D01*
X1096606Y523626D01*
X1100494Y523626D01*
X1104087Y525114D01*
X1106836Y527863D01*
X1108324Y531456D01*
X1108324Y535344D01*
X1106836Y538937D01*
X1104087Y541686D01*
X1100494Y543174D01*
X1096606Y543174D01*
X1093013Y541686D01*
X1090264Y538937D01*
X1088776Y535344D01*
X1088776Y531456D01*
X1089928Y528676D01*
X1089985Y528396D01*
X1089930Y528098D01*
X1089762Y527845D01*
X1078776Y516859D01*
X1078535Y516696D01*
X1078237Y516636D01*
X826947Y516636D01*
X826661Y516692D01*
X826409Y516859D01*
X807582Y535686D01*
X731973Y535686D01*
X731687Y535742D01*
X731435Y535909D01*
X728638Y538706D01*
X724242Y538706D01*
X721134Y535598D01*
X721134Y531202D01*
X724242Y528094D01*
X728638Y528094D01*
X731435Y530891D01*
X731676Y531054D01*
X731973Y531114D01*
X805372Y531114D01*
X805658Y531058D01*
X805911Y530891D01*
X824738Y512064D01*
G37*
G36*
X982306Y523626D02*
X986194Y523626D01*
X989787Y525114D01*
X992536Y527863D01*
X994024Y531456D01*
X994024Y535344D01*
X992536Y538937D01*
X989787Y541686D01*
X986194Y543174D01*
X982306Y543174D01*
X978713Y541686D01*
X975964Y538937D01*
X974476Y535344D01*
X974476Y531456D01*
X975964Y527863D01*
X978713Y525114D01*
X982306Y523626D01*
G37*
G36*
X868006Y523626D02*
X871894Y523626D01*
X875487Y525114D01*
X878236Y527863D01*
X879724Y531456D01*
X879724Y535344D01*
X878236Y538937D01*
X875487Y541686D01*
X871894Y543174D01*
X868006Y543174D01*
X864413Y541686D01*
X861664Y538937D01*
X860176Y535344D01*
X860176Y531456D01*
X861664Y527863D01*
X864413Y525114D01*
X868006Y523626D01*
G37*
G36*
X410876Y497376D02*
X414624Y497376D01*
X417274Y500026D01*
X417274Y512274D01*
X415259Y514289D01*
X415096Y514530D01*
X415036Y514828D01*
X415036Y515297D01*
X411929Y518404D01*
X411766Y518645D01*
X411706Y518943D01*
X411706Y523021D01*
X411753Y523285D01*
X411912Y523543D01*
X412160Y523718D01*
X412456Y523783D01*
X412754Y523728D01*
X413007Y523560D01*
X422071Y514496D01*
X422229Y514266D01*
X422294Y513970D01*
X422238Y513672D01*
X422071Y513419D01*
X420926Y512274D01*
X420926Y500026D01*
X423576Y497376D01*
X427324Y497376D01*
X429974Y500026D01*
X429974Y512274D01*
X427959Y514289D01*
X427796Y514530D01*
X427736Y514828D01*
X427736Y515297D01*
X411929Y531104D01*
X411766Y531345D01*
X411706Y531643D01*
X411706Y535598D01*
X408598Y538706D01*
X404202Y538706D01*
X401094Y535598D01*
X401094Y531202D01*
X404202Y528094D01*
X408157Y528094D01*
X408443Y528038D01*
X408696Y527871D01*
X409260Y527307D01*
X409413Y527087D01*
X409483Y526792D01*
X409432Y526493D01*
X409269Y526238D01*
X409019Y526066D01*
X408721Y526006D01*
X404202Y526006D01*
X401094Y522898D01*
X401094Y518502D01*
X404202Y515394D01*
X408157Y515394D01*
X408443Y515338D01*
X408696Y515171D01*
X409371Y514496D01*
X409529Y514266D01*
X409594Y513970D01*
X409538Y513672D01*
X409371Y513419D01*
X408226Y512274D01*
X408226Y500026D01*
X410876Y497376D01*
G37*
G36*
X436276Y497376D02*
X440024Y497376D01*
X442674Y500026D01*
X442674Y512274D01*
X440659Y514289D01*
X440496Y514530D01*
X440436Y514828D01*
X440436Y525787D01*
X440492Y526073D01*
X440659Y526326D01*
X445224Y530891D01*
X445465Y531054D01*
X445763Y531114D01*
X489767Y531114D01*
X490053Y531058D01*
X490305Y530891D01*
X493102Y528094D01*
X497498Y528094D01*
X500606Y531202D01*
X500606Y535598D01*
X497498Y538706D01*
X493102Y538706D01*
X490305Y535909D01*
X490064Y535746D01*
X489767Y535686D01*
X443553Y535686D01*
X435864Y527997D01*
X435864Y514828D01*
X435808Y514542D01*
X435641Y514289D01*
X433626Y512274D01*
X433626Y500026D01*
X436276Y497376D01*
G37*
G36*
X1061212Y522610D02*
X1069752Y522610D01*
X1071240Y524098D01*
X1071240Y532638D01*
X1061212Y532638D01*
X1061212Y522610D01*
G37*
G36*
X1051148Y522610D02*
X1059688Y522610D01*
X1059688Y532638D01*
X1049660Y532638D01*
X1049660Y524098D01*
X1051148Y522610D01*
G37*
G36*
X1495910Y500826D02*
X1501290Y500826D01*
X1506261Y502885D01*
X1510065Y506689D01*
X1512124Y511660D01*
X1512124Y517040D01*
X1510065Y522011D01*
X1506261Y525815D01*
X1501290Y527874D01*
X1495910Y527874D01*
X1490939Y525815D01*
X1487135Y522011D01*
X1485076Y517040D01*
X1485076Y511660D01*
X1487135Y506689D01*
X1490939Y502885D01*
X1495910Y500826D01*
G37*
G36*
X607402Y488244D02*
X611798Y488244D01*
X614906Y491352D01*
X614906Y495748D01*
X613712Y496941D01*
X613554Y497172D01*
X613489Y497468D01*
X613545Y497766D01*
X613712Y498019D01*
X613918Y498225D01*
X613918Y519299D01*
X613025Y520192D01*
X606175Y520192D01*
X605282Y519299D01*
X605282Y498225D01*
X605488Y498019D01*
X605646Y497789D01*
X605711Y497492D01*
X605655Y497194D01*
X605488Y496941D01*
X604294Y495748D01*
X604294Y491352D01*
X607402Y488244D01*
G37*
G36*
X543902Y488244D02*
X548298Y488244D01*
X551406Y491352D01*
X551406Y495748D01*
X550212Y496941D01*
X550054Y497172D01*
X549989Y497468D01*
X550045Y497766D01*
X550212Y498019D01*
X550418Y498225D01*
X550418Y519299D01*
X549525Y520192D01*
X542675Y520192D01*
X541782Y519299D01*
X541782Y498225D01*
X541988Y498019D01*
X542146Y497789D01*
X542211Y497492D01*
X542155Y497194D01*
X541988Y496941D01*
X540794Y495748D01*
X540794Y491352D01*
X543902Y488244D01*
G37*
G36*
X487076Y497376D02*
X490824Y497376D01*
X493474Y500026D01*
X493474Y512274D01*
X490824Y514924D01*
X487076Y514924D01*
X484426Y512274D01*
X484426Y500026D01*
X487076Y497376D01*
G37*
G36*
X474376Y497376D02*
X478124Y497376D01*
X480774Y500026D01*
X480774Y512274D01*
X478124Y514924D01*
X474376Y514924D01*
X471726Y512274D01*
X471726Y500026D01*
X474376Y497376D01*
G37*
G36*
X461676Y497376D02*
X465424Y497376D01*
X468074Y500026D01*
X468074Y512274D01*
X465424Y514924D01*
X461676Y514924D01*
X459026Y512274D01*
X459026Y500026D01*
X461676Y497376D01*
G37*
G36*
X448976Y497376D02*
X452724Y497376D01*
X455374Y500026D01*
X455374Y512274D01*
X452724Y514924D01*
X448976Y514924D01*
X446326Y512274D01*
X446326Y500026D01*
X448976Y497376D01*
G37*
G36*
X1239012Y496062D02*
X1251790Y496062D01*
X1251790Y502702D01*
X1250302Y504190D01*
X1239012Y504190D01*
X1239012Y496062D01*
G37*
G36*
X1224710Y496062D02*
X1237488Y496062D01*
X1237488Y504190D01*
X1226198Y504190D01*
X1224710Y502702D01*
X1224710Y496062D01*
G37*
G36*
X1239012Y486410D02*
X1250302Y486410D01*
X1251790Y487898D01*
X1251790Y494538D01*
X1239012Y494538D01*
X1239012Y486410D01*
G37*
G36*
X1226198Y486410D02*
X1237488Y486410D01*
X1237488Y494538D01*
X1224710Y494538D01*
X1224710Y487898D01*
X1226198Y486410D01*
G37*
G36*
X1472509Y448826D02*
X1488771Y448826D01*
X1489664Y449719D01*
X1489664Y470981D01*
X1488771Y471874D01*
X1472509Y471874D01*
X1471616Y470981D01*
X1471616Y449719D01*
X1472509Y448826D01*
G37*
G36*
X1527509Y448826D02*
X1543771Y448826D01*
X1544664Y449719D01*
X1544664Y470981D01*
X1543771Y471874D01*
X1527509Y471874D01*
X1526616Y470981D01*
X1526616Y449719D01*
X1527509Y448826D01*
G37*
G36*
X534162Y457200D02*
X538734Y457200D01*
X538734Y467396D01*
X537246Y468884D01*
X534162Y468884D01*
X534162Y457200D01*
G37*
G36*
X528066Y457200D02*
X532638Y457200D01*
X532638Y468884D01*
X529554Y468884D01*
X528066Y467396D01*
X528066Y457200D01*
G37*
G36*
X325571Y396640D02*
X334829Y396640D01*
X343771Y399036D01*
X351789Y403665D01*
X358335Y410211D01*
X362964Y418229D01*
X365360Y427171D01*
X365360Y436429D01*
X362964Y445371D01*
X358335Y453389D01*
X351789Y459935D01*
X343771Y464564D01*
X334829Y466960D01*
X325571Y466960D01*
X316629Y464564D01*
X308611Y459935D01*
X302065Y453389D01*
X297436Y445371D01*
X295040Y436429D01*
X295040Y427171D01*
X297436Y418229D01*
X302065Y410211D01*
X308611Y403665D01*
X316629Y399036D01*
X325571Y396640D01*
G37*
G36*
X1214571Y396640D02*
X1223829Y396640D01*
X1232771Y399036D01*
X1240789Y403665D01*
X1247335Y410211D01*
X1251964Y418229D01*
X1254360Y427171D01*
X1254360Y436429D01*
X1251964Y445371D01*
X1247335Y453389D01*
X1240789Y459935D01*
X1232771Y464564D01*
X1223829Y466960D01*
X1214571Y466960D01*
X1205629Y464564D01*
X1197611Y459935D01*
X1191065Y453389D01*
X1186436Y445371D01*
X1184040Y436429D01*
X1184040Y427171D01*
X1186436Y418229D01*
X1191065Y410211D01*
X1197611Y403665D01*
X1205629Y399036D01*
X1214571Y396640D01*
G37*
G36*
X529554Y443992D02*
X532638Y443992D01*
X532638Y455676D01*
X528066Y455676D01*
X528066Y445480D01*
X529554Y443992D01*
G37*
G36*
X534162Y443992D02*
X537246Y443992D01*
X538734Y445480D01*
X538734Y455676D01*
X534162Y455676D01*
X534162Y443992D01*
G37*
G36*
X-8006Y429826D02*
X-4694Y429826D01*
X-1635Y431093D01*
X707Y433435D01*
X1974Y436494D01*
X1974Y439806D01*
X707Y442865D01*
X-1635Y445207D01*
X-4694Y446474D01*
X-8006Y446474D01*
X-11065Y445207D01*
X-13407Y442865D01*
X-14674Y439806D01*
X-14674Y436494D01*
X-13407Y433435D01*
X-11065Y431093D01*
X-8006Y429826D01*
G37*
G36*
X372452Y369344D02*
X376848Y369344D01*
X379956Y372452D01*
X379956Y374904D01*
X380007Y375179D01*
X380171Y375434D01*
X380421Y375606D01*
X380718Y375666D01*
X522147Y375666D01*
X541990Y395509D01*
X542232Y395672D01*
X542529Y395732D01*
X549525Y395732D01*
X550418Y396625D01*
X550418Y417699D01*
X549944Y418173D01*
X549786Y418403D01*
X549721Y418700D01*
X549777Y418998D01*
X549944Y419251D01*
X551406Y420712D01*
X551406Y425108D01*
X548298Y428216D01*
X543902Y428216D01*
X540794Y425108D01*
X540794Y420712D01*
X542256Y419251D01*
X542414Y419020D01*
X542479Y418724D01*
X542423Y418426D01*
X542256Y418173D01*
X541782Y417699D01*
X541782Y402082D01*
X541726Y401796D01*
X541559Y401543D01*
X539019Y399003D01*
X538799Y398850D01*
X538504Y398780D01*
X538205Y398831D01*
X537950Y398995D01*
X537778Y399245D01*
X537718Y399542D01*
X537718Y417699D01*
X537244Y418173D01*
X537086Y418403D01*
X537021Y418700D01*
X537077Y418998D01*
X537244Y419251D01*
X538706Y420712D01*
X538706Y425108D01*
X535598Y428216D01*
X531202Y428216D01*
X528094Y425108D01*
X528094Y420712D01*
X529556Y419251D01*
X529714Y419020D01*
X529779Y418724D01*
X529723Y418426D01*
X529556Y418173D01*
X529082Y417699D01*
X529082Y396625D01*
X530167Y395540D01*
X530325Y395309D01*
X530390Y395013D01*
X530335Y394715D01*
X530167Y394462D01*
X519595Y383890D01*
X519354Y383727D01*
X519056Y383667D01*
X271852Y383667D01*
X271566Y383723D01*
X271314Y383890D01*
X268898Y386306D01*
X264502Y386306D01*
X261394Y383198D01*
X261394Y378802D01*
X264502Y375694D01*
X268898Y375694D01*
X272076Y378872D01*
X272317Y379035D01*
X272614Y379095D01*
X369752Y379095D01*
X370015Y379048D01*
X370273Y378889D01*
X370448Y378641D01*
X370513Y378345D01*
X370458Y378047D01*
X370290Y377794D01*
X369344Y376848D01*
X369344Y372452D01*
X372452Y369344D01*
G37*
G36*
X9710Y413512D02*
X18288Y413512D01*
X18288Y422090D01*
X17192Y422090D01*
X13759Y420668D01*
X11132Y418041D01*
X9710Y414608D01*
X9710Y413512D01*
G37*
G36*
X19812Y413512D02*
X28390Y413512D01*
X28390Y414608D01*
X26968Y418041D01*
X24341Y420668D01*
X20908Y422090D01*
X19812Y422090D01*
X19812Y413512D01*
G37*
G36*
X-8006Y404426D02*
X-4694Y404426D01*
X-1635Y405693D01*
X707Y408035D01*
X1974Y411094D01*
X1974Y414406D01*
X707Y417465D01*
X-1635Y419807D01*
X-4694Y421074D01*
X-8006Y421074D01*
X-11065Y419807D01*
X-13407Y417465D01*
X-14674Y414406D01*
X-14674Y411094D01*
X-13407Y408035D01*
X-11065Y405693D01*
X-8006Y404426D01*
G37*
G36*
X607402Y386644D02*
X611798Y386644D01*
X614906Y389752D01*
X614906Y394148D01*
X613712Y395341D01*
X613554Y395572D01*
X613489Y395868D01*
X613545Y396166D01*
X613712Y396419D01*
X613918Y396625D01*
X613918Y417699D01*
X613025Y418592D01*
X606175Y418592D01*
X605282Y417699D01*
X605282Y396625D01*
X605488Y396419D01*
X605646Y396189D01*
X605711Y395892D01*
X605655Y395594D01*
X605488Y395341D01*
X604294Y394148D01*
X604294Y389752D01*
X607402Y386644D01*
G37*
G36*
X499452Y386688D02*
X503848Y386688D01*
X506956Y389796D01*
X506956Y394192D01*
X504987Y396161D01*
X504829Y396392D01*
X504764Y396688D01*
X504819Y396986D01*
X504987Y397239D01*
X506174Y398426D01*
X506174Y410674D01*
X503524Y413324D01*
X499776Y413324D01*
X497126Y410674D01*
X497126Y398426D01*
X498313Y397239D01*
X498471Y397008D01*
X498536Y396712D01*
X498481Y396414D01*
X498313Y396161D01*
X496344Y394192D01*
X496344Y389796D01*
X499452Y386688D01*
G37*
G36*
X17192Y403410D02*
X18288Y403410D01*
X18288Y411988D01*
X9710Y411988D01*
X9710Y410892D01*
X11132Y407459D01*
X13759Y404832D01*
X17192Y403410D01*
G37*
G36*
X19812Y403410D02*
X20908Y403410D01*
X24341Y404832D01*
X26968Y407459D01*
X28390Y410892D01*
X28390Y411988D01*
X19812Y411988D01*
X19812Y403410D01*
G37*
G36*
X919194Y387776D02*
X922306Y387776D01*
X925182Y388967D01*
X927383Y391168D01*
X928574Y394044D01*
X928574Y397156D01*
X927383Y400032D01*
X925182Y402233D01*
X922306Y403424D01*
X919194Y403424D01*
X916318Y402233D01*
X914117Y400032D01*
X912926Y397156D01*
X912926Y394044D01*
X914117Y391168D01*
X916318Y388967D01*
X919194Y387776D01*
G37*
G36*
X1033494Y387776D02*
X1036606Y387776D01*
X1039482Y388967D01*
X1041683Y391168D01*
X1042874Y394044D01*
X1042874Y397156D01*
X1041683Y400032D01*
X1039482Y402233D01*
X1036606Y403424D01*
X1033494Y403424D01*
X1030618Y402233D01*
X1028417Y400032D01*
X1027226Y397156D01*
X1027226Y394044D01*
X1028417Y391168D01*
X1030618Y388967D01*
X1033494Y387776D01*
G37*
G36*
X1096994Y387776D02*
X1100106Y387776D01*
X1102982Y388967D01*
X1105183Y391168D01*
X1106374Y394044D01*
X1106374Y397156D01*
X1105183Y400032D01*
X1102982Y402233D01*
X1100106Y403424D01*
X1096994Y403424D01*
X1094118Y402233D01*
X1091917Y400032D01*
X1090726Y397156D01*
X1090726Y394044D01*
X1091917Y391168D01*
X1094118Y388967D01*
X1096994Y387776D01*
G37*
G36*
X-8006Y379026D02*
X-4694Y379026D01*
X-1635Y380293D01*
X707Y382635D01*
X1974Y385694D01*
X1974Y389006D01*
X707Y392065D01*
X-1635Y394407D01*
X-4694Y395674D01*
X-8006Y395674D01*
X-11065Y394407D01*
X-13407Y392065D01*
X-14674Y389006D01*
X-14674Y385694D01*
X-13407Y382635D01*
X-11065Y380293D01*
X-8006Y379026D01*
G37*
G36*
X-16144Y174500D02*
X-9256Y174500D01*
X-2603Y176283D01*
X3363Y179727D01*
X8233Y184597D01*
X11677Y190563D01*
X13460Y197216D01*
X13460Y204104D01*
X11677Y210757D01*
X8233Y216723D01*
X3363Y221593D01*
X-2603Y225037D01*
X-9256Y226820D01*
X-16144Y226820D01*
X-17634Y226421D01*
X-17801Y226395D01*
X-18101Y226444D01*
X-18357Y226605D01*
X-18531Y226854D01*
X-18594Y227151D01*
X-18536Y227448D01*
X-16476Y232421D01*
X-16476Y238079D01*
X-18641Y243307D01*
X-22643Y247309D01*
X-27871Y249474D01*
X-33529Y249474D01*
X-38757Y247309D01*
X-42759Y243307D01*
X-44924Y238079D01*
X-44924Y232421D01*
X-42759Y227193D01*
X-38757Y223191D01*
X-33529Y221026D01*
X-31169Y221026D01*
X-30906Y220979D01*
X-30648Y220820D01*
X-30473Y220572D01*
X-30408Y220276D01*
X-30463Y219978D01*
X-30631Y219725D01*
X-33633Y216723D01*
X-37077Y210757D01*
X-38860Y204104D01*
X-38860Y197216D01*
X-37077Y190563D01*
X-33633Y184597D01*
X-28763Y179727D01*
X-22797Y176283D01*
X-16144Y174500D01*
G37*
G36*
X593456Y174500D02*
X600344Y174500D01*
X606997Y176283D01*
X612963Y179727D01*
X617833Y184597D01*
X621277Y190563D01*
X623060Y197216D01*
X623060Y204104D01*
X621277Y210757D01*
X617833Y216723D01*
X612963Y221593D01*
X606997Y225037D01*
X600344Y226820D01*
X593456Y226820D01*
X591966Y226421D01*
X591799Y226395D01*
X591499Y226444D01*
X591243Y226605D01*
X591069Y226854D01*
X591006Y227151D01*
X591064Y227448D01*
X593124Y232421D01*
X593124Y238079D01*
X590959Y243307D01*
X586957Y247309D01*
X581729Y249474D01*
X576071Y249474D01*
X570843Y247309D01*
X566841Y243307D01*
X564676Y238079D01*
X564676Y232421D01*
X566841Y227193D01*
X570843Y223191D01*
X576071Y221026D01*
X578431Y221026D01*
X578694Y220979D01*
X578952Y220820D01*
X579127Y220572D01*
X579192Y220276D01*
X579137Y219978D01*
X578969Y219725D01*
X575967Y216723D01*
X572523Y210757D01*
X570740Y204104D01*
X570740Y197216D01*
X572523Y190563D01*
X575967Y184597D01*
X580837Y179727D01*
X586803Y176283D01*
X593456Y174500D01*
G37*
G36*
X390256Y174500D02*
X397144Y174500D01*
X403797Y176283D01*
X409763Y179727D01*
X414633Y184597D01*
X418077Y190563D01*
X419860Y197216D01*
X419860Y204104D01*
X418077Y210757D01*
X414633Y216723D01*
X409763Y221593D01*
X403797Y225037D01*
X397144Y226820D01*
X390256Y226820D01*
X388766Y226421D01*
X388599Y226395D01*
X388299Y226444D01*
X388043Y226605D01*
X387869Y226854D01*
X387806Y227151D01*
X387864Y227448D01*
X389924Y232421D01*
X389924Y238079D01*
X387759Y243307D01*
X383757Y247309D01*
X378529Y249474D01*
X372871Y249474D01*
X367643Y247309D01*
X363641Y243307D01*
X361476Y238079D01*
X361476Y232421D01*
X363641Y227193D01*
X367643Y223191D01*
X372871Y221026D01*
X375231Y221026D01*
X375494Y220979D01*
X375752Y220820D01*
X375927Y220572D01*
X375992Y220276D01*
X375937Y219978D01*
X375769Y219725D01*
X372767Y216723D01*
X369323Y210757D01*
X367540Y204104D01*
X367540Y197216D01*
X369323Y190563D01*
X372767Y184597D01*
X377637Y179727D01*
X383603Y176283D01*
X390256Y174500D01*
G37*
G36*
X1203056Y174500D02*
X1209944Y174500D01*
X1216597Y176283D01*
X1222563Y179727D01*
X1227433Y184597D01*
X1230877Y190563D01*
X1232660Y197216D01*
X1232660Y204104D01*
X1230877Y210757D01*
X1227433Y216723D01*
X1222563Y221593D01*
X1216597Y225037D01*
X1209944Y226820D01*
X1203056Y226820D01*
X1201566Y226421D01*
X1201399Y226395D01*
X1201099Y226444D01*
X1200843Y226605D01*
X1200669Y226854D01*
X1200606Y227151D01*
X1200664Y227448D01*
X1202724Y232421D01*
X1202724Y238079D01*
X1200559Y243307D01*
X1196557Y247309D01*
X1191329Y249474D01*
X1185671Y249474D01*
X1180443Y247309D01*
X1176441Y243307D01*
X1174276Y238079D01*
X1174276Y232421D01*
X1176441Y227193D01*
X1180443Y223191D01*
X1185671Y221026D01*
X1188031Y221026D01*
X1188294Y220979D01*
X1188552Y220820D01*
X1188727Y220572D01*
X1188792Y220276D01*
X1188737Y219978D01*
X1188569Y219725D01*
X1185567Y216723D01*
X1182123Y210757D01*
X1180340Y204104D01*
X1180340Y197216D01*
X1182123Y190563D01*
X1185567Y184597D01*
X1190437Y179727D01*
X1196403Y176283D01*
X1203056Y174500D01*
G37*
G36*
X796656Y174500D02*
X803544Y174500D01*
X810197Y176283D01*
X816163Y179727D01*
X821033Y184597D01*
X824477Y190563D01*
X826260Y197216D01*
X826260Y204104D01*
X824477Y210757D01*
X821033Y216723D01*
X816163Y221593D01*
X810197Y225037D01*
X803544Y226820D01*
X796656Y226820D01*
X795166Y226421D01*
X794999Y226395D01*
X794699Y226444D01*
X794443Y226605D01*
X794269Y226854D01*
X794206Y227151D01*
X794264Y227448D01*
X796324Y232421D01*
X796324Y238079D01*
X794159Y243307D01*
X790157Y247309D01*
X784929Y249474D01*
X779271Y249474D01*
X774043Y247309D01*
X770041Y243307D01*
X767876Y238079D01*
X767876Y232421D01*
X770041Y227193D01*
X774043Y223191D01*
X779271Y221026D01*
X781631Y221026D01*
X781894Y220979D01*
X782152Y220820D01*
X782327Y220572D01*
X782392Y220276D01*
X782337Y219978D01*
X782169Y219725D01*
X779167Y216723D01*
X775723Y210757D01*
X773940Y204104D01*
X773940Y197216D01*
X775723Y190563D01*
X779167Y184597D01*
X784037Y179727D01*
X790003Y176283D01*
X796656Y174500D01*
G37*
G36*
X1406256Y174500D02*
X1413144Y174500D01*
X1419797Y176283D01*
X1425763Y179727D01*
X1430633Y184597D01*
X1434077Y190563D01*
X1435860Y197216D01*
X1435860Y204104D01*
X1434077Y210757D01*
X1430633Y216723D01*
X1425763Y221593D01*
X1419797Y225037D01*
X1413144Y226820D01*
X1406256Y226820D01*
X1404766Y226421D01*
X1404599Y226395D01*
X1404299Y226444D01*
X1404043Y226605D01*
X1403869Y226854D01*
X1403806Y227151D01*
X1403864Y227448D01*
X1405924Y232421D01*
X1405924Y238079D01*
X1403759Y243307D01*
X1399757Y247309D01*
X1394529Y249474D01*
X1388871Y249474D01*
X1383643Y247309D01*
X1379641Y243307D01*
X1377476Y238079D01*
X1377476Y232421D01*
X1379641Y227193D01*
X1383643Y223191D01*
X1388871Y221026D01*
X1391231Y221026D01*
X1391494Y220979D01*
X1391752Y220820D01*
X1391927Y220572D01*
X1391992Y220276D01*
X1391937Y219978D01*
X1391769Y219725D01*
X1388767Y216723D01*
X1385323Y210757D01*
X1383540Y204104D01*
X1383540Y197216D01*
X1385323Y190563D01*
X1388767Y184597D01*
X1393637Y179727D01*
X1399603Y176283D01*
X1406256Y174500D01*
G37*
G36*
X187056Y174500D02*
X193944Y174500D01*
X200597Y176283D01*
X206563Y179727D01*
X211433Y184597D01*
X214877Y190563D01*
X216660Y197216D01*
X216660Y204104D01*
X214877Y210757D01*
X211433Y216723D01*
X206563Y221593D01*
X200597Y225037D01*
X193944Y226820D01*
X187056Y226820D01*
X185566Y226421D01*
X185399Y226395D01*
X185099Y226444D01*
X184843Y226605D01*
X184669Y226854D01*
X184606Y227151D01*
X184664Y227448D01*
X186724Y232421D01*
X186724Y238079D01*
X184559Y243307D01*
X180557Y247309D01*
X175329Y249474D01*
X169671Y249474D01*
X164443Y247309D01*
X160441Y243307D01*
X158276Y238079D01*
X158276Y232421D01*
X160441Y227193D01*
X164443Y223191D01*
X169671Y221026D01*
X172031Y221026D01*
X172294Y220979D01*
X172552Y220820D01*
X172727Y220572D01*
X172792Y220276D01*
X172737Y219978D01*
X172569Y219725D01*
X169567Y216723D01*
X166123Y210757D01*
X164340Y204104D01*
X164340Y197216D01*
X166123Y190563D01*
X169567Y184597D01*
X174437Y179727D01*
X180403Y176283D01*
X187056Y174500D01*
G37*
G36*
X999856Y174500D02*
X1006744Y174500D01*
X1013397Y176283D01*
X1019363Y179727D01*
X1024233Y184597D01*
X1027677Y190563D01*
X1029460Y197216D01*
X1029460Y204104D01*
X1027677Y210757D01*
X1024233Y216723D01*
X1019363Y221593D01*
X1013397Y225037D01*
X1006744Y226820D01*
X999856Y226820D01*
X998366Y226421D01*
X998199Y226395D01*
X997899Y226444D01*
X997643Y226605D01*
X997469Y226854D01*
X997406Y227151D01*
X997464Y227448D01*
X999524Y232421D01*
X999524Y238079D01*
X997359Y243307D01*
X993357Y247309D01*
X988129Y249474D01*
X982471Y249474D01*
X977243Y247309D01*
X973241Y243307D01*
X971076Y238079D01*
X971076Y232421D01*
X973241Y227193D01*
X977243Y223191D01*
X982471Y221026D01*
X984831Y221026D01*
X985094Y220979D01*
X985352Y220820D01*
X985527Y220572D01*
X985592Y220276D01*
X985537Y219978D01*
X985369Y219725D01*
X982367Y216723D01*
X978923Y210757D01*
X977140Y204104D01*
X977140Y197216D01*
X978923Y190563D01*
X982367Y184597D01*
X987237Y179727D01*
X993203Y176283D01*
X999856Y174500D01*
G37*
%LPD*%
D10*
X850700Y812800D02*
X863800Y812800D01*
X863800Y787400D02*
X850700Y787400D01*
X850700Y762000D02*
X863800Y762000D01*
X863800Y736600D02*
X850700Y736600D01*
X850700Y711200D02*
X863800Y711200D01*
X863800Y685800D02*
X850700Y685800D01*
X850700Y660400D02*
X863800Y660400D01*
X863800Y635000D02*
X850700Y635000D01*
X977700Y812800D02*
X990800Y812800D01*
X990800Y787400D02*
X977700Y787400D01*
X977700Y762000D02*
X990800Y762000D01*
X990800Y736600D02*
X977700Y736600D01*
X977700Y711200D02*
X990800Y711200D01*
X990800Y685800D02*
X977700Y685800D01*
X977700Y660400D02*
X990800Y660400D01*
X990800Y635000D02*
X977700Y635000D01*
D11*
X1060450Y685800D03*
X1060450Y710800D03*
X1060450Y735800D03*
X1060450Y760800D03*
D12*
X12700Y660400D03*
D13*
X12700Y685800D03*
X38100Y660400D03*
X38100Y685800D03*
X63500Y660400D03*
X63500Y685800D03*
X88900Y660400D03*
X88900Y685800D03*
X114300Y660400D03*
X114300Y685800D03*
X139700Y660400D03*
X139700Y685800D03*
X165100Y660400D03*
X165100Y685800D03*
X190500Y660400D03*
X190500Y685800D03*
D12*
X12700Y546100D03*
D13*
X12700Y571500D03*
X38100Y546100D03*
X38100Y571500D03*
X63500Y546100D03*
X63500Y571500D03*
X88900Y546100D03*
X88900Y571500D03*
X114300Y546100D03*
X114300Y571500D03*
X139700Y546100D03*
X139700Y571500D03*
X165100Y546100D03*
X165100Y571500D03*
X190500Y546100D03*
X190500Y571500D03*
D12*
X12700Y887082D03*
D13*
X12700Y912482D03*
X38100Y887082D03*
X38100Y912482D03*
X63500Y887082D03*
X63500Y912482D03*
X88900Y887082D03*
X88900Y912482D03*
X114300Y887082D03*
X114300Y912482D03*
X139700Y887082D03*
X139700Y912482D03*
X165100Y887082D03*
X165100Y912482D03*
X190500Y887082D03*
X190500Y912482D03*
D12*
X12700Y772202D03*
D13*
X12700Y797602D03*
X38100Y772202D03*
X38100Y797602D03*
X63500Y772202D03*
X63500Y797602D03*
X88900Y772202D03*
X88900Y797602D03*
X114300Y772202D03*
X114300Y797602D03*
X139700Y772202D03*
X139700Y797602D03*
X165100Y772202D03*
X165100Y797602D03*
X190500Y772202D03*
X190500Y797602D03*
D14*
X1447800Y565150D03*
D15*
X1447800Y590550D03*
D16*
X1498600Y514350D03*
X1498600Y615950D03*
D17*
X869950Y395600D03*
X869950Y468000D03*
X984250Y395600D03*
X984250Y468000D03*
X920750Y395600D03*
X920750Y468000D03*
X1035050Y395600D03*
X1035050Y468000D03*
X1098550Y395600D03*
X1098550Y468000D03*
D14*
X1447800Y755650D03*
D15*
X1447800Y781050D03*
D16*
X1498600Y704850D03*
X1498600Y806450D03*
D18*
X-6350Y387350D03*
X19050Y387350D03*
X-6350Y412750D03*
X19050Y412750D03*
X-6350Y438150D03*
X19050Y438150D03*
D19*
X412750Y408800D02*
X412750Y400300D01*
X425450Y400300D02*
X425450Y408800D01*
X438150Y408800D02*
X438150Y400300D01*
X450850Y400300D02*
X450850Y408800D01*
X463550Y408800D02*
X463550Y400300D01*
X476250Y400300D02*
X476250Y408800D01*
X488950Y408800D02*
X488950Y400300D01*
X501650Y400300D02*
X501650Y408800D01*
X501650Y454800D02*
X501650Y463300D01*
X488950Y463300D02*
X488950Y454800D01*
X476250Y454800D02*
X476250Y463300D01*
X463550Y463300D02*
X463550Y454800D01*
X450850Y454800D02*
X450850Y463300D01*
X438150Y463300D02*
X438150Y454800D01*
X425450Y454800D02*
X425450Y463300D01*
X412750Y463300D02*
X412750Y454800D01*
X412750Y501900D02*
X412750Y510400D01*
X425450Y510400D02*
X425450Y501900D01*
X438150Y501900D02*
X438150Y510400D01*
X450850Y510400D02*
X450850Y501900D01*
X463550Y501900D02*
X463550Y510400D01*
X476250Y510400D02*
X476250Y501900D01*
X488950Y501900D02*
X488950Y510400D01*
X501650Y510400D02*
X501650Y501900D01*
X501650Y556400D02*
X501650Y564900D01*
X488950Y564900D02*
X488950Y556400D01*
X476250Y556400D02*
X476250Y564900D01*
X463550Y564900D02*
X463550Y556400D01*
X450850Y556400D02*
X450850Y564900D01*
X438150Y564900D02*
X438150Y556400D01*
X425450Y556400D02*
X425450Y564900D01*
X412750Y564900D02*
X412750Y556400D01*
D20*
X533400Y407162D03*
X546100Y407162D03*
X558800Y407162D03*
X571500Y407162D03*
X584200Y407162D03*
X596900Y407162D03*
X609600Y407162D03*
X609600Y456438D03*
X596900Y456438D03*
X584200Y456438D03*
X571500Y456438D03*
X558800Y456438D03*
X546100Y456438D03*
X533400Y456438D03*
X533400Y508762D03*
X546100Y508762D03*
X558800Y508762D03*
X571500Y508762D03*
X584200Y508762D03*
X596900Y508762D03*
X609600Y508762D03*
X609600Y558038D03*
X596900Y558038D03*
X584200Y558038D03*
X571500Y558038D03*
X558800Y558038D03*
X546100Y558038D03*
X533400Y558038D03*
D21*
X946150Y533400D03*
D22*
X984250Y533400D03*
D21*
X1060450Y533400D03*
D22*
X1098550Y533400D03*
D21*
X831850Y533400D03*
D22*
X869950Y533400D03*
D23*
X15240Y243840D03*
X35560Y243840D03*
X55880Y243840D03*
X76200Y243840D03*
X25400Y226060D03*
X45720Y226060D03*
X66040Y226060D03*
D24*
X86360Y226060D03*
D25*
X132300Y235250D03*
X-30700Y235250D03*
D23*
X218440Y243840D03*
X238760Y243840D03*
X259080Y243840D03*
X279400Y243840D03*
X228600Y226060D03*
X248920Y226060D03*
X269240Y226060D03*
D24*
X289560Y226060D03*
D25*
X335500Y235250D03*
X172500Y235250D03*
D23*
X421640Y243840D03*
X441960Y243840D03*
X462280Y243840D03*
X482600Y243840D03*
X431800Y226060D03*
X452120Y226060D03*
X472440Y226060D03*
D24*
X492760Y226060D03*
D25*
X538700Y235250D03*
X375700Y235250D03*
D23*
X624840Y243840D03*
X645160Y243840D03*
X665480Y243840D03*
X685800Y243840D03*
X635000Y226060D03*
X655320Y226060D03*
X675640Y226060D03*
D24*
X695960Y226060D03*
D25*
X741900Y235250D03*
X578900Y235250D03*
D23*
X828040Y243840D03*
X848360Y243840D03*
X868680Y243840D03*
X889000Y243840D03*
X838200Y226060D03*
X858520Y226060D03*
X878840Y226060D03*
D24*
X899160Y226060D03*
D25*
X945100Y235250D03*
X782100Y235250D03*
D23*
X1031240Y243840D03*
X1051560Y243840D03*
X1071880Y243840D03*
X1092200Y243840D03*
X1041400Y226060D03*
X1061720Y226060D03*
X1082040Y226060D03*
D24*
X1102360Y226060D03*
D25*
X1148300Y235250D03*
X985300Y235250D03*
D23*
X1234440Y243840D03*
X1254760Y243840D03*
X1275080Y243840D03*
X1295400Y243840D03*
X1244600Y226060D03*
X1264920Y226060D03*
X1285240Y226060D03*
D24*
X1305560Y226060D03*
D25*
X1351500Y235250D03*
X1188500Y235250D03*
D23*
X1437640Y243840D03*
X1457960Y243840D03*
X1478280Y243840D03*
X1498600Y243840D03*
X1447800Y226060D03*
X1468120Y226060D03*
X1488440Y226060D03*
D24*
X1508760Y226060D03*
D25*
X1554700Y235250D03*
X1391700Y235250D03*
D26*
X1569640Y390350D03*
X1569640Y460350D03*
X1535640Y460350D03*
X1480640Y460350D03*
X1497640Y390350D03*
X1477640Y390350D03*
D27*
X1525200Y901850D02*
X1525200Y923850D01*
X1503700Y958850D02*
X1481700Y958850D01*
X1464200Y923850D02*
X1464200Y901850D01*
D21*
X330200Y673100D03*
D22*
X330200Y711200D03*
D21*
X431800Y673100D03*
D22*
X431800Y711200D03*
D21*
X533400Y673100D03*
D22*
X533400Y711200D03*
D21*
X635000Y673100D03*
D22*
X635000Y711200D03*
D21*
X736600Y673100D03*
D22*
X736600Y711200D03*
D21*
X381000Y774700D03*
D22*
X381000Y812800D03*
D21*
X482600Y774700D03*
D22*
X482600Y812800D03*
D21*
X584200Y774700D03*
D22*
X584200Y812800D03*
D21*
X685800Y774700D03*
D22*
X685800Y812800D03*
D28*
X1238250Y495300D03*
X1274250Y520700D03*
X1238250Y546100D03*
X1274250Y571500D03*
X1238250Y596900D03*
X1274250Y622300D03*
X1238250Y647700D03*
X1274250Y673100D03*
X1238250Y698500D03*
X1274250Y723900D03*
X1238250Y749300D03*
X1274250Y774700D03*
X1238250Y800100D03*
D29*
X1403350Y948659D03*
X1403350Y880141D03*
D30*
X609600Y508762D02*
X609600Y493550D01*
X609600Y407162D02*
X609600Y391950D01*
X501650Y493594D02*
X501650Y506150D01*
X501650Y404550D02*
X501650Y391994D01*
D31*
X609600Y493550D03*
X609600Y391950D03*
X501650Y493594D03*
X501650Y391994D03*
D30*
X1403350Y878840D02*
X1403350Y880141D01*
D31*
X1403350Y856017D03*
D30*
X1403350Y878840D01*
X1333500Y546100D02*
X1238250Y546100D01*
X1333500Y546100D02*
X1372870Y585470D01*
X1372870Y852170D01*
X1399540Y878840D01*
X1403350Y878840D01*
X1238250Y495300D02*
X1221944Y495300D01*
D31*
X1221944Y495300D03*
D30*
X501650Y560650D02*
X501650Y577850D01*
X520700Y596900D01*
X622300Y596900D01*
D31*
X622300Y596900D03*
D30*
X508000Y465400D02*
X501650Y459050D01*
X508000Y465400D02*
X508000Y554300D01*
X501650Y560650D01*
X38100Y406400D02*
X19050Y387350D01*
D31*
X12700Y457200D03*
D30*
X13800Y458300D01*
X38100Y434000D02*
X38100Y406400D01*
X38100Y434000D02*
X13800Y458300D01*
X12700Y457200D02*
X-6350Y476250D01*
X292100Y863600D02*
X209550Y946150D01*
X292100Y863600D02*
X838200Y863600D01*
X1028700Y863600D01*
X1308100Y863600D01*
X1391972Y947472D01*
X1028700Y863600D02*
X984250Y819150D01*
X984250Y812800D01*
D31*
X825500Y850900D03*
D30*
X838200Y863600D01*
X1403350Y948659D02*
X1428391Y948659D01*
X1464200Y912850D01*
X1402163Y947472D02*
X1391972Y947472D01*
X1402163Y947472D02*
X1403350Y948659D01*
X-6350Y907271D02*
X-6350Y476250D01*
X-6350Y907271D02*
X32529Y946150D01*
X209550Y946150D01*
X533400Y407162D02*
X533400Y394462D01*
X520319Y381381D01*
D31*
X266700Y381000D03*
D30*
X267081Y381381D01*
X520319Y381381D01*
D31*
X25400Y304800D03*
D30*
X25400Y226060D01*
X533400Y407162D02*
X533400Y422910D01*
D31*
X533400Y422910D03*
X1202690Y800100D03*
D30*
X1238250Y800100D01*
D31*
X374650Y374650D03*
D30*
X546100Y402851D02*
X546100Y407162D01*
X521201Y377952D02*
X377952Y377952D01*
X374650Y374650D01*
X521201Y377952D02*
X546100Y402851D01*
X228600Y273050D02*
X228600Y226060D01*
D31*
X228600Y273050D03*
D30*
X546100Y407162D02*
X546100Y422910D01*
D31*
X546100Y422910D03*
X1205230Y774700D03*
D30*
X1274250Y774700D01*
D31*
X584200Y381000D03*
D30*
X571500Y393700D01*
X571500Y407162D01*
X584200Y381000D02*
X679450Y381000D01*
D31*
X431800Y273050D03*
D30*
X431800Y226060D01*
X1228090Y749300D02*
X1238250Y749300D01*
X792480Y494030D02*
X679450Y381000D01*
X792480Y494030D02*
X1153197Y494030D01*
X1192530Y533363D01*
X1192530Y713740D01*
X1228090Y749300D01*
D31*
X584200Y391160D03*
D30*
X584200Y407162D01*
D31*
X635000Y273050D03*
D30*
X635000Y226060D01*
X1228090Y723900D02*
X1274250Y723900D01*
D31*
X699616Y379884D03*
D30*
X725016Y405284D02*
X725016Y422255D01*
X725016Y405284D02*
X699616Y379884D01*
X725016Y422255D02*
X793743Y490982D01*
X1154460Y490982D01*
X1195578Y532100D01*
X1195578Y691388D02*
X1228090Y723900D01*
X1195578Y691388D02*
X1195578Y532100D01*
D31*
X736600Y393700D03*
X673100Y406400D03*
D30*
X644398Y435102D01*
X546100Y453205D02*
X546100Y456438D01*
X564203Y435102D02*
X644398Y435102D01*
X564203Y435102D02*
X546100Y453205D01*
X838200Y273050D02*
X838200Y226060D01*
D31*
X838200Y273050D03*
D30*
X1228090Y698500D02*
X1238250Y698500D01*
X736600Y429529D02*
X736600Y393700D01*
X736600Y429529D02*
X795005Y487934D01*
X1155722Y487934D01*
X1198626Y530838D01*
X1198626Y669036D01*
X1228090Y698500D01*
D31*
X749300Y406400D03*
X673100Y419100D03*
D30*
X573855Y438150D02*
X558800Y453205D01*
X558800Y456438D01*
X654050Y438150D02*
X673100Y419100D01*
X654050Y438150D02*
X573855Y438150D01*
X1041400Y273050D02*
X1041400Y226060D01*
D31*
X1041400Y273050D03*
D30*
X1229360Y673100D02*
X1274250Y673100D01*
X749300Y437918D02*
X749300Y406400D01*
X749300Y437918D02*
X796268Y484886D01*
X1156985Y484886D01*
X1201674Y529575D01*
X1201674Y645414D01*
X1229360Y673100D01*
D31*
X762000Y431800D03*
X673100Y431800D03*
D30*
X663702Y441198D01*
X596207Y441198D01*
X584200Y453205D01*
X584200Y456438D01*
D31*
X1245870Y275590D03*
D30*
X1244854Y226314D02*
X1244600Y226060D01*
X1244854Y275590D02*
X1245870Y275590D01*
X1244854Y275590D02*
X1244854Y226314D01*
X1238250Y647700D02*
X1228090Y647700D01*
X762000Y446308D02*
X762000Y431800D01*
X762000Y446308D02*
X797530Y481838D01*
X1158247Y481838D01*
X1204722Y528313D01*
X1204722Y624332D02*
X1228090Y647700D01*
X1204722Y624332D02*
X1204722Y528313D01*
D31*
X673100Y444500D03*
D30*
X613595Y444500D01*
X613341Y444246D01*
X605859Y444246D01*
X596900Y453205D01*
X596900Y456438D01*
X1447800Y266700D02*
X1447800Y226060D01*
D31*
X1447800Y266700D03*
X781050Y454660D03*
D30*
X805180Y478790D01*
X1159510Y478790D01*
X1229360Y622300D02*
X1274250Y622300D01*
X1207770Y527050D02*
X1159510Y478790D01*
X1207770Y527050D02*
X1207770Y600710D01*
X1229360Y622300D01*
X62992Y495808D02*
X12700Y546100D01*
X62992Y495808D02*
X62992Y347472D01*
X35560Y320040D01*
X35560Y243840D01*
X88900Y512542D02*
X88900Y546100D01*
X88900Y512542D02*
X108712Y492730D01*
X639772Y321310D02*
X645160Y315922D01*
X645160Y243840D01*
X639772Y321310D02*
X224095Y321310D01*
X108712Y436693D02*
X108712Y492730D01*
X108712Y436693D02*
X224095Y321310D01*
X96520Y487680D02*
X38100Y546100D01*
X238760Y289403D02*
X238760Y243840D01*
X96520Y431643D02*
X96520Y487680D01*
X96520Y431643D02*
X238760Y289403D01*
X848360Y300990D02*
X848360Y243840D01*
X848360Y300990D02*
X821944Y327406D01*
X114808Y495255D02*
X114300Y495763D01*
X114300Y546100D01*
X226620Y327406D02*
X821944Y327406D01*
X226620Y327406D02*
X114808Y439218D01*
X114808Y495255D01*
X73152Y536448D02*
X63500Y546100D01*
X73152Y536448D02*
X73152Y519669D01*
X102616Y490205D01*
X429968Y315214D02*
X441960Y303222D01*
X441960Y243840D01*
X429968Y315214D02*
X221570Y315214D01*
X102616Y434168D02*
X102616Y490205D01*
X102616Y434168D02*
X221570Y315214D01*
X139700Y508000D02*
X139700Y546100D01*
X1051560Y300990D02*
X1051560Y243840D01*
X1051560Y300990D02*
X1019048Y333502D01*
X229145Y333502D01*
X120904Y489204D02*
X139700Y508000D01*
X120904Y489204D02*
X120904Y441743D01*
X229145Y333502D01*
X1457960Y300758D02*
X1457960Y243840D01*
X1457960Y300758D02*
X1413024Y345694D01*
X234195Y345694D01*
X190500Y389389D01*
X190500Y546100D01*
X165100Y520700D02*
X127000Y482600D01*
X165100Y520700D02*
X165100Y546100D01*
X1254252Y244348D02*
X1254760Y243840D01*
X1254252Y244348D02*
X1254252Y301498D01*
X1216152Y339598D01*
X231670Y339598D01*
X127000Y444268D01*
X127000Y482600D01*
X25400Y647700D02*
X12700Y660400D01*
X25400Y647700D02*
X25400Y537711D01*
X66040Y497071D02*
X66040Y226060D01*
X66040Y497071D02*
X25400Y537711D01*
X50800Y647700D02*
X38100Y660400D01*
X50800Y647700D02*
X50800Y537711D01*
X99568Y488943D01*
X269240Y263233D02*
X269240Y226060D01*
X99568Y432905D02*
X99568Y488943D01*
X99568Y432905D02*
X269240Y263233D01*
X76200Y647700D02*
X63500Y660400D01*
X76200Y647700D02*
X76200Y520932D01*
X105664Y491468D01*
X472440Y315152D02*
X472440Y226060D01*
X472440Y315152D02*
X469330Y318262D01*
X222832Y318262D01*
X105664Y435430D02*
X105664Y491468D01*
X105664Y435430D02*
X222832Y318262D01*
X149526Y513515D02*
X149526Y650574D01*
X139700Y660400D01*
X1082040Y300221D02*
X1082040Y226060D01*
X1082040Y300221D02*
X1045711Y336550D01*
X230408Y336550D01*
X123952Y443006D01*
X123952Y487941D01*
X149526Y513515D01*
X203200Y647700D02*
X190500Y660400D01*
X203200Y381000D02*
X235458Y348742D01*
X203200Y381000D02*
X203200Y647700D01*
X235458Y348742D02*
X1439687Y348742D01*
X1488440Y299989D01*
X1488440Y226060D01*
X177800Y647700D02*
X165100Y660400D01*
X1285240Y300221D02*
X1285240Y226060D01*
X1285240Y300221D02*
X1242815Y342646D01*
X232933Y342646D01*
X177800Y397779D02*
X177800Y647700D01*
X177800Y397779D02*
X232933Y342646D01*
X98726Y650574D02*
X88900Y660400D01*
X98726Y650574D02*
X98726Y507027D01*
X111760Y493993D01*
X225358Y324358D02*
X641034Y324358D01*
X675640Y289752D01*
X675640Y226060D01*
X111760Y437956D02*
X111760Y493993D01*
X111760Y437956D02*
X225358Y324358D01*
X878840Y300221D02*
X878840Y226060D01*
X126826Y647874D02*
X114300Y660400D01*
X126826Y647874D02*
X126826Y512137D01*
X117856Y503167D01*
X848607Y330454D02*
X878840Y300221D01*
X848607Y330454D02*
X227883Y330454D01*
X117856Y440481D02*
X117856Y503167D01*
X117856Y440481D02*
X227883Y330454D01*
X330200Y647700D02*
X330200Y673100D01*
X330200Y647700D02*
X346456Y631444D01*
X346456Y525344D01*
X412750Y459050D01*
X415914Y468586D02*
X425450Y459050D01*
X423179Y673100D02*
X431800Y673100D01*
X423179Y673100D02*
X349504Y599425D01*
X349504Y526607D01*
X407525Y468586D01*
X415914Y468586D01*
X425566Y471634D02*
X438150Y459050D01*
X485648Y625348D02*
X533400Y673100D01*
X485648Y625348D02*
X379737Y625348D01*
X352552Y598163D01*
X352552Y527869D01*
X408787Y471634D01*
X425566Y471634D01*
X462576Y459050D02*
X463550Y459050D01*
X462576Y459050D02*
X443896Y477730D01*
X682752Y619252D02*
X736600Y673100D01*
X382263Y619252D02*
X358648Y595637D01*
X382263Y619252D02*
X682752Y619252D01*
X443896Y477730D02*
X411312Y477730D01*
X358648Y530394D01*
X358648Y595637D01*
X454522Y480778D02*
X476250Y459050D01*
X704596Y615696D02*
X755650Y666750D01*
X755650Y717550D01*
X736600Y736600D01*
X419100Y736600D01*
X381000Y774700D01*
X383017Y615696D02*
X361696Y594375D01*
X383017Y615696D02*
X704596Y615696D01*
X454522Y480778D02*
X412575Y480778D01*
X361696Y531657D01*
X361696Y594375D01*
X464174Y483826D02*
X488950Y459050D01*
X514096Y743204D02*
X482600Y774700D01*
X514096Y743204D02*
X734307Y743204D01*
X705859Y612648D02*
X384280Y612648D01*
X364744Y593112D01*
X758698Y665487D02*
X758698Y718813D01*
X758698Y665487D02*
X705859Y612648D01*
X758698Y718813D02*
X734307Y743204D01*
X464174Y483826D02*
X413837Y483826D01*
X364744Y532919D01*
X364744Y593112D01*
X412750Y586050D02*
X412750Y560650D01*
X412750Y586050D02*
X436300Y609600D01*
X584200Y774700D02*
X612648Y746252D01*
X707121Y609600D02*
X436300Y609600D01*
X612648Y746252D02*
X735569Y746252D01*
X761746Y720075D02*
X761746Y664225D01*
X707121Y609600D01*
X761746Y720075D02*
X735569Y746252D01*
X438150Y560650D02*
X425450Y560650D01*
X438150Y586050D02*
X458652Y606552D01*
X438150Y586050D02*
X438150Y560650D01*
X685800Y774700D02*
X711200Y749300D01*
X708384Y606552D02*
X458652Y606552D01*
X711200Y749300D02*
X736832Y749300D01*
X764794Y721338D02*
X764794Y662962D01*
X708384Y606552D01*
X764794Y721338D02*
X736832Y749300D01*
X850900Y552450D02*
X831850Y533400D01*
X850900Y552450D02*
X876300Y577850D01*
X876300Y666750D01*
X857250Y685800D01*
X857250Y711200D01*
X850900Y552450D02*
X927100Y552450D01*
X946150Y533400D01*
X927100Y552450D02*
X1149350Y552450D01*
D31*
X1149350Y552450D03*
X1236980Y520700D03*
D30*
X1274250Y520700D01*
D31*
X1289050Y356870D03*
D30*
X1289050Y512250D01*
X1280600Y520700D01*
X1274250Y520700D01*
X1472957Y406400D02*
X1553590Y406400D01*
X1569640Y390350D01*
X1498600Y330557D02*
X1498600Y243840D01*
X1498600Y330557D02*
X1473557Y355600D01*
X1473200Y355600D01*
X1460500Y368300D01*
X1460500Y393943D01*
X1472957Y406400D01*
X86995Y225425D02*
X86360Y226060D01*
X493778Y225042D02*
X493778Y188950D01*
X696978Y188950D02*
X696978Y225042D01*
X900178Y225042D02*
X900178Y188950D01*
X1103378Y188978D02*
X1103378Y225042D01*
X1306578Y225042D02*
X1306578Y188950D01*
X289560Y187960D02*
X289560Y226060D01*
X492760Y226060D02*
X493778Y225042D01*
X695960Y226060D02*
X696978Y225042D01*
X899160Y226060D02*
X900178Y225042D01*
X1102360Y226060D02*
X1103378Y225042D01*
X1305560Y226060D02*
X1306578Y225042D01*
D31*
X71120Y181610D03*
D30*
X86995Y197485D01*
X86995Y225425D01*
D31*
X269240Y167640D03*
D30*
X289560Y187960D01*
D31*
X472440Y167612D03*
D30*
X493778Y188950D01*
D31*
X675640Y167612D03*
D30*
X696978Y188950D01*
D31*
X878840Y167612D03*
D30*
X900178Y188950D01*
D31*
X1082040Y167612D03*
X1285240Y167612D03*
D30*
X1306578Y188950D01*
X1103378Y188978D02*
X1082040Y167640D01*
X1082040Y167612D01*
X1508506Y226314D02*
X1508760Y226060D01*
X1508506Y379484D02*
X1497640Y390350D01*
X1508506Y379484D02*
X1508506Y226314D01*
X25400Y899782D02*
X12700Y887082D01*
X25400Y899782D02*
X25400Y914400D01*
X51826Y940826D01*
X210563Y940826D01*
X833889Y812800D02*
X857250Y812800D01*
X290837Y860552D02*
X210563Y940826D01*
X786137Y860552D02*
X833889Y812800D01*
X786137Y860552D02*
X290837Y860552D01*
X50800Y899782D02*
X38100Y887082D01*
X50800Y899782D02*
X50800Y914400D01*
X74178Y937778D01*
X209301Y937778D01*
X832627Y809752D02*
X834898Y809752D01*
X857250Y787400D01*
X289575Y857504D02*
X209301Y937778D01*
X784875Y857504D02*
X832627Y809752D01*
X784875Y857504D02*
X289575Y857504D01*
X79074Y902656D02*
X79074Y916552D01*
X79074Y902656D02*
X63500Y887082D01*
X79074Y916552D02*
X97252Y934730D01*
X208038Y934730D01*
X829056Y790194D02*
X857250Y762000D01*
X829056Y790194D02*
X829056Y809012D01*
X288312Y854456D02*
X208038Y934730D01*
X783612Y854456D02*
X829056Y809012D01*
X783612Y854456D02*
X288312Y854456D01*
X101600Y899782D02*
X88900Y887082D01*
X101600Y899782D02*
X101600Y913621D01*
X119661Y931682D01*
X206776Y931682D01*
X826008Y767842D02*
X857250Y736600D01*
X826008Y767842D02*
X826008Y807750D01*
X287050Y851408D02*
X206776Y931682D01*
X782350Y851408D02*
X826008Y807750D01*
X782350Y851408D02*
X287050Y851408D01*
X127000Y899782D02*
X114300Y887082D01*
X844550Y660400D02*
X857250Y660400D01*
X844550Y660400D02*
X822960Y681990D01*
X142013Y928634D02*
X127000Y913621D01*
X127000Y899782D01*
X142013Y928634D02*
X205513Y928634D01*
X822960Y806487D02*
X822960Y681990D01*
X285787Y848360D02*
X205513Y928634D01*
X781087Y848360D02*
X822960Y806487D01*
X781087Y848360D02*
X285787Y848360D01*
X139700Y887082D02*
X139700Y895350D01*
X152400Y908050D01*
X844550Y635000D02*
X857250Y635000D01*
X844550Y635000D02*
X819912Y659638D01*
X152400Y908050D02*
X152400Y913621D01*
X164365Y925586D01*
X204251Y925586D01*
X819912Y805225D02*
X819912Y659638D01*
X284525Y845312D02*
X204251Y925586D01*
X779825Y845312D02*
X819912Y805225D01*
X779825Y845312D02*
X284525Y845312D01*
X12700Y772202D02*
X12700Y736600D01*
X46736Y702564D01*
X228152Y702564D01*
X248666Y682050D01*
X248666Y509345D01*
X277589Y480422D01*
X336878Y480422D01*
X412750Y404550D01*
X38100Y736600D02*
X38100Y772202D01*
X38100Y736600D02*
X69088Y705612D01*
X229414Y705612D01*
X251714Y683312D01*
X251714Y510608D01*
X410900Y419100D02*
X425450Y404550D01*
X278852Y483470D02*
X251714Y510608D01*
X338141Y483470D02*
X402511Y419100D01*
X410900Y419100D01*
X338141Y483470D02*
X278852Y483470D01*
X63500Y736600D02*
X63500Y772202D01*
X63500Y736600D02*
X91440Y708660D01*
X230677Y708660D01*
X254762Y684575D01*
X420552Y422148D02*
X438150Y404550D01*
X254762Y511870D02*
X254762Y684575D01*
X254762Y511870D02*
X280114Y486518D01*
X339403Y486518D02*
X403773Y422148D01*
X420552Y422148D01*
X339403Y486518D02*
X280114Y486518D01*
X88900Y736600D02*
X88900Y772202D01*
X88900Y736600D02*
X113792Y711708D01*
X231939Y711708D01*
X430204Y425196D02*
X450850Y404550D01*
X257810Y685837D02*
X231939Y711708D01*
X257810Y685837D02*
X257810Y513133D01*
X281377Y489566D01*
X340666Y489566D02*
X405036Y425196D01*
X430204Y425196D01*
X340666Y489566D02*
X281377Y489566D01*
X114300Y736600D02*
X114300Y772202D01*
X114300Y736600D02*
X136144Y714756D01*
X233202Y714756D01*
X439856Y428244D02*
X463550Y404550D01*
X260858Y687100D02*
X233202Y714756D01*
X260858Y687100D02*
X260858Y514395D01*
X282639Y492614D01*
X341928Y492614D02*
X406298Y428244D01*
X439856Y428244D01*
X341928Y492614D02*
X282639Y492614D01*
X139700Y734102D02*
X139700Y772202D01*
X139700Y734102D02*
X155998Y717804D01*
X234464Y717804D01*
X449508Y431292D02*
X476250Y404550D01*
X263906Y688362D02*
X234464Y717804D01*
X263906Y688362D02*
X263906Y515658D01*
X283902Y495662D01*
X343191Y495662D02*
X407561Y431292D01*
X449508Y431292D01*
X343191Y495662D02*
X283902Y495662D01*
X165100Y736600D02*
X165100Y772202D01*
X165100Y736600D02*
X180848Y720852D01*
X235727Y720852D01*
X459160Y434340D02*
X488950Y404550D01*
X266954Y689625D02*
X235727Y720852D01*
X266954Y689625D02*
X266954Y516920D01*
X285164Y498710D01*
X344453Y498710D02*
X408823Y434340D01*
X459160Y434340D01*
X344453Y498710D02*
X285164Y498710D01*
X190500Y736600D02*
X190500Y772202D01*
X190500Y736600D02*
X203200Y723900D01*
X236989Y723900D01*
D31*
X330200Y520700D03*
X406400Y520700D03*
D30*
X412750Y514350D01*
X412750Y506150D01*
X270002Y690887D02*
X236989Y723900D01*
X270002Y690887D02*
X270002Y551187D01*
X300489Y520700D01*
X330200Y520700D01*
X241300Y810882D02*
X165100Y887082D01*
X241300Y810882D02*
X241300Y723900D01*
X273050Y692150D01*
D31*
X330200Y533400D03*
X406400Y533400D03*
D30*
X425450Y514350D01*
X425450Y506150D01*
X273050Y552450D02*
X273050Y692150D01*
X292100Y533400D02*
X330200Y533400D01*
X292100Y533400D02*
X273050Y552450D01*
X1228090Y596900D02*
X1238250Y596900D01*
X887934Y413584D02*
X869950Y395600D01*
X887934Y413584D02*
X1099384Y413584D01*
X1210818Y525018D01*
X1210818Y579628D01*
X1228090Y596900D01*
X1231900Y571500D02*
X1274250Y571500D01*
X999186Y410536D02*
X984250Y395600D01*
X999186Y410536D02*
X1100647Y410536D01*
X1213866Y553466D02*
X1231900Y571500D01*
X1213866Y523755D02*
X1100647Y410536D01*
X1213866Y523755D02*
X1213866Y553466D01*
D31*
X726440Y533400D03*
X495300Y533400D03*
D30*
X444500Y533400D01*
X438150Y527050D01*
X438150Y506150D01*
X726440Y533400D02*
X806635Y533400D01*
X1079500Y514350D02*
X1098550Y533400D01*
X1079500Y514350D02*
X825685Y514350D01*
X806635Y533400D01*
X609600Y558038D02*
X609600Y558800D01*
X622300Y571500D01*
D31*
X622300Y571500D03*
D30*
X596900Y571500D02*
X596900Y558038D01*
X596900Y571500D02*
X609600Y584200D01*
X622300Y584200D01*
D31*
X622300Y584200D03*
D30*
X558800Y430715D02*
X558800Y407162D01*
X558800Y430715D02*
X554413Y435102D01*
X533400Y486841D02*
X533400Y508762D01*
X533400Y486841D02*
X517652Y471093D01*
X517652Y444323D02*
X526873Y435102D01*
X517652Y444323D02*
X517652Y471093D01*
X526873Y435102D02*
X554413Y435102D01*
X546100Y493550D02*
X546100Y508762D01*
D31*
X546100Y493550D03*
X571500Y471734D03*
D30*
X571500Y456438D01*
X609600Y456438D02*
X609600Y472440D01*
D31*
X609600Y472440D03*
X571500Y493522D03*
D30*
X571500Y508762D01*
X596900Y410395D02*
X596900Y407162D01*
X596900Y410395D02*
X575241Y432054D01*
X584200Y495556D02*
X584200Y508762D01*
X584200Y495556D02*
X572797Y484152D01*
X535021Y484152D01*
X520700Y469831D01*
X520700Y445585D01*
X528135Y438150D01*
X555675Y438150D01*
X561771Y432054D02*
X575241Y432054D01*
X561771Y432054D02*
X555675Y438150D01*
X558800Y508762D02*
X558800Y533400D01*
X546100Y546100D01*
X546100Y558038D01*
X558800Y558038D02*
X558800Y550095D01*
X596900Y511995D02*
X596900Y508762D01*
X596900Y511995D02*
X558800Y550095D01*
X450850Y459050D02*
X435218Y474682D01*
X584200Y622300D02*
X635000Y673100D01*
X381000Y622300D02*
X355600Y596900D01*
X381000Y622300D02*
X584200Y622300D01*
X435218Y474682D02*
X410050Y474682D01*
X355600Y529132D01*
X355600Y596900D01*
M02*
