G04 EAGLE Gerber RS-274X export*
G75*
%MOMM*%
%FSLAX34Y34*%
%LPD*%
%INBottom Copper*%
%IPPOS*%
%AMOC8*
5,1,8,0,0,1.08239X$1,22.5*%
G01*
G04 Define Apertures*
%ADD10C,1.310000*%
%ADD11C,1.100000*%
%ADD12R,1.500000X1.500000*%
%ADD13C,1.500000*%
%ADD14R,1.150000X1.150000*%
%ADD15C,1.150000*%
%ADD16C,2.400000*%
%ADD17C,1.260000*%
%ADD18C,1.360000*%
%ADD19R,1.650000X1.650000*%
%ADD20C,1.650000*%
%ADD21C,1.524000*%
%ADD22R,1.524000X1.524000*%
%ADD23C,2.540000*%
%ADD24C,1.060000*%
%ADD25C,0.756400*%
%ADD26C,0.152400*%
G36*
X1576675Y157540D02*
X1576378Y157480D01*
X-52578Y157480D01*
X-52853Y157531D01*
X-53108Y157695D01*
X-53280Y157945D01*
X-53340Y158242D01*
X-53340Y970028D01*
X-53289Y970303D01*
X-53125Y970558D01*
X-52875Y970730D01*
X-52578Y970790D01*
X1576378Y970790D01*
X1576653Y970739D01*
X1576908Y970575D01*
X1577080Y970325D01*
X1577140Y970028D01*
X1577140Y440865D01*
X1577093Y440601D01*
X1576934Y440343D01*
X1576686Y440168D01*
X1576390Y440103D01*
X1576092Y440158D01*
X1575839Y440326D01*
X1575744Y440421D01*
X1569253Y443110D01*
X1562227Y443110D01*
X1555736Y440421D01*
X1550769Y435454D01*
X1548080Y428963D01*
X1548080Y421937D01*
X1550769Y415446D01*
X1555736Y410479D01*
X1562227Y407790D01*
X1569253Y407790D01*
X1575744Y410479D01*
X1575839Y410574D01*
X1576059Y410727D01*
X1576354Y410797D01*
X1576653Y410746D01*
X1576908Y410583D01*
X1577080Y410333D01*
X1577140Y410035D01*
X1577140Y158242D01*
X1577089Y157967D01*
X1576925Y157712D01*
X1576675Y157540D01*
G37*
%LPC*%
G36*
X1473860Y959612D02*
X1491938Y959612D01*
X1491938Y966690D01*
X1480141Y966690D01*
X1477259Y965496D01*
X1475054Y963291D01*
X1473860Y960409D01*
X1473860Y959612D01*
G37*
G36*
X1493462Y959612D02*
X1511540Y959612D01*
X1511540Y960409D01*
X1510346Y963291D01*
X1508141Y965496D01*
X1505259Y966690D01*
X1493462Y966690D01*
X1493462Y959612D01*
G37*
G36*
X325571Y891940D02*
X334829Y891940D01*
X343771Y894336D01*
X351789Y898965D01*
X358335Y905511D01*
X362964Y913529D01*
X365360Y922471D01*
X365360Y931729D01*
X362964Y940671D01*
X358335Y948689D01*
X351789Y955235D01*
X343771Y959864D01*
X334829Y962260D01*
X325571Y962260D01*
X316629Y959864D01*
X308611Y955235D01*
X302065Y948689D01*
X297436Y940671D01*
X295040Y931729D01*
X295040Y922471D01*
X297436Y913529D01*
X302065Y905511D01*
X308611Y898965D01*
X316629Y894336D01*
X325571Y891940D01*
G37*
G36*
X1214571Y891940D02*
X1223829Y891940D01*
X1232771Y894336D01*
X1240789Y898965D01*
X1247335Y905511D01*
X1251964Y913529D01*
X1254360Y922471D01*
X1254360Y931729D01*
X1251964Y940671D01*
X1247335Y948689D01*
X1240789Y955235D01*
X1232771Y959864D01*
X1223829Y962260D01*
X1214571Y962260D01*
X1205629Y959864D01*
X1197611Y955235D01*
X1191065Y948689D01*
X1186436Y940671D01*
X1184040Y931729D01*
X1184040Y922471D01*
X1186436Y913529D01*
X1191065Y905511D01*
X1197611Y898965D01*
X1205629Y894336D01*
X1214571Y891940D01*
G37*
G36*
X770071Y891940D02*
X779329Y891940D01*
X788271Y894336D01*
X796289Y898965D01*
X802835Y905511D01*
X807464Y913529D01*
X809860Y922471D01*
X809860Y931729D01*
X807464Y940671D01*
X802835Y948689D01*
X796289Y955235D01*
X788271Y959864D01*
X779329Y962260D01*
X770071Y962260D01*
X761129Y959864D01*
X753111Y955235D01*
X746565Y948689D01*
X741936Y940671D01*
X739540Y931729D01*
X739540Y922471D01*
X741936Y913529D01*
X746565Y905511D01*
X753111Y898965D01*
X761129Y894336D01*
X770071Y891940D01*
G37*
G36*
X1493462Y951010D02*
X1505259Y951010D01*
X1508141Y952204D01*
X1510346Y954409D01*
X1511540Y957291D01*
X1511540Y958088D01*
X1493462Y958088D01*
X1493462Y951010D01*
G37*
G36*
X1480141Y951010D02*
X1491938Y951010D01*
X1491938Y958088D01*
X1473860Y958088D01*
X1473860Y957291D01*
X1475054Y954409D01*
X1477259Y952204D01*
X1480141Y951010D01*
G37*
G36*
X1517360Y913612D02*
X1524438Y913612D01*
X1524438Y931690D01*
X1523641Y931690D01*
X1520759Y930496D01*
X1518554Y928291D01*
X1517360Y925409D01*
X1517360Y913612D01*
G37*
G36*
X1525962Y913612D02*
X1533040Y913612D01*
X1533040Y925409D01*
X1531846Y928291D01*
X1529641Y930496D01*
X1526759Y931690D01*
X1525962Y931690D01*
X1525962Y913612D01*
G37*
G36*
X1462843Y895026D02*
X1465557Y895026D01*
X1468066Y896065D01*
X1469985Y897985D01*
X1471024Y900493D01*
X1471024Y925207D01*
X1469985Y927716D01*
X1468066Y929635D01*
X1465557Y930674D01*
X1462843Y930674D01*
X1460335Y929635D01*
X1458415Y927716D01*
X1457376Y925207D01*
X1457376Y900493D01*
X1458415Y897985D01*
X1460335Y896065D01*
X1462843Y895026D01*
G37*
G36*
X155060Y913244D02*
X164338Y913244D01*
X164338Y922522D01*
X163103Y922522D01*
X159413Y920993D01*
X156589Y918169D01*
X155060Y914479D01*
X155060Y913244D01*
G37*
G36*
X129660Y913244D02*
X138938Y913244D01*
X138938Y922522D01*
X137703Y922522D01*
X134013Y920993D01*
X131189Y918169D01*
X129660Y914479D01*
X129660Y913244D01*
G37*
G36*
X104260Y913244D02*
X113538Y913244D01*
X113538Y922522D01*
X112303Y922522D01*
X108613Y920993D01*
X105789Y918169D01*
X104260Y914479D01*
X104260Y913244D01*
G37*
G36*
X78860Y913244D02*
X88138Y913244D01*
X88138Y922522D01*
X86903Y922522D01*
X83213Y920993D01*
X80389Y918169D01*
X78860Y914479D01*
X78860Y913244D01*
G37*
G36*
X180460Y913244D02*
X189738Y913244D01*
X189738Y922522D01*
X188503Y922522D01*
X184813Y920993D01*
X181989Y918169D01*
X180460Y914479D01*
X180460Y913244D01*
G37*
G36*
X2660Y913244D02*
X11938Y913244D01*
X11938Y922522D01*
X10703Y922522D01*
X7013Y920993D01*
X4189Y918169D01*
X2660Y914479D01*
X2660Y913244D01*
G37*
G36*
X28060Y913244D02*
X37338Y913244D01*
X37338Y922522D01*
X36103Y922522D01*
X32413Y920993D01*
X29589Y918169D01*
X28060Y914479D01*
X28060Y913244D01*
G37*
G36*
X53460Y913244D02*
X62738Y913244D01*
X62738Y922522D01*
X61503Y922522D01*
X57813Y920993D01*
X54989Y918169D01*
X53460Y914479D01*
X53460Y913244D01*
G37*
G36*
X64262Y913244D02*
X73540Y913244D01*
X73540Y914479D01*
X72012Y918169D01*
X69187Y920993D01*
X65497Y922522D01*
X64262Y922522D01*
X64262Y913244D01*
G37*
G36*
X38862Y913244D02*
X48140Y913244D01*
X48140Y914479D01*
X46612Y918169D01*
X43787Y920993D01*
X40097Y922522D01*
X38862Y922522D01*
X38862Y913244D01*
G37*
G36*
X13462Y913244D02*
X22740Y913244D01*
X22740Y914479D01*
X21212Y918169D01*
X18387Y920993D01*
X14697Y922522D01*
X13462Y922522D01*
X13462Y913244D01*
G37*
G36*
X191262Y913244D02*
X200540Y913244D01*
X200540Y914479D01*
X199012Y918169D01*
X196187Y920993D01*
X192497Y922522D01*
X191262Y922522D01*
X191262Y913244D01*
G37*
G36*
X89662Y913244D02*
X98940Y913244D01*
X98940Y914479D01*
X97412Y918169D01*
X94587Y920993D01*
X90897Y922522D01*
X89662Y922522D01*
X89662Y913244D01*
G37*
G36*
X115062Y913244D02*
X124340Y913244D01*
X124340Y914479D01*
X122812Y918169D01*
X119987Y920993D01*
X116297Y922522D01*
X115062Y922522D01*
X115062Y913244D01*
G37*
G36*
X140462Y913244D02*
X149740Y913244D01*
X149740Y914479D01*
X148212Y918169D01*
X145387Y920993D01*
X141697Y922522D01*
X140462Y922522D01*
X140462Y913244D01*
G37*
G36*
X165862Y913244D02*
X175140Y913244D01*
X175140Y914479D01*
X173612Y918169D01*
X170787Y920993D01*
X167097Y922522D01*
X165862Y922522D01*
X165862Y913244D01*
G37*
G36*
X1523641Y894010D02*
X1524438Y894010D01*
X1524438Y912088D01*
X1517360Y912088D01*
X1517360Y900291D01*
X1518554Y897409D01*
X1520759Y895204D01*
X1523641Y894010D01*
G37*
G36*
X1525962Y894010D02*
X1526759Y894010D01*
X1529641Y895204D01*
X1531846Y897409D01*
X1533040Y900291D01*
X1533040Y912088D01*
X1525962Y912088D01*
X1525962Y894010D01*
G37*
G36*
X188503Y902442D02*
X189738Y902442D01*
X189738Y911720D01*
X180460Y911720D01*
X180460Y910485D01*
X181989Y906794D01*
X184813Y903970D01*
X188503Y902442D01*
G37*
G36*
X38862Y902442D02*
X40097Y902442D01*
X43787Y903970D01*
X46612Y906794D01*
X48140Y910485D01*
X48140Y911720D01*
X38862Y911720D01*
X38862Y902442D01*
G37*
G36*
X191262Y902442D02*
X192497Y902442D01*
X196187Y903970D01*
X199012Y906794D01*
X200540Y910485D01*
X200540Y911720D01*
X191262Y911720D01*
X191262Y902442D01*
G37*
G36*
X10703Y902442D02*
X11938Y902442D01*
X11938Y911720D01*
X2660Y911720D01*
X2660Y910485D01*
X4189Y906794D01*
X7013Y903970D01*
X10703Y902442D01*
G37*
G36*
X165862Y902442D02*
X167097Y902442D01*
X170787Y903970D01*
X173612Y906794D01*
X175140Y910485D01*
X175140Y911720D01*
X165862Y911720D01*
X165862Y902442D01*
G37*
G36*
X163103Y902442D02*
X164338Y902442D01*
X164338Y911720D01*
X155060Y911720D01*
X155060Y910485D01*
X156589Y906794D01*
X159413Y903970D01*
X163103Y902442D01*
G37*
G36*
X140462Y902442D02*
X141697Y902442D01*
X145387Y903970D01*
X148212Y906794D01*
X149740Y910485D01*
X149740Y911720D01*
X140462Y911720D01*
X140462Y902442D01*
G37*
G36*
X137703Y902442D02*
X138938Y902442D01*
X138938Y911720D01*
X129660Y911720D01*
X129660Y910485D01*
X131189Y906794D01*
X134013Y903970D01*
X137703Y902442D01*
G37*
G36*
X115062Y902442D02*
X116297Y902442D01*
X119987Y903970D01*
X122812Y906794D01*
X124340Y910485D01*
X124340Y911720D01*
X115062Y911720D01*
X115062Y902442D01*
G37*
G36*
X112303Y902442D02*
X113538Y902442D01*
X113538Y911720D01*
X104260Y911720D01*
X104260Y910485D01*
X105789Y906794D01*
X108613Y903970D01*
X112303Y902442D01*
G37*
G36*
X89662Y902442D02*
X90897Y902442D01*
X94587Y903970D01*
X97412Y906794D01*
X98940Y910485D01*
X98940Y911720D01*
X89662Y911720D01*
X89662Y902442D01*
G37*
G36*
X86903Y902442D02*
X88138Y902442D01*
X88138Y911720D01*
X78860Y911720D01*
X78860Y910485D01*
X80389Y906794D01*
X83213Y903970D01*
X86903Y902442D01*
G37*
G36*
X64262Y902442D02*
X65497Y902442D01*
X69187Y903970D01*
X72012Y906794D01*
X73540Y910485D01*
X73540Y911720D01*
X64262Y911720D01*
X64262Y902442D01*
G37*
G36*
X61503Y902442D02*
X62738Y902442D01*
X62738Y911720D01*
X53460Y911720D01*
X53460Y910485D01*
X54989Y906794D01*
X57813Y903970D01*
X61503Y902442D01*
G37*
G36*
X13462Y902442D02*
X14697Y902442D01*
X18387Y903970D01*
X21212Y906794D01*
X22740Y910485D01*
X22740Y911720D01*
X13462Y911720D01*
X13462Y902442D01*
G37*
G36*
X36103Y902442D02*
X37338Y902442D01*
X37338Y911720D01*
X28060Y911720D01*
X28060Y910485D01*
X29589Y906794D01*
X32413Y903970D01*
X36103Y902442D01*
G37*
G36*
X188705Y878058D02*
X192295Y878058D01*
X195612Y879431D01*
X198150Y881970D01*
X199524Y885287D01*
X199524Y888877D01*
X198150Y892193D01*
X195612Y894732D01*
X192295Y896106D01*
X188705Y896106D01*
X185388Y894732D01*
X182850Y892193D01*
X181476Y888877D01*
X181476Y885287D01*
X182850Y881970D01*
X185388Y879431D01*
X188705Y878058D01*
G37*
G36*
X163305Y878058D02*
X166895Y878058D01*
X170212Y879431D01*
X172750Y881970D01*
X174124Y885287D01*
X174124Y888877D01*
X172750Y892193D01*
X170212Y894732D01*
X166895Y896106D01*
X163305Y896106D01*
X159988Y894732D01*
X157450Y892193D01*
X156076Y888877D01*
X156076Y885287D01*
X157450Y881970D01*
X159988Y879431D01*
X163305Y878058D01*
G37*
G36*
X137905Y878058D02*
X141495Y878058D01*
X144812Y879431D01*
X147350Y881970D01*
X148724Y885287D01*
X148724Y888877D01*
X147350Y892193D01*
X144812Y894732D01*
X141495Y896106D01*
X137905Y896106D01*
X134588Y894732D01*
X132050Y892193D01*
X130676Y888877D01*
X130676Y885287D01*
X132050Y881970D01*
X134588Y879431D01*
X137905Y878058D01*
G37*
G36*
X112505Y878058D02*
X116095Y878058D01*
X119412Y879431D01*
X121950Y881970D01*
X123324Y885287D01*
X123324Y888877D01*
X121950Y892193D01*
X119412Y894732D01*
X116095Y896106D01*
X112505Y896106D01*
X109188Y894732D01*
X106650Y892193D01*
X105276Y888877D01*
X105276Y885287D01*
X106650Y881970D01*
X109188Y879431D01*
X112505Y878058D01*
G37*
G36*
X87105Y878058D02*
X90695Y878058D01*
X94012Y879431D01*
X96550Y881970D01*
X97924Y885287D01*
X97924Y888877D01*
X96550Y892193D01*
X94012Y894732D01*
X90695Y896106D01*
X87105Y896106D01*
X83788Y894732D01*
X81250Y892193D01*
X79876Y888877D01*
X79876Y885287D01*
X81250Y881970D01*
X83788Y879431D01*
X87105Y878058D01*
G37*
G36*
X36305Y878058D02*
X39895Y878058D01*
X43212Y879431D01*
X45750Y881970D01*
X47124Y885287D01*
X47124Y888877D01*
X45750Y892193D01*
X43212Y894732D01*
X39895Y896106D01*
X36305Y896106D01*
X32988Y894732D01*
X30450Y892193D01*
X29076Y888877D01*
X29076Y885287D01*
X30450Y881970D01*
X32988Y879431D01*
X36305Y878058D01*
G37*
G36*
X4569Y878058D02*
X20831Y878058D01*
X21724Y878950D01*
X21724Y895213D01*
X20831Y896106D01*
X4569Y896106D01*
X3676Y895213D01*
X3676Y878950D01*
X4569Y878058D01*
G37*
G36*
X61705Y878058D02*
X65295Y878058D01*
X68612Y879431D01*
X71150Y881970D01*
X72524Y885287D01*
X72524Y888877D01*
X71150Y892193D01*
X68612Y894732D01*
X65295Y896106D01*
X61705Y896106D01*
X58388Y894732D01*
X55850Y892193D01*
X54476Y888877D01*
X54476Y885287D01*
X55850Y881970D01*
X58388Y879431D01*
X61705Y878058D01*
G37*
G36*
X1441419Y557876D02*
X1454181Y557876D01*
X1455074Y558769D01*
X1455074Y571531D01*
X1454181Y572424D01*
X1441419Y572424D01*
X1440526Y571531D01*
X1440526Y568198D01*
X1440475Y567923D01*
X1440311Y567668D01*
X1440061Y567496D01*
X1439764Y567436D01*
X1437633Y567436D01*
X1437347Y567492D01*
X1437094Y567659D01*
X1408399Y596354D01*
X1408236Y596595D01*
X1408176Y596893D01*
X1408176Y752602D01*
X1408227Y752877D01*
X1408391Y753132D01*
X1408641Y753304D01*
X1408938Y753364D01*
X1439764Y753364D01*
X1440039Y753313D01*
X1440294Y753149D01*
X1440466Y752899D01*
X1440526Y752602D01*
X1440526Y749269D01*
X1441419Y748376D01*
X1454181Y748376D01*
X1455074Y749269D01*
X1455074Y762031D01*
X1454181Y762924D01*
X1441419Y762924D01*
X1440526Y762031D01*
X1440526Y758698D01*
X1440475Y758423D01*
X1440311Y758168D01*
X1440061Y757996D01*
X1439764Y757936D01*
X1410963Y757936D01*
X1410677Y757992D01*
X1410424Y758159D01*
X1325049Y843534D01*
X823207Y843534D01*
X822943Y843581D01*
X822685Y843740D01*
X822510Y843988D01*
X822445Y844284D01*
X822500Y844582D01*
X822668Y844835D01*
X823204Y845371D01*
X823445Y845534D01*
X823743Y845594D01*
X827698Y845594D01*
X830806Y848702D01*
X830806Y853098D01*
X827698Y856206D01*
X823302Y856206D01*
X820194Y853098D01*
X820194Y849143D01*
X820138Y848857D01*
X819971Y848604D01*
X812076Y840709D01*
X811835Y840546D01*
X811537Y840486D01*
X710253Y840486D01*
X691355Y821588D01*
X691119Y821427D01*
X690822Y821364D01*
X690524Y821422D01*
X687744Y822574D01*
X683856Y822574D01*
X680263Y821086D01*
X677514Y818337D01*
X676362Y815556D01*
X676206Y815318D01*
X675956Y815146D01*
X675658Y815086D01*
X594342Y815086D01*
X594061Y815139D01*
X593807Y815305D01*
X593638Y815556D01*
X592486Y818337D01*
X589737Y821086D01*
X586144Y822574D01*
X582256Y822574D01*
X578663Y821086D01*
X575914Y818337D01*
X574762Y815556D01*
X574606Y815318D01*
X574356Y815146D01*
X574058Y815086D01*
X492742Y815086D01*
X492461Y815139D01*
X492207Y815305D01*
X492038Y815556D01*
X490886Y818337D01*
X488137Y821086D01*
X484544Y822574D01*
X480656Y822574D01*
X477063Y821086D01*
X474314Y818337D01*
X473162Y815556D01*
X473006Y815318D01*
X472756Y815146D01*
X472458Y815086D01*
X391142Y815086D01*
X390861Y815139D01*
X390607Y815305D01*
X390438Y815556D01*
X389286Y818337D01*
X386537Y821086D01*
X382944Y822574D01*
X379056Y822574D01*
X375463Y821086D01*
X372714Y818337D01*
X371226Y814744D01*
X371226Y810856D01*
X372714Y807263D01*
X375463Y804514D01*
X379056Y803026D01*
X382944Y803026D01*
X386537Y804514D01*
X389286Y807263D01*
X390438Y810044D01*
X390594Y810282D01*
X390844Y810454D01*
X391142Y810514D01*
X472458Y810514D01*
X472739Y810461D01*
X472993Y810295D01*
X473162Y810044D01*
X474314Y807263D01*
X477063Y804514D01*
X480656Y803026D01*
X484544Y803026D01*
X488137Y804514D01*
X490886Y807263D01*
X492038Y810044D01*
X492194Y810282D01*
X492444Y810454D01*
X492742Y810514D01*
X574058Y810514D01*
X574339Y810461D01*
X574593Y810295D01*
X574762Y810044D01*
X575914Y807263D01*
X578663Y804514D01*
X582256Y803026D01*
X586144Y803026D01*
X589737Y804514D01*
X592486Y807263D01*
X593638Y810044D01*
X593794Y810282D01*
X594044Y810454D01*
X594342Y810514D01*
X675658Y810514D01*
X675939Y810461D01*
X676193Y810295D01*
X676362Y810044D01*
X677514Y807263D01*
X680263Y804514D01*
X683856Y803026D01*
X687744Y803026D01*
X691337Y804514D01*
X694086Y807263D01*
X695574Y810856D01*
X695574Y814744D01*
X694422Y817524D01*
X694365Y817804D01*
X694420Y818102D01*
X694588Y818355D01*
X711924Y835691D01*
X712165Y835854D01*
X712463Y835914D01*
X754641Y835914D01*
X754905Y835867D01*
X755163Y835708D01*
X755338Y835460D01*
X755403Y835164D01*
X755348Y834866D01*
X755180Y834613D01*
X734314Y813747D01*
X734314Y721342D01*
X734261Y721061D01*
X734095Y720807D01*
X733844Y720638D01*
X731063Y719486D01*
X728314Y716737D01*
X727162Y713956D01*
X727006Y713718D01*
X726756Y713546D01*
X726458Y713486D01*
X645142Y713486D01*
X644861Y713539D01*
X644607Y713705D01*
X644438Y713956D01*
X643286Y716737D01*
X640537Y719486D01*
X636944Y720974D01*
X633056Y720974D01*
X629463Y719486D01*
X626714Y716737D01*
X625562Y713956D01*
X625406Y713718D01*
X625156Y713546D01*
X624858Y713486D01*
X543542Y713486D01*
X543261Y713539D01*
X543007Y713705D01*
X542838Y713956D01*
X541686Y716737D01*
X538937Y719486D01*
X535344Y720974D01*
X531456Y720974D01*
X527863Y719486D01*
X525114Y716737D01*
X523962Y713956D01*
X523806Y713718D01*
X523556Y713546D01*
X523258Y713486D01*
X441942Y713486D01*
X441661Y713539D01*
X441407Y713705D01*
X441238Y713956D01*
X440086Y716737D01*
X437337Y719486D01*
X433744Y720974D01*
X429856Y720974D01*
X426263Y719486D01*
X423514Y716737D01*
X422362Y713956D01*
X422206Y713718D01*
X421956Y713546D01*
X421658Y713486D01*
X340342Y713486D01*
X340061Y713539D01*
X339807Y713705D01*
X339638Y713956D01*
X338486Y716737D01*
X335737Y719486D01*
X332144Y720974D01*
X328256Y720974D01*
X324663Y719486D01*
X321914Y716737D01*
X320426Y713144D01*
X320426Y709256D01*
X321914Y705663D01*
X324663Y702914D01*
X328256Y701426D01*
X332144Y701426D01*
X335737Y702914D01*
X338486Y705663D01*
X339638Y708444D01*
X339794Y708682D01*
X340044Y708854D01*
X340342Y708914D01*
X421658Y708914D01*
X421939Y708861D01*
X422193Y708695D01*
X422362Y708444D01*
X423514Y705663D01*
X426263Y702914D01*
X429856Y701426D01*
X433744Y701426D01*
X437337Y702914D01*
X440086Y705663D01*
X441238Y708444D01*
X441394Y708682D01*
X441644Y708854D01*
X441942Y708914D01*
X523258Y708914D01*
X523539Y708861D01*
X523793Y708695D01*
X523962Y708444D01*
X525114Y705663D01*
X527863Y702914D01*
X531456Y701426D01*
X535344Y701426D01*
X538937Y702914D01*
X541686Y705663D01*
X542838Y708444D01*
X542994Y708682D01*
X543244Y708854D01*
X543542Y708914D01*
X624858Y708914D01*
X625139Y708861D01*
X625393Y708695D01*
X625562Y708444D01*
X626714Y705663D01*
X629463Y702914D01*
X633056Y701426D01*
X636944Y701426D01*
X640537Y702914D01*
X643286Y705663D01*
X644438Y708444D01*
X644594Y708682D01*
X644844Y708854D01*
X645142Y708914D01*
X726458Y708914D01*
X726739Y708861D01*
X726993Y708695D01*
X727162Y708444D01*
X728314Y705663D01*
X731063Y702914D01*
X734656Y701426D01*
X738544Y701426D01*
X742137Y702914D01*
X744886Y705663D01*
X746374Y709256D01*
X746374Y713144D01*
X744886Y716737D01*
X742137Y719486D01*
X739356Y720638D01*
X739118Y720794D01*
X738946Y721044D01*
X738886Y721342D01*
X738886Y811537D01*
X738942Y811823D01*
X739109Y812076D01*
X762724Y835691D01*
X762965Y835854D01*
X763263Y835914D01*
X805441Y835914D01*
X805705Y835867D01*
X805963Y835708D01*
X806138Y835460D01*
X806203Y835164D01*
X806148Y834866D01*
X805980Y834613D01*
X782950Y811583D01*
X782950Y655420D01*
X782894Y655134D01*
X782727Y654881D01*
X727255Y599409D01*
X727014Y599246D01*
X726716Y599186D01*
X627833Y599186D01*
X627547Y599242D01*
X627295Y599409D01*
X624498Y602206D01*
X620102Y602206D01*
X616994Y599098D01*
X616994Y594702D01*
X620102Y591594D01*
X624498Y591594D01*
X627295Y594391D01*
X627536Y594554D01*
X627833Y594614D01*
X724931Y594614D01*
X725194Y594567D01*
X725452Y594408D01*
X725628Y594160D01*
X725693Y593864D01*
X725637Y593566D01*
X725470Y593313D01*
X718866Y586709D01*
X718624Y586546D01*
X718327Y586486D01*
X627833Y586486D01*
X627547Y586542D01*
X627295Y586709D01*
X624498Y589506D01*
X620102Y589506D01*
X616994Y586398D01*
X616994Y582002D01*
X620102Y578894D01*
X624498Y578894D01*
X627295Y581691D01*
X627536Y581854D01*
X627833Y581914D01*
X716541Y581914D01*
X716805Y581867D01*
X717063Y581708D01*
X717238Y581460D01*
X717303Y581164D01*
X717248Y580866D01*
X717080Y580613D01*
X710476Y574009D01*
X710235Y573846D01*
X709937Y573786D01*
X627833Y573786D01*
X627547Y573842D01*
X627295Y574009D01*
X624498Y576806D01*
X620102Y576806D01*
X616994Y573698D01*
X616994Y569302D01*
X620102Y566194D01*
X624498Y566194D01*
X627295Y568991D01*
X627536Y569154D01*
X627833Y569214D01*
X712147Y569214D01*
X793618Y650685D01*
X793618Y806419D01*
X793674Y806705D01*
X793841Y806958D01*
X821224Y834340D01*
X821466Y834503D01*
X821763Y834564D01*
X1320888Y834564D01*
X1321174Y834508D01*
X1321427Y834340D01*
X1403381Y752386D01*
X1403544Y752145D01*
X1403604Y751847D01*
X1403604Y594683D01*
X1435423Y562864D01*
X1439764Y562864D01*
X1440039Y562813D01*
X1440294Y562649D01*
X1440466Y562399D01*
X1440526Y562102D01*
X1440526Y558769D01*
X1441419Y557876D01*
G37*
G36*
X1499362Y807212D02*
X1513140Y807212D01*
X1513140Y809342D01*
X1510926Y814686D01*
X1506836Y818776D01*
X1501492Y820990D01*
X1499362Y820990D01*
X1499362Y807212D01*
G37*
G36*
X1484060Y807212D02*
X1497838Y807212D01*
X1497838Y820990D01*
X1495708Y820990D01*
X1490364Y818776D01*
X1486274Y814686D01*
X1484060Y809342D01*
X1484060Y807212D01*
G37*
G36*
X849094Y804726D02*
X865406Y804726D01*
X868374Y805955D01*
X870645Y808226D01*
X871874Y811194D01*
X871874Y814406D01*
X870645Y817374D01*
X868374Y819645D01*
X865406Y820874D01*
X849094Y820874D01*
X846126Y819645D01*
X843855Y817374D01*
X842626Y814406D01*
X842626Y811194D01*
X843855Y808226D01*
X846126Y805955D01*
X849094Y804726D01*
G37*
G36*
X976094Y804726D02*
X992406Y804726D01*
X995374Y805955D01*
X997645Y808226D01*
X998874Y811194D01*
X998874Y814406D01*
X997645Y817374D01*
X995374Y819645D01*
X992406Y820874D01*
X976094Y820874D01*
X973126Y819645D01*
X970855Y817374D01*
X969626Y814406D01*
X969626Y811194D01*
X970855Y808226D01*
X973126Y805955D01*
X976094Y804726D01*
G37*
G36*
X165862Y798364D02*
X175140Y798364D01*
X175140Y799599D01*
X173612Y803289D01*
X170787Y806113D01*
X167097Y807642D01*
X165862Y807642D01*
X165862Y798364D01*
G37*
G36*
X155060Y798364D02*
X164338Y798364D01*
X164338Y807642D01*
X163103Y807642D01*
X159413Y806113D01*
X156589Y803289D01*
X155060Y799599D01*
X155060Y798364D01*
G37*
G36*
X129660Y798364D02*
X138938Y798364D01*
X138938Y807642D01*
X137703Y807642D01*
X134013Y806113D01*
X131189Y803289D01*
X129660Y799599D01*
X129660Y798364D01*
G37*
G36*
X104260Y798364D02*
X113538Y798364D01*
X113538Y807642D01*
X112303Y807642D01*
X108613Y806113D01*
X105789Y803289D01*
X104260Y799599D01*
X104260Y798364D01*
G37*
G36*
X115062Y798364D02*
X124340Y798364D01*
X124340Y799599D01*
X122812Y803289D01*
X119987Y806113D01*
X116297Y807642D01*
X115062Y807642D01*
X115062Y798364D01*
G37*
G36*
X78860Y798364D02*
X88138Y798364D01*
X88138Y807642D01*
X86903Y807642D01*
X83213Y806113D01*
X80389Y803289D01*
X78860Y799599D01*
X78860Y798364D01*
G37*
G36*
X89662Y798364D02*
X98940Y798364D01*
X98940Y799599D01*
X97412Y803289D01*
X94587Y806113D01*
X90897Y807642D01*
X89662Y807642D01*
X89662Y798364D01*
G37*
G36*
X64262Y798364D02*
X73540Y798364D01*
X73540Y799599D01*
X72012Y803289D01*
X69187Y806113D01*
X65497Y807642D01*
X64262Y807642D01*
X64262Y798364D01*
G37*
G36*
X38862Y798364D02*
X48140Y798364D01*
X48140Y799599D01*
X46612Y803289D01*
X43787Y806113D01*
X40097Y807642D01*
X38862Y807642D01*
X38862Y798364D01*
G37*
G36*
X191262Y798364D02*
X200540Y798364D01*
X200540Y799599D01*
X199012Y803289D01*
X196187Y806113D01*
X192497Y807642D01*
X191262Y807642D01*
X191262Y798364D01*
G37*
G36*
X13462Y798364D02*
X22740Y798364D01*
X22740Y799599D01*
X21212Y803289D01*
X18387Y806113D01*
X14697Y807642D01*
X13462Y807642D01*
X13462Y798364D01*
G37*
G36*
X53460Y798364D02*
X62738Y798364D01*
X62738Y807642D01*
X61503Y807642D01*
X57813Y806113D01*
X54989Y803289D01*
X53460Y799599D01*
X53460Y798364D01*
G37*
G36*
X28060Y798364D02*
X37338Y798364D01*
X37338Y807642D01*
X36103Y807642D01*
X32413Y806113D01*
X29589Y803289D01*
X28060Y799599D01*
X28060Y798364D01*
G37*
G36*
X180460Y798364D02*
X189738Y798364D01*
X189738Y807642D01*
X188503Y807642D01*
X184813Y806113D01*
X181989Y803289D01*
X180460Y799599D01*
X180460Y798364D01*
G37*
G36*
X140462Y798364D02*
X149740Y798364D01*
X149740Y799599D01*
X148212Y803289D01*
X145387Y806113D01*
X141697Y807642D01*
X140462Y807642D01*
X140462Y798364D01*
G37*
G36*
X2660Y798364D02*
X11938Y798364D01*
X11938Y807642D01*
X10703Y807642D01*
X7013Y806113D01*
X4189Y803289D01*
X2660Y799599D01*
X2660Y798364D01*
G37*
G36*
X1499362Y791910D02*
X1501492Y791910D01*
X1506836Y794124D01*
X1510926Y798214D01*
X1513140Y803558D01*
X1513140Y805688D01*
X1499362Y805688D01*
X1499362Y791910D01*
G37*
G36*
X1495708Y791910D02*
X1497838Y791910D01*
X1497838Y805688D01*
X1484060Y805688D01*
X1484060Y803558D01*
X1486274Y798214D01*
X1490364Y794124D01*
X1495708Y791910D01*
G37*
G36*
X531202Y417604D02*
X535598Y417604D01*
X538706Y420712D01*
X538706Y424667D01*
X538762Y424953D01*
X538929Y425206D01*
X539493Y425770D01*
X539713Y425923D01*
X540008Y425993D01*
X540307Y425942D01*
X540562Y425779D01*
X540734Y425529D01*
X540794Y425231D01*
X540794Y420712D01*
X543902Y417604D01*
X548298Y417604D01*
X551406Y420712D01*
X551406Y425108D01*
X551372Y425142D01*
X551214Y425372D01*
X551149Y425668D01*
X551205Y425966D01*
X551372Y426219D01*
X559524Y434371D01*
X559765Y434534D01*
X560063Y434594D01*
X647377Y434594D01*
X813524Y600741D01*
X813765Y600904D01*
X814063Y600964D01*
X1168577Y600964D01*
X1191006Y623393D01*
X1191006Y758967D01*
X1191062Y759253D01*
X1191229Y759506D01*
X1201536Y769813D01*
X1201767Y769971D01*
X1202063Y770036D01*
X1202361Y769980D01*
X1202614Y769813D01*
X1203032Y769394D01*
X1207428Y769394D01*
X1210536Y772502D01*
X1210536Y776898D01*
X1207428Y780006D01*
X1203032Y780006D01*
X1199924Y776898D01*
X1199924Y774982D01*
X1199868Y774696D01*
X1199701Y774443D01*
X1189259Y764001D01*
X1189039Y763848D01*
X1188744Y763778D01*
X1188445Y763829D01*
X1188190Y763993D01*
X1188018Y764243D01*
X1187958Y764540D01*
X1187958Y781819D01*
X1188014Y782105D01*
X1188181Y782358D01*
X1200394Y794571D01*
X1200635Y794734D01*
X1200933Y794794D01*
X1204888Y794794D01*
X1207996Y797902D01*
X1207996Y802298D01*
X1204888Y805406D01*
X1200492Y805406D01*
X1197384Y802298D01*
X1197384Y798343D01*
X1197328Y798057D01*
X1197161Y797804D01*
X1183386Y784029D01*
X1183386Y626865D01*
X1183330Y626579D01*
X1183163Y626326D01*
X1165644Y608807D01*
X1165403Y608644D01*
X1165105Y608584D01*
X810591Y608584D01*
X733047Y531040D01*
X732827Y530887D01*
X732532Y530817D01*
X732233Y530868D01*
X731978Y531032D01*
X731806Y531282D01*
X731746Y531579D01*
X731746Y535598D01*
X728638Y538706D01*
X724242Y538706D01*
X721445Y535909D01*
X721204Y535746D01*
X720907Y535686D01*
X500833Y535686D01*
X500547Y535742D01*
X500295Y535909D01*
X497498Y538706D01*
X493102Y538706D01*
X489994Y535598D01*
X489994Y531202D01*
X493102Y528094D01*
X497498Y528094D01*
X500295Y530891D01*
X500536Y531054D01*
X500833Y531114D01*
X720907Y531114D01*
X721193Y531058D01*
X721445Y530891D01*
X724242Y528094D01*
X728261Y528094D01*
X728524Y528047D01*
X728782Y527888D01*
X728958Y527640D01*
X729023Y527344D01*
X728967Y527046D01*
X728800Y526793D01*
X646476Y444469D01*
X646234Y444306D01*
X645937Y444246D01*
X551503Y444246D01*
X535696Y428439D01*
X535455Y428276D01*
X535157Y428216D01*
X531202Y428216D01*
X528094Y425108D01*
X528094Y420712D01*
X531202Y417604D01*
G37*
G36*
X89662Y787562D02*
X90897Y787562D01*
X94587Y789090D01*
X97412Y791914D01*
X98940Y795604D01*
X98940Y796840D01*
X89662Y796840D01*
X89662Y787562D01*
G37*
G36*
X140462Y787562D02*
X141697Y787562D01*
X145387Y789090D01*
X148212Y791914D01*
X149740Y795604D01*
X149740Y796840D01*
X140462Y796840D01*
X140462Y787562D01*
G37*
G36*
X10703Y787562D02*
X11938Y787562D01*
X11938Y796840D01*
X2660Y796840D01*
X2660Y795604D01*
X4189Y791914D01*
X7013Y789090D01*
X10703Y787562D01*
G37*
G36*
X13462Y787562D02*
X14697Y787562D01*
X18387Y789090D01*
X21212Y791914D01*
X22740Y795604D01*
X22740Y796840D01*
X13462Y796840D01*
X13462Y787562D01*
G37*
G36*
X36103Y787562D02*
X37338Y787562D01*
X37338Y796840D01*
X28060Y796840D01*
X28060Y795604D01*
X29589Y791914D01*
X32413Y789090D01*
X36103Y787562D01*
G37*
G36*
X38862Y787562D02*
X40097Y787562D01*
X43787Y789090D01*
X46612Y791914D01*
X48140Y795604D01*
X48140Y796840D01*
X38862Y796840D01*
X38862Y787562D01*
G37*
G36*
X61503Y787562D02*
X62738Y787562D01*
X62738Y796840D01*
X53460Y796840D01*
X53460Y795604D01*
X54989Y791914D01*
X57813Y789090D01*
X61503Y787562D01*
G37*
G36*
X64262Y787562D02*
X65497Y787562D01*
X69187Y789090D01*
X72012Y791914D01*
X73540Y795604D01*
X73540Y796840D01*
X64262Y796840D01*
X64262Y787562D01*
G37*
G36*
X86903Y787562D02*
X88138Y787562D01*
X88138Y796840D01*
X78860Y796840D01*
X78860Y795604D01*
X80389Y791914D01*
X83213Y789090D01*
X86903Y787562D01*
G37*
G36*
X112303Y787562D02*
X113538Y787562D01*
X113538Y796840D01*
X104260Y796840D01*
X104260Y795604D01*
X105789Y791914D01*
X108613Y789090D01*
X112303Y787562D01*
G37*
G36*
X115062Y787562D02*
X116297Y787562D01*
X119987Y789090D01*
X122812Y791914D01*
X124340Y795604D01*
X124340Y796840D01*
X115062Y796840D01*
X115062Y787562D01*
G37*
G36*
X137703Y787562D02*
X138938Y787562D01*
X138938Y796840D01*
X129660Y796840D01*
X129660Y795604D01*
X131189Y791914D01*
X134013Y789090D01*
X137703Y787562D01*
G37*
G36*
X163103Y787562D02*
X164338Y787562D01*
X164338Y796840D01*
X155060Y796840D01*
X155060Y795604D01*
X156589Y791914D01*
X159413Y789090D01*
X163103Y787562D01*
G37*
G36*
X191262Y787562D02*
X192497Y787562D01*
X196187Y789090D01*
X199012Y791914D01*
X200540Y795604D01*
X200540Y796840D01*
X191262Y796840D01*
X191262Y787562D01*
G37*
G36*
X188503Y787562D02*
X189738Y787562D01*
X189738Y796840D01*
X180460Y796840D01*
X180460Y795604D01*
X181989Y791914D01*
X184813Y789090D01*
X188503Y787562D01*
G37*
G36*
X165862Y787562D02*
X167097Y787562D01*
X170787Y789090D01*
X173612Y791914D01*
X175140Y795604D01*
X175140Y796840D01*
X165862Y796840D01*
X165862Y787562D01*
G37*
G36*
X985012Y788162D02*
X999890Y788162D01*
X999890Y789208D01*
X998506Y792549D01*
X995949Y795106D01*
X992608Y796490D01*
X985012Y796490D01*
X985012Y788162D01*
G37*
G36*
X968610Y788162D02*
X983488Y788162D01*
X983488Y796490D01*
X975892Y796490D01*
X972551Y795106D01*
X969994Y792549D01*
X968610Y789208D01*
X968610Y788162D01*
G37*
G36*
X849094Y779326D02*
X865406Y779326D01*
X868374Y780555D01*
X870645Y782826D01*
X871874Y785794D01*
X871874Y789006D01*
X870645Y791974D01*
X868374Y794245D01*
X865406Y795474D01*
X849094Y795474D01*
X846126Y794245D01*
X843855Y791974D01*
X842626Y789006D01*
X842626Y785794D01*
X843855Y782826D01*
X846126Y780555D01*
X849094Y779326D01*
G37*
G36*
X1448562Y781812D02*
X1456090Y781812D01*
X1456090Y782699D01*
X1454828Y785746D01*
X1452496Y788078D01*
X1449449Y789340D01*
X1448562Y789340D01*
X1448562Y781812D01*
G37*
G36*
X1439510Y781812D02*
X1447038Y781812D01*
X1447038Y789340D01*
X1446151Y789340D01*
X1443104Y788078D01*
X1440772Y785746D01*
X1439510Y782699D01*
X1439510Y781812D01*
G37*
G36*
X975892Y778310D02*
X983488Y778310D01*
X983488Y786638D01*
X968610Y786638D01*
X968610Y785592D01*
X969994Y782251D01*
X972551Y779694D01*
X975892Y778310D01*
G37*
G36*
X985012Y778310D02*
X992608Y778310D01*
X995949Y779694D01*
X998506Y782251D01*
X999890Y785592D01*
X999890Y786638D01*
X985012Y786638D01*
X985012Y778310D01*
G37*
G36*
X473719Y764926D02*
X491481Y764926D01*
X492374Y765819D01*
X492374Y783581D01*
X491481Y784474D01*
X473719Y784474D01*
X472826Y783581D01*
X472826Y765819D01*
X473719Y764926D01*
G37*
G36*
X372119Y764926D02*
X389881Y764926D01*
X390774Y765819D01*
X390774Y783581D01*
X389881Y784474D01*
X372119Y784474D01*
X371226Y783581D01*
X371226Y765819D01*
X372119Y764926D01*
G37*
G36*
X575319Y764926D02*
X593081Y764926D01*
X593974Y765819D01*
X593974Y783581D01*
X593081Y784474D01*
X575319Y784474D01*
X574426Y783581D01*
X574426Y765819D01*
X575319Y764926D01*
G37*
G36*
X676919Y764926D02*
X694681Y764926D01*
X695574Y765819D01*
X695574Y783581D01*
X694681Y784474D01*
X676919Y784474D01*
X676026Y783581D01*
X676026Y765819D01*
X676919Y764926D01*
G37*
G36*
X87105Y763178D02*
X90695Y763178D01*
X94012Y764551D01*
X96550Y767090D01*
X97924Y770407D01*
X97924Y773997D01*
X96550Y777313D01*
X94012Y779852D01*
X90695Y781226D01*
X87105Y781226D01*
X83788Y779852D01*
X81250Y777313D01*
X79876Y773997D01*
X79876Y770407D01*
X81250Y767090D01*
X83788Y764551D01*
X87105Y763178D01*
G37*
G36*
X4569Y763178D02*
X20831Y763178D01*
X21724Y764070D01*
X21724Y780333D01*
X20831Y781226D01*
X4569Y781226D01*
X3676Y780333D01*
X3676Y764070D01*
X4569Y763178D01*
G37*
G36*
X188705Y763178D02*
X192295Y763178D01*
X195612Y764551D01*
X198150Y767090D01*
X199524Y770407D01*
X199524Y773997D01*
X198150Y777313D01*
X195612Y779852D01*
X192295Y781226D01*
X188705Y781226D01*
X185388Y779852D01*
X182850Y777313D01*
X181476Y773997D01*
X181476Y770407D01*
X182850Y767090D01*
X185388Y764551D01*
X188705Y763178D01*
G37*
G36*
X112505Y763178D02*
X116095Y763178D01*
X119412Y764551D01*
X121950Y767090D01*
X123324Y770407D01*
X123324Y773997D01*
X121950Y777313D01*
X119412Y779852D01*
X116095Y781226D01*
X112505Y781226D01*
X109188Y779852D01*
X106650Y777313D01*
X105276Y773997D01*
X105276Y770407D01*
X106650Y767090D01*
X109188Y764551D01*
X112505Y763178D01*
G37*
G36*
X137905Y763178D02*
X141495Y763178D01*
X144812Y764551D01*
X147350Y767090D01*
X148724Y770407D01*
X148724Y773997D01*
X147350Y777313D01*
X144812Y779852D01*
X141495Y781226D01*
X137905Y781226D01*
X134588Y779852D01*
X132050Y777313D01*
X130676Y773997D01*
X130676Y770407D01*
X132050Y767090D01*
X134588Y764551D01*
X137905Y763178D01*
G37*
G36*
X61705Y763178D02*
X65295Y763178D01*
X68612Y764551D01*
X71150Y767090D01*
X72524Y770407D01*
X72524Y773997D01*
X71150Y777313D01*
X68612Y779852D01*
X65295Y781226D01*
X61705Y781226D01*
X58388Y779852D01*
X55850Y777313D01*
X54476Y773997D01*
X54476Y770407D01*
X55850Y767090D01*
X58388Y764551D01*
X61705Y763178D01*
G37*
G36*
X163305Y763178D02*
X166895Y763178D01*
X170212Y764551D01*
X172750Y767090D01*
X174124Y770407D01*
X174124Y773997D01*
X172750Y777313D01*
X170212Y779852D01*
X166895Y781226D01*
X163305Y781226D01*
X159988Y779852D01*
X157450Y777313D01*
X156076Y773997D01*
X156076Y770407D01*
X157450Y767090D01*
X159988Y764551D01*
X163305Y763178D01*
G37*
G36*
X36305Y763178D02*
X39895Y763178D01*
X43212Y764551D01*
X45750Y767090D01*
X47124Y770407D01*
X47124Y773997D01*
X45750Y777313D01*
X43212Y779852D01*
X39895Y781226D01*
X36305Y781226D01*
X32988Y779852D01*
X30450Y777313D01*
X29076Y773997D01*
X29076Y770407D01*
X30450Y767090D01*
X32988Y764551D01*
X36305Y763178D01*
G37*
G36*
X1448562Y772760D02*
X1449449Y772760D01*
X1452496Y774022D01*
X1454828Y776354D01*
X1456090Y779401D01*
X1456090Y780288D01*
X1448562Y780288D01*
X1448562Y772760D01*
G37*
G36*
X1446151Y772760D02*
X1447038Y772760D01*
X1447038Y780288D01*
X1439510Y780288D01*
X1439510Y779401D01*
X1440772Y776354D01*
X1443104Y774022D01*
X1446151Y772760D01*
G37*
G36*
X1059053Y753776D02*
X1061847Y753776D01*
X1064429Y754845D01*
X1066405Y756821D01*
X1067474Y759403D01*
X1067474Y762197D01*
X1066405Y764779D01*
X1064429Y766755D01*
X1061847Y767824D01*
X1059053Y767824D01*
X1056471Y766755D01*
X1054495Y764779D01*
X1053989Y763556D01*
X1053832Y763318D01*
X1053582Y763146D01*
X1053285Y763086D01*
X999599Y763086D01*
X999318Y763139D01*
X999064Y763305D01*
X998895Y763556D01*
X997645Y766574D01*
X995374Y768845D01*
X992406Y770074D01*
X976094Y770074D01*
X973126Y768845D01*
X970855Y766574D01*
X969626Y763606D01*
X969626Y760394D01*
X970855Y757426D01*
X973126Y755155D01*
X976094Y753926D01*
X992406Y753926D01*
X995374Y755155D01*
X997645Y757426D01*
X997900Y758044D01*
X998057Y758282D01*
X998307Y758454D01*
X998604Y758514D01*
X1053285Y758514D01*
X1053565Y758461D01*
X1053820Y758295D01*
X1053989Y758044D01*
X1054495Y756821D01*
X1056471Y754845D01*
X1059053Y753776D01*
G37*
G36*
X849094Y753926D02*
X865406Y753926D01*
X868374Y755155D01*
X870645Y757426D01*
X871874Y760394D01*
X871874Y763606D01*
X870645Y766574D01*
X868374Y768845D01*
X865406Y770074D01*
X849094Y770074D01*
X846126Y768845D01*
X843855Y766574D01*
X842626Y763606D01*
X842626Y760394D01*
X843855Y757426D01*
X846126Y755155D01*
X849094Y753926D01*
G37*
G36*
X849094Y728526D02*
X865406Y728526D01*
X868374Y729755D01*
X870645Y732026D01*
X871874Y734994D01*
X871874Y738206D01*
X870645Y741174D01*
X868374Y743445D01*
X865406Y744674D01*
X849094Y744674D01*
X846126Y743445D01*
X843855Y741174D01*
X842626Y738206D01*
X842626Y734994D01*
X843855Y732026D01*
X846126Y729755D01*
X849094Y728526D01*
G37*
G36*
X976094Y728526D02*
X992406Y728526D01*
X995374Y729755D01*
X997645Y732026D01*
X998066Y733044D01*
X998223Y733282D01*
X998473Y733454D01*
X998770Y733514D01*
X1053285Y733514D01*
X1053565Y733461D01*
X1053820Y733295D01*
X1053989Y733044D01*
X1054495Y731821D01*
X1056471Y729845D01*
X1059053Y728776D01*
X1061847Y728776D01*
X1064429Y729845D01*
X1066405Y731821D01*
X1067474Y734403D01*
X1067474Y737197D01*
X1066405Y739779D01*
X1064429Y741755D01*
X1061847Y742824D01*
X1059053Y742824D01*
X1056471Y741755D01*
X1054495Y739779D01*
X1053989Y738556D01*
X1053832Y738318D01*
X1053582Y738146D01*
X1053285Y738086D01*
X999433Y738086D01*
X999153Y738139D01*
X998898Y738305D01*
X998729Y738556D01*
X997645Y741174D01*
X995374Y743445D01*
X992406Y744674D01*
X976094Y744674D01*
X973126Y743445D01*
X970855Y741174D01*
X969626Y738206D01*
X969626Y734994D01*
X970855Y732026D01*
X973126Y729755D01*
X976094Y728526D01*
G37*
G36*
X1499362Y705612D02*
X1513140Y705612D01*
X1513140Y707742D01*
X1510926Y713086D01*
X1506836Y717176D01*
X1501492Y719390D01*
X1499362Y719390D01*
X1499362Y705612D01*
G37*
G36*
X1484060Y705612D02*
X1497838Y705612D01*
X1497838Y719390D01*
X1495708Y719390D01*
X1490364Y717176D01*
X1486274Y713086D01*
X1484060Y707742D01*
X1484060Y705612D01*
G37*
G36*
X976094Y703126D02*
X992406Y703126D01*
X995374Y704355D01*
X997645Y706626D01*
X998232Y708044D01*
X998388Y708282D01*
X998639Y708454D01*
X998936Y708514D01*
X1053285Y708514D01*
X1053565Y708461D01*
X1053820Y708295D01*
X1053989Y708044D01*
X1054495Y706821D01*
X1056471Y704845D01*
X1059053Y703776D01*
X1061847Y703776D01*
X1064429Y704845D01*
X1066405Y706821D01*
X1067474Y709403D01*
X1067474Y712197D01*
X1066405Y714779D01*
X1064429Y716755D01*
X1061847Y717824D01*
X1059053Y717824D01*
X1056471Y716755D01*
X1054495Y714779D01*
X1053989Y713556D01*
X1053832Y713318D01*
X1053582Y713146D01*
X1053285Y713086D01*
X999267Y713086D01*
X998987Y713139D01*
X998733Y713305D01*
X998563Y713556D01*
X997645Y715774D01*
X995374Y718045D01*
X992406Y719274D01*
X976094Y719274D01*
X973126Y718045D01*
X970855Y715774D01*
X969626Y712806D01*
X969626Y709594D01*
X970855Y706626D01*
X973126Y704355D01*
X976094Y703126D01*
G37*
G36*
X849094Y703126D02*
X865406Y703126D01*
X868374Y704355D01*
X870645Y706626D01*
X871874Y709594D01*
X871874Y712806D01*
X870645Y715774D01*
X868374Y718045D01*
X865406Y719274D01*
X849094Y719274D01*
X846126Y718045D01*
X843855Y715774D01*
X842626Y712806D01*
X842626Y709594D01*
X843855Y706626D01*
X846126Y704355D01*
X849094Y703126D01*
G37*
G36*
X1499362Y690310D02*
X1501492Y690310D01*
X1506836Y692524D01*
X1510926Y696614D01*
X1513140Y701958D01*
X1513140Y704088D01*
X1499362Y704088D01*
X1499362Y690310D01*
G37*
G36*
X1495708Y690310D02*
X1497838Y690310D01*
X1497838Y704088D01*
X1484060Y704088D01*
X1484060Y701958D01*
X1486274Y696614D01*
X1490364Y692524D01*
X1495708Y690310D01*
G37*
G36*
X191262Y686562D02*
X200540Y686562D01*
X200540Y687797D01*
X199012Y691487D01*
X196187Y694312D01*
X192497Y695840D01*
X191262Y695840D01*
X191262Y686562D01*
G37*
G36*
X165862Y686562D02*
X175140Y686562D01*
X175140Y687797D01*
X173612Y691487D01*
X170787Y694312D01*
X167097Y695840D01*
X165862Y695840D01*
X165862Y686562D01*
G37*
G36*
X140462Y686562D02*
X149740Y686562D01*
X149740Y687797D01*
X148212Y691487D01*
X145387Y694312D01*
X141697Y695840D01*
X140462Y695840D01*
X140462Y686562D01*
G37*
G36*
X115062Y686562D02*
X124340Y686562D01*
X124340Y687797D01*
X122812Y691487D01*
X119987Y694312D01*
X116297Y695840D01*
X115062Y695840D01*
X115062Y686562D01*
G37*
G36*
X89662Y686562D02*
X98940Y686562D01*
X98940Y687797D01*
X97412Y691487D01*
X94587Y694312D01*
X90897Y695840D01*
X89662Y695840D01*
X89662Y686562D01*
G37*
G36*
X64262Y686562D02*
X73540Y686562D01*
X73540Y687797D01*
X72012Y691487D01*
X69187Y694312D01*
X65497Y695840D01*
X64262Y695840D01*
X64262Y686562D01*
G37*
G36*
X13462Y686562D02*
X22740Y686562D01*
X22740Y687797D01*
X21212Y691487D01*
X18387Y694312D01*
X14697Y695840D01*
X13462Y695840D01*
X13462Y686562D01*
G37*
G36*
X38862Y686562D02*
X48140Y686562D01*
X48140Y687797D01*
X46612Y691487D01*
X43787Y694312D01*
X40097Y695840D01*
X38862Y695840D01*
X38862Y686562D01*
G37*
G36*
X28060Y686562D02*
X37338Y686562D01*
X37338Y695840D01*
X36103Y695840D01*
X32413Y694312D01*
X29589Y691487D01*
X28060Y687797D01*
X28060Y686562D01*
G37*
G36*
X180460Y686562D02*
X189738Y686562D01*
X189738Y695840D01*
X188503Y695840D01*
X184813Y694312D01*
X181989Y691487D01*
X180460Y687797D01*
X180460Y686562D01*
G37*
G36*
X155060Y686562D02*
X164338Y686562D01*
X164338Y695840D01*
X163103Y695840D01*
X159413Y694312D01*
X156589Y691487D01*
X155060Y687797D01*
X155060Y686562D01*
G37*
G36*
X129660Y686562D02*
X138938Y686562D01*
X138938Y695840D01*
X137703Y695840D01*
X134013Y694312D01*
X131189Y691487D01*
X129660Y687797D01*
X129660Y686562D01*
G37*
G36*
X104260Y686562D02*
X113538Y686562D01*
X113538Y695840D01*
X112303Y695840D01*
X108613Y694312D01*
X105789Y691487D01*
X104260Y687797D01*
X104260Y686562D01*
G37*
G36*
X78860Y686562D02*
X88138Y686562D01*
X88138Y695840D01*
X86903Y695840D01*
X83213Y694312D01*
X80389Y691487D01*
X78860Y687797D01*
X78860Y686562D01*
G37*
G36*
X53460Y686562D02*
X62738Y686562D01*
X62738Y695840D01*
X61503Y695840D01*
X57813Y694312D01*
X54989Y691487D01*
X53460Y687797D01*
X53460Y686562D01*
G37*
G36*
X2660Y686562D02*
X11938Y686562D01*
X11938Y695840D01*
X10703Y695840D01*
X7013Y694312D01*
X4189Y691487D01*
X2660Y687797D01*
X2660Y686562D01*
G37*
G36*
X849094Y677726D02*
X865406Y677726D01*
X868374Y678955D01*
X870645Y681226D01*
X871874Y684194D01*
X871874Y687406D01*
X870645Y690374D01*
X868374Y692645D01*
X865406Y693874D01*
X849094Y693874D01*
X846126Y692645D01*
X843855Y690374D01*
X842626Y687406D01*
X842626Y684194D01*
X843855Y681226D01*
X846126Y678955D01*
X849094Y677726D01*
G37*
G36*
X976094Y677726D02*
X992406Y677726D01*
X995374Y678955D01*
X997645Y681226D01*
X998398Y683044D01*
X998554Y683282D01*
X998804Y683454D01*
X999102Y683514D01*
X1053285Y683514D01*
X1053565Y683461D01*
X1053820Y683295D01*
X1053989Y683044D01*
X1054495Y681821D01*
X1056471Y679845D01*
X1059053Y678776D01*
X1061847Y678776D01*
X1064429Y679845D01*
X1066405Y681821D01*
X1067474Y684403D01*
X1067474Y687197D01*
X1066405Y689779D01*
X1064429Y691755D01*
X1061847Y692824D01*
X1059053Y692824D01*
X1056471Y691755D01*
X1054495Y689779D01*
X1053989Y688556D01*
X1053832Y688318D01*
X1053582Y688146D01*
X1053285Y688086D01*
X999102Y688086D01*
X998821Y688139D01*
X998567Y688305D01*
X998398Y688556D01*
X997645Y690374D01*
X995374Y692645D01*
X992406Y693874D01*
X976094Y693874D01*
X973126Y692645D01*
X970855Y690374D01*
X969626Y687406D01*
X969626Y684194D01*
X970855Y681226D01*
X973126Y678955D01*
X976094Y677726D01*
G37*
G36*
X115062Y675760D02*
X116297Y675760D01*
X119987Y677289D01*
X122812Y680113D01*
X124340Y683803D01*
X124340Y685038D01*
X115062Y685038D01*
X115062Y675760D01*
G37*
G36*
X38862Y675760D02*
X40097Y675760D01*
X43787Y677289D01*
X46612Y680113D01*
X48140Y683803D01*
X48140Y685038D01*
X38862Y685038D01*
X38862Y675760D01*
G37*
G36*
X10703Y675760D02*
X11938Y675760D01*
X11938Y685038D01*
X2660Y685038D01*
X2660Y683803D01*
X4189Y680113D01*
X7013Y677289D01*
X10703Y675760D01*
G37*
G36*
X13462Y675760D02*
X14697Y675760D01*
X18387Y677289D01*
X21212Y680113D01*
X22740Y683803D01*
X22740Y685038D01*
X13462Y685038D01*
X13462Y675760D01*
G37*
G36*
X36103Y675760D02*
X37338Y675760D01*
X37338Y685038D01*
X28060Y685038D01*
X28060Y683803D01*
X29589Y680113D01*
X32413Y677289D01*
X36103Y675760D01*
G37*
G36*
X61503Y675760D02*
X62738Y675760D01*
X62738Y685038D01*
X53460Y685038D01*
X53460Y683803D01*
X54989Y680113D01*
X57813Y677289D01*
X61503Y675760D01*
G37*
G36*
X64262Y675760D02*
X65497Y675760D01*
X69187Y677289D01*
X72012Y680113D01*
X73540Y683803D01*
X73540Y685038D01*
X64262Y685038D01*
X64262Y675760D01*
G37*
G36*
X86903Y675760D02*
X88138Y675760D01*
X88138Y685038D01*
X78860Y685038D01*
X78860Y683803D01*
X80389Y680113D01*
X83213Y677289D01*
X86903Y675760D01*
G37*
G36*
X89662Y675760D02*
X90897Y675760D01*
X94587Y677289D01*
X97412Y680113D01*
X98940Y683803D01*
X98940Y685038D01*
X89662Y685038D01*
X89662Y675760D01*
G37*
G36*
X112303Y675760D02*
X113538Y675760D01*
X113538Y685038D01*
X104260Y685038D01*
X104260Y683803D01*
X105789Y680113D01*
X108613Y677289D01*
X112303Y675760D01*
G37*
G36*
X137703Y675760D02*
X138938Y675760D01*
X138938Y685038D01*
X129660Y685038D01*
X129660Y683803D01*
X131189Y680113D01*
X134013Y677289D01*
X137703Y675760D01*
G37*
G36*
X140462Y675760D02*
X141697Y675760D01*
X145387Y677289D01*
X148212Y680113D01*
X149740Y683803D01*
X149740Y685038D01*
X140462Y685038D01*
X140462Y675760D01*
G37*
G36*
X163103Y675760D02*
X164338Y675760D01*
X164338Y685038D01*
X155060Y685038D01*
X155060Y683803D01*
X156589Y680113D01*
X159413Y677289D01*
X163103Y675760D01*
G37*
G36*
X191262Y675760D02*
X192497Y675760D01*
X196187Y677289D01*
X199012Y680113D01*
X200540Y683803D01*
X200540Y685038D01*
X191262Y685038D01*
X191262Y675760D01*
G37*
G36*
X188503Y675760D02*
X189738Y675760D01*
X189738Y685038D01*
X180460Y685038D01*
X180460Y683803D01*
X181989Y680113D01*
X184813Y677289D01*
X188503Y675760D01*
G37*
G36*
X165862Y675760D02*
X167097Y675760D01*
X170787Y677289D01*
X173612Y680113D01*
X175140Y683803D01*
X175140Y685038D01*
X165862Y685038D01*
X165862Y675760D01*
G37*
G36*
X524519Y663326D02*
X542281Y663326D01*
X543174Y664219D01*
X543174Y681981D01*
X542281Y682874D01*
X524519Y682874D01*
X523626Y681981D01*
X523626Y664219D01*
X524519Y663326D01*
G37*
G36*
X321319Y663326D02*
X339081Y663326D01*
X339974Y664219D01*
X339974Y681981D01*
X339081Y682874D01*
X321319Y682874D01*
X320426Y681981D01*
X320426Y664219D01*
X321319Y663326D01*
G37*
G36*
X727719Y663326D02*
X745481Y663326D01*
X746374Y664219D01*
X746374Y681981D01*
X745481Y682874D01*
X727719Y682874D01*
X726826Y681981D01*
X726826Y664219D01*
X727719Y663326D01*
G37*
G36*
X626119Y663326D02*
X643881Y663326D01*
X644774Y664219D01*
X644774Y681981D01*
X643881Y682874D01*
X626119Y682874D01*
X625226Y681981D01*
X625226Y664219D01*
X626119Y663326D01*
G37*
G36*
X422919Y663326D02*
X440681Y663326D01*
X441574Y664219D01*
X441574Y681981D01*
X440681Y682874D01*
X422919Y682874D01*
X422026Y681981D01*
X422026Y664219D01*
X422919Y663326D01*
G37*
G36*
X112505Y651376D02*
X116095Y651376D01*
X119412Y652750D01*
X121950Y655288D01*
X123324Y658605D01*
X123324Y662195D01*
X121950Y665512D01*
X119412Y668050D01*
X116095Y669424D01*
X112505Y669424D01*
X109188Y668050D01*
X106650Y665512D01*
X105276Y662195D01*
X105276Y658605D01*
X106650Y655288D01*
X109188Y652750D01*
X112505Y651376D01*
G37*
G36*
X87105Y651376D02*
X90695Y651376D01*
X94012Y652750D01*
X96550Y655288D01*
X97924Y658605D01*
X97924Y662195D01*
X96550Y665512D01*
X94012Y668050D01*
X90695Y669424D01*
X87105Y669424D01*
X83788Y668050D01*
X81250Y665512D01*
X79876Y662195D01*
X79876Y658605D01*
X81250Y655288D01*
X83788Y652750D01*
X87105Y651376D01*
G37*
G36*
X137905Y651376D02*
X141495Y651376D01*
X144812Y652750D01*
X147350Y655288D01*
X148724Y658605D01*
X148724Y662195D01*
X147350Y665512D01*
X144812Y668050D01*
X141495Y669424D01*
X137905Y669424D01*
X134588Y668050D01*
X132050Y665512D01*
X130676Y662195D01*
X130676Y658605D01*
X132050Y655288D01*
X134588Y652750D01*
X137905Y651376D01*
G37*
G36*
X61705Y651376D02*
X65295Y651376D01*
X68612Y652750D01*
X71150Y655288D01*
X72524Y658605D01*
X72524Y662195D01*
X71150Y665512D01*
X68612Y668050D01*
X65295Y669424D01*
X61705Y669424D01*
X58388Y668050D01*
X55850Y665512D01*
X54476Y662195D01*
X54476Y658605D01*
X55850Y655288D01*
X58388Y652750D01*
X61705Y651376D01*
G37*
G36*
X36305Y651376D02*
X39895Y651376D01*
X43212Y652750D01*
X45750Y655288D01*
X47124Y658605D01*
X47124Y662195D01*
X45750Y665512D01*
X43212Y668050D01*
X39895Y669424D01*
X36305Y669424D01*
X32988Y668050D01*
X30450Y665512D01*
X29076Y662195D01*
X29076Y658605D01*
X30450Y655288D01*
X32988Y652750D01*
X36305Y651376D01*
G37*
G36*
X4569Y651376D02*
X20831Y651376D01*
X21724Y652269D01*
X21724Y668531D01*
X20831Y669424D01*
X4569Y669424D01*
X3676Y668531D01*
X3676Y652269D01*
X4569Y651376D01*
G37*
G36*
X163305Y651376D02*
X166895Y651376D01*
X170212Y652750D01*
X172750Y655288D01*
X174124Y658605D01*
X174124Y662195D01*
X172750Y665512D01*
X170212Y668050D01*
X166895Y669424D01*
X163305Y669424D01*
X159988Y668050D01*
X157450Y665512D01*
X156076Y662195D01*
X156076Y658605D01*
X157450Y655288D01*
X159988Y652750D01*
X163305Y651376D01*
G37*
G36*
X188705Y651376D02*
X192295Y651376D01*
X195612Y652750D01*
X198150Y655288D01*
X199524Y658605D01*
X199524Y662195D01*
X198150Y665512D01*
X195612Y668050D01*
X192295Y669424D01*
X188705Y669424D01*
X185388Y668050D01*
X182850Y665512D01*
X181476Y662195D01*
X181476Y658605D01*
X182850Y655288D01*
X185388Y652750D01*
X188705Y651376D01*
G37*
G36*
X976094Y652326D02*
X992406Y652326D01*
X995374Y653555D01*
X997645Y655826D01*
X998874Y658794D01*
X998874Y662006D01*
X997645Y664974D01*
X995374Y667245D01*
X992406Y668474D01*
X976094Y668474D01*
X973126Y667245D01*
X970855Y664974D01*
X969626Y662006D01*
X969626Y658794D01*
X970855Y655826D01*
X973126Y653555D01*
X976094Y652326D01*
G37*
G36*
X849094Y652326D02*
X865406Y652326D01*
X868374Y653555D01*
X870645Y655826D01*
X871874Y658794D01*
X871874Y662006D01*
X870645Y664974D01*
X868374Y667245D01*
X865406Y668474D01*
X849094Y668474D01*
X846126Y667245D01*
X843855Y664974D01*
X842626Y662006D01*
X842626Y658794D01*
X843855Y655826D01*
X846126Y653555D01*
X849094Y652326D01*
G37*
G36*
X968610Y635762D02*
X983488Y635762D01*
X983488Y644090D01*
X975892Y644090D01*
X972551Y642706D01*
X969994Y640149D01*
X968610Y636808D01*
X968610Y635762D01*
G37*
G36*
X985012Y635762D02*
X999890Y635762D01*
X999890Y636808D01*
X998506Y640149D01*
X995949Y642706D01*
X992608Y644090D01*
X985012Y644090D01*
X985012Y635762D01*
G37*
G36*
X849094Y626926D02*
X865406Y626926D01*
X868374Y628155D01*
X870645Y630426D01*
X871874Y633394D01*
X871874Y636606D01*
X870645Y639574D01*
X868374Y641845D01*
X865406Y643074D01*
X849094Y643074D01*
X846126Y641845D01*
X843855Y639574D01*
X842626Y636606D01*
X842626Y633394D01*
X843855Y630426D01*
X846126Y628155D01*
X849094Y626926D01*
G37*
G36*
X975892Y625910D02*
X983488Y625910D01*
X983488Y634238D01*
X968610Y634238D01*
X968610Y633192D01*
X969994Y629851D01*
X972551Y627294D01*
X975892Y625910D01*
G37*
G36*
X985012Y625910D02*
X992608Y625910D01*
X995949Y627294D01*
X998506Y629851D01*
X999890Y633192D01*
X999890Y634238D01*
X985012Y634238D01*
X985012Y625910D01*
G37*
G36*
X1484060Y616712D02*
X1497838Y616712D01*
X1497838Y630490D01*
X1495708Y630490D01*
X1490364Y628276D01*
X1486274Y624186D01*
X1484060Y618842D01*
X1484060Y616712D01*
G37*
G36*
X1499362Y616712D02*
X1513140Y616712D01*
X1513140Y618842D01*
X1510926Y624186D01*
X1506836Y628276D01*
X1501492Y630490D01*
X1499362Y630490D01*
X1499362Y616712D01*
G37*
G36*
X1495708Y601410D02*
X1497838Y601410D01*
X1497838Y615188D01*
X1484060Y615188D01*
X1484060Y613058D01*
X1486274Y607714D01*
X1490364Y603624D01*
X1495708Y601410D01*
G37*
G36*
X1499362Y601410D02*
X1501492Y601410D01*
X1506836Y603624D01*
X1510926Y607714D01*
X1513140Y613058D01*
X1513140Y615188D01*
X1499362Y615188D01*
X1499362Y601410D01*
G37*
G36*
X1448562Y591312D02*
X1456090Y591312D01*
X1456090Y592199D01*
X1454828Y595246D01*
X1452496Y597578D01*
X1449449Y598840D01*
X1448562Y598840D01*
X1448562Y591312D01*
G37*
G36*
X1439510Y591312D02*
X1447038Y591312D01*
X1447038Y598840D01*
X1446151Y598840D01*
X1443104Y597578D01*
X1440772Y595246D01*
X1439510Y592199D01*
X1439510Y591312D01*
G37*
G36*
X1446151Y582260D02*
X1447038Y582260D01*
X1447038Y589788D01*
X1439510Y589788D01*
X1439510Y588901D01*
X1440772Y585854D01*
X1443104Y583522D01*
X1446151Y582260D01*
G37*
G36*
X1448562Y582260D02*
X1449449Y582260D01*
X1452496Y583522D01*
X1454828Y585854D01*
X1456090Y588901D01*
X1456090Y589788D01*
X1448562Y589788D01*
X1448562Y582260D01*
G37*
G36*
X89662Y572262D02*
X98940Y572262D01*
X98940Y573497D01*
X97412Y577187D01*
X94587Y580012D01*
X90897Y581540D01*
X89662Y581540D01*
X89662Y572262D01*
G37*
G36*
X64262Y572262D02*
X73540Y572262D01*
X73540Y573497D01*
X72012Y577187D01*
X69187Y580012D01*
X65497Y581540D01*
X64262Y581540D01*
X64262Y572262D01*
G37*
G36*
X191262Y572262D02*
X200540Y572262D01*
X200540Y573497D01*
X199012Y577187D01*
X196187Y580012D01*
X192497Y581540D01*
X191262Y581540D01*
X191262Y572262D01*
G37*
G36*
X13462Y572262D02*
X22740Y572262D01*
X22740Y573497D01*
X21212Y577187D01*
X18387Y580012D01*
X14697Y581540D01*
X13462Y581540D01*
X13462Y572262D01*
G37*
G36*
X115062Y572262D02*
X124340Y572262D01*
X124340Y573497D01*
X122812Y577187D01*
X119987Y580012D01*
X116297Y581540D01*
X115062Y581540D01*
X115062Y572262D01*
G37*
G36*
X140462Y572262D02*
X149740Y572262D01*
X149740Y573497D01*
X148212Y577187D01*
X145387Y580012D01*
X141697Y581540D01*
X140462Y581540D01*
X140462Y572262D01*
G37*
G36*
X180460Y572262D02*
X189738Y572262D01*
X189738Y581540D01*
X188503Y581540D01*
X184813Y580012D01*
X181989Y577187D01*
X180460Y573497D01*
X180460Y572262D01*
G37*
G36*
X2660Y572262D02*
X11938Y572262D01*
X11938Y581540D01*
X10703Y581540D01*
X7013Y580012D01*
X4189Y577187D01*
X2660Y573497D01*
X2660Y572262D01*
G37*
G36*
X104260Y572262D02*
X113538Y572262D01*
X113538Y581540D01*
X112303Y581540D01*
X108613Y580012D01*
X105789Y577187D01*
X104260Y573497D01*
X104260Y572262D01*
G37*
G36*
X129660Y572262D02*
X138938Y572262D01*
X138938Y581540D01*
X137703Y581540D01*
X134013Y580012D01*
X131189Y577187D01*
X129660Y573497D01*
X129660Y572262D01*
G37*
G36*
X78860Y572262D02*
X88138Y572262D01*
X88138Y581540D01*
X86903Y581540D01*
X83213Y580012D01*
X80389Y577187D01*
X78860Y573497D01*
X78860Y572262D01*
G37*
G36*
X53460Y572262D02*
X62738Y572262D01*
X62738Y581540D01*
X61503Y581540D01*
X57813Y580012D01*
X54989Y577187D01*
X53460Y573497D01*
X53460Y572262D01*
G37*
G36*
X28060Y572262D02*
X37338Y572262D01*
X37338Y581540D01*
X36103Y581540D01*
X32413Y580012D01*
X29589Y577187D01*
X28060Y573497D01*
X28060Y572262D01*
G37*
G36*
X155060Y572262D02*
X164338Y572262D01*
X164338Y581540D01*
X163103Y581540D01*
X159413Y580012D01*
X156589Y577187D01*
X155060Y573497D01*
X155060Y572262D01*
G37*
G36*
X165862Y572262D02*
X175140Y572262D01*
X175140Y573497D01*
X173612Y577187D01*
X170787Y580012D01*
X167097Y581540D01*
X165862Y581540D01*
X165862Y572262D01*
G37*
G36*
X38862Y572262D02*
X48140Y572262D01*
X48140Y573497D01*
X46612Y577187D01*
X43787Y580012D01*
X40097Y581540D01*
X38862Y581540D01*
X38862Y572262D01*
G37*
G36*
X38862Y561460D02*
X40097Y561460D01*
X43787Y562989D01*
X46612Y565813D01*
X48140Y569503D01*
X48140Y570738D01*
X38862Y570738D01*
X38862Y561460D01*
G37*
G36*
X10703Y561460D02*
X11938Y561460D01*
X11938Y570738D01*
X2660Y570738D01*
X2660Y569503D01*
X4189Y565813D01*
X7013Y562989D01*
X10703Y561460D01*
G37*
G36*
X13462Y561460D02*
X14697Y561460D01*
X18387Y562989D01*
X21212Y565813D01*
X22740Y569503D01*
X22740Y570738D01*
X13462Y570738D01*
X13462Y561460D01*
G37*
G36*
X36103Y561460D02*
X37338Y561460D01*
X37338Y570738D01*
X28060Y570738D01*
X28060Y569503D01*
X29589Y565813D01*
X32413Y562989D01*
X36103Y561460D01*
G37*
G36*
X61503Y561460D02*
X62738Y561460D01*
X62738Y570738D01*
X53460Y570738D01*
X53460Y569503D01*
X54989Y565813D01*
X57813Y562989D01*
X61503Y561460D01*
G37*
G36*
X191262Y561460D02*
X192497Y561460D01*
X196187Y562989D01*
X199012Y565813D01*
X200540Y569503D01*
X200540Y570738D01*
X191262Y570738D01*
X191262Y561460D01*
G37*
G36*
X188503Y561460D02*
X189738Y561460D01*
X189738Y570738D01*
X180460Y570738D01*
X180460Y569503D01*
X181989Y565813D01*
X184813Y562989D01*
X188503Y561460D01*
G37*
G36*
X165862Y561460D02*
X167097Y561460D01*
X170787Y562989D01*
X173612Y565813D01*
X175140Y569503D01*
X175140Y570738D01*
X165862Y570738D01*
X165862Y561460D01*
G37*
G36*
X163103Y561460D02*
X164338Y561460D01*
X164338Y570738D01*
X155060Y570738D01*
X155060Y569503D01*
X156589Y565813D01*
X159413Y562989D01*
X163103Y561460D01*
G37*
G36*
X140462Y561460D02*
X141697Y561460D01*
X145387Y562989D01*
X148212Y565813D01*
X149740Y569503D01*
X149740Y570738D01*
X140462Y570738D01*
X140462Y561460D01*
G37*
G36*
X137703Y561460D02*
X138938Y561460D01*
X138938Y570738D01*
X129660Y570738D01*
X129660Y569503D01*
X131189Y565813D01*
X134013Y562989D01*
X137703Y561460D01*
G37*
G36*
X115062Y561460D02*
X116297Y561460D01*
X119987Y562989D01*
X122812Y565813D01*
X124340Y569503D01*
X124340Y570738D01*
X115062Y570738D01*
X115062Y561460D01*
G37*
G36*
X112303Y561460D02*
X113538Y561460D01*
X113538Y570738D01*
X104260Y570738D01*
X104260Y569503D01*
X105789Y565813D01*
X108613Y562989D01*
X112303Y561460D01*
G37*
G36*
X89662Y561460D02*
X90897Y561460D01*
X94587Y562989D01*
X97412Y565813D01*
X98940Y569503D01*
X98940Y570738D01*
X89662Y570738D01*
X89662Y561460D01*
G37*
G36*
X86903Y561460D02*
X88138Y561460D01*
X88138Y570738D01*
X78860Y570738D01*
X78860Y569503D01*
X80389Y565813D01*
X83213Y562989D01*
X86903Y561460D01*
G37*
G36*
X64262Y561460D02*
X65497Y561460D01*
X69187Y562989D01*
X72012Y565813D01*
X73540Y569503D01*
X73540Y570738D01*
X64262Y570738D01*
X64262Y561460D01*
G37*
G36*
X1234782Y515394D02*
X1239178Y515394D01*
X1242286Y518502D01*
X1242286Y522898D01*
X1239178Y526006D01*
X1234782Y526006D01*
X1231985Y523209D01*
X1231744Y523046D01*
X1231447Y522986D01*
X1182363Y522986D01*
X1182077Y523042D01*
X1181824Y523209D01*
X1154879Y550154D01*
X1154716Y550395D01*
X1154656Y550693D01*
X1154656Y554648D01*
X1151548Y557756D01*
X1147152Y557756D01*
X1144044Y554648D01*
X1144044Y550252D01*
X1147152Y547144D01*
X1151107Y547144D01*
X1151393Y547088D01*
X1151646Y546921D01*
X1180153Y518414D01*
X1231447Y518414D01*
X1231733Y518358D01*
X1231985Y518191D01*
X1234782Y515394D01*
G37*
G36*
X4569Y537076D02*
X20831Y537076D01*
X21724Y537969D01*
X21724Y554231D01*
X20831Y555124D01*
X4569Y555124D01*
X3676Y554231D01*
X3676Y537969D01*
X4569Y537076D01*
G37*
G36*
X36305Y537076D02*
X39895Y537076D01*
X43212Y538450D01*
X45750Y540988D01*
X47124Y544305D01*
X47124Y547895D01*
X45750Y551212D01*
X43212Y553750D01*
X39895Y555124D01*
X36305Y555124D01*
X32988Y553750D01*
X30450Y551212D01*
X29076Y547895D01*
X29076Y544305D01*
X30450Y540988D01*
X32988Y538450D01*
X36305Y537076D01*
G37*
G36*
X188705Y537076D02*
X192295Y537076D01*
X195612Y538450D01*
X198150Y540988D01*
X199524Y544305D01*
X199524Y547895D01*
X198150Y551212D01*
X195612Y553750D01*
X192295Y555124D01*
X188705Y555124D01*
X185388Y553750D01*
X182850Y551212D01*
X181476Y547895D01*
X181476Y544305D01*
X182850Y540988D01*
X185388Y538450D01*
X188705Y537076D01*
G37*
G36*
X163305Y537076D02*
X166895Y537076D01*
X170212Y538450D01*
X172750Y540988D01*
X174124Y544305D01*
X174124Y547895D01*
X172750Y551212D01*
X170212Y553750D01*
X166895Y555124D01*
X163305Y555124D01*
X159988Y553750D01*
X157450Y551212D01*
X156076Y547895D01*
X156076Y544305D01*
X157450Y540988D01*
X159988Y538450D01*
X163305Y537076D01*
G37*
G36*
X137905Y537076D02*
X141495Y537076D01*
X144812Y538450D01*
X147350Y540988D01*
X148724Y544305D01*
X148724Y547895D01*
X147350Y551212D01*
X144812Y553750D01*
X141495Y555124D01*
X137905Y555124D01*
X134588Y553750D01*
X132050Y551212D01*
X130676Y547895D01*
X130676Y544305D01*
X132050Y540988D01*
X134588Y538450D01*
X137905Y537076D01*
G37*
G36*
X112505Y537076D02*
X116095Y537076D01*
X119412Y538450D01*
X121950Y540988D01*
X123324Y544305D01*
X123324Y547895D01*
X121950Y551212D01*
X119412Y553750D01*
X116095Y555124D01*
X112505Y555124D01*
X109188Y553750D01*
X106650Y551212D01*
X105276Y547895D01*
X105276Y544305D01*
X106650Y540988D01*
X109188Y538450D01*
X112505Y537076D01*
G37*
G36*
X87105Y537076D02*
X90695Y537076D01*
X94012Y538450D01*
X96550Y540988D01*
X97924Y544305D01*
X97924Y547895D01*
X96550Y551212D01*
X94012Y553750D01*
X90695Y555124D01*
X87105Y555124D01*
X83788Y553750D01*
X81250Y551212D01*
X79876Y547895D01*
X79876Y544305D01*
X81250Y540988D01*
X83788Y538450D01*
X87105Y537076D01*
G37*
G36*
X61705Y537076D02*
X65295Y537076D01*
X68612Y538450D01*
X71150Y540988D01*
X72524Y544305D01*
X72524Y547895D01*
X71150Y551212D01*
X68612Y553750D01*
X65295Y555124D01*
X61705Y555124D01*
X58388Y553750D01*
X55850Y551212D01*
X54476Y547895D01*
X54476Y544305D01*
X55850Y540988D01*
X58388Y538450D01*
X61705Y537076D01*
G37*
G36*
X1096994Y460176D02*
X1100106Y460176D01*
X1102982Y461367D01*
X1105183Y463568D01*
X1106374Y466444D01*
X1106374Y469556D01*
X1105183Y472432D01*
X1102982Y474633D01*
X1101306Y475327D01*
X1101068Y475484D01*
X1100896Y475734D01*
X1100836Y476031D01*
X1100836Y523258D01*
X1100889Y523539D01*
X1101055Y523793D01*
X1101306Y523962D01*
X1104087Y525114D01*
X1106836Y527863D01*
X1108324Y531456D01*
X1108324Y535344D01*
X1106836Y538937D01*
X1104087Y541686D01*
X1100494Y543174D01*
X1096606Y543174D01*
X1093013Y541686D01*
X1090264Y538937D01*
X1088776Y535344D01*
X1088776Y531456D01*
X1090264Y527863D01*
X1093013Y525114D01*
X1095794Y523962D01*
X1096032Y523806D01*
X1096204Y523556D01*
X1096264Y523258D01*
X1096264Y476031D01*
X1096211Y475751D01*
X1096045Y475496D01*
X1095794Y475327D01*
X1094118Y474633D01*
X1091917Y472432D01*
X1090726Y469556D01*
X1090726Y466444D01*
X1091917Y463568D01*
X1094118Y461367D01*
X1096994Y460176D01*
G37*
G36*
X822969Y523626D02*
X840731Y523626D01*
X841624Y524519D01*
X841624Y542281D01*
X840731Y543174D01*
X822969Y543174D01*
X822076Y542281D01*
X822076Y524519D01*
X822969Y523626D01*
G37*
G36*
X1051569Y523626D02*
X1069331Y523626D01*
X1070224Y524519D01*
X1070224Y542281D01*
X1069331Y543174D01*
X1051569Y543174D01*
X1050676Y542281D01*
X1050676Y524519D01*
X1051569Y523626D01*
G37*
G36*
X868394Y460176D02*
X871506Y460176D01*
X874382Y461367D01*
X876583Y463568D01*
X877277Y465244D01*
X877434Y465482D01*
X877684Y465654D01*
X877981Y465714D01*
X912719Y465714D01*
X912999Y465661D01*
X913254Y465495D01*
X913423Y465244D01*
X914117Y463568D01*
X916318Y461367D01*
X919194Y460176D01*
X922306Y460176D01*
X925182Y461367D01*
X927383Y463568D01*
X928574Y466444D01*
X928574Y469556D01*
X927383Y472432D01*
X925182Y474633D01*
X922306Y475824D01*
X919194Y475824D01*
X916318Y474633D01*
X914117Y472432D01*
X913423Y470756D01*
X913266Y470518D01*
X913016Y470346D01*
X912719Y470286D01*
X877981Y470286D01*
X877701Y470339D01*
X877446Y470505D01*
X877277Y470756D01*
X876583Y472432D01*
X874382Y474633D01*
X872706Y475327D01*
X872468Y475484D01*
X872296Y475734D01*
X872236Y476031D01*
X872236Y523258D01*
X872289Y523539D01*
X872455Y523793D01*
X872706Y523962D01*
X875487Y525114D01*
X878236Y527863D01*
X879724Y531456D01*
X879724Y535344D01*
X878236Y538937D01*
X875487Y541686D01*
X871894Y543174D01*
X868006Y543174D01*
X864413Y541686D01*
X861664Y538937D01*
X860176Y535344D01*
X860176Y531456D01*
X861664Y527863D01*
X864413Y525114D01*
X867194Y523962D01*
X867432Y523806D01*
X867604Y523556D01*
X867664Y523258D01*
X867664Y476031D01*
X867611Y475751D01*
X867445Y475496D01*
X867194Y475327D01*
X865518Y474633D01*
X863317Y472432D01*
X862126Y469556D01*
X862126Y466444D01*
X863317Y463568D01*
X865518Y461367D01*
X868394Y460176D01*
G37*
G36*
X937269Y523626D02*
X955031Y523626D01*
X955924Y524519D01*
X955924Y542281D01*
X955031Y543174D01*
X937269Y543174D01*
X936376Y542281D01*
X936376Y524519D01*
X937269Y523626D01*
G37*
G36*
X982694Y460176D02*
X985806Y460176D01*
X988682Y461367D01*
X990883Y463568D01*
X991577Y465244D01*
X991734Y465482D01*
X991984Y465654D01*
X992281Y465714D01*
X1027019Y465714D01*
X1027299Y465661D01*
X1027554Y465495D01*
X1027723Y465244D01*
X1028417Y463568D01*
X1030618Y461367D01*
X1033494Y460176D01*
X1036606Y460176D01*
X1039482Y461367D01*
X1041683Y463568D01*
X1042874Y466444D01*
X1042874Y469556D01*
X1041683Y472432D01*
X1039482Y474633D01*
X1036606Y475824D01*
X1033494Y475824D01*
X1030618Y474633D01*
X1028417Y472432D01*
X1027723Y470756D01*
X1027566Y470518D01*
X1027316Y470346D01*
X1027019Y470286D01*
X992281Y470286D01*
X992001Y470339D01*
X991746Y470505D01*
X991577Y470756D01*
X990883Y472432D01*
X988682Y474633D01*
X987006Y475327D01*
X986768Y475484D01*
X986596Y475734D01*
X986536Y476031D01*
X986536Y523258D01*
X986589Y523539D01*
X986755Y523793D01*
X987006Y523962D01*
X989787Y525114D01*
X992536Y527863D01*
X994024Y531456D01*
X994024Y535344D01*
X992536Y538937D01*
X989787Y541686D01*
X986194Y543174D01*
X982306Y543174D01*
X978713Y541686D01*
X975964Y538937D01*
X974476Y535344D01*
X974476Y531456D01*
X975964Y527863D01*
X978713Y525114D01*
X981494Y523962D01*
X981732Y523806D01*
X981904Y523556D01*
X981964Y523258D01*
X981964Y476031D01*
X981911Y475751D01*
X981745Y475496D01*
X981494Y475327D01*
X979818Y474633D01*
X977617Y472432D01*
X976426Y469556D01*
X976426Y466444D01*
X977617Y463568D01*
X979818Y461367D01*
X982694Y460176D01*
G37*
G36*
X328002Y528094D02*
X332398Y528094D01*
X335195Y530891D01*
X335436Y531054D01*
X335733Y531114D01*
X400867Y531114D01*
X401153Y531058D01*
X401405Y530891D01*
X404202Y528094D01*
X408598Y528094D01*
X411706Y531202D01*
X411706Y535598D01*
X408598Y538706D01*
X404202Y538706D01*
X401405Y535909D01*
X401164Y535746D01*
X400867Y535686D01*
X335733Y535686D01*
X335447Y535742D01*
X335195Y535909D01*
X332398Y538706D01*
X328002Y538706D01*
X324894Y535598D01*
X324894Y531202D01*
X328002Y528094D01*
G37*
G36*
X1499362Y515112D02*
X1513140Y515112D01*
X1513140Y517242D01*
X1510926Y522586D01*
X1506836Y526676D01*
X1501492Y528890D01*
X1499362Y528890D01*
X1499362Y515112D01*
G37*
G36*
X1484060Y515112D02*
X1497838Y515112D01*
X1497838Y528890D01*
X1495708Y528890D01*
X1490364Y526676D01*
X1486274Y522586D01*
X1484060Y517242D01*
X1484060Y515112D01*
G37*
G36*
X328002Y515394D02*
X332398Y515394D01*
X335195Y518191D01*
X335436Y518354D01*
X335733Y518414D01*
X400867Y518414D01*
X401153Y518358D01*
X401405Y518191D01*
X404202Y515394D01*
X408598Y515394D01*
X411706Y518502D01*
X411706Y522898D01*
X408598Y526006D01*
X404202Y526006D01*
X401405Y523209D01*
X401164Y523046D01*
X400867Y522986D01*
X335733Y522986D01*
X335447Y523042D01*
X335195Y523209D01*
X332398Y526006D01*
X328002Y526006D01*
X324894Y522898D01*
X324894Y518502D01*
X328002Y515394D01*
G37*
G36*
X1495708Y499810D02*
X1497838Y499810D01*
X1497838Y513588D01*
X1484060Y513588D01*
X1484060Y511458D01*
X1486274Y506114D01*
X1490364Y502024D01*
X1495708Y499810D01*
G37*
G36*
X1499362Y499810D02*
X1501492Y499810D01*
X1506836Y502024D01*
X1510926Y506114D01*
X1513140Y511458D01*
X1513140Y513588D01*
X1499362Y513588D01*
X1499362Y499810D01*
G37*
G36*
X1219746Y489994D02*
X1224142Y489994D01*
X1227250Y493102D01*
X1227250Y497498D01*
X1224142Y500606D01*
X1219746Y500606D01*
X1216638Y497498D01*
X1216638Y493102D01*
X1219746Y489994D01*
G37*
G36*
X569302Y466428D02*
X573698Y466428D01*
X576806Y469536D01*
X576806Y473932D01*
X573698Y477040D01*
X569302Y477040D01*
X568111Y475849D01*
X567881Y475691D01*
X567585Y475626D01*
X567287Y475682D01*
X567034Y475849D01*
X551629Y491254D01*
X551466Y491495D01*
X551406Y491793D01*
X551406Y495748D01*
X548298Y498856D01*
X543902Y498856D01*
X540794Y495748D01*
X540794Y491352D01*
X543902Y488244D01*
X547857Y488244D01*
X548143Y488188D01*
X548396Y488021D01*
X565971Y470446D01*
X566134Y470205D01*
X566194Y469907D01*
X566194Y469536D01*
X569302Y466428D01*
G37*
G36*
X607402Y467134D02*
X611798Y467134D01*
X614906Y470242D01*
X614906Y474638D01*
X611798Y477746D01*
X607402Y477746D01*
X604605Y474949D01*
X604364Y474786D01*
X604067Y474726D01*
X593845Y474726D01*
X593559Y474782D01*
X593306Y474949D01*
X577029Y491226D01*
X576866Y491467D01*
X576806Y491765D01*
X576806Y495720D01*
X573698Y498828D01*
X569302Y498828D01*
X566194Y495720D01*
X566194Y491324D01*
X569302Y488216D01*
X573257Y488216D01*
X573543Y488160D01*
X573796Y487993D01*
X591635Y470154D01*
X604067Y470154D01*
X604353Y470098D01*
X604605Y469931D01*
X607402Y467134D01*
G37*
G36*
X325571Y396640D02*
X334829Y396640D01*
X343771Y399036D01*
X351789Y403665D01*
X358335Y410211D01*
X362964Y418229D01*
X365360Y427171D01*
X365360Y436429D01*
X362964Y445371D01*
X358335Y453389D01*
X351789Y459935D01*
X343771Y464564D01*
X334829Y466960D01*
X325571Y466960D01*
X316629Y464564D01*
X308611Y459935D01*
X302065Y453389D01*
X297436Y445371D01*
X295040Y436429D01*
X295040Y427171D01*
X297436Y418229D01*
X302065Y410211D01*
X308611Y403665D01*
X316629Y399036D01*
X325571Y396640D01*
G37*
G36*
X1214571Y396640D02*
X1223829Y396640D01*
X1232771Y399036D01*
X1240789Y403665D01*
X1247335Y410211D01*
X1251964Y418229D01*
X1254360Y427171D01*
X1254360Y436429D01*
X1251964Y445371D01*
X1247335Y453389D01*
X1240789Y459935D01*
X1232771Y464564D01*
X1223829Y466960D01*
X1214571Y466960D01*
X1205629Y464564D01*
X1197611Y459935D01*
X1191065Y453389D01*
X1186436Y445371D01*
X1184040Y436429D01*
X1184040Y427171D01*
X1186436Y418229D01*
X1191065Y410211D01*
X1197611Y403665D01*
X1205629Y399036D01*
X1214571Y396640D01*
G37*
G36*
X10502Y451894D02*
X14898Y451894D01*
X18006Y455002D01*
X18006Y459398D01*
X14898Y462506D01*
X10502Y462506D01*
X7394Y459398D01*
X7394Y455002D01*
X10502Y451894D01*
G37*
G36*
X1445602Y261394D02*
X1449998Y261394D01*
X1453106Y264502D01*
X1453106Y268898D01*
X1450309Y271695D01*
X1450146Y271936D01*
X1450086Y272233D01*
X1450086Y299397D01*
X1379179Y370304D01*
X789176Y370304D01*
X788890Y370360D01*
X788637Y370527D01*
X777209Y381955D01*
X777046Y382197D01*
X776986Y382494D01*
X776986Y432979D01*
X776690Y433275D01*
X776527Y433516D01*
X776467Y433813D01*
X776467Y446528D01*
X776523Y446814D01*
X776690Y447067D01*
X778754Y449131D01*
X778995Y449294D01*
X779293Y449354D01*
X783248Y449354D01*
X786356Y452462D01*
X786356Y456858D01*
X783248Y459966D01*
X778852Y459966D01*
X775744Y456858D01*
X775744Y452903D01*
X775688Y452617D01*
X775521Y452364D01*
X771895Y448738D01*
X771895Y439909D01*
X771848Y439646D01*
X771689Y439388D01*
X771441Y439213D01*
X771145Y439147D01*
X770847Y439203D01*
X770594Y439371D01*
X763179Y446786D01*
X678633Y446786D01*
X678347Y446842D01*
X678095Y447009D01*
X675298Y449806D01*
X670902Y449806D01*
X667794Y446698D01*
X667794Y442302D01*
X670902Y439194D01*
X675298Y439194D01*
X678095Y441991D01*
X678336Y442154D01*
X678633Y442214D01*
X760969Y442214D01*
X761255Y442158D01*
X761508Y441991D01*
X772191Y431308D01*
X772354Y431066D01*
X772414Y430769D01*
X772414Y409680D01*
X772367Y409416D01*
X772208Y409158D01*
X771960Y408983D01*
X771664Y408918D01*
X771366Y408973D01*
X771113Y409141D01*
X764509Y415745D01*
X764346Y415986D01*
X764286Y416284D01*
X764286Y426267D01*
X764342Y426553D01*
X764509Y426805D01*
X767306Y429602D01*
X767306Y433998D01*
X764198Y437106D01*
X759802Y437106D01*
X756694Y433998D01*
X756694Y429602D01*
X759491Y426805D01*
X759654Y426564D01*
X759714Y426267D01*
X759714Y422380D01*
X759667Y422116D01*
X759508Y421858D01*
X759260Y421683D01*
X758964Y421618D01*
X758666Y421673D01*
X758413Y421841D01*
X746168Y434086D01*
X678633Y434086D01*
X678347Y434142D01*
X678095Y434309D01*
X675298Y437106D01*
X670902Y437106D01*
X667794Y433998D01*
X667794Y429602D01*
X670902Y426494D01*
X675298Y426494D01*
X678095Y429291D01*
X678336Y429454D01*
X678633Y429514D01*
X743959Y429514D01*
X744245Y429458D01*
X744497Y429291D01*
X769143Y404645D01*
X769306Y404404D01*
X769366Y404107D01*
X769366Y383017D01*
X769319Y382754D01*
X769160Y382496D01*
X768912Y382320D01*
X768616Y382255D01*
X768318Y382311D01*
X768065Y382478D01*
X751809Y398734D01*
X751646Y398976D01*
X751586Y399273D01*
X751586Y400867D01*
X751642Y401153D01*
X751809Y401405D01*
X754606Y404202D01*
X754606Y408598D01*
X751498Y411706D01*
X747102Y411706D01*
X743994Y408598D01*
X743994Y408389D01*
X743947Y408126D01*
X743788Y407868D01*
X743540Y407692D01*
X743244Y407627D01*
X742946Y407683D01*
X742693Y407850D01*
X729157Y421386D01*
X678633Y421386D01*
X678347Y421442D01*
X678095Y421609D01*
X675298Y424406D01*
X670902Y424406D01*
X667794Y421298D01*
X667794Y416902D01*
X670902Y413794D01*
X675298Y413794D01*
X678095Y416591D01*
X678336Y416754D01*
X678633Y416814D01*
X726948Y416814D01*
X727234Y416758D01*
X727487Y416591D01*
X759491Y384587D01*
X759644Y384367D01*
X759714Y384072D01*
X759663Y383773D01*
X759499Y383518D01*
X759249Y383346D01*
X758952Y383286D01*
X739648Y383286D01*
X739373Y383337D01*
X739118Y383501D01*
X738946Y383751D01*
X738886Y384048D01*
X738886Y388167D01*
X738942Y388453D01*
X739109Y388705D01*
X741906Y391502D01*
X741906Y395898D01*
X738798Y399006D01*
X734402Y399006D01*
X731294Y395898D01*
X731294Y391379D01*
X731247Y391115D01*
X731088Y390857D01*
X730840Y390682D01*
X730544Y390617D01*
X730246Y390672D01*
X729993Y390840D01*
X712147Y408686D01*
X678633Y408686D01*
X678347Y408742D01*
X678095Y408909D01*
X675298Y411706D01*
X670902Y411706D01*
X667794Y408598D01*
X667794Y404202D01*
X670902Y401094D01*
X675298Y401094D01*
X678095Y403891D01*
X678336Y404054D01*
X678633Y404114D01*
X709937Y404114D01*
X710223Y404058D01*
X710476Y403891D01*
X735653Y378714D01*
X760737Y378714D01*
X761023Y378658D01*
X761276Y378491D01*
X835691Y304076D01*
X835854Y303835D01*
X835914Y303537D01*
X835914Y278583D01*
X835858Y278297D01*
X835691Y278045D01*
X832894Y275248D01*
X832894Y270852D01*
X836002Y267744D01*
X840398Y267744D01*
X843506Y270852D01*
X843506Y275248D01*
X840709Y278045D01*
X840546Y278286D01*
X840486Y278583D01*
X840486Y305747D01*
X793988Y352245D01*
X793835Y352464D01*
X793765Y352759D01*
X793816Y353058D01*
X793980Y353314D01*
X794230Y353485D01*
X794527Y353546D01*
X982756Y353546D01*
X983042Y353490D01*
X983295Y353323D01*
X1038891Y297726D01*
X1039054Y297485D01*
X1039114Y297187D01*
X1039114Y278583D01*
X1039058Y278297D01*
X1038891Y278045D01*
X1036094Y275248D01*
X1036094Y270852D01*
X1039202Y267744D01*
X1043598Y267744D01*
X1046706Y270852D01*
X1046706Y275248D01*
X1043909Y278045D01*
X1043746Y278286D01*
X1043686Y278583D01*
X1043686Y299397D01*
X987790Y355293D01*
X987637Y355512D01*
X987567Y355807D01*
X987618Y356106D01*
X987782Y356362D01*
X988032Y356533D01*
X988329Y356594D01*
X1182908Y356594D01*
X1183194Y356538D01*
X1183447Y356371D01*
X1243361Y296456D01*
X1243524Y296215D01*
X1243584Y295917D01*
X1243584Y281123D01*
X1243528Y280837D01*
X1243361Y280585D01*
X1240564Y277788D01*
X1240564Y273392D01*
X1243672Y270284D01*
X1248068Y270284D01*
X1251176Y273392D01*
X1251176Y277788D01*
X1248379Y280585D01*
X1248216Y280826D01*
X1248156Y281123D01*
X1248156Y298127D01*
X1185117Y361166D01*
X794004Y361166D01*
X793718Y361221D01*
X793465Y361389D01*
X790423Y364431D01*
X790270Y364651D01*
X790200Y364946D01*
X790251Y365245D01*
X790414Y365500D01*
X790664Y365672D01*
X790962Y365732D01*
X1376969Y365732D01*
X1377255Y365676D01*
X1377508Y365509D01*
X1445291Y297726D01*
X1445454Y297485D01*
X1445514Y297187D01*
X1445514Y272233D01*
X1445458Y271947D01*
X1445291Y271695D01*
X1442494Y268898D01*
X1442494Y264502D01*
X1445602Y261394D01*
G37*
G36*
X-5588Y438912D02*
X2990Y438912D01*
X2990Y440008D01*
X1568Y443441D01*
X-1059Y446068D01*
X-4492Y447490D01*
X-5588Y447490D01*
X-5588Y438912D01*
G37*
G36*
X-15690Y438912D02*
X-7112Y438912D01*
X-7112Y447490D01*
X-8208Y447490D01*
X-11641Y446068D01*
X-14268Y443441D01*
X-15690Y440008D01*
X-15690Y438912D01*
G37*
G36*
X470242Y162306D02*
X474638Y162306D01*
X477746Y165414D01*
X477746Y167642D01*
X477797Y167917D01*
X477961Y168172D01*
X478211Y168344D01*
X478508Y168404D01*
X669572Y168404D01*
X669847Y168353D01*
X670102Y168189D01*
X670274Y167939D01*
X670334Y167642D01*
X670334Y165414D01*
X673442Y162306D01*
X677838Y162306D01*
X680946Y165414D01*
X680946Y167642D01*
X680997Y167917D01*
X681161Y168172D01*
X681411Y168344D01*
X681708Y168404D01*
X872772Y168404D01*
X873047Y168353D01*
X873302Y168189D01*
X873474Y167939D01*
X873534Y167642D01*
X873534Y165414D01*
X876642Y162306D01*
X881038Y162306D01*
X884146Y165414D01*
X884146Y167104D01*
X884197Y167379D01*
X884361Y167634D01*
X884611Y167806D01*
X884908Y167866D01*
X1075972Y167866D01*
X1076247Y167815D01*
X1076502Y167651D01*
X1076674Y167401D01*
X1076734Y167104D01*
X1076734Y165414D01*
X1079842Y162306D01*
X1084238Y162306D01*
X1087346Y165414D01*
X1087346Y167642D01*
X1087397Y167917D01*
X1087561Y168172D01*
X1087811Y168344D01*
X1088108Y168404D01*
X1279172Y168404D01*
X1279447Y168353D01*
X1279702Y168189D01*
X1279874Y167939D01*
X1279934Y167642D01*
X1279934Y165414D01*
X1283042Y162306D01*
X1287438Y162306D01*
X1290546Y165414D01*
X1290546Y167642D01*
X1290597Y167917D01*
X1290761Y168172D01*
X1291011Y168344D01*
X1291308Y168404D01*
X1488627Y168404D01*
X1511065Y190842D01*
X1511383Y191032D01*
X1511685Y191061D01*
X1511974Y190969D01*
X1512204Y190771D01*
X1512267Y190646D01*
X1512273Y190650D01*
X1515767Y184597D01*
X1520637Y179727D01*
X1526603Y176283D01*
X1533256Y174500D01*
X1540144Y174500D01*
X1546797Y176283D01*
X1552763Y179727D01*
X1557633Y184597D01*
X1561077Y190563D01*
X1562860Y197216D01*
X1562860Y204104D01*
X1561077Y210757D01*
X1557633Y216723D01*
X1554631Y219725D01*
X1554478Y219945D01*
X1554408Y220240D01*
X1554459Y220539D01*
X1554622Y220794D01*
X1554872Y220966D01*
X1555169Y221026D01*
X1557529Y221026D01*
X1562757Y223191D01*
X1566759Y227193D01*
X1568924Y232421D01*
X1568924Y238079D01*
X1566759Y243307D01*
X1562757Y247309D01*
X1557529Y249474D01*
X1551871Y249474D01*
X1546643Y247309D01*
X1542641Y243307D01*
X1540476Y238079D01*
X1540476Y232421D01*
X1542536Y227448D01*
X1542583Y227286D01*
X1542574Y226983D01*
X1542447Y226707D01*
X1542223Y226503D01*
X1541937Y226402D01*
X1541634Y226421D01*
X1540144Y226820D01*
X1533256Y226820D01*
X1526603Y225037D01*
X1520637Y221593D01*
X1519205Y220161D01*
X1518985Y220008D01*
X1518690Y219938D01*
X1518391Y219989D01*
X1518136Y220152D01*
X1517964Y220402D01*
X1517904Y220699D01*
X1517904Y234311D01*
X1517011Y235204D01*
X1504735Y235204D01*
X1504472Y235251D01*
X1504214Y235410D01*
X1504038Y235658D01*
X1503973Y235954D01*
X1504029Y236252D01*
X1504196Y236505D01*
X1506352Y238660D01*
X1507744Y242021D01*
X1507744Y245659D01*
X1506352Y249020D01*
X1503780Y251592D01*
X1500419Y252984D01*
X1496781Y252984D01*
X1493420Y251592D01*
X1490848Y249020D01*
X1489694Y246233D01*
X1489550Y246008D01*
X1489304Y245830D01*
X1489008Y245763D01*
X1488710Y245816D01*
X1488455Y245982D01*
X1488286Y246233D01*
X1486893Y249595D01*
X1484035Y252453D01*
X1480301Y254000D01*
X1479042Y254000D01*
X1479042Y233680D01*
X1480301Y233680D01*
X1481589Y234213D01*
X1481844Y234270D01*
X1482143Y234224D01*
X1482401Y234065D01*
X1482577Y233818D01*
X1482642Y233521D01*
X1482586Y233223D01*
X1482419Y232971D01*
X1480688Y231240D01*
X1479296Y227879D01*
X1479296Y224241D01*
X1480688Y220880D01*
X1483260Y218308D01*
X1486621Y216916D01*
X1490259Y216916D01*
X1493620Y218308D01*
X1495013Y219702D01*
X1495233Y219855D01*
X1495528Y219924D01*
X1495827Y219874D01*
X1496082Y219710D01*
X1496254Y219460D01*
X1496314Y219163D01*
X1496314Y187644D01*
X1496258Y187358D01*
X1496091Y187105D01*
X1485233Y176247D01*
X1484991Y176084D01*
X1484694Y176024D01*
X1422193Y176024D01*
X1422031Y176041D01*
X1421754Y176163D01*
X1421546Y176384D01*
X1421440Y176669D01*
X1421454Y176971D01*
X1421585Y177245D01*
X1421812Y177446D01*
X1425763Y179727D01*
X1430633Y184597D01*
X1434077Y190563D01*
X1435860Y197216D01*
X1435860Y204104D01*
X1434077Y210757D01*
X1430633Y216723D01*
X1425763Y221593D01*
X1419797Y225037D01*
X1413144Y226820D01*
X1406256Y226820D01*
X1404766Y226421D01*
X1404599Y226395D01*
X1404299Y226444D01*
X1404043Y226605D01*
X1403869Y226854D01*
X1403806Y227151D01*
X1403864Y227448D01*
X1405924Y232421D01*
X1405924Y238079D01*
X1403759Y243307D01*
X1399757Y247309D01*
X1394529Y249474D01*
X1388871Y249474D01*
X1383643Y247309D01*
X1379641Y243307D01*
X1377476Y238079D01*
X1377476Y232421D01*
X1379641Y227193D01*
X1383643Y223191D01*
X1388871Y221026D01*
X1391231Y221026D01*
X1391494Y220979D01*
X1391752Y220820D01*
X1391927Y220572D01*
X1391992Y220276D01*
X1391937Y219978D01*
X1391769Y219725D01*
X1388767Y216723D01*
X1385323Y210757D01*
X1383540Y204104D01*
X1383540Y197216D01*
X1385323Y190563D01*
X1388767Y184597D01*
X1393637Y179727D01*
X1397588Y177446D01*
X1397719Y177350D01*
X1397899Y177105D01*
X1397969Y176810D01*
X1397918Y176511D01*
X1397754Y176256D01*
X1397504Y176084D01*
X1397207Y176024D01*
X1345993Y176024D01*
X1345831Y176041D01*
X1345554Y176163D01*
X1345346Y176384D01*
X1345240Y176669D01*
X1345254Y176971D01*
X1345385Y177245D01*
X1345612Y177446D01*
X1349563Y179727D01*
X1354433Y184597D01*
X1357877Y190563D01*
X1359660Y197216D01*
X1359660Y204104D01*
X1357877Y210757D01*
X1354433Y216723D01*
X1351431Y219725D01*
X1351278Y219945D01*
X1351208Y220240D01*
X1351259Y220539D01*
X1351422Y220794D01*
X1351672Y220966D01*
X1351969Y221026D01*
X1354329Y221026D01*
X1359557Y223191D01*
X1363559Y227193D01*
X1365724Y232421D01*
X1365724Y238079D01*
X1363559Y243307D01*
X1359557Y247309D01*
X1354329Y249474D01*
X1348671Y249474D01*
X1343443Y247309D01*
X1339441Y243307D01*
X1337276Y238079D01*
X1337276Y232421D01*
X1339336Y227448D01*
X1339383Y227286D01*
X1339374Y226983D01*
X1339247Y226707D01*
X1339023Y226503D01*
X1338737Y226402D01*
X1338434Y226421D01*
X1336944Y226820D01*
X1330056Y226820D01*
X1323403Y225037D01*
X1317437Y221593D01*
X1316005Y220161D01*
X1315785Y220008D01*
X1315490Y219938D01*
X1315191Y219989D01*
X1314936Y220152D01*
X1314764Y220402D01*
X1314704Y220699D01*
X1314704Y234311D01*
X1313811Y235204D01*
X1301535Y235204D01*
X1301272Y235251D01*
X1301014Y235410D01*
X1300838Y235658D01*
X1300773Y235954D01*
X1300829Y236252D01*
X1300996Y236505D01*
X1303152Y238660D01*
X1304544Y242021D01*
X1304544Y245659D01*
X1303152Y249020D01*
X1300580Y251592D01*
X1297219Y252984D01*
X1293581Y252984D01*
X1290220Y251592D01*
X1287648Y249020D01*
X1286494Y246233D01*
X1286350Y246008D01*
X1286104Y245830D01*
X1285808Y245763D01*
X1285510Y245816D01*
X1285255Y245982D01*
X1285086Y246233D01*
X1283693Y249595D01*
X1280835Y252453D01*
X1277101Y254000D01*
X1275842Y254000D01*
X1275842Y233680D01*
X1277101Y233680D01*
X1278389Y234213D01*
X1278644Y234270D01*
X1278943Y234224D01*
X1279201Y234065D01*
X1279377Y233818D01*
X1279442Y233521D01*
X1279386Y233223D01*
X1279219Y232971D01*
X1277488Y231240D01*
X1276096Y227879D01*
X1276096Y224241D01*
X1277488Y220880D01*
X1280060Y218308D01*
X1283421Y216916D01*
X1287059Y216916D01*
X1290420Y218308D01*
X1291813Y219702D01*
X1292033Y219855D01*
X1292328Y219924D01*
X1292627Y219874D01*
X1292882Y219710D01*
X1293054Y219460D01*
X1293114Y219163D01*
X1293114Y185413D01*
X1293058Y185127D01*
X1292891Y184874D01*
X1284264Y176247D01*
X1284023Y176084D01*
X1283725Y176024D01*
X1218993Y176024D01*
X1218831Y176041D01*
X1218554Y176163D01*
X1218346Y176384D01*
X1218240Y176669D01*
X1218254Y176971D01*
X1218385Y177245D01*
X1218612Y177446D01*
X1222563Y179727D01*
X1227433Y184597D01*
X1230877Y190563D01*
X1232660Y197216D01*
X1232660Y204104D01*
X1230877Y210757D01*
X1227433Y216723D01*
X1222563Y221593D01*
X1216597Y225037D01*
X1209944Y226820D01*
X1203056Y226820D01*
X1201566Y226421D01*
X1201399Y226395D01*
X1201099Y226444D01*
X1200843Y226605D01*
X1200669Y226854D01*
X1200606Y227151D01*
X1200664Y227448D01*
X1202724Y232421D01*
X1202724Y238079D01*
X1200559Y243307D01*
X1196557Y247309D01*
X1191329Y249474D01*
X1185671Y249474D01*
X1180443Y247309D01*
X1176441Y243307D01*
X1174276Y238079D01*
X1174276Y232421D01*
X1176441Y227193D01*
X1180443Y223191D01*
X1185671Y221026D01*
X1188031Y221026D01*
X1188294Y220979D01*
X1188552Y220820D01*
X1188727Y220572D01*
X1188792Y220276D01*
X1188737Y219978D01*
X1188569Y219725D01*
X1185567Y216723D01*
X1182123Y210757D01*
X1180340Y204104D01*
X1180340Y197216D01*
X1182123Y190563D01*
X1185567Y184597D01*
X1190437Y179727D01*
X1194388Y177446D01*
X1194519Y177350D01*
X1194699Y177105D01*
X1194769Y176810D01*
X1194718Y176511D01*
X1194554Y176256D01*
X1194304Y176084D01*
X1194007Y176024D01*
X1142793Y176024D01*
X1142631Y176041D01*
X1142354Y176163D01*
X1142146Y176384D01*
X1142040Y176669D01*
X1142054Y176971D01*
X1142185Y177245D01*
X1142412Y177446D01*
X1146363Y179727D01*
X1151233Y184597D01*
X1154677Y190563D01*
X1156460Y197216D01*
X1156460Y204104D01*
X1154677Y210757D01*
X1151233Y216723D01*
X1148231Y219725D01*
X1148078Y219945D01*
X1148008Y220240D01*
X1148059Y220539D01*
X1148222Y220794D01*
X1148472Y220966D01*
X1148769Y221026D01*
X1151129Y221026D01*
X1156357Y223191D01*
X1160359Y227193D01*
X1162524Y232421D01*
X1162524Y238079D01*
X1160359Y243307D01*
X1156357Y247309D01*
X1151129Y249474D01*
X1145471Y249474D01*
X1140243Y247309D01*
X1136241Y243307D01*
X1134076Y238079D01*
X1134076Y232421D01*
X1136136Y227448D01*
X1136183Y227286D01*
X1136174Y226983D01*
X1136047Y226707D01*
X1135823Y226503D01*
X1135537Y226402D01*
X1135234Y226421D01*
X1133744Y226820D01*
X1126856Y226820D01*
X1120203Y225037D01*
X1114237Y221593D01*
X1112805Y220161D01*
X1112585Y220008D01*
X1112290Y219938D01*
X1111991Y219989D01*
X1111736Y220152D01*
X1111564Y220402D01*
X1111504Y220699D01*
X1111504Y234311D01*
X1110611Y235204D01*
X1098335Y235204D01*
X1098072Y235251D01*
X1097814Y235410D01*
X1097638Y235658D01*
X1097573Y235954D01*
X1097629Y236252D01*
X1097796Y236505D01*
X1099952Y238660D01*
X1101344Y242021D01*
X1101344Y245659D01*
X1099952Y249020D01*
X1097380Y251592D01*
X1094019Y252984D01*
X1090381Y252984D01*
X1087020Y251592D01*
X1084448Y249020D01*
X1083294Y246233D01*
X1083150Y246008D01*
X1082904Y245830D01*
X1082608Y245763D01*
X1082310Y245816D01*
X1082055Y245982D01*
X1081886Y246233D01*
X1080493Y249595D01*
X1077635Y252453D01*
X1073901Y254000D01*
X1072642Y254000D01*
X1072642Y233680D01*
X1073901Y233680D01*
X1075189Y234213D01*
X1075444Y234270D01*
X1075743Y234224D01*
X1076001Y234065D01*
X1076177Y233818D01*
X1076242Y233521D01*
X1076186Y233223D01*
X1076019Y232971D01*
X1074288Y231240D01*
X1072896Y227879D01*
X1072896Y224241D01*
X1074288Y220880D01*
X1076860Y218308D01*
X1080221Y216916D01*
X1083859Y216916D01*
X1087220Y218308D01*
X1088613Y219702D01*
X1088833Y219855D01*
X1089128Y219924D01*
X1089427Y219874D01*
X1089682Y219710D01*
X1089854Y219460D01*
X1089914Y219163D01*
X1089914Y185413D01*
X1089858Y185127D01*
X1089691Y184874D01*
X1081064Y176247D01*
X1080823Y176084D01*
X1080525Y176024D01*
X1015793Y176024D01*
X1015631Y176041D01*
X1015354Y176163D01*
X1015146Y176384D01*
X1015040Y176669D01*
X1015054Y176971D01*
X1015185Y177245D01*
X1015412Y177446D01*
X1019363Y179727D01*
X1024233Y184597D01*
X1027677Y190563D01*
X1029460Y197216D01*
X1029460Y204104D01*
X1027677Y210757D01*
X1024233Y216723D01*
X1019363Y221593D01*
X1013397Y225037D01*
X1006744Y226820D01*
X999856Y226820D01*
X998366Y226421D01*
X998199Y226395D01*
X997899Y226444D01*
X997643Y226605D01*
X997469Y226854D01*
X997406Y227151D01*
X997464Y227448D01*
X999524Y232421D01*
X999524Y238079D01*
X997359Y243307D01*
X993357Y247309D01*
X988129Y249474D01*
X982471Y249474D01*
X977243Y247309D01*
X973241Y243307D01*
X971076Y238079D01*
X971076Y232421D01*
X973241Y227193D01*
X977243Y223191D01*
X982471Y221026D01*
X984831Y221026D01*
X985094Y220979D01*
X985352Y220820D01*
X985527Y220572D01*
X985592Y220276D01*
X985537Y219978D01*
X985369Y219725D01*
X982367Y216723D01*
X978923Y210757D01*
X977140Y204104D01*
X977140Y197216D01*
X978923Y190563D01*
X982367Y184597D01*
X987237Y179727D01*
X991188Y177446D01*
X991319Y177350D01*
X991499Y177105D01*
X991569Y176810D01*
X991518Y176511D01*
X991354Y176256D01*
X991104Y176084D01*
X990807Y176024D01*
X939593Y176024D01*
X939431Y176041D01*
X939154Y176163D01*
X938946Y176384D01*
X938840Y176669D01*
X938854Y176971D01*
X938985Y177245D01*
X939212Y177446D01*
X943163Y179727D01*
X948033Y184597D01*
X951477Y190563D01*
X953260Y197216D01*
X953260Y204104D01*
X951477Y210757D01*
X948033Y216723D01*
X945031Y219725D01*
X944878Y219945D01*
X944808Y220240D01*
X944859Y220539D01*
X945022Y220794D01*
X945272Y220966D01*
X945569Y221026D01*
X947929Y221026D01*
X953157Y223191D01*
X957159Y227193D01*
X959324Y232421D01*
X959324Y238079D01*
X957159Y243307D01*
X953157Y247309D01*
X947929Y249474D01*
X942271Y249474D01*
X937043Y247309D01*
X933041Y243307D01*
X930876Y238079D01*
X930876Y232421D01*
X932936Y227448D01*
X932983Y227286D01*
X932974Y226983D01*
X932847Y226707D01*
X932623Y226503D01*
X932337Y226402D01*
X932034Y226421D01*
X930544Y226820D01*
X923656Y226820D01*
X917003Y225037D01*
X911037Y221593D01*
X909605Y220161D01*
X909385Y220008D01*
X909090Y219938D01*
X908791Y219989D01*
X908536Y220152D01*
X908364Y220402D01*
X908304Y220699D01*
X908304Y234311D01*
X907411Y235204D01*
X895135Y235204D01*
X894872Y235251D01*
X894614Y235410D01*
X894438Y235658D01*
X894373Y235954D01*
X894429Y236252D01*
X894596Y236505D01*
X896752Y238660D01*
X898144Y242021D01*
X898144Y245659D01*
X896752Y249020D01*
X894180Y251592D01*
X890819Y252984D01*
X887181Y252984D01*
X883820Y251592D01*
X881248Y249020D01*
X880094Y246233D01*
X879950Y246008D01*
X879704Y245830D01*
X879408Y245763D01*
X879110Y245816D01*
X878855Y245982D01*
X878686Y246233D01*
X877293Y249595D01*
X874435Y252453D01*
X870701Y254000D01*
X869442Y254000D01*
X869442Y233680D01*
X870701Y233680D01*
X871989Y234213D01*
X872244Y234270D01*
X872543Y234224D01*
X872801Y234065D01*
X872977Y233818D01*
X873042Y233521D01*
X872986Y233223D01*
X872819Y232971D01*
X871088Y231240D01*
X869696Y227879D01*
X869696Y224241D01*
X871088Y220880D01*
X873660Y218308D01*
X877021Y216916D01*
X880659Y216916D01*
X884020Y218308D01*
X885413Y219702D01*
X885633Y219855D01*
X885928Y219924D01*
X886227Y219874D01*
X886482Y219710D01*
X886654Y219460D01*
X886714Y219163D01*
X886714Y185413D01*
X886658Y185127D01*
X886491Y184874D01*
X877864Y176247D01*
X877623Y176084D01*
X877325Y176024D01*
X812593Y176024D01*
X812431Y176041D01*
X812154Y176163D01*
X811946Y176384D01*
X811840Y176669D01*
X811854Y176971D01*
X811985Y177245D01*
X812212Y177446D01*
X816163Y179727D01*
X821033Y184597D01*
X824477Y190563D01*
X826260Y197216D01*
X826260Y204104D01*
X824477Y210757D01*
X821033Y216723D01*
X816163Y221593D01*
X810197Y225037D01*
X803544Y226820D01*
X796656Y226820D01*
X795166Y226421D01*
X794999Y226395D01*
X794699Y226444D01*
X794443Y226605D01*
X794269Y226854D01*
X794206Y227151D01*
X794264Y227448D01*
X796324Y232421D01*
X796324Y238079D01*
X794159Y243307D01*
X790157Y247309D01*
X784929Y249474D01*
X779271Y249474D01*
X774043Y247309D01*
X770041Y243307D01*
X767876Y238079D01*
X767876Y232421D01*
X770041Y227193D01*
X774043Y223191D01*
X779271Y221026D01*
X781631Y221026D01*
X781894Y220979D01*
X782152Y220820D01*
X782327Y220572D01*
X782392Y220276D01*
X782337Y219978D01*
X782169Y219725D01*
X779167Y216723D01*
X775723Y210757D01*
X773940Y204104D01*
X773940Y197216D01*
X775723Y190563D01*
X779167Y184597D01*
X784037Y179727D01*
X787988Y177446D01*
X788119Y177350D01*
X788299Y177105D01*
X788369Y176810D01*
X788318Y176511D01*
X788154Y176256D01*
X787904Y176084D01*
X787607Y176024D01*
X736393Y176024D01*
X736231Y176041D01*
X735954Y176163D01*
X735746Y176384D01*
X735640Y176669D01*
X735654Y176971D01*
X735785Y177245D01*
X736012Y177446D01*
X739963Y179727D01*
X744833Y184597D01*
X748277Y190563D01*
X750060Y197216D01*
X750060Y204104D01*
X748277Y210757D01*
X744833Y216723D01*
X741831Y219725D01*
X741678Y219945D01*
X741608Y220240D01*
X741659Y220539D01*
X741822Y220794D01*
X742072Y220966D01*
X742369Y221026D01*
X744729Y221026D01*
X749957Y223191D01*
X753959Y227193D01*
X756124Y232421D01*
X756124Y238079D01*
X753959Y243307D01*
X749957Y247309D01*
X744729Y249474D01*
X739071Y249474D01*
X733843Y247309D01*
X729841Y243307D01*
X727676Y238079D01*
X727676Y232421D01*
X729736Y227448D01*
X729783Y227286D01*
X729774Y226983D01*
X729647Y226707D01*
X729423Y226503D01*
X729137Y226402D01*
X728834Y226421D01*
X727344Y226820D01*
X720456Y226820D01*
X713803Y225037D01*
X707837Y221593D01*
X706405Y220161D01*
X706185Y220008D01*
X705890Y219938D01*
X705591Y219989D01*
X705336Y220152D01*
X705164Y220402D01*
X705104Y220699D01*
X705104Y234311D01*
X704211Y235204D01*
X691935Y235204D01*
X691672Y235251D01*
X691414Y235410D01*
X691238Y235658D01*
X691173Y235954D01*
X691229Y236252D01*
X691396Y236505D01*
X693552Y238660D01*
X694944Y242021D01*
X694944Y245659D01*
X693552Y249020D01*
X690980Y251592D01*
X687619Y252984D01*
X683981Y252984D01*
X680620Y251592D01*
X678048Y249020D01*
X676894Y246233D01*
X676750Y246008D01*
X676504Y245830D01*
X676208Y245763D01*
X675910Y245816D01*
X675655Y245982D01*
X675486Y246233D01*
X674093Y249595D01*
X671235Y252453D01*
X667501Y254000D01*
X666242Y254000D01*
X666242Y233680D01*
X667501Y233680D01*
X668789Y234213D01*
X669044Y234270D01*
X669343Y234224D01*
X669601Y234065D01*
X669777Y233818D01*
X669842Y233521D01*
X669786Y233223D01*
X669619Y232971D01*
X667888Y231240D01*
X666496Y227879D01*
X666496Y224241D01*
X667888Y220880D01*
X670460Y218308D01*
X673821Y216916D01*
X677459Y216916D01*
X680820Y218308D01*
X682213Y219702D01*
X682433Y219855D01*
X682728Y219924D01*
X683027Y219874D01*
X683282Y219710D01*
X683454Y219460D01*
X683514Y219163D01*
X683514Y185413D01*
X683458Y185127D01*
X683291Y184874D01*
X674664Y176247D01*
X674423Y176084D01*
X674125Y176024D01*
X609393Y176024D01*
X609231Y176041D01*
X608954Y176163D01*
X608746Y176384D01*
X608640Y176669D01*
X608654Y176971D01*
X608785Y177245D01*
X609012Y177446D01*
X612963Y179727D01*
X617833Y184597D01*
X621277Y190563D01*
X623060Y197216D01*
X623060Y204104D01*
X621277Y210757D01*
X617833Y216723D01*
X612963Y221593D01*
X606997Y225037D01*
X600344Y226820D01*
X593456Y226820D01*
X591966Y226421D01*
X591799Y226395D01*
X591499Y226444D01*
X591243Y226605D01*
X591069Y226854D01*
X591006Y227151D01*
X591064Y227448D01*
X593124Y232421D01*
X593124Y238079D01*
X590959Y243307D01*
X586957Y247309D01*
X581729Y249474D01*
X576071Y249474D01*
X570843Y247309D01*
X566841Y243307D01*
X564676Y238079D01*
X564676Y232421D01*
X566841Y227193D01*
X570843Y223191D01*
X576071Y221026D01*
X578431Y221026D01*
X578694Y220979D01*
X578952Y220820D01*
X579127Y220572D01*
X579192Y220276D01*
X579137Y219978D01*
X578969Y219725D01*
X575967Y216723D01*
X572523Y210757D01*
X570740Y204104D01*
X570740Y197216D01*
X572523Y190563D01*
X575967Y184597D01*
X580837Y179727D01*
X584788Y177446D01*
X584919Y177350D01*
X585099Y177105D01*
X585169Y176810D01*
X585118Y176511D01*
X584954Y176256D01*
X584704Y176084D01*
X584407Y176024D01*
X533193Y176024D01*
X533031Y176041D01*
X532754Y176163D01*
X532546Y176384D01*
X532440Y176669D01*
X532454Y176971D01*
X532585Y177245D01*
X532812Y177446D01*
X536763Y179727D01*
X541633Y184597D01*
X545077Y190563D01*
X546860Y197216D01*
X546860Y204104D01*
X545077Y210757D01*
X541633Y216723D01*
X538631Y219725D01*
X538478Y219945D01*
X538408Y220240D01*
X538459Y220539D01*
X538622Y220794D01*
X538872Y220966D01*
X539169Y221026D01*
X541529Y221026D01*
X546757Y223191D01*
X550759Y227193D01*
X552924Y232421D01*
X552924Y238079D01*
X550759Y243307D01*
X546757Y247309D01*
X541529Y249474D01*
X535871Y249474D01*
X530643Y247309D01*
X526641Y243307D01*
X524476Y238079D01*
X524476Y232421D01*
X526536Y227448D01*
X526583Y227286D01*
X526574Y226983D01*
X526447Y226707D01*
X526223Y226503D01*
X525937Y226402D01*
X525634Y226421D01*
X524144Y226820D01*
X517256Y226820D01*
X510603Y225037D01*
X504637Y221593D01*
X503205Y220161D01*
X502985Y220008D01*
X502690Y219938D01*
X502391Y219989D01*
X502136Y220152D01*
X501964Y220402D01*
X501904Y220699D01*
X501904Y234311D01*
X501011Y235204D01*
X488735Y235204D01*
X488472Y235251D01*
X488214Y235410D01*
X488038Y235658D01*
X487973Y235954D01*
X488029Y236252D01*
X488196Y236505D01*
X490352Y238660D01*
X491744Y242021D01*
X491744Y245659D01*
X490352Y249020D01*
X487780Y251592D01*
X484419Y252984D01*
X480781Y252984D01*
X477420Y251592D01*
X474848Y249020D01*
X473694Y246233D01*
X473550Y246008D01*
X473304Y245830D01*
X473008Y245763D01*
X472710Y245816D01*
X472455Y245982D01*
X472286Y246233D01*
X470893Y249595D01*
X468035Y252453D01*
X464301Y254000D01*
X463042Y254000D01*
X463042Y233680D01*
X464301Y233680D01*
X465589Y234213D01*
X465844Y234270D01*
X466143Y234224D01*
X466401Y234065D01*
X466577Y233818D01*
X466642Y233521D01*
X466586Y233223D01*
X466419Y232971D01*
X464688Y231240D01*
X463296Y227879D01*
X463296Y224241D01*
X464688Y220880D01*
X467260Y218308D01*
X470621Y216916D01*
X474259Y216916D01*
X477620Y218308D01*
X479013Y219702D01*
X479233Y219855D01*
X479528Y219924D01*
X479827Y219874D01*
X480082Y219710D01*
X480254Y219460D01*
X480314Y219163D01*
X480314Y185413D01*
X480258Y185127D01*
X480091Y184874D01*
X471464Y176247D01*
X471223Y176084D01*
X470925Y176024D01*
X406193Y176024D01*
X406031Y176041D01*
X405754Y176163D01*
X405546Y176384D01*
X405440Y176669D01*
X405454Y176971D01*
X405585Y177245D01*
X405812Y177446D01*
X409763Y179727D01*
X414633Y184597D01*
X418077Y190563D01*
X419860Y197216D01*
X419860Y204104D01*
X418077Y210757D01*
X414633Y216723D01*
X409763Y221593D01*
X403797Y225037D01*
X397144Y226820D01*
X390256Y226820D01*
X388766Y226421D01*
X388599Y226395D01*
X388299Y226444D01*
X388043Y226605D01*
X387869Y226854D01*
X387806Y227151D01*
X387864Y227448D01*
X389924Y232421D01*
X389924Y238079D01*
X387759Y243307D01*
X383757Y247309D01*
X378529Y249474D01*
X372871Y249474D01*
X367643Y247309D01*
X363641Y243307D01*
X361476Y238079D01*
X361476Y232421D01*
X363641Y227193D01*
X367643Y223191D01*
X372871Y221026D01*
X375231Y221026D01*
X375494Y220979D01*
X375752Y220820D01*
X375927Y220572D01*
X375992Y220276D01*
X375937Y219978D01*
X375769Y219725D01*
X372767Y216723D01*
X369323Y210757D01*
X367540Y204104D01*
X367540Y197216D01*
X369323Y190563D01*
X372767Y184597D01*
X377637Y179727D01*
X381588Y177446D01*
X381719Y177350D01*
X381899Y177105D01*
X381969Y176810D01*
X381918Y176511D01*
X381754Y176256D01*
X381504Y176084D01*
X381207Y176024D01*
X329993Y176024D01*
X329831Y176041D01*
X329554Y176163D01*
X329346Y176384D01*
X329240Y176669D01*
X329254Y176971D01*
X329385Y177245D01*
X329612Y177446D01*
X333563Y179727D01*
X338433Y184597D01*
X341877Y190563D01*
X343660Y197216D01*
X343660Y204104D01*
X341877Y210757D01*
X338433Y216723D01*
X335431Y219725D01*
X335278Y219945D01*
X335208Y220240D01*
X335259Y220539D01*
X335422Y220794D01*
X335672Y220966D01*
X335969Y221026D01*
X338329Y221026D01*
X343557Y223191D01*
X347559Y227193D01*
X349724Y232421D01*
X349724Y238079D01*
X347559Y243307D01*
X343557Y247309D01*
X338329Y249474D01*
X332671Y249474D01*
X327443Y247309D01*
X323441Y243307D01*
X321276Y238079D01*
X321276Y232421D01*
X323336Y227448D01*
X323383Y227286D01*
X323374Y226983D01*
X323247Y226707D01*
X323023Y226503D01*
X322737Y226402D01*
X322434Y226421D01*
X320944Y226820D01*
X314056Y226820D01*
X307403Y225037D01*
X301437Y221593D01*
X300005Y220161D01*
X299785Y220008D01*
X299490Y219938D01*
X299191Y219989D01*
X298936Y220152D01*
X298764Y220402D01*
X298704Y220699D01*
X298704Y234311D01*
X297811Y235204D01*
X285535Y235204D01*
X285272Y235251D01*
X285014Y235410D01*
X284838Y235658D01*
X284773Y235954D01*
X284829Y236252D01*
X284996Y236505D01*
X287152Y238660D01*
X288544Y242021D01*
X288544Y245659D01*
X287152Y249020D01*
X284580Y251592D01*
X281219Y252984D01*
X277581Y252984D01*
X274220Y251592D01*
X271648Y249020D01*
X270494Y246233D01*
X270350Y246008D01*
X270104Y245830D01*
X269808Y245763D01*
X269510Y245816D01*
X269255Y245982D01*
X269086Y246233D01*
X267693Y249595D01*
X264835Y252453D01*
X261101Y254000D01*
X259842Y254000D01*
X259842Y233680D01*
X261101Y233680D01*
X262389Y234213D01*
X262644Y234270D01*
X262943Y234224D01*
X263201Y234065D01*
X263377Y233818D01*
X263442Y233521D01*
X263386Y233223D01*
X263219Y232971D01*
X261488Y231240D01*
X260096Y227879D01*
X260096Y224241D01*
X261488Y220880D01*
X264060Y218308D01*
X267421Y216916D01*
X271059Y216916D01*
X274420Y218308D01*
X275559Y219448D01*
X275779Y219601D01*
X276074Y219670D01*
X276373Y219620D01*
X276628Y219456D01*
X276800Y219206D01*
X276860Y218909D01*
X276860Y185159D01*
X276804Y184873D01*
X276637Y184620D01*
X268264Y176247D01*
X268023Y176084D01*
X267725Y176024D01*
X202993Y176024D01*
X202831Y176041D01*
X202554Y176163D01*
X202346Y176384D01*
X202240Y176669D01*
X202254Y176971D01*
X202385Y177245D01*
X202612Y177446D01*
X206563Y179727D01*
X211433Y184597D01*
X214877Y190563D01*
X216660Y197216D01*
X216660Y204104D01*
X214877Y210757D01*
X211433Y216723D01*
X206563Y221593D01*
X200597Y225037D01*
X193944Y226820D01*
X187056Y226820D01*
X185566Y226421D01*
X185399Y226395D01*
X185099Y226444D01*
X184843Y226605D01*
X184669Y226854D01*
X184606Y227151D01*
X184664Y227448D01*
X186724Y232421D01*
X186724Y238079D01*
X184559Y243307D01*
X180557Y247309D01*
X175329Y249474D01*
X169671Y249474D01*
X164443Y247309D01*
X160441Y243307D01*
X158276Y238079D01*
X158276Y232421D01*
X160441Y227193D01*
X164443Y223191D01*
X169671Y221026D01*
X172031Y221026D01*
X172294Y220979D01*
X172552Y220820D01*
X172727Y220572D01*
X172792Y220276D01*
X172737Y219978D01*
X172569Y219725D01*
X169567Y216723D01*
X166123Y210757D01*
X164340Y204104D01*
X164340Y197216D01*
X166123Y190563D01*
X169567Y184597D01*
X174437Y179727D01*
X178388Y177446D01*
X178519Y177350D01*
X178699Y177105D01*
X178769Y176810D01*
X178718Y176511D01*
X178554Y176256D01*
X178304Y176084D01*
X178007Y176024D01*
X126793Y176024D01*
X126631Y176041D01*
X126354Y176163D01*
X126146Y176384D01*
X126040Y176669D01*
X126054Y176971D01*
X126185Y177245D01*
X126412Y177446D01*
X130363Y179727D01*
X135233Y184597D01*
X138677Y190563D01*
X140460Y197216D01*
X140460Y204104D01*
X138677Y210757D01*
X135233Y216723D01*
X132231Y219725D01*
X132078Y219945D01*
X132008Y220240D01*
X132059Y220539D01*
X132222Y220794D01*
X132472Y220966D01*
X132769Y221026D01*
X135129Y221026D01*
X140357Y223191D01*
X144359Y227193D01*
X146524Y232421D01*
X146524Y238079D01*
X144359Y243307D01*
X140357Y247309D01*
X135129Y249474D01*
X129471Y249474D01*
X124243Y247309D01*
X120241Y243307D01*
X118076Y238079D01*
X118076Y232421D01*
X120136Y227448D01*
X120183Y227286D01*
X120174Y226983D01*
X120047Y226707D01*
X119823Y226503D01*
X119537Y226402D01*
X119234Y226421D01*
X117744Y226820D01*
X110856Y226820D01*
X104203Y225037D01*
X98237Y221593D01*
X96805Y220161D01*
X96585Y220008D01*
X96290Y219938D01*
X95991Y219989D01*
X95736Y220152D01*
X95564Y220402D01*
X95504Y220699D01*
X95504Y234311D01*
X94611Y235204D01*
X82335Y235204D01*
X82072Y235251D01*
X81814Y235410D01*
X81638Y235658D01*
X81573Y235954D01*
X81629Y236252D01*
X81796Y236505D01*
X83952Y238660D01*
X85344Y242021D01*
X85344Y245659D01*
X83952Y249020D01*
X81380Y251592D01*
X78019Y252984D01*
X74381Y252984D01*
X71020Y251592D01*
X68448Y249020D01*
X67294Y246233D01*
X67150Y246008D01*
X66904Y245830D01*
X66608Y245763D01*
X66310Y245816D01*
X66055Y245982D01*
X65886Y246233D01*
X64493Y249595D01*
X61635Y252453D01*
X57901Y254000D01*
X56642Y254000D01*
X56642Y233680D01*
X57901Y233680D01*
X59189Y234213D01*
X59444Y234270D01*
X59743Y234224D01*
X60001Y234065D01*
X60177Y233818D01*
X60242Y233521D01*
X60186Y233223D01*
X60019Y232971D01*
X58288Y231240D01*
X56896Y227879D01*
X56896Y224241D01*
X58288Y220880D01*
X60860Y218308D01*
X64221Y216916D01*
X67859Y216916D01*
X71220Y218308D01*
X72359Y219448D01*
X72579Y219601D01*
X72874Y219670D01*
X73173Y219620D01*
X73428Y219456D01*
X73600Y219206D01*
X73660Y218909D01*
X73660Y208019D01*
X73604Y207733D01*
X73437Y207480D01*
X65316Y199359D01*
X65075Y199196D01*
X64777Y199136D01*
X40042Y199136D01*
X39756Y199192D01*
X39503Y199359D01*
X23247Y215615D01*
X23094Y215835D01*
X23024Y216130D01*
X23075Y216429D01*
X23238Y216684D01*
X23489Y216856D01*
X23786Y216916D01*
X27219Y216916D01*
X30580Y218308D01*
X33152Y220880D01*
X34544Y224241D01*
X34544Y227879D01*
X33152Y231240D01*
X30580Y233812D01*
X27219Y235204D01*
X23581Y235204D01*
X20220Y233812D01*
X17648Y231240D01*
X16256Y227879D01*
X16256Y224446D01*
X16209Y224182D01*
X16050Y223924D01*
X15802Y223749D01*
X15506Y223684D01*
X15208Y223739D01*
X14955Y223907D01*
X6885Y231977D01*
X6722Y232219D01*
X6662Y232516D01*
X6662Y237647D01*
X6709Y237910D01*
X6868Y238168D01*
X7116Y238344D01*
X7412Y238409D01*
X7710Y238353D01*
X7963Y238186D01*
X10060Y236088D01*
X13421Y234696D01*
X17059Y234696D01*
X20420Y236088D01*
X22992Y238660D01*
X24384Y242021D01*
X24384Y245659D01*
X22992Y249020D01*
X20420Y251592D01*
X20190Y251687D01*
X19960Y251835D01*
X19785Y252083D01*
X19720Y252379D01*
X19775Y252677D01*
X19943Y252930D01*
X24854Y257841D01*
X25095Y258004D01*
X25393Y258064D01*
X207017Y258064D01*
X207303Y258008D01*
X207556Y257841D01*
X212994Y252403D01*
X213152Y252173D01*
X213217Y251877D01*
X213161Y251578D01*
X212994Y251326D01*
X210688Y249020D01*
X209296Y245659D01*
X209296Y242021D01*
X210688Y238660D01*
X213260Y236088D01*
X216621Y234696D01*
X220259Y234696D01*
X223620Y236088D01*
X226192Y238660D01*
X227584Y242021D01*
X227584Y245659D01*
X226192Y249020D01*
X223886Y251326D01*
X223728Y251556D01*
X223663Y251852D01*
X223719Y252150D01*
X223886Y252403D01*
X229324Y257841D01*
X229565Y258004D01*
X229863Y258064D01*
X410217Y258064D01*
X410503Y258008D01*
X410756Y257841D01*
X416194Y252403D01*
X416352Y252173D01*
X416417Y251877D01*
X416361Y251578D01*
X416194Y251326D01*
X413888Y249020D01*
X412496Y245659D01*
X412496Y242021D01*
X413888Y238660D01*
X416460Y236088D01*
X419821Y234696D01*
X423459Y234696D01*
X426820Y236088D01*
X429392Y238660D01*
X430784Y242021D01*
X430784Y245659D01*
X429392Y249020D01*
X427086Y251326D01*
X426928Y251556D01*
X426863Y251852D01*
X426919Y252150D01*
X427086Y252403D01*
X432524Y257841D01*
X432765Y258004D01*
X433063Y258064D01*
X614687Y258064D01*
X614973Y258008D01*
X615226Y257841D01*
X620137Y252930D01*
X620293Y252705D01*
X620360Y252409D01*
X620307Y252111D01*
X620142Y251857D01*
X619890Y251687D01*
X619660Y251592D01*
X617088Y249020D01*
X615696Y245659D01*
X615696Y242021D01*
X617088Y238660D01*
X619660Y236088D01*
X623021Y234696D01*
X626659Y234696D01*
X630020Y236088D01*
X632592Y238660D01*
X633984Y242021D01*
X633984Y245659D01*
X632592Y249020D01*
X630020Y251592D01*
X629790Y251687D01*
X629560Y251835D01*
X629385Y252083D01*
X629320Y252379D01*
X629375Y252677D01*
X629543Y252930D01*
X634454Y257841D01*
X634695Y258004D01*
X634993Y258064D01*
X816617Y258064D01*
X816903Y258008D01*
X817156Y257841D01*
X822594Y252403D01*
X822752Y252173D01*
X822817Y251877D01*
X822761Y251578D01*
X822594Y251326D01*
X820288Y249020D01*
X818896Y245659D01*
X818896Y242021D01*
X820288Y238660D01*
X822860Y236088D01*
X826221Y234696D01*
X829859Y234696D01*
X833220Y236088D01*
X835792Y238660D01*
X837184Y242021D01*
X837184Y245659D01*
X835792Y249020D01*
X833486Y251326D01*
X833328Y251556D01*
X833263Y251852D01*
X833319Y252150D01*
X833486Y252403D01*
X838924Y257841D01*
X839165Y258004D01*
X839463Y258064D01*
X1021087Y258064D01*
X1021373Y258008D01*
X1021626Y257841D01*
X1026537Y252930D01*
X1026693Y252705D01*
X1026760Y252409D01*
X1026707Y252111D01*
X1026542Y251857D01*
X1026290Y251687D01*
X1026060Y251592D01*
X1023488Y249020D01*
X1022096Y245659D01*
X1022096Y242021D01*
X1023488Y238660D01*
X1026060Y236088D01*
X1029421Y234696D01*
X1033059Y234696D01*
X1036420Y236088D01*
X1038992Y238660D01*
X1040384Y242021D01*
X1040384Y245659D01*
X1038992Y249020D01*
X1036420Y251592D01*
X1036190Y251687D01*
X1035960Y251835D01*
X1035785Y252083D01*
X1035720Y252379D01*
X1035775Y252677D01*
X1035943Y252930D01*
X1040854Y257841D01*
X1041095Y258004D01*
X1041393Y258064D01*
X1224287Y258064D01*
X1224573Y258008D01*
X1224826Y257841D01*
X1229737Y252930D01*
X1229893Y252705D01*
X1229960Y252409D01*
X1229907Y252111D01*
X1229742Y251857D01*
X1229490Y251687D01*
X1229260Y251592D01*
X1226688Y249020D01*
X1225296Y245659D01*
X1225296Y242021D01*
X1226688Y238660D01*
X1229260Y236088D01*
X1232621Y234696D01*
X1236259Y234696D01*
X1239620Y236088D01*
X1242192Y238660D01*
X1243584Y242021D01*
X1243584Y245659D01*
X1242192Y249020D01*
X1239620Y251592D01*
X1239390Y251687D01*
X1239160Y251835D01*
X1238985Y252083D01*
X1238920Y252379D01*
X1238975Y252677D01*
X1239143Y252930D01*
X1244054Y257841D01*
X1244295Y258004D01*
X1244593Y258064D01*
X1428757Y258064D01*
X1429043Y258008D01*
X1429296Y257841D01*
X1433835Y253302D01*
X1433991Y253077D01*
X1434058Y252781D01*
X1434005Y252483D01*
X1433840Y252229D01*
X1433588Y252059D01*
X1432460Y251592D01*
X1429888Y249020D01*
X1428496Y245659D01*
X1428496Y242021D01*
X1429888Y238660D01*
X1432460Y236088D01*
X1435821Y234696D01*
X1439459Y234696D01*
X1442820Y236088D01*
X1445392Y238660D01*
X1446784Y242021D01*
X1446784Y245659D01*
X1445392Y249020D01*
X1442820Y251592D01*
X1440396Y252596D01*
X1440158Y252752D01*
X1439986Y253002D01*
X1439926Y253300D01*
X1439926Y253677D01*
X1430967Y262636D01*
X1292098Y262636D01*
X1291823Y262687D01*
X1291568Y262851D01*
X1291396Y263101D01*
X1291336Y263398D01*
X1291336Y351337D01*
X1291392Y351623D01*
X1291559Y351875D01*
X1294356Y354672D01*
X1294356Y359068D01*
X1291248Y362176D01*
X1286852Y362176D01*
X1283744Y359068D01*
X1283744Y354672D01*
X1286541Y351875D01*
X1286704Y351634D01*
X1286764Y351337D01*
X1286764Y263398D01*
X1286713Y263123D01*
X1286549Y262868D01*
X1286299Y262696D01*
X1286002Y262636D01*
X1242383Y262636D01*
X1234979Y255232D01*
X1234748Y255074D01*
X1234452Y255009D01*
X1234154Y255064D01*
X1233901Y255232D01*
X1226497Y262636D01*
X1039183Y262636D01*
X1031779Y255232D01*
X1031548Y255074D01*
X1031252Y255009D01*
X1030954Y255064D01*
X1030701Y255232D01*
X1023297Y262636D01*
X837253Y262636D01*
X828579Y253962D01*
X828348Y253804D01*
X828052Y253739D01*
X827754Y253794D01*
X827501Y253962D01*
X818827Y262636D01*
X632783Y262636D01*
X625379Y255232D01*
X625148Y255074D01*
X624852Y255009D01*
X624554Y255064D01*
X624301Y255232D01*
X616897Y262636D01*
X430853Y262636D01*
X422179Y253962D01*
X421948Y253804D01*
X421652Y253739D01*
X421354Y253794D01*
X421101Y253962D01*
X412427Y262636D01*
X227653Y262636D01*
X218979Y253962D01*
X218748Y253804D01*
X218452Y253739D01*
X218154Y253794D01*
X217901Y253962D01*
X209227Y262636D01*
X23183Y262636D01*
X15779Y255232D01*
X15548Y255074D01*
X15252Y255009D01*
X14954Y255064D01*
X14701Y255232D01*
X9933Y260000D01*
X9770Y260241D01*
X9710Y260539D01*
X9710Y384316D01*
X9755Y384574D01*
X9912Y384833D01*
X10158Y385011D01*
X10454Y385078D01*
X10752Y385025D01*
X11007Y384859D01*
X11176Y384608D01*
X11993Y382635D01*
X14335Y380293D01*
X17394Y379026D01*
X20706Y379026D01*
X23765Y380293D01*
X26107Y382635D01*
X27374Y385694D01*
X27374Y389006D01*
X26107Y392065D01*
X23765Y394407D01*
X20706Y395674D01*
X17394Y395674D01*
X14335Y394407D01*
X11993Y392065D01*
X11176Y390092D01*
X11036Y389871D01*
X10791Y389692D01*
X10496Y389622D01*
X10197Y389673D01*
X9942Y389836D01*
X9770Y390087D01*
X9710Y390384D01*
X9710Y409716D01*
X9755Y409974D01*
X9912Y410233D01*
X10158Y410411D01*
X10454Y410478D01*
X10752Y410425D01*
X11007Y410259D01*
X11176Y410008D01*
X11993Y408035D01*
X14335Y405693D01*
X17394Y404426D01*
X20706Y404426D01*
X23765Y405693D01*
X26107Y408035D01*
X27374Y411094D01*
X27374Y414406D01*
X26107Y417465D01*
X23765Y419807D01*
X20706Y421074D01*
X17394Y421074D01*
X14335Y419807D01*
X11993Y417465D01*
X11176Y415492D01*
X11036Y415271D01*
X10791Y415092D01*
X10496Y415022D01*
X10197Y415073D01*
X9942Y415236D01*
X9770Y415487D01*
X9710Y415784D01*
X9710Y425261D01*
X9766Y425547D01*
X9933Y425800D01*
X14605Y430472D01*
X14841Y430633D01*
X15138Y430695D01*
X15435Y430637D01*
X17394Y429826D01*
X20706Y429826D01*
X23765Y431093D01*
X26107Y433435D01*
X27374Y436494D01*
X27374Y439806D01*
X26107Y442865D01*
X23765Y445207D01*
X20706Y446474D01*
X17394Y446474D01*
X14335Y445207D01*
X11993Y442865D01*
X10726Y439806D01*
X10726Y436494D01*
X11537Y434535D01*
X11595Y434256D01*
X11540Y433958D01*
X11372Y433705D01*
X5138Y427471D01*
X5138Y406335D01*
X5091Y406071D01*
X4932Y405813D01*
X4684Y405638D01*
X4388Y405573D01*
X4090Y405628D01*
X3837Y405796D01*
X1328Y408305D01*
X1167Y408541D01*
X1105Y408838D01*
X1163Y409135D01*
X1974Y411094D01*
X1974Y414406D01*
X707Y417465D01*
X-1635Y419807D01*
X-4694Y421074D01*
X-8006Y421074D01*
X-11065Y419807D01*
X-13407Y417465D01*
X-14674Y414406D01*
X-14674Y411094D01*
X-13407Y408035D01*
X-11065Y405693D01*
X-8006Y404426D01*
X-4694Y404426D01*
X-2735Y405237D01*
X-2456Y405295D01*
X-2158Y405240D01*
X-1905Y405072D01*
X1867Y401300D01*
X2030Y401059D01*
X2090Y400761D01*
X2090Y392522D01*
X2043Y392258D01*
X1884Y392000D01*
X1636Y391825D01*
X1340Y391760D01*
X1042Y391815D01*
X789Y391983D01*
X-1635Y394407D01*
X-4694Y395674D01*
X-8006Y395674D01*
X-11065Y394407D01*
X-13407Y392065D01*
X-14674Y389006D01*
X-14674Y385694D01*
X-13407Y382635D01*
X-11065Y380293D01*
X-8006Y379026D01*
X-4694Y379026D01*
X-2735Y379837D01*
X-2456Y379895D01*
X-2158Y379840D01*
X-1905Y379672D01*
X-1181Y378948D01*
X-1018Y378707D01*
X-958Y378409D01*
X-958Y228865D01*
X37153Y190754D01*
X58427Y190754D01*
X58713Y190698D01*
X58966Y190531D01*
X65591Y183906D01*
X65754Y183665D01*
X65814Y183367D01*
X65814Y179412D01*
X68922Y176304D01*
X73318Y176304D01*
X75641Y178628D01*
X75872Y178786D01*
X76168Y178851D01*
X76466Y178795D01*
X76719Y178628D01*
X86943Y168404D01*
X263172Y168404D01*
X263447Y168353D01*
X263702Y168189D01*
X263874Y167939D01*
X263934Y167642D01*
X263934Y165442D01*
X267042Y162334D01*
X271438Y162334D01*
X274546Y165442D01*
X274546Y167642D01*
X274597Y167917D01*
X274761Y168172D01*
X275011Y168344D01*
X275308Y168404D01*
X466372Y168404D01*
X466647Y168353D01*
X466902Y168189D01*
X467074Y167939D01*
X467134Y167642D01*
X467134Y165414D01*
X470242Y162306D01*
G37*
G36*
X1492227Y407790D02*
X1499253Y407790D01*
X1505744Y410479D01*
X1510711Y415446D01*
X1513400Y421937D01*
X1513400Y428963D01*
X1510711Y435454D01*
X1505744Y440421D01*
X1499253Y443110D01*
X1492227Y443110D01*
X1485736Y440421D01*
X1480769Y435454D01*
X1478080Y428963D01*
X1478080Y421937D01*
X1480769Y415446D01*
X1485736Y410479D01*
X1492227Y407790D01*
G37*
G36*
X-8208Y428810D02*
X-7112Y428810D01*
X-7112Y437388D01*
X-15690Y437388D01*
X-15690Y436292D01*
X-14268Y432859D01*
X-11641Y430232D01*
X-8208Y428810D01*
G37*
G36*
X-5588Y428810D02*
X-4492Y428810D01*
X-1059Y430232D01*
X1568Y432859D01*
X2990Y436292D01*
X2990Y437388D01*
X-5588Y437388D01*
X-5588Y428810D01*
G37*
G36*
X1089710Y396362D02*
X1097788Y396362D01*
X1097788Y404440D01*
X1096792Y404440D01*
X1093543Y403094D01*
X1091056Y400607D01*
X1089710Y397358D01*
X1089710Y396362D01*
G37*
G36*
X1099312Y396362D02*
X1107390Y396362D01*
X1107390Y397358D01*
X1106044Y400607D01*
X1103557Y403094D01*
X1100308Y404440D01*
X1099312Y404440D01*
X1099312Y396362D01*
G37*
G36*
X1035812Y396362D02*
X1043890Y396362D01*
X1043890Y397358D01*
X1042544Y400607D01*
X1040057Y403094D01*
X1036808Y404440D01*
X1035812Y404440D01*
X1035812Y396362D01*
G37*
G36*
X921512Y396362D02*
X929590Y396362D01*
X929590Y397358D01*
X928244Y400607D01*
X925757Y403094D01*
X922508Y404440D01*
X921512Y404440D01*
X921512Y396362D01*
G37*
G36*
X911910Y396362D02*
X919988Y396362D01*
X919988Y404440D01*
X918992Y404440D01*
X915743Y403094D01*
X913256Y400607D01*
X911910Y397358D01*
X911910Y396362D01*
G37*
G36*
X1026210Y396362D02*
X1034288Y396362D01*
X1034288Y404440D01*
X1033292Y404440D01*
X1030043Y403094D01*
X1027556Y400607D01*
X1026210Y397358D01*
X1026210Y396362D01*
G37*
G36*
X982694Y387776D02*
X985806Y387776D01*
X988682Y388967D01*
X990883Y391168D01*
X992074Y394044D01*
X992074Y397156D01*
X990883Y400032D01*
X988682Y402233D01*
X985806Y403424D01*
X982694Y403424D01*
X979818Y402233D01*
X977617Y400032D01*
X976426Y397156D01*
X976426Y394044D01*
X977617Y391168D01*
X979818Y388967D01*
X982694Y387776D01*
G37*
G36*
X868394Y387776D02*
X871506Y387776D01*
X874382Y388967D01*
X876583Y391168D01*
X877774Y394044D01*
X877774Y397156D01*
X876583Y400032D01*
X874382Y402233D01*
X871506Y403424D01*
X868394Y403424D01*
X865518Y402233D01*
X863317Y400032D01*
X862126Y397156D01*
X862126Y394044D01*
X863317Y391168D01*
X865518Y388967D01*
X868394Y387776D01*
G37*
G36*
X429602Y267744D02*
X433998Y267744D01*
X437106Y270852D01*
X437106Y275248D01*
X434309Y278045D01*
X434146Y278286D01*
X434086Y278583D01*
X434086Y360687D01*
X434142Y360973D01*
X434309Y361226D01*
X438874Y365791D01*
X439115Y365954D01*
X439413Y366014D01*
X572447Y366014D01*
X581904Y375471D01*
X582145Y375634D01*
X582443Y375694D01*
X586398Y375694D01*
X589506Y378802D01*
X589506Y380781D01*
X589553Y381045D01*
X589712Y381303D01*
X589960Y381478D01*
X590256Y381543D01*
X590554Y381488D01*
X590807Y381320D01*
X593413Y378714D01*
X691141Y378714D01*
X691405Y378667D01*
X691663Y378508D01*
X691838Y378260D01*
X691903Y377964D01*
X691848Y377666D01*
X691680Y377413D01*
X632714Y318447D01*
X632714Y278583D01*
X632658Y278297D01*
X632491Y278045D01*
X629694Y275248D01*
X629694Y270852D01*
X632802Y267744D01*
X637198Y267744D01*
X640306Y270852D01*
X640306Y275248D01*
X637509Y278045D01*
X637346Y278286D01*
X637286Y278583D01*
X637286Y316237D01*
X637342Y316523D01*
X637509Y316776D01*
X695826Y375093D01*
X696056Y375251D01*
X696352Y375316D01*
X696651Y375260D01*
X696903Y375093D01*
X697418Y374578D01*
X701814Y374578D01*
X704922Y377686D01*
X704922Y382082D01*
X701814Y385190D01*
X697418Y385190D01*
X695737Y383509D01*
X695495Y383346D01*
X695198Y383286D01*
X595623Y383286D01*
X595337Y383342D01*
X595084Y383509D01*
X589729Y388864D01*
X589566Y389105D01*
X589506Y389403D01*
X589506Y393358D01*
X586398Y396466D01*
X582002Y396466D01*
X578894Y393358D01*
X578894Y388962D01*
X581237Y386619D01*
X581395Y386388D01*
X581460Y386092D01*
X581405Y385794D01*
X581237Y385541D01*
X578894Y383198D01*
X578894Y379243D01*
X578838Y378957D01*
X578671Y378704D01*
X570776Y370809D01*
X570535Y370646D01*
X570237Y370586D01*
X437203Y370586D01*
X429514Y362897D01*
X429514Y278583D01*
X429458Y278297D01*
X429291Y278045D01*
X426494Y275248D01*
X426494Y270852D01*
X429602Y267744D01*
G37*
G36*
X918992Y386760D02*
X919988Y386760D01*
X919988Y394838D01*
X911910Y394838D01*
X911910Y393842D01*
X913256Y390593D01*
X915743Y388106D01*
X918992Y386760D01*
G37*
G36*
X921512Y386760D02*
X922508Y386760D01*
X925757Y388106D01*
X928244Y390593D01*
X929590Y393842D01*
X929590Y394838D01*
X921512Y394838D01*
X921512Y386760D01*
G37*
G36*
X1033292Y386760D02*
X1034288Y386760D01*
X1034288Y394838D01*
X1026210Y394838D01*
X1026210Y393842D01*
X1027556Y390593D01*
X1030043Y388106D01*
X1033292Y386760D01*
G37*
G36*
X1035812Y386760D02*
X1036808Y386760D01*
X1040057Y388106D01*
X1042544Y390593D01*
X1043890Y393842D01*
X1043890Y394838D01*
X1035812Y394838D01*
X1035812Y386760D01*
G37*
G36*
X1096792Y386760D02*
X1097788Y386760D01*
X1097788Y394838D01*
X1089710Y394838D01*
X1089710Y393842D01*
X1091056Y390593D01*
X1093543Y388106D01*
X1096792Y386760D01*
G37*
G36*
X1099312Y386760D02*
X1100308Y386760D01*
X1103557Y388106D01*
X1106044Y390593D01*
X1107390Y393842D01*
X1107390Y394838D01*
X1099312Y394838D01*
X1099312Y386760D01*
G37*
G36*
X23202Y299494D02*
X27598Y299494D01*
X30706Y302602D01*
X30706Y306557D01*
X30762Y306843D01*
X30929Y307096D01*
X102324Y378491D01*
X102565Y378654D01*
X102863Y378714D01*
X261167Y378714D01*
X261453Y378658D01*
X261705Y378491D01*
X264502Y375694D01*
X268898Y375694D01*
X272006Y378802D01*
X272006Y383198D01*
X268898Y386306D01*
X264502Y386306D01*
X261705Y383509D01*
X261464Y383346D01*
X261167Y383286D01*
X100653Y383286D01*
X27696Y310329D01*
X27455Y310166D01*
X27157Y310106D01*
X23202Y310106D01*
X20094Y306998D01*
X20094Y302602D01*
X23202Y299494D01*
G37*
G36*
X226402Y267744D02*
X230798Y267744D01*
X233906Y270852D01*
X233906Y275248D01*
X231109Y278045D01*
X230946Y278286D01*
X230886Y278583D01*
X230886Y309887D01*
X230942Y310173D01*
X231109Y310426D01*
X292824Y372141D01*
X293065Y372304D01*
X293363Y372364D01*
X369117Y372364D01*
X369403Y372308D01*
X369655Y372141D01*
X372452Y369344D01*
X376848Y369344D01*
X379956Y372452D01*
X379956Y376848D01*
X376848Y379956D01*
X372452Y379956D01*
X369655Y377159D01*
X369414Y376996D01*
X369117Y376936D01*
X291153Y376936D01*
X226314Y312097D01*
X226314Y278583D01*
X226258Y278297D01*
X226091Y278045D01*
X223294Y275248D01*
X223294Y270852D01*
X226402Y267744D01*
G37*
G36*
X43901Y216916D02*
X47539Y216916D01*
X50900Y218308D01*
X53472Y220880D01*
X54864Y224241D01*
X54864Y227879D01*
X53472Y231240D01*
X51741Y232971D01*
X51591Y233184D01*
X51519Y233479D01*
X51567Y233778D01*
X51728Y234035D01*
X51977Y234209D01*
X52274Y234271D01*
X52572Y234213D01*
X53859Y233680D01*
X55118Y233680D01*
X55118Y254000D01*
X53859Y254000D01*
X50125Y252453D01*
X47267Y249595D01*
X45874Y246233D01*
X45730Y246008D01*
X45484Y245830D01*
X45188Y245763D01*
X44890Y245816D01*
X44636Y245982D01*
X44466Y246233D01*
X43312Y249020D01*
X40740Y251592D01*
X37379Y252984D01*
X33741Y252984D01*
X30380Y251592D01*
X27808Y249020D01*
X26416Y245659D01*
X26416Y242021D01*
X27808Y238660D01*
X30380Y236088D01*
X33741Y234696D01*
X37379Y234696D01*
X40740Y236088D01*
X43312Y238660D01*
X44466Y241447D01*
X44610Y241672D01*
X44856Y241850D01*
X45152Y241917D01*
X45451Y241864D01*
X45705Y241698D01*
X45874Y241447D01*
X47267Y238085D01*
X49283Y236068D01*
X49434Y235854D01*
X49506Y235560D01*
X49458Y235260D01*
X49296Y235004D01*
X49047Y234830D01*
X48751Y234767D01*
X48453Y234825D01*
X47539Y235204D01*
X43901Y235204D01*
X40540Y233812D01*
X37968Y231240D01*
X36576Y227879D01*
X36576Y224241D01*
X37968Y220880D01*
X40540Y218308D01*
X43901Y216916D01*
G37*
G36*
X1263101Y216916D02*
X1266739Y216916D01*
X1270100Y218308D01*
X1272672Y220880D01*
X1274064Y224241D01*
X1274064Y227879D01*
X1272672Y231240D01*
X1270941Y232971D01*
X1270791Y233184D01*
X1270719Y233479D01*
X1270767Y233778D01*
X1270928Y234035D01*
X1271177Y234209D01*
X1271474Y234271D01*
X1271772Y234213D01*
X1273059Y233680D01*
X1274318Y233680D01*
X1274318Y254000D01*
X1273059Y254000D01*
X1269325Y252453D01*
X1266467Y249595D01*
X1265074Y246233D01*
X1264930Y246008D01*
X1264684Y245830D01*
X1264388Y245763D01*
X1264090Y245816D01*
X1263836Y245982D01*
X1263666Y246233D01*
X1262512Y249020D01*
X1259940Y251592D01*
X1256579Y252984D01*
X1252941Y252984D01*
X1249580Y251592D01*
X1247008Y249020D01*
X1245616Y245659D01*
X1245616Y242021D01*
X1247008Y238660D01*
X1249580Y236088D01*
X1252941Y234696D01*
X1256579Y234696D01*
X1259940Y236088D01*
X1262512Y238660D01*
X1263666Y241447D01*
X1263810Y241672D01*
X1264056Y241850D01*
X1264352Y241917D01*
X1264651Y241864D01*
X1264905Y241698D01*
X1265074Y241447D01*
X1266467Y238085D01*
X1268483Y236068D01*
X1268634Y235854D01*
X1268706Y235560D01*
X1268658Y235260D01*
X1268496Y235004D01*
X1268247Y234830D01*
X1267951Y234767D01*
X1267653Y234825D01*
X1266739Y235204D01*
X1263101Y235204D01*
X1259740Y233812D01*
X1257168Y231240D01*
X1255776Y227879D01*
X1255776Y224241D01*
X1257168Y220880D01*
X1259740Y218308D01*
X1263101Y216916D01*
G37*
G36*
X653501Y216916D02*
X657139Y216916D01*
X660500Y218308D01*
X663072Y220880D01*
X664464Y224241D01*
X664464Y227879D01*
X663072Y231240D01*
X661341Y232971D01*
X661191Y233184D01*
X661119Y233479D01*
X661167Y233778D01*
X661328Y234035D01*
X661577Y234209D01*
X661874Y234271D01*
X662172Y234213D01*
X663459Y233680D01*
X664718Y233680D01*
X664718Y254000D01*
X663459Y254000D01*
X659725Y252453D01*
X656867Y249595D01*
X655474Y246233D01*
X655330Y246008D01*
X655084Y245830D01*
X654788Y245763D01*
X654490Y245816D01*
X654236Y245982D01*
X654066Y246233D01*
X652912Y249020D01*
X650340Y251592D01*
X646979Y252984D01*
X643341Y252984D01*
X639980Y251592D01*
X637408Y249020D01*
X636016Y245659D01*
X636016Y242021D01*
X637408Y238660D01*
X639980Y236088D01*
X643341Y234696D01*
X646979Y234696D01*
X650340Y236088D01*
X652912Y238660D01*
X654066Y241447D01*
X654210Y241672D01*
X654456Y241850D01*
X654752Y241917D01*
X655051Y241864D01*
X655305Y241698D01*
X655474Y241447D01*
X656867Y238085D01*
X658883Y236068D01*
X659034Y235854D01*
X659106Y235560D01*
X659058Y235260D01*
X658896Y235004D01*
X658647Y234830D01*
X658351Y234767D01*
X658053Y234825D01*
X657139Y235204D01*
X653501Y235204D01*
X650140Y233812D01*
X647568Y231240D01*
X646176Y227879D01*
X646176Y224241D01*
X647568Y220880D01*
X650140Y218308D01*
X653501Y216916D01*
G37*
G36*
X856701Y216916D02*
X860339Y216916D01*
X863700Y218308D01*
X866272Y220880D01*
X867664Y224241D01*
X867664Y227879D01*
X866272Y231240D01*
X864541Y232971D01*
X864391Y233184D01*
X864319Y233479D01*
X864367Y233778D01*
X864528Y234035D01*
X864777Y234209D01*
X865074Y234271D01*
X865372Y234213D01*
X866659Y233680D01*
X867918Y233680D01*
X867918Y254000D01*
X866659Y254000D01*
X862925Y252453D01*
X860067Y249595D01*
X858674Y246233D01*
X858530Y246008D01*
X858284Y245830D01*
X857988Y245763D01*
X857690Y245816D01*
X857436Y245982D01*
X857266Y246233D01*
X856112Y249020D01*
X853540Y251592D01*
X850179Y252984D01*
X846541Y252984D01*
X843180Y251592D01*
X840608Y249020D01*
X839216Y245659D01*
X839216Y242021D01*
X840608Y238660D01*
X843180Y236088D01*
X846541Y234696D01*
X850179Y234696D01*
X853540Y236088D01*
X856112Y238660D01*
X857266Y241447D01*
X857410Y241672D01*
X857656Y241850D01*
X857952Y241917D01*
X858251Y241864D01*
X858505Y241698D01*
X858674Y241447D01*
X860067Y238085D01*
X862083Y236068D01*
X862234Y235854D01*
X862306Y235560D01*
X862258Y235260D01*
X862096Y235004D01*
X861847Y234830D01*
X861551Y234767D01*
X861253Y234825D01*
X860339Y235204D01*
X856701Y235204D01*
X853340Y233812D01*
X850768Y231240D01*
X849376Y227879D01*
X849376Y224241D01*
X850768Y220880D01*
X853340Y218308D01*
X856701Y216916D01*
G37*
G36*
X450301Y216916D02*
X453939Y216916D01*
X457300Y218308D01*
X459872Y220880D01*
X461264Y224241D01*
X461264Y227879D01*
X459872Y231240D01*
X458141Y232971D01*
X457991Y233184D01*
X457919Y233479D01*
X457967Y233778D01*
X458128Y234035D01*
X458377Y234209D01*
X458674Y234271D01*
X458972Y234213D01*
X460259Y233680D01*
X461518Y233680D01*
X461518Y254000D01*
X460259Y254000D01*
X456525Y252453D01*
X453667Y249595D01*
X452274Y246233D01*
X452130Y246008D01*
X451884Y245830D01*
X451588Y245763D01*
X451290Y245816D01*
X451036Y245982D01*
X450866Y246233D01*
X449712Y249020D01*
X447140Y251592D01*
X443779Y252984D01*
X440141Y252984D01*
X436780Y251592D01*
X434208Y249020D01*
X432816Y245659D01*
X432816Y242021D01*
X434208Y238660D01*
X436780Y236088D01*
X440141Y234696D01*
X443779Y234696D01*
X447140Y236088D01*
X449712Y238660D01*
X450866Y241447D01*
X451010Y241672D01*
X451256Y241850D01*
X451552Y241917D01*
X451851Y241864D01*
X452105Y241698D01*
X452274Y241447D01*
X453667Y238085D01*
X455683Y236068D01*
X455834Y235854D01*
X455906Y235560D01*
X455858Y235260D01*
X455696Y235004D01*
X455447Y234830D01*
X455151Y234767D01*
X454853Y234825D01*
X453939Y235204D01*
X450301Y235204D01*
X446940Y233812D01*
X444368Y231240D01*
X442976Y227879D01*
X442976Y224241D01*
X444368Y220880D01*
X446940Y218308D01*
X450301Y216916D01*
G37*
G36*
X1466301Y216916D02*
X1469939Y216916D01*
X1473300Y218308D01*
X1475872Y220880D01*
X1477264Y224241D01*
X1477264Y227879D01*
X1475872Y231240D01*
X1474141Y232971D01*
X1473991Y233184D01*
X1473919Y233479D01*
X1473967Y233778D01*
X1474128Y234035D01*
X1474377Y234209D01*
X1474674Y234271D01*
X1474972Y234213D01*
X1476259Y233680D01*
X1477518Y233680D01*
X1477518Y254000D01*
X1476259Y254000D01*
X1472525Y252453D01*
X1469667Y249595D01*
X1468274Y246233D01*
X1468130Y246008D01*
X1467884Y245830D01*
X1467588Y245763D01*
X1467290Y245816D01*
X1467036Y245982D01*
X1466866Y246233D01*
X1465712Y249020D01*
X1463140Y251592D01*
X1459779Y252984D01*
X1456141Y252984D01*
X1452780Y251592D01*
X1450208Y249020D01*
X1448816Y245659D01*
X1448816Y242021D01*
X1450208Y238660D01*
X1452780Y236088D01*
X1456141Y234696D01*
X1459779Y234696D01*
X1463140Y236088D01*
X1465712Y238660D01*
X1466866Y241447D01*
X1467010Y241672D01*
X1467256Y241850D01*
X1467552Y241917D01*
X1467851Y241864D01*
X1468105Y241698D01*
X1468274Y241447D01*
X1469667Y238085D01*
X1471683Y236068D01*
X1471834Y235854D01*
X1471906Y235560D01*
X1471858Y235260D01*
X1471696Y235004D01*
X1471447Y234830D01*
X1471151Y234767D01*
X1470853Y234825D01*
X1469939Y235204D01*
X1466301Y235204D01*
X1462940Y233812D01*
X1460368Y231240D01*
X1458976Y227879D01*
X1458976Y224241D01*
X1460368Y220880D01*
X1462940Y218308D01*
X1466301Y216916D01*
G37*
G36*
X247101Y216916D02*
X250739Y216916D01*
X254100Y218308D01*
X256672Y220880D01*
X258064Y224241D01*
X258064Y227879D01*
X256672Y231240D01*
X254941Y232971D01*
X254791Y233184D01*
X254719Y233479D01*
X254767Y233778D01*
X254928Y234035D01*
X255177Y234209D01*
X255474Y234271D01*
X255772Y234213D01*
X257059Y233680D01*
X258318Y233680D01*
X258318Y254000D01*
X257059Y254000D01*
X253325Y252453D01*
X250467Y249595D01*
X249074Y246233D01*
X248930Y246008D01*
X248684Y245830D01*
X248388Y245763D01*
X248090Y245816D01*
X247836Y245982D01*
X247666Y246233D01*
X246512Y249020D01*
X243940Y251592D01*
X240579Y252984D01*
X236941Y252984D01*
X233580Y251592D01*
X231008Y249020D01*
X229616Y245659D01*
X229616Y242021D01*
X231008Y238660D01*
X233580Y236088D01*
X236941Y234696D01*
X240579Y234696D01*
X243940Y236088D01*
X246512Y238660D01*
X247666Y241447D01*
X247810Y241672D01*
X248056Y241850D01*
X248352Y241917D01*
X248651Y241864D01*
X248905Y241698D01*
X249074Y241447D01*
X250467Y238085D01*
X252483Y236068D01*
X252634Y235854D01*
X252706Y235560D01*
X252658Y235260D01*
X252496Y235004D01*
X252247Y234830D01*
X251951Y234767D01*
X251653Y234825D01*
X250739Y235204D01*
X247101Y235204D01*
X243740Y233812D01*
X241168Y231240D01*
X239776Y227879D01*
X239776Y224241D01*
X241168Y220880D01*
X243740Y218308D01*
X247101Y216916D01*
G37*
G36*
X1059901Y216916D02*
X1063539Y216916D01*
X1066900Y218308D01*
X1069472Y220880D01*
X1070864Y224241D01*
X1070864Y227879D01*
X1069472Y231240D01*
X1067741Y232971D01*
X1067591Y233184D01*
X1067519Y233479D01*
X1067567Y233778D01*
X1067728Y234035D01*
X1067977Y234209D01*
X1068274Y234271D01*
X1068572Y234213D01*
X1069859Y233680D01*
X1071118Y233680D01*
X1071118Y254000D01*
X1069859Y254000D01*
X1066125Y252453D01*
X1063267Y249595D01*
X1061874Y246233D01*
X1061730Y246008D01*
X1061484Y245830D01*
X1061188Y245763D01*
X1060890Y245816D01*
X1060636Y245982D01*
X1060466Y246233D01*
X1059312Y249020D01*
X1056740Y251592D01*
X1053379Y252984D01*
X1049741Y252984D01*
X1046380Y251592D01*
X1043808Y249020D01*
X1042416Y245659D01*
X1042416Y242021D01*
X1043808Y238660D01*
X1046380Y236088D01*
X1049741Y234696D01*
X1053379Y234696D01*
X1056740Y236088D01*
X1059312Y238660D01*
X1060466Y241447D01*
X1060610Y241672D01*
X1060856Y241850D01*
X1061152Y241917D01*
X1061451Y241864D01*
X1061705Y241698D01*
X1061874Y241447D01*
X1063267Y238085D01*
X1065283Y236068D01*
X1065434Y235854D01*
X1065506Y235560D01*
X1065458Y235260D01*
X1065296Y235004D01*
X1065047Y234830D01*
X1064751Y234767D01*
X1064453Y234825D01*
X1063539Y235204D01*
X1059901Y235204D01*
X1056540Y233812D01*
X1053968Y231240D01*
X1052576Y227879D01*
X1052576Y224241D01*
X1053968Y220880D01*
X1056540Y218308D01*
X1059901Y216916D01*
G37*
G36*
X-16144Y174500D02*
X-9256Y174500D01*
X-2603Y176283D01*
X3363Y179727D01*
X8233Y184597D01*
X11677Y190563D01*
X13460Y197216D01*
X13460Y204104D01*
X11677Y210757D01*
X8233Y216723D01*
X3363Y221593D01*
X-2603Y225037D01*
X-9256Y226820D01*
X-16144Y226820D01*
X-17634Y226421D01*
X-17801Y226395D01*
X-18101Y226444D01*
X-18357Y226605D01*
X-18531Y226854D01*
X-18594Y227151D01*
X-18536Y227448D01*
X-16476Y232421D01*
X-16476Y238079D01*
X-18641Y243307D01*
X-22643Y247309D01*
X-27871Y249474D01*
X-33529Y249474D01*
X-38757Y247309D01*
X-42759Y243307D01*
X-44924Y238079D01*
X-44924Y232421D01*
X-42759Y227193D01*
X-38757Y223191D01*
X-33529Y221026D01*
X-31169Y221026D01*
X-30906Y220979D01*
X-30648Y220820D01*
X-30473Y220572D01*
X-30408Y220276D01*
X-30463Y219978D01*
X-30631Y219725D01*
X-33633Y216723D01*
X-37077Y210757D01*
X-38860Y204104D01*
X-38860Y197216D01*
X-37077Y190563D01*
X-33633Y184597D01*
X-28763Y179727D01*
X-22797Y176283D01*
X-16144Y174500D01*
G37*
G36*
X1445981Y216916D02*
X1449619Y216916D01*
X1452980Y218308D01*
X1455552Y220880D01*
X1456944Y224241D01*
X1456944Y227879D01*
X1455552Y231240D01*
X1452980Y233812D01*
X1449619Y235204D01*
X1445981Y235204D01*
X1442620Y233812D01*
X1440048Y231240D01*
X1438656Y227879D01*
X1438656Y224241D01*
X1440048Y220880D01*
X1442620Y218308D01*
X1445981Y216916D01*
G37*
G36*
X1242781Y216916D02*
X1246419Y216916D01*
X1249780Y218308D01*
X1252352Y220880D01*
X1253744Y224241D01*
X1253744Y227879D01*
X1252352Y231240D01*
X1249780Y233812D01*
X1246419Y235204D01*
X1242781Y235204D01*
X1239420Y233812D01*
X1236848Y231240D01*
X1235456Y227879D01*
X1235456Y224241D01*
X1236848Y220880D01*
X1239420Y218308D01*
X1242781Y216916D01*
G37*
G36*
X1039581Y216916D02*
X1043219Y216916D01*
X1046580Y218308D01*
X1049152Y220880D01*
X1050544Y224241D01*
X1050544Y227879D01*
X1049152Y231240D01*
X1046580Y233812D01*
X1043219Y235204D01*
X1039581Y235204D01*
X1036220Y233812D01*
X1033648Y231240D01*
X1032256Y227879D01*
X1032256Y224241D01*
X1033648Y220880D01*
X1036220Y218308D01*
X1039581Y216916D01*
G37*
G36*
X836381Y216916D02*
X840019Y216916D01*
X843380Y218308D01*
X845952Y220880D01*
X847344Y224241D01*
X847344Y227879D01*
X845952Y231240D01*
X843380Y233812D01*
X840019Y235204D01*
X836381Y235204D01*
X833020Y233812D01*
X830448Y231240D01*
X829056Y227879D01*
X829056Y224241D01*
X830448Y220880D01*
X833020Y218308D01*
X836381Y216916D01*
G37*
G36*
X633181Y216916D02*
X636819Y216916D01*
X640180Y218308D01*
X642752Y220880D01*
X644144Y224241D01*
X644144Y227879D01*
X642752Y231240D01*
X640180Y233812D01*
X636819Y235204D01*
X633181Y235204D01*
X629820Y233812D01*
X627248Y231240D01*
X625856Y227879D01*
X625856Y224241D01*
X627248Y220880D01*
X629820Y218308D01*
X633181Y216916D01*
G37*
G36*
X429981Y216916D02*
X433619Y216916D01*
X436980Y218308D01*
X439552Y220880D01*
X440944Y224241D01*
X440944Y227879D01*
X439552Y231240D01*
X436980Y233812D01*
X433619Y235204D01*
X429981Y235204D01*
X426620Y233812D01*
X424048Y231240D01*
X422656Y227879D01*
X422656Y224241D01*
X424048Y220880D01*
X426620Y218308D01*
X429981Y216916D01*
G37*
G36*
X226781Y216916D02*
X230419Y216916D01*
X233780Y218308D01*
X236352Y220880D01*
X237744Y224241D01*
X237744Y227879D01*
X236352Y231240D01*
X233780Y233812D01*
X230419Y235204D01*
X226781Y235204D01*
X223420Y233812D01*
X220848Y231240D01*
X219456Y227879D01*
X219456Y224241D01*
X220848Y220880D01*
X223420Y218308D01*
X226781Y216916D01*
G37*
%LPD*%
D10*
X850700Y812800D02*
X863800Y812800D01*
X863800Y787400D02*
X850700Y787400D01*
X850700Y762000D02*
X863800Y762000D01*
X863800Y736600D02*
X850700Y736600D01*
X850700Y711200D02*
X863800Y711200D01*
X863800Y685800D02*
X850700Y685800D01*
X850700Y660400D02*
X863800Y660400D01*
X863800Y635000D02*
X850700Y635000D01*
X977700Y812800D02*
X990800Y812800D01*
X990800Y787400D02*
X977700Y787400D01*
X977700Y762000D02*
X990800Y762000D01*
X990800Y736600D02*
X977700Y736600D01*
X977700Y711200D02*
X990800Y711200D01*
X990800Y685800D02*
X977700Y685800D01*
X977700Y660400D02*
X990800Y660400D01*
X990800Y635000D02*
X977700Y635000D01*
D11*
X1060450Y685800D03*
X1060450Y710800D03*
X1060450Y735800D03*
X1060450Y760800D03*
D12*
X12700Y660400D03*
D13*
X12700Y685800D03*
X38100Y660400D03*
X38100Y685800D03*
X63500Y660400D03*
X63500Y685800D03*
X88900Y660400D03*
X88900Y685800D03*
X114300Y660400D03*
X114300Y685800D03*
X139700Y660400D03*
X139700Y685800D03*
X165100Y660400D03*
X165100Y685800D03*
X190500Y660400D03*
X190500Y685800D03*
D12*
X12700Y546100D03*
D13*
X12700Y571500D03*
X38100Y546100D03*
X38100Y571500D03*
X63500Y546100D03*
X63500Y571500D03*
X88900Y546100D03*
X88900Y571500D03*
X114300Y546100D03*
X114300Y571500D03*
X139700Y546100D03*
X139700Y571500D03*
X165100Y546100D03*
X165100Y571500D03*
X190500Y546100D03*
X190500Y571500D03*
D12*
X12700Y887082D03*
D13*
X12700Y912482D03*
X38100Y887082D03*
X38100Y912482D03*
X63500Y887082D03*
X63500Y912482D03*
X88900Y887082D03*
X88900Y912482D03*
X114300Y887082D03*
X114300Y912482D03*
X139700Y887082D03*
X139700Y912482D03*
X165100Y887082D03*
X165100Y912482D03*
X190500Y887082D03*
X190500Y912482D03*
D12*
X12700Y772202D03*
D13*
X12700Y797602D03*
X38100Y772202D03*
X38100Y797602D03*
X63500Y772202D03*
X63500Y797602D03*
X88900Y772202D03*
X88900Y797602D03*
X114300Y772202D03*
X114300Y797602D03*
X139700Y772202D03*
X139700Y797602D03*
X165100Y772202D03*
X165100Y797602D03*
X190500Y772202D03*
X190500Y797602D03*
D14*
X1447800Y565150D03*
D15*
X1447800Y590550D03*
D16*
X1498600Y514350D03*
X1498600Y615950D03*
D17*
X869950Y395600D03*
X869950Y468000D03*
X984250Y395600D03*
X984250Y468000D03*
X920750Y395600D03*
X920750Y468000D03*
X1035050Y395600D03*
X1035050Y468000D03*
X1098550Y395600D03*
X1098550Y468000D03*
D14*
X1447800Y755650D03*
D15*
X1447800Y781050D03*
D16*
X1498600Y704850D03*
X1498600Y806450D03*
D18*
X-6350Y387350D03*
X19050Y387350D03*
X-6350Y412750D03*
X19050Y412750D03*
X-6350Y438150D03*
X19050Y438150D03*
D19*
X946150Y533400D03*
D20*
X984250Y533400D03*
D19*
X1060450Y533400D03*
D20*
X1098550Y533400D03*
D19*
X831850Y533400D03*
D20*
X869950Y533400D03*
D21*
X15240Y243840D03*
X35560Y243840D03*
X55880Y243840D03*
X76200Y243840D03*
X25400Y226060D03*
X45720Y226060D03*
X66040Y226060D03*
D22*
X86360Y226060D03*
D23*
X132300Y235250D03*
X-30700Y235250D03*
D21*
X218440Y243840D03*
X238760Y243840D03*
X259080Y243840D03*
X279400Y243840D03*
X228600Y226060D03*
X248920Y226060D03*
X269240Y226060D03*
D22*
X289560Y226060D03*
D23*
X335500Y235250D03*
X172500Y235250D03*
D21*
X421640Y243840D03*
X441960Y243840D03*
X462280Y243840D03*
X482600Y243840D03*
X431800Y226060D03*
X452120Y226060D03*
X472440Y226060D03*
D22*
X492760Y226060D03*
D23*
X538700Y235250D03*
X375700Y235250D03*
D21*
X624840Y243840D03*
X645160Y243840D03*
X665480Y243840D03*
X685800Y243840D03*
X635000Y226060D03*
X655320Y226060D03*
X675640Y226060D03*
D22*
X695960Y226060D03*
D23*
X741900Y235250D03*
X578900Y235250D03*
D21*
X828040Y243840D03*
X848360Y243840D03*
X868680Y243840D03*
X889000Y243840D03*
X838200Y226060D03*
X858520Y226060D03*
X878840Y226060D03*
D22*
X899160Y226060D03*
D23*
X945100Y235250D03*
X782100Y235250D03*
D21*
X1031240Y243840D03*
X1051560Y243840D03*
X1071880Y243840D03*
X1092200Y243840D03*
X1041400Y226060D03*
X1061720Y226060D03*
X1082040Y226060D03*
D22*
X1102360Y226060D03*
D23*
X1148300Y235250D03*
X985300Y235250D03*
D21*
X1234440Y243840D03*
X1254760Y243840D03*
X1275080Y243840D03*
X1295400Y243840D03*
X1244600Y226060D03*
X1264920Y226060D03*
X1285240Y226060D03*
D22*
X1305560Y226060D03*
D23*
X1351500Y235250D03*
X1188500Y235250D03*
D21*
X1437640Y243840D03*
X1457960Y243840D03*
X1478280Y243840D03*
X1498600Y243840D03*
X1447800Y226060D03*
X1468120Y226060D03*
X1488440Y226060D03*
D22*
X1508760Y226060D03*
D23*
X1554700Y235250D03*
X1391700Y235250D03*
D24*
X1525200Y901850D02*
X1525200Y923850D01*
X1503700Y958850D02*
X1481700Y958850D01*
X1464200Y923850D02*
X1464200Y901850D01*
D19*
X330200Y673100D03*
D20*
X330200Y711200D03*
D19*
X431800Y673100D03*
D20*
X431800Y711200D03*
D19*
X533400Y673100D03*
D20*
X533400Y711200D03*
D19*
X635000Y673100D03*
D20*
X635000Y711200D03*
D19*
X736600Y673100D03*
D20*
X736600Y711200D03*
D19*
X381000Y774700D03*
D20*
X381000Y812800D03*
D19*
X482600Y774700D03*
D20*
X482600Y812800D03*
D19*
X584200Y774700D03*
D20*
X584200Y812800D03*
D19*
X685800Y774700D03*
D20*
X685800Y812800D03*
D25*
X609600Y493550D03*
X609600Y391950D03*
X501650Y493594D03*
X501650Y391994D03*
X1403350Y856017D03*
X1221944Y495300D03*
D26*
X711200Y838200D02*
X685800Y812800D01*
X762000Y838200D02*
X812800Y838200D01*
X762000Y838200D02*
X711200Y838200D01*
D25*
X622300Y596900D03*
D26*
X727979Y596900D01*
D25*
X12700Y457200D03*
D26*
X785236Y810636D02*
X812800Y838200D01*
X825500Y850900D01*
X785236Y654157D02*
X727979Y596900D01*
X785236Y654157D02*
X785236Y810636D01*
X482600Y812800D02*
X381000Y812800D01*
X482600Y812800D02*
X584200Y812800D01*
X685800Y812800D01*
X736600Y812800D02*
X736600Y711200D01*
X431800Y711200D02*
X330200Y711200D01*
X431800Y711200D02*
X533400Y711200D01*
X635000Y711200D01*
X736600Y711200D01*
D25*
X825500Y850900D03*
D26*
X762000Y838200D02*
X736600Y812800D01*
X266700Y381000D02*
X101600Y381000D01*
X25400Y304800D01*
D25*
X266700Y381000D03*
X25400Y304800D03*
X533400Y422910D03*
D26*
X552450Y441960D01*
D25*
X1202690Y800100D03*
D26*
X1166368Y606298D02*
X811537Y606298D01*
X647199Y441960D02*
X552450Y441960D01*
X647199Y441960D02*
X811537Y606298D01*
X1166368Y606298D02*
X1185672Y625602D01*
X1185672Y783082D01*
X1202690Y800100D01*
D25*
X374650Y374650D03*
D26*
X292100Y374650D01*
D25*
X228600Y273050D03*
D26*
X228600Y311150D02*
X292100Y374650D01*
X228600Y311150D02*
X228600Y273050D01*
D25*
X546100Y422910D03*
D26*
X546100Y424180D01*
X558800Y436880D01*
X646430Y436880D01*
X812800Y603250D01*
D25*
X1205230Y774700D03*
D26*
X1203191Y774700D02*
X1188720Y760229D01*
X1203191Y774700D02*
X1205230Y774700D01*
X1188720Y624339D02*
X1167631Y603250D01*
X812800Y603250D01*
X1188720Y624339D02*
X1188720Y760229D01*
D25*
X584200Y381000D03*
D26*
X571500Y368300D01*
X438150Y368300D01*
X431800Y361950D01*
X431800Y273050D01*
D25*
X431800Y273050D03*
X584200Y391160D03*
D26*
X594360Y381000D02*
X698500Y381000D01*
X594360Y381000D02*
X584200Y391160D01*
X635000Y317500D02*
X698500Y381000D01*
X635000Y317500D02*
X635000Y273050D01*
D25*
X635000Y273050D03*
X699616Y379884D03*
D26*
X698500Y381000D01*
X711200Y406400D02*
X736600Y381000D01*
X711200Y406400D02*
X673100Y406400D01*
X736600Y393700D02*
X736600Y381000D01*
D25*
X736600Y393700D03*
X673100Y406400D03*
X838200Y273050D03*
D26*
X838200Y304800D01*
X762000Y381000D02*
X736600Y381000D01*
X762000Y381000D02*
X838200Y304800D01*
X728211Y419100D02*
X673100Y419100D01*
X728211Y419100D02*
X749300Y398011D01*
X749300Y406400D01*
D25*
X749300Y406400D03*
X673100Y419100D03*
X1041400Y273050D03*
D26*
X1041400Y298450D01*
X984018Y355832D01*
X791479Y355832D02*
X749300Y398011D01*
X791479Y355832D02*
X984018Y355832D01*
X745221Y431800D02*
X673100Y431800D01*
X745221Y431800D02*
X762000Y415021D01*
X762000Y431800D01*
D25*
X762000Y431800D03*
X673100Y431800D03*
X1245870Y275590D03*
D26*
X1245870Y297180D01*
X1184170Y358880D01*
X771652Y405369D02*
X762000Y415021D01*
X771652Y405369D02*
X771652Y379969D01*
X792741Y358880D01*
X1184170Y358880D01*
X762232Y444500D02*
X673100Y444500D01*
X774181Y432551D02*
X774700Y432032D01*
D25*
X673100Y444500D03*
D26*
X762232Y444500D02*
X774181Y432551D01*
D25*
X1447800Y266700D03*
D26*
X774700Y381232D02*
X774700Y432032D01*
X1447800Y298450D02*
X1447800Y266700D01*
X787914Y368018D02*
X774700Y381232D01*
X1378232Y368018D02*
X1447800Y298450D01*
X1378232Y368018D02*
X787914Y368018D01*
X774181Y432551D02*
X774181Y447791D01*
X781050Y454660D01*
D25*
X781050Y454660D03*
D26*
X817880Y260350D02*
X828040Y250190D01*
X838200Y260350D01*
X828040Y250190D02*
X828040Y243840D01*
X838200Y260350D02*
X1022350Y260350D01*
X1031240Y251460D01*
X615950Y260350D02*
X431800Y260350D01*
X615950Y260350D02*
X624840Y251460D01*
X633730Y260350D01*
X431800Y260350D02*
X421640Y250190D01*
X228600Y260350D02*
X218440Y250190D01*
X228600Y260350D02*
X411480Y260350D01*
X421640Y250190D01*
X24130Y260350D02*
X15240Y251460D01*
X15240Y243840D01*
X24130Y260350D02*
X208280Y260350D01*
X218440Y250190D01*
X633730Y260350D02*
X817880Y260350D01*
X218440Y250190D02*
X218440Y243840D01*
X421640Y243840D02*
X421640Y250190D01*
X624840Y251460D02*
X624840Y243840D01*
X1031240Y243840D02*
X1031240Y251460D01*
X1040130Y260350D01*
X1225550Y260350D01*
X1234440Y251460D01*
X1234440Y243840D01*
X1234440Y251460D02*
X1243330Y260350D01*
X1289050Y260350D01*
X1430020Y260350D01*
X1437640Y252730D01*
X1437640Y243840D01*
D25*
X1149350Y552450D03*
D26*
X1181100Y520700D01*
X1236980Y520700D01*
D25*
X1236980Y520700D03*
D26*
X1289050Y356870D02*
X1289050Y260350D01*
D25*
X1289050Y356870D03*
D26*
X15240Y251460D02*
X7424Y259276D01*
X7424Y426524D01*
X19050Y438150D01*
X472188Y173738D02*
X482600Y184150D01*
X482600Y243840D01*
X675388Y173738D02*
X685800Y184150D01*
X685800Y243840D01*
X878588Y173738D02*
X889000Y184150D01*
X889000Y243840D01*
X878588Y173738D02*
X1081788Y173738D01*
X1092200Y184150D01*
X1092200Y243840D01*
X1284988Y173738D02*
X1295400Y184150D01*
X1295400Y243840D01*
X66040Y196850D02*
X38779Y196850D01*
X89152Y173738D02*
X268988Y173738D01*
X89152Y173738D02*
X66040Y196850D01*
X268988Y173738D02*
X472188Y173738D01*
X675388Y173738D01*
X878588Y173738D01*
X1081788Y173738D02*
X1284988Y173738D01*
X1485957Y173738D01*
X1498600Y186382D02*
X1498600Y243840D01*
X1498600Y186382D02*
X1485957Y173738D01*
X279400Y243840D02*
X279146Y243586D01*
X279146Y183896D02*
X268988Y173738D01*
X279146Y183896D02*
X279146Y243586D01*
X76200Y243840D02*
X75946Y243586D01*
X75946Y206756D01*
X66040Y196850D01*
X38779Y196850D02*
X4376Y231253D01*
X4376Y402024D02*
X-6350Y412750D01*
X4376Y402024D02*
X4376Y231253D01*
X59690Y193040D02*
X71120Y181610D01*
X59690Y193040D02*
X38100Y193040D01*
D25*
X71120Y181610D03*
X269240Y167640D03*
X472440Y167612D03*
X675640Y167612D03*
X878840Y167612D03*
X1082040Y167612D03*
D26*
X1079500Y170152D01*
X881380Y170152D01*
X878840Y167612D01*
D25*
X1285240Y167612D03*
D26*
X269240Y167640D02*
X266190Y170690D01*
X269240Y167640D02*
X272290Y170690D01*
X472440Y167612D02*
X472440Y167640D01*
X469390Y170690D01*
X272290Y170690D01*
X472440Y167612D02*
X475518Y170690D01*
X675640Y167612D02*
X675640Y167640D01*
X672590Y170690D01*
X475518Y170690D01*
X675640Y167640D02*
X678690Y170690D01*
X878840Y167640D02*
X878840Y167612D01*
X878840Y167640D02*
X875790Y170690D01*
X678690Y170690D01*
X1282162Y170690D02*
X1285240Y167612D01*
X1085118Y170690D02*
X1082040Y167612D01*
X1085118Y170690D02*
X1282162Y170690D01*
X1285240Y167612D02*
X1288318Y170690D01*
X1487680Y170690D01*
X1508760Y191770D01*
X1508760Y226060D01*
X87889Y170690D02*
X76969Y181610D01*
X71120Y181610D01*
X87889Y170690D02*
X266190Y170690D01*
X1328Y379672D02*
X-6350Y387350D01*
X1328Y379672D02*
X1328Y229812D01*
X38100Y193040D01*
D25*
X330200Y520700D03*
X406400Y520700D03*
D26*
X330200Y520700D01*
D25*
X330200Y533400D03*
D26*
X406400Y533400D01*
D25*
X406400Y533400D03*
D26*
X869950Y468000D02*
X920750Y468000D01*
X869950Y468000D02*
X869950Y533400D01*
X984250Y468000D02*
X1035050Y468000D01*
X984250Y468000D02*
X984250Y533400D01*
D25*
X726440Y533400D03*
X495300Y533400D03*
D26*
X726440Y533400D01*
X1098550Y533400D02*
X1098550Y468000D01*
D25*
X622300Y571500D03*
D26*
X791332Y807681D02*
X820500Y836850D01*
X1322150Y836850D01*
X1405890Y753110D01*
X1405890Y595630D01*
X1436370Y565150D01*
X1447800Y565150D01*
X791332Y651632D02*
X791332Y807681D01*
X711200Y571500D02*
X622300Y571500D01*
X711200Y571500D02*
X791332Y651632D01*
D25*
X622300Y584200D03*
D26*
X788284Y809373D02*
X820159Y841248D01*
X1324102Y841248D01*
X1409700Y755650D01*
X1447800Y755650D01*
X788284Y809373D02*
X788284Y652895D01*
X719589Y584200D02*
X622300Y584200D01*
X719589Y584200D02*
X788284Y652895D01*
X993325Y760800D02*
X1060450Y760800D01*
X993325Y760800D02*
X992125Y762000D01*
X984250Y762000D01*
X992925Y735800D02*
X1060450Y735800D01*
X992925Y735800D02*
X992125Y736600D01*
X984250Y736600D01*
X992525Y710800D02*
X1060450Y710800D01*
X992525Y710800D02*
X992125Y711200D01*
X984250Y711200D01*
X984250Y685800D02*
X1060450Y685800D01*
D25*
X546100Y493550D03*
D26*
X567210Y472440D01*
D25*
X571500Y471734D03*
D26*
X570794Y472440D01*
X567210Y472440D01*
D25*
X609600Y472440D03*
D26*
X592582Y472440D01*
X571500Y493522D01*
D25*
X571500Y493522D03*
M02*
