G04 EAGLE Gerber RS-274X export*
G75*
%MOMM*%
%FSLAX34Y34*%
%LPD*%
%INSoldermask Bottom*%
%IPPOS*%
%AMOC8*
5,1,8,0,0,1.08239X$1,22.5*%
G01*
G04 Define Apertures*
%ADD10C,5.203200*%
%ADD11C,1.513200*%
%ADD12C,1.303200*%
%ADD13R,1.703200X1.703200*%
%ADD14C,1.703200*%
%ADD15R,1.353200X1.353200*%
%ADD16C,1.353200*%
%ADD17C,2.603200*%
%ADD18C,1.463200*%
%ADD19C,1.563200*%
%ADD20R,1.853200X1.853200*%
%ADD21C,1.853200*%
%ADD22C,1.727200*%
%ADD23R,1.727200X1.727200*%
%ADD24C,3.403200*%
%ADD25C,2.743200*%
%ADD26C,1.263200*%
%ADD27C,0.959600*%
D10*
X1219200Y927100D03*
X330200Y927100D03*
X1219200Y431800D03*
X330200Y431800D03*
X774700Y927100D03*
D11*
X850700Y812800D02*
X863800Y812800D01*
X863800Y787400D02*
X850700Y787400D01*
X850700Y762000D02*
X863800Y762000D01*
X863800Y736600D02*
X850700Y736600D01*
X850700Y711200D02*
X863800Y711200D01*
X863800Y685800D02*
X850700Y685800D01*
X850700Y660400D02*
X863800Y660400D01*
X863800Y635000D02*
X850700Y635000D01*
X977700Y812800D02*
X990800Y812800D01*
X990800Y787400D02*
X977700Y787400D01*
X977700Y762000D02*
X990800Y762000D01*
X990800Y736600D02*
X977700Y736600D01*
X977700Y711200D02*
X990800Y711200D01*
X990800Y685800D02*
X977700Y685800D01*
X977700Y660400D02*
X990800Y660400D01*
X990800Y635000D02*
X977700Y635000D01*
D12*
X1060450Y685800D03*
X1060450Y710800D03*
X1060450Y735800D03*
X1060450Y760800D03*
D13*
X12700Y660400D03*
D14*
X12700Y685800D03*
X38100Y660400D03*
X38100Y685800D03*
X63500Y660400D03*
X63500Y685800D03*
X88900Y660400D03*
X88900Y685800D03*
X114300Y660400D03*
X114300Y685800D03*
X139700Y660400D03*
X139700Y685800D03*
X165100Y660400D03*
X165100Y685800D03*
X190500Y660400D03*
X190500Y685800D03*
D13*
X12700Y546100D03*
D14*
X12700Y571500D03*
X38100Y546100D03*
X38100Y571500D03*
X63500Y546100D03*
X63500Y571500D03*
X88900Y546100D03*
X88900Y571500D03*
X114300Y546100D03*
X114300Y571500D03*
X139700Y546100D03*
X139700Y571500D03*
X165100Y546100D03*
X165100Y571500D03*
X190500Y546100D03*
X190500Y571500D03*
D13*
X12700Y887082D03*
D14*
X12700Y912482D03*
X38100Y887082D03*
X38100Y912482D03*
X63500Y887082D03*
X63500Y912482D03*
X88900Y887082D03*
X88900Y912482D03*
X114300Y887082D03*
X114300Y912482D03*
X139700Y887082D03*
X139700Y912482D03*
X165100Y887082D03*
X165100Y912482D03*
X190500Y887082D03*
X190500Y912482D03*
D13*
X12700Y772202D03*
D14*
X12700Y797602D03*
X38100Y772202D03*
X38100Y797602D03*
X63500Y772202D03*
X63500Y797602D03*
X88900Y772202D03*
X88900Y797602D03*
X114300Y772202D03*
X114300Y797602D03*
X139700Y772202D03*
X139700Y797602D03*
X165100Y772202D03*
X165100Y797602D03*
X190500Y772202D03*
X190500Y797602D03*
D15*
X1447800Y565150D03*
D16*
X1447800Y590550D03*
D17*
X1498600Y514350D03*
X1498600Y615950D03*
D18*
X869950Y395600D03*
X869950Y468000D03*
X984250Y395600D03*
X984250Y468000D03*
X920750Y395600D03*
X920750Y468000D03*
X1035050Y395600D03*
X1035050Y468000D03*
X1098550Y395600D03*
X1098550Y468000D03*
D15*
X1447800Y755650D03*
D16*
X1447800Y781050D03*
D17*
X1498600Y704850D03*
X1498600Y806450D03*
D19*
X-6350Y387350D03*
X19050Y387350D03*
X-6350Y412750D03*
X19050Y412750D03*
X-6350Y438150D03*
X19050Y438150D03*
D20*
X946150Y533400D03*
D21*
X984250Y533400D03*
D20*
X1060450Y533400D03*
D21*
X1098550Y533400D03*
D20*
X831850Y533400D03*
D21*
X869950Y533400D03*
D22*
X15240Y243840D03*
X35560Y243840D03*
X55880Y243840D03*
X76200Y243840D03*
X25400Y226060D03*
X45720Y226060D03*
X66040Y226060D03*
D23*
X86360Y226060D03*
D24*
X-12700Y200660D03*
X114300Y200660D03*
D25*
X132300Y235250D03*
X-30700Y235250D03*
D22*
X218440Y243840D03*
X238760Y243840D03*
X259080Y243840D03*
X279400Y243840D03*
X228600Y226060D03*
X248920Y226060D03*
X269240Y226060D03*
D23*
X289560Y226060D03*
D24*
X190500Y200660D03*
X317500Y200660D03*
D25*
X335500Y235250D03*
X172500Y235250D03*
D22*
X421640Y243840D03*
X441960Y243840D03*
X462280Y243840D03*
X482600Y243840D03*
X431800Y226060D03*
X452120Y226060D03*
X472440Y226060D03*
D23*
X492760Y226060D03*
D24*
X393700Y200660D03*
X520700Y200660D03*
D25*
X538700Y235250D03*
X375700Y235250D03*
D22*
X624840Y243840D03*
X645160Y243840D03*
X665480Y243840D03*
X685800Y243840D03*
X635000Y226060D03*
X655320Y226060D03*
X675640Y226060D03*
D23*
X695960Y226060D03*
D24*
X596900Y200660D03*
X723900Y200660D03*
D25*
X741900Y235250D03*
X578900Y235250D03*
D22*
X828040Y243840D03*
X848360Y243840D03*
X868680Y243840D03*
X889000Y243840D03*
X838200Y226060D03*
X858520Y226060D03*
X878840Y226060D03*
D23*
X899160Y226060D03*
D24*
X800100Y200660D03*
X927100Y200660D03*
D25*
X945100Y235250D03*
X782100Y235250D03*
D22*
X1031240Y243840D03*
X1051560Y243840D03*
X1071880Y243840D03*
X1092200Y243840D03*
X1041400Y226060D03*
X1061720Y226060D03*
X1082040Y226060D03*
D23*
X1102360Y226060D03*
D24*
X1003300Y200660D03*
X1130300Y200660D03*
D25*
X1148300Y235250D03*
X985300Y235250D03*
D22*
X1234440Y243840D03*
X1254760Y243840D03*
X1275080Y243840D03*
X1295400Y243840D03*
X1244600Y226060D03*
X1264920Y226060D03*
X1285240Y226060D03*
D23*
X1305560Y226060D03*
D24*
X1206500Y200660D03*
X1333500Y200660D03*
D25*
X1351500Y235250D03*
X1188500Y235250D03*
D22*
X1437640Y243840D03*
X1457960Y243840D03*
X1478280Y243840D03*
X1498600Y243840D03*
X1447800Y226060D03*
X1468120Y226060D03*
X1488440Y226060D03*
D23*
X1508760Y226060D03*
D24*
X1409700Y200660D03*
X1536700Y200660D03*
D25*
X1554700Y235250D03*
X1391700Y235250D03*
D14*
X1565740Y425450D03*
X1495740Y425450D03*
D26*
X1525200Y901850D02*
X1525200Y923850D01*
X1503700Y958850D02*
X1481700Y958850D01*
X1464200Y923850D02*
X1464200Y901850D01*
D20*
X330200Y673100D03*
D21*
X330200Y711200D03*
D20*
X431800Y673100D03*
D21*
X431800Y711200D03*
D20*
X533400Y673100D03*
D21*
X533400Y711200D03*
D20*
X635000Y673100D03*
D21*
X635000Y711200D03*
D20*
X736600Y673100D03*
D21*
X736600Y711200D03*
D20*
X381000Y774700D03*
D21*
X381000Y812800D03*
D20*
X482600Y774700D03*
D21*
X482600Y812800D03*
D20*
X584200Y774700D03*
D21*
X584200Y812800D03*
D20*
X685800Y774700D03*
D21*
X685800Y812800D03*
D27*
X609600Y493550D03*
X609600Y391950D03*
X501650Y493594D03*
X501650Y391994D03*
X1403350Y856017D03*
X1221944Y495300D03*
X622300Y596900D03*
X12700Y457200D03*
X825500Y850900D03*
X266700Y381000D03*
X25400Y304800D03*
X533400Y422910D03*
X1202690Y800100D03*
X374650Y374650D03*
X228600Y273050D03*
X546100Y422910D03*
X1205230Y774700D03*
X584200Y381000D03*
X431800Y273050D03*
X584200Y391160D03*
X635000Y273050D03*
X699616Y379884D03*
X736600Y393700D03*
X673100Y406400D03*
X838200Y273050D03*
X749300Y406400D03*
X673100Y419100D03*
X1041400Y273050D03*
X762000Y431800D03*
X673100Y431800D03*
X1245870Y275590D03*
X673100Y444500D03*
X1447800Y266700D03*
X781050Y454660D03*
X1149350Y552450D03*
X1236980Y520700D03*
X1289050Y356870D03*
X71120Y181610D03*
X269240Y167640D03*
X472440Y167612D03*
X675640Y167612D03*
X878840Y167612D03*
X1082040Y167612D03*
X1285240Y167612D03*
X330200Y520700D03*
X406400Y520700D03*
X330200Y533400D03*
X406400Y533400D03*
X726440Y533400D03*
X495300Y533400D03*
X622300Y571500D03*
X622300Y584200D03*
X546100Y493550D03*
X571500Y471734D03*
X609600Y472440D03*
X571500Y493522D03*
M02*
