G04 EAGLE Gerber RS-274X export*
G75*
%MOMM*%
%FSLAX34Y34*%
%LPD*%
%INTop Copper*%
%IPPOS*%
%AMOC8*
5,1,8,0,0,1.08239X$1,22.5*%
G01*
G04 Define Apertures*
%ADD10C,1.575000*%
%ADD11C,1.260000*%
%ADD12R,1.500000X1.500000*%
%ADD13C,1.500000*%
%ADD14R,1.335000X1.335000*%
%ADD15C,1.335000*%
%ADD16C,3.000000*%
%ADD17C,1.650000*%
%ADD18C,0.600000*%
%ADD19R,0.558800X1.981200*%
%ADD20R,1.650000X1.650000*%
%ADD21C,1.524000*%
%ADD22R,1.524000X1.524000*%
%ADD23R,1.500000X2.000000*%
%ADD24C,1.200000*%
%ADD25R,2.200000X1.270000*%
%ADD26R,2.115300X3.763600*%
%ADD27C,0.152400*%
%ADD28C,0.525000*%
G36*
X1584803Y149412D02*
X1584506Y149352D01*
X-60706Y149352D01*
X-60981Y149403D01*
X-61236Y149567D01*
X-61408Y149817D01*
X-61468Y150114D01*
X-61468Y978156D01*
X-61417Y978431D01*
X-61253Y978686D01*
X-61003Y978858D01*
X-60706Y978918D01*
X1584506Y978918D01*
X1584781Y978867D01*
X1585036Y978703D01*
X1585208Y978453D01*
X1585268Y978156D01*
X1585268Y150114D01*
X1585217Y149839D01*
X1585053Y149584D01*
X1584803Y149412D01*
G37*
%LPC*%
G36*
X17156Y377830D02*
X20944Y377830D01*
X24443Y379279D01*
X27121Y381957D01*
X28570Y385456D01*
X28570Y389244D01*
X27373Y392134D01*
X27315Y392413D01*
X27371Y392711D01*
X27538Y392964D01*
X40132Y405558D01*
X40132Y434842D01*
X16818Y458156D01*
X16655Y458397D01*
X16595Y458695D01*
X16595Y458813D01*
X14313Y461095D01*
X11994Y461095D01*
X11708Y461151D01*
X11456Y461318D01*
X-4095Y476869D01*
X-4258Y477110D01*
X-4318Y477407D01*
X-4318Y906114D01*
X-4262Y906400D01*
X-4095Y906653D01*
X2629Y913377D01*
X2849Y913530D01*
X3144Y913599D01*
X3443Y913549D01*
X3698Y913385D01*
X3870Y913135D01*
X3930Y912838D01*
X3930Y910737D01*
X5265Y907514D01*
X7732Y905047D01*
X10956Y903712D01*
X14444Y903712D01*
X17668Y905047D01*
X20135Y907514D01*
X21470Y910737D01*
X21470Y914226D01*
X20135Y917449D01*
X17668Y919916D01*
X14444Y921252D01*
X12344Y921252D01*
X12081Y921299D01*
X11822Y921458D01*
X11647Y921705D01*
X11582Y922001D01*
X11638Y922300D01*
X11805Y922552D01*
X33147Y943895D01*
X33389Y944058D01*
X33686Y944118D01*
X50405Y944118D01*
X50668Y944071D01*
X50926Y943912D01*
X51102Y943664D01*
X51167Y943368D01*
X51111Y943070D01*
X50944Y942817D01*
X23368Y915242D01*
X23368Y900939D01*
X23312Y900653D01*
X23145Y900400D01*
X18820Y896075D01*
X18578Y895912D01*
X18281Y895852D01*
X4674Y895852D01*
X3930Y895108D01*
X3930Y879056D01*
X4674Y878312D01*
X20726Y878312D01*
X21470Y879056D01*
X21470Y892662D01*
X21526Y892948D01*
X21693Y893201D01*
X27432Y898940D01*
X27432Y913243D01*
X27488Y913529D01*
X27655Y913782D01*
X28029Y914156D01*
X28249Y914309D01*
X28544Y914378D01*
X28843Y914327D01*
X29098Y914164D01*
X29270Y913914D01*
X29330Y913617D01*
X29330Y910737D01*
X30665Y907514D01*
X33132Y905047D01*
X36356Y903712D01*
X39844Y903712D01*
X43068Y905047D01*
X45535Y907514D01*
X46870Y910737D01*
X46870Y914226D01*
X45535Y917449D01*
X43068Y919916D01*
X39844Y921252D01*
X36965Y921252D01*
X36702Y921299D01*
X36444Y921458D01*
X36268Y921705D01*
X36203Y922001D01*
X36259Y922300D01*
X36426Y922552D01*
X52445Y938571D01*
X52686Y938734D01*
X52983Y938794D01*
X70481Y938794D01*
X70744Y938747D01*
X71002Y938588D01*
X71178Y938340D01*
X71243Y938044D01*
X71187Y937746D01*
X71020Y937493D01*
X48768Y915242D01*
X48768Y900939D01*
X48712Y900653D01*
X48545Y900400D01*
X43140Y894996D01*
X42904Y894835D01*
X42608Y894772D01*
X42310Y894830D01*
X39844Y895852D01*
X36356Y895852D01*
X33132Y894516D01*
X30665Y892049D01*
X29330Y888826D01*
X29330Y885337D01*
X30665Y882114D01*
X33132Y879647D01*
X36356Y878312D01*
X39844Y878312D01*
X43068Y879647D01*
X45535Y882114D01*
X46870Y885337D01*
X46870Y888826D01*
X45849Y891292D01*
X45791Y891571D01*
X45846Y891869D01*
X46014Y892122D01*
X52832Y898940D01*
X52832Y913243D01*
X52888Y913529D01*
X53055Y913782D01*
X53429Y914156D01*
X53649Y914309D01*
X53944Y914378D01*
X54243Y914327D01*
X54498Y914164D01*
X54670Y913914D01*
X54730Y913617D01*
X54730Y910737D01*
X56065Y907514D01*
X58532Y905047D01*
X61756Y903712D01*
X65244Y903712D01*
X68468Y905047D01*
X70935Y907514D01*
X72270Y910737D01*
X72270Y914226D01*
X70935Y917449D01*
X68468Y919916D01*
X65244Y921252D01*
X62365Y921252D01*
X62102Y921299D01*
X61844Y921458D01*
X61668Y921705D01*
X61603Y922001D01*
X61659Y922300D01*
X61826Y922552D01*
X74797Y935523D01*
X75038Y935686D01*
X75335Y935746D01*
X93555Y935746D01*
X93818Y935699D01*
X94076Y935540D01*
X94252Y935292D01*
X94317Y934996D01*
X94261Y934698D01*
X94094Y934445D01*
X77042Y917393D01*
X77042Y903813D01*
X76986Y903527D01*
X76819Y903274D01*
X68540Y894996D01*
X68304Y894835D01*
X68008Y894772D01*
X67710Y894830D01*
X65244Y895852D01*
X61756Y895852D01*
X58532Y894516D01*
X56065Y892049D01*
X54730Y888826D01*
X54730Y885337D01*
X56065Y882114D01*
X58532Y879647D01*
X61756Y878312D01*
X65244Y878312D01*
X68468Y879647D01*
X70935Y882114D01*
X72270Y885337D01*
X72270Y888826D01*
X71249Y891292D01*
X71191Y891571D01*
X71246Y891869D01*
X71414Y892122D01*
X81106Y901814D01*
X81106Y906033D01*
X81153Y906297D01*
X81312Y906555D01*
X81560Y906730D01*
X81856Y906795D01*
X82154Y906740D01*
X82407Y906572D01*
X83932Y905047D01*
X87156Y903712D01*
X90644Y903712D01*
X93868Y905047D01*
X96335Y907514D01*
X97670Y910737D01*
X97670Y914226D01*
X96335Y917449D01*
X93868Y919916D01*
X90644Y921252D01*
X88487Y921252D01*
X88224Y921299D01*
X87966Y921458D01*
X87790Y921705D01*
X87725Y922001D01*
X87781Y922300D01*
X87948Y922552D01*
X97871Y932475D01*
X98112Y932638D01*
X98410Y932698D01*
X115964Y932698D01*
X116227Y932651D01*
X116485Y932492D01*
X116660Y932244D01*
X116725Y931948D01*
X116670Y931650D01*
X116502Y931397D01*
X99568Y914463D01*
X99568Y900939D01*
X99512Y900653D01*
X99345Y900400D01*
X93940Y894996D01*
X93704Y894835D01*
X93408Y894772D01*
X93110Y894830D01*
X90644Y895852D01*
X87156Y895852D01*
X83932Y894516D01*
X81465Y892049D01*
X80130Y888826D01*
X80130Y885337D01*
X81465Y882114D01*
X83932Y879647D01*
X87156Y878312D01*
X90644Y878312D01*
X93868Y879647D01*
X96335Y882114D01*
X97670Y885337D01*
X97670Y888826D01*
X96649Y891292D01*
X96591Y891571D01*
X96646Y891869D01*
X96814Y892122D01*
X103632Y898940D01*
X103632Y912464D01*
X103688Y912750D01*
X103855Y913003D01*
X104229Y913377D01*
X104449Y913530D01*
X104744Y913599D01*
X105043Y913549D01*
X105298Y913385D01*
X105470Y913135D01*
X105530Y912838D01*
X105530Y910737D01*
X106865Y907514D01*
X109332Y905047D01*
X112556Y903712D01*
X116044Y903712D01*
X119268Y905047D01*
X121735Y907514D01*
X123070Y910737D01*
X123070Y914226D01*
X121735Y917449D01*
X119268Y919916D01*
X116044Y921252D01*
X113944Y921252D01*
X113681Y921299D01*
X113422Y921458D01*
X113247Y921705D01*
X113182Y922001D01*
X113238Y922300D01*
X113405Y922552D01*
X120279Y929427D01*
X120521Y929590D01*
X120818Y929650D01*
X138316Y929650D01*
X138579Y929603D01*
X138837Y929444D01*
X139012Y929196D01*
X139077Y928900D01*
X139022Y928602D01*
X138854Y928349D01*
X124968Y914463D01*
X124968Y900939D01*
X124912Y900653D01*
X124745Y900400D01*
X119340Y894996D01*
X119104Y894835D01*
X118808Y894772D01*
X118510Y894830D01*
X116044Y895852D01*
X112556Y895852D01*
X109332Y894516D01*
X106865Y892049D01*
X105530Y888826D01*
X105530Y885337D01*
X106865Y882114D01*
X109332Y879647D01*
X112556Y878312D01*
X116044Y878312D01*
X119268Y879647D01*
X121735Y882114D01*
X123070Y885337D01*
X123070Y888826D01*
X122049Y891292D01*
X121991Y891571D01*
X122046Y891869D01*
X122214Y892122D01*
X129032Y898940D01*
X129032Y912464D01*
X129088Y912750D01*
X129255Y913003D01*
X129629Y913377D01*
X129849Y913530D01*
X130144Y913599D01*
X130443Y913549D01*
X130698Y913385D01*
X130870Y913135D01*
X130930Y912838D01*
X130930Y910737D01*
X132265Y907514D01*
X134732Y905047D01*
X137956Y903712D01*
X141444Y903712D01*
X144296Y904893D01*
X144551Y904950D01*
X144851Y904904D01*
X145109Y904744D01*
X145284Y904497D01*
X145349Y904201D01*
X145294Y903903D01*
X145126Y903650D01*
X137656Y896180D01*
X137615Y895961D01*
X137449Y895707D01*
X137198Y895538D01*
X134732Y894516D01*
X132265Y892049D01*
X130930Y888826D01*
X130930Y885337D01*
X132265Y882114D01*
X134732Y879647D01*
X137956Y878312D01*
X141444Y878312D01*
X144668Y879647D01*
X147135Y882114D01*
X148470Y885337D01*
X148470Y888826D01*
X147135Y892049D01*
X144668Y894516D01*
X143651Y894938D01*
X143421Y895086D01*
X143246Y895333D01*
X143181Y895629D01*
X143237Y895928D01*
X143404Y896180D01*
X154432Y907208D01*
X154432Y912464D01*
X154488Y912750D01*
X154655Y913003D01*
X155029Y913377D01*
X155249Y913530D01*
X155544Y913599D01*
X155843Y913549D01*
X156098Y913385D01*
X156270Y913135D01*
X156330Y912838D01*
X156330Y910737D01*
X157665Y907514D01*
X160132Y905047D01*
X163356Y903712D01*
X166844Y903712D01*
X170068Y905047D01*
X172535Y907514D01*
X173870Y910737D01*
X173870Y914226D01*
X172535Y917449D01*
X170068Y919916D01*
X166844Y921252D01*
X164744Y921252D01*
X164481Y921299D01*
X164222Y921458D01*
X164047Y921705D01*
X163982Y922001D01*
X164038Y922300D01*
X164205Y922552D01*
X164983Y923331D01*
X165225Y923494D01*
X165522Y923554D01*
X203093Y923554D01*
X203379Y923498D01*
X203632Y923331D01*
X283683Y843280D01*
X778667Y843280D01*
X778953Y843224D01*
X779206Y843057D01*
X817657Y804606D01*
X817820Y804365D01*
X817880Y804067D01*
X817880Y658796D01*
X840007Y636670D01*
X840170Y636428D01*
X840230Y636131D01*
X840230Y633181D01*
X841622Y629820D01*
X844195Y627247D01*
X847556Y625855D01*
X866944Y625855D01*
X870305Y627247D01*
X872969Y629911D01*
X873189Y630064D01*
X873484Y630134D01*
X873783Y630083D01*
X874038Y629920D01*
X874210Y629670D01*
X874270Y629372D01*
X874270Y557419D01*
X874214Y557133D01*
X874047Y556881D01*
X857770Y540603D01*
X857528Y540440D01*
X857231Y540380D01*
X842124Y540380D01*
X841380Y539636D01*
X841380Y522084D01*
X842124Y521340D01*
X859676Y521340D01*
X860420Y522084D01*
X860420Y537191D01*
X860476Y537477D01*
X860643Y537730D01*
X865489Y542575D01*
X865730Y542738D01*
X866027Y542798D01*
X952613Y542798D01*
X952899Y542742D01*
X953152Y542575D01*
X955457Y540270D01*
X955620Y540028D01*
X955680Y539731D01*
X955680Y522084D01*
X956424Y521340D01*
X973976Y521340D01*
X974720Y522084D01*
X974720Y537191D01*
X974776Y537477D01*
X974943Y537730D01*
X979911Y542697D01*
X980152Y542860D01*
X980449Y542920D01*
X1069628Y542920D01*
X1069892Y542873D01*
X1070150Y542714D01*
X1070325Y542466D01*
X1070390Y542170D01*
X1070335Y541872D01*
X1070167Y541619D01*
X1068710Y540162D01*
X1068710Y531622D01*
X1090290Y531622D01*
X1090290Y540162D01*
X1088833Y541619D01*
X1088680Y541839D01*
X1088610Y542134D01*
X1088661Y542433D01*
X1088824Y542688D01*
X1089075Y542860D01*
X1089372Y542920D01*
X1159501Y542920D01*
X1159787Y542864D01*
X1160040Y542697D01*
X1164282Y538455D01*
X1164445Y538213D01*
X1164505Y537916D01*
X1164505Y535597D01*
X1166787Y533315D01*
X1170013Y533315D01*
X1172295Y535597D01*
X1172295Y538823D01*
X1170013Y541105D01*
X1167694Y541105D01*
X1167408Y541161D01*
X1167156Y541328D01*
X1161500Y546984D01*
X978450Y546984D01*
X972070Y540603D01*
X971828Y540440D01*
X971531Y540380D01*
X961409Y540380D01*
X961123Y540436D01*
X960871Y540603D01*
X954612Y546862D01*
X871615Y546862D01*
X871352Y546909D01*
X871094Y547068D01*
X870919Y547316D01*
X870853Y547612D01*
X870909Y547910D01*
X871077Y548163D01*
X878334Y555420D01*
X878334Y668860D01*
X870265Y676929D01*
X870107Y677160D01*
X870042Y677456D01*
X870097Y677754D01*
X870265Y678007D01*
X872878Y680620D01*
X874270Y683981D01*
X874270Y687619D01*
X872878Y690980D01*
X870305Y693553D01*
X866944Y694945D01*
X860044Y694945D01*
X859769Y694996D01*
X859514Y695160D01*
X859342Y695410D01*
X859282Y695707D01*
X859282Y701293D01*
X859333Y701568D01*
X859497Y701823D01*
X859747Y701995D01*
X860044Y702055D01*
X866944Y702055D01*
X870305Y703447D01*
X872878Y706020D01*
X874270Y709381D01*
X874270Y713019D01*
X872878Y716380D01*
X870305Y718953D01*
X866944Y720345D01*
X847556Y720345D01*
X844195Y718953D01*
X841622Y716380D01*
X840230Y713019D01*
X840230Y709381D01*
X841622Y706020D01*
X844195Y703447D01*
X847556Y702055D01*
X854456Y702055D01*
X854731Y702004D01*
X854986Y701840D01*
X855158Y701590D01*
X855218Y701293D01*
X855218Y695707D01*
X855167Y695432D01*
X855003Y695177D01*
X854753Y695005D01*
X854456Y694945D01*
X847556Y694945D01*
X844195Y693553D01*
X841622Y690980D01*
X840230Y687619D01*
X840230Y683981D01*
X841622Y680620D01*
X844195Y678047D01*
X847556Y676655D01*
X864476Y676655D01*
X864762Y676599D01*
X865015Y676432D01*
X874047Y667400D01*
X874210Y667158D01*
X874270Y666861D01*
X874270Y666028D01*
X874223Y665764D01*
X874064Y665506D01*
X873816Y665331D01*
X873520Y665266D01*
X873222Y665321D01*
X872969Y665489D01*
X870305Y668153D01*
X866944Y669545D01*
X847556Y669545D01*
X844195Y668153D01*
X842472Y666430D01*
X842241Y666272D01*
X841945Y666207D01*
X841647Y666262D01*
X841394Y666430D01*
X825215Y682609D01*
X825052Y682850D01*
X824992Y683147D01*
X824992Y764145D01*
X825039Y764408D01*
X825198Y764666D01*
X825446Y764842D01*
X825742Y764907D01*
X826040Y764851D01*
X826293Y764684D01*
X845106Y745871D01*
X845261Y745646D01*
X845329Y745350D01*
X845276Y745051D01*
X845110Y744797D01*
X844859Y744628D01*
X844195Y744353D01*
X841622Y741780D01*
X840230Y738419D01*
X840230Y734781D01*
X841622Y731420D01*
X844195Y728847D01*
X847556Y727455D01*
X866944Y727455D01*
X870305Y728847D01*
X872878Y731420D01*
X874270Y734781D01*
X874270Y738419D01*
X872878Y741780D01*
X870305Y744353D01*
X866944Y745745D01*
X851294Y745745D01*
X851008Y745801D01*
X850756Y745968D01*
X843970Y752753D01*
X843820Y752967D01*
X843748Y753262D01*
X843796Y753561D01*
X843958Y753818D01*
X844206Y753992D01*
X844503Y754054D01*
X844801Y753996D01*
X847556Y752855D01*
X866944Y752855D01*
X870305Y754247D01*
X872878Y756820D01*
X874270Y760181D01*
X874270Y763819D01*
X872878Y767180D01*
X870305Y769753D01*
X866944Y771145D01*
X851294Y771145D01*
X851008Y771201D01*
X850756Y771368D01*
X843970Y778153D01*
X843820Y778367D01*
X843748Y778662D01*
X843796Y778961D01*
X843958Y779218D01*
X844206Y779392D01*
X844503Y779454D01*
X844801Y779396D01*
X847556Y778255D01*
X866944Y778255D01*
X870305Y779647D01*
X872878Y782220D01*
X874270Y785581D01*
X874270Y789219D01*
X872878Y792580D01*
X870305Y795153D01*
X866944Y796545D01*
X851294Y796545D01*
X851008Y796601D01*
X850756Y796768D01*
X843970Y803553D01*
X843820Y803767D01*
X843748Y804062D01*
X843796Y804361D01*
X843958Y804618D01*
X844206Y804792D01*
X844503Y804854D01*
X844801Y804796D01*
X847556Y803655D01*
X866944Y803655D01*
X870305Y805047D01*
X872878Y807620D01*
X874270Y810981D01*
X874270Y814619D01*
X872878Y817980D01*
X870305Y820553D01*
X866944Y821945D01*
X847556Y821945D01*
X844195Y820553D01*
X841622Y817980D01*
X840513Y815302D01*
X840356Y815064D01*
X840106Y814892D01*
X839809Y814832D01*
X835047Y814832D01*
X834761Y814888D01*
X834508Y815055D01*
X789296Y860267D01*
X789143Y860487D01*
X789073Y860782D01*
X789124Y861081D01*
X789287Y861336D01*
X789538Y861508D01*
X789835Y861568D01*
X831455Y861568D01*
X831718Y861521D01*
X831976Y861362D01*
X832152Y861114D01*
X832217Y860818D01*
X832161Y860520D01*
X831994Y860267D01*
X826745Y855018D01*
X826503Y854855D01*
X826206Y854795D01*
X823887Y854795D01*
X821605Y852513D01*
X821605Y849287D01*
X823887Y847005D01*
X827113Y847005D01*
X829395Y849287D01*
X829395Y851606D01*
X829451Y851892D01*
X829618Y852145D01*
X838819Y861345D01*
X839060Y861508D01*
X839357Y861568D01*
X1021955Y861568D01*
X1022218Y861521D01*
X1022476Y861362D01*
X1022652Y861114D01*
X1022717Y860818D01*
X1022661Y860520D01*
X1022494Y860267D01*
X984395Y822168D01*
X984153Y822005D01*
X983856Y821945D01*
X974556Y821945D01*
X971195Y820553D01*
X968622Y817980D01*
X967230Y814619D01*
X967230Y810981D01*
X968622Y807620D01*
X971195Y805047D01*
X974556Y803655D01*
X993944Y803655D01*
X997305Y805047D01*
X999878Y807620D01*
X1001270Y810981D01*
X1001270Y814619D01*
X999878Y817980D01*
X997305Y820553D01*
X993944Y821945D01*
X991758Y821945D01*
X991495Y821992D01*
X991237Y822151D01*
X991062Y822399D01*
X990996Y822695D01*
X991052Y822993D01*
X991220Y823246D01*
X1029319Y861345D01*
X1029560Y861508D01*
X1029857Y861568D01*
X1308942Y861568D01*
X1390203Y942829D01*
X1390422Y942982D01*
X1390717Y943052D01*
X1391016Y943001D01*
X1391272Y942838D01*
X1391443Y942587D01*
X1391504Y942290D01*
X1391504Y929315D01*
X1392247Y928571D01*
X1414453Y928571D01*
X1415197Y929315D01*
X1415197Y945865D01*
X1415248Y946140D01*
X1415411Y946395D01*
X1415661Y946567D01*
X1415959Y946627D01*
X1427234Y946627D01*
X1427520Y946571D01*
X1427773Y946404D01*
X1456707Y917470D01*
X1456870Y917228D01*
X1456930Y916931D01*
X1456930Y900404D01*
X1458037Y897732D01*
X1460082Y895687D01*
X1462754Y894580D01*
X1465646Y894580D01*
X1468318Y895687D01*
X1470363Y897732D01*
X1471470Y900404D01*
X1471470Y925296D01*
X1470363Y927968D01*
X1468318Y930013D01*
X1465646Y931120D01*
X1462754Y931120D01*
X1460082Y930013D01*
X1458037Y927968D01*
X1456930Y925296D01*
X1456930Y924833D01*
X1456883Y924570D01*
X1456724Y924312D01*
X1456476Y924137D01*
X1456180Y924071D01*
X1455882Y924127D01*
X1455629Y924295D01*
X1429233Y950691D01*
X1415959Y950691D01*
X1415684Y950742D01*
X1415428Y950906D01*
X1415257Y951156D01*
X1415197Y951453D01*
X1415197Y968003D01*
X1414453Y968747D01*
X1392247Y968747D01*
X1391504Y968003D01*
X1391504Y950193D01*
X1391448Y949907D01*
X1391280Y949654D01*
X1307482Y865855D01*
X1307240Y865692D01*
X1306943Y865632D01*
X293257Y865632D01*
X292971Y865688D01*
X292719Y865855D01*
X210392Y948182D01*
X31687Y948182D01*
X-8382Y908113D01*
X-8382Y475408D01*
X8582Y458445D01*
X8745Y458203D01*
X8805Y457906D01*
X8805Y455587D01*
X11087Y453305D01*
X14313Y453305D01*
X14579Y453570D01*
X14809Y453728D01*
X15105Y453793D01*
X15403Y453738D01*
X15656Y453570D01*
X20256Y448971D01*
X20409Y448751D01*
X20479Y448456D01*
X20428Y448157D01*
X20264Y447902D01*
X20014Y447730D01*
X19717Y447670D01*
X17156Y447670D01*
X13657Y446221D01*
X10979Y443543D01*
X9530Y440044D01*
X9530Y436256D01*
X10979Y432757D01*
X13657Y430079D01*
X17156Y428630D01*
X20944Y428630D01*
X24443Y430079D01*
X27121Y432757D01*
X28570Y436256D01*
X28570Y438817D01*
X28617Y439080D01*
X28776Y439338D01*
X29024Y439514D01*
X29320Y439579D01*
X29618Y439523D01*
X29871Y439356D01*
X35845Y433382D01*
X36008Y433140D01*
X36068Y432843D01*
X36068Y407557D01*
X36012Y407271D01*
X35845Y407019D01*
X24664Y395838D01*
X24428Y395678D01*
X24132Y395615D01*
X23834Y395673D01*
X20944Y396870D01*
X17156Y396870D01*
X13657Y395421D01*
X10979Y392743D01*
X9530Y389244D01*
X9530Y385456D01*
X10979Y381957D01*
X13657Y379279D01*
X17156Y377830D01*
G37*
G36*
X1480254Y951580D02*
X1505146Y951580D01*
X1507818Y952687D01*
X1509863Y954732D01*
X1510970Y957404D01*
X1510970Y960296D01*
X1509863Y962968D01*
X1507818Y965013D01*
X1505146Y966120D01*
X1480254Y966120D01*
X1477582Y965013D01*
X1475537Y962968D01*
X1474430Y960296D01*
X1474430Y957404D01*
X1475537Y954732D01*
X1477582Y952687D01*
X1480254Y951580D01*
G37*
G36*
X1215641Y900068D02*
X1222759Y900068D01*
X1229634Y901910D01*
X1235798Y905469D01*
X1240831Y910502D01*
X1244390Y916666D01*
X1246232Y923541D01*
X1246232Y930659D01*
X1244390Y937534D01*
X1240831Y943698D01*
X1235798Y948731D01*
X1229634Y952290D01*
X1222759Y954132D01*
X1215641Y954132D01*
X1208766Y952290D01*
X1202602Y948731D01*
X1197569Y943698D01*
X1194010Y937534D01*
X1192168Y930659D01*
X1192168Y923541D01*
X1194010Y916666D01*
X1197569Y910502D01*
X1202602Y905469D01*
X1208766Y901910D01*
X1215641Y900068D01*
G37*
G36*
X733041Y900068D02*
X740159Y900068D01*
X747034Y901910D01*
X753198Y905469D01*
X758231Y910502D01*
X761790Y916666D01*
X763632Y923541D01*
X763632Y930659D01*
X761790Y937534D01*
X758231Y943698D01*
X753198Y948731D01*
X747034Y952290D01*
X740159Y954132D01*
X733041Y954132D01*
X726166Y952290D01*
X720002Y948731D01*
X714969Y943698D01*
X711410Y937534D01*
X709568Y930659D01*
X709568Y923541D01*
X711410Y916666D01*
X714969Y910502D01*
X720002Y905469D01*
X726166Y901910D01*
X733041Y900068D01*
G37*
G36*
X326641Y900068D02*
X333759Y900068D01*
X340634Y901910D01*
X346798Y905469D01*
X351831Y910502D01*
X355390Y916666D01*
X357232Y923541D01*
X357232Y930659D01*
X355390Y937534D01*
X351831Y943698D01*
X346798Y948731D01*
X340634Y952290D01*
X333759Y954132D01*
X326641Y954132D01*
X319766Y952290D01*
X313602Y948731D01*
X308569Y943698D01*
X305010Y937534D01*
X303168Y930659D01*
X303168Y923541D01*
X305010Y916666D01*
X308569Y910502D01*
X313602Y905469D01*
X319766Y901910D01*
X326641Y900068D01*
G37*
G36*
X1523754Y894580D02*
X1526646Y894580D01*
X1529318Y895687D01*
X1531363Y897732D01*
X1532470Y900404D01*
X1532470Y925296D01*
X1531363Y927968D01*
X1529318Y930013D01*
X1526646Y931120D01*
X1523754Y931120D01*
X1521082Y930013D01*
X1519037Y927968D01*
X1517930Y925296D01*
X1517930Y900404D01*
X1519037Y897732D01*
X1521082Y895687D01*
X1523754Y894580D01*
G37*
G36*
X188756Y903712D02*
X192244Y903712D01*
X195468Y905047D01*
X197935Y907514D01*
X199270Y910737D01*
X199270Y914226D01*
X197935Y917449D01*
X195468Y919916D01*
X192244Y921252D01*
X188756Y921252D01*
X185532Y919916D01*
X183065Y917449D01*
X181730Y914226D01*
X181730Y910737D01*
X183065Y907514D01*
X185532Y905047D01*
X188756Y903712D01*
G37*
G36*
X1226724Y538480D02*
X1249776Y538480D01*
X1250520Y539224D01*
X1250520Y543306D01*
X1250571Y543581D01*
X1250735Y543836D01*
X1250985Y544008D01*
X1251282Y544068D01*
X1334342Y544068D01*
X1374902Y584628D01*
X1374902Y851013D01*
X1374958Y851299D01*
X1375125Y851552D01*
X1390203Y866629D01*
X1390422Y866782D01*
X1390717Y866852D01*
X1391016Y866801D01*
X1391272Y866638D01*
X1391443Y866387D01*
X1391504Y866090D01*
X1391504Y860797D01*
X1392247Y860053D01*
X1400038Y860053D01*
X1400301Y860006D01*
X1400559Y859847D01*
X1400735Y859599D01*
X1400800Y859303D01*
X1400744Y859005D01*
X1400577Y858752D01*
X1399455Y857630D01*
X1399455Y854404D01*
X1401737Y852122D01*
X1404963Y852122D01*
X1407245Y854404D01*
X1407245Y857630D01*
X1406123Y858752D01*
X1405970Y858972D01*
X1405900Y859267D01*
X1405951Y859566D01*
X1406115Y859821D01*
X1406365Y859993D01*
X1406662Y860053D01*
X1414453Y860053D01*
X1415197Y860797D01*
X1415197Y899485D01*
X1414453Y900229D01*
X1392247Y900229D01*
X1391504Y899485D01*
X1391504Y873993D01*
X1391448Y873707D01*
X1391280Y873454D01*
X1370838Y853012D01*
X1370838Y586627D01*
X1370782Y586341D01*
X1370615Y586089D01*
X1332882Y548355D01*
X1332640Y548192D01*
X1332343Y548132D01*
X1251282Y548132D01*
X1251007Y548183D01*
X1250752Y548347D01*
X1250580Y548597D01*
X1250520Y548894D01*
X1250520Y552976D01*
X1249776Y553720D01*
X1226724Y553720D01*
X1225980Y552976D01*
X1225980Y539224D01*
X1226724Y538480D01*
G37*
G36*
X188756Y878312D02*
X192244Y878312D01*
X195468Y879647D01*
X197935Y882114D01*
X199270Y885337D01*
X199270Y888826D01*
X197935Y892049D01*
X195468Y894516D01*
X192244Y895852D01*
X188756Y895852D01*
X185532Y894516D01*
X183065Y892049D01*
X181730Y888826D01*
X181730Y885337D01*
X183065Y882114D01*
X185532Y879647D01*
X188756Y878312D01*
G37*
G36*
X410981Y396030D02*
X414519Y396030D01*
X417020Y398531D01*
X417020Y408267D01*
X417067Y408530D01*
X417226Y408788D01*
X417474Y408964D01*
X417770Y409029D01*
X418068Y408973D01*
X418321Y408806D01*
X420957Y406170D01*
X421120Y405928D01*
X421180Y405631D01*
X421180Y398531D01*
X423681Y396030D01*
X427219Y396030D01*
X429720Y398531D01*
X429720Y408267D01*
X429767Y408530D01*
X429926Y408788D01*
X430174Y408964D01*
X430470Y409029D01*
X430768Y408973D01*
X431021Y408806D01*
X433657Y406170D01*
X433820Y405928D01*
X433880Y405631D01*
X433880Y398531D01*
X436381Y396030D01*
X439919Y396030D01*
X442420Y398531D01*
X442420Y408267D01*
X442467Y408530D01*
X442626Y408788D01*
X442874Y408964D01*
X443170Y409029D01*
X443468Y408973D01*
X443721Y408806D01*
X446357Y406170D01*
X446520Y405928D01*
X446580Y405631D01*
X446580Y398531D01*
X449081Y396030D01*
X452619Y396030D01*
X455120Y398531D01*
X455120Y408267D01*
X455167Y408530D01*
X455326Y408788D01*
X455574Y408964D01*
X455870Y409029D01*
X456168Y408973D01*
X456421Y408806D01*
X459057Y406170D01*
X459220Y405928D01*
X459280Y405631D01*
X459280Y398531D01*
X461781Y396030D01*
X465319Y396030D01*
X467820Y398531D01*
X467820Y408267D01*
X467867Y408530D01*
X468026Y408788D01*
X468274Y408964D01*
X468570Y409029D01*
X468868Y408973D01*
X469121Y408806D01*
X471757Y406170D01*
X471920Y405928D01*
X471980Y405631D01*
X471980Y398531D01*
X474481Y396030D01*
X478019Y396030D01*
X480520Y398531D01*
X480520Y408267D01*
X480567Y408530D01*
X480726Y408788D01*
X480974Y408964D01*
X481270Y409029D01*
X481568Y408973D01*
X481821Y408806D01*
X484457Y406170D01*
X484620Y405928D01*
X484680Y405631D01*
X484680Y398531D01*
X487181Y396030D01*
X490719Y396030D01*
X493220Y398531D01*
X493220Y410569D01*
X490719Y413070D01*
X487181Y413070D01*
X485781Y411670D01*
X485551Y411512D01*
X485255Y411447D01*
X484957Y411503D01*
X484704Y411670D01*
X460002Y436372D01*
X409981Y436372D01*
X409695Y436428D01*
X409442Y436595D01*
X345295Y500742D01*
X286322Y500742D01*
X286036Y500798D01*
X285783Y500965D01*
X269209Y517539D01*
X269046Y517781D01*
X268986Y518078D01*
X268986Y547490D01*
X269033Y547753D01*
X269192Y548012D01*
X269440Y548187D01*
X269736Y548252D01*
X270034Y548196D01*
X270287Y548029D01*
X299648Y518668D01*
X326408Y518668D01*
X326694Y518612D01*
X326947Y518445D01*
X328587Y516805D01*
X331813Y516805D01*
X334095Y519087D01*
X334095Y522313D01*
X331813Y524595D01*
X328587Y524595D01*
X326947Y522955D01*
X326705Y522792D01*
X326408Y522732D01*
X301647Y522732D01*
X301361Y522788D01*
X301108Y522955D01*
X293996Y530067D01*
X293843Y530287D01*
X293773Y530582D01*
X293824Y530881D01*
X293987Y531136D01*
X294238Y531308D01*
X294535Y531368D01*
X326408Y531368D01*
X326694Y531312D01*
X326947Y531145D01*
X328587Y529505D01*
X331813Y529505D01*
X334095Y531787D01*
X334095Y535013D01*
X331813Y537295D01*
X328587Y537295D01*
X326947Y535655D01*
X326705Y535492D01*
X326408Y535432D01*
X293257Y535432D01*
X292971Y535488D01*
X292719Y535655D01*
X275305Y553069D01*
X275142Y553310D01*
X275082Y553607D01*
X275082Y692992D01*
X243555Y724519D01*
X243392Y724760D01*
X243332Y725057D01*
X243332Y811723D01*
X173014Y882041D01*
X172854Y882277D01*
X172791Y882574D01*
X172849Y882872D01*
X173870Y885337D01*
X173870Y888826D01*
X172535Y892049D01*
X170068Y894516D01*
X166844Y895852D01*
X163356Y895852D01*
X160132Y894516D01*
X157665Y892049D01*
X156330Y888826D01*
X156330Y885337D01*
X157665Y882114D01*
X160132Y879647D01*
X163356Y878312D01*
X166844Y878312D01*
X169310Y879333D01*
X169589Y879391D01*
X169887Y879335D01*
X170140Y879168D01*
X239045Y810263D01*
X239208Y810022D01*
X239268Y809724D01*
X239268Y726335D01*
X239221Y726071D01*
X239062Y725813D01*
X238814Y725638D01*
X238518Y725573D01*
X238220Y725628D01*
X237967Y725796D01*
X237831Y725932D01*
X204357Y725932D01*
X204071Y725988D01*
X203819Y726155D01*
X192755Y737219D01*
X192592Y737460D01*
X192532Y737757D01*
X192532Y763042D01*
X192585Y763322D01*
X192751Y763576D01*
X193002Y763746D01*
X195468Y764767D01*
X197935Y767234D01*
X199270Y770457D01*
X199270Y773946D01*
X197935Y777169D01*
X195468Y779636D01*
X192244Y780972D01*
X188756Y780972D01*
X185532Y779636D01*
X183065Y777169D01*
X181730Y773946D01*
X181730Y770457D01*
X183065Y767234D01*
X185532Y764767D01*
X187998Y763746D01*
X188236Y763589D01*
X188408Y763339D01*
X188468Y763042D01*
X188468Y735758D01*
X200042Y724185D01*
X200195Y723965D01*
X200264Y723670D01*
X200213Y723371D01*
X200050Y723116D01*
X199800Y722944D01*
X199503Y722884D01*
X182005Y722884D01*
X181719Y722940D01*
X181467Y723107D01*
X167355Y737219D01*
X167192Y737460D01*
X167132Y737757D01*
X167132Y763042D01*
X167185Y763322D01*
X167351Y763576D01*
X167602Y763746D01*
X170068Y764767D01*
X172535Y767234D01*
X173870Y770457D01*
X173870Y773946D01*
X172535Y777169D01*
X170068Y779636D01*
X166844Y780972D01*
X163356Y780972D01*
X160132Y779636D01*
X157665Y777169D01*
X156330Y773946D01*
X156330Y770457D01*
X157665Y767234D01*
X160132Y764767D01*
X162598Y763746D01*
X162836Y763589D01*
X163008Y763339D01*
X163068Y763042D01*
X163068Y735758D01*
X177690Y721137D01*
X177843Y720917D01*
X177912Y720622D01*
X177861Y720323D01*
X177698Y720068D01*
X177448Y719896D01*
X177151Y719836D01*
X157155Y719836D01*
X156869Y719892D01*
X156616Y720059D01*
X141955Y734720D01*
X141792Y734962D01*
X141732Y735259D01*
X141732Y763042D01*
X141785Y763322D01*
X141951Y763576D01*
X142202Y763746D01*
X144668Y764767D01*
X147135Y767234D01*
X148470Y770457D01*
X148470Y773946D01*
X147135Y777169D01*
X144668Y779636D01*
X141444Y780972D01*
X137956Y780972D01*
X134732Y779636D01*
X132265Y777169D01*
X130930Y773946D01*
X130930Y770457D01*
X132265Y767234D01*
X134732Y764767D01*
X137198Y763746D01*
X137436Y763589D01*
X137608Y763339D01*
X137668Y763042D01*
X137668Y733260D01*
X152839Y718089D01*
X152992Y717869D01*
X153062Y717574D01*
X153011Y717275D01*
X152848Y717020D01*
X152597Y716848D01*
X152300Y716788D01*
X137301Y716788D01*
X137015Y716844D01*
X136763Y717011D01*
X116555Y737219D01*
X116392Y737460D01*
X116332Y737757D01*
X116332Y763042D01*
X116385Y763322D01*
X116551Y763576D01*
X116802Y763746D01*
X119268Y764767D01*
X121735Y767234D01*
X123070Y770457D01*
X123070Y773946D01*
X121735Y777169D01*
X119268Y779636D01*
X116044Y780972D01*
X112556Y780972D01*
X109332Y779636D01*
X106865Y777169D01*
X105530Y773946D01*
X105530Y770457D01*
X106865Y767234D01*
X109332Y764767D01*
X111798Y763746D01*
X112036Y763589D01*
X112208Y763339D01*
X112268Y763042D01*
X112268Y735758D01*
X132986Y715041D01*
X133139Y714821D01*
X133208Y714526D01*
X133157Y714227D01*
X132994Y713972D01*
X132744Y713800D01*
X132447Y713740D01*
X114949Y713740D01*
X114663Y713796D01*
X114411Y713963D01*
X91155Y737219D01*
X90992Y737460D01*
X90932Y737757D01*
X90932Y763042D01*
X90985Y763322D01*
X91151Y763576D01*
X91402Y763746D01*
X93868Y764767D01*
X96335Y767234D01*
X97670Y770457D01*
X97670Y773946D01*
X96335Y777169D01*
X93868Y779636D01*
X90644Y780972D01*
X87156Y780972D01*
X83932Y779636D01*
X81465Y777169D01*
X80130Y773946D01*
X80130Y770457D01*
X81465Y767234D01*
X83932Y764767D01*
X86398Y763746D01*
X86636Y763589D01*
X86808Y763339D01*
X86868Y763042D01*
X86868Y735758D01*
X110634Y711993D01*
X110787Y711773D01*
X110856Y711478D01*
X110805Y711179D01*
X110642Y710924D01*
X110392Y710752D01*
X110095Y710692D01*
X92597Y710692D01*
X92311Y710748D01*
X92059Y710915D01*
X65755Y737219D01*
X65592Y737460D01*
X65532Y737757D01*
X65532Y763042D01*
X65585Y763322D01*
X65751Y763576D01*
X66002Y763746D01*
X68468Y764767D01*
X70935Y767234D01*
X72270Y770457D01*
X72270Y773946D01*
X70935Y777169D01*
X68468Y779636D01*
X65244Y780972D01*
X61756Y780972D01*
X58532Y779636D01*
X56065Y777169D01*
X54730Y773946D01*
X54730Y770457D01*
X56065Y767234D01*
X58532Y764767D01*
X60998Y763746D01*
X61236Y763589D01*
X61408Y763339D01*
X61468Y763042D01*
X61468Y735758D01*
X88282Y708945D01*
X88435Y708725D01*
X88504Y708430D01*
X88453Y708131D01*
X88290Y707876D01*
X88040Y707704D01*
X87743Y707644D01*
X70245Y707644D01*
X69959Y707700D01*
X69707Y707867D01*
X40355Y737219D01*
X40192Y737460D01*
X40132Y737757D01*
X40132Y763042D01*
X40185Y763322D01*
X40351Y763576D01*
X40602Y763746D01*
X43068Y764767D01*
X45535Y767234D01*
X46870Y770457D01*
X46870Y773946D01*
X45535Y777169D01*
X43068Y779636D01*
X39844Y780972D01*
X36356Y780972D01*
X33132Y779636D01*
X30665Y777169D01*
X29330Y773946D01*
X29330Y770457D01*
X30665Y767234D01*
X33132Y764767D01*
X35598Y763746D01*
X35836Y763589D01*
X36008Y763339D01*
X36068Y763042D01*
X36068Y735758D01*
X65930Y705897D01*
X66083Y705677D01*
X66152Y705382D01*
X66101Y705083D01*
X65938Y704828D01*
X65688Y704656D01*
X65391Y704596D01*
X47893Y704596D01*
X47607Y704652D01*
X47355Y704819D01*
X14955Y737219D01*
X14792Y737460D01*
X14732Y737757D01*
X14732Y762670D01*
X14783Y762944D01*
X14947Y763200D01*
X15197Y763371D01*
X15494Y763432D01*
X20726Y763432D01*
X21470Y764176D01*
X21470Y780228D01*
X20726Y780972D01*
X4674Y780972D01*
X3930Y780228D01*
X3930Y764176D01*
X4674Y763432D01*
X9906Y763432D01*
X10181Y763380D01*
X10436Y763217D01*
X10608Y762967D01*
X10668Y762670D01*
X10668Y735758D01*
X45894Y700532D01*
X226994Y700532D01*
X227280Y700476D01*
X227533Y700309D01*
X246411Y681431D01*
X246574Y681189D01*
X246634Y680892D01*
X246634Y508503D01*
X276747Y478390D01*
X335721Y478390D01*
X336007Y478334D01*
X336260Y478167D01*
X408257Y406170D01*
X408420Y405928D01*
X408480Y405631D01*
X408480Y398531D01*
X410981Y396030D01*
G37*
G36*
X1495364Y790180D02*
X1501836Y790180D01*
X1507816Y792657D01*
X1512393Y797234D01*
X1514870Y803214D01*
X1514870Y809686D01*
X1512393Y815666D01*
X1507816Y820243D01*
X1501836Y822720D01*
X1495364Y822720D01*
X1489384Y820243D01*
X1484807Y815666D01*
X1482330Y809686D01*
X1482330Y803214D01*
X1484807Y797234D01*
X1489384Y792657D01*
X1495364Y790180D01*
G37*
G36*
X480706Y803280D02*
X484494Y803280D01*
X487993Y804729D01*
X490671Y807407D01*
X492120Y810906D01*
X492120Y814694D01*
X490671Y818193D01*
X487993Y820871D01*
X484494Y822320D01*
X480706Y822320D01*
X477207Y820871D01*
X474529Y818193D01*
X473080Y814694D01*
X473080Y810906D01*
X474529Y807407D01*
X477207Y804729D01*
X480706Y803280D01*
G37*
G36*
X582306Y803280D02*
X586094Y803280D01*
X589593Y804729D01*
X592271Y807407D01*
X593720Y810906D01*
X593720Y814694D01*
X592271Y818193D01*
X589593Y820871D01*
X586094Y822320D01*
X582306Y822320D01*
X578807Y820871D01*
X576129Y818193D01*
X574680Y814694D01*
X574680Y810906D01*
X576129Y807407D01*
X578807Y804729D01*
X582306Y803280D01*
G37*
G36*
X683906Y803280D02*
X687694Y803280D01*
X691193Y804729D01*
X693871Y807407D01*
X695320Y810906D01*
X695320Y814694D01*
X693871Y818193D01*
X691193Y820871D01*
X687694Y822320D01*
X683906Y822320D01*
X680407Y820871D01*
X677729Y818193D01*
X676280Y814694D01*
X676280Y810906D01*
X677729Y807407D01*
X680407Y804729D01*
X683906Y803280D01*
G37*
G36*
X379106Y803280D02*
X382894Y803280D01*
X386393Y804729D01*
X389071Y807407D01*
X390520Y810906D01*
X390520Y814694D01*
X389071Y818193D01*
X386393Y820871D01*
X382894Y822320D01*
X379106Y822320D01*
X375607Y820871D01*
X372929Y818193D01*
X371480Y814694D01*
X371480Y810906D01*
X372929Y807407D01*
X375607Y804729D01*
X379106Y803280D01*
G37*
G36*
X1226724Y792480D02*
X1249776Y792480D01*
X1250520Y793224D01*
X1250520Y806976D01*
X1249776Y807720D01*
X1226724Y807720D01*
X1225980Y806976D01*
X1225980Y802894D01*
X1225929Y802619D01*
X1225765Y802364D01*
X1225515Y802192D01*
X1225218Y802132D01*
X1206482Y802132D01*
X1206196Y802188D01*
X1205943Y802355D01*
X1204303Y803995D01*
X1201077Y803995D01*
X1198795Y801713D01*
X1198795Y798487D01*
X1201077Y796205D01*
X1204303Y796205D01*
X1205943Y797845D01*
X1206185Y798008D01*
X1206482Y798068D01*
X1225218Y798068D01*
X1225493Y798017D01*
X1225748Y797853D01*
X1225920Y797603D01*
X1225980Y797306D01*
X1225980Y793224D01*
X1226724Y792480D01*
G37*
G36*
X137956Y788832D02*
X141444Y788832D01*
X144668Y790167D01*
X147135Y792634D01*
X148470Y795857D01*
X148470Y799346D01*
X147135Y802569D01*
X144668Y805036D01*
X141444Y806372D01*
X137956Y806372D01*
X134732Y805036D01*
X132265Y802569D01*
X130930Y799346D01*
X130930Y795857D01*
X132265Y792634D01*
X134732Y790167D01*
X137956Y788832D01*
G37*
G36*
X163356Y788832D02*
X166844Y788832D01*
X170068Y790167D01*
X172535Y792634D01*
X173870Y795857D01*
X173870Y799346D01*
X172535Y802569D01*
X170068Y805036D01*
X166844Y806372D01*
X163356Y806372D01*
X160132Y805036D01*
X157665Y802569D01*
X156330Y799346D01*
X156330Y795857D01*
X157665Y792634D01*
X160132Y790167D01*
X163356Y788832D01*
G37*
G36*
X188756Y788832D02*
X192244Y788832D01*
X195468Y790167D01*
X197935Y792634D01*
X199270Y795857D01*
X199270Y799346D01*
X197935Y802569D01*
X195468Y805036D01*
X192244Y806372D01*
X188756Y806372D01*
X185532Y805036D01*
X183065Y802569D01*
X181730Y799346D01*
X181730Y795857D01*
X183065Y792634D01*
X185532Y790167D01*
X188756Y788832D01*
G37*
G36*
X36356Y788832D02*
X39844Y788832D01*
X43068Y790167D01*
X45535Y792634D01*
X46870Y795857D01*
X46870Y799346D01*
X45535Y802569D01*
X43068Y805036D01*
X39844Y806372D01*
X36356Y806372D01*
X33132Y805036D01*
X30665Y802569D01*
X29330Y799346D01*
X29330Y795857D01*
X30665Y792634D01*
X33132Y790167D01*
X36356Y788832D01*
G37*
G36*
X10956Y788832D02*
X14444Y788832D01*
X17668Y790167D01*
X20135Y792634D01*
X21470Y795857D01*
X21470Y799346D01*
X20135Y802569D01*
X17668Y805036D01*
X14444Y806372D01*
X10956Y806372D01*
X7732Y805036D01*
X5265Y802569D01*
X3930Y799346D01*
X3930Y795857D01*
X5265Y792634D01*
X7732Y790167D01*
X10956Y788832D01*
G37*
G36*
X61756Y788832D02*
X65244Y788832D01*
X68468Y790167D01*
X70935Y792634D01*
X72270Y795857D01*
X72270Y799346D01*
X70935Y802569D01*
X68468Y805036D01*
X65244Y806372D01*
X61756Y806372D01*
X58532Y805036D01*
X56065Y802569D01*
X54730Y799346D01*
X54730Y795857D01*
X56065Y792634D01*
X58532Y790167D01*
X61756Y788832D01*
G37*
G36*
X87156Y788832D02*
X90644Y788832D01*
X93868Y790167D01*
X96335Y792634D01*
X97670Y795857D01*
X97670Y799346D01*
X96335Y802569D01*
X93868Y805036D01*
X90644Y806372D01*
X87156Y806372D01*
X83932Y805036D01*
X81465Y802569D01*
X80130Y799346D01*
X80130Y795857D01*
X81465Y792634D01*
X83932Y790167D01*
X87156Y788832D01*
G37*
G36*
X112556Y788832D02*
X116044Y788832D01*
X119268Y790167D01*
X121735Y792634D01*
X123070Y795857D01*
X123070Y799346D01*
X121735Y802569D01*
X119268Y805036D01*
X116044Y806372D01*
X112556Y806372D01*
X109332Y805036D01*
X106865Y802569D01*
X105530Y799346D01*
X105530Y795857D01*
X106865Y792634D01*
X109332Y790167D01*
X112556Y788832D01*
G37*
G36*
X974556Y778255D02*
X993944Y778255D01*
X997305Y779647D01*
X999878Y782220D01*
X1001270Y785581D01*
X1001270Y789219D01*
X999878Y792580D01*
X997305Y795153D01*
X993944Y796545D01*
X974556Y796545D01*
X971195Y795153D01*
X968622Y792580D01*
X967230Y789219D01*
X967230Y785581D01*
X968622Y782220D01*
X971195Y779647D01*
X974556Y778255D01*
G37*
G36*
X1446220Y773105D02*
X1449380Y773105D01*
X1452301Y774315D01*
X1454535Y776550D01*
X1455745Y779470D01*
X1455745Y782630D01*
X1454535Y785551D01*
X1452301Y787785D01*
X1449380Y788995D01*
X1446220Y788995D01*
X1443300Y787785D01*
X1441065Y785551D01*
X1439855Y782630D01*
X1439855Y779470D01*
X1441065Y776550D01*
X1443300Y774315D01*
X1446220Y773105D01*
G37*
G36*
X410981Y450530D02*
X414519Y450530D01*
X417020Y453031D01*
X417020Y462767D01*
X417067Y463030D01*
X417226Y463288D01*
X417474Y463464D01*
X417770Y463529D01*
X418068Y463473D01*
X418321Y463306D01*
X420957Y460670D01*
X421120Y460428D01*
X421180Y460131D01*
X421180Y453031D01*
X423681Y450530D01*
X427219Y450530D01*
X429720Y453031D01*
X429720Y462767D01*
X429767Y463030D01*
X429926Y463288D01*
X430174Y463464D01*
X430470Y463529D01*
X430768Y463473D01*
X431021Y463306D01*
X433657Y460670D01*
X433820Y460428D01*
X433880Y460131D01*
X433880Y453031D01*
X436381Y450530D01*
X439919Y450530D01*
X442420Y453031D01*
X442420Y462767D01*
X442467Y463030D01*
X442626Y463288D01*
X442874Y463464D01*
X443170Y463529D01*
X443468Y463473D01*
X443721Y463306D01*
X446357Y460670D01*
X446520Y460428D01*
X446580Y460131D01*
X446580Y453031D01*
X449081Y450530D01*
X452619Y450530D01*
X455120Y453031D01*
X455120Y461792D01*
X455167Y462056D01*
X455326Y462314D01*
X455574Y462489D01*
X455870Y462554D01*
X456168Y462499D01*
X456421Y462331D01*
X459057Y459695D01*
X459220Y459453D01*
X459280Y459156D01*
X459280Y453031D01*
X461781Y450530D01*
X465319Y450530D01*
X467820Y453031D01*
X467820Y462767D01*
X467867Y463030D01*
X468026Y463288D01*
X468274Y463464D01*
X468570Y463529D01*
X468868Y463473D01*
X469121Y463306D01*
X471757Y460670D01*
X471920Y460428D01*
X471980Y460131D01*
X471980Y453031D01*
X474481Y450530D01*
X478019Y450530D01*
X480520Y453031D01*
X480520Y462767D01*
X480567Y463030D01*
X480726Y463288D01*
X480974Y463464D01*
X481270Y463529D01*
X481568Y463473D01*
X481821Y463306D01*
X484457Y460670D01*
X484620Y460428D01*
X484680Y460131D01*
X484680Y453031D01*
X487181Y450530D01*
X490719Y450530D01*
X493220Y453031D01*
X493220Y465069D01*
X490719Y467570D01*
X487181Y467570D01*
X485781Y466170D01*
X485551Y466012D01*
X485255Y465947D01*
X484957Y466003D01*
X484704Y466170D01*
X465016Y485858D01*
X414995Y485858D01*
X414709Y485914D01*
X414456Y486081D01*
X366999Y533538D01*
X366836Y533779D01*
X366776Y534077D01*
X366776Y591955D01*
X366832Y592241D01*
X366999Y592494D01*
X384898Y610393D01*
X385140Y610556D01*
X385437Y610616D01*
X432603Y610616D01*
X432866Y610569D01*
X433124Y610410D01*
X433300Y610162D01*
X433365Y609866D01*
X433309Y609568D01*
X433142Y609315D01*
X410718Y586892D01*
X410718Y569222D01*
X410662Y568936D01*
X410495Y568684D01*
X408480Y566669D01*
X408480Y554631D01*
X410981Y552130D01*
X414519Y552130D01*
X417020Y554631D01*
X417020Y566669D01*
X415005Y568684D01*
X414842Y568925D01*
X414782Y569222D01*
X414782Y584893D01*
X414838Y585179D01*
X415005Y585432D01*
X436919Y607345D01*
X437160Y607508D01*
X437457Y607568D01*
X454955Y607568D01*
X455218Y607521D01*
X455476Y607362D01*
X455652Y607114D01*
X455717Y606818D01*
X455661Y606520D01*
X455494Y606267D01*
X436118Y586892D01*
X436118Y569222D01*
X436062Y568936D01*
X435895Y568684D01*
X433880Y566669D01*
X433880Y563444D01*
X433829Y563169D01*
X433665Y562914D01*
X433415Y562742D01*
X433118Y562682D01*
X430482Y562682D01*
X430207Y562733D01*
X429952Y562897D01*
X429780Y563147D01*
X429720Y563444D01*
X429720Y566669D01*
X427219Y569170D01*
X423681Y569170D01*
X421180Y566669D01*
X421180Y554631D01*
X423681Y552130D01*
X427219Y552130D01*
X429720Y554631D01*
X429720Y557856D01*
X429771Y558131D01*
X429935Y558386D01*
X430185Y558558D01*
X430482Y558618D01*
X433118Y558618D01*
X433393Y558567D01*
X433648Y558403D01*
X433820Y558153D01*
X433880Y557856D01*
X433880Y554631D01*
X436381Y552130D01*
X439919Y552130D01*
X442420Y554631D01*
X442420Y566669D01*
X440405Y568684D01*
X440242Y568925D01*
X440182Y569222D01*
X440182Y584893D01*
X440238Y585179D01*
X440405Y585432D01*
X459271Y604297D01*
X459512Y604460D01*
X459809Y604520D01*
X709225Y604520D01*
X766826Y662121D01*
X766826Y722179D01*
X737673Y751332D01*
X712357Y751332D01*
X712071Y751388D01*
X711819Y751555D01*
X695543Y767831D01*
X695380Y768072D01*
X695320Y768369D01*
X695320Y783476D01*
X694576Y784220D01*
X677024Y784220D01*
X676280Y783476D01*
X676280Y765924D01*
X677024Y765180D01*
X692131Y765180D01*
X692417Y765124D01*
X692670Y764957D01*
X708042Y749585D01*
X708195Y749365D01*
X708264Y749070D01*
X708213Y748771D01*
X708050Y748516D01*
X707800Y748344D01*
X707503Y748284D01*
X613805Y748284D01*
X613519Y748340D01*
X613267Y748507D01*
X593943Y767831D01*
X593780Y768072D01*
X593720Y768369D01*
X593720Y783476D01*
X592976Y784220D01*
X575424Y784220D01*
X574680Y783476D01*
X574680Y765924D01*
X575424Y765180D01*
X590531Y765180D01*
X590817Y765124D01*
X591070Y764957D01*
X609490Y746537D01*
X609643Y746317D01*
X609712Y746022D01*
X609661Y745723D01*
X609498Y745468D01*
X609248Y745296D01*
X608951Y745236D01*
X515253Y745236D01*
X514967Y745292D01*
X514715Y745459D01*
X492343Y767831D01*
X492180Y768072D01*
X492120Y768369D01*
X492120Y783476D01*
X491376Y784220D01*
X473824Y784220D01*
X473080Y783476D01*
X473080Y765924D01*
X473824Y765180D01*
X488931Y765180D01*
X489217Y765124D01*
X489470Y764957D01*
X513254Y741172D01*
X733149Y741172D01*
X733435Y741116D01*
X733688Y740949D01*
X734704Y739933D01*
X734857Y739713D01*
X734927Y739418D01*
X734876Y739119D01*
X734713Y738864D01*
X734462Y738692D01*
X734165Y738632D01*
X420257Y738632D01*
X419971Y738688D01*
X419719Y738855D01*
X390743Y767831D01*
X390580Y768072D01*
X390520Y768369D01*
X390520Y783476D01*
X389776Y784220D01*
X372224Y784220D01*
X371480Y783476D01*
X371480Y765924D01*
X372224Y765180D01*
X387331Y765180D01*
X387617Y765124D01*
X387870Y764957D01*
X418258Y734568D01*
X735443Y734568D01*
X735729Y734512D01*
X735982Y734345D01*
X753395Y716932D01*
X753558Y716690D01*
X753618Y716393D01*
X753618Y667907D01*
X753562Y667621D01*
X753395Y667369D01*
X703978Y617951D01*
X703736Y617788D01*
X703439Y617728D01*
X685941Y617728D01*
X685678Y617775D01*
X685420Y617934D01*
X685245Y618182D01*
X685179Y618478D01*
X685235Y618776D01*
X685403Y619029D01*
X729731Y663357D01*
X729972Y663520D01*
X730269Y663580D01*
X745376Y663580D01*
X746120Y664324D01*
X746120Y681876D01*
X745376Y682620D01*
X727824Y682620D01*
X727080Y681876D01*
X727080Y666769D01*
X727024Y666483D01*
X726857Y666231D01*
X682134Y621507D01*
X681892Y621344D01*
X681595Y621284D01*
X587897Y621284D01*
X587634Y621331D01*
X587376Y621490D01*
X587201Y621738D01*
X587135Y622034D01*
X587191Y622332D01*
X587359Y622585D01*
X628131Y663357D01*
X628372Y663520D01*
X628669Y663580D01*
X643776Y663580D01*
X644520Y664324D01*
X644520Y681876D01*
X643776Y682620D01*
X626224Y682620D01*
X625480Y681876D01*
X625480Y666769D01*
X625424Y666483D01*
X625257Y666231D01*
X583582Y624555D01*
X583340Y624392D01*
X583043Y624332D01*
X489345Y624332D01*
X489082Y624379D01*
X488824Y624538D01*
X488649Y624786D01*
X488583Y625082D01*
X488639Y625380D01*
X488807Y625633D01*
X526531Y663357D01*
X526772Y663520D01*
X527069Y663580D01*
X542176Y663580D01*
X542920Y664324D01*
X542920Y681876D01*
X542176Y682620D01*
X524624Y682620D01*
X523880Y681876D01*
X523880Y666769D01*
X523824Y666483D01*
X523657Y666231D01*
X485030Y627603D01*
X484788Y627440D01*
X484491Y627380D01*
X382172Y627380D01*
X381909Y627427D01*
X381651Y627586D01*
X381475Y627834D01*
X381410Y628130D01*
X381466Y628428D01*
X381633Y628681D01*
X420979Y668027D01*
X421199Y668180D01*
X421494Y668249D01*
X421793Y668199D01*
X422048Y668035D01*
X422220Y667785D01*
X422280Y667488D01*
X422280Y664324D01*
X423024Y663580D01*
X440576Y663580D01*
X441320Y664324D01*
X441320Y681876D01*
X440576Y682620D01*
X423024Y682620D01*
X422280Y681876D01*
X422280Y675390D01*
X422224Y675104D01*
X422057Y674852D01*
X349789Y602584D01*
X349569Y602431D01*
X349274Y602361D01*
X348975Y602412D01*
X348720Y602575D01*
X348548Y602825D01*
X348488Y603122D01*
X348488Y632286D01*
X332455Y648319D01*
X332292Y648560D01*
X332232Y648857D01*
X332232Y662818D01*
X332283Y663093D01*
X332447Y663348D01*
X332697Y663520D01*
X332994Y663580D01*
X338976Y663580D01*
X339720Y664324D01*
X339720Y681876D01*
X338976Y682620D01*
X321424Y682620D01*
X320680Y681876D01*
X320680Y664324D01*
X321424Y663580D01*
X327406Y663580D01*
X327681Y663529D01*
X327936Y663365D01*
X328108Y663115D01*
X328168Y662818D01*
X328168Y646858D01*
X344201Y630826D01*
X344364Y630584D01*
X344424Y630287D01*
X344424Y524502D01*
X408257Y460670D01*
X408420Y460428D01*
X408480Y460131D01*
X408480Y453031D01*
X410981Y450530D01*
G37*
G36*
X1262724Y767080D02*
X1285776Y767080D01*
X1286520Y767824D01*
X1286520Y781576D01*
X1285776Y782320D01*
X1262724Y782320D01*
X1261980Y781576D01*
X1261980Y777494D01*
X1261929Y777219D01*
X1261765Y776964D01*
X1261515Y776792D01*
X1261218Y776732D01*
X1209022Y776732D01*
X1208736Y776788D01*
X1208483Y776955D01*
X1206843Y778595D01*
X1203617Y778595D01*
X1201335Y776313D01*
X1201335Y773087D01*
X1203617Y770805D01*
X1206843Y770805D01*
X1208483Y772445D01*
X1208725Y772608D01*
X1209022Y772668D01*
X1261218Y772668D01*
X1261493Y772617D01*
X1261748Y772453D01*
X1261920Y772203D01*
X1261980Y771906D01*
X1261980Y767824D01*
X1262724Y767080D01*
G37*
G36*
X974556Y752855D02*
X993944Y752855D01*
X997305Y754247D01*
X999878Y756820D01*
X1001270Y760181D01*
X1001270Y763819D01*
X999878Y767180D01*
X997305Y769753D01*
X993944Y771145D01*
X974556Y771145D01*
X971195Y769753D01*
X968622Y767180D01*
X967230Y763819D01*
X967230Y760181D01*
X968622Y756820D01*
X971195Y754247D01*
X974556Y752855D01*
G37*
G36*
X1058944Y753230D02*
X1061956Y753230D01*
X1064738Y754382D01*
X1066868Y756512D01*
X1068020Y759294D01*
X1068020Y762306D01*
X1066868Y765088D01*
X1064738Y767218D01*
X1061956Y768370D01*
X1058944Y768370D01*
X1056162Y767218D01*
X1054032Y765088D01*
X1052880Y762306D01*
X1052880Y759294D01*
X1054032Y756512D01*
X1056162Y754382D01*
X1058944Y753230D01*
G37*
G36*
X1440599Y747705D02*
X1455001Y747705D01*
X1455745Y748449D01*
X1455745Y762851D01*
X1455001Y763595D01*
X1440599Y763595D01*
X1439855Y762851D01*
X1439855Y748449D01*
X1440599Y747705D01*
G37*
G36*
X756422Y365829D02*
X759649Y365829D01*
X761931Y368111D01*
X761931Y370430D01*
X761986Y370716D01*
X762154Y370969D01*
X785468Y394283D01*
X785468Y410938D01*
X785523Y411224D01*
X785691Y411477D01*
X791687Y417473D01*
X791907Y417626D01*
X792202Y417696D01*
X792501Y417645D01*
X792756Y417481D01*
X792928Y417231D01*
X792988Y416934D01*
X792988Y387332D01*
X792932Y387046D01*
X792765Y386793D01*
X791125Y385153D01*
X791125Y381927D01*
X793407Y379645D01*
X796633Y379645D01*
X798915Y381927D01*
X798915Y385153D01*
X797275Y386793D01*
X797112Y387035D01*
X797052Y387332D01*
X797052Y418212D01*
X797108Y418498D01*
X797275Y418750D01*
X804387Y425862D01*
X804607Y426015D01*
X804902Y426085D01*
X805201Y426034D01*
X805456Y425871D01*
X805628Y425621D01*
X805688Y425324D01*
X805688Y400032D01*
X805632Y399746D01*
X805465Y399493D01*
X803825Y397853D01*
X803825Y394627D01*
X806107Y392345D01*
X809333Y392345D01*
X811615Y394627D01*
X811615Y397853D01*
X809975Y399493D01*
X809812Y399735D01*
X809752Y400032D01*
X809752Y426601D01*
X809808Y426887D01*
X809975Y427140D01*
X817087Y434252D01*
X817307Y434405D01*
X817602Y434475D01*
X817901Y434424D01*
X818156Y434260D01*
X818328Y434010D01*
X818388Y433713D01*
X818388Y425432D01*
X818332Y425146D01*
X818165Y424893D01*
X816525Y423253D01*
X816525Y420027D01*
X818807Y417745D01*
X822033Y417745D01*
X824315Y420027D01*
X824315Y423253D01*
X822675Y424893D01*
X822512Y425135D01*
X822452Y425432D01*
X822452Y434990D01*
X822508Y435276D01*
X822675Y435529D01*
X869015Y481869D01*
X869256Y482032D01*
X869554Y482092D01*
X872349Y482092D01*
X872612Y482045D01*
X872870Y481886D01*
X873046Y481638D01*
X873111Y481342D01*
X873055Y481044D01*
X872888Y480791D01*
X834365Y442268D01*
X834123Y442105D01*
X833826Y442045D01*
X831507Y442045D01*
X829225Y439763D01*
X829225Y436537D01*
X831507Y434255D01*
X834733Y434255D01*
X837015Y436537D01*
X837015Y438856D01*
X837071Y439142D01*
X837238Y439395D01*
X876919Y479075D01*
X877160Y479238D01*
X877457Y479298D01*
X1144234Y479298D01*
X1144497Y479251D01*
X1144755Y479092D01*
X1144931Y478844D01*
X1144996Y478548D01*
X1144940Y478250D01*
X1144773Y477997D01*
X1105221Y438445D01*
X1104979Y438282D01*
X1104682Y438222D01*
X1041637Y438222D01*
X1016714Y413299D01*
X1016473Y413136D01*
X1016175Y413076D01*
X906142Y413076D01*
X893122Y400056D01*
X892886Y399895D01*
X892589Y399832D01*
X892291Y399890D01*
X890506Y400630D01*
X887494Y400630D01*
X884712Y399478D01*
X882582Y397348D01*
X881430Y394566D01*
X881430Y391554D01*
X882582Y388772D01*
X884712Y386642D01*
X887494Y385490D01*
X890506Y385490D01*
X893288Y386642D01*
X895418Y388772D01*
X896570Y391554D01*
X896570Y394566D01*
X895830Y396351D01*
X895772Y396631D01*
X895828Y396929D01*
X895996Y397182D01*
X907603Y408789D01*
X907844Y408952D01*
X908141Y409012D01*
X1014539Y409012D01*
X1014802Y408965D01*
X1015060Y408806D01*
X1015236Y408558D01*
X1015301Y408262D01*
X1015245Y407964D01*
X1015078Y407711D01*
X1007422Y400056D01*
X1007186Y399895D01*
X1006889Y399832D01*
X1006591Y399890D01*
X1004806Y400630D01*
X1001794Y400630D01*
X999012Y399478D01*
X996882Y397348D01*
X995730Y394566D01*
X995730Y391554D01*
X996882Y388772D01*
X999012Y386642D01*
X1001794Y385490D01*
X1004806Y385490D01*
X1007588Y386642D01*
X1009718Y388772D01*
X1010870Y391554D01*
X1010870Y394566D01*
X1010130Y396351D01*
X1010072Y396631D01*
X1010128Y396929D01*
X1010296Y397182D01*
X1044255Y431141D01*
X1044496Y431304D01*
X1044793Y431364D01*
X1107838Y431364D01*
X1215898Y539424D01*
X1215898Y552309D01*
X1215954Y552595D01*
X1216121Y552848D01*
X1232519Y569245D01*
X1232760Y569408D01*
X1233057Y569468D01*
X1261218Y569468D01*
X1261493Y569417D01*
X1261748Y569253D01*
X1261920Y569003D01*
X1261980Y568706D01*
X1261980Y564624D01*
X1262724Y563880D01*
X1285776Y563880D01*
X1286520Y564624D01*
X1286520Y578376D01*
X1285776Y579120D01*
X1262724Y579120D01*
X1261980Y578376D01*
X1261980Y574294D01*
X1261929Y574019D01*
X1261765Y573764D01*
X1261515Y573592D01*
X1261218Y573532D01*
X1231058Y573532D01*
X1214151Y556625D01*
X1213931Y556472D01*
X1213636Y556402D01*
X1213337Y556453D01*
X1213082Y556616D01*
X1212910Y556866D01*
X1212850Y557163D01*
X1212850Y578471D01*
X1212906Y578757D01*
X1213073Y579010D01*
X1224679Y590616D01*
X1224899Y590769D01*
X1225194Y590838D01*
X1225493Y590787D01*
X1225748Y590624D01*
X1225920Y590374D01*
X1225980Y590077D01*
X1225980Y590024D01*
X1226724Y589280D01*
X1249776Y589280D01*
X1250520Y590024D01*
X1250520Y603776D01*
X1249776Y604520D01*
X1226724Y604520D01*
X1225980Y603776D01*
X1225980Y597979D01*
X1225924Y597693D01*
X1225757Y597441D01*
X1211103Y582787D01*
X1210883Y582634D01*
X1210588Y582564D01*
X1210289Y582615D01*
X1210034Y582778D01*
X1209862Y583028D01*
X1209802Y583325D01*
X1209802Y599553D01*
X1209858Y599839D01*
X1210025Y600092D01*
X1229979Y620045D01*
X1230220Y620208D01*
X1230517Y620268D01*
X1261218Y620268D01*
X1261493Y620217D01*
X1261748Y620053D01*
X1261920Y619803D01*
X1261980Y619506D01*
X1261980Y615424D01*
X1262724Y614680D01*
X1285776Y614680D01*
X1286520Y615424D01*
X1286520Y629176D01*
X1285776Y629920D01*
X1262724Y629920D01*
X1261980Y629176D01*
X1261980Y625094D01*
X1261929Y624819D01*
X1261765Y624564D01*
X1261515Y624392D01*
X1261218Y624332D01*
X1228518Y624332D01*
X1208055Y603869D01*
X1207835Y603716D01*
X1207540Y603646D01*
X1207241Y603697D01*
X1206986Y603860D01*
X1206814Y604110D01*
X1206754Y604407D01*
X1206754Y623175D01*
X1206810Y623461D01*
X1206977Y623714D01*
X1224679Y641416D01*
X1224899Y641569D01*
X1225194Y641638D01*
X1225493Y641587D01*
X1225748Y641424D01*
X1225920Y641174D01*
X1225980Y640877D01*
X1225980Y640824D01*
X1226724Y640080D01*
X1249776Y640080D01*
X1250520Y640824D01*
X1250520Y654576D01*
X1249776Y655320D01*
X1226724Y655320D01*
X1225980Y654576D01*
X1225980Y648779D01*
X1225924Y648493D01*
X1225757Y648241D01*
X1205007Y627491D01*
X1204787Y627338D01*
X1204492Y627268D01*
X1204193Y627319D01*
X1203938Y627482D01*
X1203766Y627732D01*
X1203706Y628029D01*
X1203706Y644257D01*
X1203762Y644543D01*
X1203929Y644796D01*
X1229979Y670845D01*
X1230220Y671008D01*
X1230517Y671068D01*
X1261218Y671068D01*
X1261493Y671017D01*
X1261748Y670853D01*
X1261920Y670603D01*
X1261980Y670306D01*
X1261980Y666224D01*
X1262724Y665480D01*
X1285776Y665480D01*
X1286520Y666224D01*
X1286520Y679976D01*
X1285776Y680720D01*
X1262724Y680720D01*
X1261980Y679976D01*
X1261980Y675894D01*
X1261929Y675619D01*
X1261765Y675364D01*
X1261515Y675192D01*
X1261218Y675132D01*
X1228518Y675132D01*
X1201959Y648573D01*
X1201739Y648420D01*
X1201444Y648350D01*
X1201145Y648401D01*
X1200890Y648564D01*
X1200718Y648814D01*
X1200658Y649111D01*
X1200658Y667879D01*
X1200714Y668165D01*
X1200881Y668418D01*
X1224679Y692216D01*
X1224899Y692369D01*
X1225194Y692438D01*
X1225493Y692387D01*
X1225748Y692224D01*
X1225920Y691974D01*
X1225980Y691677D01*
X1225980Y691624D01*
X1226724Y690880D01*
X1249776Y690880D01*
X1250520Y691624D01*
X1250520Y705376D01*
X1249776Y706120D01*
X1226724Y706120D01*
X1225980Y705376D01*
X1225980Y699579D01*
X1225924Y699293D01*
X1225757Y699041D01*
X1198657Y671941D01*
X1198437Y671788D01*
X1198142Y671718D01*
X1197843Y671769D01*
X1197588Y671932D01*
X1197416Y672182D01*
X1197356Y672479D01*
X1197356Y689977D01*
X1197412Y690263D01*
X1197579Y690516D01*
X1228709Y721645D01*
X1228950Y721808D01*
X1229247Y721868D01*
X1261218Y721868D01*
X1261493Y721817D01*
X1261748Y721653D01*
X1261920Y721403D01*
X1261980Y721106D01*
X1261980Y717024D01*
X1262724Y716280D01*
X1285776Y716280D01*
X1286520Y717024D01*
X1286520Y730776D01*
X1285776Y731520D01*
X1262724Y731520D01*
X1261980Y730776D01*
X1261980Y726694D01*
X1261929Y726419D01*
X1261765Y726164D01*
X1261515Y725992D01*
X1261218Y725932D01*
X1227248Y725932D01*
X1195863Y694547D01*
X1195643Y694394D01*
X1195348Y694324D01*
X1195049Y694375D01*
X1194794Y694538D01*
X1194622Y694788D01*
X1194562Y695085D01*
X1194562Y712583D01*
X1194618Y712869D01*
X1194785Y713122D01*
X1224679Y743016D01*
X1224899Y743169D01*
X1225194Y743238D01*
X1225493Y743187D01*
X1225748Y743024D01*
X1225920Y742774D01*
X1225980Y742477D01*
X1225980Y742424D01*
X1226724Y741680D01*
X1249776Y741680D01*
X1250520Y742424D01*
X1250520Y756176D01*
X1249776Y756920D01*
X1226724Y756920D01*
X1225980Y756176D01*
X1225980Y750379D01*
X1225924Y750093D01*
X1225757Y749841D01*
X1190498Y714582D01*
X1190498Y547746D01*
X1190442Y547460D01*
X1190275Y547208D01*
X1140622Y497555D01*
X1140381Y497392D01*
X1140084Y497332D01*
X861488Y497332D01*
X737252Y373095D01*
X737010Y372932D01*
X736713Y372872D01*
X595517Y372872D01*
X595231Y372928D01*
X594979Y373095D01*
X588318Y379756D01*
X588155Y379997D01*
X588095Y380294D01*
X588095Y382613D01*
X585813Y384895D01*
X583494Y384895D01*
X583208Y384951D01*
X582956Y385118D01*
X582110Y385964D01*
X581957Y386184D01*
X581887Y386479D01*
X581938Y386778D01*
X582101Y387033D01*
X582351Y387205D01*
X582648Y387265D01*
X585813Y387265D01*
X588095Y389547D01*
X588095Y392773D01*
X586455Y394413D01*
X586292Y394655D01*
X586232Y394952D01*
X586232Y395224D01*
X586283Y395499D01*
X586447Y395754D01*
X586697Y395926D01*
X586994Y395986D01*
X587520Y395986D01*
X588264Y396730D01*
X588264Y414318D01*
X588311Y414581D01*
X588470Y414839D01*
X588718Y415014D01*
X589014Y415079D01*
X589312Y415024D01*
X589565Y414856D01*
X592613Y411808D01*
X592776Y411567D01*
X592836Y411270D01*
X592836Y396730D01*
X593580Y395986D01*
X600220Y395986D01*
X600964Y396730D01*
X600964Y417594D01*
X600220Y418338D01*
X593580Y418338D01*
X593244Y418002D01*
X593014Y417844D01*
X592717Y417779D01*
X592419Y417835D01*
X592166Y418002D01*
X578399Y431769D01*
X578246Y431989D01*
X578177Y432284D01*
X578227Y432583D01*
X578391Y432838D01*
X578641Y433010D01*
X578938Y433070D01*
X593243Y433070D01*
X593529Y433014D01*
X593782Y432847D01*
X603211Y423418D01*
X701153Y423418D01*
X701439Y423362D01*
X701692Y423195D01*
X727402Y397485D01*
X727565Y397243D01*
X727625Y396946D01*
X727625Y394627D01*
X729907Y392345D01*
X733133Y392345D01*
X735415Y394627D01*
X735415Y397853D01*
X733133Y400135D01*
X730814Y400135D01*
X730528Y400191D01*
X730276Y400358D01*
X705723Y424911D01*
X705570Y425131D01*
X705500Y425426D01*
X705551Y425725D01*
X705714Y425980D01*
X705964Y426152D01*
X706261Y426212D01*
X711059Y426212D01*
X711345Y426156D01*
X711598Y425989D01*
X727402Y410185D01*
X727565Y409943D01*
X727625Y409646D01*
X727625Y407327D01*
X729907Y405045D01*
X733133Y405045D01*
X735415Y407327D01*
X735415Y410553D01*
X733133Y412835D01*
X730814Y412835D01*
X730528Y412891D01*
X730276Y413058D01*
X715629Y427705D01*
X715476Y427925D01*
X715406Y428220D01*
X715457Y428519D01*
X715620Y428774D01*
X715870Y428946D01*
X716167Y429006D01*
X720965Y429006D01*
X721251Y428950D01*
X721504Y428783D01*
X727402Y422885D01*
X727565Y422643D01*
X727625Y422346D01*
X727625Y420027D01*
X729907Y417745D01*
X733133Y417745D01*
X735415Y420027D01*
X735415Y423253D01*
X733133Y425535D01*
X730814Y425535D01*
X730528Y425591D01*
X730276Y425758D01*
X725281Y430753D01*
X725128Y430973D01*
X725058Y431268D01*
X725109Y431567D01*
X725272Y431822D01*
X725522Y431994D01*
X725819Y432054D01*
X727982Y432054D01*
X728268Y431998D01*
X728521Y431831D01*
X729907Y430445D01*
X733133Y430445D01*
X735415Y432727D01*
X735415Y435953D01*
X733133Y438235D01*
X729907Y438235D01*
X728013Y436341D01*
X727771Y436178D01*
X727474Y436118D01*
X617176Y436118D01*
X616890Y436174D01*
X616638Y436341D01*
X609018Y443961D01*
X608865Y444181D01*
X608795Y444476D01*
X608846Y444775D01*
X609009Y445030D01*
X609259Y445202D01*
X609556Y445262D01*
X612920Y445262D01*
X613664Y446006D01*
X613664Y466870D01*
X612920Y467614D01*
X612394Y467614D01*
X612119Y467665D01*
X611864Y467829D01*
X611692Y468079D01*
X611632Y468376D01*
X611632Y468648D01*
X611688Y468934D01*
X611855Y469187D01*
X613495Y470827D01*
X613495Y474053D01*
X611213Y476335D01*
X607987Y476335D01*
X605705Y474053D01*
X605705Y470827D01*
X607345Y469187D01*
X607508Y468945D01*
X607568Y468648D01*
X607568Y468376D01*
X607517Y468101D01*
X607353Y467846D01*
X607103Y467674D01*
X606806Y467614D01*
X606280Y467614D01*
X605536Y466870D01*
X605536Y449282D01*
X605489Y449019D01*
X605330Y448761D01*
X605082Y448586D01*
X604786Y448521D01*
X604488Y448576D01*
X604235Y448744D01*
X601187Y451792D01*
X601024Y452033D01*
X600964Y452330D01*
X600964Y466870D01*
X600220Y467614D01*
X593580Y467614D01*
X592836Y466870D01*
X592836Y449282D01*
X592789Y449019D01*
X592630Y448761D01*
X592382Y448586D01*
X592086Y448521D01*
X591788Y448576D01*
X591535Y448744D01*
X588487Y451792D01*
X588324Y452033D01*
X588264Y452330D01*
X588264Y466870D01*
X587520Y467614D01*
X580880Y467614D01*
X580136Y466870D01*
X580136Y446006D01*
X580880Y445262D01*
X587520Y445262D01*
X587856Y445598D01*
X588086Y445756D01*
X588383Y445821D01*
X588681Y445765D01*
X588934Y445598D01*
X593049Y441483D01*
X593202Y441263D01*
X593271Y440968D01*
X593221Y440669D01*
X593057Y440414D01*
X592807Y440242D01*
X592510Y440182D01*
X575012Y440182D01*
X574726Y440238D01*
X574474Y440405D01*
X570918Y443961D01*
X570765Y444181D01*
X570695Y444476D01*
X570746Y444775D01*
X570909Y445030D01*
X571159Y445202D01*
X571456Y445262D01*
X574820Y445262D01*
X575564Y446006D01*
X575564Y466870D01*
X574820Y467614D01*
X574728Y467614D01*
X574465Y467661D01*
X574207Y467820D01*
X574031Y468068D01*
X573966Y468364D01*
X574022Y468662D01*
X574189Y468915D01*
X575395Y470121D01*
X575395Y473347D01*
X573113Y475629D01*
X569887Y475629D01*
X567605Y473347D01*
X567605Y470121D01*
X568811Y468915D01*
X568964Y468695D01*
X569034Y468400D01*
X568983Y468101D01*
X568819Y467846D01*
X568569Y467674D01*
X568272Y467614D01*
X568180Y467614D01*
X567436Y466870D01*
X567436Y449282D01*
X567389Y449019D01*
X567230Y448761D01*
X566982Y448586D01*
X566686Y448521D01*
X566388Y448576D01*
X566135Y448744D01*
X563087Y451792D01*
X562924Y452033D01*
X562864Y452330D01*
X562864Y466870D01*
X562120Y467614D01*
X555480Y467614D01*
X554736Y466870D01*
X554736Y449282D01*
X554689Y449019D01*
X554530Y448761D01*
X554282Y448586D01*
X553986Y448521D01*
X553688Y448576D01*
X553435Y448744D01*
X550387Y451792D01*
X550224Y452033D01*
X550164Y452330D01*
X550164Y466870D01*
X549420Y467614D01*
X542780Y467614D01*
X542036Y466870D01*
X542036Y446006D01*
X542780Y445262D01*
X549420Y445262D01*
X549756Y445598D01*
X549986Y445756D01*
X550283Y445821D01*
X550581Y445765D01*
X550834Y445598D01*
X554949Y441483D01*
X555102Y441263D01*
X555171Y440968D01*
X555121Y440669D01*
X554957Y440414D01*
X554707Y440242D01*
X554410Y440182D01*
X529292Y440182D01*
X529006Y440238D01*
X528754Y440405D01*
X522955Y446204D01*
X522792Y446445D01*
X522732Y446742D01*
X522732Y468674D01*
X522788Y468960D01*
X522955Y469212D01*
X535640Y481897D01*
X535881Y482060D01*
X536178Y482120D01*
X573638Y482120D01*
X586232Y494714D01*
X586232Y496824D01*
X586283Y497099D01*
X586447Y497354D01*
X586697Y497526D01*
X586994Y497586D01*
X587520Y497586D01*
X588264Y498330D01*
X588264Y515918D01*
X588311Y516181D01*
X588470Y516439D01*
X588718Y516614D01*
X589014Y516679D01*
X589312Y516624D01*
X589565Y516456D01*
X592613Y513408D01*
X592776Y513167D01*
X592836Y512870D01*
X592836Y498330D01*
X593580Y497586D01*
X600220Y497586D01*
X600964Y498330D01*
X600964Y519194D01*
X600220Y519938D01*
X593580Y519938D01*
X593244Y519602D01*
X593014Y519444D01*
X592717Y519379D01*
X592419Y519435D01*
X592166Y519602D01*
X563087Y548681D01*
X562924Y548923D01*
X562864Y549220D01*
X562864Y568470D01*
X562120Y569214D01*
X555480Y569214D01*
X554736Y568470D01*
X554736Y547606D01*
X555480Y546862D01*
X558844Y546862D01*
X559130Y546806D01*
X559382Y546639D01*
X584782Y521239D01*
X584935Y521019D01*
X585005Y520724D01*
X584954Y520425D01*
X584791Y520170D01*
X584541Y519998D01*
X584244Y519938D01*
X580880Y519938D01*
X580136Y519194D01*
X580136Y498330D01*
X580880Y497586D01*
X581406Y497586D01*
X581681Y497535D01*
X581936Y497371D01*
X582108Y497121D01*
X582168Y496824D01*
X582168Y496713D01*
X582112Y496427D01*
X581945Y496174D01*
X572178Y486407D01*
X571936Y486244D01*
X571639Y486184D01*
X536194Y486184D01*
X535919Y486235D01*
X535664Y486399D01*
X535492Y486649D01*
X535432Y486946D01*
X535432Y496824D01*
X535483Y497099D01*
X535647Y497354D01*
X535897Y497526D01*
X536194Y497586D01*
X536720Y497586D01*
X537464Y498330D01*
X537464Y519194D01*
X536720Y519938D01*
X530080Y519938D01*
X529336Y519194D01*
X529336Y498330D01*
X530080Y497586D01*
X530606Y497586D01*
X530881Y497535D01*
X531136Y497371D01*
X531308Y497121D01*
X531368Y496824D01*
X531368Y487999D01*
X531312Y487713D01*
X531145Y487460D01*
X515620Y471935D01*
X515620Y443481D01*
X526031Y433070D01*
X553256Y433070D01*
X553542Y433014D01*
X553794Y432847D01*
X556545Y430096D01*
X556708Y429855D01*
X556768Y429558D01*
X556768Y419100D01*
X556717Y418825D01*
X556553Y418570D01*
X556303Y418398D01*
X556006Y418338D01*
X555480Y418338D01*
X554736Y417594D01*
X554736Y396730D01*
X555480Y395986D01*
X562120Y395986D01*
X562864Y396730D01*
X562864Y417594D01*
X562120Y418338D01*
X561594Y418338D01*
X561319Y418389D01*
X561064Y418553D01*
X560892Y418803D01*
X560832Y419100D01*
X560832Y429260D01*
X560883Y429535D01*
X561047Y429790D01*
X561297Y429962D01*
X561594Y430022D01*
X574084Y430022D01*
X574370Y429966D01*
X574622Y429799D01*
X584782Y419639D01*
X584935Y419419D01*
X585005Y419124D01*
X584954Y418825D01*
X584791Y418570D01*
X584541Y418398D01*
X584244Y418338D01*
X580880Y418338D01*
X580136Y417594D01*
X580136Y396730D01*
X580880Y395986D01*
X581406Y395986D01*
X581681Y395935D01*
X581936Y395771D01*
X582108Y395521D01*
X582168Y395224D01*
X582168Y394952D01*
X582112Y394666D01*
X581945Y394413D01*
X580305Y392773D01*
X580305Y389608D01*
X580258Y389345D01*
X580099Y389087D01*
X579851Y388912D01*
X579555Y388846D01*
X579257Y388902D01*
X579004Y389070D01*
X573755Y394319D01*
X573592Y394560D01*
X573532Y394857D01*
X573532Y395224D01*
X573583Y395499D01*
X573747Y395754D01*
X573997Y395926D01*
X574294Y395986D01*
X574820Y395986D01*
X575564Y396730D01*
X575564Y417594D01*
X574820Y418338D01*
X568180Y418338D01*
X567436Y417594D01*
X567436Y396730D01*
X568180Y395986D01*
X568706Y395986D01*
X568981Y395935D01*
X569236Y395771D01*
X569408Y395521D01*
X569468Y395224D01*
X569468Y392858D01*
X580082Y382245D01*
X580245Y382003D01*
X580305Y381706D01*
X580305Y379387D01*
X582587Y377105D01*
X584906Y377105D01*
X585192Y377049D01*
X585445Y376882D01*
X593518Y368808D01*
X738712Y368808D01*
X780103Y410199D01*
X780322Y410352D01*
X780617Y410422D01*
X780916Y410371D01*
X781172Y410208D01*
X781343Y409958D01*
X781404Y409660D01*
X781404Y396282D01*
X781348Y395996D01*
X781181Y395743D01*
X759280Y373842D01*
X759039Y373680D01*
X758741Y373619D01*
X756422Y373619D01*
X754141Y371338D01*
X754141Y368111D01*
X756422Y365829D01*
G37*
G36*
X974556Y727455D02*
X993944Y727455D01*
X997305Y728847D01*
X999878Y731420D01*
X1001270Y734781D01*
X1001270Y738419D01*
X999878Y741780D01*
X997305Y744353D01*
X993944Y745745D01*
X974556Y745745D01*
X971195Y744353D01*
X968622Y741780D01*
X967230Y738419D01*
X967230Y734781D01*
X968622Y731420D01*
X971195Y728847D01*
X974556Y727455D01*
G37*
G36*
X1058944Y728230D02*
X1061956Y728230D01*
X1064738Y729382D01*
X1066868Y731512D01*
X1068020Y734294D01*
X1068020Y737306D01*
X1066868Y740088D01*
X1064738Y742218D01*
X1061956Y743370D01*
X1058944Y743370D01*
X1056162Y742218D01*
X1054032Y740088D01*
X1052880Y737306D01*
X1052880Y734294D01*
X1054032Y731512D01*
X1056162Y729382D01*
X1058944Y728230D01*
G37*
G36*
X1495364Y688580D02*
X1501836Y688580D01*
X1507816Y691057D01*
X1512393Y695634D01*
X1514870Y701614D01*
X1514870Y708086D01*
X1512393Y714066D01*
X1507816Y718643D01*
X1501836Y721120D01*
X1495364Y721120D01*
X1489384Y718643D01*
X1484807Y714066D01*
X1482330Y708086D01*
X1482330Y701614D01*
X1484807Y695634D01*
X1489384Y691057D01*
X1495364Y688580D01*
G37*
G36*
X734706Y701680D02*
X738494Y701680D01*
X741993Y703129D01*
X744671Y705807D01*
X746120Y709306D01*
X746120Y713094D01*
X744671Y716593D01*
X741993Y719271D01*
X738494Y720720D01*
X734706Y720720D01*
X731207Y719271D01*
X728529Y716593D01*
X727080Y713094D01*
X727080Y709306D01*
X728529Y705807D01*
X731207Y703129D01*
X734706Y701680D01*
G37*
G36*
X633106Y701680D02*
X636894Y701680D01*
X640393Y703129D01*
X643071Y705807D01*
X644520Y709306D01*
X644520Y713094D01*
X643071Y716593D01*
X640393Y719271D01*
X636894Y720720D01*
X633106Y720720D01*
X629607Y719271D01*
X626929Y716593D01*
X625480Y713094D01*
X625480Y709306D01*
X626929Y705807D01*
X629607Y703129D01*
X633106Y701680D01*
G37*
G36*
X531506Y701680D02*
X535294Y701680D01*
X538793Y703129D01*
X541471Y705807D01*
X542920Y709306D01*
X542920Y713094D01*
X541471Y716593D01*
X538793Y719271D01*
X535294Y720720D01*
X531506Y720720D01*
X528007Y719271D01*
X525329Y716593D01*
X523880Y713094D01*
X523880Y709306D01*
X525329Y705807D01*
X528007Y703129D01*
X531506Y701680D01*
G37*
G36*
X429906Y701680D02*
X433694Y701680D01*
X437193Y703129D01*
X439871Y705807D01*
X441320Y709306D01*
X441320Y713094D01*
X439871Y716593D01*
X437193Y719271D01*
X433694Y720720D01*
X429906Y720720D01*
X426407Y719271D01*
X423729Y716593D01*
X422280Y713094D01*
X422280Y709306D01*
X423729Y705807D01*
X426407Y703129D01*
X429906Y701680D01*
G37*
G36*
X328306Y701680D02*
X332094Y701680D01*
X335593Y703129D01*
X338271Y705807D01*
X339720Y709306D01*
X339720Y713094D01*
X338271Y716593D01*
X335593Y719271D01*
X332094Y720720D01*
X328306Y720720D01*
X324807Y719271D01*
X322129Y716593D01*
X320680Y713094D01*
X320680Y709306D01*
X322129Y705807D01*
X324807Y703129D01*
X328306Y701680D01*
G37*
G36*
X974556Y702055D02*
X993944Y702055D01*
X997305Y703447D01*
X999878Y706020D01*
X1001270Y709381D01*
X1001270Y713019D01*
X999878Y716380D01*
X997305Y718953D01*
X993944Y720345D01*
X974556Y720345D01*
X971195Y718953D01*
X968622Y716380D01*
X967230Y713019D01*
X967230Y709381D01*
X968622Y706020D01*
X971195Y703447D01*
X974556Y702055D01*
G37*
G36*
X1058944Y703230D02*
X1061956Y703230D01*
X1064738Y704382D01*
X1066868Y706512D01*
X1068020Y709294D01*
X1068020Y712306D01*
X1066868Y715088D01*
X1064738Y717218D01*
X1061956Y718370D01*
X1058944Y718370D01*
X1056162Y717218D01*
X1054032Y715088D01*
X1052880Y712306D01*
X1052880Y709294D01*
X1054032Y706512D01*
X1056162Y704382D01*
X1058944Y703230D01*
G37*
G36*
X974556Y676655D02*
X993944Y676655D01*
X997305Y678047D01*
X999878Y680620D01*
X1001270Y683981D01*
X1001270Y687619D01*
X999878Y690980D01*
X997305Y693553D01*
X993944Y694945D01*
X974556Y694945D01*
X971195Y693553D01*
X968622Y690980D01*
X967230Y687619D01*
X967230Y683981D01*
X968622Y680620D01*
X971195Y678047D01*
X974556Y676655D01*
G37*
G36*
X10956Y677030D02*
X14444Y677030D01*
X17668Y678365D01*
X20135Y680832D01*
X21470Y684056D01*
X21470Y687544D01*
X20135Y690768D01*
X17668Y693235D01*
X14444Y694570D01*
X10956Y694570D01*
X7732Y693235D01*
X5265Y690768D01*
X3930Y687544D01*
X3930Y684056D01*
X5265Y680832D01*
X7732Y678365D01*
X10956Y677030D01*
G37*
G36*
X163356Y677030D02*
X166844Y677030D01*
X170068Y678365D01*
X172535Y680832D01*
X173870Y684056D01*
X173870Y687544D01*
X172535Y690768D01*
X170068Y693235D01*
X166844Y694570D01*
X163356Y694570D01*
X160132Y693235D01*
X157665Y690768D01*
X156330Y687544D01*
X156330Y684056D01*
X157665Y680832D01*
X160132Y678365D01*
X163356Y677030D01*
G37*
G36*
X112556Y677030D02*
X116044Y677030D01*
X119268Y678365D01*
X121735Y680832D01*
X123070Y684056D01*
X123070Y687544D01*
X121735Y690768D01*
X119268Y693235D01*
X116044Y694570D01*
X112556Y694570D01*
X109332Y693235D01*
X106865Y690768D01*
X105530Y687544D01*
X105530Y684056D01*
X106865Y680832D01*
X109332Y678365D01*
X112556Y677030D01*
G37*
G36*
X36356Y677030D02*
X39844Y677030D01*
X43068Y678365D01*
X45535Y680832D01*
X46870Y684056D01*
X46870Y687544D01*
X45535Y690768D01*
X43068Y693235D01*
X39844Y694570D01*
X36356Y694570D01*
X33132Y693235D01*
X30665Y690768D01*
X29330Y687544D01*
X29330Y684056D01*
X30665Y680832D01*
X33132Y678365D01*
X36356Y677030D01*
G37*
G36*
X61756Y677030D02*
X65244Y677030D01*
X68468Y678365D01*
X70935Y680832D01*
X72270Y684056D01*
X72270Y687544D01*
X70935Y690768D01*
X68468Y693235D01*
X65244Y694570D01*
X61756Y694570D01*
X58532Y693235D01*
X56065Y690768D01*
X54730Y687544D01*
X54730Y684056D01*
X56065Y680832D01*
X58532Y678365D01*
X61756Y677030D01*
G37*
G36*
X188756Y677030D02*
X192244Y677030D01*
X195468Y678365D01*
X197935Y680832D01*
X199270Y684056D01*
X199270Y687544D01*
X197935Y690768D01*
X195468Y693235D01*
X192244Y694570D01*
X188756Y694570D01*
X185532Y693235D01*
X183065Y690768D01*
X181730Y687544D01*
X181730Y684056D01*
X183065Y680832D01*
X185532Y678365D01*
X188756Y677030D01*
G37*
G36*
X137956Y677030D02*
X141444Y677030D01*
X144668Y678365D01*
X147135Y680832D01*
X148470Y684056D01*
X148470Y687544D01*
X147135Y690768D01*
X144668Y693235D01*
X141444Y694570D01*
X137956Y694570D01*
X134732Y693235D01*
X132265Y690768D01*
X130930Y687544D01*
X130930Y684056D01*
X132265Y680832D01*
X134732Y678365D01*
X137956Y677030D01*
G37*
G36*
X87156Y677030D02*
X90644Y677030D01*
X93868Y678365D01*
X96335Y680832D01*
X97670Y684056D01*
X97670Y687544D01*
X96335Y690768D01*
X93868Y693235D01*
X90644Y694570D01*
X87156Y694570D01*
X83932Y693235D01*
X81465Y690768D01*
X80130Y687544D01*
X80130Y684056D01*
X81465Y680832D01*
X83932Y678365D01*
X87156Y677030D01*
G37*
G36*
X1058944Y678230D02*
X1061956Y678230D01*
X1064738Y679382D01*
X1066868Y681512D01*
X1068020Y684294D01*
X1068020Y687306D01*
X1066868Y690088D01*
X1064738Y692218D01*
X1061956Y693370D01*
X1058944Y693370D01*
X1056162Y692218D01*
X1054032Y690088D01*
X1052880Y687306D01*
X1052880Y684294D01*
X1054032Y681512D01*
X1056162Y679382D01*
X1058944Y678230D01*
G37*
G36*
X974556Y651255D02*
X993944Y651255D01*
X997305Y652647D01*
X999878Y655220D01*
X1001270Y658581D01*
X1001270Y662219D01*
X999878Y665580D01*
X997305Y668153D01*
X993944Y669545D01*
X974556Y669545D01*
X971195Y668153D01*
X968622Y665580D01*
X967230Y662219D01*
X967230Y658581D01*
X968622Y655220D01*
X971195Y652647D01*
X974556Y651255D01*
G37*
G36*
X470827Y163717D02*
X474053Y163717D01*
X476335Y165999D01*
X476335Y168318D01*
X476391Y168604D01*
X476558Y168857D01*
X495810Y188108D01*
X495810Y216408D01*
X495861Y216683D01*
X496025Y216938D01*
X496275Y217110D01*
X496572Y217170D01*
X500906Y217170D01*
X501650Y217914D01*
X501650Y234206D01*
X500906Y234950D01*
X488122Y234950D01*
X487859Y234997D01*
X487601Y235156D01*
X487425Y235404D01*
X487360Y235700D01*
X487416Y235998D01*
X487583Y236251D01*
X490137Y238804D01*
X491490Y242072D01*
X491490Y245608D01*
X490137Y248876D01*
X487636Y251377D01*
X484368Y252730D01*
X480832Y252730D01*
X477564Y251377D01*
X475773Y249585D01*
X475553Y249432D01*
X475258Y249362D01*
X474959Y249413D01*
X474704Y249577D01*
X474532Y249827D01*
X474472Y250124D01*
X474472Y315994D01*
X472489Y317977D01*
X472336Y318197D01*
X472266Y318492D01*
X472317Y318791D01*
X472480Y319046D01*
X472730Y319218D01*
X473027Y319278D01*
X638614Y319278D01*
X638900Y319222D01*
X639153Y319055D01*
X642905Y315303D01*
X643068Y315061D01*
X643128Y314764D01*
X643128Y253130D01*
X643075Y252850D01*
X642909Y252595D01*
X642658Y252426D01*
X640124Y251377D01*
X638333Y249585D01*
X638113Y249432D01*
X637818Y249362D01*
X637519Y249413D01*
X637264Y249577D01*
X637092Y249827D01*
X637032Y250124D01*
X637032Y269258D01*
X637088Y269544D01*
X637255Y269797D01*
X638895Y271437D01*
X638895Y274663D01*
X636613Y276945D01*
X633387Y276945D01*
X631105Y274663D01*
X631105Y271437D01*
X632745Y269797D01*
X632908Y269555D01*
X632968Y269258D01*
X632968Y250124D01*
X632921Y249861D01*
X632762Y249603D01*
X632514Y249427D01*
X632218Y249362D01*
X631920Y249418D01*
X631667Y249585D01*
X629876Y251377D01*
X626608Y252730D01*
X623072Y252730D01*
X619804Y251377D01*
X617303Y248876D01*
X615950Y245608D01*
X615950Y242072D01*
X617303Y238804D01*
X619804Y236303D01*
X623072Y234950D01*
X626608Y234950D01*
X629876Y236303D01*
X631667Y238095D01*
X631887Y238248D01*
X632182Y238318D01*
X632481Y238267D01*
X632736Y238103D01*
X632908Y237853D01*
X632968Y237556D01*
X632968Y235350D01*
X632915Y235070D01*
X632749Y234815D01*
X632498Y234646D01*
X629964Y233597D01*
X627463Y231096D01*
X626110Y227828D01*
X626110Y224292D01*
X627463Y221024D01*
X629964Y218523D01*
X633232Y217170D01*
X636768Y217170D01*
X640036Y218523D01*
X642537Y221024D01*
X643769Y223999D01*
X643913Y224224D01*
X644159Y224402D01*
X644454Y224469D01*
X644753Y224416D01*
X645007Y224250D01*
X645177Y223999D01*
X646707Y220305D01*
X649565Y217447D01*
X653299Y215900D01*
X654558Y215900D01*
X654558Y236220D01*
X653299Y236220D01*
X651398Y235433D01*
X651143Y235376D01*
X650843Y235422D01*
X650585Y235581D01*
X650410Y235828D01*
X650345Y236125D01*
X650400Y236423D01*
X650568Y236675D01*
X652697Y238804D01*
X654050Y242072D01*
X654050Y245608D01*
X652697Y248876D01*
X650196Y251377D01*
X647662Y252426D01*
X647424Y252583D01*
X647252Y252833D01*
X647192Y253130D01*
X647192Y313487D01*
X647239Y313750D01*
X647398Y314008D01*
X647646Y314184D01*
X647942Y314249D01*
X648240Y314193D01*
X648493Y314026D01*
X673385Y289134D01*
X673548Y288892D01*
X673608Y288595D01*
X673608Y250124D01*
X673561Y249861D01*
X673402Y249603D01*
X673154Y249427D01*
X672858Y249362D01*
X672560Y249418D01*
X672307Y249585D01*
X670516Y251377D01*
X667248Y252730D01*
X663712Y252730D01*
X660444Y251377D01*
X657943Y248876D01*
X656590Y245608D01*
X656590Y242072D01*
X657943Y238804D01*
X660072Y236675D01*
X660223Y236462D01*
X660295Y236167D01*
X660246Y235868D01*
X660085Y235611D01*
X659836Y235437D01*
X659539Y235375D01*
X659242Y235433D01*
X657341Y236220D01*
X656082Y236220D01*
X656082Y215900D01*
X657341Y215900D01*
X661075Y217447D01*
X663933Y220305D01*
X665463Y223999D01*
X665607Y224224D01*
X665853Y224402D01*
X666149Y224469D01*
X666448Y224416D01*
X666702Y224250D01*
X666871Y223999D01*
X668103Y221024D01*
X670604Y218523D01*
X673872Y217170D01*
X677408Y217170D01*
X680676Y218523D01*
X683177Y221024D01*
X684530Y224292D01*
X684530Y227828D01*
X683177Y231096D01*
X680676Y233597D01*
X678142Y234646D01*
X677904Y234803D01*
X677732Y235053D01*
X677672Y235350D01*
X677672Y237556D01*
X677719Y237819D01*
X677878Y238077D01*
X678126Y238253D01*
X678422Y238318D01*
X678720Y238262D01*
X678973Y238095D01*
X680764Y236303D01*
X684032Y234950D01*
X686308Y234950D01*
X686583Y234899D01*
X686838Y234735D01*
X687010Y234485D01*
X687070Y234188D01*
X687070Y217914D01*
X687814Y217170D01*
X694184Y217170D01*
X694459Y217119D01*
X694714Y216955D01*
X694886Y216705D01*
X694946Y216408D01*
X694946Y190107D01*
X694890Y189821D01*
X694723Y189569D01*
X676885Y171730D01*
X676643Y171567D01*
X676346Y171507D01*
X674027Y171507D01*
X671745Y169225D01*
X671745Y165999D01*
X674027Y163717D01*
X677253Y163717D01*
X679535Y165999D01*
X679535Y168318D01*
X679591Y168604D01*
X679758Y168857D01*
X699010Y188108D01*
X699010Y216408D01*
X699061Y216683D01*
X699225Y216938D01*
X699475Y217110D01*
X699772Y217170D01*
X704106Y217170D01*
X704850Y217914D01*
X704850Y234206D01*
X704106Y234950D01*
X691322Y234950D01*
X691059Y234997D01*
X690801Y235156D01*
X690625Y235404D01*
X690560Y235700D01*
X690616Y235998D01*
X690783Y236251D01*
X693337Y238804D01*
X694690Y242072D01*
X694690Y245608D01*
X693337Y248876D01*
X690836Y251377D01*
X687568Y252730D01*
X684032Y252730D01*
X680764Y251377D01*
X678973Y249585D01*
X678753Y249432D01*
X678458Y249362D01*
X678159Y249413D01*
X677904Y249577D01*
X677732Y249827D01*
X677672Y250124D01*
X677672Y290594D01*
X644193Y324073D01*
X644040Y324293D01*
X643970Y324588D01*
X644021Y324887D01*
X644184Y325142D01*
X644434Y325314D01*
X644731Y325374D01*
X820787Y325374D01*
X821073Y325318D01*
X821326Y325151D01*
X846105Y300372D01*
X846268Y300130D01*
X846328Y299833D01*
X846328Y253130D01*
X846275Y252850D01*
X846109Y252595D01*
X845858Y252426D01*
X843324Y251377D01*
X841533Y249585D01*
X841313Y249432D01*
X841018Y249362D01*
X840719Y249413D01*
X840464Y249577D01*
X840292Y249827D01*
X840232Y250124D01*
X840232Y269258D01*
X840288Y269544D01*
X840455Y269797D01*
X842095Y271437D01*
X842095Y274663D01*
X839813Y276945D01*
X836587Y276945D01*
X834305Y274663D01*
X834305Y271437D01*
X835945Y269797D01*
X836108Y269555D01*
X836168Y269258D01*
X836168Y250124D01*
X836121Y249861D01*
X835962Y249603D01*
X835714Y249427D01*
X835418Y249362D01*
X835120Y249418D01*
X834867Y249585D01*
X833076Y251377D01*
X829808Y252730D01*
X826272Y252730D01*
X823004Y251377D01*
X820503Y248876D01*
X819150Y245608D01*
X819150Y242072D01*
X820503Y238804D01*
X823004Y236303D01*
X826272Y234950D01*
X829808Y234950D01*
X833076Y236303D01*
X834867Y238095D01*
X835087Y238248D01*
X835382Y238318D01*
X835681Y238267D01*
X835936Y238103D01*
X836108Y237853D01*
X836168Y237556D01*
X836168Y235350D01*
X836115Y235070D01*
X835949Y234815D01*
X835698Y234646D01*
X833164Y233597D01*
X830663Y231096D01*
X829310Y227828D01*
X829310Y224292D01*
X830663Y221024D01*
X833164Y218523D01*
X836432Y217170D01*
X839968Y217170D01*
X843236Y218523D01*
X845737Y221024D01*
X846969Y223999D01*
X847113Y224224D01*
X847359Y224402D01*
X847654Y224469D01*
X847953Y224416D01*
X848207Y224250D01*
X848377Y223999D01*
X849907Y220305D01*
X852765Y217447D01*
X856499Y215900D01*
X857758Y215900D01*
X857758Y236220D01*
X856499Y236220D01*
X854598Y235433D01*
X854343Y235376D01*
X854043Y235422D01*
X853785Y235581D01*
X853610Y235828D01*
X853545Y236125D01*
X853600Y236423D01*
X853768Y236675D01*
X855897Y238804D01*
X857250Y242072D01*
X857250Y245608D01*
X855897Y248876D01*
X853396Y251377D01*
X850862Y252426D01*
X850624Y252583D01*
X850452Y252833D01*
X850392Y253130D01*
X850392Y301832D01*
X825103Y327121D01*
X824950Y327341D01*
X824880Y327636D01*
X824931Y327935D01*
X825094Y328190D01*
X825344Y328362D01*
X825641Y328422D01*
X847449Y328422D01*
X847735Y328366D01*
X847988Y328199D01*
X876585Y299602D01*
X876748Y299360D01*
X876808Y299063D01*
X876808Y250124D01*
X876761Y249861D01*
X876602Y249603D01*
X876354Y249427D01*
X876058Y249362D01*
X875760Y249418D01*
X875507Y249585D01*
X873716Y251377D01*
X870448Y252730D01*
X866912Y252730D01*
X863644Y251377D01*
X861143Y248876D01*
X859790Y245608D01*
X859790Y242072D01*
X861143Y238804D01*
X863272Y236675D01*
X863423Y236462D01*
X863495Y236167D01*
X863446Y235868D01*
X863285Y235611D01*
X863036Y235437D01*
X862739Y235375D01*
X862442Y235433D01*
X860541Y236220D01*
X859282Y236220D01*
X859282Y215900D01*
X860541Y215900D01*
X864275Y217447D01*
X867133Y220305D01*
X868663Y223999D01*
X868807Y224224D01*
X869053Y224402D01*
X869349Y224469D01*
X869648Y224416D01*
X869902Y224250D01*
X870071Y223999D01*
X871303Y221024D01*
X873804Y218523D01*
X877072Y217170D01*
X880608Y217170D01*
X883876Y218523D01*
X886377Y221024D01*
X887730Y224292D01*
X887730Y227828D01*
X886377Y231096D01*
X883876Y233597D01*
X881342Y234646D01*
X881104Y234803D01*
X880932Y235053D01*
X880872Y235350D01*
X880872Y237556D01*
X880919Y237819D01*
X881078Y238077D01*
X881326Y238253D01*
X881622Y238318D01*
X881920Y238262D01*
X882173Y238095D01*
X883964Y236303D01*
X887232Y234950D01*
X889508Y234950D01*
X889783Y234899D01*
X890038Y234735D01*
X890210Y234485D01*
X890270Y234188D01*
X890270Y217914D01*
X891014Y217170D01*
X897384Y217170D01*
X897659Y217119D01*
X897914Y216955D01*
X898086Y216705D01*
X898146Y216408D01*
X898146Y190107D01*
X898090Y189821D01*
X897923Y189569D01*
X880085Y171730D01*
X879843Y171567D01*
X879546Y171507D01*
X877227Y171507D01*
X874945Y169225D01*
X874945Y165999D01*
X877227Y163717D01*
X880453Y163717D01*
X882735Y165999D01*
X882735Y168318D01*
X882791Y168604D01*
X882958Y168857D01*
X902210Y188108D01*
X902210Y216408D01*
X902261Y216683D01*
X902425Y216938D01*
X902675Y217110D01*
X902972Y217170D01*
X907306Y217170D01*
X908050Y217914D01*
X908050Y234206D01*
X907306Y234950D01*
X894522Y234950D01*
X894259Y234997D01*
X894001Y235156D01*
X893825Y235404D01*
X893760Y235700D01*
X893816Y235998D01*
X893983Y236251D01*
X896537Y238804D01*
X897890Y242072D01*
X897890Y245608D01*
X896537Y248876D01*
X894036Y251377D01*
X890768Y252730D01*
X887232Y252730D01*
X883964Y251377D01*
X882173Y249585D01*
X881953Y249432D01*
X881658Y249362D01*
X881359Y249413D01*
X881104Y249577D01*
X880932Y249827D01*
X880872Y250124D01*
X880872Y301062D01*
X851765Y330169D01*
X851612Y330389D01*
X851542Y330684D01*
X851593Y330983D01*
X851757Y331238D01*
X852007Y331410D01*
X852304Y331470D01*
X1017891Y331470D01*
X1018177Y331414D01*
X1018430Y331247D01*
X1049305Y300372D01*
X1049468Y300130D01*
X1049528Y299833D01*
X1049528Y253130D01*
X1049475Y252850D01*
X1049309Y252595D01*
X1049058Y252426D01*
X1046524Y251377D01*
X1044733Y249585D01*
X1044513Y249432D01*
X1044218Y249362D01*
X1043919Y249413D01*
X1043664Y249577D01*
X1043492Y249827D01*
X1043432Y250124D01*
X1043432Y269258D01*
X1043488Y269544D01*
X1043655Y269797D01*
X1045295Y271437D01*
X1045295Y274663D01*
X1043013Y276945D01*
X1039787Y276945D01*
X1037505Y274663D01*
X1037505Y271437D01*
X1039145Y269797D01*
X1039308Y269555D01*
X1039368Y269258D01*
X1039368Y250124D01*
X1039321Y249861D01*
X1039162Y249603D01*
X1038914Y249427D01*
X1038618Y249362D01*
X1038320Y249418D01*
X1038067Y249585D01*
X1036276Y251377D01*
X1033008Y252730D01*
X1029472Y252730D01*
X1026204Y251377D01*
X1023703Y248876D01*
X1022350Y245608D01*
X1022350Y242072D01*
X1023703Y238804D01*
X1026204Y236303D01*
X1029472Y234950D01*
X1033008Y234950D01*
X1036276Y236303D01*
X1038067Y238095D01*
X1038287Y238248D01*
X1038582Y238318D01*
X1038881Y238267D01*
X1039136Y238103D01*
X1039308Y237853D01*
X1039368Y237556D01*
X1039368Y235350D01*
X1039315Y235070D01*
X1039149Y234815D01*
X1038898Y234646D01*
X1036364Y233597D01*
X1033863Y231096D01*
X1032510Y227828D01*
X1032510Y224292D01*
X1033863Y221024D01*
X1036364Y218523D01*
X1039632Y217170D01*
X1043168Y217170D01*
X1046436Y218523D01*
X1048937Y221024D01*
X1050169Y223999D01*
X1050313Y224224D01*
X1050559Y224402D01*
X1050854Y224469D01*
X1051153Y224416D01*
X1051407Y224250D01*
X1051577Y223999D01*
X1053107Y220305D01*
X1055965Y217447D01*
X1059699Y215900D01*
X1060958Y215900D01*
X1060958Y236220D01*
X1059699Y236220D01*
X1057798Y235433D01*
X1057543Y235376D01*
X1057243Y235422D01*
X1056985Y235581D01*
X1056810Y235828D01*
X1056745Y236125D01*
X1056800Y236423D01*
X1056968Y236675D01*
X1059097Y238804D01*
X1060450Y242072D01*
X1060450Y245608D01*
X1059097Y248876D01*
X1056596Y251377D01*
X1054062Y252426D01*
X1053824Y252583D01*
X1053652Y252833D01*
X1053592Y253130D01*
X1053592Y301832D01*
X1022207Y333217D01*
X1022054Y333437D01*
X1021984Y333732D01*
X1022035Y334031D01*
X1022198Y334286D01*
X1022448Y334458D01*
X1022745Y334518D01*
X1044553Y334518D01*
X1044839Y334462D01*
X1045092Y334295D01*
X1079785Y299602D01*
X1079948Y299360D01*
X1080008Y299063D01*
X1080008Y250124D01*
X1079961Y249861D01*
X1079802Y249603D01*
X1079554Y249427D01*
X1079258Y249362D01*
X1078960Y249418D01*
X1078707Y249585D01*
X1076916Y251377D01*
X1073648Y252730D01*
X1070112Y252730D01*
X1066844Y251377D01*
X1064343Y248876D01*
X1062990Y245608D01*
X1062990Y242072D01*
X1064343Y238804D01*
X1066472Y236675D01*
X1066623Y236462D01*
X1066695Y236167D01*
X1066646Y235868D01*
X1066485Y235611D01*
X1066236Y235437D01*
X1065939Y235375D01*
X1065642Y235433D01*
X1063741Y236220D01*
X1062482Y236220D01*
X1062482Y215900D01*
X1063741Y215900D01*
X1067475Y217447D01*
X1070333Y220305D01*
X1071863Y223999D01*
X1072007Y224224D01*
X1072253Y224402D01*
X1072549Y224469D01*
X1072848Y224416D01*
X1073102Y224250D01*
X1073271Y223999D01*
X1074503Y221024D01*
X1077004Y218523D01*
X1080272Y217170D01*
X1083808Y217170D01*
X1087076Y218523D01*
X1089577Y221024D01*
X1090930Y224292D01*
X1090930Y227828D01*
X1089577Y231096D01*
X1087076Y233597D01*
X1084542Y234646D01*
X1084304Y234803D01*
X1084132Y235053D01*
X1084072Y235350D01*
X1084072Y237556D01*
X1084119Y237819D01*
X1084278Y238077D01*
X1084526Y238253D01*
X1084822Y238318D01*
X1085120Y238262D01*
X1085373Y238095D01*
X1087164Y236303D01*
X1090432Y234950D01*
X1092708Y234950D01*
X1092983Y234899D01*
X1093238Y234735D01*
X1093410Y234485D01*
X1093470Y234188D01*
X1093470Y217914D01*
X1094214Y217170D01*
X1100584Y217170D01*
X1100859Y217119D01*
X1101114Y216955D01*
X1101286Y216705D01*
X1101346Y216408D01*
X1101346Y190135D01*
X1101290Y189849D01*
X1101123Y189597D01*
X1083257Y171730D01*
X1083015Y171567D01*
X1082718Y171507D01*
X1080427Y171507D01*
X1078145Y169225D01*
X1078145Y165999D01*
X1080427Y163717D01*
X1083653Y163717D01*
X1085935Y165999D01*
X1085935Y168346D01*
X1085991Y168632D01*
X1086158Y168885D01*
X1105410Y188136D01*
X1105410Y216408D01*
X1105461Y216683D01*
X1105625Y216938D01*
X1105875Y217110D01*
X1106172Y217170D01*
X1110506Y217170D01*
X1111250Y217914D01*
X1111250Y234206D01*
X1110506Y234950D01*
X1097722Y234950D01*
X1097459Y234997D01*
X1097201Y235156D01*
X1097025Y235404D01*
X1096960Y235700D01*
X1097016Y235998D01*
X1097183Y236251D01*
X1099737Y238804D01*
X1101090Y242072D01*
X1101090Y245608D01*
X1099737Y248876D01*
X1097236Y251377D01*
X1093968Y252730D01*
X1090432Y252730D01*
X1087164Y251377D01*
X1085373Y249585D01*
X1085153Y249432D01*
X1084858Y249362D01*
X1084559Y249413D01*
X1084304Y249577D01*
X1084132Y249827D01*
X1084072Y250124D01*
X1084072Y301062D01*
X1048869Y336265D01*
X1048716Y336485D01*
X1048646Y336780D01*
X1048697Y337079D01*
X1048861Y337334D01*
X1049111Y337506D01*
X1049408Y337566D01*
X1214995Y337566D01*
X1215281Y337510D01*
X1215534Y337343D01*
X1251997Y300880D01*
X1252160Y300638D01*
X1252220Y300341D01*
X1252220Y252920D01*
X1252167Y252639D01*
X1252001Y252385D01*
X1251750Y252216D01*
X1249724Y251377D01*
X1248187Y249839D01*
X1247967Y249686D01*
X1247672Y249616D01*
X1247373Y249667D01*
X1247118Y249831D01*
X1246946Y250081D01*
X1246886Y250378D01*
X1246886Y270933D01*
X1246937Y271208D01*
X1247101Y271463D01*
X1247351Y271635D01*
X1247441Y271653D01*
X1249765Y273977D01*
X1249765Y277203D01*
X1247483Y279485D01*
X1244257Y279485D01*
X1241975Y277203D01*
X1241975Y273977D01*
X1242599Y273353D01*
X1242762Y273111D01*
X1242822Y272814D01*
X1242822Y249870D01*
X1242775Y249607D01*
X1242616Y249349D01*
X1242368Y249173D01*
X1242072Y249108D01*
X1241774Y249164D01*
X1241521Y249331D01*
X1239476Y251377D01*
X1236208Y252730D01*
X1232672Y252730D01*
X1229404Y251377D01*
X1226903Y248876D01*
X1225550Y245608D01*
X1225550Y242072D01*
X1226903Y238804D01*
X1229404Y236303D01*
X1232672Y234950D01*
X1236208Y234950D01*
X1239476Y236303D01*
X1241521Y238349D01*
X1241741Y238502D01*
X1242036Y238572D01*
X1242335Y238521D01*
X1242590Y238357D01*
X1242762Y238107D01*
X1242822Y237810D01*
X1242822Y235455D01*
X1242769Y235175D01*
X1242603Y234921D01*
X1242352Y234751D01*
X1239564Y233597D01*
X1237063Y231096D01*
X1235710Y227828D01*
X1235710Y224292D01*
X1237063Y221024D01*
X1239564Y218523D01*
X1242832Y217170D01*
X1246368Y217170D01*
X1249636Y218523D01*
X1252137Y221024D01*
X1253369Y223999D01*
X1253513Y224224D01*
X1253759Y224402D01*
X1254054Y224469D01*
X1254353Y224416D01*
X1254607Y224250D01*
X1254777Y223999D01*
X1256307Y220305D01*
X1259165Y217447D01*
X1262899Y215900D01*
X1264158Y215900D01*
X1264158Y236220D01*
X1262899Y236220D01*
X1260998Y235433D01*
X1260743Y235376D01*
X1260443Y235422D01*
X1260185Y235581D01*
X1260010Y235828D01*
X1259945Y236125D01*
X1260000Y236423D01*
X1260168Y236675D01*
X1262297Y238804D01*
X1263650Y242072D01*
X1263650Y245608D01*
X1262297Y248876D01*
X1259796Y251377D01*
X1256754Y252636D01*
X1256516Y252793D01*
X1256344Y253043D01*
X1256284Y253340D01*
X1256284Y302340D01*
X1219311Y339313D01*
X1219158Y339533D01*
X1219088Y339828D01*
X1219139Y340127D01*
X1219302Y340382D01*
X1219552Y340554D01*
X1219849Y340614D01*
X1241657Y340614D01*
X1241943Y340558D01*
X1242196Y340391D01*
X1282985Y299602D01*
X1283148Y299361D01*
X1283208Y299063D01*
X1283208Y250124D01*
X1283161Y249861D01*
X1283002Y249603D01*
X1282754Y249427D01*
X1282458Y249362D01*
X1282160Y249418D01*
X1281907Y249585D01*
X1280116Y251377D01*
X1276848Y252730D01*
X1273312Y252730D01*
X1270044Y251377D01*
X1267543Y248876D01*
X1266190Y245608D01*
X1266190Y242072D01*
X1267543Y238804D01*
X1269672Y236675D01*
X1269823Y236462D01*
X1269895Y236167D01*
X1269846Y235868D01*
X1269685Y235611D01*
X1269436Y235437D01*
X1269139Y235375D01*
X1268842Y235433D01*
X1266941Y236220D01*
X1265682Y236220D01*
X1265682Y215900D01*
X1266941Y215900D01*
X1270675Y217447D01*
X1273533Y220305D01*
X1275063Y223999D01*
X1275207Y224224D01*
X1275453Y224402D01*
X1275749Y224469D01*
X1276048Y224416D01*
X1276302Y224250D01*
X1276471Y223999D01*
X1277703Y221024D01*
X1280204Y218523D01*
X1283472Y217170D01*
X1287008Y217170D01*
X1290276Y218523D01*
X1292777Y221024D01*
X1294130Y224292D01*
X1294130Y227828D01*
X1292777Y231096D01*
X1290276Y233597D01*
X1287742Y234646D01*
X1287504Y234803D01*
X1287332Y235053D01*
X1287272Y235350D01*
X1287272Y237556D01*
X1287319Y237819D01*
X1287478Y238077D01*
X1287726Y238253D01*
X1288022Y238318D01*
X1288320Y238262D01*
X1288573Y238095D01*
X1290364Y236303D01*
X1293632Y234950D01*
X1295908Y234950D01*
X1296183Y234899D01*
X1296438Y234735D01*
X1296610Y234485D01*
X1296670Y234188D01*
X1296670Y217914D01*
X1297414Y217170D01*
X1303784Y217170D01*
X1304059Y217119D01*
X1304314Y216955D01*
X1304486Y216705D01*
X1304546Y216408D01*
X1304546Y190107D01*
X1304490Y189821D01*
X1304323Y189569D01*
X1286485Y171730D01*
X1286243Y171567D01*
X1285946Y171507D01*
X1283627Y171507D01*
X1281345Y169225D01*
X1281345Y165999D01*
X1283627Y163717D01*
X1286853Y163717D01*
X1289135Y165999D01*
X1289135Y168318D01*
X1289191Y168604D01*
X1289358Y168857D01*
X1308610Y188108D01*
X1308610Y216408D01*
X1308661Y216683D01*
X1308825Y216938D01*
X1309075Y217110D01*
X1309372Y217170D01*
X1313706Y217170D01*
X1314450Y217914D01*
X1314450Y234206D01*
X1313706Y234950D01*
X1300922Y234950D01*
X1300659Y234997D01*
X1300401Y235156D01*
X1300225Y235404D01*
X1300160Y235700D01*
X1300216Y235998D01*
X1300383Y236251D01*
X1302937Y238804D01*
X1304290Y242072D01*
X1304290Y245608D01*
X1302937Y248876D01*
X1300436Y251377D01*
X1297168Y252730D01*
X1293632Y252730D01*
X1290364Y251377D01*
X1288573Y249585D01*
X1288353Y249432D01*
X1288058Y249362D01*
X1287759Y249413D01*
X1287504Y249577D01*
X1287332Y249827D01*
X1287272Y250124D01*
X1287272Y301062D01*
X1245973Y342361D01*
X1245820Y342581D01*
X1245750Y342876D01*
X1245801Y343175D01*
X1245965Y343430D01*
X1246215Y343602D01*
X1246512Y343662D01*
X1411867Y343662D01*
X1412153Y343606D01*
X1412406Y343439D01*
X1455705Y300140D01*
X1455868Y299898D01*
X1455928Y299601D01*
X1455928Y253130D01*
X1455875Y252850D01*
X1455709Y252595D01*
X1455458Y252426D01*
X1452924Y251377D01*
X1451133Y249585D01*
X1450913Y249432D01*
X1450618Y249362D01*
X1450319Y249413D01*
X1450064Y249577D01*
X1449892Y249827D01*
X1449832Y250124D01*
X1449832Y262908D01*
X1449888Y263194D01*
X1450055Y263447D01*
X1451695Y265087D01*
X1451695Y268313D01*
X1449413Y270595D01*
X1446187Y270595D01*
X1443905Y268313D01*
X1443905Y265087D01*
X1445545Y263447D01*
X1445708Y263205D01*
X1445768Y262908D01*
X1445768Y250124D01*
X1445721Y249861D01*
X1445562Y249603D01*
X1445314Y249427D01*
X1445018Y249362D01*
X1444720Y249418D01*
X1444467Y249585D01*
X1442676Y251377D01*
X1439408Y252730D01*
X1435872Y252730D01*
X1432604Y251377D01*
X1430103Y248876D01*
X1428750Y245608D01*
X1428750Y242072D01*
X1430103Y238804D01*
X1432604Y236303D01*
X1435872Y234950D01*
X1439408Y234950D01*
X1442676Y236303D01*
X1444467Y238095D01*
X1444687Y238248D01*
X1444982Y238318D01*
X1445281Y238267D01*
X1445536Y238103D01*
X1445708Y237853D01*
X1445768Y237556D01*
X1445768Y235350D01*
X1445715Y235070D01*
X1445549Y234815D01*
X1445298Y234646D01*
X1442764Y233597D01*
X1440263Y231096D01*
X1438910Y227828D01*
X1438910Y224292D01*
X1440263Y221024D01*
X1442764Y218523D01*
X1446032Y217170D01*
X1449568Y217170D01*
X1452836Y218523D01*
X1455337Y221024D01*
X1456569Y223999D01*
X1456713Y224224D01*
X1456959Y224402D01*
X1457254Y224469D01*
X1457553Y224416D01*
X1457807Y224250D01*
X1457977Y223999D01*
X1459507Y220305D01*
X1462365Y217447D01*
X1466099Y215900D01*
X1467358Y215900D01*
X1467358Y236220D01*
X1466099Y236220D01*
X1464198Y235433D01*
X1463943Y235376D01*
X1463643Y235422D01*
X1463385Y235581D01*
X1463210Y235828D01*
X1463145Y236125D01*
X1463200Y236423D01*
X1463368Y236675D01*
X1465497Y238804D01*
X1466850Y242072D01*
X1466850Y245608D01*
X1465497Y248876D01*
X1462996Y251377D01*
X1460462Y252426D01*
X1460224Y252583D01*
X1460052Y252833D01*
X1459992Y253130D01*
X1459992Y301600D01*
X1416381Y345211D01*
X1416228Y345431D01*
X1416158Y345726D01*
X1416209Y346025D01*
X1416372Y346280D01*
X1416622Y346452D01*
X1416920Y346512D01*
X1438728Y346512D01*
X1439014Y346456D01*
X1439266Y346289D01*
X1486185Y299370D01*
X1486348Y299129D01*
X1486408Y298832D01*
X1486408Y250124D01*
X1486361Y249861D01*
X1486202Y249603D01*
X1485954Y249427D01*
X1485658Y249362D01*
X1485360Y249418D01*
X1485107Y249585D01*
X1483316Y251377D01*
X1480048Y252730D01*
X1476512Y252730D01*
X1473244Y251377D01*
X1470743Y248876D01*
X1469390Y245608D01*
X1469390Y242072D01*
X1470743Y238804D01*
X1472872Y236675D01*
X1473023Y236462D01*
X1473095Y236167D01*
X1473046Y235868D01*
X1472885Y235611D01*
X1472636Y235437D01*
X1472339Y235375D01*
X1472042Y235433D01*
X1470141Y236220D01*
X1468882Y236220D01*
X1468882Y215900D01*
X1470141Y215900D01*
X1473875Y217447D01*
X1476733Y220305D01*
X1478263Y223999D01*
X1478407Y224224D01*
X1478653Y224402D01*
X1478949Y224469D01*
X1479248Y224416D01*
X1479502Y224250D01*
X1479671Y223999D01*
X1480903Y221024D01*
X1483404Y218523D01*
X1486672Y217170D01*
X1490208Y217170D01*
X1493476Y218523D01*
X1495977Y221024D01*
X1497330Y224292D01*
X1497330Y227828D01*
X1495977Y231096D01*
X1493476Y233597D01*
X1490942Y234646D01*
X1490704Y234803D01*
X1490532Y235053D01*
X1490472Y235350D01*
X1490472Y237556D01*
X1490519Y237819D01*
X1490678Y238077D01*
X1490926Y238253D01*
X1491222Y238318D01*
X1491520Y238262D01*
X1491773Y238095D01*
X1493564Y236303D01*
X1496832Y234950D01*
X1499108Y234950D01*
X1499383Y234899D01*
X1499638Y234735D01*
X1499810Y234485D01*
X1499870Y234188D01*
X1499870Y217914D01*
X1500614Y217170D01*
X1516906Y217170D01*
X1517650Y217914D01*
X1517650Y234206D01*
X1516906Y234950D01*
X1511300Y234950D01*
X1511025Y235001D01*
X1510770Y235165D01*
X1510598Y235415D01*
X1510538Y235712D01*
X1510538Y380326D01*
X1506633Y384231D01*
X1506470Y384472D01*
X1506410Y384769D01*
X1506410Y400876D01*
X1505666Y401620D01*
X1489614Y401620D01*
X1488870Y400876D01*
X1488870Y379824D01*
X1489614Y379080D01*
X1505712Y379080D01*
X1505987Y379029D01*
X1506242Y378865D01*
X1506414Y378615D01*
X1506474Y378318D01*
X1506474Y250378D01*
X1506427Y250115D01*
X1506268Y249857D01*
X1506020Y249681D01*
X1505724Y249616D01*
X1505426Y249672D01*
X1505173Y249839D01*
X1503636Y251377D01*
X1501102Y252426D01*
X1500864Y252583D01*
X1500692Y252833D01*
X1500632Y253130D01*
X1500632Y331399D01*
X1474399Y357632D01*
X1474357Y357632D01*
X1474071Y357688D01*
X1473819Y357855D01*
X1462755Y368919D01*
X1462592Y369160D01*
X1462532Y369457D01*
X1462532Y392786D01*
X1462588Y393072D01*
X1462755Y393324D01*
X1467569Y398138D01*
X1467789Y398291D01*
X1468084Y398361D01*
X1468383Y398310D01*
X1468638Y398147D01*
X1468810Y397897D01*
X1468870Y397600D01*
X1468870Y379824D01*
X1469614Y379080D01*
X1485666Y379080D01*
X1486410Y379824D01*
X1486410Y400876D01*
X1485666Y401620D01*
X1472890Y401620D01*
X1472627Y401667D01*
X1472369Y401826D01*
X1472194Y402074D01*
X1472129Y402370D01*
X1472184Y402668D01*
X1472352Y402921D01*
X1473576Y404145D01*
X1473817Y404308D01*
X1474114Y404368D01*
X1552433Y404368D01*
X1552719Y404312D01*
X1552972Y404145D01*
X1560647Y396470D01*
X1560810Y396228D01*
X1560870Y395931D01*
X1560870Y379824D01*
X1561614Y379080D01*
X1577666Y379080D01*
X1578410Y379824D01*
X1578410Y400876D01*
X1577666Y401620D01*
X1561559Y401620D01*
X1561273Y401676D01*
X1561021Y401843D01*
X1554432Y408432D01*
X1472115Y408432D01*
X1458468Y394785D01*
X1458468Y367458D01*
X1472358Y353568D01*
X1472400Y353568D01*
X1472686Y353512D01*
X1472939Y353345D01*
X1496345Y329939D01*
X1496508Y329697D01*
X1496568Y329400D01*
X1496568Y253130D01*
X1496515Y252850D01*
X1496349Y252595D01*
X1496098Y252426D01*
X1493564Y251377D01*
X1491773Y249585D01*
X1491553Y249432D01*
X1491258Y249362D01*
X1490959Y249413D01*
X1490704Y249577D01*
X1490532Y249827D01*
X1490472Y250124D01*
X1490472Y300831D01*
X1440727Y350576D01*
X1293707Y350576D01*
X1293432Y350627D01*
X1293177Y350791D01*
X1293005Y351041D01*
X1292945Y351338D01*
X1292945Y354814D01*
X1291305Y356454D01*
X1291142Y356696D01*
X1291082Y356993D01*
X1291082Y513092D01*
X1286743Y517431D01*
X1286580Y517672D01*
X1286520Y517969D01*
X1286520Y527576D01*
X1285776Y528320D01*
X1262724Y528320D01*
X1261980Y527576D01*
X1261980Y523494D01*
X1261929Y523219D01*
X1261765Y522964D01*
X1261515Y522792D01*
X1261218Y522732D01*
X1240772Y522732D01*
X1240486Y522788D01*
X1240233Y522955D01*
X1238593Y524595D01*
X1235367Y524595D01*
X1233085Y522313D01*
X1233085Y519087D01*
X1235367Y516805D01*
X1238593Y516805D01*
X1240233Y518445D01*
X1240475Y518608D01*
X1240772Y518668D01*
X1261218Y518668D01*
X1261493Y518617D01*
X1261748Y518453D01*
X1261920Y518203D01*
X1261980Y517906D01*
X1261980Y513824D01*
X1262724Y513080D01*
X1285031Y513080D01*
X1285317Y513024D01*
X1285570Y512857D01*
X1286795Y511632D01*
X1286958Y511390D01*
X1287018Y511093D01*
X1287018Y356993D01*
X1286962Y356707D01*
X1286795Y356454D01*
X1285155Y354814D01*
X1285155Y351338D01*
X1285104Y351063D01*
X1284940Y350808D01*
X1284690Y350636D01*
X1284393Y350576D01*
X236813Y350576D01*
X236527Y350632D01*
X236275Y350799D01*
X205455Y381619D01*
X205292Y381860D01*
X205232Y382157D01*
X205232Y648542D01*
X198414Y655360D01*
X198254Y655596D01*
X198191Y655892D01*
X198249Y656190D01*
X199270Y658656D01*
X199270Y662144D01*
X197935Y665368D01*
X195468Y667835D01*
X192244Y669170D01*
X188756Y669170D01*
X185532Y667835D01*
X183065Y665368D01*
X181730Y662144D01*
X181730Y658656D01*
X183065Y655432D01*
X185532Y652965D01*
X188756Y651630D01*
X192244Y651630D01*
X194710Y652651D01*
X194989Y652709D01*
X195287Y652654D01*
X195540Y652486D01*
X200945Y647082D01*
X201108Y646840D01*
X201168Y646543D01*
X201168Y383435D01*
X201121Y383171D01*
X200962Y382913D01*
X200714Y382738D01*
X200418Y382673D01*
X200120Y382728D01*
X199867Y382896D01*
X192755Y390008D01*
X192592Y390250D01*
X192532Y390547D01*
X192532Y536940D01*
X192585Y537220D01*
X192751Y537474D01*
X193002Y537644D01*
X195468Y538665D01*
X197935Y541132D01*
X199270Y544356D01*
X199270Y547844D01*
X197935Y551068D01*
X195468Y553535D01*
X192244Y554870D01*
X188756Y554870D01*
X185532Y553535D01*
X183065Y551068D01*
X181730Y547844D01*
X181730Y544356D01*
X183065Y541132D01*
X185532Y538665D01*
X187998Y537644D01*
X188236Y537487D01*
X188408Y537237D01*
X188468Y536940D01*
X188468Y391824D01*
X188421Y391561D01*
X188262Y391303D01*
X188014Y391127D01*
X187718Y391062D01*
X187420Y391118D01*
X187167Y391285D01*
X180055Y398397D01*
X179892Y398639D01*
X179832Y398936D01*
X179832Y648542D01*
X173014Y655360D01*
X172854Y655596D01*
X172791Y655892D01*
X172849Y656190D01*
X173870Y658656D01*
X173870Y662144D01*
X172535Y665368D01*
X170068Y667835D01*
X166844Y669170D01*
X163356Y669170D01*
X160132Y667835D01*
X157665Y665368D01*
X156330Y662144D01*
X156330Y658656D01*
X157665Y655432D01*
X160132Y652965D01*
X163356Y651630D01*
X166844Y651630D01*
X169310Y652651D01*
X169589Y652709D01*
X169887Y652654D01*
X170140Y652486D01*
X175545Y647082D01*
X175708Y646840D01*
X175768Y646543D01*
X175768Y400214D01*
X175721Y399950D01*
X175562Y399692D01*
X175314Y399517D01*
X175018Y399452D01*
X174720Y399507D01*
X174467Y399675D01*
X129255Y444887D01*
X129092Y445128D01*
X129032Y445426D01*
X129032Y481443D01*
X129088Y481729D01*
X129255Y481982D01*
X167132Y519858D01*
X167132Y536940D01*
X167185Y537220D01*
X167351Y537474D01*
X167602Y537644D01*
X170068Y538665D01*
X172535Y541132D01*
X173870Y544356D01*
X173870Y547844D01*
X172535Y551068D01*
X170068Y553535D01*
X166844Y554870D01*
X163356Y554870D01*
X160132Y553535D01*
X157665Y551068D01*
X156330Y547844D01*
X156330Y544356D01*
X157665Y541132D01*
X160132Y538665D01*
X162598Y537644D01*
X162836Y537487D01*
X163008Y537237D01*
X163068Y536940D01*
X163068Y521857D01*
X163012Y521571D01*
X162845Y521319D01*
X127285Y485759D01*
X127065Y485606D01*
X126770Y485536D01*
X126471Y485587D01*
X126216Y485750D01*
X126044Y486000D01*
X125984Y486297D01*
X125984Y486784D01*
X126040Y487070D01*
X126207Y487323D01*
X151558Y512674D01*
X151558Y651416D01*
X147614Y655360D01*
X147454Y655596D01*
X147391Y655892D01*
X147449Y656190D01*
X148470Y658656D01*
X148470Y662144D01*
X147135Y665368D01*
X144668Y667835D01*
X141444Y669170D01*
X137956Y669170D01*
X134732Y667835D01*
X132265Y665368D01*
X130930Y662144D01*
X130930Y658656D01*
X132265Y655432D01*
X134732Y652965D01*
X137956Y651630D01*
X141444Y651630D01*
X143910Y652651D01*
X144189Y652709D01*
X144487Y652654D01*
X144740Y652486D01*
X147271Y649956D01*
X147434Y649714D01*
X147494Y649417D01*
X147494Y577948D01*
X147447Y577685D01*
X147288Y577427D01*
X147040Y577251D01*
X146744Y577186D01*
X146446Y577242D01*
X146193Y577409D01*
X144668Y578935D01*
X141444Y580270D01*
X137956Y580270D01*
X134732Y578935D01*
X132265Y576468D01*
X130930Y573244D01*
X130930Y569756D01*
X132265Y566532D01*
X134732Y564065D01*
X137956Y562730D01*
X141444Y562730D01*
X144668Y564065D01*
X146193Y565591D01*
X146413Y565744D01*
X146708Y565813D01*
X147007Y565763D01*
X147262Y565599D01*
X147434Y565349D01*
X147494Y565052D01*
X147494Y552548D01*
X147447Y552285D01*
X147288Y552027D01*
X147040Y551851D01*
X146744Y551786D01*
X146446Y551842D01*
X146193Y552009D01*
X144668Y553535D01*
X141444Y554870D01*
X137956Y554870D01*
X134732Y553535D01*
X132265Y551068D01*
X130930Y547844D01*
X130930Y544356D01*
X132265Y541132D01*
X134732Y538665D01*
X137198Y537644D01*
X137436Y537487D01*
X137608Y537237D01*
X137668Y536940D01*
X137668Y509157D01*
X137612Y508871D01*
X137445Y508619D01*
X121189Y492363D01*
X120969Y492210D01*
X120674Y492140D01*
X120375Y492191D01*
X120120Y492354D01*
X119948Y492604D01*
X119888Y492901D01*
X119888Y502009D01*
X119944Y502295D01*
X120111Y502548D01*
X128858Y511295D01*
X128858Y648716D01*
X122214Y655360D01*
X122054Y655596D01*
X121991Y655892D01*
X122049Y656190D01*
X123070Y658656D01*
X123070Y662144D01*
X121735Y665368D01*
X119268Y667835D01*
X116044Y669170D01*
X112556Y669170D01*
X109332Y667835D01*
X106865Y665368D01*
X105530Y662144D01*
X105530Y658656D01*
X106865Y655432D01*
X109332Y652965D01*
X112556Y651630D01*
X116044Y651630D01*
X118510Y652651D01*
X118789Y652709D01*
X119087Y652654D01*
X119340Y652486D01*
X124571Y647256D01*
X124734Y647014D01*
X124794Y646717D01*
X124794Y513294D01*
X124738Y513008D01*
X124571Y512755D01*
X117633Y505817D01*
X117413Y505664D01*
X117118Y505594D01*
X116819Y505645D01*
X116564Y505809D01*
X116392Y506059D01*
X116332Y506356D01*
X116332Y536940D01*
X116385Y537220D01*
X116551Y537474D01*
X116802Y537644D01*
X119268Y538665D01*
X121735Y541132D01*
X123070Y544356D01*
X123070Y547844D01*
X121735Y551068D01*
X119268Y553535D01*
X116044Y554870D01*
X112556Y554870D01*
X109332Y553535D01*
X106865Y551068D01*
X105530Y547844D01*
X105530Y544356D01*
X106865Y541132D01*
X109332Y538665D01*
X111798Y537644D01*
X112036Y537487D01*
X112208Y537237D01*
X112268Y536940D01*
X112268Y498198D01*
X112221Y497935D01*
X112062Y497677D01*
X111814Y497501D01*
X111518Y497436D01*
X111220Y497492D01*
X110967Y497659D01*
X100981Y507645D01*
X100818Y507887D01*
X100758Y508184D01*
X100758Y651416D01*
X96814Y655360D01*
X96654Y655596D01*
X96591Y655892D01*
X96649Y656190D01*
X97670Y658656D01*
X97670Y662144D01*
X96335Y665368D01*
X93868Y667835D01*
X90644Y669170D01*
X87156Y669170D01*
X83932Y667835D01*
X81465Y665368D01*
X80130Y662144D01*
X80130Y658656D01*
X81465Y655432D01*
X83932Y652965D01*
X87156Y651630D01*
X90644Y651630D01*
X93110Y652651D01*
X93389Y652709D01*
X93687Y652654D01*
X93940Y652486D01*
X96471Y649956D01*
X96634Y649714D01*
X96694Y649417D01*
X96694Y577948D01*
X96647Y577685D01*
X96488Y577427D01*
X96240Y577251D01*
X95944Y577186D01*
X95646Y577242D01*
X95393Y577409D01*
X93868Y578935D01*
X90644Y580270D01*
X87156Y580270D01*
X83932Y578935D01*
X81465Y576468D01*
X80130Y573244D01*
X80130Y569756D01*
X81465Y566532D01*
X83932Y564065D01*
X87156Y562730D01*
X90644Y562730D01*
X93868Y564065D01*
X95393Y565591D01*
X95613Y565744D01*
X95908Y565813D01*
X96207Y565763D01*
X96462Y565599D01*
X96634Y565349D01*
X96694Y565052D01*
X96694Y552548D01*
X96647Y552285D01*
X96488Y552027D01*
X96240Y551851D01*
X95944Y551786D01*
X95646Y551842D01*
X95393Y552009D01*
X93868Y553535D01*
X90644Y554870D01*
X87156Y554870D01*
X83932Y553535D01*
X81465Y551068D01*
X80130Y547844D01*
X80130Y544356D01*
X81465Y541132D01*
X83932Y538665D01*
X86398Y537644D01*
X86636Y537487D01*
X86808Y537237D01*
X86868Y536940D01*
X86868Y514977D01*
X86821Y514714D01*
X86662Y514456D01*
X86414Y514280D01*
X86118Y514215D01*
X85820Y514271D01*
X85567Y514438D01*
X78455Y521550D01*
X78292Y521792D01*
X78232Y522089D01*
X78232Y648542D01*
X71414Y655360D01*
X71254Y655596D01*
X71191Y655892D01*
X71249Y656190D01*
X72270Y658656D01*
X72270Y662144D01*
X70935Y665368D01*
X68468Y667835D01*
X65244Y669170D01*
X61756Y669170D01*
X58532Y667835D01*
X56065Y665368D01*
X54730Y662144D01*
X54730Y658656D01*
X56065Y655432D01*
X58532Y652965D01*
X61756Y651630D01*
X65244Y651630D01*
X67710Y652651D01*
X67989Y652709D01*
X68287Y652654D01*
X68540Y652486D01*
X73945Y647082D01*
X74108Y646840D01*
X74168Y646543D01*
X74168Y540145D01*
X74121Y539882D01*
X73962Y539624D01*
X73714Y539449D01*
X73418Y539383D01*
X73120Y539439D01*
X72867Y539607D01*
X71414Y541060D01*
X71254Y541296D01*
X71191Y541592D01*
X71249Y541890D01*
X72270Y544356D01*
X72270Y547844D01*
X70935Y551068D01*
X68468Y553535D01*
X65244Y554870D01*
X61756Y554870D01*
X58532Y553535D01*
X56065Y551068D01*
X54730Y547844D01*
X54730Y544356D01*
X56065Y541132D01*
X58532Y538665D01*
X61756Y537330D01*
X65244Y537330D01*
X67710Y538351D01*
X67989Y538409D01*
X68287Y538354D01*
X68540Y538186D01*
X70897Y535830D01*
X71060Y535588D01*
X71120Y535291D01*
X71120Y522104D01*
X71073Y521841D01*
X70914Y521583D01*
X70666Y521407D01*
X70370Y521342D01*
X70072Y521398D01*
X69819Y521565D01*
X53055Y538329D01*
X52892Y538571D01*
X52832Y538868D01*
X52832Y648542D01*
X46014Y655360D01*
X45854Y655596D01*
X45791Y655892D01*
X45849Y656190D01*
X46870Y658656D01*
X46870Y662144D01*
X45535Y665368D01*
X43068Y667835D01*
X39844Y669170D01*
X36356Y669170D01*
X33132Y667835D01*
X30665Y665368D01*
X29330Y662144D01*
X29330Y658656D01*
X30665Y655432D01*
X33132Y652965D01*
X36356Y651630D01*
X39844Y651630D01*
X42310Y652651D01*
X42589Y652709D01*
X42887Y652654D01*
X43140Y652486D01*
X48545Y647082D01*
X48708Y646840D01*
X48768Y646543D01*
X48768Y540145D01*
X48721Y539882D01*
X48562Y539624D01*
X48314Y539449D01*
X48018Y539383D01*
X47720Y539439D01*
X47467Y539607D01*
X46014Y541060D01*
X45854Y541296D01*
X45791Y541592D01*
X45849Y541890D01*
X46870Y544356D01*
X46870Y547844D01*
X45535Y551068D01*
X43068Y553535D01*
X39844Y554870D01*
X36356Y554870D01*
X33132Y553535D01*
X30665Y551068D01*
X29330Y547844D01*
X29330Y544356D01*
X30665Y541132D01*
X33132Y538665D01*
X36356Y537330D01*
X39844Y537330D01*
X42310Y538351D01*
X42589Y538409D01*
X42887Y538354D01*
X43140Y538186D01*
X94265Y487062D01*
X94428Y486820D01*
X94488Y486523D01*
X94488Y430801D01*
X236505Y288784D01*
X236668Y288543D01*
X236728Y288245D01*
X236728Y253130D01*
X236675Y252850D01*
X236509Y252595D01*
X236258Y252426D01*
X233724Y251377D01*
X231933Y249585D01*
X231713Y249432D01*
X231418Y249362D01*
X231119Y249413D01*
X230864Y249577D01*
X230692Y249827D01*
X230632Y250124D01*
X230632Y269258D01*
X230688Y269544D01*
X230855Y269797D01*
X232495Y271437D01*
X232495Y274663D01*
X230213Y276945D01*
X226987Y276945D01*
X224705Y274663D01*
X224705Y271437D01*
X226345Y269797D01*
X226508Y269555D01*
X226568Y269258D01*
X226568Y250124D01*
X226521Y249861D01*
X226362Y249603D01*
X226114Y249427D01*
X225818Y249362D01*
X225520Y249418D01*
X225267Y249585D01*
X223476Y251377D01*
X220208Y252730D01*
X216672Y252730D01*
X213404Y251377D01*
X210903Y248876D01*
X209550Y245608D01*
X209550Y242072D01*
X210903Y238804D01*
X213404Y236303D01*
X216672Y234950D01*
X220208Y234950D01*
X223476Y236303D01*
X225267Y238095D01*
X225487Y238248D01*
X225782Y238318D01*
X226081Y238267D01*
X226336Y238103D01*
X226508Y237853D01*
X226568Y237556D01*
X226568Y235350D01*
X226515Y235070D01*
X226349Y234815D01*
X226098Y234646D01*
X223564Y233597D01*
X221063Y231096D01*
X219710Y227828D01*
X219710Y224292D01*
X221063Y221024D01*
X223564Y218523D01*
X226832Y217170D01*
X230368Y217170D01*
X233636Y218523D01*
X236137Y221024D01*
X237369Y223999D01*
X237513Y224224D01*
X237759Y224402D01*
X238054Y224469D01*
X238353Y224416D01*
X238607Y224250D01*
X238777Y223999D01*
X240307Y220305D01*
X243165Y217447D01*
X246899Y215900D01*
X248158Y215900D01*
X248158Y236220D01*
X246899Y236220D01*
X244998Y235433D01*
X244743Y235376D01*
X244443Y235422D01*
X244185Y235581D01*
X244010Y235828D01*
X243945Y236125D01*
X244000Y236423D01*
X244168Y236675D01*
X246297Y238804D01*
X247650Y242072D01*
X247650Y245608D01*
X246297Y248876D01*
X243796Y251377D01*
X241262Y252426D01*
X241024Y252583D01*
X240852Y252833D01*
X240792Y253130D01*
X240792Y286968D01*
X240839Y287231D01*
X240998Y287489D01*
X241246Y287665D01*
X241542Y287730D01*
X241840Y287674D01*
X242093Y287507D01*
X266985Y262615D01*
X267148Y262373D01*
X267208Y262076D01*
X267208Y250124D01*
X267161Y249861D01*
X267002Y249603D01*
X266754Y249427D01*
X266458Y249362D01*
X266160Y249418D01*
X265907Y249585D01*
X264116Y251377D01*
X260848Y252730D01*
X257312Y252730D01*
X254044Y251377D01*
X251543Y248876D01*
X250190Y245608D01*
X250190Y242072D01*
X251543Y238804D01*
X253672Y236675D01*
X253823Y236462D01*
X253895Y236167D01*
X253846Y235868D01*
X253685Y235611D01*
X253436Y235437D01*
X253139Y235375D01*
X252842Y235433D01*
X250941Y236220D01*
X249682Y236220D01*
X249682Y215900D01*
X250941Y215900D01*
X254675Y217447D01*
X257533Y220305D01*
X259063Y223999D01*
X259207Y224224D01*
X259453Y224402D01*
X259749Y224469D01*
X260048Y224416D01*
X260302Y224250D01*
X260471Y223999D01*
X261703Y221024D01*
X264204Y218523D01*
X267472Y217170D01*
X271008Y217170D01*
X274276Y218523D01*
X276777Y221024D01*
X278130Y224292D01*
X278130Y227828D01*
X276777Y231096D01*
X274276Y233597D01*
X271742Y234646D01*
X271504Y234803D01*
X271332Y235053D01*
X271272Y235350D01*
X271272Y237556D01*
X271319Y237819D01*
X271478Y238077D01*
X271726Y238253D01*
X272022Y238318D01*
X272320Y238262D01*
X272573Y238095D01*
X274364Y236303D01*
X277632Y234950D01*
X279908Y234950D01*
X280183Y234899D01*
X280438Y234735D01*
X280610Y234485D01*
X280670Y234188D01*
X280670Y217914D01*
X281414Y217170D01*
X286766Y217170D01*
X287041Y217119D01*
X287296Y216955D01*
X287468Y216705D01*
X287528Y216408D01*
X287528Y189117D01*
X287472Y188831D01*
X287305Y188579D01*
X270485Y171758D01*
X270243Y171595D01*
X269946Y171535D01*
X267627Y171535D01*
X265345Y169253D01*
X265345Y166027D01*
X267627Y163745D01*
X270853Y163745D01*
X273135Y166027D01*
X273135Y168346D01*
X273191Y168632D01*
X273358Y168885D01*
X291592Y187118D01*
X291592Y216408D01*
X291643Y216683D01*
X291807Y216938D01*
X292057Y217110D01*
X292354Y217170D01*
X297706Y217170D01*
X298450Y217914D01*
X298450Y234206D01*
X297706Y234950D01*
X284922Y234950D01*
X284659Y234997D01*
X284401Y235156D01*
X284225Y235404D01*
X284160Y235700D01*
X284216Y235998D01*
X284383Y236251D01*
X286937Y238804D01*
X288290Y242072D01*
X288290Y245608D01*
X286937Y248876D01*
X284436Y251377D01*
X281168Y252730D01*
X277632Y252730D01*
X274364Y251377D01*
X272573Y249585D01*
X272353Y249432D01*
X272058Y249362D01*
X271759Y249413D01*
X271504Y249577D01*
X271332Y249827D01*
X271272Y250124D01*
X271272Y264075D01*
X223466Y311881D01*
X223313Y312101D01*
X223243Y312396D01*
X223294Y312695D01*
X223457Y312950D01*
X223707Y313122D01*
X224005Y313182D01*
X428810Y313182D01*
X429096Y313126D01*
X429349Y312959D01*
X439705Y302603D01*
X439868Y302361D01*
X439928Y302064D01*
X439928Y253130D01*
X439875Y252850D01*
X439709Y252595D01*
X439458Y252426D01*
X436924Y251377D01*
X435133Y249585D01*
X434913Y249432D01*
X434618Y249362D01*
X434319Y249413D01*
X434064Y249577D01*
X433892Y249827D01*
X433832Y250124D01*
X433832Y269258D01*
X433888Y269544D01*
X434055Y269797D01*
X435695Y271437D01*
X435695Y274663D01*
X433413Y276945D01*
X430187Y276945D01*
X427905Y274663D01*
X427905Y271437D01*
X429545Y269797D01*
X429708Y269555D01*
X429768Y269258D01*
X429768Y250124D01*
X429721Y249861D01*
X429562Y249603D01*
X429314Y249427D01*
X429018Y249362D01*
X428720Y249418D01*
X428467Y249585D01*
X426676Y251377D01*
X423408Y252730D01*
X419872Y252730D01*
X416604Y251377D01*
X414103Y248876D01*
X412750Y245608D01*
X412750Y242072D01*
X414103Y238804D01*
X416604Y236303D01*
X419872Y234950D01*
X423408Y234950D01*
X426676Y236303D01*
X428467Y238095D01*
X428687Y238248D01*
X428982Y238318D01*
X429281Y238267D01*
X429536Y238103D01*
X429708Y237853D01*
X429768Y237556D01*
X429768Y235350D01*
X429715Y235070D01*
X429549Y234815D01*
X429298Y234646D01*
X426764Y233597D01*
X424263Y231096D01*
X422910Y227828D01*
X422910Y224292D01*
X424263Y221024D01*
X426764Y218523D01*
X430032Y217170D01*
X433568Y217170D01*
X436836Y218523D01*
X439337Y221024D01*
X440569Y223999D01*
X440713Y224224D01*
X440959Y224402D01*
X441254Y224469D01*
X441553Y224416D01*
X441807Y224250D01*
X441977Y223999D01*
X443507Y220305D01*
X446365Y217447D01*
X450099Y215900D01*
X451358Y215900D01*
X451358Y236220D01*
X450099Y236220D01*
X448198Y235433D01*
X447943Y235376D01*
X447643Y235422D01*
X447385Y235581D01*
X447210Y235828D01*
X447145Y236125D01*
X447200Y236423D01*
X447368Y236675D01*
X449497Y238804D01*
X450850Y242072D01*
X450850Y245608D01*
X449497Y248876D01*
X446996Y251377D01*
X444462Y252426D01*
X444224Y252583D01*
X444052Y252833D01*
X443992Y253130D01*
X443992Y304063D01*
X433126Y314929D01*
X432973Y315149D01*
X432903Y315444D01*
X432954Y315743D01*
X433117Y315998D01*
X433368Y316170D01*
X433665Y316230D01*
X468173Y316230D01*
X468459Y316174D01*
X468712Y316007D01*
X470185Y314534D01*
X470348Y314292D01*
X470408Y313995D01*
X470408Y250124D01*
X470361Y249861D01*
X470202Y249603D01*
X469954Y249427D01*
X469658Y249362D01*
X469360Y249418D01*
X469107Y249585D01*
X467316Y251377D01*
X464048Y252730D01*
X460512Y252730D01*
X457244Y251377D01*
X454743Y248876D01*
X453390Y245608D01*
X453390Y242072D01*
X454743Y238804D01*
X456872Y236675D01*
X457023Y236462D01*
X457095Y236167D01*
X457046Y235868D01*
X456885Y235611D01*
X456636Y235437D01*
X456339Y235375D01*
X456042Y235433D01*
X454141Y236220D01*
X452882Y236220D01*
X452882Y215900D01*
X454141Y215900D01*
X457875Y217447D01*
X460733Y220305D01*
X462263Y223999D01*
X462407Y224224D01*
X462653Y224402D01*
X462949Y224469D01*
X463248Y224416D01*
X463502Y224250D01*
X463671Y223999D01*
X464903Y221024D01*
X467404Y218523D01*
X470672Y217170D01*
X474208Y217170D01*
X477476Y218523D01*
X479977Y221024D01*
X481330Y224292D01*
X481330Y227828D01*
X479977Y231096D01*
X477476Y233597D01*
X474942Y234646D01*
X474704Y234803D01*
X474532Y235053D01*
X474472Y235350D01*
X474472Y237556D01*
X474519Y237819D01*
X474678Y238077D01*
X474926Y238253D01*
X475222Y238318D01*
X475520Y238262D01*
X475773Y238095D01*
X477564Y236303D01*
X480832Y234950D01*
X483108Y234950D01*
X483383Y234899D01*
X483638Y234735D01*
X483810Y234485D01*
X483870Y234188D01*
X483870Y217914D01*
X484614Y217170D01*
X490984Y217170D01*
X491259Y217119D01*
X491514Y216955D01*
X491686Y216705D01*
X491746Y216408D01*
X491746Y190107D01*
X491690Y189821D01*
X491523Y189569D01*
X473685Y171730D01*
X473443Y171567D01*
X473146Y171507D01*
X470827Y171507D01*
X468545Y169225D01*
X468545Y165999D01*
X470827Y163717D01*
G37*
G36*
X69507Y177715D02*
X72733Y177715D01*
X75015Y179997D01*
X75015Y182316D01*
X75071Y182602D01*
X75238Y182855D01*
X89027Y196643D01*
X89027Y216408D01*
X89078Y216683D01*
X89242Y216938D01*
X89492Y217110D01*
X89789Y217170D01*
X94506Y217170D01*
X95250Y217914D01*
X95250Y234206D01*
X94506Y234950D01*
X81722Y234950D01*
X81459Y234997D01*
X81201Y235156D01*
X81025Y235404D01*
X80960Y235700D01*
X81016Y235998D01*
X81183Y236251D01*
X83737Y238804D01*
X85090Y242072D01*
X85090Y245608D01*
X83737Y248876D01*
X81236Y251377D01*
X77968Y252730D01*
X74432Y252730D01*
X71164Y251377D01*
X69373Y249585D01*
X69153Y249432D01*
X68858Y249362D01*
X68559Y249413D01*
X68304Y249577D01*
X68132Y249827D01*
X68072Y250124D01*
X68072Y497912D01*
X27655Y538329D01*
X27492Y538571D01*
X27432Y538868D01*
X27432Y648542D01*
X21693Y654281D01*
X21530Y654522D01*
X21470Y654819D01*
X21470Y668426D01*
X20726Y669170D01*
X4674Y669170D01*
X3930Y668426D01*
X3930Y652374D01*
X4674Y651630D01*
X18281Y651630D01*
X18567Y651574D01*
X18820Y651407D01*
X23145Y647082D01*
X23308Y646840D01*
X23368Y646543D01*
X23368Y540145D01*
X23321Y539882D01*
X23162Y539624D01*
X22914Y539449D01*
X22618Y539383D01*
X22320Y539439D01*
X22067Y539607D01*
X21693Y539981D01*
X21530Y540222D01*
X21470Y540519D01*
X21470Y554126D01*
X20726Y554870D01*
X4674Y554870D01*
X3930Y554126D01*
X3930Y538074D01*
X4674Y537330D01*
X18281Y537330D01*
X18567Y537274D01*
X18820Y537107D01*
X60737Y495190D01*
X60900Y494948D01*
X60960Y494651D01*
X60960Y348629D01*
X60904Y348343D01*
X60737Y348091D01*
X33528Y320882D01*
X33528Y253130D01*
X33475Y252850D01*
X33309Y252595D01*
X33058Y252426D01*
X30524Y251377D01*
X28733Y249585D01*
X28513Y249432D01*
X28218Y249362D01*
X27919Y249413D01*
X27664Y249577D01*
X27492Y249827D01*
X27432Y250124D01*
X27432Y301008D01*
X27488Y301294D01*
X27655Y301547D01*
X29295Y303187D01*
X29295Y306413D01*
X27013Y308695D01*
X23787Y308695D01*
X21505Y306413D01*
X21505Y303187D01*
X23145Y301547D01*
X23308Y301305D01*
X23368Y301008D01*
X23368Y250124D01*
X23321Y249861D01*
X23162Y249603D01*
X22914Y249427D01*
X22618Y249362D01*
X22320Y249418D01*
X22067Y249585D01*
X20276Y251377D01*
X17008Y252730D01*
X13472Y252730D01*
X10204Y251377D01*
X7703Y248876D01*
X6350Y245608D01*
X6350Y242072D01*
X7703Y238804D01*
X10204Y236303D01*
X13472Y234950D01*
X17008Y234950D01*
X20276Y236303D01*
X22067Y238095D01*
X22287Y238248D01*
X22582Y238318D01*
X22881Y238267D01*
X23136Y238103D01*
X23308Y237853D01*
X23368Y237556D01*
X23368Y235350D01*
X23315Y235070D01*
X23149Y234815D01*
X22898Y234646D01*
X20364Y233597D01*
X17863Y231096D01*
X16510Y227828D01*
X16510Y224292D01*
X17863Y221024D01*
X20364Y218523D01*
X23632Y217170D01*
X27168Y217170D01*
X30436Y218523D01*
X32937Y221024D01*
X34169Y223999D01*
X34313Y224224D01*
X34559Y224402D01*
X34854Y224469D01*
X35153Y224416D01*
X35407Y224250D01*
X35577Y223999D01*
X37107Y220305D01*
X39965Y217447D01*
X43699Y215900D01*
X44958Y215900D01*
X44958Y236220D01*
X43699Y236220D01*
X41798Y235433D01*
X41543Y235376D01*
X41243Y235422D01*
X40985Y235581D01*
X40810Y235828D01*
X40745Y236125D01*
X40800Y236423D01*
X40968Y236675D01*
X43097Y238804D01*
X44450Y242072D01*
X44450Y245608D01*
X43097Y248876D01*
X40596Y251377D01*
X38062Y252426D01*
X37824Y252583D01*
X37652Y252833D01*
X37592Y253130D01*
X37592Y318883D01*
X37648Y319169D01*
X37815Y319422D01*
X62707Y344314D01*
X62927Y344467D01*
X63222Y344536D01*
X63521Y344485D01*
X63776Y344322D01*
X63948Y344072D01*
X64008Y343775D01*
X64008Y250124D01*
X63961Y249861D01*
X63802Y249603D01*
X63554Y249427D01*
X63258Y249362D01*
X62960Y249418D01*
X62707Y249585D01*
X60916Y251377D01*
X57648Y252730D01*
X54112Y252730D01*
X50844Y251377D01*
X48343Y248876D01*
X46990Y245608D01*
X46990Y242072D01*
X48343Y238804D01*
X50472Y236675D01*
X50623Y236462D01*
X50695Y236167D01*
X50646Y235868D01*
X50485Y235611D01*
X50236Y235437D01*
X49939Y235375D01*
X49642Y235433D01*
X47741Y236220D01*
X46482Y236220D01*
X46482Y215900D01*
X47741Y215900D01*
X51475Y217447D01*
X54333Y220305D01*
X55863Y223999D01*
X56007Y224224D01*
X56253Y224402D01*
X56549Y224469D01*
X56848Y224416D01*
X57102Y224250D01*
X57271Y223999D01*
X58503Y221024D01*
X61004Y218523D01*
X64272Y217170D01*
X67808Y217170D01*
X71076Y218523D01*
X73577Y221024D01*
X74930Y224292D01*
X74930Y227828D01*
X73577Y231096D01*
X71076Y233597D01*
X68542Y234646D01*
X68304Y234803D01*
X68132Y235053D01*
X68072Y235350D01*
X68072Y237556D01*
X68119Y237819D01*
X68278Y238077D01*
X68526Y238253D01*
X68822Y238318D01*
X69120Y238262D01*
X69373Y238095D01*
X71164Y236303D01*
X74432Y234950D01*
X76708Y234950D01*
X76983Y234899D01*
X77238Y234735D01*
X77410Y234485D01*
X77470Y234188D01*
X77470Y217914D01*
X78214Y217170D01*
X84201Y217170D01*
X84476Y217119D01*
X84731Y216955D01*
X84903Y216705D01*
X84963Y216408D01*
X84963Y198642D01*
X84907Y198356D01*
X84740Y198104D01*
X72365Y185728D01*
X72123Y185565D01*
X71826Y185505D01*
X69507Y185505D01*
X67225Y183223D01*
X67225Y179997D01*
X69507Y177715D01*
G37*
G36*
X974556Y625855D02*
X993944Y625855D01*
X997305Y627247D01*
X999878Y629820D01*
X1001270Y633181D01*
X1001270Y636819D01*
X999878Y640180D01*
X997305Y642753D01*
X993944Y644145D01*
X974556Y644145D01*
X971195Y642753D01*
X968622Y640180D01*
X967230Y636819D01*
X967230Y633181D01*
X968622Y629820D01*
X971195Y627247D01*
X974556Y625855D01*
G37*
G36*
X1495364Y599680D02*
X1501836Y599680D01*
X1507816Y602157D01*
X1512393Y606734D01*
X1514870Y612714D01*
X1514870Y619186D01*
X1512393Y625166D01*
X1507816Y629743D01*
X1501836Y632220D01*
X1495364Y632220D01*
X1489384Y629743D01*
X1484807Y625166D01*
X1482330Y619186D01*
X1482330Y612714D01*
X1484807Y606734D01*
X1489384Y602157D01*
X1495364Y599680D01*
G37*
G36*
X499881Y450530D02*
X503419Y450530D01*
X505920Y453031D01*
X505920Y460131D01*
X505976Y460417D01*
X506143Y460670D01*
X510032Y464558D01*
X510032Y555142D01*
X506143Y559031D01*
X505980Y559272D01*
X505920Y559569D01*
X505920Y566669D01*
X503905Y568684D01*
X503742Y568925D01*
X503682Y569222D01*
X503682Y576693D01*
X503738Y576979D01*
X503905Y577232D01*
X521319Y594645D01*
X521560Y594808D01*
X521857Y594868D01*
X618508Y594868D01*
X618794Y594812D01*
X619047Y594645D01*
X620687Y593005D01*
X623913Y593005D01*
X626195Y595287D01*
X626195Y598513D01*
X623913Y600795D01*
X620687Y600795D01*
X619047Y599155D01*
X618805Y598992D01*
X618508Y598932D01*
X519858Y598932D01*
X499618Y578692D01*
X499618Y569222D01*
X499562Y568936D01*
X499395Y568684D01*
X497380Y566669D01*
X497380Y554631D01*
X499881Y552130D01*
X503419Y552130D01*
X504667Y553379D01*
X504887Y553532D01*
X505182Y553601D01*
X505481Y553550D01*
X505736Y553387D01*
X505908Y553137D01*
X505968Y552840D01*
X505968Y513960D01*
X505921Y513697D01*
X505762Y513439D01*
X505514Y513264D01*
X505218Y513198D01*
X504920Y513254D01*
X504667Y513422D01*
X503419Y514670D01*
X499881Y514670D01*
X497380Y512169D01*
X497380Y500131D01*
X499395Y498117D01*
X499558Y497875D01*
X499618Y497578D01*
X499618Y497386D01*
X499562Y497100D01*
X499395Y496847D01*
X497755Y495207D01*
X497755Y491981D01*
X500037Y489699D01*
X503263Y489699D01*
X504667Y491103D01*
X504887Y491256D01*
X505182Y491326D01*
X505481Y491275D01*
X505736Y491111D01*
X505908Y490861D01*
X505968Y490564D01*
X505968Y466860D01*
X505921Y466597D01*
X505762Y466339D01*
X505514Y466164D01*
X505218Y466098D01*
X504920Y466154D01*
X504667Y466322D01*
X503419Y467570D01*
X499881Y467570D01*
X497380Y465069D01*
X497380Y453031D01*
X499881Y450530D01*
G37*
G36*
X1446220Y582605D02*
X1449380Y582605D01*
X1452301Y583815D01*
X1454535Y586050D01*
X1455745Y588970D01*
X1455745Y592130D01*
X1454535Y595051D01*
X1452301Y597285D01*
X1449380Y598495D01*
X1446220Y598495D01*
X1443300Y597285D01*
X1441065Y595051D01*
X1439855Y592130D01*
X1439855Y588970D01*
X1441065Y586050D01*
X1443300Y583815D01*
X1446220Y582605D01*
G37*
G36*
X593580Y546862D02*
X600220Y546862D01*
X600964Y547606D01*
X600964Y568470D01*
X600220Y569214D01*
X599694Y569214D01*
X599419Y569265D01*
X599164Y569429D01*
X598992Y569679D01*
X598932Y569976D01*
X598932Y570343D01*
X598988Y570629D01*
X599155Y570882D01*
X610219Y581945D01*
X610460Y582108D01*
X610757Y582168D01*
X618508Y582168D01*
X618794Y582112D01*
X619047Y581945D01*
X620687Y580305D01*
X623913Y580305D01*
X626195Y582587D01*
X626195Y585813D01*
X623913Y588095D01*
X620687Y588095D01*
X619047Y586455D01*
X618805Y586292D01*
X618508Y586232D01*
X608758Y586232D01*
X594868Y572342D01*
X594868Y569976D01*
X594817Y569701D01*
X594653Y569446D01*
X594403Y569274D01*
X594106Y569214D01*
X593580Y569214D01*
X592836Y568470D01*
X592836Y547606D01*
X593580Y546862D01*
G37*
G36*
X36356Y562730D02*
X39844Y562730D01*
X43068Y564065D01*
X45535Y566532D01*
X46870Y569756D01*
X46870Y573244D01*
X45535Y576468D01*
X43068Y578935D01*
X39844Y580270D01*
X36356Y580270D01*
X33132Y578935D01*
X30665Y576468D01*
X29330Y573244D01*
X29330Y569756D01*
X30665Y566532D01*
X33132Y564065D01*
X36356Y562730D01*
G37*
G36*
X61756Y562730D02*
X65244Y562730D01*
X68468Y564065D01*
X70935Y566532D01*
X72270Y569756D01*
X72270Y573244D01*
X70935Y576468D01*
X68468Y578935D01*
X65244Y580270D01*
X61756Y580270D01*
X58532Y578935D01*
X56065Y576468D01*
X54730Y573244D01*
X54730Y569756D01*
X56065Y566532D01*
X58532Y564065D01*
X61756Y562730D01*
G37*
G36*
X10956Y562730D02*
X14444Y562730D01*
X17668Y564065D01*
X20135Y566532D01*
X21470Y569756D01*
X21470Y573244D01*
X20135Y576468D01*
X17668Y578935D01*
X14444Y580270D01*
X10956Y580270D01*
X7732Y578935D01*
X5265Y576468D01*
X3930Y573244D01*
X3930Y569756D01*
X5265Y566532D01*
X7732Y564065D01*
X10956Y562730D01*
G37*
G36*
X112556Y562730D02*
X116044Y562730D01*
X119268Y564065D01*
X121735Y566532D01*
X123070Y569756D01*
X123070Y573244D01*
X121735Y576468D01*
X119268Y578935D01*
X116044Y580270D01*
X112556Y580270D01*
X109332Y578935D01*
X106865Y576468D01*
X105530Y573244D01*
X105530Y569756D01*
X106865Y566532D01*
X109332Y564065D01*
X112556Y562730D01*
G37*
G36*
X163356Y562730D02*
X166844Y562730D01*
X170068Y564065D01*
X172535Y566532D01*
X173870Y569756D01*
X173870Y573244D01*
X172535Y576468D01*
X170068Y578935D01*
X166844Y580270D01*
X163356Y580270D01*
X160132Y578935D01*
X157665Y576468D01*
X156330Y573244D01*
X156330Y569756D01*
X157665Y566532D01*
X160132Y564065D01*
X163356Y562730D01*
G37*
G36*
X188756Y562730D02*
X192244Y562730D01*
X195468Y564065D01*
X197935Y566532D01*
X199270Y569756D01*
X199270Y573244D01*
X197935Y576468D01*
X195468Y578935D01*
X192244Y580270D01*
X188756Y580270D01*
X185532Y578935D01*
X183065Y576468D01*
X181730Y573244D01*
X181730Y569756D01*
X183065Y566532D01*
X185532Y564065D01*
X188756Y562730D01*
G37*
G36*
X606280Y546862D02*
X612920Y546862D01*
X613664Y547606D01*
X613664Y559675D01*
X613720Y559961D01*
X613887Y560214D01*
X621056Y567382D01*
X621297Y567545D01*
X621594Y567605D01*
X623913Y567605D01*
X626195Y569887D01*
X626195Y573113D01*
X623913Y575395D01*
X620687Y575395D01*
X618405Y573113D01*
X618405Y570794D01*
X618349Y570508D01*
X618182Y570256D01*
X614965Y567039D01*
X614745Y566886D01*
X614450Y566816D01*
X614151Y566867D01*
X613896Y567030D01*
X613724Y567280D01*
X613664Y567577D01*
X613664Y568470D01*
X612920Y569214D01*
X606280Y569214D01*
X605536Y568470D01*
X605536Y547606D01*
X606280Y546862D01*
G37*
G36*
X1440599Y557205D02*
X1455001Y557205D01*
X1455745Y557949D01*
X1455745Y572351D01*
X1455001Y573095D01*
X1440599Y573095D01*
X1439855Y572351D01*
X1439855Y557949D01*
X1440599Y557205D01*
G37*
G36*
X534162Y558800D02*
X538734Y558800D01*
X538734Y568996D01*
X537246Y570484D01*
X534162Y570484D01*
X534162Y558800D01*
G37*
G36*
X528066Y558800D02*
X532638Y558800D01*
X532638Y570484D01*
X529554Y570484D01*
X528066Y568996D01*
X528066Y558800D01*
G37*
G36*
X555480Y497586D02*
X562120Y497586D01*
X562864Y498330D01*
X562864Y519194D01*
X562120Y519938D01*
X561594Y519938D01*
X561319Y519989D01*
X561064Y520153D01*
X560892Y520403D01*
X560832Y520700D01*
X560832Y534242D01*
X549355Y545719D01*
X549197Y545949D01*
X549132Y546246D01*
X549187Y546544D01*
X549355Y546797D01*
X550164Y547606D01*
X550164Y568470D01*
X549420Y569214D01*
X542780Y569214D01*
X542036Y568470D01*
X542036Y547606D01*
X542780Y546862D01*
X543306Y546862D01*
X543581Y546811D01*
X543836Y546647D01*
X544008Y546397D01*
X544068Y546100D01*
X544068Y545258D01*
X556545Y532782D01*
X556708Y532540D01*
X556768Y532243D01*
X556768Y520700D01*
X556717Y520425D01*
X556553Y520170D01*
X556303Y519998D01*
X556006Y519938D01*
X555480Y519938D01*
X554736Y519194D01*
X554736Y498330D01*
X555480Y497586D01*
G37*
G36*
X568180Y546862D02*
X574820Y546862D01*
X575564Y547606D01*
X575564Y568470D01*
X574820Y569214D01*
X568180Y569214D01*
X567436Y568470D01*
X567436Y547606D01*
X568180Y546862D01*
G37*
G36*
X580880Y546862D02*
X587520Y546862D01*
X588264Y547606D01*
X588264Y568470D01*
X587520Y569214D01*
X580880Y569214D01*
X580136Y568470D01*
X580136Y547606D01*
X580880Y546862D01*
G37*
G36*
X474481Y552130D02*
X478019Y552130D01*
X480520Y554631D01*
X480520Y566669D01*
X478019Y569170D01*
X474481Y569170D01*
X471980Y566669D01*
X471980Y554631D01*
X474481Y552130D01*
G37*
G36*
X487181Y552130D02*
X490719Y552130D01*
X493220Y554631D01*
X493220Y566669D01*
X490719Y569170D01*
X487181Y569170D01*
X484680Y566669D01*
X484680Y554631D01*
X487181Y552130D01*
G37*
G36*
X449081Y552130D02*
X452619Y552130D01*
X455120Y554631D01*
X455120Y566669D01*
X452619Y569170D01*
X449081Y569170D01*
X446580Y566669D01*
X446580Y554631D01*
X449081Y552130D01*
G37*
G36*
X461781Y552130D02*
X465319Y552130D01*
X467820Y554631D01*
X467820Y566669D01*
X465319Y569170D01*
X461781Y569170D01*
X459280Y566669D01*
X459280Y554631D01*
X461781Y552130D01*
G37*
G36*
X529554Y545592D02*
X532638Y545592D01*
X532638Y557276D01*
X528066Y557276D01*
X528066Y547080D01*
X529554Y545592D01*
G37*
G36*
X534162Y545592D02*
X537246Y545592D01*
X538734Y547080D01*
X538734Y557276D01*
X534162Y557276D01*
X534162Y545592D01*
G37*
G36*
X1001406Y521340D02*
X1005194Y521340D01*
X1008693Y522789D01*
X1011371Y525467D01*
X1012820Y528966D01*
X1012820Y532754D01*
X1011371Y536253D01*
X1008693Y538931D01*
X1005194Y540380D01*
X1001406Y540380D01*
X997907Y538931D01*
X995229Y536253D01*
X993780Y532754D01*
X993780Y528966D01*
X995229Y525467D01*
X997907Y522789D01*
X1001406Y521340D01*
G37*
G36*
X887106Y521340D02*
X890894Y521340D01*
X894393Y522789D01*
X897071Y525467D01*
X898520Y528966D01*
X898520Y532754D01*
X897071Y536253D01*
X894393Y538931D01*
X890894Y540380D01*
X887106Y540380D01*
X883607Y538931D01*
X880929Y536253D01*
X879480Y532754D01*
X879480Y528966D01*
X880929Y525467D01*
X883607Y522789D01*
X887106Y521340D01*
G37*
G36*
X831193Y509778D02*
X1099392Y509778D01*
X1111986Y522372D01*
X1112222Y522532D01*
X1112518Y522595D01*
X1112816Y522537D01*
X1115706Y521340D01*
X1119494Y521340D01*
X1122993Y522789D01*
X1125671Y525467D01*
X1127120Y528966D01*
X1127120Y532754D01*
X1125671Y536253D01*
X1122993Y538931D01*
X1119494Y540380D01*
X1115706Y540380D01*
X1112207Y538931D01*
X1109529Y536253D01*
X1108080Y532754D01*
X1108080Y528966D01*
X1109277Y526076D01*
X1109335Y525797D01*
X1109280Y525499D01*
X1109112Y525246D01*
X1097932Y514065D01*
X1097690Y513902D01*
X1097393Y513842D01*
X833192Y513842D01*
X832906Y513898D01*
X832653Y514065D01*
X811287Y535432D01*
X634982Y535432D01*
X634696Y535488D01*
X634443Y535655D01*
X632803Y537295D01*
X629577Y537295D01*
X627295Y535013D01*
X627295Y531787D01*
X629577Y529505D01*
X632803Y529505D01*
X634443Y531145D01*
X634685Y531308D01*
X634982Y531368D01*
X809288Y531368D01*
X809574Y531312D01*
X809826Y531145D01*
X831193Y509778D01*
G37*
G36*
X423681Y497630D02*
X427219Y497630D01*
X429720Y500131D01*
X429720Y512169D01*
X427705Y514184D01*
X427542Y514425D01*
X427482Y514722D01*
X427482Y515192D01*
X410518Y532156D01*
X410355Y532397D01*
X410295Y532694D01*
X410295Y535013D01*
X408013Y537295D01*
X404787Y537295D01*
X402505Y535013D01*
X402505Y531787D01*
X404787Y529505D01*
X407106Y529505D01*
X407392Y529449D01*
X407645Y529282D01*
X422430Y514496D01*
X422588Y514266D01*
X422653Y513970D01*
X422598Y513672D01*
X422430Y513419D01*
X421180Y512169D01*
X421180Y500131D01*
X423681Y497630D01*
G37*
G36*
X436381Y497630D02*
X439919Y497630D01*
X442420Y500131D01*
X442420Y512169D01*
X440405Y514184D01*
X440242Y514425D01*
X440182Y514722D01*
X440182Y525893D01*
X440238Y526179D01*
X440405Y526432D01*
X445119Y531145D01*
X445360Y531308D01*
X445657Y531368D01*
X491508Y531368D01*
X491794Y531312D01*
X492047Y531145D01*
X493687Y529505D01*
X496913Y529505D01*
X499195Y531787D01*
X499195Y535013D01*
X496913Y537295D01*
X493687Y537295D01*
X492047Y535655D01*
X491805Y535492D01*
X491508Y535432D01*
X443658Y535432D01*
X436118Y527892D01*
X436118Y514722D01*
X436062Y514436D01*
X435895Y514184D01*
X433880Y512169D01*
X433880Y500131D01*
X436381Y497630D01*
G37*
G36*
X1495364Y498080D02*
X1501836Y498080D01*
X1507816Y500557D01*
X1512393Y505134D01*
X1514870Y511114D01*
X1514870Y517586D01*
X1512393Y523566D01*
X1507816Y528143D01*
X1501836Y530620D01*
X1495364Y530620D01*
X1489384Y528143D01*
X1484807Y523566D01*
X1482330Y517586D01*
X1482330Y511114D01*
X1484807Y505134D01*
X1489384Y500557D01*
X1495364Y498080D01*
G37*
G36*
X1080262Y520070D02*
X1088802Y520070D01*
X1090290Y521558D01*
X1090290Y530098D01*
X1080262Y530098D01*
X1080262Y520070D01*
G37*
G36*
X1070198Y520070D02*
X1078738Y520070D01*
X1078738Y530098D01*
X1068710Y530098D01*
X1068710Y521558D01*
X1070198Y520070D01*
G37*
G36*
X410981Y497630D02*
X414519Y497630D01*
X417020Y500131D01*
X417020Y512169D01*
X415005Y514184D01*
X414842Y514425D01*
X414782Y514722D01*
X414782Y515192D01*
X410518Y519456D01*
X410355Y519697D01*
X410295Y519994D01*
X410295Y522313D01*
X408013Y524595D01*
X404787Y524595D01*
X402505Y522313D01*
X402505Y519087D01*
X404787Y516805D01*
X407106Y516805D01*
X407392Y516749D01*
X407645Y516582D01*
X409730Y514496D01*
X409888Y514266D01*
X409953Y513970D01*
X409898Y513672D01*
X409730Y513419D01*
X408480Y512169D01*
X408480Y500131D01*
X410981Y497630D01*
G37*
G36*
X733041Y468268D02*
X740159Y468268D01*
X747034Y470110D01*
X753198Y473669D01*
X758231Y478702D01*
X761790Y484866D01*
X763632Y491741D01*
X763632Y498859D01*
X761790Y505734D01*
X758231Y511898D01*
X753198Y516931D01*
X747034Y520490D01*
X740159Y522332D01*
X733041Y522332D01*
X726166Y520490D01*
X720002Y516931D01*
X714969Y511898D01*
X711410Y505734D01*
X709568Y498859D01*
X709568Y491741D01*
X711410Y484866D01*
X714969Y478702D01*
X720002Y473669D01*
X726166Y470110D01*
X733041Y468268D01*
G37*
G36*
X544487Y489655D02*
X547713Y489655D01*
X549995Y491937D01*
X549995Y495163D01*
X548873Y496285D01*
X548720Y496505D01*
X548650Y496800D01*
X548701Y497099D01*
X548865Y497354D01*
X549115Y497526D01*
X549412Y497586D01*
X549420Y497586D01*
X550164Y498330D01*
X550164Y519194D01*
X549420Y519938D01*
X542780Y519938D01*
X542036Y519194D01*
X542036Y498330D01*
X542780Y497586D01*
X542788Y497586D01*
X543051Y497539D01*
X543309Y497380D01*
X543485Y497132D01*
X543550Y496836D01*
X543494Y496538D01*
X543327Y496285D01*
X542205Y495163D01*
X542205Y491937D01*
X544487Y489655D01*
G37*
G36*
X569887Y489627D02*
X573113Y489627D01*
X575395Y491909D01*
X575395Y495135D01*
X574245Y496285D01*
X574092Y496505D01*
X574022Y496800D01*
X574073Y497099D01*
X574237Y497354D01*
X574487Y497526D01*
X574784Y497586D01*
X574820Y497586D01*
X575564Y498330D01*
X575564Y519194D01*
X574820Y519938D01*
X568180Y519938D01*
X567436Y519194D01*
X567436Y498330D01*
X568180Y497586D01*
X568216Y497586D01*
X568479Y497539D01*
X568737Y497380D01*
X568913Y497132D01*
X568978Y496836D01*
X568922Y496538D01*
X568755Y496285D01*
X567605Y495135D01*
X567605Y491909D01*
X569887Y489627D01*
G37*
G36*
X607987Y489655D02*
X611213Y489655D01*
X613495Y491937D01*
X613495Y495163D01*
X612373Y496285D01*
X612220Y496505D01*
X612150Y496800D01*
X612201Y497099D01*
X612365Y497354D01*
X612615Y497526D01*
X612912Y497586D01*
X612920Y497586D01*
X613664Y498330D01*
X613664Y519194D01*
X612920Y519938D01*
X606280Y519938D01*
X605536Y519194D01*
X605536Y498330D01*
X606280Y497586D01*
X606288Y497586D01*
X606551Y497539D01*
X606809Y497380D01*
X606985Y497132D01*
X607050Y496836D01*
X606994Y496538D01*
X606827Y496285D01*
X605705Y495163D01*
X605705Y491937D01*
X607987Y489655D01*
G37*
G36*
X449081Y497630D02*
X452619Y497630D01*
X455120Y500131D01*
X455120Y512169D01*
X452619Y514670D01*
X449081Y514670D01*
X446580Y512169D01*
X446580Y500131D01*
X449081Y497630D01*
G37*
G36*
X474481Y497630D02*
X478019Y497630D01*
X480520Y500131D01*
X480520Y512169D01*
X478019Y514670D01*
X474481Y514670D01*
X471980Y512169D01*
X471980Y500131D01*
X474481Y497630D01*
G37*
G36*
X487181Y497630D02*
X490719Y497630D01*
X493220Y500131D01*
X493220Y512169D01*
X490719Y514670D01*
X487181Y514670D01*
X484680Y512169D01*
X484680Y500131D01*
X487181Y497630D01*
G37*
G36*
X461781Y497630D02*
X465319Y497630D01*
X467820Y500131D01*
X467820Y512169D01*
X465319Y514670D01*
X461781Y514670D01*
X459280Y512169D01*
X459280Y500131D01*
X461781Y497630D01*
G37*
G36*
X1224710Y496062D02*
X1237488Y496062D01*
X1237488Y504190D01*
X1226198Y504190D01*
X1224710Y502702D01*
X1224710Y496062D01*
G37*
G36*
X1239012Y496062D02*
X1251790Y496062D01*
X1251790Y502702D01*
X1250302Y504190D01*
X1239012Y504190D01*
X1239012Y496062D01*
G37*
G36*
X1239012Y486410D02*
X1250302Y486410D01*
X1251790Y487898D01*
X1251790Y494538D01*
X1239012Y494538D01*
X1239012Y486410D01*
G37*
G36*
X1226198Y486410D02*
X1237488Y486410D01*
X1237488Y494538D01*
X1224710Y494538D01*
X1224710Y487898D01*
X1226198Y486410D01*
G37*
G36*
X1116094Y457890D02*
X1119106Y457890D01*
X1121888Y459042D01*
X1124018Y461172D01*
X1125170Y463954D01*
X1125170Y466966D01*
X1124018Y469748D01*
X1121888Y471878D01*
X1119106Y473030D01*
X1116094Y473030D01*
X1113312Y471878D01*
X1111182Y469748D01*
X1110030Y466966D01*
X1110030Y463954D01*
X1111182Y461172D01*
X1113312Y459042D01*
X1116094Y457890D01*
G37*
G36*
X887494Y457890D02*
X890506Y457890D01*
X893288Y459042D01*
X895418Y461172D01*
X896570Y463954D01*
X896570Y466966D01*
X895418Y469748D01*
X893288Y471878D01*
X890506Y473030D01*
X887494Y473030D01*
X884712Y471878D01*
X882582Y469748D01*
X881430Y466966D01*
X881430Y463954D01*
X882582Y461172D01*
X884712Y459042D01*
X887494Y457890D01*
G37*
G36*
X938294Y457890D02*
X941306Y457890D01*
X944088Y459042D01*
X946218Y461172D01*
X947370Y463954D01*
X947370Y466966D01*
X946218Y469748D01*
X944088Y471878D01*
X941306Y473030D01*
X938294Y473030D01*
X935512Y471878D01*
X933382Y469748D01*
X932230Y466966D01*
X932230Y463954D01*
X933382Y461172D01*
X935512Y459042D01*
X938294Y457890D01*
G37*
G36*
X1052594Y457890D02*
X1055606Y457890D01*
X1058388Y459042D01*
X1060518Y461172D01*
X1061670Y463954D01*
X1061670Y466966D01*
X1060518Y469748D01*
X1058388Y471878D01*
X1055606Y473030D01*
X1052594Y473030D01*
X1049812Y471878D01*
X1047682Y469748D01*
X1046530Y466966D01*
X1046530Y463954D01*
X1047682Y461172D01*
X1049812Y459042D01*
X1052594Y457890D01*
G37*
G36*
X1001794Y457890D02*
X1004806Y457890D01*
X1007588Y459042D01*
X1009718Y461172D01*
X1010870Y463954D01*
X1010870Y466966D01*
X1009718Y469748D01*
X1007588Y471878D01*
X1004806Y473030D01*
X1001794Y473030D01*
X999012Y471878D01*
X996882Y469748D01*
X995730Y466966D01*
X995730Y463954D01*
X996882Y461172D01*
X999012Y459042D01*
X1001794Y457890D01*
G37*
G36*
X1527614Y449080D02*
X1543666Y449080D01*
X1544410Y449824D01*
X1544410Y470876D01*
X1543666Y471620D01*
X1527614Y471620D01*
X1526870Y470876D01*
X1526870Y449824D01*
X1527614Y449080D01*
G37*
G36*
X1561614Y449080D02*
X1577666Y449080D01*
X1578410Y449824D01*
X1578410Y470876D01*
X1577666Y471620D01*
X1561614Y471620D01*
X1560870Y470876D01*
X1560870Y449824D01*
X1561614Y449080D01*
G37*
G36*
X1472614Y449080D02*
X1488666Y449080D01*
X1489410Y449824D01*
X1489410Y470876D01*
X1488666Y471620D01*
X1472614Y471620D01*
X1471870Y470876D01*
X1471870Y449824D01*
X1472614Y449080D01*
G37*
G36*
X534162Y457200D02*
X538734Y457200D01*
X538734Y467396D01*
X537246Y468884D01*
X534162Y468884D01*
X534162Y457200D01*
G37*
G36*
X528066Y457200D02*
X532638Y457200D01*
X532638Y468884D01*
X529554Y468884D01*
X528066Y467396D01*
X528066Y457200D01*
G37*
G36*
X326641Y404768D02*
X333759Y404768D01*
X340634Y406610D01*
X346798Y410169D01*
X351831Y415202D01*
X355390Y421366D01*
X357232Y428241D01*
X357232Y435359D01*
X355390Y442234D01*
X351831Y448398D01*
X346798Y453431D01*
X340634Y456990D01*
X333759Y458832D01*
X326641Y458832D01*
X319766Y456990D01*
X313602Y453431D01*
X308569Y448398D01*
X305010Y442234D01*
X303168Y435359D01*
X303168Y428241D01*
X305010Y421366D01*
X308569Y415202D01*
X313602Y410169D01*
X319766Y406610D01*
X326641Y404768D01*
G37*
G36*
X1228341Y404768D02*
X1235459Y404768D01*
X1242334Y406610D01*
X1248498Y410169D01*
X1253531Y415202D01*
X1257090Y421366D01*
X1258932Y428241D01*
X1258932Y435359D01*
X1257090Y442234D01*
X1253531Y448398D01*
X1248498Y453431D01*
X1242334Y456990D01*
X1235459Y458832D01*
X1228341Y458832D01*
X1221466Y456990D01*
X1215302Y453431D01*
X1210269Y448398D01*
X1206710Y442234D01*
X1204868Y435359D01*
X1204868Y428241D01*
X1206710Y421366D01*
X1210269Y415202D01*
X1215302Y410169D01*
X1221466Y406610D01*
X1228341Y404768D01*
G37*
G36*
X534162Y443992D02*
X537246Y443992D01*
X538734Y445480D01*
X538734Y455676D01*
X534162Y455676D01*
X534162Y443992D01*
G37*
G36*
X529554Y443992D02*
X532638Y443992D01*
X532638Y455676D01*
X528066Y455676D01*
X528066Y445480D01*
X529554Y443992D01*
G37*
G36*
X-8244Y428630D02*
X-4456Y428630D01*
X-957Y430079D01*
X1721Y432757D01*
X3170Y436256D01*
X3170Y440044D01*
X1721Y443543D01*
X-957Y446221D01*
X-4456Y447670D01*
X-8244Y447670D01*
X-11743Y446221D01*
X-14421Y443543D01*
X-15870Y440044D01*
X-15870Y436256D01*
X-14421Y432757D01*
X-11743Y430079D01*
X-8244Y428630D01*
G37*
G36*
X1563844Y415918D02*
X1567636Y415918D01*
X1571139Y417369D01*
X1573821Y420051D01*
X1575272Y423554D01*
X1575272Y427346D01*
X1573821Y430849D01*
X1571139Y433531D01*
X1567636Y434982D01*
X1563844Y434982D01*
X1560341Y433531D01*
X1557659Y430849D01*
X1556208Y427346D01*
X1556208Y423554D01*
X1557659Y420051D01*
X1560341Y417369D01*
X1563844Y415918D01*
G37*
G36*
X1493844Y415918D02*
X1497636Y415918D01*
X1501139Y417369D01*
X1503821Y420051D01*
X1505272Y423554D01*
X1505272Y427346D01*
X1503821Y430849D01*
X1501139Y433531D01*
X1497636Y434982D01*
X1493844Y434982D01*
X1490341Y433531D01*
X1487659Y430849D01*
X1486208Y427346D01*
X1486208Y423554D01*
X1487659Y420051D01*
X1490341Y417369D01*
X1493844Y415918D01*
G37*
G36*
X373037Y370755D02*
X376263Y370755D01*
X378545Y373037D01*
X378545Y375158D01*
X378596Y375433D01*
X378760Y375688D01*
X379010Y375860D01*
X379307Y375920D01*
X522042Y375920D01*
X541905Y395783D01*
X542136Y395941D01*
X542432Y396006D01*
X542540Y395986D01*
X549420Y395986D01*
X550164Y396730D01*
X550164Y417594D01*
X549420Y418338D01*
X548894Y418338D01*
X548619Y418389D01*
X548364Y418553D01*
X548192Y418803D01*
X548132Y419100D01*
X548132Y419118D01*
X548188Y419404D01*
X548355Y419657D01*
X549995Y421297D01*
X549995Y424523D01*
X547713Y426805D01*
X544487Y426805D01*
X542205Y424523D01*
X542205Y421297D01*
X543845Y419657D01*
X544008Y419415D01*
X544068Y419118D01*
X544068Y419100D01*
X544017Y418825D01*
X543853Y418570D01*
X543603Y418398D01*
X543306Y418338D01*
X542780Y418338D01*
X542036Y417594D01*
X542036Y401977D01*
X541980Y401691D01*
X541813Y401438D01*
X538765Y398390D01*
X538545Y398237D01*
X538250Y398167D01*
X537951Y398218D01*
X537696Y398381D01*
X537524Y398632D01*
X537464Y398929D01*
X537464Y417594D01*
X536720Y418338D01*
X536194Y418338D01*
X535919Y418389D01*
X535664Y418553D01*
X535492Y418803D01*
X535432Y419100D01*
X535432Y419118D01*
X535488Y419404D01*
X535655Y419657D01*
X537295Y421297D01*
X537295Y424523D01*
X535013Y426805D01*
X531787Y426805D01*
X529505Y424523D01*
X529505Y421297D01*
X531145Y419657D01*
X531308Y419415D01*
X531368Y419118D01*
X531368Y419100D01*
X531317Y418825D01*
X531153Y418570D01*
X530903Y418398D01*
X530606Y418338D01*
X530080Y418338D01*
X529336Y417594D01*
X529336Y396730D01*
X530080Y395986D01*
X530211Y395986D01*
X530474Y395939D01*
X530732Y395780D01*
X530908Y395532D01*
X530973Y395236D01*
X530917Y394938D01*
X530750Y394685D01*
X519701Y383636D01*
X519459Y383473D01*
X519162Y383413D01*
X270111Y383413D01*
X269825Y383469D01*
X269572Y383636D01*
X268313Y384895D01*
X265087Y384895D01*
X262805Y382613D01*
X262805Y379387D01*
X265087Y377105D01*
X268313Y377105D01*
X270334Y379126D01*
X270576Y379289D01*
X270873Y379349D01*
X372001Y379349D01*
X372264Y379302D01*
X372522Y379143D01*
X372698Y378895D01*
X372763Y378599D01*
X372707Y378301D01*
X372540Y378048D01*
X370755Y376263D01*
X370755Y373037D01*
X373037Y370755D01*
G37*
G36*
X19812Y413512D02*
X29840Y413512D01*
X29840Y414896D01*
X28197Y418862D01*
X25162Y421897D01*
X21196Y423540D01*
X19812Y423540D01*
X19812Y413512D01*
G37*
G36*
X8260Y413512D02*
X18288Y413512D01*
X18288Y423540D01*
X16904Y423540D01*
X12938Y421897D01*
X9903Y418862D01*
X8260Y414896D01*
X8260Y413512D01*
G37*
G36*
X-8244Y403230D02*
X-4456Y403230D01*
X-957Y404679D01*
X1721Y407357D01*
X3170Y410856D01*
X3170Y414644D01*
X1721Y418143D01*
X-957Y420821D01*
X-4456Y422270D01*
X-8244Y422270D01*
X-11743Y420821D01*
X-14421Y418143D01*
X-15870Y414644D01*
X-15870Y410856D01*
X-14421Y407357D01*
X-11743Y404679D01*
X-8244Y403230D01*
G37*
G36*
X607987Y388055D02*
X611213Y388055D01*
X613495Y390337D01*
X613495Y393563D01*
X612373Y394685D01*
X612220Y394905D01*
X612150Y395200D01*
X612201Y395499D01*
X612365Y395754D01*
X612615Y395926D01*
X612912Y395986D01*
X612920Y395986D01*
X613664Y396730D01*
X613664Y417594D01*
X612920Y418338D01*
X606280Y418338D01*
X605536Y417594D01*
X605536Y396730D01*
X606280Y395986D01*
X606288Y395986D01*
X606551Y395939D01*
X606809Y395780D01*
X606985Y395532D01*
X607050Y395236D01*
X606994Y394938D01*
X606827Y394685D01*
X605705Y393563D01*
X605705Y390337D01*
X607987Y388055D01*
G37*
G36*
X500037Y388099D02*
X503263Y388099D01*
X505545Y390381D01*
X505545Y393607D01*
X503905Y395247D01*
X503742Y395489D01*
X503682Y395786D01*
X503682Y395978D01*
X503738Y396264D01*
X503905Y396517D01*
X505920Y398531D01*
X505920Y410569D01*
X503419Y413070D01*
X499881Y413070D01*
X497380Y410569D01*
X497380Y398531D01*
X499395Y396517D01*
X499558Y396275D01*
X499618Y395978D01*
X499618Y395786D01*
X499562Y395500D01*
X499395Y395247D01*
X497755Y393607D01*
X497755Y390381D01*
X500037Y388099D01*
G37*
G36*
X19812Y401960D02*
X21196Y401960D01*
X25162Y403603D01*
X28197Y406638D01*
X29840Y410604D01*
X29840Y411988D01*
X19812Y411988D01*
X19812Y401960D01*
G37*
G36*
X16904Y401960D02*
X18288Y401960D01*
X18288Y411988D01*
X8260Y411988D01*
X8260Y410604D01*
X9903Y406638D01*
X12938Y403603D01*
X16904Y401960D01*
G37*
G36*
X1052594Y385490D02*
X1055606Y385490D01*
X1058388Y386642D01*
X1060518Y388772D01*
X1061670Y391554D01*
X1061670Y394566D01*
X1060518Y397348D01*
X1058388Y399478D01*
X1055606Y400630D01*
X1052594Y400630D01*
X1049812Y399478D01*
X1047682Y397348D01*
X1046530Y394566D01*
X1046530Y391554D01*
X1047682Y388772D01*
X1049812Y386642D01*
X1052594Y385490D01*
G37*
G36*
X1116094Y385490D02*
X1119106Y385490D01*
X1121888Y386642D01*
X1124018Y388772D01*
X1125170Y391554D01*
X1125170Y394566D01*
X1124018Y397348D01*
X1121888Y399478D01*
X1119106Y400630D01*
X1116094Y400630D01*
X1113312Y399478D01*
X1111182Y397348D01*
X1110030Y394566D01*
X1110030Y391554D01*
X1111182Y388772D01*
X1113312Y386642D01*
X1116094Y385490D01*
G37*
G36*
X938294Y385490D02*
X941306Y385490D01*
X944088Y386642D01*
X946218Y388772D01*
X947370Y391554D01*
X947370Y394566D01*
X946218Y397348D01*
X944088Y399478D01*
X941306Y400630D01*
X938294Y400630D01*
X935512Y399478D01*
X933382Y397348D01*
X932230Y394566D01*
X932230Y391554D01*
X933382Y388772D01*
X935512Y386642D01*
X938294Y385490D01*
G37*
G36*
X-8244Y377830D02*
X-4456Y377830D01*
X-957Y379279D01*
X1721Y381957D01*
X3170Y385456D01*
X3170Y389244D01*
X1721Y392743D01*
X-957Y395421D01*
X-4456Y396870D01*
X-8244Y396870D01*
X-11743Y395421D01*
X-14421Y392743D01*
X-15870Y389244D01*
X-15870Y385456D01*
X-14421Y381957D01*
X-11743Y379279D01*
X-8244Y377830D01*
G37*
G36*
X169264Y218980D02*
X175736Y218980D01*
X181716Y221457D01*
X186293Y226034D01*
X188770Y232014D01*
X188770Y238486D01*
X186293Y244466D01*
X181716Y249043D01*
X175736Y251520D01*
X169264Y251520D01*
X163284Y249043D01*
X158707Y244466D01*
X156230Y238486D01*
X156230Y232014D01*
X158707Y226034D01*
X163284Y221457D01*
X169264Y218980D01*
G37*
G36*
X535464Y218980D02*
X541936Y218980D01*
X547916Y221457D01*
X552493Y226034D01*
X554970Y232014D01*
X554970Y238486D01*
X552493Y244466D01*
X547916Y249043D01*
X541936Y251520D01*
X535464Y251520D01*
X529484Y249043D01*
X524907Y244466D01*
X522430Y238486D01*
X522430Y232014D01*
X524907Y226034D01*
X529484Y221457D01*
X535464Y218980D01*
G37*
G36*
X-33936Y218980D02*
X-27464Y218980D01*
X-21484Y221457D01*
X-16907Y226034D01*
X-14430Y232014D01*
X-14430Y238486D01*
X-16907Y244466D01*
X-21484Y249043D01*
X-27464Y251520D01*
X-33936Y251520D01*
X-39916Y249043D01*
X-44493Y244466D01*
X-46970Y238486D01*
X-46970Y232014D01*
X-44493Y226034D01*
X-39916Y221457D01*
X-33936Y218980D01*
G37*
G36*
X575664Y218980D02*
X582136Y218980D01*
X588116Y221457D01*
X592693Y226034D01*
X595170Y232014D01*
X595170Y238486D01*
X592693Y244466D01*
X588116Y249043D01*
X582136Y251520D01*
X575664Y251520D01*
X569684Y249043D01*
X565107Y244466D01*
X562630Y238486D01*
X562630Y232014D01*
X565107Y226034D01*
X569684Y221457D01*
X575664Y218980D01*
G37*
G36*
X778864Y218980D02*
X785336Y218980D01*
X791316Y221457D01*
X795893Y226034D01*
X798370Y232014D01*
X798370Y238486D01*
X795893Y244466D01*
X791316Y249043D01*
X785336Y251520D01*
X778864Y251520D01*
X772884Y249043D01*
X768307Y244466D01*
X765830Y238486D01*
X765830Y232014D01*
X768307Y226034D01*
X772884Y221457D01*
X778864Y218980D01*
G37*
G36*
X1551464Y218980D02*
X1557936Y218980D01*
X1563916Y221457D01*
X1568493Y226034D01*
X1570970Y232014D01*
X1570970Y238486D01*
X1568493Y244466D01*
X1563916Y249043D01*
X1557936Y251520D01*
X1551464Y251520D01*
X1545484Y249043D01*
X1540907Y244466D01*
X1538430Y238486D01*
X1538430Y232014D01*
X1540907Y226034D01*
X1545484Y221457D01*
X1551464Y218980D01*
G37*
G36*
X941864Y218980D02*
X948336Y218980D01*
X954316Y221457D01*
X958893Y226034D01*
X961370Y232014D01*
X961370Y238486D01*
X958893Y244466D01*
X954316Y249043D01*
X948336Y251520D01*
X941864Y251520D01*
X935884Y249043D01*
X931307Y244466D01*
X928830Y238486D01*
X928830Y232014D01*
X931307Y226034D01*
X935884Y221457D01*
X941864Y218980D01*
G37*
G36*
X129064Y218980D02*
X135536Y218980D01*
X141516Y221457D01*
X146093Y226034D01*
X148570Y232014D01*
X148570Y238486D01*
X146093Y244466D01*
X141516Y249043D01*
X135536Y251520D01*
X129064Y251520D01*
X123084Y249043D01*
X118507Y244466D01*
X116030Y238486D01*
X116030Y232014D01*
X118507Y226034D01*
X123084Y221457D01*
X129064Y218980D01*
G37*
G36*
X1348264Y218980D02*
X1354736Y218980D01*
X1360716Y221457D01*
X1365293Y226034D01*
X1367770Y232014D01*
X1367770Y238486D01*
X1365293Y244466D01*
X1360716Y249043D01*
X1354736Y251520D01*
X1348264Y251520D01*
X1342284Y249043D01*
X1337707Y244466D01*
X1335230Y238486D01*
X1335230Y232014D01*
X1337707Y226034D01*
X1342284Y221457D01*
X1348264Y218980D01*
G37*
G36*
X982064Y218980D02*
X988536Y218980D01*
X994516Y221457D01*
X999093Y226034D01*
X1001570Y232014D01*
X1001570Y238486D01*
X999093Y244466D01*
X994516Y249043D01*
X988536Y251520D01*
X982064Y251520D01*
X976084Y249043D01*
X971507Y244466D01*
X969030Y238486D01*
X969030Y232014D01*
X971507Y226034D01*
X976084Y221457D01*
X982064Y218980D01*
G37*
G36*
X1145064Y218980D02*
X1151536Y218980D01*
X1157516Y221457D01*
X1162093Y226034D01*
X1164570Y232014D01*
X1164570Y238486D01*
X1162093Y244466D01*
X1157516Y249043D01*
X1151536Y251520D01*
X1145064Y251520D01*
X1139084Y249043D01*
X1134507Y244466D01*
X1132030Y238486D01*
X1132030Y232014D01*
X1134507Y226034D01*
X1139084Y221457D01*
X1145064Y218980D01*
G37*
G36*
X372464Y218980D02*
X378936Y218980D01*
X384916Y221457D01*
X389493Y226034D01*
X391970Y232014D01*
X391970Y238486D01*
X389493Y244466D01*
X384916Y249043D01*
X378936Y251520D01*
X372464Y251520D01*
X366484Y249043D01*
X361907Y244466D01*
X359430Y238486D01*
X359430Y232014D01*
X361907Y226034D01*
X366484Y221457D01*
X372464Y218980D01*
G37*
G36*
X1388464Y218980D02*
X1394936Y218980D01*
X1400916Y221457D01*
X1405493Y226034D01*
X1407970Y232014D01*
X1407970Y238486D01*
X1405493Y244466D01*
X1400916Y249043D01*
X1394936Y251520D01*
X1388464Y251520D01*
X1382484Y249043D01*
X1377907Y244466D01*
X1375430Y238486D01*
X1375430Y232014D01*
X1377907Y226034D01*
X1382484Y221457D01*
X1388464Y218980D01*
G37*
G36*
X738664Y218980D02*
X745136Y218980D01*
X751116Y221457D01*
X755693Y226034D01*
X758170Y232014D01*
X758170Y238486D01*
X755693Y244466D01*
X751116Y249043D01*
X745136Y251520D01*
X738664Y251520D01*
X732684Y249043D01*
X728107Y244466D01*
X725630Y238486D01*
X725630Y232014D01*
X728107Y226034D01*
X732684Y221457D01*
X738664Y218980D01*
G37*
G36*
X332264Y218980D02*
X338736Y218980D01*
X344716Y221457D01*
X349293Y226034D01*
X351770Y232014D01*
X351770Y238486D01*
X349293Y244466D01*
X344716Y249043D01*
X338736Y251520D01*
X332264Y251520D01*
X326284Y249043D01*
X321707Y244466D01*
X319230Y238486D01*
X319230Y232014D01*
X321707Y226034D01*
X326284Y221457D01*
X332264Y218980D01*
G37*
G36*
X1185264Y218980D02*
X1191736Y218980D01*
X1197716Y221457D01*
X1202293Y226034D01*
X1204770Y232014D01*
X1204770Y238486D01*
X1202293Y244466D01*
X1197716Y249043D01*
X1191736Y251520D01*
X1185264Y251520D01*
X1179284Y249043D01*
X1174707Y244466D01*
X1172230Y238486D01*
X1172230Y232014D01*
X1174707Y226034D01*
X1179284Y221457D01*
X1185264Y218980D01*
G37*
G36*
X313913Y182628D02*
X321087Y182628D01*
X327714Y185373D01*
X332787Y190446D01*
X335532Y197073D01*
X335532Y204247D01*
X332787Y210874D01*
X327714Y215947D01*
X321087Y218692D01*
X313913Y218692D01*
X307286Y215947D01*
X302213Y210874D01*
X299468Y204247D01*
X299468Y197073D01*
X302213Y190446D01*
X307286Y185373D01*
X313913Y182628D01*
G37*
G36*
X110713Y182628D02*
X117887Y182628D01*
X124514Y185373D01*
X129587Y190446D01*
X132332Y197073D01*
X132332Y204247D01*
X129587Y210874D01*
X124514Y215947D01*
X117887Y218692D01*
X110713Y218692D01*
X104086Y215947D01*
X99013Y210874D01*
X96268Y204247D01*
X96268Y197073D01*
X99013Y190446D01*
X104086Y185373D01*
X110713Y182628D01*
G37*
G36*
X-16287Y182628D02*
X-9113Y182628D01*
X-2486Y185373D01*
X2587Y190446D01*
X5332Y197073D01*
X5332Y204247D01*
X2587Y210874D01*
X-2486Y215947D01*
X-9113Y218692D01*
X-16287Y218692D01*
X-22914Y215947D01*
X-27987Y210874D01*
X-30732Y204247D01*
X-30732Y197073D01*
X-27987Y190446D01*
X-22914Y185373D01*
X-16287Y182628D01*
G37*
G36*
X390113Y182628D02*
X397287Y182628D01*
X403914Y185373D01*
X408987Y190446D01*
X411732Y197073D01*
X411732Y204247D01*
X408987Y210874D01*
X403914Y215947D01*
X397287Y218692D01*
X390113Y218692D01*
X383486Y215947D01*
X378413Y210874D01*
X375668Y204247D01*
X375668Y197073D01*
X378413Y190446D01*
X383486Y185373D01*
X390113Y182628D01*
G37*
G36*
X517113Y182628D02*
X524287Y182628D01*
X530914Y185373D01*
X535987Y190446D01*
X538732Y197073D01*
X538732Y204247D01*
X535987Y210874D01*
X530914Y215947D01*
X524287Y218692D01*
X517113Y218692D01*
X510486Y215947D01*
X505413Y210874D01*
X502668Y204247D01*
X502668Y197073D01*
X505413Y190446D01*
X510486Y185373D01*
X517113Y182628D01*
G37*
G36*
X593313Y182628D02*
X600487Y182628D01*
X607114Y185373D01*
X612187Y190446D01*
X614932Y197073D01*
X614932Y204247D01*
X612187Y210874D01*
X607114Y215947D01*
X600487Y218692D01*
X593313Y218692D01*
X586686Y215947D01*
X581613Y210874D01*
X578868Y204247D01*
X578868Y197073D01*
X581613Y190446D01*
X586686Y185373D01*
X593313Y182628D01*
G37*
G36*
X720313Y182628D02*
X727487Y182628D01*
X734114Y185373D01*
X739187Y190446D01*
X741932Y197073D01*
X741932Y204247D01*
X739187Y210874D01*
X734114Y215947D01*
X727487Y218692D01*
X720313Y218692D01*
X713686Y215947D01*
X708613Y210874D01*
X705868Y204247D01*
X705868Y197073D01*
X708613Y190446D01*
X713686Y185373D01*
X720313Y182628D01*
G37*
G36*
X796513Y182628D02*
X803687Y182628D01*
X810314Y185373D01*
X815387Y190446D01*
X818132Y197073D01*
X818132Y204247D01*
X815387Y210874D01*
X810314Y215947D01*
X803687Y218692D01*
X796513Y218692D01*
X789886Y215947D01*
X784813Y210874D01*
X782068Y204247D01*
X782068Y197073D01*
X784813Y190446D01*
X789886Y185373D01*
X796513Y182628D01*
G37*
G36*
X923513Y182628D02*
X930687Y182628D01*
X937314Y185373D01*
X942387Y190446D01*
X945132Y197073D01*
X945132Y204247D01*
X942387Y210874D01*
X937314Y215947D01*
X930687Y218692D01*
X923513Y218692D01*
X916886Y215947D01*
X911813Y210874D01*
X909068Y204247D01*
X909068Y197073D01*
X911813Y190446D01*
X916886Y185373D01*
X923513Y182628D01*
G37*
G36*
X999713Y182628D02*
X1006887Y182628D01*
X1013514Y185373D01*
X1018587Y190446D01*
X1021332Y197073D01*
X1021332Y204247D01*
X1018587Y210874D01*
X1013514Y215947D01*
X1006887Y218692D01*
X999713Y218692D01*
X993086Y215947D01*
X988013Y210874D01*
X985268Y204247D01*
X985268Y197073D01*
X988013Y190446D01*
X993086Y185373D01*
X999713Y182628D01*
G37*
G36*
X1126713Y182628D02*
X1133887Y182628D01*
X1140514Y185373D01*
X1145587Y190446D01*
X1148332Y197073D01*
X1148332Y204247D01*
X1145587Y210874D01*
X1140514Y215947D01*
X1133887Y218692D01*
X1126713Y218692D01*
X1120086Y215947D01*
X1115013Y210874D01*
X1112268Y204247D01*
X1112268Y197073D01*
X1115013Y190446D01*
X1120086Y185373D01*
X1126713Y182628D01*
G37*
G36*
X1202913Y182628D02*
X1210087Y182628D01*
X1216714Y185373D01*
X1221787Y190446D01*
X1224532Y197073D01*
X1224532Y204247D01*
X1221787Y210874D01*
X1216714Y215947D01*
X1210087Y218692D01*
X1202913Y218692D01*
X1196286Y215947D01*
X1191213Y210874D01*
X1188468Y204247D01*
X1188468Y197073D01*
X1191213Y190446D01*
X1196286Y185373D01*
X1202913Y182628D01*
G37*
G36*
X1329913Y182628D02*
X1337087Y182628D01*
X1343714Y185373D01*
X1348787Y190446D01*
X1351532Y197073D01*
X1351532Y204247D01*
X1348787Y210874D01*
X1343714Y215947D01*
X1337087Y218692D01*
X1329913Y218692D01*
X1323286Y215947D01*
X1318213Y210874D01*
X1315468Y204247D01*
X1315468Y197073D01*
X1318213Y190446D01*
X1323286Y185373D01*
X1329913Y182628D01*
G37*
G36*
X1406113Y182628D02*
X1413287Y182628D01*
X1419914Y185373D01*
X1424987Y190446D01*
X1427732Y197073D01*
X1427732Y204247D01*
X1424987Y210874D01*
X1419914Y215947D01*
X1413287Y218692D01*
X1406113Y218692D01*
X1399486Y215947D01*
X1394413Y210874D01*
X1391668Y204247D01*
X1391668Y197073D01*
X1394413Y190446D01*
X1399486Y185373D01*
X1406113Y182628D01*
G37*
G36*
X1533113Y182628D02*
X1540287Y182628D01*
X1546914Y185373D01*
X1551987Y190446D01*
X1554732Y197073D01*
X1554732Y204247D01*
X1551987Y210874D01*
X1546914Y215947D01*
X1540287Y218692D01*
X1533113Y218692D01*
X1526486Y215947D01*
X1521413Y210874D01*
X1518668Y204247D01*
X1518668Y197073D01*
X1521413Y190446D01*
X1526486Y185373D01*
X1533113Y182628D01*
G37*
G36*
X186913Y182628D02*
X194087Y182628D01*
X200714Y185373D01*
X205787Y190446D01*
X208532Y197073D01*
X208532Y204247D01*
X205787Y210874D01*
X200714Y215947D01*
X194087Y218692D01*
X186913Y218692D01*
X180286Y215947D01*
X175213Y210874D01*
X172468Y204247D01*
X172468Y197073D01*
X175213Y190446D01*
X180286Y185373D01*
X186913Y182628D01*
G37*
%LPD*%
D10*
X849375Y812800D02*
X865125Y812800D01*
X865125Y787400D02*
X849375Y787400D01*
X849375Y762000D02*
X865125Y762000D01*
X865125Y736600D02*
X849375Y736600D01*
X849375Y711200D02*
X865125Y711200D01*
X865125Y685800D02*
X849375Y685800D01*
X849375Y660400D02*
X865125Y660400D01*
X865125Y635000D02*
X849375Y635000D01*
X976375Y812800D02*
X992125Y812800D01*
X992125Y787400D02*
X976375Y787400D01*
X976375Y762000D02*
X992125Y762000D01*
X992125Y736600D02*
X976375Y736600D01*
X976375Y711200D02*
X992125Y711200D01*
X992125Y685800D02*
X976375Y685800D01*
X976375Y660400D02*
X992125Y660400D01*
X992125Y635000D02*
X976375Y635000D01*
D11*
X1060450Y685800D03*
X1060450Y710800D03*
X1060450Y735800D03*
X1060450Y760800D03*
D12*
X12700Y660400D03*
D13*
X12700Y685800D03*
X38100Y660400D03*
X38100Y685800D03*
X63500Y660400D03*
X63500Y685800D03*
X88900Y660400D03*
X88900Y685800D03*
X114300Y660400D03*
X114300Y685800D03*
X139700Y660400D03*
X139700Y685800D03*
X165100Y660400D03*
X165100Y685800D03*
X190500Y660400D03*
X190500Y685800D03*
D12*
X12700Y546100D03*
D13*
X12700Y571500D03*
X38100Y546100D03*
X38100Y571500D03*
X63500Y546100D03*
X63500Y571500D03*
X88900Y546100D03*
X88900Y571500D03*
X114300Y546100D03*
X114300Y571500D03*
X139700Y546100D03*
X139700Y571500D03*
X165100Y546100D03*
X165100Y571500D03*
X190500Y546100D03*
X190500Y571500D03*
D12*
X12700Y887082D03*
D13*
X12700Y912482D03*
X38100Y887082D03*
X38100Y912482D03*
X63500Y887082D03*
X63500Y912482D03*
X88900Y887082D03*
X88900Y912482D03*
X114300Y887082D03*
X114300Y912482D03*
X139700Y887082D03*
X139700Y912482D03*
X165100Y887082D03*
X165100Y912482D03*
X190500Y887082D03*
X190500Y912482D03*
D12*
X12700Y772202D03*
D13*
X12700Y797602D03*
X38100Y772202D03*
X38100Y797602D03*
X63500Y772202D03*
X63500Y797602D03*
X88900Y772202D03*
X88900Y797602D03*
X114300Y772202D03*
X114300Y797602D03*
X139700Y772202D03*
X139700Y797602D03*
X165100Y772202D03*
X165100Y797602D03*
X190500Y772202D03*
X190500Y797602D03*
D14*
X1447800Y565150D03*
D15*
X1447800Y590550D03*
D16*
X1498600Y514350D03*
X1498600Y615950D03*
D11*
X889000Y393060D03*
X889000Y465460D03*
X1003300Y393060D03*
X1003300Y465460D03*
X939800Y393060D03*
X939800Y465460D03*
X1054100Y393060D03*
X1054100Y465460D03*
X1117600Y393060D03*
X1117600Y465460D03*
D14*
X1447800Y755650D03*
D15*
X1447800Y781050D03*
D16*
X1498600Y704850D03*
X1498600Y806450D03*
D17*
X-6350Y387350D03*
X19050Y387350D03*
X-6350Y412750D03*
X19050Y412750D03*
X-6350Y438150D03*
X19050Y438150D03*
D18*
X412750Y408800D02*
X412750Y400300D01*
X425450Y400300D02*
X425450Y408800D01*
X438150Y408800D02*
X438150Y400300D01*
X450850Y400300D02*
X450850Y408800D01*
X463550Y408800D02*
X463550Y400300D01*
X476250Y400300D02*
X476250Y408800D01*
X488950Y408800D02*
X488950Y400300D01*
X501650Y400300D02*
X501650Y408800D01*
X501650Y454800D02*
X501650Y463300D01*
X488950Y463300D02*
X488950Y454800D01*
X476250Y454800D02*
X476250Y463300D01*
X463550Y463300D02*
X463550Y454800D01*
X450850Y454800D02*
X450850Y463300D01*
X438150Y463300D02*
X438150Y454800D01*
X425450Y454800D02*
X425450Y463300D01*
X412750Y463300D02*
X412750Y454800D01*
X412750Y501900D02*
X412750Y510400D01*
X425450Y510400D02*
X425450Y501900D01*
X438150Y501900D02*
X438150Y510400D01*
X450850Y510400D02*
X450850Y501900D01*
X463550Y501900D02*
X463550Y510400D01*
X476250Y510400D02*
X476250Y501900D01*
X488950Y501900D02*
X488950Y510400D01*
X501650Y510400D02*
X501650Y501900D01*
X501650Y556400D02*
X501650Y564900D01*
X488950Y564900D02*
X488950Y556400D01*
X476250Y556400D02*
X476250Y564900D01*
X463550Y564900D02*
X463550Y556400D01*
X450850Y556400D02*
X450850Y564900D01*
X438150Y564900D02*
X438150Y556400D01*
X425450Y556400D02*
X425450Y564900D01*
X412750Y564900D02*
X412750Y556400D01*
D19*
X533400Y407162D03*
X546100Y407162D03*
X558800Y407162D03*
X571500Y407162D03*
X584200Y407162D03*
X596900Y407162D03*
X609600Y407162D03*
X609600Y456438D03*
X596900Y456438D03*
X584200Y456438D03*
X571500Y456438D03*
X558800Y456438D03*
X546100Y456438D03*
X533400Y456438D03*
X533400Y508762D03*
X546100Y508762D03*
X558800Y508762D03*
X571500Y508762D03*
X584200Y508762D03*
X596900Y508762D03*
X609600Y508762D03*
X609600Y558038D03*
X596900Y558038D03*
X584200Y558038D03*
X571500Y558038D03*
X558800Y558038D03*
X546100Y558038D03*
X533400Y558038D03*
D20*
X965200Y530860D03*
D17*
X1003300Y530860D03*
D20*
X1079500Y530860D03*
D17*
X1117600Y530860D03*
D20*
X850900Y530860D03*
D17*
X889000Y530860D03*
D21*
X15240Y243840D03*
X35560Y243840D03*
X55880Y243840D03*
X76200Y243840D03*
X25400Y226060D03*
X45720Y226060D03*
X66040Y226060D03*
D22*
X86360Y226060D03*
D16*
X132300Y235250D03*
X-30700Y235250D03*
D21*
X218440Y243840D03*
X238760Y243840D03*
X259080Y243840D03*
X279400Y243840D03*
X228600Y226060D03*
X248920Y226060D03*
X269240Y226060D03*
D22*
X289560Y226060D03*
D16*
X335500Y235250D03*
X172500Y235250D03*
D21*
X421640Y243840D03*
X441960Y243840D03*
X462280Y243840D03*
X482600Y243840D03*
X431800Y226060D03*
X452120Y226060D03*
X472440Y226060D03*
D22*
X492760Y226060D03*
D16*
X538700Y235250D03*
X375700Y235250D03*
D21*
X624840Y243840D03*
X645160Y243840D03*
X665480Y243840D03*
X685800Y243840D03*
X635000Y226060D03*
X655320Y226060D03*
X675640Y226060D03*
D22*
X695960Y226060D03*
D16*
X741900Y235250D03*
X578900Y235250D03*
D21*
X828040Y243840D03*
X848360Y243840D03*
X868680Y243840D03*
X889000Y243840D03*
X838200Y226060D03*
X858520Y226060D03*
X878840Y226060D03*
D22*
X899160Y226060D03*
D16*
X945100Y235250D03*
X782100Y235250D03*
D21*
X1031240Y243840D03*
X1051560Y243840D03*
X1071880Y243840D03*
X1092200Y243840D03*
X1041400Y226060D03*
X1061720Y226060D03*
X1082040Y226060D03*
D22*
X1102360Y226060D03*
D16*
X1148300Y235250D03*
X985300Y235250D03*
D21*
X1234440Y243840D03*
X1254760Y243840D03*
X1275080Y243840D03*
X1295400Y243840D03*
X1244600Y226060D03*
X1264920Y226060D03*
X1285240Y226060D03*
D22*
X1305560Y226060D03*
D16*
X1351500Y235250D03*
X1188500Y235250D03*
D21*
X1437640Y243840D03*
X1457960Y243840D03*
X1478280Y243840D03*
X1498600Y243840D03*
X1447800Y226060D03*
X1468120Y226060D03*
X1488440Y226060D03*
D22*
X1508760Y226060D03*
D16*
X1554700Y235250D03*
X1391700Y235250D03*
D23*
X1569640Y390350D03*
X1569640Y460350D03*
X1535640Y460350D03*
X1480640Y460350D03*
X1497640Y390350D03*
X1477640Y390350D03*
D24*
X1525200Y901850D02*
X1525200Y923850D01*
X1503700Y958850D02*
X1481700Y958850D01*
X1464200Y923850D02*
X1464200Y901850D01*
D20*
X330200Y673100D03*
D17*
X330200Y711200D03*
D20*
X431800Y673100D03*
D17*
X431800Y711200D03*
D20*
X533400Y673100D03*
D17*
X533400Y711200D03*
D20*
X635000Y673100D03*
D17*
X635000Y711200D03*
D20*
X736600Y673100D03*
D17*
X736600Y711200D03*
D20*
X381000Y774700D03*
D17*
X381000Y812800D03*
D20*
X482600Y774700D03*
D17*
X482600Y812800D03*
D20*
X584200Y774700D03*
D17*
X584200Y812800D03*
D20*
X685800Y774700D03*
D17*
X685800Y812800D03*
D25*
X1238250Y495300D03*
X1274250Y520700D03*
X1238250Y546100D03*
X1274250Y571500D03*
X1238250Y596900D03*
X1274250Y622300D03*
X1238250Y647700D03*
X1274250Y673100D03*
X1238250Y698500D03*
X1274250Y723900D03*
X1238250Y749300D03*
X1274250Y774700D03*
X1238250Y800100D03*
D26*
X1403350Y948659D03*
X1403350Y880141D03*
D27*
X609600Y508762D02*
X609600Y493550D01*
X609600Y407162D02*
X609600Y391950D01*
X501650Y493594D02*
X501650Y506150D01*
X501650Y404550D02*
X501650Y391994D01*
D28*
X609600Y493550D03*
X609600Y391950D03*
X501650Y493594D03*
X501650Y391994D03*
D27*
X1403350Y878840D02*
X1403350Y880141D01*
D28*
X1403350Y856017D03*
D27*
X1403350Y878840D01*
X1333500Y546100D02*
X1238250Y546100D01*
X1333500Y546100D02*
X1372870Y585470D01*
X1372870Y852170D01*
X1399540Y878840D01*
X1403350Y878840D01*
X1238250Y495300D02*
X1221944Y495300D01*
D28*
X1221944Y495300D03*
D27*
X501650Y560650D02*
X501650Y577850D01*
X520700Y596900D01*
X622300Y596900D01*
D28*
X622300Y596900D03*
D27*
X508000Y465400D02*
X501650Y459050D01*
X508000Y465400D02*
X508000Y554300D01*
X501650Y560650D01*
X38100Y406400D02*
X19050Y387350D01*
D28*
X12700Y457200D03*
D27*
X13800Y458300D01*
X38100Y434000D02*
X38100Y406400D01*
X38100Y434000D02*
X13800Y458300D01*
X12700Y457200D02*
X-6350Y476250D01*
X292100Y863600D02*
X209550Y946150D01*
X292100Y863600D02*
X838200Y863600D01*
X1028700Y863600D01*
X1308100Y863600D01*
X1391972Y947472D01*
X1028700Y863600D02*
X984250Y819150D01*
X984250Y812800D01*
D28*
X825500Y850900D03*
D27*
X838200Y863600D01*
X1403350Y948659D02*
X1428391Y948659D01*
X1464200Y912850D01*
X1402163Y947472D02*
X1391972Y947472D01*
X1402163Y947472D02*
X1403350Y948659D01*
X-6350Y907271D02*
X-6350Y476250D01*
X-6350Y907271D02*
X32529Y946150D01*
X209550Y946150D01*
X533400Y407162D02*
X533400Y394462D01*
X520319Y381381D01*
D28*
X266700Y381000D03*
D27*
X267081Y381381D01*
X520319Y381381D01*
D28*
X25400Y304800D03*
D27*
X25400Y226060D01*
X533400Y407162D02*
X533400Y422910D01*
D28*
X533400Y422910D03*
X1202690Y800100D03*
D27*
X1238250Y800100D01*
D28*
X374650Y374650D03*
D27*
X546100Y402851D02*
X546100Y407162D01*
X521201Y377952D02*
X377952Y377952D01*
X374650Y374650D01*
X521201Y377952D02*
X546100Y402851D01*
X228600Y273050D02*
X228600Y226060D01*
D28*
X228600Y273050D03*
D27*
X546100Y407162D02*
X546100Y422910D01*
D28*
X546100Y422910D03*
X1205230Y774700D03*
D27*
X1274250Y774700D01*
D28*
X584200Y381000D03*
D27*
X571500Y393700D01*
X571500Y407162D01*
X594360Y370840D02*
X737870Y370840D01*
X594360Y370840D02*
X584200Y381000D01*
D28*
X431800Y273050D03*
D27*
X431800Y226060D01*
X1228090Y749300D02*
X1238250Y749300D01*
X1228090Y749300D02*
X1192530Y713740D01*
X1192530Y546589D01*
X1141241Y495300D01*
X862330Y495300D01*
X737870Y370840D01*
D28*
X584200Y391160D03*
D27*
X584200Y407162D01*
D28*
X635000Y273050D03*
D27*
X635000Y226060D01*
X1228090Y723900D02*
X1274250Y723900D01*
D28*
X758036Y369724D03*
D27*
X783436Y395124D02*
X783436Y412095D01*
X783436Y395124D02*
X758036Y369724D01*
X1195324Y545432D02*
X1195324Y691134D01*
X1228090Y723900D01*
X1195324Y545432D02*
X1142398Y492506D01*
X863847Y492506D01*
X783436Y412095D01*
D28*
X795020Y383540D03*
X731520Y396240D03*
D27*
X546100Y453205D02*
X546100Y456438D01*
X546100Y453205D02*
X564203Y435102D01*
X838200Y273050D02*
X838200Y226060D01*
D28*
X838200Y273050D03*
D27*
X1228090Y698500D02*
X1238250Y698500D01*
X795020Y419369D02*
X795020Y383540D01*
X1198626Y669036D02*
X1228090Y698500D01*
X594400Y435102D02*
X564203Y435102D01*
X594400Y435102D02*
X604052Y425450D01*
X702310Y425450D01*
X731520Y396240D01*
X1198626Y544782D02*
X1198626Y669036D01*
X1198626Y544782D02*
X1143556Y489712D01*
X865363Y489712D02*
X795020Y419369D01*
X865363Y489712D02*
X1143556Y489712D01*
D28*
X807720Y396240D03*
X731520Y408940D03*
D27*
X573855Y438150D02*
X558800Y453205D01*
X558800Y456438D01*
X1041400Y273050D02*
X1041400Y226060D01*
D28*
X1041400Y273050D03*
D27*
X1229360Y673100D02*
X1274250Y673100D01*
X807720Y427758D02*
X807720Y396240D01*
X1201674Y645414D02*
X1229360Y673100D01*
X595304Y438150D02*
X573855Y438150D01*
X595304Y438150D02*
X605210Y428244D01*
X712216Y428244D01*
X731520Y408940D01*
X1201674Y543879D02*
X1201674Y645414D01*
X1201674Y543879D02*
X1144713Y486918D01*
X866880Y486918D01*
X807720Y427758D01*
D28*
X820420Y421640D03*
X731520Y421640D03*
D27*
X722122Y431038D01*
X606367Y431038D01*
X584200Y453205D01*
X584200Y456438D01*
D28*
X1245870Y275590D03*
D27*
X1244854Y226314D02*
X1244600Y226060D01*
X1244854Y275590D02*
X1245870Y275590D01*
X1244854Y275590D02*
X1244854Y226314D01*
X1238250Y647700D02*
X1228090Y647700D01*
X820420Y436148D02*
X820420Y421640D01*
X1204722Y624332D02*
X1228090Y647700D01*
X1204722Y624332D02*
X1204722Y542976D01*
X1145870Y484124D01*
X868396Y484124D01*
X820420Y436148D01*
D28*
X731520Y434340D03*
D27*
X731266Y434086D01*
X616019Y434086D01*
X596900Y453205D01*
X596900Y456438D01*
X1447800Y266700D02*
X1447800Y226060D01*
D28*
X1447800Y266700D03*
X833120Y438150D03*
D27*
X876300Y481330D01*
X1229360Y622300D02*
X1274250Y622300D01*
X1229360Y622300D02*
X1207770Y600710D01*
X1147028Y481330D02*
X876300Y481330D01*
X1147028Y481330D02*
X1207770Y542072D01*
X1207770Y600710D01*
X62992Y495808D02*
X12700Y546100D01*
X62992Y495808D02*
X62992Y347472D01*
X35560Y320040D01*
X35560Y243840D01*
X88900Y512542D02*
X88900Y546100D01*
X88900Y512542D02*
X108712Y492730D01*
X639772Y321310D02*
X645160Y315922D01*
X645160Y243840D01*
X639772Y321310D02*
X224095Y321310D01*
X108712Y436693D02*
X108712Y492730D01*
X108712Y436693D02*
X224095Y321310D01*
X96520Y487680D02*
X38100Y546100D01*
X238760Y289403D02*
X238760Y243840D01*
X96520Y431643D02*
X96520Y487680D01*
X96520Y431643D02*
X238760Y289403D01*
X848360Y300990D02*
X848360Y243840D01*
X848360Y300990D02*
X821944Y327406D01*
X114808Y495255D02*
X114300Y495763D01*
X114300Y546100D01*
X226620Y327406D02*
X821944Y327406D01*
X226620Y327406D02*
X114808Y439218D01*
X114808Y495255D01*
X73152Y536448D02*
X63500Y546100D01*
X73152Y536448D02*
X73152Y519669D01*
X102616Y490205D01*
X429968Y315214D02*
X441960Y303222D01*
X441960Y243840D01*
X429968Y315214D02*
X221570Y315214D01*
X102616Y434168D02*
X102616Y490205D01*
X102616Y434168D02*
X221570Y315214D01*
X139700Y508000D02*
X139700Y546100D01*
X1051560Y300990D02*
X1051560Y243840D01*
X1051560Y300990D02*
X1019048Y333502D01*
X229145Y333502D01*
X120904Y489204D02*
X139700Y508000D01*
X120904Y489204D02*
X120904Y441743D01*
X229145Y333502D01*
X1457960Y300758D02*
X1457960Y243840D01*
X1457960Y300758D02*
X1413024Y345694D01*
X234195Y345694D01*
X190500Y389389D01*
X190500Y546100D01*
X165100Y520700D02*
X127000Y482600D01*
X165100Y520700D02*
X165100Y546100D01*
X1254252Y244348D02*
X1254760Y243840D01*
X1254252Y244348D02*
X1254252Y301498D01*
X1216152Y339598D01*
X231670Y339598D01*
X127000Y444268D01*
X127000Y482600D01*
X25400Y647700D02*
X12700Y660400D01*
X25400Y647700D02*
X25400Y537711D01*
X66040Y497071D02*
X66040Y226060D01*
X66040Y497071D02*
X25400Y537711D01*
X50800Y647700D02*
X38100Y660400D01*
X50800Y647700D02*
X50800Y537711D01*
X99568Y488943D01*
X269240Y263233D02*
X269240Y226060D01*
X99568Y432905D02*
X99568Y488943D01*
X99568Y432905D02*
X269240Y263233D01*
X76200Y647700D02*
X63500Y660400D01*
X76200Y647700D02*
X76200Y520932D01*
X105664Y491468D01*
X472440Y315152D02*
X472440Y226060D01*
X472440Y315152D02*
X469330Y318262D01*
X222832Y318262D01*
X105664Y435430D02*
X105664Y491468D01*
X105664Y435430D02*
X222832Y318262D01*
X149526Y513515D02*
X149526Y650574D01*
X139700Y660400D01*
X1082040Y300221D02*
X1082040Y226060D01*
X1082040Y300221D02*
X1045711Y336550D01*
X230408Y336550D01*
X123952Y443006D01*
X123952Y487941D01*
X149526Y513515D01*
X203200Y647700D02*
X190500Y660400D01*
X203200Y647700D02*
X203200Y381000D01*
X1488440Y299989D02*
X1488440Y226060D01*
X1488440Y299989D02*
X1439885Y348544D01*
X235656Y348544D02*
X203200Y381000D01*
X235656Y348544D02*
X1439885Y348544D01*
X177800Y647700D02*
X165100Y660400D01*
X1285240Y300221D02*
X1285240Y226060D01*
X1285240Y300221D02*
X1242815Y342646D01*
X232933Y342646D01*
X177800Y397779D02*
X177800Y647700D01*
X177800Y397779D02*
X232933Y342646D01*
X98726Y650574D02*
X88900Y660400D01*
X98726Y650574D02*
X98726Y507027D01*
X111760Y493993D01*
X225358Y324358D02*
X641034Y324358D01*
X675640Y289752D01*
X675640Y226060D01*
X111760Y437956D02*
X111760Y493993D01*
X111760Y437956D02*
X225358Y324358D01*
X878840Y300221D02*
X878840Y226060D01*
X126826Y647874D02*
X114300Y660400D01*
X126826Y647874D02*
X126826Y512137D01*
X117856Y503167D01*
X848607Y330454D02*
X878840Y300221D01*
X848607Y330454D02*
X227883Y330454D01*
X117856Y440481D02*
X117856Y503167D01*
X117856Y440481D02*
X227883Y330454D01*
X330200Y647700D02*
X330200Y673100D01*
X330200Y647700D02*
X346456Y631444D01*
X346456Y525344D01*
X412750Y459050D01*
X415914Y468586D02*
X425450Y459050D01*
X423179Y673100D02*
X431800Y673100D01*
X423179Y673100D02*
X349504Y599425D01*
X349504Y526607D01*
X407525Y468586D01*
X415914Y468586D01*
X425566Y471634D02*
X438150Y459050D01*
X485648Y625348D02*
X533400Y673100D01*
X485648Y625348D02*
X379737Y625348D01*
X352552Y598163D01*
X352552Y527869D01*
X408787Y471634D01*
X425566Y471634D01*
X462576Y459050D02*
X463550Y459050D01*
X462576Y459050D02*
X443896Y477730D01*
X682752Y619252D02*
X736600Y673100D01*
X382263Y619252D02*
X358648Y595637D01*
X382263Y619252D02*
X682752Y619252D01*
X443896Y477730D02*
X411312Y477730D01*
X358648Y530394D01*
X358648Y595637D01*
X454522Y480778D02*
X476250Y459050D01*
X704596Y615696D02*
X755650Y666750D01*
X755650Y717550D01*
X736600Y736600D01*
X419100Y736600D01*
X381000Y774700D01*
X383017Y615696D02*
X361696Y594375D01*
X383017Y615696D02*
X704596Y615696D01*
X454522Y480778D02*
X412575Y480778D01*
X361696Y531657D01*
X361696Y594375D01*
X464174Y483826D02*
X488950Y459050D01*
X514096Y743204D02*
X482600Y774700D01*
X514096Y743204D02*
X734307Y743204D01*
X705859Y612648D02*
X384280Y612648D01*
X364744Y593112D01*
X758698Y665487D02*
X758698Y718813D01*
X758698Y665487D02*
X705859Y612648D01*
X758698Y718813D02*
X734307Y743204D01*
X464174Y483826D02*
X413837Y483826D01*
X364744Y532919D01*
X364744Y593112D01*
X412750Y586050D02*
X412750Y560650D01*
X412750Y586050D02*
X436300Y609600D01*
X584200Y774700D02*
X612648Y746252D01*
X707121Y609600D02*
X436300Y609600D01*
X612648Y746252D02*
X735569Y746252D01*
X761746Y720075D02*
X761746Y664225D01*
X707121Y609600D01*
X761746Y720075D02*
X735569Y746252D01*
X438150Y560650D02*
X425450Y560650D01*
X438150Y586050D02*
X458652Y606552D01*
X438150Y586050D02*
X438150Y560650D01*
X685800Y774700D02*
X711200Y749300D01*
X708384Y606552D02*
X458652Y606552D01*
X711200Y749300D02*
X736832Y749300D01*
X764794Y721338D02*
X764794Y662962D01*
X708384Y606552D01*
X764794Y721338D02*
X736832Y749300D01*
X864870Y544830D02*
X850900Y530860D01*
X857250Y685800D02*
X857250Y711200D01*
D28*
X1168400Y537210D03*
X1236980Y520700D03*
D27*
X1274250Y520700D01*
X1280600Y520700D02*
X1289050Y512250D01*
X1280600Y520700D02*
X1274250Y520700D01*
D28*
X1289050Y353201D03*
D27*
X1289050Y512250D01*
X1168400Y537210D02*
X1160658Y544952D01*
X979292Y544952D01*
X966470Y532130D02*
X965200Y530860D01*
X966470Y532130D02*
X979292Y544952D01*
X953770Y544830D02*
X864870Y544830D01*
X953770Y544830D02*
X966470Y532130D01*
X876302Y556262D02*
X850900Y530860D01*
X876302Y556262D02*
X876302Y668018D01*
X858520Y685800D01*
X857250Y685800D01*
X1472957Y406400D02*
X1553590Y406400D01*
X1569640Y390350D01*
X1498600Y330557D02*
X1498600Y243840D01*
X1498600Y330557D02*
X1473557Y355600D01*
X1473200Y355600D01*
X1460500Y368300D01*
X1460500Y393943D01*
X1472957Y406400D01*
X86995Y225425D02*
X86360Y226060D01*
X493778Y225042D02*
X493778Y188950D01*
X696978Y188950D02*
X696978Y225042D01*
X900178Y225042D02*
X900178Y188950D01*
X1103378Y188978D02*
X1103378Y225042D01*
X1306578Y225042D02*
X1306578Y188950D01*
X289560Y187960D02*
X289560Y226060D01*
X492760Y226060D02*
X493778Y225042D01*
X695960Y226060D02*
X696978Y225042D01*
X899160Y226060D02*
X900178Y225042D01*
X1102360Y226060D02*
X1103378Y225042D01*
X1305560Y226060D02*
X1306578Y225042D01*
D28*
X71120Y181610D03*
D27*
X86995Y197485D01*
X86995Y225425D01*
D28*
X269240Y167640D03*
D27*
X289560Y187960D01*
D28*
X472440Y167612D03*
D27*
X493778Y188950D01*
D28*
X675640Y167612D03*
D27*
X696978Y188950D01*
D28*
X878840Y167612D03*
D27*
X900178Y188950D01*
D28*
X1082040Y167612D03*
X1285240Y167612D03*
D27*
X1306578Y188950D01*
X1103378Y188978D02*
X1082040Y167640D01*
X1082040Y167612D01*
X1508506Y226314D02*
X1508760Y226060D01*
X1508506Y379484D02*
X1497640Y390350D01*
X1508506Y379484D02*
X1508506Y226314D01*
X25400Y899782D02*
X12700Y887082D01*
X25400Y899782D02*
X25400Y914400D01*
X51826Y940826D01*
X210563Y940826D01*
X833889Y812800D02*
X857250Y812800D01*
X290837Y860552D02*
X210563Y940826D01*
X786137Y860552D02*
X833889Y812800D01*
X786137Y860552D02*
X290837Y860552D01*
X50800Y899782D02*
X38100Y887082D01*
X50800Y899782D02*
X50800Y914400D01*
X74178Y937778D01*
X209301Y937778D01*
X832627Y809752D02*
X834898Y809752D01*
X857250Y787400D01*
X289575Y857504D02*
X209301Y937778D01*
X784875Y857504D02*
X832627Y809752D01*
X784875Y857504D02*
X289575Y857504D01*
X79074Y902656D02*
X79074Y916552D01*
X79074Y902656D02*
X63500Y887082D01*
X79074Y916552D02*
X97252Y934730D01*
X208038Y934730D01*
X829056Y790194D02*
X857250Y762000D01*
X829056Y790194D02*
X829056Y809012D01*
X288312Y854456D02*
X208038Y934730D01*
X783612Y854456D02*
X829056Y809012D01*
X783612Y854456D02*
X288312Y854456D01*
X101600Y899782D02*
X88900Y887082D01*
X101600Y899782D02*
X101600Y913621D01*
X119661Y931682D01*
X206776Y931682D01*
X826008Y767842D02*
X857250Y736600D01*
X826008Y767842D02*
X826008Y807750D01*
X287050Y851408D02*
X206776Y931682D01*
X782350Y851408D02*
X826008Y807750D01*
X782350Y851408D02*
X287050Y851408D01*
X127000Y899782D02*
X114300Y887082D01*
X844550Y660400D02*
X857250Y660400D01*
X844550Y660400D02*
X822960Y681990D01*
X142013Y928634D02*
X127000Y913621D01*
X127000Y899782D01*
X142013Y928634D02*
X205513Y928634D01*
X822960Y806487D02*
X822960Y681990D01*
X285787Y848360D02*
X205513Y928634D01*
X781087Y848360D02*
X822960Y806487D01*
X781087Y848360D02*
X285787Y848360D01*
X139700Y887082D02*
X139700Y895350D01*
X152400Y908050D01*
X844550Y635000D02*
X857250Y635000D01*
X844550Y635000D02*
X819912Y659638D01*
X152400Y908050D02*
X152400Y913621D01*
X164365Y925586D01*
X204251Y925586D01*
X819912Y805225D02*
X819912Y659638D01*
X284525Y845312D02*
X204251Y925586D01*
X779825Y845312D02*
X819912Y805225D01*
X779825Y845312D02*
X284525Y845312D01*
X12700Y772202D02*
X12700Y736600D01*
X46736Y702564D01*
X228152Y702564D01*
X248666Y682050D01*
X248666Y509345D01*
X277589Y480422D01*
X336878Y480422D01*
X412750Y404550D01*
X38100Y736600D02*
X38100Y772202D01*
X38100Y736600D02*
X69088Y705612D01*
X229414Y705612D01*
X251714Y683312D01*
X251714Y510608D01*
X410900Y419100D02*
X425450Y404550D01*
X278852Y483470D02*
X251714Y510608D01*
X338141Y483470D02*
X402511Y419100D01*
X410900Y419100D01*
X338141Y483470D02*
X278852Y483470D01*
X63500Y736600D02*
X63500Y772202D01*
X63500Y736600D02*
X91440Y708660D01*
X230677Y708660D01*
X254762Y684575D01*
X420552Y422148D02*
X438150Y404550D01*
X254762Y511870D02*
X254762Y684575D01*
X254762Y511870D02*
X280114Y486518D01*
X339403Y486518D02*
X403773Y422148D01*
X420552Y422148D01*
X339403Y486518D02*
X280114Y486518D01*
X88900Y736600D02*
X88900Y772202D01*
X88900Y736600D02*
X113792Y711708D01*
X231939Y711708D01*
X430204Y425196D02*
X450850Y404550D01*
X257810Y685837D02*
X231939Y711708D01*
X257810Y685837D02*
X257810Y513133D01*
X281377Y489566D01*
X340666Y489566D02*
X405036Y425196D01*
X430204Y425196D01*
X340666Y489566D02*
X281377Y489566D01*
X114300Y736600D02*
X114300Y772202D01*
X114300Y736600D02*
X136144Y714756D01*
X233202Y714756D01*
X439856Y428244D02*
X463550Y404550D01*
X260858Y687100D02*
X233202Y714756D01*
X260858Y687100D02*
X260858Y514395D01*
X282639Y492614D01*
X341928Y492614D02*
X406298Y428244D01*
X439856Y428244D01*
X341928Y492614D02*
X282639Y492614D01*
X139700Y734102D02*
X139700Y772202D01*
X139700Y734102D02*
X155998Y717804D01*
X234464Y717804D01*
X449508Y431292D02*
X476250Y404550D01*
X263906Y688362D02*
X234464Y717804D01*
X263906Y688362D02*
X263906Y515658D01*
X283902Y495662D01*
X343191Y495662D02*
X407561Y431292D01*
X449508Y431292D01*
X343191Y495662D02*
X283902Y495662D01*
X165100Y736600D02*
X165100Y772202D01*
X165100Y736600D02*
X180848Y720852D01*
X235727Y720852D01*
X459160Y434340D02*
X488950Y404550D01*
X266954Y689625D02*
X235727Y720852D01*
X266954Y689625D02*
X266954Y516920D01*
X285164Y498710D01*
X344453Y498710D02*
X408823Y434340D01*
X459160Y434340D01*
X344453Y498710D02*
X285164Y498710D01*
X190500Y736600D02*
X190500Y772202D01*
X190500Y736600D02*
X203200Y723900D01*
X236989Y723900D01*
D28*
X330200Y520700D03*
X406400Y520700D03*
D27*
X412750Y514350D01*
X412750Y506150D01*
X270002Y690887D02*
X236989Y723900D01*
X270002Y690887D02*
X270002Y551187D01*
X300489Y520700D01*
X330200Y520700D01*
X241300Y810882D02*
X165100Y887082D01*
X241300Y810882D02*
X241300Y723900D01*
X273050Y692150D01*
D28*
X330200Y533400D03*
X406400Y533400D03*
D27*
X425450Y514350D01*
X425450Y506150D01*
X273050Y552450D02*
X273050Y692150D01*
X292100Y533400D02*
X330200Y533400D01*
X292100Y533400D02*
X273050Y552450D01*
X1228090Y596900D02*
X1238250Y596900D01*
X906984Y411044D02*
X889000Y393060D01*
X1210818Y579628D02*
X1228090Y596900D01*
X1017333Y411044D02*
X906984Y411044D01*
X1017333Y411044D02*
X1042479Y436190D01*
X1105839Y436190D01*
X1210818Y541169D01*
X1210818Y579628D01*
X1231900Y571500D02*
X1274250Y571500D01*
X1043636Y433396D02*
X1003300Y393060D01*
X1213866Y553466D02*
X1231900Y571500D01*
X1106997Y433396D02*
X1043636Y433396D01*
X1106997Y433396D02*
X1213866Y540265D01*
X1213866Y553466D01*
D28*
X631190Y533400D03*
X495300Y533400D03*
D27*
X444500Y533400D01*
X438150Y527050D01*
X438150Y506150D01*
X631190Y533400D02*
X810445Y533400D01*
X1098550Y511810D02*
X1117600Y530860D01*
X1098550Y511810D02*
X832035Y511810D01*
X810445Y533400D01*
X609600Y558038D02*
X609600Y558800D01*
X622300Y571500D01*
D28*
X622300Y571500D03*
D27*
X596900Y571500D02*
X596900Y558038D01*
X596900Y571500D02*
X609600Y584200D01*
X622300Y584200D01*
D28*
X622300Y584200D03*
D27*
X558800Y430715D02*
X558800Y407162D01*
X558800Y430715D02*
X554413Y435102D01*
X533400Y486841D02*
X533400Y508762D01*
X533400Y486841D02*
X517652Y471093D01*
X517652Y444323D02*
X526873Y435102D01*
X517652Y444323D02*
X517652Y471093D01*
X526873Y435102D02*
X554413Y435102D01*
X546100Y493550D02*
X546100Y508762D01*
D28*
X546100Y493550D03*
X571500Y471734D03*
D27*
X571500Y456438D01*
X609600Y456438D02*
X609600Y472440D01*
D28*
X609600Y472440D03*
X571500Y493522D03*
D27*
X571500Y508762D01*
X596900Y410395D02*
X596900Y407162D01*
X596900Y410395D02*
X575241Y432054D01*
X584200Y495556D02*
X584200Y508762D01*
X584200Y495556D02*
X572797Y484152D01*
X535021Y484152D01*
X520700Y469831D01*
X520700Y445585D01*
X528135Y438150D01*
X555675Y438150D01*
X561771Y432054D02*
X575241Y432054D01*
X561771Y432054D02*
X555675Y438150D01*
X558800Y508762D02*
X558800Y533400D01*
X546100Y546100D01*
X546100Y558038D01*
X558800Y558038D02*
X558800Y550095D01*
X596900Y511995D02*
X596900Y508762D01*
X596900Y511995D02*
X558800Y550095D01*
X450850Y459050D02*
X435218Y474682D01*
X584200Y622300D02*
X635000Y673100D01*
X381000Y622300D02*
X355600Y596900D01*
X381000Y622300D02*
X584200Y622300D01*
X435218Y474682D02*
X410050Y474682D01*
X355600Y529132D01*
X355600Y596900D01*
M02*
