G04 EAGLE Gerber RS-274X export*
G75*
%MOMM*%
%FSLAX34Y34*%
%LPD*%
%INBottom Copper*%
%IPPOS*%
%AMOC8*
5,1,8,0,0,1.08239X$1,22.5*%
G01*
G04 Define Apertures*
%ADD10C,1.575000*%
%ADD11C,1.260000*%
%ADD12R,1.500000X1.500000*%
%ADD13C,1.500000*%
%ADD14R,1.335000X1.335000*%
%ADD15C,1.335000*%
%ADD16C,3.000000*%
%ADD17C,1.650000*%
%ADD18R,1.650000X1.650000*%
%ADD19C,1.524000*%
%ADD20R,1.524000X1.524000*%
%ADD21C,1.200000*%
%ADD22C,0.525000*%
%ADD23C,0.152400*%
G36*
X1584803Y149412D02*
X1584506Y149352D01*
X-60706Y149352D01*
X-60981Y149403D01*
X-61236Y149567D01*
X-61408Y149817D01*
X-61468Y150114D01*
X-61468Y978156D01*
X-61417Y978431D01*
X-61253Y978686D01*
X-61003Y978858D01*
X-60706Y978918D01*
X1584506Y978918D01*
X1584781Y978867D01*
X1585036Y978703D01*
X1585208Y978453D01*
X1585268Y978156D01*
X1585268Y150114D01*
X1585217Y149839D01*
X1585053Y149584D01*
X1584803Y149412D01*
G37*
%LPC*%
G36*
X1473160Y959612D02*
X1491938Y959612D01*
X1491938Y967390D01*
X1480001Y967390D01*
X1476862Y966090D01*
X1474460Y963688D01*
X1473160Y960549D01*
X1473160Y959612D01*
G37*
G36*
X1493462Y959612D02*
X1512240Y959612D01*
X1512240Y960549D01*
X1510940Y963688D01*
X1508538Y966090D01*
X1505399Y967390D01*
X1493462Y967390D01*
X1493462Y959612D01*
G37*
G36*
X1493462Y950310D02*
X1505399Y950310D01*
X1508538Y951610D01*
X1510940Y954012D01*
X1512240Y957151D01*
X1512240Y958088D01*
X1493462Y958088D01*
X1493462Y950310D01*
G37*
G36*
X1480001Y950310D02*
X1491938Y950310D01*
X1491938Y958088D01*
X1473160Y958088D01*
X1473160Y957151D01*
X1474460Y954012D01*
X1476862Y951610D01*
X1480001Y950310D01*
G37*
G36*
X1215641Y900068D02*
X1222759Y900068D01*
X1229634Y901910D01*
X1235798Y905469D01*
X1240831Y910502D01*
X1244390Y916666D01*
X1246232Y923541D01*
X1246232Y930659D01*
X1244390Y937534D01*
X1240831Y943698D01*
X1235798Y948731D01*
X1229634Y952290D01*
X1222759Y954132D01*
X1215641Y954132D01*
X1208766Y952290D01*
X1202602Y948731D01*
X1197569Y943698D01*
X1194010Y937534D01*
X1192168Y930659D01*
X1192168Y923541D01*
X1194010Y916666D01*
X1197569Y910502D01*
X1202602Y905469D01*
X1208766Y901910D01*
X1215641Y900068D01*
G37*
G36*
X733041Y900068D02*
X740159Y900068D01*
X747034Y901910D01*
X753198Y905469D01*
X758231Y910502D01*
X761790Y916666D01*
X763632Y923541D01*
X763632Y930659D01*
X761790Y937534D01*
X758231Y943698D01*
X753198Y948731D01*
X747034Y952290D01*
X740159Y954132D01*
X733041Y954132D01*
X726166Y952290D01*
X720002Y948731D01*
X714969Y943698D01*
X711410Y937534D01*
X709568Y930659D01*
X709568Y923541D01*
X711410Y916666D01*
X714969Y910502D01*
X720002Y905469D01*
X726166Y901910D01*
X733041Y900068D01*
G37*
G36*
X326641Y900068D02*
X333759Y900068D01*
X340634Y901910D01*
X346798Y905469D01*
X351831Y910502D01*
X355390Y916666D01*
X357232Y923541D01*
X357232Y930659D01*
X355390Y937534D01*
X351831Y943698D01*
X346798Y948731D01*
X340634Y952290D01*
X333759Y954132D01*
X326641Y954132D01*
X319766Y952290D01*
X313602Y948731D01*
X308569Y943698D01*
X305010Y937534D01*
X303168Y930659D01*
X303168Y923541D01*
X305010Y916666D01*
X308569Y910502D01*
X313602Y905469D01*
X319766Y901910D01*
X326641Y900068D01*
G37*
G36*
X1516660Y913612D02*
X1524438Y913612D01*
X1524438Y932390D01*
X1523501Y932390D01*
X1520362Y931090D01*
X1517960Y928688D01*
X1516660Y925549D01*
X1516660Y913612D01*
G37*
G36*
X1525962Y913612D02*
X1533740Y913612D01*
X1533740Y925549D01*
X1532440Y928688D01*
X1530038Y931090D01*
X1526899Y932390D01*
X1525962Y932390D01*
X1525962Y913612D01*
G37*
G36*
X1462754Y894580D02*
X1465646Y894580D01*
X1468318Y895687D01*
X1470363Y897732D01*
X1471470Y900404D01*
X1471470Y925296D01*
X1470363Y927968D01*
X1468318Y930013D01*
X1465646Y931120D01*
X1462754Y931120D01*
X1460082Y930013D01*
X1458037Y927968D01*
X1456930Y925296D01*
X1456930Y900404D01*
X1458037Y897732D01*
X1460082Y895687D01*
X1462754Y894580D01*
G37*
G36*
X180460Y913244D02*
X189738Y913244D01*
X189738Y922522D01*
X188503Y922522D01*
X184813Y920993D01*
X181989Y918169D01*
X180460Y914479D01*
X180460Y913244D01*
G37*
G36*
X2660Y913244D02*
X11938Y913244D01*
X11938Y922522D01*
X10703Y922522D01*
X7013Y920993D01*
X4189Y918169D01*
X2660Y914479D01*
X2660Y913244D01*
G37*
G36*
X28060Y913244D02*
X37338Y913244D01*
X37338Y922522D01*
X36103Y922522D01*
X32413Y920993D01*
X29589Y918169D01*
X28060Y914479D01*
X28060Y913244D01*
G37*
G36*
X53460Y913244D02*
X62738Y913244D01*
X62738Y922522D01*
X61503Y922522D01*
X57813Y920993D01*
X54989Y918169D01*
X53460Y914479D01*
X53460Y913244D01*
G37*
G36*
X78860Y913244D02*
X88138Y913244D01*
X88138Y922522D01*
X86903Y922522D01*
X83213Y920993D01*
X80389Y918169D01*
X78860Y914479D01*
X78860Y913244D01*
G37*
G36*
X104260Y913244D02*
X113538Y913244D01*
X113538Y922522D01*
X112303Y922522D01*
X108613Y920993D01*
X105789Y918169D01*
X104260Y914479D01*
X104260Y913244D01*
G37*
G36*
X129660Y913244D02*
X138938Y913244D01*
X138938Y922522D01*
X137703Y922522D01*
X134013Y920993D01*
X131189Y918169D01*
X129660Y914479D01*
X129660Y913244D01*
G37*
G36*
X155060Y913244D02*
X164338Y913244D01*
X164338Y922522D01*
X163103Y922522D01*
X159413Y920993D01*
X156589Y918169D01*
X155060Y914479D01*
X155060Y913244D01*
G37*
G36*
X165862Y913244D02*
X175140Y913244D01*
X175140Y914479D01*
X173612Y918169D01*
X170787Y920993D01*
X167097Y922522D01*
X165862Y922522D01*
X165862Y913244D01*
G37*
G36*
X140462Y913244D02*
X149740Y913244D01*
X149740Y914479D01*
X148212Y918169D01*
X145387Y920993D01*
X141697Y922522D01*
X140462Y922522D01*
X140462Y913244D01*
G37*
G36*
X115062Y913244D02*
X124340Y913244D01*
X124340Y914479D01*
X122812Y918169D01*
X119987Y920993D01*
X116297Y922522D01*
X115062Y922522D01*
X115062Y913244D01*
G37*
G36*
X89662Y913244D02*
X98940Y913244D01*
X98940Y914479D01*
X97412Y918169D01*
X94587Y920993D01*
X90897Y922522D01*
X89662Y922522D01*
X89662Y913244D01*
G37*
G36*
X64262Y913244D02*
X73540Y913244D01*
X73540Y914479D01*
X72012Y918169D01*
X69187Y920993D01*
X65497Y922522D01*
X64262Y922522D01*
X64262Y913244D01*
G37*
G36*
X38862Y913244D02*
X48140Y913244D01*
X48140Y914479D01*
X46612Y918169D01*
X43787Y920993D01*
X40097Y922522D01*
X38862Y922522D01*
X38862Y913244D01*
G37*
G36*
X13462Y913244D02*
X22740Y913244D01*
X22740Y914479D01*
X21212Y918169D01*
X18387Y920993D01*
X14697Y922522D01*
X13462Y922522D01*
X13462Y913244D01*
G37*
G36*
X191262Y913244D02*
X200540Y913244D01*
X200540Y914479D01*
X199012Y918169D01*
X196187Y920993D01*
X192497Y922522D01*
X191262Y922522D01*
X191262Y913244D01*
G37*
G36*
X1525962Y893310D02*
X1526899Y893310D01*
X1530038Y894610D01*
X1532440Y897012D01*
X1533740Y900151D01*
X1533740Y912088D01*
X1525962Y912088D01*
X1525962Y893310D01*
G37*
G36*
X1523501Y893310D02*
X1524438Y893310D01*
X1524438Y912088D01*
X1516660Y912088D01*
X1516660Y900151D01*
X1517960Y897012D01*
X1520362Y894610D01*
X1523501Y893310D01*
G37*
G36*
X191262Y902442D02*
X192497Y902442D01*
X196187Y903970D01*
X199012Y906794D01*
X200540Y910485D01*
X200540Y911720D01*
X191262Y911720D01*
X191262Y902442D01*
G37*
G36*
X188503Y902442D02*
X189738Y902442D01*
X189738Y911720D01*
X180460Y911720D01*
X180460Y910485D01*
X181989Y906794D01*
X184813Y903970D01*
X188503Y902442D01*
G37*
G36*
X165862Y902442D02*
X167097Y902442D01*
X170787Y903970D01*
X173612Y906794D01*
X175140Y910485D01*
X175140Y911720D01*
X165862Y911720D01*
X165862Y902442D01*
G37*
G36*
X163103Y902442D02*
X164338Y902442D01*
X164338Y911720D01*
X155060Y911720D01*
X155060Y910485D01*
X156589Y906794D01*
X159413Y903970D01*
X163103Y902442D01*
G37*
G36*
X140462Y902442D02*
X141697Y902442D01*
X145387Y903970D01*
X148212Y906794D01*
X149740Y910485D01*
X149740Y911720D01*
X140462Y911720D01*
X140462Y902442D01*
G37*
G36*
X137703Y902442D02*
X138938Y902442D01*
X138938Y911720D01*
X129660Y911720D01*
X129660Y910485D01*
X131189Y906794D01*
X134013Y903970D01*
X137703Y902442D01*
G37*
G36*
X115062Y902442D02*
X116297Y902442D01*
X119987Y903970D01*
X122812Y906794D01*
X124340Y910485D01*
X124340Y911720D01*
X115062Y911720D01*
X115062Y902442D01*
G37*
G36*
X112303Y902442D02*
X113538Y902442D01*
X113538Y911720D01*
X104260Y911720D01*
X104260Y910485D01*
X105789Y906794D01*
X108613Y903970D01*
X112303Y902442D01*
G37*
G36*
X89662Y902442D02*
X90897Y902442D01*
X94587Y903970D01*
X97412Y906794D01*
X98940Y910485D01*
X98940Y911720D01*
X89662Y911720D01*
X89662Y902442D01*
G37*
G36*
X86903Y902442D02*
X88138Y902442D01*
X88138Y911720D01*
X78860Y911720D01*
X78860Y910485D01*
X80389Y906794D01*
X83213Y903970D01*
X86903Y902442D01*
G37*
G36*
X64262Y902442D02*
X65497Y902442D01*
X69187Y903970D01*
X72012Y906794D01*
X73540Y910485D01*
X73540Y911720D01*
X64262Y911720D01*
X64262Y902442D01*
G37*
G36*
X61503Y902442D02*
X62738Y902442D01*
X62738Y911720D01*
X53460Y911720D01*
X53460Y910485D01*
X54989Y906794D01*
X57813Y903970D01*
X61503Y902442D01*
G37*
G36*
X38862Y902442D02*
X40097Y902442D01*
X43787Y903970D01*
X46612Y906794D01*
X48140Y910485D01*
X48140Y911720D01*
X38862Y911720D01*
X38862Y902442D01*
G37*
G36*
X36103Y902442D02*
X37338Y902442D01*
X37338Y911720D01*
X28060Y911720D01*
X28060Y910485D01*
X29589Y906794D01*
X32413Y903970D01*
X36103Y902442D01*
G37*
G36*
X13462Y902442D02*
X14697Y902442D01*
X18387Y903970D01*
X21212Y906794D01*
X22740Y910485D01*
X22740Y911720D01*
X13462Y911720D01*
X13462Y902442D01*
G37*
G36*
X10703Y902442D02*
X11938Y902442D01*
X11938Y911720D01*
X2660Y911720D01*
X2660Y910485D01*
X4189Y906794D01*
X7013Y903970D01*
X10703Y902442D01*
G37*
G36*
X112556Y878312D02*
X116044Y878312D01*
X119268Y879647D01*
X121735Y882114D01*
X123070Y885337D01*
X123070Y888826D01*
X121735Y892049D01*
X119268Y894516D01*
X116044Y895852D01*
X112556Y895852D01*
X109332Y894516D01*
X106865Y892049D01*
X105530Y888826D01*
X105530Y885337D01*
X106865Y882114D01*
X109332Y879647D01*
X112556Y878312D01*
G37*
G36*
X87156Y878312D02*
X90644Y878312D01*
X93868Y879647D01*
X96335Y882114D01*
X97670Y885337D01*
X97670Y888826D01*
X96335Y892049D01*
X93868Y894516D01*
X90644Y895852D01*
X87156Y895852D01*
X83932Y894516D01*
X81465Y892049D01*
X80130Y888826D01*
X80130Y885337D01*
X81465Y882114D01*
X83932Y879647D01*
X87156Y878312D01*
G37*
G36*
X61756Y878312D02*
X65244Y878312D01*
X68468Y879647D01*
X70935Y882114D01*
X72270Y885337D01*
X72270Y888826D01*
X70935Y892049D01*
X68468Y894516D01*
X65244Y895852D01*
X61756Y895852D01*
X58532Y894516D01*
X56065Y892049D01*
X54730Y888826D01*
X54730Y885337D01*
X56065Y882114D01*
X58532Y879647D01*
X61756Y878312D01*
G37*
G36*
X36356Y878312D02*
X39844Y878312D01*
X43068Y879647D01*
X45535Y882114D01*
X46870Y885337D01*
X46870Y888826D01*
X45535Y892049D01*
X43068Y894516D01*
X39844Y895852D01*
X36356Y895852D01*
X33132Y894516D01*
X30665Y892049D01*
X29330Y888826D01*
X29330Y885337D01*
X30665Y882114D01*
X33132Y879647D01*
X36356Y878312D01*
G37*
G36*
X4674Y878312D02*
X20726Y878312D01*
X21470Y879056D01*
X21470Y895108D01*
X20726Y895852D01*
X4674Y895852D01*
X3930Y895108D01*
X3930Y879056D01*
X4674Y878312D01*
G37*
G36*
X163356Y878312D02*
X166844Y878312D01*
X170068Y879647D01*
X172535Y882114D01*
X173870Y885337D01*
X173870Y888826D01*
X172535Y892049D01*
X170068Y894516D01*
X166844Y895852D01*
X163356Y895852D01*
X160132Y894516D01*
X157665Y892049D01*
X156330Y888826D01*
X156330Y885337D01*
X157665Y882114D01*
X160132Y879647D01*
X163356Y878312D01*
G37*
G36*
X188756Y878312D02*
X192244Y878312D01*
X195468Y879647D01*
X197935Y882114D01*
X199270Y885337D01*
X199270Y888826D01*
X197935Y892049D01*
X195468Y894516D01*
X192244Y895852D01*
X188756Y895852D01*
X185532Y894516D01*
X183065Y892049D01*
X181730Y888826D01*
X181730Y885337D01*
X183065Y882114D01*
X185532Y879647D01*
X188756Y878312D01*
G37*
G36*
X137956Y878312D02*
X141444Y878312D01*
X144668Y879647D01*
X147135Y882114D01*
X148470Y885337D01*
X148470Y888826D01*
X147135Y892049D01*
X144668Y894516D01*
X141444Y895852D01*
X137956Y895852D01*
X134732Y894516D01*
X132265Y892049D01*
X130930Y888826D01*
X130930Y885337D01*
X132265Y882114D01*
X134732Y879647D01*
X137956Y878312D01*
G37*
G36*
X1440599Y557205D02*
X1455001Y557205D01*
X1455745Y557949D01*
X1455745Y572351D01*
X1455001Y573095D01*
X1440599Y573095D01*
X1439855Y572351D01*
X1439855Y567944D01*
X1439804Y567669D01*
X1439640Y567414D01*
X1439390Y567242D01*
X1439093Y567182D01*
X1437527Y567182D01*
X1437241Y567238D01*
X1436989Y567405D01*
X1408145Y596249D01*
X1407982Y596490D01*
X1407922Y596787D01*
X1407922Y752856D01*
X1407973Y753131D01*
X1408137Y753386D01*
X1408387Y753558D01*
X1408684Y753618D01*
X1439093Y753618D01*
X1439368Y753567D01*
X1439623Y753403D01*
X1439795Y753153D01*
X1439855Y752856D01*
X1439855Y748449D01*
X1440599Y747705D01*
X1455001Y747705D01*
X1455745Y748449D01*
X1455745Y762851D01*
X1455001Y763595D01*
X1440599Y763595D01*
X1439855Y762851D01*
X1439855Y758444D01*
X1439804Y758169D01*
X1439640Y757914D01*
X1439390Y757742D01*
X1439093Y757682D01*
X1410857Y757682D01*
X1410571Y757738D01*
X1410319Y757905D01*
X1324944Y843280D01*
X822593Y843280D01*
X822330Y843327D01*
X822072Y843486D01*
X821897Y843734D01*
X821831Y844030D01*
X821887Y844328D01*
X822055Y844581D01*
X824256Y846782D01*
X824497Y846945D01*
X824794Y847005D01*
X827113Y847005D01*
X829395Y849287D01*
X829395Y852513D01*
X827113Y854795D01*
X823887Y854795D01*
X821605Y852513D01*
X821605Y850194D01*
X821549Y849908D01*
X821382Y849656D01*
X812182Y840455D01*
X811940Y840292D01*
X811643Y840232D01*
X710358Y840232D01*
X691414Y821288D01*
X691178Y821128D01*
X690882Y821065D01*
X690584Y821123D01*
X687694Y822320D01*
X683906Y822320D01*
X680407Y820871D01*
X677729Y818193D01*
X676532Y815302D01*
X676376Y815064D01*
X676125Y814892D01*
X675828Y814832D01*
X594172Y814832D01*
X593892Y814885D01*
X593637Y815051D01*
X593468Y815302D01*
X592271Y818193D01*
X589593Y820871D01*
X586094Y822320D01*
X582306Y822320D01*
X578807Y820871D01*
X576129Y818193D01*
X574932Y815302D01*
X574776Y815064D01*
X574525Y814892D01*
X574228Y814832D01*
X492572Y814832D01*
X492292Y814885D01*
X492037Y815051D01*
X491868Y815302D01*
X490671Y818193D01*
X487993Y820871D01*
X484494Y822320D01*
X480706Y822320D01*
X477207Y820871D01*
X474529Y818193D01*
X473332Y815302D01*
X473176Y815064D01*
X472925Y814892D01*
X472628Y814832D01*
X390972Y814832D01*
X390692Y814885D01*
X390437Y815051D01*
X390268Y815302D01*
X389071Y818193D01*
X386393Y820871D01*
X382894Y822320D01*
X379106Y822320D01*
X375607Y820871D01*
X372929Y818193D01*
X371480Y814694D01*
X371480Y810906D01*
X372929Y807407D01*
X375607Y804729D01*
X379106Y803280D01*
X382894Y803280D01*
X386393Y804729D01*
X389071Y807407D01*
X390268Y810298D01*
X390425Y810536D01*
X390675Y810708D01*
X390972Y810768D01*
X472628Y810768D01*
X472909Y810715D01*
X473163Y810549D01*
X473332Y810298D01*
X474529Y807407D01*
X477207Y804729D01*
X480706Y803280D01*
X484494Y803280D01*
X487993Y804729D01*
X490671Y807407D01*
X491868Y810298D01*
X492025Y810536D01*
X492275Y810708D01*
X492572Y810768D01*
X574228Y810768D01*
X574509Y810715D01*
X574763Y810549D01*
X574932Y810298D01*
X576129Y807407D01*
X578807Y804729D01*
X582306Y803280D01*
X586094Y803280D01*
X589593Y804729D01*
X592271Y807407D01*
X593468Y810298D01*
X593625Y810536D01*
X593875Y810708D01*
X594172Y810768D01*
X675828Y810768D01*
X676109Y810715D01*
X676363Y810549D01*
X676532Y810298D01*
X677729Y807407D01*
X680407Y804729D01*
X683906Y803280D01*
X687694Y803280D01*
X691193Y804729D01*
X693871Y807407D01*
X695320Y810906D01*
X695320Y814694D01*
X694123Y817584D01*
X694065Y817863D01*
X694121Y818161D01*
X694288Y818414D01*
X711819Y835945D01*
X712060Y836108D01*
X712357Y836168D01*
X755255Y836168D01*
X755518Y836121D01*
X755776Y835962D01*
X755952Y835714D01*
X756017Y835418D01*
X755961Y835120D01*
X755794Y834867D01*
X734568Y813642D01*
X734568Y721172D01*
X734515Y720892D01*
X734349Y720637D01*
X734098Y720468D01*
X731207Y719271D01*
X728529Y716593D01*
X727332Y713702D01*
X727176Y713464D01*
X726925Y713292D01*
X726628Y713232D01*
X644972Y713232D01*
X644692Y713285D01*
X644437Y713451D01*
X644268Y713702D01*
X643071Y716593D01*
X640393Y719271D01*
X636894Y720720D01*
X633106Y720720D01*
X629607Y719271D01*
X626929Y716593D01*
X625732Y713702D01*
X625576Y713464D01*
X625325Y713292D01*
X625028Y713232D01*
X543372Y713232D01*
X543092Y713285D01*
X542837Y713451D01*
X542668Y713702D01*
X541471Y716593D01*
X538793Y719271D01*
X535294Y720720D01*
X531506Y720720D01*
X528007Y719271D01*
X525329Y716593D01*
X524132Y713702D01*
X523976Y713464D01*
X523725Y713292D01*
X523428Y713232D01*
X441772Y713232D01*
X441492Y713285D01*
X441237Y713451D01*
X441068Y713702D01*
X439871Y716593D01*
X437193Y719271D01*
X433694Y720720D01*
X429906Y720720D01*
X426407Y719271D01*
X423729Y716593D01*
X422532Y713702D01*
X422376Y713464D01*
X422125Y713292D01*
X421828Y713232D01*
X340172Y713232D01*
X339892Y713285D01*
X339637Y713451D01*
X339468Y713702D01*
X338271Y716593D01*
X335593Y719271D01*
X332094Y720720D01*
X328306Y720720D01*
X324807Y719271D01*
X322129Y716593D01*
X320680Y713094D01*
X320680Y709306D01*
X322129Y705807D01*
X324807Y703129D01*
X328306Y701680D01*
X332094Y701680D01*
X335593Y703129D01*
X338271Y705807D01*
X339468Y708698D01*
X339625Y708936D01*
X339875Y709108D01*
X340172Y709168D01*
X421828Y709168D01*
X422109Y709115D01*
X422363Y708949D01*
X422532Y708698D01*
X423729Y705807D01*
X426407Y703129D01*
X429906Y701680D01*
X433694Y701680D01*
X437193Y703129D01*
X439871Y705807D01*
X441068Y708698D01*
X441225Y708936D01*
X441475Y709108D01*
X441772Y709168D01*
X523428Y709168D01*
X523709Y709115D01*
X523963Y708949D01*
X524132Y708698D01*
X525329Y705807D01*
X528007Y703129D01*
X531506Y701680D01*
X535294Y701680D01*
X538793Y703129D01*
X541471Y705807D01*
X542668Y708698D01*
X542825Y708936D01*
X543075Y709108D01*
X543372Y709168D01*
X625028Y709168D01*
X625309Y709115D01*
X625563Y708949D01*
X625732Y708698D01*
X626929Y705807D01*
X629607Y703129D01*
X633106Y701680D01*
X636894Y701680D01*
X640393Y703129D01*
X643071Y705807D01*
X644268Y708698D01*
X644425Y708936D01*
X644675Y709108D01*
X644972Y709168D01*
X726628Y709168D01*
X726909Y709115D01*
X727163Y708949D01*
X727332Y708698D01*
X728529Y705807D01*
X731207Y703129D01*
X734706Y701680D01*
X738494Y701680D01*
X741993Y703129D01*
X744671Y705807D01*
X746120Y709306D01*
X746120Y713094D01*
X744671Y716593D01*
X741993Y719271D01*
X739102Y720468D01*
X738864Y720625D01*
X738692Y720875D01*
X738632Y721172D01*
X738632Y811643D01*
X738688Y811929D01*
X738855Y812182D01*
X762619Y835945D01*
X762860Y836108D01*
X763157Y836168D01*
X806055Y836168D01*
X806318Y836121D01*
X806576Y835962D01*
X806752Y835714D01*
X806817Y835418D01*
X806761Y835120D01*
X806594Y834867D01*
X783204Y811478D01*
X783204Y655314D01*
X783148Y655028D01*
X782981Y654776D01*
X727360Y599155D01*
X727119Y598992D01*
X726822Y598932D01*
X626092Y598932D01*
X625806Y598988D01*
X625553Y599155D01*
X623913Y600795D01*
X620687Y600795D01*
X618405Y598513D01*
X618405Y595287D01*
X620687Y593005D01*
X623913Y593005D01*
X625553Y594645D01*
X625795Y594808D01*
X626092Y594868D01*
X725544Y594868D01*
X725807Y594821D01*
X726066Y594662D01*
X726241Y594414D01*
X726306Y594118D01*
X726250Y593820D01*
X726083Y593567D01*
X718971Y586455D01*
X718729Y586292D01*
X718432Y586232D01*
X626092Y586232D01*
X625806Y586288D01*
X625553Y586455D01*
X623913Y588095D01*
X620687Y588095D01*
X618405Y585813D01*
X618405Y582587D01*
X620687Y580305D01*
X623913Y580305D01*
X625553Y581945D01*
X625795Y582108D01*
X626092Y582168D01*
X717155Y582168D01*
X717418Y582121D01*
X717676Y581962D01*
X717852Y581714D01*
X717917Y581418D01*
X717861Y581120D01*
X717694Y580867D01*
X710582Y573755D01*
X710340Y573592D01*
X710043Y573532D01*
X626092Y573532D01*
X625806Y573588D01*
X625553Y573755D01*
X623913Y575395D01*
X620687Y575395D01*
X618405Y573113D01*
X618405Y569887D01*
X620687Y567605D01*
X623913Y567605D01*
X625553Y569245D01*
X625795Y569408D01*
X626092Y569468D01*
X712042Y569468D01*
X793364Y650790D01*
X793364Y806524D01*
X793420Y806810D01*
X793587Y807063D01*
X821119Y834594D01*
X821360Y834757D01*
X821658Y834818D01*
X1320993Y834818D01*
X1321279Y834762D01*
X1321532Y834594D01*
X1403635Y752492D01*
X1403798Y752250D01*
X1403858Y751953D01*
X1403858Y594788D01*
X1435528Y563118D01*
X1439093Y563118D01*
X1439368Y563067D01*
X1439623Y562903D01*
X1439795Y562653D01*
X1439855Y562356D01*
X1439855Y557949D01*
X1440599Y557205D01*
G37*
G36*
X1499362Y807212D02*
X1516140Y807212D01*
X1516140Y809939D01*
X1513470Y816386D01*
X1508536Y821320D01*
X1502089Y823990D01*
X1499362Y823990D01*
X1499362Y807212D01*
G37*
G36*
X1481060Y807212D02*
X1497838Y807212D01*
X1497838Y823990D01*
X1495111Y823990D01*
X1488664Y821320D01*
X1483730Y816386D01*
X1481060Y809939D01*
X1481060Y807212D01*
G37*
G36*
X847556Y803655D02*
X866944Y803655D01*
X870305Y805047D01*
X872878Y807620D01*
X874270Y810981D01*
X874270Y814619D01*
X872878Y817980D01*
X870305Y820553D01*
X866944Y821945D01*
X847556Y821945D01*
X844195Y820553D01*
X841622Y817980D01*
X840230Y814619D01*
X840230Y810981D01*
X841622Y807620D01*
X844195Y805047D01*
X847556Y803655D01*
G37*
G36*
X974556Y803655D02*
X993944Y803655D01*
X997305Y805047D01*
X999878Y807620D01*
X1001270Y810981D01*
X1001270Y814619D01*
X999878Y817980D01*
X997305Y820553D01*
X993944Y821945D01*
X974556Y821945D01*
X971195Y820553D01*
X968622Y817980D01*
X967230Y814619D01*
X967230Y810981D01*
X968622Y807620D01*
X971195Y805047D01*
X974556Y803655D01*
G37*
G36*
X13462Y798364D02*
X22740Y798364D01*
X22740Y799599D01*
X21212Y803289D01*
X18387Y806113D01*
X14697Y807642D01*
X13462Y807642D01*
X13462Y798364D01*
G37*
G36*
X140462Y798364D02*
X149740Y798364D01*
X149740Y799599D01*
X148212Y803289D01*
X145387Y806113D01*
X141697Y807642D01*
X140462Y807642D01*
X140462Y798364D01*
G37*
G36*
X38862Y798364D02*
X48140Y798364D01*
X48140Y799599D01*
X46612Y803289D01*
X43787Y806113D01*
X40097Y807642D01*
X38862Y807642D01*
X38862Y798364D01*
G37*
G36*
X64262Y798364D02*
X73540Y798364D01*
X73540Y799599D01*
X72012Y803289D01*
X69187Y806113D01*
X65497Y807642D01*
X64262Y807642D01*
X64262Y798364D01*
G37*
G36*
X53460Y798364D02*
X62738Y798364D01*
X62738Y807642D01*
X61503Y807642D01*
X57813Y806113D01*
X54989Y803289D01*
X53460Y799599D01*
X53460Y798364D01*
G37*
G36*
X2660Y798364D02*
X11938Y798364D01*
X11938Y807642D01*
X10703Y807642D01*
X7013Y806113D01*
X4189Y803289D01*
X2660Y799599D01*
X2660Y798364D01*
G37*
G36*
X129660Y798364D02*
X138938Y798364D01*
X138938Y807642D01*
X137703Y807642D01*
X134013Y806113D01*
X131189Y803289D01*
X129660Y799599D01*
X129660Y798364D01*
G37*
G36*
X28060Y798364D02*
X37338Y798364D01*
X37338Y807642D01*
X36103Y807642D01*
X32413Y806113D01*
X29589Y803289D01*
X28060Y799599D01*
X28060Y798364D01*
G37*
G36*
X89662Y798364D02*
X98940Y798364D01*
X98940Y799599D01*
X97412Y803289D01*
X94587Y806113D01*
X90897Y807642D01*
X89662Y807642D01*
X89662Y798364D01*
G37*
G36*
X115062Y798364D02*
X124340Y798364D01*
X124340Y799599D01*
X122812Y803289D01*
X119987Y806113D01*
X116297Y807642D01*
X115062Y807642D01*
X115062Y798364D01*
G37*
G36*
X191262Y798364D02*
X200540Y798364D01*
X200540Y799599D01*
X199012Y803289D01*
X196187Y806113D01*
X192497Y807642D01*
X191262Y807642D01*
X191262Y798364D01*
G37*
G36*
X165862Y798364D02*
X175140Y798364D01*
X175140Y799599D01*
X173612Y803289D01*
X170787Y806113D01*
X167097Y807642D01*
X165862Y807642D01*
X165862Y798364D01*
G37*
G36*
X155060Y798364D02*
X164338Y798364D01*
X164338Y807642D01*
X163103Y807642D01*
X159413Y806113D01*
X156589Y803289D01*
X155060Y799599D01*
X155060Y798364D01*
G37*
G36*
X180460Y798364D02*
X189738Y798364D01*
X189738Y807642D01*
X188503Y807642D01*
X184813Y806113D01*
X181989Y803289D01*
X180460Y799599D01*
X180460Y798364D01*
G37*
G36*
X104260Y798364D02*
X113538Y798364D01*
X113538Y807642D01*
X112303Y807642D01*
X108613Y806113D01*
X105789Y803289D01*
X104260Y799599D01*
X104260Y798364D01*
G37*
G36*
X78860Y798364D02*
X88138Y798364D01*
X88138Y807642D01*
X86903Y807642D01*
X83213Y806113D01*
X80389Y803289D01*
X78860Y799599D01*
X78860Y798364D01*
G37*
G36*
X1499362Y788910D02*
X1502089Y788910D01*
X1508536Y791580D01*
X1513470Y796514D01*
X1516140Y802961D01*
X1516140Y805688D01*
X1499362Y805688D01*
X1499362Y788910D01*
G37*
G36*
X1495111Y788910D02*
X1497838Y788910D01*
X1497838Y805688D01*
X1481060Y805688D01*
X1481060Y802961D01*
X1483730Y796514D01*
X1488664Y791580D01*
X1495111Y788910D01*
G37*
G36*
X531787Y419015D02*
X535013Y419015D01*
X537295Y421297D01*
X537295Y423616D01*
X537351Y423902D01*
X537518Y424155D01*
X553069Y439705D01*
X553310Y439868D01*
X553607Y439928D01*
X557135Y439928D01*
X557398Y439881D01*
X557656Y439722D01*
X557832Y439474D01*
X557897Y439178D01*
X557841Y438880D01*
X557674Y438627D01*
X546075Y427028D01*
X545833Y426865D01*
X545536Y426805D01*
X544487Y426805D01*
X542205Y424523D01*
X542205Y421297D01*
X544487Y419015D01*
X547713Y419015D01*
X549995Y421297D01*
X549995Y424744D01*
X549972Y424850D01*
X550027Y425148D01*
X550195Y425401D01*
X559419Y434625D01*
X559660Y434788D01*
X559957Y434848D01*
X607902Y434848D01*
X758809Y585755D01*
X759050Y585918D01*
X759347Y585978D01*
X1136722Y585978D01*
X1190752Y640008D01*
X1190752Y759072D01*
X1190808Y759358D01*
X1190975Y759611D01*
X1202354Y770990D01*
X1202585Y771148D01*
X1202881Y771213D01*
X1203179Y771157D01*
X1203432Y770990D01*
X1203617Y770805D01*
X1206843Y770805D01*
X1209125Y773087D01*
X1209125Y776313D01*
X1206843Y778595D01*
X1203617Y778595D01*
X1201335Y776313D01*
X1201335Y776034D01*
X1201279Y775748D01*
X1201112Y775495D01*
X1189005Y763388D01*
X1188785Y763235D01*
X1188490Y763165D01*
X1188191Y763216D01*
X1187936Y763379D01*
X1187764Y763630D01*
X1187704Y763927D01*
X1187704Y781925D01*
X1187760Y782211D01*
X1187927Y782464D01*
X1201446Y795982D01*
X1201687Y796145D01*
X1201984Y796205D01*
X1204303Y796205D01*
X1206585Y798487D01*
X1206585Y801713D01*
X1204303Y803995D01*
X1201077Y803995D01*
X1198795Y801713D01*
X1198795Y799394D01*
X1198739Y799108D01*
X1198572Y798856D01*
X1183640Y783924D01*
X1183640Y642910D01*
X1183584Y642624D01*
X1183417Y642371D01*
X1134359Y593313D01*
X1134117Y593150D01*
X1133820Y593090D01*
X756445Y593090D01*
X607570Y444215D01*
X607329Y444052D01*
X607031Y443992D01*
X551608Y443992D01*
X534645Y427028D01*
X534403Y426865D01*
X534106Y426805D01*
X531787Y426805D01*
X529505Y424523D01*
X529505Y421297D01*
X531787Y419015D01*
G37*
G36*
X965960Y788162D02*
X983488Y788162D01*
X983488Y797815D01*
X974303Y797815D01*
X970475Y796229D01*
X967546Y793300D01*
X965960Y789472D01*
X965960Y788162D01*
G37*
G36*
X985012Y788162D02*
X1002540Y788162D01*
X1002540Y789472D01*
X1000954Y793300D01*
X998025Y796229D01*
X994197Y797815D01*
X985012Y797815D01*
X985012Y788162D01*
G37*
G36*
X61503Y787562D02*
X62738Y787562D01*
X62738Y796840D01*
X53460Y796840D01*
X53460Y795604D01*
X54989Y791914D01*
X57813Y789090D01*
X61503Y787562D01*
G37*
G36*
X36103Y787562D02*
X37338Y787562D01*
X37338Y796840D01*
X28060Y796840D01*
X28060Y795604D01*
X29589Y791914D01*
X32413Y789090D01*
X36103Y787562D01*
G37*
G36*
X10703Y787562D02*
X11938Y787562D01*
X11938Y796840D01*
X2660Y796840D01*
X2660Y795604D01*
X4189Y791914D01*
X7013Y789090D01*
X10703Y787562D01*
G37*
G36*
X13462Y787562D02*
X14697Y787562D01*
X18387Y789090D01*
X21212Y791914D01*
X22740Y795604D01*
X22740Y796840D01*
X13462Y796840D01*
X13462Y787562D01*
G37*
G36*
X38862Y787562D02*
X40097Y787562D01*
X43787Y789090D01*
X46612Y791914D01*
X48140Y795604D01*
X48140Y796840D01*
X38862Y796840D01*
X38862Y787562D01*
G37*
G36*
X64262Y787562D02*
X65497Y787562D01*
X69187Y789090D01*
X72012Y791914D01*
X73540Y795604D01*
X73540Y796840D01*
X64262Y796840D01*
X64262Y787562D01*
G37*
G36*
X86903Y787562D02*
X88138Y787562D01*
X88138Y796840D01*
X78860Y796840D01*
X78860Y795604D01*
X80389Y791914D01*
X83213Y789090D01*
X86903Y787562D01*
G37*
G36*
X89662Y787562D02*
X90897Y787562D01*
X94587Y789090D01*
X97412Y791914D01*
X98940Y795604D01*
X98940Y796840D01*
X89662Y796840D01*
X89662Y787562D01*
G37*
G36*
X112303Y787562D02*
X113538Y787562D01*
X113538Y796840D01*
X104260Y796840D01*
X104260Y795604D01*
X105789Y791914D01*
X108613Y789090D01*
X112303Y787562D01*
G37*
G36*
X115062Y787562D02*
X116297Y787562D01*
X119987Y789090D01*
X122812Y791914D01*
X124340Y795604D01*
X124340Y796840D01*
X115062Y796840D01*
X115062Y787562D01*
G37*
G36*
X137703Y787562D02*
X138938Y787562D01*
X138938Y796840D01*
X129660Y796840D01*
X129660Y795604D01*
X131189Y791914D01*
X134013Y789090D01*
X137703Y787562D01*
G37*
G36*
X140462Y787562D02*
X141697Y787562D01*
X145387Y789090D01*
X148212Y791914D01*
X149740Y795604D01*
X149740Y796840D01*
X140462Y796840D01*
X140462Y787562D01*
G37*
G36*
X163103Y787562D02*
X164338Y787562D01*
X164338Y796840D01*
X155060Y796840D01*
X155060Y795604D01*
X156589Y791914D01*
X159413Y789090D01*
X163103Y787562D01*
G37*
G36*
X165862Y787562D02*
X167097Y787562D01*
X170787Y789090D01*
X173612Y791914D01*
X175140Y795604D01*
X175140Y796840D01*
X165862Y796840D01*
X165862Y787562D01*
G37*
G36*
X188503Y787562D02*
X189738Y787562D01*
X189738Y796840D01*
X180460Y796840D01*
X180460Y795604D01*
X181989Y791914D01*
X184813Y789090D01*
X188503Y787562D01*
G37*
G36*
X191262Y787562D02*
X192497Y787562D01*
X196187Y789090D01*
X199012Y791914D01*
X200540Y795604D01*
X200540Y796840D01*
X191262Y796840D01*
X191262Y787562D01*
G37*
G36*
X847556Y778255D02*
X866944Y778255D01*
X870305Y779647D01*
X872878Y782220D01*
X874270Y785581D01*
X874270Y789219D01*
X872878Y792580D01*
X870305Y795153D01*
X866944Y796545D01*
X847556Y796545D01*
X844195Y795153D01*
X841622Y792580D01*
X840230Y789219D01*
X840230Y785581D01*
X841622Y782220D01*
X844195Y779647D01*
X847556Y778255D01*
G37*
G36*
X1438585Y781812D02*
X1447038Y781812D01*
X1447038Y790265D01*
X1445967Y790265D01*
X1442580Y788862D01*
X1439988Y786270D01*
X1438585Y782883D01*
X1438585Y781812D01*
G37*
G36*
X1448562Y781812D02*
X1457015Y781812D01*
X1457015Y782883D01*
X1455612Y786270D01*
X1453020Y788862D01*
X1449633Y790265D01*
X1448562Y790265D01*
X1448562Y781812D01*
G37*
G36*
X985012Y776985D02*
X994197Y776985D01*
X998025Y778571D01*
X1000954Y781500D01*
X1002540Y785328D01*
X1002540Y786638D01*
X985012Y786638D01*
X985012Y776985D01*
G37*
G36*
X974303Y776985D02*
X983488Y776985D01*
X983488Y786638D01*
X965960Y786638D01*
X965960Y785328D01*
X967546Y781500D01*
X970475Y778571D01*
X974303Y776985D01*
G37*
G36*
X677024Y765180D02*
X694576Y765180D01*
X695320Y765924D01*
X695320Y783476D01*
X694576Y784220D01*
X677024Y784220D01*
X676280Y783476D01*
X676280Y765924D01*
X677024Y765180D01*
G37*
G36*
X575424Y765180D02*
X592976Y765180D01*
X593720Y765924D01*
X593720Y783476D01*
X592976Y784220D01*
X575424Y784220D01*
X574680Y783476D01*
X574680Y765924D01*
X575424Y765180D01*
G37*
G36*
X372224Y765180D02*
X389776Y765180D01*
X390520Y765924D01*
X390520Y783476D01*
X389776Y784220D01*
X372224Y784220D01*
X371480Y783476D01*
X371480Y765924D01*
X372224Y765180D01*
G37*
G36*
X473824Y765180D02*
X491376Y765180D01*
X492120Y765924D01*
X492120Y783476D01*
X491376Y784220D01*
X473824Y784220D01*
X473080Y783476D01*
X473080Y765924D01*
X473824Y765180D01*
G37*
G36*
X137956Y763432D02*
X141444Y763432D01*
X144668Y764767D01*
X147135Y767234D01*
X148470Y770457D01*
X148470Y773946D01*
X147135Y777169D01*
X144668Y779636D01*
X141444Y780972D01*
X137956Y780972D01*
X134732Y779636D01*
X132265Y777169D01*
X130930Y773946D01*
X130930Y770457D01*
X132265Y767234D01*
X134732Y764767D01*
X137956Y763432D01*
G37*
G36*
X163356Y763432D02*
X166844Y763432D01*
X170068Y764767D01*
X172535Y767234D01*
X173870Y770457D01*
X173870Y773946D01*
X172535Y777169D01*
X170068Y779636D01*
X166844Y780972D01*
X163356Y780972D01*
X160132Y779636D01*
X157665Y777169D01*
X156330Y773946D01*
X156330Y770457D01*
X157665Y767234D01*
X160132Y764767D01*
X163356Y763432D01*
G37*
G36*
X188756Y763432D02*
X192244Y763432D01*
X195468Y764767D01*
X197935Y767234D01*
X199270Y770457D01*
X199270Y773946D01*
X197935Y777169D01*
X195468Y779636D01*
X192244Y780972D01*
X188756Y780972D01*
X185532Y779636D01*
X183065Y777169D01*
X181730Y773946D01*
X181730Y770457D01*
X183065Y767234D01*
X185532Y764767D01*
X188756Y763432D01*
G37*
G36*
X112556Y763432D02*
X116044Y763432D01*
X119268Y764767D01*
X121735Y767234D01*
X123070Y770457D01*
X123070Y773946D01*
X121735Y777169D01*
X119268Y779636D01*
X116044Y780972D01*
X112556Y780972D01*
X109332Y779636D01*
X106865Y777169D01*
X105530Y773946D01*
X105530Y770457D01*
X106865Y767234D01*
X109332Y764767D01*
X112556Y763432D01*
G37*
G36*
X87156Y763432D02*
X90644Y763432D01*
X93868Y764767D01*
X96335Y767234D01*
X97670Y770457D01*
X97670Y773946D01*
X96335Y777169D01*
X93868Y779636D01*
X90644Y780972D01*
X87156Y780972D01*
X83932Y779636D01*
X81465Y777169D01*
X80130Y773946D01*
X80130Y770457D01*
X81465Y767234D01*
X83932Y764767D01*
X87156Y763432D01*
G37*
G36*
X61756Y763432D02*
X65244Y763432D01*
X68468Y764767D01*
X70935Y767234D01*
X72270Y770457D01*
X72270Y773946D01*
X70935Y777169D01*
X68468Y779636D01*
X65244Y780972D01*
X61756Y780972D01*
X58532Y779636D01*
X56065Y777169D01*
X54730Y773946D01*
X54730Y770457D01*
X56065Y767234D01*
X58532Y764767D01*
X61756Y763432D01*
G37*
G36*
X36356Y763432D02*
X39844Y763432D01*
X43068Y764767D01*
X45535Y767234D01*
X46870Y770457D01*
X46870Y773946D01*
X45535Y777169D01*
X43068Y779636D01*
X39844Y780972D01*
X36356Y780972D01*
X33132Y779636D01*
X30665Y777169D01*
X29330Y773946D01*
X29330Y770457D01*
X30665Y767234D01*
X33132Y764767D01*
X36356Y763432D01*
G37*
G36*
X4674Y763432D02*
X20726Y763432D01*
X21470Y764176D01*
X21470Y780228D01*
X20726Y780972D01*
X4674Y780972D01*
X3930Y780228D01*
X3930Y764176D01*
X4674Y763432D01*
G37*
G36*
X1448562Y771835D02*
X1449633Y771835D01*
X1453020Y773238D01*
X1455612Y775830D01*
X1457015Y779217D01*
X1457015Y780288D01*
X1448562Y780288D01*
X1448562Y771835D01*
G37*
G36*
X1445967Y771835D02*
X1447038Y771835D01*
X1447038Y780288D01*
X1438585Y780288D01*
X1438585Y779217D01*
X1439988Y775830D01*
X1442580Y773238D01*
X1445967Y771835D01*
G37*
G36*
X847556Y752855D02*
X866944Y752855D01*
X870305Y754247D01*
X872878Y756820D01*
X874270Y760181D01*
X874270Y763819D01*
X872878Y767180D01*
X870305Y769753D01*
X866944Y771145D01*
X847556Y771145D01*
X844195Y769753D01*
X841622Y767180D01*
X840230Y763819D01*
X840230Y760181D01*
X841622Y756820D01*
X844195Y754247D01*
X847556Y752855D01*
G37*
G36*
X974556Y752855D02*
X993944Y752855D01*
X997305Y754247D01*
X999878Y756820D01*
X1000490Y758298D01*
X1000647Y758536D01*
X1000897Y758708D01*
X1001194Y758768D01*
X1052589Y758768D01*
X1052869Y758715D01*
X1053123Y758549D01*
X1053293Y758298D01*
X1054032Y756512D01*
X1056162Y754382D01*
X1058944Y753230D01*
X1061956Y753230D01*
X1064738Y754382D01*
X1066868Y756512D01*
X1068020Y759294D01*
X1068020Y762306D01*
X1066868Y765088D01*
X1064738Y767218D01*
X1061956Y768370D01*
X1058944Y768370D01*
X1056162Y767218D01*
X1054032Y765088D01*
X1053293Y763302D01*
X1053136Y763064D01*
X1052886Y762892D01*
X1052589Y762832D01*
X1002032Y762832D01*
X1001757Y762883D01*
X1001502Y763047D01*
X1001330Y763297D01*
X1001270Y763594D01*
X1001270Y763819D01*
X999878Y767180D01*
X997305Y769753D01*
X993944Y771145D01*
X974556Y771145D01*
X971195Y769753D01*
X968622Y767180D01*
X967230Y763819D01*
X967230Y760181D01*
X968622Y756820D01*
X971195Y754247D01*
X974556Y752855D01*
G37*
G36*
X847556Y727455D02*
X866944Y727455D01*
X870305Y728847D01*
X872878Y731420D01*
X874270Y734781D01*
X874270Y738419D01*
X872878Y741780D01*
X870305Y744353D01*
X866944Y745745D01*
X847556Y745745D01*
X844195Y744353D01*
X841622Y741780D01*
X840230Y738419D01*
X840230Y734781D01*
X841622Y731420D01*
X844195Y728847D01*
X847556Y727455D01*
G37*
G36*
X974556Y727455D02*
X993944Y727455D01*
X997305Y728847D01*
X999878Y731420D01*
X1000656Y733298D01*
X1000812Y733536D01*
X1001062Y733708D01*
X1001360Y733768D01*
X1052589Y733768D01*
X1052869Y733715D01*
X1053123Y733549D01*
X1053293Y733298D01*
X1054032Y731512D01*
X1056162Y729382D01*
X1058944Y728230D01*
X1061956Y728230D01*
X1064738Y729382D01*
X1066868Y731512D01*
X1068020Y734294D01*
X1068020Y737306D01*
X1066868Y740088D01*
X1064738Y742218D01*
X1061956Y743370D01*
X1058944Y743370D01*
X1056162Y742218D01*
X1054032Y740088D01*
X1053293Y738302D01*
X1053136Y738064D01*
X1052886Y737892D01*
X1052589Y737832D01*
X1002022Y737832D01*
X1001742Y737885D01*
X1001488Y738051D01*
X1001318Y738302D01*
X999878Y741780D01*
X997305Y744353D01*
X993944Y745745D01*
X974556Y745745D01*
X971195Y744353D01*
X968622Y741780D01*
X967230Y738419D01*
X967230Y734781D01*
X968622Y731420D01*
X971195Y728847D01*
X974556Y727455D01*
G37*
G36*
X1499362Y705612D02*
X1516140Y705612D01*
X1516140Y708339D01*
X1513470Y714786D01*
X1508536Y719720D01*
X1502089Y722390D01*
X1499362Y722390D01*
X1499362Y705612D01*
G37*
G36*
X1481060Y705612D02*
X1497838Y705612D01*
X1497838Y722390D01*
X1495111Y722390D01*
X1488664Y719720D01*
X1483730Y714786D01*
X1481060Y708339D01*
X1481060Y705612D01*
G37*
G36*
X847556Y702055D02*
X866944Y702055D01*
X870305Y703447D01*
X872878Y706020D01*
X874270Y709381D01*
X874270Y713019D01*
X872878Y716380D01*
X870305Y718953D01*
X866944Y720345D01*
X847556Y720345D01*
X844195Y718953D01*
X841622Y716380D01*
X840230Y713019D01*
X840230Y709381D01*
X841622Y706020D01*
X844195Y703447D01*
X847556Y702055D01*
G37*
G36*
X974556Y702055D02*
X993944Y702055D01*
X997305Y703447D01*
X999878Y706020D01*
X1000821Y708298D01*
X1000978Y708536D01*
X1001228Y708708D01*
X1001525Y708768D01*
X1052589Y708768D01*
X1052869Y708715D01*
X1053123Y708549D01*
X1053293Y708298D01*
X1054032Y706512D01*
X1056162Y704382D01*
X1058944Y703230D01*
X1061956Y703230D01*
X1064738Y704382D01*
X1066868Y706512D01*
X1068020Y709294D01*
X1068020Y712306D01*
X1066868Y715088D01*
X1064738Y717218D01*
X1061956Y718370D01*
X1058944Y718370D01*
X1056162Y717218D01*
X1054032Y715088D01*
X1053293Y713302D01*
X1053136Y713064D01*
X1052886Y712892D01*
X1052589Y712832D01*
X1001857Y712832D01*
X1001576Y712885D01*
X1001322Y713051D01*
X1001153Y713302D01*
X999878Y716380D01*
X997305Y718953D01*
X993944Y720345D01*
X974556Y720345D01*
X971195Y718953D01*
X968622Y716380D01*
X967230Y713019D01*
X967230Y709381D01*
X968622Y706020D01*
X971195Y703447D01*
X974556Y702055D01*
G37*
G36*
X1499362Y687310D02*
X1502089Y687310D01*
X1508536Y689980D01*
X1513470Y694914D01*
X1516140Y701361D01*
X1516140Y704088D01*
X1499362Y704088D01*
X1499362Y687310D01*
G37*
G36*
X1495111Y687310D02*
X1497838Y687310D01*
X1497838Y704088D01*
X1481060Y704088D01*
X1481060Y701361D01*
X1483730Y694914D01*
X1488664Y689980D01*
X1495111Y687310D01*
G37*
G36*
X104260Y686562D02*
X113538Y686562D01*
X113538Y695840D01*
X112303Y695840D01*
X108613Y694312D01*
X105789Y691487D01*
X104260Y687797D01*
X104260Y686562D01*
G37*
G36*
X140462Y686562D02*
X149740Y686562D01*
X149740Y687797D01*
X148212Y691487D01*
X145387Y694312D01*
X141697Y695840D01*
X140462Y695840D01*
X140462Y686562D01*
G37*
G36*
X89662Y686562D02*
X98940Y686562D01*
X98940Y687797D01*
X97412Y691487D01*
X94587Y694312D01*
X90897Y695840D01*
X89662Y695840D01*
X89662Y686562D01*
G37*
G36*
X64262Y686562D02*
X73540Y686562D01*
X73540Y687797D01*
X72012Y691487D01*
X69187Y694312D01*
X65497Y695840D01*
X64262Y695840D01*
X64262Y686562D01*
G37*
G36*
X78860Y686562D02*
X88138Y686562D01*
X88138Y695840D01*
X86903Y695840D01*
X83213Y694312D01*
X80389Y691487D01*
X78860Y687797D01*
X78860Y686562D01*
G37*
G36*
X53460Y686562D02*
X62738Y686562D01*
X62738Y695840D01*
X61503Y695840D01*
X57813Y694312D01*
X54989Y691487D01*
X53460Y687797D01*
X53460Y686562D01*
G37*
G36*
X180460Y686562D02*
X189738Y686562D01*
X189738Y695840D01*
X188503Y695840D01*
X184813Y694312D01*
X181989Y691487D01*
X180460Y687797D01*
X180460Y686562D01*
G37*
G36*
X155060Y686562D02*
X164338Y686562D01*
X164338Y695840D01*
X163103Y695840D01*
X159413Y694312D01*
X156589Y691487D01*
X155060Y687797D01*
X155060Y686562D01*
G37*
G36*
X129660Y686562D02*
X138938Y686562D01*
X138938Y695840D01*
X137703Y695840D01*
X134013Y694312D01*
X131189Y691487D01*
X129660Y687797D01*
X129660Y686562D01*
G37*
G36*
X191262Y686562D02*
X200540Y686562D01*
X200540Y687797D01*
X199012Y691487D01*
X196187Y694312D01*
X192497Y695840D01*
X191262Y695840D01*
X191262Y686562D01*
G37*
G36*
X28060Y686562D02*
X37338Y686562D01*
X37338Y695840D01*
X36103Y695840D01*
X32413Y694312D01*
X29589Y691487D01*
X28060Y687797D01*
X28060Y686562D01*
G37*
G36*
X2660Y686562D02*
X11938Y686562D01*
X11938Y695840D01*
X10703Y695840D01*
X7013Y694312D01*
X4189Y691487D01*
X2660Y687797D01*
X2660Y686562D01*
G37*
G36*
X13462Y686562D02*
X22740Y686562D01*
X22740Y687797D01*
X21212Y691487D01*
X18387Y694312D01*
X14697Y695840D01*
X13462Y695840D01*
X13462Y686562D01*
G37*
G36*
X38862Y686562D02*
X48140Y686562D01*
X48140Y687797D01*
X46612Y691487D01*
X43787Y694312D01*
X40097Y695840D01*
X38862Y695840D01*
X38862Y686562D01*
G37*
G36*
X115062Y686562D02*
X124340Y686562D01*
X124340Y687797D01*
X122812Y691487D01*
X119987Y694312D01*
X116297Y695840D01*
X115062Y695840D01*
X115062Y686562D01*
G37*
G36*
X165862Y686562D02*
X175140Y686562D01*
X175140Y687797D01*
X173612Y691487D01*
X170787Y694312D01*
X167097Y695840D01*
X165862Y695840D01*
X165862Y686562D01*
G37*
G36*
X847556Y676655D02*
X866944Y676655D01*
X870305Y678047D01*
X872878Y680620D01*
X874270Y683981D01*
X874270Y687619D01*
X872878Y690980D01*
X870305Y693553D01*
X866944Y694945D01*
X847556Y694945D01*
X844195Y693553D01*
X841622Y690980D01*
X840230Y687619D01*
X840230Y683981D01*
X841622Y680620D01*
X844195Y678047D01*
X847556Y676655D01*
G37*
G36*
X974556Y676655D02*
X993944Y676655D01*
X997305Y678047D01*
X999878Y680620D01*
X1000987Y683298D01*
X1001144Y683536D01*
X1001394Y683708D01*
X1001691Y683768D01*
X1052589Y683768D01*
X1052869Y683715D01*
X1053123Y683549D01*
X1053293Y683298D01*
X1054032Y681512D01*
X1056162Y679382D01*
X1058944Y678230D01*
X1061956Y678230D01*
X1064738Y679382D01*
X1066868Y681512D01*
X1068020Y684294D01*
X1068020Y687306D01*
X1066868Y690088D01*
X1064738Y692218D01*
X1061956Y693370D01*
X1058944Y693370D01*
X1056162Y692218D01*
X1054032Y690088D01*
X1053293Y688302D01*
X1053136Y688064D01*
X1052886Y687892D01*
X1052589Y687832D01*
X1001691Y687832D01*
X1001411Y687885D01*
X1001156Y688051D01*
X1000987Y688302D01*
X999878Y690980D01*
X997305Y693553D01*
X993944Y694945D01*
X974556Y694945D01*
X971195Y693553D01*
X968622Y690980D01*
X967230Y687619D01*
X967230Y683981D01*
X968622Y680620D01*
X971195Y678047D01*
X974556Y676655D01*
G37*
G36*
X112303Y675760D02*
X113538Y675760D01*
X113538Y685038D01*
X104260Y685038D01*
X104260Y683803D01*
X105789Y680113D01*
X108613Y677289D01*
X112303Y675760D01*
G37*
G36*
X64262Y675760D02*
X65497Y675760D01*
X69187Y677289D01*
X72012Y680113D01*
X73540Y683803D01*
X73540Y685038D01*
X64262Y685038D01*
X64262Y675760D01*
G37*
G36*
X61503Y675760D02*
X62738Y675760D01*
X62738Y685038D01*
X53460Y685038D01*
X53460Y683803D01*
X54989Y680113D01*
X57813Y677289D01*
X61503Y675760D01*
G37*
G36*
X38862Y675760D02*
X40097Y675760D01*
X43787Y677289D01*
X46612Y680113D01*
X48140Y683803D01*
X48140Y685038D01*
X38862Y685038D01*
X38862Y675760D01*
G37*
G36*
X36103Y675760D02*
X37338Y675760D01*
X37338Y685038D01*
X28060Y685038D01*
X28060Y683803D01*
X29589Y680113D01*
X32413Y677289D01*
X36103Y675760D01*
G37*
G36*
X13462Y675760D02*
X14697Y675760D01*
X18387Y677289D01*
X21212Y680113D01*
X22740Y683803D01*
X22740Y685038D01*
X13462Y685038D01*
X13462Y675760D01*
G37*
G36*
X10703Y675760D02*
X11938Y675760D01*
X11938Y685038D01*
X2660Y685038D01*
X2660Y683803D01*
X4189Y680113D01*
X7013Y677289D01*
X10703Y675760D01*
G37*
G36*
X191262Y675760D02*
X192497Y675760D01*
X196187Y677289D01*
X199012Y680113D01*
X200540Y683803D01*
X200540Y685038D01*
X191262Y685038D01*
X191262Y675760D01*
G37*
G36*
X188503Y675760D02*
X189738Y675760D01*
X189738Y685038D01*
X180460Y685038D01*
X180460Y683803D01*
X181989Y680113D01*
X184813Y677289D01*
X188503Y675760D01*
G37*
G36*
X165862Y675760D02*
X167097Y675760D01*
X170787Y677289D01*
X173612Y680113D01*
X175140Y683803D01*
X175140Y685038D01*
X165862Y685038D01*
X165862Y675760D01*
G37*
G36*
X163103Y675760D02*
X164338Y675760D01*
X164338Y685038D01*
X155060Y685038D01*
X155060Y683803D01*
X156589Y680113D01*
X159413Y677289D01*
X163103Y675760D01*
G37*
G36*
X140462Y675760D02*
X141697Y675760D01*
X145387Y677289D01*
X148212Y680113D01*
X149740Y683803D01*
X149740Y685038D01*
X140462Y685038D01*
X140462Y675760D01*
G37*
G36*
X137703Y675760D02*
X138938Y675760D01*
X138938Y685038D01*
X129660Y685038D01*
X129660Y683803D01*
X131189Y680113D01*
X134013Y677289D01*
X137703Y675760D01*
G37*
G36*
X115062Y675760D02*
X116297Y675760D01*
X119987Y677289D01*
X122812Y680113D01*
X124340Y683803D01*
X124340Y685038D01*
X115062Y685038D01*
X115062Y675760D01*
G37*
G36*
X86903Y675760D02*
X88138Y675760D01*
X88138Y685038D01*
X78860Y685038D01*
X78860Y683803D01*
X80389Y680113D01*
X83213Y677289D01*
X86903Y675760D01*
G37*
G36*
X89662Y675760D02*
X90897Y675760D01*
X94587Y677289D01*
X97412Y680113D01*
X98940Y683803D01*
X98940Y685038D01*
X89662Y685038D01*
X89662Y675760D01*
G37*
G36*
X727824Y663580D02*
X745376Y663580D01*
X746120Y664324D01*
X746120Y681876D01*
X745376Y682620D01*
X727824Y682620D01*
X727080Y681876D01*
X727080Y664324D01*
X727824Y663580D01*
G37*
G36*
X626224Y663580D02*
X643776Y663580D01*
X644520Y664324D01*
X644520Y681876D01*
X643776Y682620D01*
X626224Y682620D01*
X625480Y681876D01*
X625480Y664324D01*
X626224Y663580D01*
G37*
G36*
X524624Y663580D02*
X542176Y663580D01*
X542920Y664324D01*
X542920Y681876D01*
X542176Y682620D01*
X524624Y682620D01*
X523880Y681876D01*
X523880Y664324D01*
X524624Y663580D01*
G37*
G36*
X423024Y663580D02*
X440576Y663580D01*
X441320Y664324D01*
X441320Y681876D01*
X440576Y682620D01*
X423024Y682620D01*
X422280Y681876D01*
X422280Y664324D01*
X423024Y663580D01*
G37*
G36*
X321424Y663580D02*
X338976Y663580D01*
X339720Y664324D01*
X339720Y681876D01*
X338976Y682620D01*
X321424Y682620D01*
X320680Y681876D01*
X320680Y664324D01*
X321424Y663580D01*
G37*
G36*
X974556Y651255D02*
X993944Y651255D01*
X997305Y652647D01*
X999878Y655220D01*
X1001270Y658581D01*
X1001270Y662219D01*
X999878Y665580D01*
X997305Y668153D01*
X993944Y669545D01*
X974556Y669545D01*
X971195Y668153D01*
X968622Y665580D01*
X967230Y662219D01*
X967230Y658581D01*
X968622Y655220D01*
X971195Y652647D01*
X974556Y651255D01*
G37*
G36*
X847556Y651255D02*
X866944Y651255D01*
X870305Y652647D01*
X872878Y655220D01*
X874270Y658581D01*
X874270Y662219D01*
X872878Y665580D01*
X870305Y668153D01*
X866944Y669545D01*
X847556Y669545D01*
X844195Y668153D01*
X841622Y665580D01*
X840230Y662219D01*
X840230Y658581D01*
X841622Y655220D01*
X844195Y652647D01*
X847556Y651255D01*
G37*
G36*
X36356Y651630D02*
X39844Y651630D01*
X43068Y652965D01*
X45535Y655432D01*
X46870Y658656D01*
X46870Y662144D01*
X45535Y665368D01*
X43068Y667835D01*
X39844Y669170D01*
X36356Y669170D01*
X33132Y667835D01*
X30665Y665368D01*
X29330Y662144D01*
X29330Y658656D01*
X30665Y655432D01*
X33132Y652965D01*
X36356Y651630D01*
G37*
G36*
X61756Y651630D02*
X65244Y651630D01*
X68468Y652965D01*
X70935Y655432D01*
X72270Y658656D01*
X72270Y662144D01*
X70935Y665368D01*
X68468Y667835D01*
X65244Y669170D01*
X61756Y669170D01*
X58532Y667835D01*
X56065Y665368D01*
X54730Y662144D01*
X54730Y658656D01*
X56065Y655432D01*
X58532Y652965D01*
X61756Y651630D01*
G37*
G36*
X4674Y651630D02*
X20726Y651630D01*
X21470Y652374D01*
X21470Y668426D01*
X20726Y669170D01*
X4674Y669170D01*
X3930Y668426D01*
X3930Y652374D01*
X4674Y651630D01*
G37*
G36*
X137956Y651630D02*
X141444Y651630D01*
X144668Y652965D01*
X147135Y655432D01*
X148470Y658656D01*
X148470Y662144D01*
X147135Y665368D01*
X144668Y667835D01*
X141444Y669170D01*
X137956Y669170D01*
X134732Y667835D01*
X132265Y665368D01*
X130930Y662144D01*
X130930Y658656D01*
X132265Y655432D01*
X134732Y652965D01*
X137956Y651630D01*
G37*
G36*
X188756Y651630D02*
X192244Y651630D01*
X195468Y652965D01*
X197935Y655432D01*
X199270Y658656D01*
X199270Y662144D01*
X197935Y665368D01*
X195468Y667835D01*
X192244Y669170D01*
X188756Y669170D01*
X185532Y667835D01*
X183065Y665368D01*
X181730Y662144D01*
X181730Y658656D01*
X183065Y655432D01*
X185532Y652965D01*
X188756Y651630D01*
G37*
G36*
X163356Y651630D02*
X166844Y651630D01*
X170068Y652965D01*
X172535Y655432D01*
X173870Y658656D01*
X173870Y662144D01*
X172535Y665368D01*
X170068Y667835D01*
X166844Y669170D01*
X163356Y669170D01*
X160132Y667835D01*
X157665Y665368D01*
X156330Y662144D01*
X156330Y658656D01*
X157665Y655432D01*
X160132Y652965D01*
X163356Y651630D01*
G37*
G36*
X112556Y651630D02*
X116044Y651630D01*
X119268Y652965D01*
X121735Y655432D01*
X123070Y658656D01*
X123070Y662144D01*
X121735Y665368D01*
X119268Y667835D01*
X116044Y669170D01*
X112556Y669170D01*
X109332Y667835D01*
X106865Y665368D01*
X105530Y662144D01*
X105530Y658656D01*
X106865Y655432D01*
X109332Y652965D01*
X112556Y651630D01*
G37*
G36*
X87156Y651630D02*
X90644Y651630D01*
X93868Y652965D01*
X96335Y655432D01*
X97670Y658656D01*
X97670Y662144D01*
X96335Y665368D01*
X93868Y667835D01*
X90644Y669170D01*
X87156Y669170D01*
X83932Y667835D01*
X81465Y665368D01*
X80130Y662144D01*
X80130Y658656D01*
X81465Y655432D01*
X83932Y652965D01*
X87156Y651630D01*
G37*
G36*
X965960Y635762D02*
X983488Y635762D01*
X983488Y645415D01*
X974303Y645415D01*
X970475Y643829D01*
X967546Y640900D01*
X965960Y637072D01*
X965960Y635762D01*
G37*
G36*
X985012Y635762D02*
X1002540Y635762D01*
X1002540Y637072D01*
X1000954Y640900D01*
X998025Y643829D01*
X994197Y645415D01*
X985012Y645415D01*
X985012Y635762D01*
G37*
G36*
X847556Y625855D02*
X866944Y625855D01*
X870305Y627247D01*
X872878Y629820D01*
X874270Y633181D01*
X874270Y636819D01*
X872878Y640180D01*
X870305Y642753D01*
X866944Y644145D01*
X847556Y644145D01*
X844195Y642753D01*
X841622Y640180D01*
X840230Y636819D01*
X840230Y633181D01*
X841622Y629820D01*
X844195Y627247D01*
X847556Y625855D01*
G37*
G36*
X974303Y624585D02*
X983488Y624585D01*
X983488Y634238D01*
X965960Y634238D01*
X965960Y632928D01*
X967546Y629100D01*
X970475Y626171D01*
X974303Y624585D01*
G37*
G36*
X985012Y624585D02*
X994197Y624585D01*
X998025Y626171D01*
X1000954Y629100D01*
X1002540Y632928D01*
X1002540Y634238D01*
X985012Y634238D01*
X985012Y624585D01*
G37*
G36*
X1499362Y616712D02*
X1516140Y616712D01*
X1516140Y619439D01*
X1513470Y625886D01*
X1508536Y630820D01*
X1502089Y633490D01*
X1499362Y633490D01*
X1499362Y616712D01*
G37*
G36*
X1481060Y616712D02*
X1497838Y616712D01*
X1497838Y633490D01*
X1495111Y633490D01*
X1488664Y630820D01*
X1483730Y625886D01*
X1481060Y619439D01*
X1481060Y616712D01*
G37*
G36*
X1495111Y598410D02*
X1497838Y598410D01*
X1497838Y615188D01*
X1481060Y615188D01*
X1481060Y612461D01*
X1483730Y606014D01*
X1488664Y601080D01*
X1495111Y598410D01*
G37*
G36*
X1499362Y598410D02*
X1502089Y598410D01*
X1508536Y601080D01*
X1513470Y606014D01*
X1516140Y612461D01*
X1516140Y615188D01*
X1499362Y615188D01*
X1499362Y598410D01*
G37*
G36*
X1438585Y591312D02*
X1447038Y591312D01*
X1447038Y599765D01*
X1445967Y599765D01*
X1442580Y598362D01*
X1439988Y595770D01*
X1438585Y592383D01*
X1438585Y591312D01*
G37*
G36*
X1448562Y591312D02*
X1457015Y591312D01*
X1457015Y592383D01*
X1455612Y595770D01*
X1453020Y598362D01*
X1449633Y599765D01*
X1448562Y599765D01*
X1448562Y591312D01*
G37*
G36*
X1445967Y581335D02*
X1447038Y581335D01*
X1447038Y589788D01*
X1438585Y589788D01*
X1438585Y588717D01*
X1439988Y585330D01*
X1442580Y582738D01*
X1445967Y581335D01*
G37*
G36*
X1448562Y581335D02*
X1449633Y581335D01*
X1453020Y582738D01*
X1455612Y585330D01*
X1457015Y588717D01*
X1457015Y589788D01*
X1448562Y589788D01*
X1448562Y581335D01*
G37*
G36*
X13462Y572262D02*
X22740Y572262D01*
X22740Y573497D01*
X21212Y577187D01*
X18387Y580012D01*
X14697Y581540D01*
X13462Y581540D01*
X13462Y572262D01*
G37*
G36*
X89662Y572262D02*
X98940Y572262D01*
X98940Y573497D01*
X97412Y577187D01*
X94587Y580012D01*
X90897Y581540D01*
X89662Y581540D01*
X89662Y572262D01*
G37*
G36*
X78860Y572262D02*
X88138Y572262D01*
X88138Y581540D01*
X86903Y581540D01*
X83213Y580012D01*
X80389Y577187D01*
X78860Y573497D01*
X78860Y572262D01*
G37*
G36*
X2660Y572262D02*
X11938Y572262D01*
X11938Y581540D01*
X10703Y581540D01*
X7013Y580012D01*
X4189Y577187D01*
X2660Y573497D01*
X2660Y572262D01*
G37*
G36*
X28060Y572262D02*
X37338Y572262D01*
X37338Y581540D01*
X36103Y581540D01*
X32413Y580012D01*
X29589Y577187D01*
X28060Y573497D01*
X28060Y572262D01*
G37*
G36*
X180460Y572262D02*
X189738Y572262D01*
X189738Y581540D01*
X188503Y581540D01*
X184813Y580012D01*
X181989Y577187D01*
X180460Y573497D01*
X180460Y572262D01*
G37*
G36*
X155060Y572262D02*
X164338Y572262D01*
X164338Y581540D01*
X163103Y581540D01*
X159413Y580012D01*
X156589Y577187D01*
X155060Y573497D01*
X155060Y572262D01*
G37*
G36*
X129660Y572262D02*
X138938Y572262D01*
X138938Y581540D01*
X137703Y581540D01*
X134013Y580012D01*
X131189Y577187D01*
X129660Y573497D01*
X129660Y572262D01*
G37*
G36*
X104260Y572262D02*
X113538Y572262D01*
X113538Y581540D01*
X112303Y581540D01*
X108613Y580012D01*
X105789Y577187D01*
X104260Y573497D01*
X104260Y572262D01*
G37*
G36*
X53460Y572262D02*
X62738Y572262D01*
X62738Y581540D01*
X61503Y581540D01*
X57813Y580012D01*
X54989Y577187D01*
X53460Y573497D01*
X53460Y572262D01*
G37*
G36*
X64262Y572262D02*
X73540Y572262D01*
X73540Y573497D01*
X72012Y577187D01*
X69187Y580012D01*
X65497Y581540D01*
X64262Y581540D01*
X64262Y572262D01*
G37*
G36*
X115062Y572262D02*
X124340Y572262D01*
X124340Y573497D01*
X122812Y577187D01*
X119987Y580012D01*
X116297Y581540D01*
X115062Y581540D01*
X115062Y572262D01*
G37*
G36*
X140462Y572262D02*
X149740Y572262D01*
X149740Y573497D01*
X148212Y577187D01*
X145387Y580012D01*
X141697Y581540D01*
X140462Y581540D01*
X140462Y572262D01*
G37*
G36*
X165862Y572262D02*
X175140Y572262D01*
X175140Y573497D01*
X173612Y577187D01*
X170787Y580012D01*
X167097Y581540D01*
X165862Y581540D01*
X165862Y572262D01*
G37*
G36*
X191262Y572262D02*
X200540Y572262D01*
X200540Y573497D01*
X199012Y577187D01*
X196187Y580012D01*
X192497Y581540D01*
X191262Y581540D01*
X191262Y572262D01*
G37*
G36*
X38862Y572262D02*
X48140Y572262D01*
X48140Y573497D01*
X46612Y577187D01*
X43787Y580012D01*
X40097Y581540D01*
X38862Y581540D01*
X38862Y572262D01*
G37*
G36*
X61503Y561460D02*
X62738Y561460D01*
X62738Y570738D01*
X53460Y570738D01*
X53460Y569503D01*
X54989Y565813D01*
X57813Y562989D01*
X61503Y561460D01*
G37*
G36*
X191262Y561460D02*
X192497Y561460D01*
X196187Y562989D01*
X199012Y565813D01*
X200540Y569503D01*
X200540Y570738D01*
X191262Y570738D01*
X191262Y561460D01*
G37*
G36*
X188503Y561460D02*
X189738Y561460D01*
X189738Y570738D01*
X180460Y570738D01*
X180460Y569503D01*
X181989Y565813D01*
X184813Y562989D01*
X188503Y561460D01*
G37*
G36*
X165862Y561460D02*
X167097Y561460D01*
X170787Y562989D01*
X173612Y565813D01*
X175140Y569503D01*
X175140Y570738D01*
X165862Y570738D01*
X165862Y561460D01*
G37*
G36*
X163103Y561460D02*
X164338Y561460D01*
X164338Y570738D01*
X155060Y570738D01*
X155060Y569503D01*
X156589Y565813D01*
X159413Y562989D01*
X163103Y561460D01*
G37*
G36*
X140462Y561460D02*
X141697Y561460D01*
X145387Y562989D01*
X148212Y565813D01*
X149740Y569503D01*
X149740Y570738D01*
X140462Y570738D01*
X140462Y561460D01*
G37*
G36*
X137703Y561460D02*
X138938Y561460D01*
X138938Y570738D01*
X129660Y570738D01*
X129660Y569503D01*
X131189Y565813D01*
X134013Y562989D01*
X137703Y561460D01*
G37*
G36*
X115062Y561460D02*
X116297Y561460D01*
X119987Y562989D01*
X122812Y565813D01*
X124340Y569503D01*
X124340Y570738D01*
X115062Y570738D01*
X115062Y561460D01*
G37*
G36*
X112303Y561460D02*
X113538Y561460D01*
X113538Y570738D01*
X104260Y570738D01*
X104260Y569503D01*
X105789Y565813D01*
X108613Y562989D01*
X112303Y561460D01*
G37*
G36*
X89662Y561460D02*
X90897Y561460D01*
X94587Y562989D01*
X97412Y565813D01*
X98940Y569503D01*
X98940Y570738D01*
X89662Y570738D01*
X89662Y561460D01*
G37*
G36*
X86903Y561460D02*
X88138Y561460D01*
X88138Y570738D01*
X78860Y570738D01*
X78860Y569503D01*
X80389Y565813D01*
X83213Y562989D01*
X86903Y561460D01*
G37*
G36*
X64262Y561460D02*
X65497Y561460D01*
X69187Y562989D01*
X72012Y565813D01*
X73540Y569503D01*
X73540Y570738D01*
X64262Y570738D01*
X64262Y561460D01*
G37*
G36*
X38862Y561460D02*
X40097Y561460D01*
X43787Y562989D01*
X46612Y565813D01*
X48140Y569503D01*
X48140Y570738D01*
X38862Y570738D01*
X38862Y561460D01*
G37*
G36*
X36103Y561460D02*
X37338Y561460D01*
X37338Y570738D01*
X28060Y570738D01*
X28060Y569503D01*
X29589Y565813D01*
X32413Y562989D01*
X36103Y561460D01*
G37*
G36*
X13462Y561460D02*
X14697Y561460D01*
X18387Y562989D01*
X21212Y565813D01*
X22740Y569503D01*
X22740Y570738D01*
X13462Y570738D01*
X13462Y561460D01*
G37*
G36*
X10703Y561460D02*
X11938Y561460D01*
X11938Y570738D01*
X2660Y570738D01*
X2660Y569503D01*
X4189Y565813D01*
X7013Y562989D01*
X10703Y561460D01*
G37*
G36*
X4674Y537330D02*
X20726Y537330D01*
X21470Y538074D01*
X21470Y554126D01*
X20726Y554870D01*
X4674Y554870D01*
X3930Y554126D01*
X3930Y538074D01*
X4674Y537330D01*
G37*
G36*
X36356Y537330D02*
X39844Y537330D01*
X43068Y538665D01*
X45535Y541132D01*
X46870Y544356D01*
X46870Y547844D01*
X45535Y551068D01*
X43068Y553535D01*
X39844Y554870D01*
X36356Y554870D01*
X33132Y553535D01*
X30665Y551068D01*
X29330Y547844D01*
X29330Y544356D01*
X30665Y541132D01*
X33132Y538665D01*
X36356Y537330D01*
G37*
G36*
X87156Y537330D02*
X90644Y537330D01*
X93868Y538665D01*
X96335Y541132D01*
X97670Y544356D01*
X97670Y547844D01*
X96335Y551068D01*
X93868Y553535D01*
X90644Y554870D01*
X87156Y554870D01*
X83932Y553535D01*
X81465Y551068D01*
X80130Y547844D01*
X80130Y544356D01*
X81465Y541132D01*
X83932Y538665D01*
X87156Y537330D01*
G37*
G36*
X112556Y537330D02*
X116044Y537330D01*
X119268Y538665D01*
X121735Y541132D01*
X123070Y544356D01*
X123070Y547844D01*
X121735Y551068D01*
X119268Y553535D01*
X116044Y554870D01*
X112556Y554870D01*
X109332Y553535D01*
X106865Y551068D01*
X105530Y547844D01*
X105530Y544356D01*
X106865Y541132D01*
X109332Y538665D01*
X112556Y537330D01*
G37*
G36*
X137956Y537330D02*
X141444Y537330D01*
X144668Y538665D01*
X147135Y541132D01*
X148470Y544356D01*
X148470Y547844D01*
X147135Y551068D01*
X144668Y553535D01*
X141444Y554870D01*
X137956Y554870D01*
X134732Y553535D01*
X132265Y551068D01*
X130930Y547844D01*
X130930Y544356D01*
X132265Y541132D01*
X134732Y538665D01*
X137956Y537330D01*
G37*
G36*
X163356Y537330D02*
X166844Y537330D01*
X170068Y538665D01*
X172535Y541132D01*
X173870Y544356D01*
X173870Y547844D01*
X172535Y551068D01*
X170068Y553535D01*
X166844Y554870D01*
X163356Y554870D01*
X160132Y553535D01*
X157665Y551068D01*
X156330Y547844D01*
X156330Y544356D01*
X157665Y541132D01*
X160132Y538665D01*
X163356Y537330D01*
G37*
G36*
X188756Y537330D02*
X192244Y537330D01*
X195468Y538665D01*
X197935Y541132D01*
X199270Y544356D01*
X199270Y547844D01*
X197935Y551068D01*
X195468Y553535D01*
X192244Y554870D01*
X188756Y554870D01*
X185532Y553535D01*
X183065Y551068D01*
X181730Y547844D01*
X181730Y544356D01*
X183065Y541132D01*
X185532Y538665D01*
X188756Y537330D01*
G37*
G36*
X61756Y537330D02*
X65244Y537330D01*
X68468Y538665D01*
X70935Y541132D01*
X72270Y544356D01*
X72270Y547844D01*
X70935Y551068D01*
X68468Y553535D01*
X65244Y554870D01*
X61756Y554870D01*
X58532Y553535D01*
X56065Y551068D01*
X54730Y547844D01*
X54730Y544356D01*
X56065Y541132D01*
X58532Y538665D01*
X61756Y537330D01*
G37*
G36*
X1235367Y516805D02*
X1238593Y516805D01*
X1240875Y519087D01*
X1240875Y522313D01*
X1238593Y524595D01*
X1235367Y524595D01*
X1233727Y522955D01*
X1233485Y522792D01*
X1233188Y522732D01*
X1186067Y522732D01*
X1185781Y522788D01*
X1185529Y522955D01*
X1172518Y535966D01*
X1172355Y536207D01*
X1172295Y536504D01*
X1172295Y538823D01*
X1170013Y541105D01*
X1166787Y541105D01*
X1164505Y538823D01*
X1164505Y535597D01*
X1166787Y533315D01*
X1169106Y533315D01*
X1169392Y533259D01*
X1169645Y533092D01*
X1184068Y518668D01*
X1233188Y518668D01*
X1233474Y518612D01*
X1233727Y518445D01*
X1235367Y516805D01*
G37*
G36*
X887494Y457890D02*
X890506Y457890D01*
X893288Y459042D01*
X895418Y461172D01*
X896157Y462958D01*
X896314Y463196D01*
X896564Y463368D01*
X896861Y463428D01*
X931939Y463428D01*
X932219Y463375D01*
X932473Y463209D01*
X932643Y462958D01*
X933382Y461172D01*
X935512Y459042D01*
X938294Y457890D01*
X941306Y457890D01*
X944088Y459042D01*
X946218Y461172D01*
X947370Y463954D01*
X947370Y466966D01*
X946218Y469748D01*
X944088Y471878D01*
X941306Y473030D01*
X938294Y473030D01*
X935512Y471878D01*
X933382Y469748D01*
X932643Y467962D01*
X932486Y467724D01*
X932236Y467552D01*
X931939Y467492D01*
X896861Y467492D01*
X896581Y467545D01*
X896327Y467711D01*
X896157Y467962D01*
X895418Y469748D01*
X893288Y471878D01*
X891502Y472617D01*
X891264Y472774D01*
X891092Y473024D01*
X891032Y473321D01*
X891032Y520888D01*
X891085Y521169D01*
X891251Y521423D01*
X891502Y521592D01*
X894393Y522789D01*
X897071Y525467D01*
X898520Y528966D01*
X898520Y532754D01*
X897071Y536253D01*
X894393Y538931D01*
X890894Y540380D01*
X887106Y540380D01*
X883607Y538931D01*
X880929Y536253D01*
X879480Y532754D01*
X879480Y528966D01*
X880929Y525467D01*
X883607Y522789D01*
X886498Y521592D01*
X886736Y521436D01*
X886908Y521185D01*
X886968Y520888D01*
X886968Y473321D01*
X886915Y473041D01*
X886749Y472787D01*
X886498Y472617D01*
X884712Y471878D01*
X882582Y469748D01*
X881430Y466966D01*
X881430Y463954D01*
X882582Y461172D01*
X884712Y459042D01*
X887494Y457890D01*
G37*
G36*
X1001794Y457890D02*
X1004806Y457890D01*
X1007588Y459042D01*
X1009718Y461172D01*
X1010457Y462958D01*
X1010614Y463196D01*
X1010864Y463368D01*
X1011161Y463428D01*
X1046239Y463428D01*
X1046519Y463375D01*
X1046773Y463209D01*
X1046943Y462958D01*
X1047682Y461172D01*
X1049812Y459042D01*
X1052594Y457890D01*
X1055606Y457890D01*
X1058388Y459042D01*
X1060518Y461172D01*
X1061670Y463954D01*
X1061670Y466966D01*
X1060518Y469748D01*
X1058388Y471878D01*
X1055606Y473030D01*
X1052594Y473030D01*
X1049812Y471878D01*
X1047682Y469748D01*
X1046943Y467962D01*
X1046786Y467724D01*
X1046536Y467552D01*
X1046239Y467492D01*
X1011161Y467492D01*
X1010881Y467545D01*
X1010627Y467711D01*
X1010457Y467962D01*
X1009718Y469748D01*
X1007588Y471878D01*
X1005802Y472617D01*
X1005564Y472774D01*
X1005392Y473024D01*
X1005332Y473321D01*
X1005332Y520888D01*
X1005385Y521169D01*
X1005551Y521423D01*
X1005802Y521592D01*
X1008693Y522789D01*
X1011371Y525467D01*
X1012820Y528966D01*
X1012820Y532754D01*
X1011371Y536253D01*
X1008693Y538931D01*
X1005194Y540380D01*
X1001406Y540380D01*
X997907Y538931D01*
X995229Y536253D01*
X993780Y532754D01*
X993780Y528966D01*
X995229Y525467D01*
X997907Y522789D01*
X1000798Y521592D01*
X1001036Y521436D01*
X1001208Y521185D01*
X1001268Y520888D01*
X1001268Y473321D01*
X1001215Y473041D01*
X1001049Y472787D01*
X1000798Y472617D01*
X999012Y471878D01*
X996882Y469748D01*
X995730Y466966D01*
X995730Y463954D01*
X996882Y461172D01*
X999012Y459042D01*
X1001794Y457890D01*
G37*
G36*
X1070724Y521340D02*
X1088276Y521340D01*
X1089020Y522084D01*
X1089020Y539636D01*
X1088276Y540380D01*
X1070724Y540380D01*
X1069980Y539636D01*
X1069980Y522084D01*
X1070724Y521340D01*
G37*
G36*
X1116094Y457890D02*
X1119106Y457890D01*
X1121888Y459042D01*
X1124018Y461172D01*
X1125170Y463954D01*
X1125170Y466966D01*
X1124018Y469748D01*
X1121888Y471878D01*
X1120102Y472617D01*
X1119864Y472774D01*
X1119692Y473024D01*
X1119632Y473321D01*
X1119632Y520888D01*
X1119685Y521169D01*
X1119851Y521423D01*
X1120102Y521592D01*
X1122993Y522789D01*
X1125671Y525467D01*
X1127120Y528966D01*
X1127120Y532754D01*
X1125671Y536253D01*
X1122993Y538931D01*
X1119494Y540380D01*
X1115706Y540380D01*
X1112207Y538931D01*
X1109529Y536253D01*
X1108080Y532754D01*
X1108080Y528966D01*
X1109529Y525467D01*
X1112207Y522789D01*
X1115098Y521592D01*
X1115336Y521436D01*
X1115508Y521185D01*
X1115568Y520888D01*
X1115568Y473321D01*
X1115515Y473041D01*
X1115349Y472787D01*
X1115098Y472617D01*
X1113312Y471878D01*
X1111182Y469748D01*
X1110030Y466966D01*
X1110030Y463954D01*
X1111182Y461172D01*
X1113312Y459042D01*
X1116094Y457890D01*
G37*
G36*
X956424Y521340D02*
X973976Y521340D01*
X974720Y522084D01*
X974720Y539636D01*
X973976Y540380D01*
X956424Y540380D01*
X955680Y539636D01*
X955680Y522084D01*
X956424Y521340D01*
G37*
G36*
X842124Y521340D02*
X859676Y521340D01*
X860420Y522084D01*
X860420Y539636D01*
X859676Y540380D01*
X842124Y540380D01*
X841380Y539636D01*
X841380Y522084D01*
X842124Y521340D01*
G37*
G36*
X328587Y529505D02*
X331813Y529505D01*
X333453Y531145D01*
X333695Y531308D01*
X333992Y531368D01*
X402608Y531368D01*
X402894Y531312D01*
X403147Y531145D01*
X404787Y529505D01*
X408013Y529505D01*
X410295Y531787D01*
X410295Y535013D01*
X408013Y537295D01*
X404787Y537295D01*
X403147Y535655D01*
X402905Y535492D01*
X402608Y535432D01*
X333992Y535432D01*
X333706Y535488D01*
X333453Y535655D01*
X331813Y537295D01*
X328587Y537295D01*
X326305Y535013D01*
X326305Y531787D01*
X328587Y529505D01*
G37*
G36*
X493687Y529505D02*
X496913Y529505D01*
X498553Y531145D01*
X498795Y531308D01*
X499092Y531368D01*
X627398Y531368D01*
X627684Y531312D01*
X627937Y531145D01*
X629577Y529505D01*
X632803Y529505D01*
X635085Y531787D01*
X635085Y535013D01*
X632803Y537295D01*
X629577Y537295D01*
X627937Y535655D01*
X627695Y535492D01*
X627398Y535432D01*
X499092Y535432D01*
X498806Y535488D01*
X498553Y535655D01*
X496913Y537295D01*
X493687Y537295D01*
X491405Y535013D01*
X491405Y531787D01*
X493687Y529505D01*
G37*
G36*
X1499362Y515112D02*
X1516140Y515112D01*
X1516140Y517839D01*
X1513470Y524286D01*
X1508536Y529220D01*
X1502089Y531890D01*
X1499362Y531890D01*
X1499362Y515112D01*
G37*
G36*
X1481060Y515112D02*
X1497838Y515112D01*
X1497838Y531890D01*
X1495111Y531890D01*
X1488664Y529220D01*
X1483730Y524286D01*
X1481060Y517839D01*
X1481060Y515112D01*
G37*
G36*
X328587Y516805D02*
X331813Y516805D01*
X333453Y518445D01*
X333695Y518608D01*
X333992Y518668D01*
X402608Y518668D01*
X402894Y518612D01*
X403147Y518445D01*
X404787Y516805D01*
X408013Y516805D01*
X410295Y519087D01*
X410295Y522313D01*
X408013Y524595D01*
X404787Y524595D01*
X403147Y522955D01*
X402905Y522792D01*
X402608Y522732D01*
X333992Y522732D01*
X333706Y522788D01*
X333453Y522955D01*
X331813Y524595D01*
X328587Y524595D01*
X326305Y522313D01*
X326305Y519087D01*
X328587Y516805D01*
G37*
G36*
X733041Y468268D02*
X740159Y468268D01*
X747034Y470110D01*
X753198Y473669D01*
X758231Y478702D01*
X761790Y484866D01*
X763632Y491741D01*
X763632Y498859D01*
X761790Y505734D01*
X758231Y511898D01*
X753198Y516931D01*
X747034Y520490D01*
X740159Y522332D01*
X733041Y522332D01*
X726166Y520490D01*
X720002Y516931D01*
X714969Y511898D01*
X711410Y505734D01*
X709568Y498859D01*
X709568Y491741D01*
X711410Y484866D01*
X714969Y478702D01*
X720002Y473669D01*
X726166Y470110D01*
X733041Y468268D01*
G37*
G36*
X1499362Y496810D02*
X1502089Y496810D01*
X1508536Y499480D01*
X1513470Y504414D01*
X1516140Y510861D01*
X1516140Y513588D01*
X1499362Y513588D01*
X1499362Y496810D01*
G37*
G36*
X1495111Y496810D02*
X1497838Y496810D01*
X1497838Y513588D01*
X1481060Y513588D01*
X1481060Y510861D01*
X1483730Y504414D01*
X1488664Y499480D01*
X1495111Y496810D01*
G37*
G36*
X1220331Y491405D02*
X1223557Y491405D01*
X1225839Y493687D01*
X1225839Y496913D01*
X1223557Y499195D01*
X1220331Y499195D01*
X1218049Y496913D01*
X1218049Y493687D01*
X1220331Y491405D01*
G37*
G36*
X569887Y467839D02*
X573113Y467839D01*
X575395Y470121D01*
X575395Y473347D01*
X573113Y475629D01*
X569887Y475629D01*
X568953Y474695D01*
X568711Y474532D01*
X568414Y474472D01*
X568367Y474472D01*
X568081Y474528D01*
X567829Y474695D01*
X550218Y492306D01*
X550055Y492547D01*
X549995Y492844D01*
X549995Y495163D01*
X547713Y497445D01*
X544487Y497445D01*
X542205Y495163D01*
X542205Y491937D01*
X544487Y489655D01*
X546806Y489655D01*
X547092Y489599D01*
X547345Y489432D01*
X566368Y470408D01*
X567002Y470408D01*
X567288Y470352D01*
X567541Y470185D01*
X569887Y467839D01*
G37*
G36*
X607987Y468545D02*
X611213Y468545D01*
X613495Y470827D01*
X613495Y474053D01*
X611213Y476335D01*
X607987Y476335D01*
X606347Y474695D01*
X606105Y474532D01*
X605808Y474472D01*
X593739Y474472D01*
X593453Y474528D01*
X593201Y474695D01*
X575618Y492278D01*
X575455Y492519D01*
X575395Y492816D01*
X575395Y495135D01*
X573113Y497417D01*
X569887Y497417D01*
X567605Y495135D01*
X567605Y491909D01*
X569887Y489627D01*
X572206Y489627D01*
X572492Y489571D01*
X572745Y489404D01*
X591740Y470408D01*
X605808Y470408D01*
X606094Y470352D01*
X606347Y470185D01*
X607987Y468545D01*
G37*
G36*
X11087Y453305D02*
X14313Y453305D01*
X16595Y455587D01*
X16595Y458813D01*
X14313Y461095D01*
X11087Y461095D01*
X8805Y458813D01*
X8805Y455587D01*
X11087Y453305D01*
G37*
G36*
X1228341Y404768D02*
X1235459Y404768D01*
X1242334Y406610D01*
X1248498Y410169D01*
X1253531Y415202D01*
X1257090Y421366D01*
X1258932Y428241D01*
X1258932Y435359D01*
X1257090Y442234D01*
X1253531Y448398D01*
X1248498Y453431D01*
X1242334Y456990D01*
X1235459Y458832D01*
X1228341Y458832D01*
X1221466Y456990D01*
X1215302Y453431D01*
X1210269Y448398D01*
X1206710Y442234D01*
X1204868Y435359D01*
X1204868Y428241D01*
X1206710Y421366D01*
X1210269Y415202D01*
X1215302Y410169D01*
X1221466Y406610D01*
X1228341Y404768D01*
G37*
G36*
X326641Y404768D02*
X333759Y404768D01*
X340634Y406610D01*
X346798Y410169D01*
X351831Y415202D01*
X355390Y421366D01*
X357232Y428241D01*
X357232Y435359D01*
X355390Y442234D01*
X351831Y448398D01*
X346798Y453431D01*
X340634Y456990D01*
X333759Y458832D01*
X326641Y458832D01*
X319766Y456990D01*
X313602Y453431D01*
X308569Y448398D01*
X305010Y442234D01*
X303168Y435359D01*
X303168Y428241D01*
X305010Y421366D01*
X308569Y415202D01*
X313602Y410169D01*
X319766Y406610D01*
X326641Y404768D01*
G37*
G36*
X-17140Y438912D02*
X-7112Y438912D01*
X-7112Y448940D01*
X-8496Y448940D01*
X-12462Y447297D01*
X-15497Y444262D01*
X-17140Y440296D01*
X-17140Y438912D01*
G37*
G36*
X-5588Y438912D02*
X4440Y438912D01*
X4440Y440296D01*
X2797Y444262D01*
X-238Y447297D01*
X-4204Y448940D01*
X-5588Y448940D01*
X-5588Y438912D01*
G37*
G36*
X470827Y163717D02*
X474053Y163717D01*
X476335Y165999D01*
X476335Y167896D01*
X476386Y168171D01*
X476550Y168426D01*
X476800Y168598D01*
X477097Y168658D01*
X670983Y168658D01*
X671258Y168607D01*
X671513Y168443D01*
X671685Y168193D01*
X671745Y167896D01*
X671745Y165999D01*
X674027Y163717D01*
X677253Y163717D01*
X679535Y165999D01*
X679535Y167896D01*
X679586Y168171D01*
X679750Y168426D01*
X680000Y168598D01*
X680297Y168658D01*
X874183Y168658D01*
X874458Y168607D01*
X874713Y168443D01*
X874885Y168193D01*
X874945Y167896D01*
X874945Y165999D01*
X877227Y163717D01*
X880453Y163717D01*
X882735Y165999D01*
X882735Y167358D01*
X882786Y167633D01*
X882950Y167888D01*
X883200Y168060D01*
X883497Y168120D01*
X1077383Y168120D01*
X1077658Y168069D01*
X1077913Y167905D01*
X1078085Y167655D01*
X1078145Y167358D01*
X1078145Y165999D01*
X1080427Y163717D01*
X1083653Y163717D01*
X1085935Y165999D01*
X1085935Y167896D01*
X1085986Y168171D01*
X1086150Y168426D01*
X1086400Y168598D01*
X1086697Y168658D01*
X1280583Y168658D01*
X1280858Y168607D01*
X1281113Y168443D01*
X1281285Y168193D01*
X1281345Y167896D01*
X1281345Y165999D01*
X1283627Y163717D01*
X1286853Y163717D01*
X1289135Y165999D01*
X1289135Y167896D01*
X1289186Y168171D01*
X1289350Y168426D01*
X1289600Y168598D01*
X1289897Y168658D01*
X1488522Y168658D01*
X1510792Y190928D01*
X1510792Y216408D01*
X1510843Y216683D01*
X1511007Y216938D01*
X1511257Y217110D01*
X1511554Y217170D01*
X1516906Y217170D01*
X1517650Y217914D01*
X1517650Y234206D01*
X1516906Y234950D01*
X1504122Y234950D01*
X1503859Y234997D01*
X1503601Y235156D01*
X1503425Y235404D01*
X1503360Y235700D01*
X1503416Y235998D01*
X1503583Y236251D01*
X1506137Y238804D01*
X1507490Y242072D01*
X1507490Y245608D01*
X1506137Y248876D01*
X1503636Y251377D01*
X1500368Y252730D01*
X1496832Y252730D01*
X1493564Y251377D01*
X1491063Y248876D01*
X1489831Y245901D01*
X1489687Y245676D01*
X1489441Y245498D01*
X1489146Y245431D01*
X1488847Y245484D01*
X1488593Y245650D01*
X1488423Y245901D01*
X1486893Y249595D01*
X1484035Y252453D01*
X1480301Y254000D01*
X1479042Y254000D01*
X1479042Y233680D01*
X1480301Y233680D01*
X1482202Y234467D01*
X1482457Y234524D01*
X1482757Y234478D01*
X1483015Y234319D01*
X1483190Y234072D01*
X1483255Y233776D01*
X1483200Y233477D01*
X1483032Y233225D01*
X1480903Y231096D01*
X1479550Y227828D01*
X1479550Y224292D01*
X1480903Y221024D01*
X1483404Y218523D01*
X1486672Y217170D01*
X1490208Y217170D01*
X1493476Y218523D01*
X1495267Y220315D01*
X1495487Y220468D01*
X1495782Y220538D01*
X1496081Y220487D01*
X1496336Y220323D01*
X1496508Y220073D01*
X1496568Y219776D01*
X1496568Y187539D01*
X1496512Y187253D01*
X1496345Y187000D01*
X1485338Y175993D01*
X1485096Y175830D01*
X1484799Y175770D01*
X1291733Y175770D01*
X1291470Y175817D01*
X1291212Y175976D01*
X1291037Y176224D01*
X1290971Y176520D01*
X1291027Y176818D01*
X1291195Y177071D01*
X1297432Y183308D01*
X1297432Y216408D01*
X1297483Y216683D01*
X1297647Y216938D01*
X1297897Y217110D01*
X1298194Y217170D01*
X1313706Y217170D01*
X1314450Y217914D01*
X1314450Y234206D01*
X1313706Y234950D01*
X1300922Y234950D01*
X1300659Y234997D01*
X1300401Y235156D01*
X1300225Y235404D01*
X1300160Y235700D01*
X1300216Y235998D01*
X1300383Y236251D01*
X1302937Y238804D01*
X1304290Y242072D01*
X1304290Y245608D01*
X1302937Y248876D01*
X1300436Y251377D01*
X1297168Y252730D01*
X1293632Y252730D01*
X1290364Y251377D01*
X1287863Y248876D01*
X1286631Y245901D01*
X1286487Y245676D01*
X1286241Y245498D01*
X1285946Y245431D01*
X1285647Y245484D01*
X1285393Y245650D01*
X1285223Y245901D01*
X1283693Y249595D01*
X1280835Y252453D01*
X1277101Y254000D01*
X1275842Y254000D01*
X1275842Y233680D01*
X1277101Y233680D01*
X1279002Y234467D01*
X1279257Y234524D01*
X1279557Y234478D01*
X1279815Y234319D01*
X1279990Y234072D01*
X1280055Y233776D01*
X1280000Y233477D01*
X1279832Y233225D01*
X1277703Y231096D01*
X1276350Y227828D01*
X1276350Y224292D01*
X1277703Y221024D01*
X1280204Y218523D01*
X1283472Y217170D01*
X1287008Y217170D01*
X1290276Y218523D01*
X1292067Y220315D01*
X1292287Y220468D01*
X1292582Y220538D01*
X1292881Y220487D01*
X1293136Y220323D01*
X1293308Y220073D01*
X1293368Y219776D01*
X1293368Y185307D01*
X1293312Y185021D01*
X1293145Y184769D01*
X1284370Y175993D01*
X1284128Y175830D01*
X1283831Y175770D01*
X1088533Y175770D01*
X1088270Y175817D01*
X1088012Y175976D01*
X1087837Y176224D01*
X1087771Y176520D01*
X1087827Y176818D01*
X1087995Y177071D01*
X1094232Y183308D01*
X1094232Y216408D01*
X1094283Y216683D01*
X1094447Y216938D01*
X1094697Y217110D01*
X1094994Y217170D01*
X1110506Y217170D01*
X1111250Y217914D01*
X1111250Y234206D01*
X1110506Y234950D01*
X1097722Y234950D01*
X1097459Y234997D01*
X1097201Y235156D01*
X1097025Y235404D01*
X1096960Y235700D01*
X1097016Y235998D01*
X1097183Y236251D01*
X1099737Y238804D01*
X1101090Y242072D01*
X1101090Y245608D01*
X1099737Y248876D01*
X1097236Y251377D01*
X1093968Y252730D01*
X1090432Y252730D01*
X1087164Y251377D01*
X1084663Y248876D01*
X1083431Y245901D01*
X1083287Y245676D01*
X1083041Y245498D01*
X1082746Y245431D01*
X1082447Y245484D01*
X1082193Y245650D01*
X1082023Y245901D01*
X1080493Y249595D01*
X1077635Y252453D01*
X1073901Y254000D01*
X1072642Y254000D01*
X1072642Y233680D01*
X1073901Y233680D01*
X1075802Y234467D01*
X1076057Y234524D01*
X1076357Y234478D01*
X1076615Y234319D01*
X1076790Y234072D01*
X1076855Y233776D01*
X1076800Y233477D01*
X1076632Y233225D01*
X1074503Y231096D01*
X1073150Y227828D01*
X1073150Y224292D01*
X1074503Y221024D01*
X1077004Y218523D01*
X1080272Y217170D01*
X1083808Y217170D01*
X1087076Y218523D01*
X1088867Y220315D01*
X1089087Y220468D01*
X1089382Y220538D01*
X1089681Y220487D01*
X1089936Y220323D01*
X1090108Y220073D01*
X1090168Y219776D01*
X1090168Y185307D01*
X1090112Y185021D01*
X1089945Y184769D01*
X1081170Y175993D01*
X1080928Y175830D01*
X1080631Y175770D01*
X885333Y175770D01*
X885070Y175817D01*
X884812Y175976D01*
X884637Y176224D01*
X884571Y176520D01*
X884627Y176818D01*
X884795Y177071D01*
X891032Y183308D01*
X891032Y216408D01*
X891083Y216683D01*
X891247Y216938D01*
X891497Y217110D01*
X891794Y217170D01*
X907306Y217170D01*
X908050Y217914D01*
X908050Y234206D01*
X907306Y234950D01*
X894522Y234950D01*
X894259Y234997D01*
X894001Y235156D01*
X893825Y235404D01*
X893760Y235700D01*
X893816Y235998D01*
X893983Y236251D01*
X896537Y238804D01*
X897890Y242072D01*
X897890Y245608D01*
X896537Y248876D01*
X894036Y251377D01*
X890768Y252730D01*
X887232Y252730D01*
X883964Y251377D01*
X881463Y248876D01*
X880231Y245901D01*
X880087Y245676D01*
X879841Y245498D01*
X879546Y245431D01*
X879247Y245484D01*
X878993Y245650D01*
X878823Y245901D01*
X877293Y249595D01*
X874435Y252453D01*
X870701Y254000D01*
X869442Y254000D01*
X869442Y233680D01*
X870701Y233680D01*
X872602Y234467D01*
X872857Y234524D01*
X873157Y234478D01*
X873415Y234319D01*
X873590Y234072D01*
X873655Y233776D01*
X873600Y233477D01*
X873432Y233225D01*
X871303Y231096D01*
X869950Y227828D01*
X869950Y224292D01*
X871303Y221024D01*
X873804Y218523D01*
X877072Y217170D01*
X880608Y217170D01*
X883876Y218523D01*
X885667Y220315D01*
X885887Y220468D01*
X886182Y220538D01*
X886481Y220487D01*
X886736Y220323D01*
X886908Y220073D01*
X886968Y219776D01*
X886968Y185307D01*
X886912Y185021D01*
X886745Y184769D01*
X877970Y175993D01*
X877728Y175830D01*
X877431Y175770D01*
X682133Y175770D01*
X681870Y175817D01*
X681612Y175976D01*
X681437Y176224D01*
X681371Y176520D01*
X681427Y176818D01*
X681595Y177071D01*
X687832Y183308D01*
X687832Y216408D01*
X687883Y216683D01*
X688047Y216938D01*
X688297Y217110D01*
X688594Y217170D01*
X704106Y217170D01*
X704850Y217914D01*
X704850Y234206D01*
X704106Y234950D01*
X691322Y234950D01*
X691059Y234997D01*
X690801Y235156D01*
X690625Y235404D01*
X690560Y235700D01*
X690616Y235998D01*
X690783Y236251D01*
X693337Y238804D01*
X694690Y242072D01*
X694690Y245608D01*
X693337Y248876D01*
X690836Y251377D01*
X687568Y252730D01*
X684032Y252730D01*
X680764Y251377D01*
X678263Y248876D01*
X677031Y245901D01*
X676887Y245676D01*
X676641Y245498D01*
X676346Y245431D01*
X676047Y245484D01*
X675793Y245650D01*
X675623Y245901D01*
X674093Y249595D01*
X671235Y252453D01*
X667501Y254000D01*
X666242Y254000D01*
X666242Y233680D01*
X667501Y233680D01*
X669402Y234467D01*
X669657Y234524D01*
X669957Y234478D01*
X670215Y234319D01*
X670390Y234072D01*
X670455Y233776D01*
X670400Y233477D01*
X670232Y233225D01*
X668103Y231096D01*
X666750Y227828D01*
X666750Y224292D01*
X668103Y221024D01*
X670604Y218523D01*
X673872Y217170D01*
X677408Y217170D01*
X680676Y218523D01*
X682467Y220315D01*
X682687Y220468D01*
X682982Y220538D01*
X683281Y220487D01*
X683536Y220323D01*
X683708Y220073D01*
X683768Y219776D01*
X683768Y185307D01*
X683712Y185021D01*
X683545Y184769D01*
X674770Y175993D01*
X674528Y175830D01*
X674231Y175770D01*
X478933Y175770D01*
X478670Y175817D01*
X478412Y175976D01*
X478237Y176224D01*
X478171Y176520D01*
X478227Y176818D01*
X478395Y177071D01*
X484632Y183308D01*
X484632Y216408D01*
X484683Y216683D01*
X484847Y216938D01*
X485097Y217110D01*
X485394Y217170D01*
X500906Y217170D01*
X501650Y217914D01*
X501650Y234206D01*
X500906Y234950D01*
X488122Y234950D01*
X487859Y234997D01*
X487601Y235156D01*
X487425Y235404D01*
X487360Y235700D01*
X487416Y235998D01*
X487583Y236251D01*
X490137Y238804D01*
X491490Y242072D01*
X491490Y245608D01*
X490137Y248876D01*
X487636Y251377D01*
X484368Y252730D01*
X480832Y252730D01*
X477564Y251377D01*
X475063Y248876D01*
X473831Y245901D01*
X473687Y245676D01*
X473441Y245498D01*
X473146Y245431D01*
X472847Y245484D01*
X472593Y245650D01*
X472423Y245901D01*
X470893Y249595D01*
X468035Y252453D01*
X464301Y254000D01*
X463042Y254000D01*
X463042Y233680D01*
X464301Y233680D01*
X466202Y234467D01*
X466457Y234524D01*
X466757Y234478D01*
X467015Y234319D01*
X467190Y234072D01*
X467255Y233776D01*
X467200Y233477D01*
X467032Y233225D01*
X464903Y231096D01*
X463550Y227828D01*
X463550Y224292D01*
X464903Y221024D01*
X467404Y218523D01*
X470672Y217170D01*
X474208Y217170D01*
X477476Y218523D01*
X479267Y220315D01*
X479487Y220468D01*
X479782Y220538D01*
X480081Y220487D01*
X480336Y220323D01*
X480508Y220073D01*
X480568Y219776D01*
X480568Y185307D01*
X480512Y185021D01*
X480345Y184769D01*
X471570Y175993D01*
X471328Y175830D01*
X471031Y175770D01*
X275733Y175770D01*
X275470Y175817D01*
X275212Y175976D01*
X275037Y176224D01*
X274971Y176520D01*
X275027Y176818D01*
X275195Y177071D01*
X281178Y183054D01*
X281178Y216408D01*
X281229Y216683D01*
X281393Y216938D01*
X281643Y217110D01*
X281940Y217170D01*
X297706Y217170D01*
X298450Y217914D01*
X298450Y234206D01*
X297706Y234950D01*
X284922Y234950D01*
X284659Y234997D01*
X284401Y235156D01*
X284225Y235404D01*
X284160Y235700D01*
X284216Y235998D01*
X284383Y236251D01*
X286937Y238804D01*
X288290Y242072D01*
X288290Y245608D01*
X286937Y248876D01*
X284436Y251377D01*
X281168Y252730D01*
X277632Y252730D01*
X274364Y251377D01*
X271863Y248876D01*
X270631Y245901D01*
X270487Y245676D01*
X270241Y245498D01*
X269946Y245431D01*
X269647Y245484D01*
X269393Y245650D01*
X269223Y245901D01*
X267693Y249595D01*
X264835Y252453D01*
X261101Y254000D01*
X259842Y254000D01*
X259842Y233680D01*
X261101Y233680D01*
X263002Y234467D01*
X263257Y234524D01*
X263557Y234478D01*
X263815Y234319D01*
X263990Y234072D01*
X264055Y233776D01*
X264000Y233477D01*
X263832Y233225D01*
X261703Y231096D01*
X260350Y227828D01*
X260350Y224292D01*
X261703Y221024D01*
X264204Y218523D01*
X267472Y217170D01*
X271008Y217170D01*
X274276Y218523D01*
X275813Y220061D01*
X276033Y220214D01*
X276328Y220284D01*
X276627Y220233D01*
X276882Y220069D01*
X277054Y219819D01*
X277114Y219522D01*
X277114Y185053D01*
X277058Y184767D01*
X276891Y184515D01*
X268370Y175993D01*
X268128Y175830D01*
X267831Y175770D01*
X90309Y175770D01*
X90023Y175826D01*
X89771Y175993D01*
X69453Y196311D01*
X69295Y196542D01*
X69229Y196838D01*
X69285Y197136D01*
X69453Y197389D01*
X77978Y205914D01*
X77978Y216408D01*
X78029Y216683D01*
X78193Y216938D01*
X78443Y217110D01*
X78740Y217170D01*
X94506Y217170D01*
X95250Y217914D01*
X95250Y234206D01*
X94506Y234950D01*
X81722Y234950D01*
X81459Y234997D01*
X81201Y235156D01*
X81025Y235404D01*
X80960Y235700D01*
X81016Y235998D01*
X81183Y236251D01*
X83737Y238804D01*
X85090Y242072D01*
X85090Y245608D01*
X83737Y248876D01*
X81236Y251377D01*
X77968Y252730D01*
X74432Y252730D01*
X71164Y251377D01*
X68663Y248876D01*
X67431Y245901D01*
X67287Y245676D01*
X67041Y245498D01*
X66746Y245431D01*
X66447Y245484D01*
X66193Y245650D01*
X66023Y245901D01*
X64493Y249595D01*
X61635Y252453D01*
X57901Y254000D01*
X56642Y254000D01*
X56642Y233680D01*
X57901Y233680D01*
X59802Y234467D01*
X60057Y234524D01*
X60357Y234478D01*
X60615Y234319D01*
X60790Y234072D01*
X60855Y233776D01*
X60800Y233477D01*
X60632Y233225D01*
X58503Y231096D01*
X57150Y227828D01*
X57150Y224292D01*
X58503Y221024D01*
X61004Y218523D01*
X64272Y217170D01*
X67808Y217170D01*
X71076Y218523D01*
X72613Y220061D01*
X72833Y220214D01*
X73128Y220284D01*
X73427Y220233D01*
X73682Y220069D01*
X73854Y219819D01*
X73914Y219522D01*
X73914Y207913D01*
X73858Y207627D01*
X73691Y207375D01*
X65422Y199105D01*
X65180Y198942D01*
X64883Y198882D01*
X39937Y198882D01*
X39651Y198938D01*
X39398Y199105D01*
X22416Y216087D01*
X22266Y216301D01*
X22194Y216595D01*
X22242Y216895D01*
X22403Y217151D01*
X22652Y217325D01*
X22949Y217387D01*
X23247Y217330D01*
X23632Y217170D01*
X27168Y217170D01*
X30436Y218523D01*
X32937Y221024D01*
X34290Y224292D01*
X34290Y227828D01*
X32937Y231096D01*
X30436Y233597D01*
X27168Y234950D01*
X23632Y234950D01*
X20364Y233597D01*
X17863Y231096D01*
X16510Y227828D01*
X16510Y224292D01*
X16670Y223907D01*
X16727Y223651D01*
X16681Y223352D01*
X16521Y223094D01*
X16274Y222918D01*
X15978Y222853D01*
X15680Y222909D01*
X15427Y223076D01*
X6631Y231872D01*
X6468Y232113D01*
X6408Y232411D01*
X6408Y238260D01*
X6455Y238523D01*
X6614Y238781D01*
X6862Y238957D01*
X7158Y239022D01*
X7456Y238966D01*
X7709Y238799D01*
X10204Y236303D01*
X13472Y234950D01*
X17008Y234950D01*
X20276Y236303D01*
X22777Y238804D01*
X24130Y242072D01*
X24130Y245608D01*
X22777Y248876D01*
X20276Y251377D01*
X19742Y251598D01*
X19512Y251746D01*
X19336Y251994D01*
X19271Y252290D01*
X19327Y252588D01*
X19494Y252841D01*
X24749Y258095D01*
X24990Y258258D01*
X25287Y258318D01*
X207123Y258318D01*
X207409Y258262D01*
X207662Y258095D01*
X213353Y252403D01*
X213511Y252173D01*
X213576Y251877D01*
X213521Y251578D01*
X213353Y251326D01*
X210903Y248876D01*
X209550Y245608D01*
X209550Y242072D01*
X210903Y238804D01*
X213404Y236303D01*
X216672Y234950D01*
X220208Y234950D01*
X223476Y236303D01*
X225977Y238804D01*
X227330Y242072D01*
X227330Y245608D01*
X225977Y248876D01*
X223527Y251326D01*
X223369Y251556D01*
X223304Y251852D01*
X223359Y252150D01*
X223527Y252403D01*
X229219Y258095D01*
X229460Y258258D01*
X229757Y258318D01*
X410323Y258318D01*
X410609Y258262D01*
X410862Y258095D01*
X416553Y252403D01*
X416711Y252173D01*
X416776Y251877D01*
X416721Y251578D01*
X416553Y251326D01*
X414103Y248876D01*
X412750Y245608D01*
X412750Y242072D01*
X414103Y238804D01*
X416604Y236303D01*
X419872Y234950D01*
X423408Y234950D01*
X426676Y236303D01*
X429177Y238804D01*
X430530Y242072D01*
X430530Y245608D01*
X429177Y248876D01*
X426727Y251326D01*
X426569Y251556D01*
X426504Y251852D01*
X426559Y252150D01*
X426727Y252403D01*
X432419Y258095D01*
X432660Y258258D01*
X432957Y258318D01*
X614793Y258318D01*
X615079Y258262D01*
X615332Y258095D01*
X620586Y252841D01*
X620741Y252616D01*
X620809Y252320D01*
X620755Y252022D01*
X620590Y251767D01*
X620338Y251598D01*
X619804Y251377D01*
X617303Y248876D01*
X615950Y245608D01*
X615950Y242072D01*
X617303Y238804D01*
X619804Y236303D01*
X623072Y234950D01*
X626608Y234950D01*
X629876Y236303D01*
X632377Y238804D01*
X633730Y242072D01*
X633730Y245608D01*
X632377Y248876D01*
X629876Y251377D01*
X629342Y251598D01*
X629112Y251746D01*
X628936Y251994D01*
X628871Y252290D01*
X628927Y252588D01*
X629094Y252841D01*
X634349Y258095D01*
X634590Y258258D01*
X634887Y258318D01*
X816723Y258318D01*
X817009Y258262D01*
X817262Y258095D01*
X822953Y252403D01*
X823111Y252173D01*
X823176Y251877D01*
X823121Y251578D01*
X822953Y251326D01*
X820503Y248876D01*
X819150Y245608D01*
X819150Y242072D01*
X820503Y238804D01*
X823004Y236303D01*
X826272Y234950D01*
X829808Y234950D01*
X833076Y236303D01*
X835577Y238804D01*
X836930Y242072D01*
X836930Y245608D01*
X835577Y248876D01*
X833127Y251326D01*
X832969Y251556D01*
X832904Y251852D01*
X832959Y252150D01*
X833127Y252403D01*
X838819Y258095D01*
X839060Y258258D01*
X839357Y258318D01*
X1021193Y258318D01*
X1021479Y258262D01*
X1021732Y258095D01*
X1026986Y252841D01*
X1027141Y252616D01*
X1027209Y252320D01*
X1027155Y252022D01*
X1026990Y251767D01*
X1026738Y251598D01*
X1026204Y251377D01*
X1023703Y248876D01*
X1022350Y245608D01*
X1022350Y242072D01*
X1023703Y238804D01*
X1026204Y236303D01*
X1029472Y234950D01*
X1033008Y234950D01*
X1036276Y236303D01*
X1038777Y238804D01*
X1040130Y242072D01*
X1040130Y245608D01*
X1038777Y248876D01*
X1036276Y251377D01*
X1035742Y251598D01*
X1035512Y251746D01*
X1035336Y251994D01*
X1035271Y252290D01*
X1035327Y252588D01*
X1035494Y252841D01*
X1040749Y258095D01*
X1040990Y258258D01*
X1041287Y258318D01*
X1224393Y258318D01*
X1224679Y258262D01*
X1224932Y258095D01*
X1230186Y252841D01*
X1230341Y252616D01*
X1230409Y252320D01*
X1230355Y252022D01*
X1230190Y251767D01*
X1229938Y251598D01*
X1229404Y251377D01*
X1226903Y248876D01*
X1225550Y245608D01*
X1225550Y242072D01*
X1226903Y238804D01*
X1229404Y236303D01*
X1232672Y234950D01*
X1236208Y234950D01*
X1239476Y236303D01*
X1241977Y238804D01*
X1243330Y242072D01*
X1243330Y245608D01*
X1241977Y248876D01*
X1239476Y251377D01*
X1238942Y251598D01*
X1238712Y251746D01*
X1238536Y251994D01*
X1238471Y252290D01*
X1238527Y252588D01*
X1238694Y252841D01*
X1243949Y258095D01*
X1244190Y258258D01*
X1244487Y258318D01*
X1428863Y258318D01*
X1429149Y258262D01*
X1429402Y258095D01*
X1434284Y253213D01*
X1434439Y252988D01*
X1434507Y252692D01*
X1434453Y252393D01*
X1434288Y252139D01*
X1434036Y251970D01*
X1432604Y251377D01*
X1430103Y248876D01*
X1428750Y245608D01*
X1428750Y242072D01*
X1430103Y238804D01*
X1432604Y236303D01*
X1435872Y234950D01*
X1439408Y234950D01*
X1442676Y236303D01*
X1445177Y238804D01*
X1446530Y242072D01*
X1446530Y245608D01*
X1445177Y248876D01*
X1442676Y251377D01*
X1440142Y252426D01*
X1439904Y252583D01*
X1439732Y252833D01*
X1439672Y253130D01*
X1439672Y253572D01*
X1430862Y262382D01*
X1291844Y262382D01*
X1291569Y262433D01*
X1291314Y262597D01*
X1291142Y262847D01*
X1291082Y263144D01*
X1291082Y349409D01*
X1291138Y349695D01*
X1291305Y349948D01*
X1292945Y351588D01*
X1292945Y354814D01*
X1290663Y357096D01*
X1287437Y357096D01*
X1285155Y354814D01*
X1285155Y351588D01*
X1286795Y349948D01*
X1286958Y349706D01*
X1287018Y349409D01*
X1287018Y263144D01*
X1286967Y262869D01*
X1286803Y262614D01*
X1286553Y262442D01*
X1286256Y262382D01*
X1242488Y262382D01*
X1234979Y254873D01*
X1234748Y254715D01*
X1234452Y254649D01*
X1234154Y254705D01*
X1233901Y254873D01*
X1226392Y262382D01*
X1039288Y262382D01*
X1031779Y254873D01*
X1031548Y254715D01*
X1031252Y254649D01*
X1030954Y254705D01*
X1030701Y254873D01*
X1023192Y262382D01*
X837358Y262382D01*
X828579Y253603D01*
X828348Y253445D01*
X828052Y253379D01*
X827754Y253435D01*
X827501Y253603D01*
X818722Y262382D01*
X632888Y262382D01*
X625379Y254873D01*
X625148Y254715D01*
X624852Y254649D01*
X624554Y254705D01*
X624301Y254873D01*
X616792Y262382D01*
X430958Y262382D01*
X422179Y253603D01*
X421948Y253445D01*
X421652Y253379D01*
X421354Y253435D01*
X421101Y253603D01*
X412322Y262382D01*
X227758Y262382D01*
X218979Y253603D01*
X218748Y253445D01*
X218452Y253379D01*
X218154Y253435D01*
X217901Y253603D01*
X209122Y262382D01*
X23288Y262382D01*
X15779Y254873D01*
X15548Y254715D01*
X15252Y254649D01*
X14954Y254705D01*
X14701Y254873D01*
X9679Y259895D01*
X9516Y260136D01*
X9456Y260433D01*
X9456Y381804D01*
X9501Y382062D01*
X9658Y382321D01*
X9904Y382499D01*
X10200Y382566D01*
X10498Y382513D01*
X10753Y382347D01*
X10922Y382096D01*
X10979Y381957D01*
X13657Y379279D01*
X17156Y377830D01*
X20944Y377830D01*
X24443Y379279D01*
X27121Y381957D01*
X28570Y385456D01*
X28570Y389244D01*
X27121Y392743D01*
X24443Y395421D01*
X20944Y396870D01*
X17156Y396870D01*
X13657Y395421D01*
X10979Y392743D01*
X10922Y392604D01*
X10782Y392383D01*
X10537Y392204D01*
X10242Y392134D01*
X9943Y392185D01*
X9688Y392348D01*
X9516Y392599D01*
X9456Y392896D01*
X9456Y407204D01*
X9501Y407462D01*
X9658Y407721D01*
X9904Y407899D01*
X10200Y407966D01*
X10498Y407913D01*
X10753Y407747D01*
X10922Y407496D01*
X10979Y407357D01*
X13657Y404679D01*
X17156Y403230D01*
X20944Y403230D01*
X24443Y404679D01*
X27121Y407357D01*
X28570Y410856D01*
X28570Y414644D01*
X27121Y418143D01*
X24443Y420821D01*
X20944Y422270D01*
X17156Y422270D01*
X13657Y420821D01*
X10979Y418143D01*
X10922Y418004D01*
X10782Y417783D01*
X10537Y417604D01*
X10242Y417534D01*
X9943Y417585D01*
X9688Y417748D01*
X9516Y417999D01*
X9456Y418296D01*
X9456Y425367D01*
X9512Y425653D01*
X9679Y425906D01*
X13436Y429662D01*
X13672Y429822D01*
X13968Y429885D01*
X14266Y429827D01*
X17156Y428630D01*
X20944Y428630D01*
X24443Y430079D01*
X27121Y432757D01*
X28570Y436256D01*
X28570Y440044D01*
X27121Y443543D01*
X24443Y446221D01*
X20944Y447670D01*
X17156Y447670D01*
X13657Y446221D01*
X10979Y443543D01*
X9530Y440044D01*
X9530Y436256D01*
X10727Y433366D01*
X10785Y433087D01*
X10730Y432789D01*
X10562Y432536D01*
X5392Y427366D01*
X5392Y405721D01*
X5345Y405458D01*
X5186Y405200D01*
X4938Y405025D01*
X4642Y404959D01*
X4344Y405015D01*
X4091Y405183D01*
X2138Y407136D01*
X1978Y407372D01*
X1915Y407668D01*
X1973Y407966D01*
X3170Y410856D01*
X3170Y414644D01*
X1721Y418143D01*
X-957Y420821D01*
X-4456Y422270D01*
X-8244Y422270D01*
X-11743Y420821D01*
X-14421Y418143D01*
X-15870Y414644D01*
X-15870Y410856D01*
X-14421Y407357D01*
X-11743Y404679D01*
X-8244Y403230D01*
X-4456Y403230D01*
X-1566Y404427D01*
X-1287Y404485D01*
X-989Y404430D01*
X-736Y404262D01*
X2121Y401406D01*
X2284Y401164D01*
X2344Y400867D01*
X2344Y393959D01*
X2297Y393696D01*
X2138Y393438D01*
X1890Y393262D01*
X1594Y393197D01*
X1296Y393253D01*
X1043Y393420D01*
X-957Y395421D01*
X-4456Y396870D01*
X-8244Y396870D01*
X-11743Y395421D01*
X-14421Y392743D01*
X-15870Y389244D01*
X-15870Y385456D01*
X-14421Y381957D01*
X-11743Y379279D01*
X-8244Y377830D01*
X-4456Y377830D01*
X-1758Y378948D01*
X-1490Y379006D01*
X-1191Y378955D01*
X-936Y378791D01*
X-764Y378541D01*
X-704Y378244D01*
X-704Y228970D01*
X37258Y191008D01*
X58533Y191008D01*
X58819Y190952D01*
X59072Y190785D01*
X67002Y182855D01*
X67165Y182613D01*
X67225Y182316D01*
X67225Y179997D01*
X69507Y177715D01*
X72733Y177715D01*
X74373Y179355D01*
X74615Y179518D01*
X74912Y179578D01*
X75812Y179578D01*
X76098Y179522D01*
X76351Y179355D01*
X87048Y168658D01*
X264583Y168658D01*
X264858Y168607D01*
X265113Y168443D01*
X265285Y168193D01*
X265345Y167896D01*
X265345Y166027D01*
X267627Y163745D01*
X270853Y163745D01*
X273135Y166027D01*
X273135Y167896D01*
X273186Y168171D01*
X273350Y168426D01*
X273600Y168598D01*
X273897Y168658D01*
X467783Y168658D01*
X468058Y168607D01*
X468313Y168443D01*
X468485Y168193D01*
X468545Y167896D01*
X468545Y165999D01*
X470827Y163717D01*
G37*
G36*
X1446187Y262805D02*
X1449413Y262805D01*
X1451695Y265087D01*
X1451695Y268313D01*
X1450055Y269953D01*
X1449892Y270195D01*
X1449832Y270492D01*
X1449832Y299292D01*
X1377798Y371326D01*
X886855Y371326D01*
X886569Y371381D01*
X886317Y371549D01*
X834856Y423009D01*
X834693Y423251D01*
X834633Y423548D01*
X834633Y433839D01*
X834689Y434125D01*
X834856Y434378D01*
X837015Y436537D01*
X837015Y439763D01*
X834733Y442045D01*
X831507Y442045D01*
X829225Y439763D01*
X829225Y436537D01*
X830346Y435416D01*
X830509Y435174D01*
X830569Y434877D01*
X830569Y429136D01*
X830522Y428873D01*
X830363Y428615D01*
X830115Y428439D01*
X829819Y428374D01*
X829521Y428430D01*
X829268Y428597D01*
X821493Y436372D01*
X735312Y436372D01*
X735026Y436428D01*
X734773Y436595D01*
X733133Y438235D01*
X729907Y438235D01*
X727625Y435953D01*
X727625Y432727D01*
X729907Y430445D01*
X733133Y430445D01*
X734773Y432085D01*
X735015Y432248D01*
X735312Y432308D01*
X819494Y432308D01*
X819780Y432252D01*
X820033Y432085D01*
X884856Y367262D01*
X1375799Y367262D01*
X1376085Y367206D01*
X1376338Y367039D01*
X1445545Y297832D01*
X1445708Y297590D01*
X1445768Y297293D01*
X1445768Y270492D01*
X1445712Y270206D01*
X1445545Y269953D01*
X1443905Y268313D01*
X1443905Y265087D01*
X1446187Y262805D01*
G37*
G36*
X-8496Y427360D02*
X-7112Y427360D01*
X-7112Y437388D01*
X-17140Y437388D01*
X-17140Y436004D01*
X-15497Y432038D01*
X-12462Y429003D01*
X-8496Y427360D01*
G37*
G36*
X-5588Y427360D02*
X-4204Y427360D01*
X-238Y429003D01*
X2797Y432038D01*
X4440Y436004D01*
X4440Y437388D01*
X-5588Y437388D01*
X-5588Y427360D01*
G37*
G36*
X1493844Y415918D02*
X1497636Y415918D01*
X1501139Y417369D01*
X1503821Y420051D01*
X1505272Y423554D01*
X1505272Y427346D01*
X1503821Y430849D01*
X1501139Y433531D01*
X1497636Y434982D01*
X1493844Y434982D01*
X1490341Y433531D01*
X1487659Y430849D01*
X1486208Y427346D01*
X1486208Y423554D01*
X1487659Y420051D01*
X1490341Y417369D01*
X1493844Y415918D01*
G37*
G36*
X1563844Y415918D02*
X1567636Y415918D01*
X1571139Y417369D01*
X1573821Y420051D01*
X1575272Y423554D01*
X1575272Y427346D01*
X1573821Y430849D01*
X1571139Y433531D01*
X1567636Y434982D01*
X1563844Y434982D01*
X1560341Y433531D01*
X1557659Y430849D01*
X1556208Y427346D01*
X1556208Y423554D01*
X1557659Y420051D01*
X1560341Y417369D01*
X1563844Y415918D01*
G37*
G36*
X1244257Y271695D02*
X1247483Y271695D01*
X1249765Y273977D01*
X1249765Y277203D01*
X1248125Y278843D01*
X1247962Y279085D01*
X1247902Y279382D01*
X1247902Y298022D01*
X1188822Y357102D01*
X871369Y357102D01*
X871083Y357157D01*
X870830Y357325D01*
X822675Y405480D01*
X822512Y405721D01*
X822452Y406018D01*
X822452Y417848D01*
X822508Y418134D01*
X822675Y418387D01*
X824315Y420027D01*
X824315Y423253D01*
X822033Y425535D01*
X818807Y425535D01*
X816525Y423253D01*
X816525Y420027D01*
X818165Y418387D01*
X818328Y418145D01*
X818388Y417848D01*
X818388Y411606D01*
X818341Y411343D01*
X818182Y411085D01*
X817934Y410910D01*
X817638Y410845D01*
X817340Y410900D01*
X817087Y411068D01*
X804483Y423672D01*
X735312Y423672D01*
X735026Y423728D01*
X734773Y423895D01*
X733133Y425535D01*
X729907Y425535D01*
X727625Y423253D01*
X727625Y420027D01*
X729907Y417745D01*
X733133Y417745D01*
X734773Y419385D01*
X735015Y419548D01*
X735312Y419608D01*
X802484Y419608D01*
X802770Y419552D01*
X803023Y419385D01*
X869370Y353038D01*
X1186823Y353038D01*
X1187109Y352982D01*
X1187362Y352815D01*
X1243615Y296562D01*
X1243778Y296320D01*
X1243838Y296023D01*
X1243838Y279382D01*
X1243782Y279096D01*
X1243615Y278843D01*
X1241975Y277203D01*
X1241975Y273977D01*
X1244257Y271695D01*
G37*
G36*
X1039787Y269155D02*
X1043013Y269155D01*
X1045295Y271437D01*
X1045295Y274663D01*
X1043655Y276303D01*
X1043492Y276545D01*
X1043432Y276842D01*
X1043432Y299292D01*
X998808Y343916D01*
X854844Y343916D01*
X854558Y343972D01*
X854305Y344139D01*
X809975Y388469D01*
X809812Y388711D01*
X809752Y389008D01*
X809752Y392448D01*
X809808Y392734D01*
X809975Y392987D01*
X811615Y394627D01*
X811615Y397853D01*
X809333Y400135D01*
X806107Y400135D01*
X803825Y397853D01*
X803825Y396459D01*
X803778Y396196D01*
X803619Y395938D01*
X803371Y395762D01*
X803075Y395697D01*
X802777Y395753D01*
X802524Y395920D01*
X787472Y410972D01*
X735312Y410972D01*
X735026Y411028D01*
X734773Y411195D01*
X733133Y412835D01*
X729907Y412835D01*
X727625Y410553D01*
X727625Y407327D01*
X729907Y405045D01*
X733133Y405045D01*
X734773Y406685D01*
X735015Y406848D01*
X735312Y406908D01*
X785473Y406908D01*
X785759Y406852D01*
X786012Y406685D01*
X852845Y339852D01*
X996809Y339852D01*
X997095Y339796D01*
X997348Y339629D01*
X1039145Y297832D01*
X1039308Y297590D01*
X1039368Y297293D01*
X1039368Y276842D01*
X1039312Y276556D01*
X1039145Y276303D01*
X1037505Y274663D01*
X1037505Y271437D01*
X1039787Y269155D01*
G37*
G36*
X930960Y393822D02*
X939038Y393822D01*
X939038Y401900D01*
X938042Y401900D01*
X934793Y400554D01*
X932306Y398067D01*
X930960Y394818D01*
X930960Y393822D01*
G37*
G36*
X1108760Y393822D02*
X1116838Y393822D01*
X1116838Y401900D01*
X1115842Y401900D01*
X1112593Y400554D01*
X1110106Y398067D01*
X1108760Y394818D01*
X1108760Y393822D01*
G37*
G36*
X1045260Y393822D02*
X1053338Y393822D01*
X1053338Y401900D01*
X1052342Y401900D01*
X1049093Y400554D01*
X1046606Y398067D01*
X1045260Y394818D01*
X1045260Y393822D01*
G37*
G36*
X1054862Y393822D02*
X1062940Y393822D01*
X1062940Y394818D01*
X1061594Y398067D01*
X1059107Y400554D01*
X1055858Y401900D01*
X1054862Y401900D01*
X1054862Y393822D01*
G37*
G36*
X1118362Y393822D02*
X1126440Y393822D01*
X1126440Y394818D01*
X1125094Y398067D01*
X1122607Y400554D01*
X1119358Y401900D01*
X1118362Y401900D01*
X1118362Y393822D01*
G37*
G36*
X940562Y393822D02*
X948640Y393822D01*
X948640Y394818D01*
X947294Y398067D01*
X944807Y400554D01*
X941558Y401900D01*
X940562Y401900D01*
X940562Y393822D01*
G37*
G36*
X1001794Y385490D02*
X1004806Y385490D01*
X1007588Y386642D01*
X1009718Y388772D01*
X1010870Y391554D01*
X1010870Y394566D01*
X1009718Y397348D01*
X1007588Y399478D01*
X1004806Y400630D01*
X1001794Y400630D01*
X999012Y399478D01*
X996882Y397348D01*
X995730Y394566D01*
X995730Y391554D01*
X996882Y388772D01*
X999012Y386642D01*
X1001794Y385490D01*
G37*
G36*
X887494Y385490D02*
X890506Y385490D01*
X893288Y386642D01*
X895418Y388772D01*
X896570Y391554D01*
X896570Y394566D01*
X895418Y397348D01*
X893288Y399478D01*
X890506Y400630D01*
X887494Y400630D01*
X884712Y399478D01*
X882582Y397348D01*
X881430Y394566D01*
X881430Y391554D01*
X882582Y388772D01*
X884712Y386642D01*
X887494Y385490D01*
G37*
G36*
X836587Y269155D02*
X839813Y269155D01*
X842095Y271437D01*
X842095Y274663D01*
X840455Y276303D01*
X840292Y276545D01*
X840232Y276842D01*
X840232Y328502D01*
X797275Y371459D01*
X797112Y371700D01*
X797052Y371997D01*
X797052Y379748D01*
X797108Y380034D01*
X797275Y380287D01*
X798915Y381927D01*
X798915Y385153D01*
X796633Y387435D01*
X793407Y387435D01*
X791125Y385153D01*
X791125Y381927D01*
X792765Y380287D01*
X792928Y380045D01*
X792988Y379748D01*
X792988Y377585D01*
X792941Y377322D01*
X792782Y377064D01*
X792534Y376889D01*
X792238Y376823D01*
X791940Y376879D01*
X791687Y377047D01*
X770462Y398272D01*
X735312Y398272D01*
X735026Y398328D01*
X734773Y398495D01*
X733133Y400135D01*
X729907Y400135D01*
X727625Y397853D01*
X727625Y394627D01*
X729907Y392345D01*
X733133Y392345D01*
X734773Y393985D01*
X735015Y394148D01*
X735312Y394208D01*
X768463Y394208D01*
X768749Y394152D01*
X769002Y393985D01*
X835945Y327042D01*
X836108Y326800D01*
X836168Y326503D01*
X836168Y276842D01*
X836112Y276556D01*
X835945Y276303D01*
X834305Y274663D01*
X834305Y271437D01*
X836587Y269155D01*
G37*
G36*
X430187Y269155D02*
X433413Y269155D01*
X435695Y271437D01*
X435695Y274663D01*
X434055Y276303D01*
X433892Y276545D01*
X433832Y276842D01*
X433832Y360793D01*
X433888Y361079D01*
X434055Y361332D01*
X438769Y366045D01*
X439010Y366208D01*
X439307Y366268D01*
X572342Y366268D01*
X582956Y376882D01*
X583197Y377045D01*
X583494Y377105D01*
X585813Y377105D01*
X588095Y379387D01*
X588095Y382552D01*
X588142Y382815D01*
X588301Y383073D01*
X588549Y383249D01*
X588845Y383314D01*
X589143Y383258D01*
X589396Y383091D01*
X603678Y368808D01*
X750175Y368808D01*
X750438Y368761D01*
X750696Y368602D01*
X750872Y368354D01*
X750937Y368058D01*
X750881Y367760D01*
X750714Y367507D01*
X658512Y275305D01*
X658270Y275142D01*
X657973Y275082D01*
X638792Y275082D01*
X638506Y275138D01*
X638253Y275305D01*
X636613Y276945D01*
X633387Y276945D01*
X631105Y274663D01*
X631105Y271437D01*
X633387Y269155D01*
X636613Y269155D01*
X638253Y270795D01*
X638495Y270958D01*
X638792Y271018D01*
X659972Y271018D01*
X755064Y366110D01*
X755294Y366268D01*
X755591Y366333D01*
X755889Y366278D01*
X756141Y366110D01*
X756422Y365829D01*
X759649Y365829D01*
X761931Y368111D01*
X761931Y371338D01*
X759649Y373619D01*
X756422Y373619D01*
X755898Y373095D01*
X755657Y372932D01*
X755360Y372872D01*
X605677Y372872D01*
X605391Y372928D01*
X605139Y373095D01*
X588318Y389916D01*
X588155Y390157D01*
X588095Y390454D01*
X588095Y392773D01*
X585813Y395055D01*
X582587Y395055D01*
X580305Y392773D01*
X580305Y389547D01*
X582587Y387265D01*
X584906Y387265D01*
X585192Y387209D01*
X585445Y387042D01*
X586291Y386196D01*
X586444Y385976D01*
X586513Y385681D01*
X586462Y385382D01*
X586299Y385127D01*
X586049Y384955D01*
X585752Y384895D01*
X582587Y384895D01*
X580305Y382613D01*
X580305Y380294D01*
X580249Y380008D01*
X580082Y379756D01*
X570882Y370555D01*
X570640Y370392D01*
X570343Y370332D01*
X437308Y370332D01*
X429768Y362792D01*
X429768Y276842D01*
X429712Y276556D01*
X429545Y276303D01*
X427905Y274663D01*
X427905Y271437D01*
X430187Y269155D01*
G37*
G36*
X1052342Y384220D02*
X1053338Y384220D01*
X1053338Y392298D01*
X1045260Y392298D01*
X1045260Y391302D01*
X1046606Y388053D01*
X1049093Y385566D01*
X1052342Y384220D01*
G37*
G36*
X1054862Y384220D02*
X1055858Y384220D01*
X1059107Y385566D01*
X1061594Y388053D01*
X1062940Y391302D01*
X1062940Y392298D01*
X1054862Y392298D01*
X1054862Y384220D01*
G37*
G36*
X1118362Y384220D02*
X1119358Y384220D01*
X1122607Y385566D01*
X1125094Y388053D01*
X1126440Y391302D01*
X1126440Y392298D01*
X1118362Y392298D01*
X1118362Y384220D01*
G37*
G36*
X1115842Y384220D02*
X1116838Y384220D01*
X1116838Y392298D01*
X1108760Y392298D01*
X1108760Y391302D01*
X1110106Y388053D01*
X1112593Y385566D01*
X1115842Y384220D01*
G37*
G36*
X940562Y384220D02*
X941558Y384220D01*
X944807Y385566D01*
X947294Y388053D01*
X948640Y391302D01*
X948640Y392298D01*
X940562Y392298D01*
X940562Y384220D01*
G37*
G36*
X938042Y384220D02*
X939038Y384220D01*
X939038Y392298D01*
X930960Y392298D01*
X930960Y391302D01*
X932306Y388053D01*
X934793Y385566D01*
X938042Y384220D01*
G37*
G36*
X23787Y300905D02*
X27013Y300905D01*
X29295Y303187D01*
X29295Y305506D01*
X29351Y305792D01*
X29518Y306045D01*
X102219Y378745D01*
X102460Y378908D01*
X102757Y378968D01*
X262908Y378968D01*
X263194Y378912D01*
X263447Y378745D01*
X265087Y377105D01*
X268313Y377105D01*
X270595Y379387D01*
X270595Y382613D01*
X268313Y384895D01*
X265087Y384895D01*
X263447Y383255D01*
X263205Y383092D01*
X262908Y383032D01*
X100758Y383032D01*
X26645Y308918D01*
X26403Y308755D01*
X26106Y308695D01*
X23787Y308695D01*
X21505Y306413D01*
X21505Y303187D01*
X23787Y300905D01*
G37*
G36*
X226987Y269155D02*
X230213Y269155D01*
X232495Y271437D01*
X232495Y274663D01*
X230855Y276303D01*
X230692Y276545D01*
X230632Y276842D01*
X230632Y309993D01*
X230688Y310279D01*
X230855Y310532D01*
X292719Y372395D01*
X292960Y372558D01*
X293257Y372618D01*
X370858Y372618D01*
X371144Y372562D01*
X371397Y372395D01*
X373037Y370755D01*
X376263Y370755D01*
X378545Y373037D01*
X378545Y376263D01*
X376263Y378545D01*
X373037Y378545D01*
X371397Y376905D01*
X371155Y376742D01*
X370858Y376682D01*
X291258Y376682D01*
X226568Y311992D01*
X226568Y276842D01*
X226512Y276556D01*
X226345Y276303D01*
X224705Y274663D01*
X224705Y271437D01*
X226987Y269155D01*
G37*
G36*
X450352Y217170D02*
X453888Y217170D01*
X457156Y218523D01*
X459657Y221024D01*
X461010Y224292D01*
X461010Y227828D01*
X459657Y231096D01*
X457528Y233225D01*
X457377Y233438D01*
X457305Y233733D01*
X457354Y234032D01*
X457515Y234289D01*
X457764Y234463D01*
X458061Y234525D01*
X458358Y234467D01*
X460259Y233680D01*
X461518Y233680D01*
X461518Y254000D01*
X460259Y254000D01*
X456525Y252453D01*
X453667Y249595D01*
X452137Y245901D01*
X451993Y245676D01*
X451747Y245498D01*
X451451Y245431D01*
X451152Y245484D01*
X450898Y245650D01*
X450729Y245901D01*
X449497Y248876D01*
X446996Y251377D01*
X443728Y252730D01*
X440192Y252730D01*
X436924Y251377D01*
X434423Y248876D01*
X433070Y245608D01*
X433070Y242072D01*
X434423Y238804D01*
X436924Y236303D01*
X440192Y234950D01*
X443728Y234950D01*
X446996Y236303D01*
X449497Y238804D01*
X450729Y241779D01*
X450873Y242004D01*
X451119Y242182D01*
X451414Y242249D01*
X451713Y242196D01*
X451967Y242030D01*
X452137Y241779D01*
X453667Y238085D01*
X456153Y235599D01*
X456303Y235385D01*
X456375Y235090D01*
X456327Y234791D01*
X456166Y234534D01*
X455917Y234361D01*
X455620Y234298D01*
X455322Y234356D01*
X453888Y234950D01*
X450352Y234950D01*
X447084Y233597D01*
X444583Y231096D01*
X443230Y227828D01*
X443230Y224292D01*
X444583Y221024D01*
X447084Y218523D01*
X450352Y217170D01*
G37*
G36*
X247152Y217170D02*
X250688Y217170D01*
X253956Y218523D01*
X256457Y221024D01*
X257810Y224292D01*
X257810Y227828D01*
X256457Y231096D01*
X254328Y233225D01*
X254177Y233438D01*
X254105Y233733D01*
X254154Y234032D01*
X254315Y234289D01*
X254564Y234463D01*
X254861Y234525D01*
X255158Y234467D01*
X257059Y233680D01*
X258318Y233680D01*
X258318Y254000D01*
X257059Y254000D01*
X253325Y252453D01*
X250467Y249595D01*
X248937Y245901D01*
X248793Y245676D01*
X248547Y245498D01*
X248251Y245431D01*
X247952Y245484D01*
X247698Y245650D01*
X247529Y245901D01*
X246297Y248876D01*
X243796Y251377D01*
X240528Y252730D01*
X236992Y252730D01*
X233724Y251377D01*
X231223Y248876D01*
X229870Y245608D01*
X229870Y242072D01*
X231223Y238804D01*
X233724Y236303D01*
X236992Y234950D01*
X240528Y234950D01*
X243796Y236303D01*
X246297Y238804D01*
X247529Y241779D01*
X247673Y242004D01*
X247919Y242182D01*
X248214Y242249D01*
X248513Y242196D01*
X248767Y242030D01*
X248937Y241779D01*
X250467Y238085D01*
X252953Y235599D01*
X253103Y235385D01*
X253175Y235090D01*
X253127Y234791D01*
X252966Y234534D01*
X252717Y234361D01*
X252420Y234298D01*
X252122Y234356D01*
X250688Y234950D01*
X247152Y234950D01*
X243884Y233597D01*
X241383Y231096D01*
X240030Y227828D01*
X240030Y224292D01*
X241383Y221024D01*
X243884Y218523D01*
X247152Y217170D01*
G37*
G36*
X43952Y217170D02*
X47488Y217170D01*
X50756Y218523D01*
X53257Y221024D01*
X54610Y224292D01*
X54610Y227828D01*
X53257Y231096D01*
X51128Y233225D01*
X50977Y233438D01*
X50905Y233733D01*
X50954Y234032D01*
X51115Y234289D01*
X51364Y234463D01*
X51661Y234525D01*
X51958Y234467D01*
X53859Y233680D01*
X55118Y233680D01*
X55118Y254000D01*
X53859Y254000D01*
X50125Y252453D01*
X47267Y249595D01*
X45737Y245901D01*
X45593Y245676D01*
X45347Y245498D01*
X45051Y245431D01*
X44752Y245484D01*
X44498Y245650D01*
X44329Y245901D01*
X43097Y248876D01*
X40596Y251377D01*
X37328Y252730D01*
X33792Y252730D01*
X30524Y251377D01*
X28023Y248876D01*
X26670Y245608D01*
X26670Y242072D01*
X28023Y238804D01*
X30524Y236303D01*
X33792Y234950D01*
X37328Y234950D01*
X40596Y236303D01*
X43097Y238804D01*
X44329Y241779D01*
X44473Y242004D01*
X44719Y242182D01*
X45014Y242249D01*
X45313Y242196D01*
X45567Y242030D01*
X45737Y241779D01*
X47267Y238085D01*
X49753Y235599D01*
X49903Y235385D01*
X49975Y235090D01*
X49927Y234791D01*
X49766Y234534D01*
X49517Y234361D01*
X49220Y234298D01*
X48922Y234356D01*
X47488Y234950D01*
X43952Y234950D01*
X40684Y233597D01*
X38183Y231096D01*
X36830Y227828D01*
X36830Y224292D01*
X38183Y221024D01*
X40684Y218523D01*
X43952Y217170D01*
G37*
G36*
X653552Y217170D02*
X657088Y217170D01*
X660356Y218523D01*
X662857Y221024D01*
X664210Y224292D01*
X664210Y227828D01*
X662857Y231096D01*
X660728Y233225D01*
X660577Y233438D01*
X660505Y233733D01*
X660554Y234032D01*
X660715Y234289D01*
X660964Y234463D01*
X661261Y234525D01*
X661558Y234467D01*
X663459Y233680D01*
X664718Y233680D01*
X664718Y254000D01*
X663459Y254000D01*
X659725Y252453D01*
X656867Y249595D01*
X655337Y245901D01*
X655193Y245676D01*
X654947Y245498D01*
X654651Y245431D01*
X654352Y245484D01*
X654098Y245650D01*
X653929Y245901D01*
X652697Y248876D01*
X650196Y251377D01*
X646928Y252730D01*
X643392Y252730D01*
X640124Y251377D01*
X637623Y248876D01*
X636270Y245608D01*
X636270Y242072D01*
X637623Y238804D01*
X640124Y236303D01*
X643392Y234950D01*
X646928Y234950D01*
X650196Y236303D01*
X652697Y238804D01*
X653929Y241779D01*
X654073Y242004D01*
X654319Y242182D01*
X654614Y242249D01*
X654913Y242196D01*
X655167Y242030D01*
X655337Y241779D01*
X656867Y238085D01*
X659353Y235599D01*
X659503Y235385D01*
X659575Y235090D01*
X659527Y234791D01*
X659366Y234534D01*
X659117Y234361D01*
X658820Y234298D01*
X658522Y234356D01*
X657088Y234950D01*
X653552Y234950D01*
X650284Y233597D01*
X647783Y231096D01*
X646430Y227828D01*
X646430Y224292D01*
X647783Y221024D01*
X650284Y218523D01*
X653552Y217170D01*
G37*
G36*
X856752Y217170D02*
X860288Y217170D01*
X863556Y218523D01*
X866057Y221024D01*
X867410Y224292D01*
X867410Y227828D01*
X866057Y231096D01*
X863928Y233225D01*
X863777Y233438D01*
X863705Y233733D01*
X863754Y234032D01*
X863915Y234289D01*
X864164Y234463D01*
X864461Y234525D01*
X864758Y234467D01*
X866659Y233680D01*
X867918Y233680D01*
X867918Y254000D01*
X866659Y254000D01*
X862925Y252453D01*
X860067Y249595D01*
X858537Y245901D01*
X858393Y245676D01*
X858147Y245498D01*
X857851Y245431D01*
X857552Y245484D01*
X857298Y245650D01*
X857129Y245901D01*
X855897Y248876D01*
X853396Y251377D01*
X850128Y252730D01*
X846592Y252730D01*
X843324Y251377D01*
X840823Y248876D01*
X839470Y245608D01*
X839470Y242072D01*
X840823Y238804D01*
X843324Y236303D01*
X846592Y234950D01*
X850128Y234950D01*
X853396Y236303D01*
X855897Y238804D01*
X857129Y241779D01*
X857273Y242004D01*
X857519Y242182D01*
X857814Y242249D01*
X858113Y242196D01*
X858367Y242030D01*
X858537Y241779D01*
X860067Y238085D01*
X862553Y235599D01*
X862703Y235385D01*
X862775Y235090D01*
X862727Y234791D01*
X862566Y234534D01*
X862317Y234361D01*
X862020Y234298D01*
X861722Y234356D01*
X860288Y234950D01*
X856752Y234950D01*
X853484Y233597D01*
X850983Y231096D01*
X849630Y227828D01*
X849630Y224292D01*
X850983Y221024D01*
X853484Y218523D01*
X856752Y217170D01*
G37*
G36*
X1059952Y217170D02*
X1063488Y217170D01*
X1066756Y218523D01*
X1069257Y221024D01*
X1070610Y224292D01*
X1070610Y227828D01*
X1069257Y231096D01*
X1067128Y233225D01*
X1066977Y233438D01*
X1066905Y233733D01*
X1066954Y234032D01*
X1067115Y234289D01*
X1067364Y234463D01*
X1067661Y234525D01*
X1067958Y234467D01*
X1069859Y233680D01*
X1071118Y233680D01*
X1071118Y254000D01*
X1069859Y254000D01*
X1066125Y252453D01*
X1063267Y249595D01*
X1061737Y245901D01*
X1061593Y245676D01*
X1061347Y245498D01*
X1061051Y245431D01*
X1060752Y245484D01*
X1060498Y245650D01*
X1060329Y245901D01*
X1059097Y248876D01*
X1056596Y251377D01*
X1053328Y252730D01*
X1049792Y252730D01*
X1046524Y251377D01*
X1044023Y248876D01*
X1042670Y245608D01*
X1042670Y242072D01*
X1044023Y238804D01*
X1046524Y236303D01*
X1049792Y234950D01*
X1053328Y234950D01*
X1056596Y236303D01*
X1059097Y238804D01*
X1060329Y241779D01*
X1060473Y242004D01*
X1060719Y242182D01*
X1061014Y242249D01*
X1061313Y242196D01*
X1061567Y242030D01*
X1061737Y241779D01*
X1063267Y238085D01*
X1065753Y235599D01*
X1065903Y235385D01*
X1065975Y235090D01*
X1065927Y234791D01*
X1065766Y234534D01*
X1065517Y234361D01*
X1065220Y234298D01*
X1064922Y234356D01*
X1063488Y234950D01*
X1059952Y234950D01*
X1056684Y233597D01*
X1054183Y231096D01*
X1052830Y227828D01*
X1052830Y224292D01*
X1054183Y221024D01*
X1056684Y218523D01*
X1059952Y217170D01*
G37*
G36*
X1263152Y217170D02*
X1266688Y217170D01*
X1269956Y218523D01*
X1272457Y221024D01*
X1273810Y224292D01*
X1273810Y227828D01*
X1272457Y231096D01*
X1270328Y233225D01*
X1270177Y233438D01*
X1270105Y233733D01*
X1270154Y234032D01*
X1270315Y234289D01*
X1270564Y234463D01*
X1270861Y234525D01*
X1271158Y234467D01*
X1273059Y233680D01*
X1274318Y233680D01*
X1274318Y254000D01*
X1273059Y254000D01*
X1269325Y252453D01*
X1266467Y249595D01*
X1264937Y245901D01*
X1264793Y245676D01*
X1264547Y245498D01*
X1264251Y245431D01*
X1263952Y245484D01*
X1263698Y245650D01*
X1263529Y245901D01*
X1262297Y248876D01*
X1259796Y251377D01*
X1256528Y252730D01*
X1252992Y252730D01*
X1249724Y251377D01*
X1247223Y248876D01*
X1245870Y245608D01*
X1245870Y242072D01*
X1247223Y238804D01*
X1249724Y236303D01*
X1252992Y234950D01*
X1256528Y234950D01*
X1259796Y236303D01*
X1262297Y238804D01*
X1263529Y241779D01*
X1263673Y242004D01*
X1263919Y242182D01*
X1264214Y242249D01*
X1264513Y242196D01*
X1264767Y242030D01*
X1264937Y241779D01*
X1266467Y238085D01*
X1268953Y235599D01*
X1269103Y235385D01*
X1269175Y235090D01*
X1269127Y234791D01*
X1268966Y234534D01*
X1268717Y234361D01*
X1268420Y234298D01*
X1268122Y234356D01*
X1266688Y234950D01*
X1263152Y234950D01*
X1259884Y233597D01*
X1257383Y231096D01*
X1256030Y227828D01*
X1256030Y224292D01*
X1257383Y221024D01*
X1259884Y218523D01*
X1263152Y217170D01*
G37*
G36*
X1466352Y217170D02*
X1469888Y217170D01*
X1473156Y218523D01*
X1475657Y221024D01*
X1477010Y224292D01*
X1477010Y227828D01*
X1475657Y231096D01*
X1473528Y233225D01*
X1473377Y233438D01*
X1473305Y233733D01*
X1473354Y234032D01*
X1473515Y234289D01*
X1473764Y234463D01*
X1474061Y234525D01*
X1474358Y234467D01*
X1476259Y233680D01*
X1477518Y233680D01*
X1477518Y254000D01*
X1476259Y254000D01*
X1472525Y252453D01*
X1469667Y249595D01*
X1468137Y245901D01*
X1467993Y245676D01*
X1467747Y245498D01*
X1467451Y245431D01*
X1467152Y245484D01*
X1466898Y245650D01*
X1466729Y245901D01*
X1465497Y248876D01*
X1462996Y251377D01*
X1459728Y252730D01*
X1456192Y252730D01*
X1452924Y251377D01*
X1450423Y248876D01*
X1449070Y245608D01*
X1449070Y242072D01*
X1450423Y238804D01*
X1452924Y236303D01*
X1456192Y234950D01*
X1459728Y234950D01*
X1462996Y236303D01*
X1465497Y238804D01*
X1466729Y241779D01*
X1466873Y242004D01*
X1467119Y242182D01*
X1467414Y242249D01*
X1467713Y242196D01*
X1467967Y242030D01*
X1468137Y241779D01*
X1469667Y238085D01*
X1472153Y235599D01*
X1472303Y235385D01*
X1472375Y235090D01*
X1472327Y234791D01*
X1472166Y234534D01*
X1471917Y234361D01*
X1471620Y234298D01*
X1471322Y234356D01*
X1469888Y234950D01*
X1466352Y234950D01*
X1463084Y233597D01*
X1460583Y231096D01*
X1459230Y227828D01*
X1459230Y224292D01*
X1460583Y221024D01*
X1463084Y218523D01*
X1466352Y217170D01*
G37*
G36*
X1388464Y218980D02*
X1394936Y218980D01*
X1400916Y221457D01*
X1405493Y226034D01*
X1407970Y232014D01*
X1407970Y238486D01*
X1405493Y244466D01*
X1400916Y249043D01*
X1394936Y251520D01*
X1388464Y251520D01*
X1382484Y249043D01*
X1377907Y244466D01*
X1375430Y238486D01*
X1375430Y232014D01*
X1377907Y226034D01*
X1382484Y221457D01*
X1388464Y218980D01*
G37*
G36*
X1551464Y218980D02*
X1557936Y218980D01*
X1563916Y221457D01*
X1568493Y226034D01*
X1570970Y232014D01*
X1570970Y238486D01*
X1568493Y244466D01*
X1563916Y249043D01*
X1557936Y251520D01*
X1551464Y251520D01*
X1545484Y249043D01*
X1540907Y244466D01*
X1538430Y238486D01*
X1538430Y232014D01*
X1540907Y226034D01*
X1545484Y221457D01*
X1551464Y218980D01*
G37*
G36*
X575664Y218980D02*
X582136Y218980D01*
X588116Y221457D01*
X592693Y226034D01*
X595170Y232014D01*
X595170Y238486D01*
X592693Y244466D01*
X588116Y249043D01*
X582136Y251520D01*
X575664Y251520D01*
X569684Y249043D01*
X565107Y244466D01*
X562630Y238486D01*
X562630Y232014D01*
X565107Y226034D01*
X569684Y221457D01*
X575664Y218980D01*
G37*
G36*
X332264Y218980D02*
X338736Y218980D01*
X344716Y221457D01*
X349293Y226034D01*
X351770Y232014D01*
X351770Y238486D01*
X349293Y244466D01*
X344716Y249043D01*
X338736Y251520D01*
X332264Y251520D01*
X326284Y249043D01*
X321707Y244466D01*
X319230Y238486D01*
X319230Y232014D01*
X321707Y226034D01*
X326284Y221457D01*
X332264Y218980D01*
G37*
G36*
X-33936Y218980D02*
X-27464Y218980D01*
X-21484Y221457D01*
X-16907Y226034D01*
X-14430Y232014D01*
X-14430Y238486D01*
X-16907Y244466D01*
X-21484Y249043D01*
X-27464Y251520D01*
X-33936Y251520D01*
X-39916Y249043D01*
X-44493Y244466D01*
X-46970Y238486D01*
X-46970Y232014D01*
X-44493Y226034D01*
X-39916Y221457D01*
X-33936Y218980D01*
G37*
G36*
X372464Y218980D02*
X378936Y218980D01*
X384916Y221457D01*
X389493Y226034D01*
X391970Y232014D01*
X391970Y238486D01*
X389493Y244466D01*
X384916Y249043D01*
X378936Y251520D01*
X372464Y251520D01*
X366484Y249043D01*
X361907Y244466D01*
X359430Y238486D01*
X359430Y232014D01*
X361907Y226034D01*
X366484Y221457D01*
X372464Y218980D01*
G37*
G36*
X941864Y218980D02*
X948336Y218980D01*
X954316Y221457D01*
X958893Y226034D01*
X961370Y232014D01*
X961370Y238486D01*
X958893Y244466D01*
X954316Y249043D01*
X948336Y251520D01*
X941864Y251520D01*
X935884Y249043D01*
X931307Y244466D01*
X928830Y238486D01*
X928830Y232014D01*
X931307Y226034D01*
X935884Y221457D01*
X941864Y218980D01*
G37*
G36*
X778864Y218980D02*
X785336Y218980D01*
X791316Y221457D01*
X795893Y226034D01*
X798370Y232014D01*
X798370Y238486D01*
X795893Y244466D01*
X791316Y249043D01*
X785336Y251520D01*
X778864Y251520D01*
X772884Y249043D01*
X768307Y244466D01*
X765830Y238486D01*
X765830Y232014D01*
X768307Y226034D01*
X772884Y221457D01*
X778864Y218980D01*
G37*
G36*
X169264Y218980D02*
X175736Y218980D01*
X181716Y221457D01*
X186293Y226034D01*
X188770Y232014D01*
X188770Y238486D01*
X186293Y244466D01*
X181716Y249043D01*
X175736Y251520D01*
X169264Y251520D01*
X163284Y249043D01*
X158707Y244466D01*
X156230Y238486D01*
X156230Y232014D01*
X158707Y226034D01*
X163284Y221457D01*
X169264Y218980D01*
G37*
G36*
X738664Y218980D02*
X745136Y218980D01*
X751116Y221457D01*
X755693Y226034D01*
X758170Y232014D01*
X758170Y238486D01*
X755693Y244466D01*
X751116Y249043D01*
X745136Y251520D01*
X738664Y251520D01*
X732684Y249043D01*
X728107Y244466D01*
X725630Y238486D01*
X725630Y232014D01*
X728107Y226034D01*
X732684Y221457D01*
X738664Y218980D01*
G37*
G36*
X982064Y218980D02*
X988536Y218980D01*
X994516Y221457D01*
X999093Y226034D01*
X1001570Y232014D01*
X1001570Y238486D01*
X999093Y244466D01*
X994516Y249043D01*
X988536Y251520D01*
X982064Y251520D01*
X976084Y249043D01*
X971507Y244466D01*
X969030Y238486D01*
X969030Y232014D01*
X971507Y226034D01*
X976084Y221457D01*
X982064Y218980D01*
G37*
G36*
X1145064Y218980D02*
X1151536Y218980D01*
X1157516Y221457D01*
X1162093Y226034D01*
X1164570Y232014D01*
X1164570Y238486D01*
X1162093Y244466D01*
X1157516Y249043D01*
X1151536Y251520D01*
X1145064Y251520D01*
X1139084Y249043D01*
X1134507Y244466D01*
X1132030Y238486D01*
X1132030Y232014D01*
X1134507Y226034D01*
X1139084Y221457D01*
X1145064Y218980D01*
G37*
G36*
X535464Y218980D02*
X541936Y218980D01*
X547916Y221457D01*
X552493Y226034D01*
X554970Y232014D01*
X554970Y238486D01*
X552493Y244466D01*
X547916Y249043D01*
X541936Y251520D01*
X535464Y251520D01*
X529484Y249043D01*
X524907Y244466D01*
X522430Y238486D01*
X522430Y232014D01*
X524907Y226034D01*
X529484Y221457D01*
X535464Y218980D01*
G37*
G36*
X1185264Y218980D02*
X1191736Y218980D01*
X1197716Y221457D01*
X1202293Y226034D01*
X1204770Y232014D01*
X1204770Y238486D01*
X1202293Y244466D01*
X1197716Y249043D01*
X1191736Y251520D01*
X1185264Y251520D01*
X1179284Y249043D01*
X1174707Y244466D01*
X1172230Y238486D01*
X1172230Y232014D01*
X1174707Y226034D01*
X1179284Y221457D01*
X1185264Y218980D01*
G37*
G36*
X129064Y218980D02*
X135536Y218980D01*
X141516Y221457D01*
X146093Y226034D01*
X148570Y232014D01*
X148570Y238486D01*
X146093Y244466D01*
X141516Y249043D01*
X135536Y251520D01*
X129064Y251520D01*
X123084Y249043D01*
X118507Y244466D01*
X116030Y238486D01*
X116030Y232014D01*
X118507Y226034D01*
X123084Y221457D01*
X129064Y218980D01*
G37*
G36*
X1348264Y218980D02*
X1354736Y218980D01*
X1360716Y221457D01*
X1365293Y226034D01*
X1367770Y232014D01*
X1367770Y238486D01*
X1365293Y244466D01*
X1360716Y249043D01*
X1354736Y251520D01*
X1348264Y251520D01*
X1342284Y249043D01*
X1337707Y244466D01*
X1335230Y238486D01*
X1335230Y232014D01*
X1337707Y226034D01*
X1342284Y221457D01*
X1348264Y218980D01*
G37*
G36*
X1039632Y217170D02*
X1043168Y217170D01*
X1046436Y218523D01*
X1048937Y221024D01*
X1050290Y224292D01*
X1050290Y227828D01*
X1048937Y231096D01*
X1046436Y233597D01*
X1043168Y234950D01*
X1039632Y234950D01*
X1036364Y233597D01*
X1033863Y231096D01*
X1032510Y227828D01*
X1032510Y224292D01*
X1033863Y221024D01*
X1036364Y218523D01*
X1039632Y217170D01*
G37*
G36*
X836432Y217170D02*
X839968Y217170D01*
X843236Y218523D01*
X845737Y221024D01*
X847090Y224292D01*
X847090Y227828D01*
X845737Y231096D01*
X843236Y233597D01*
X839968Y234950D01*
X836432Y234950D01*
X833164Y233597D01*
X830663Y231096D01*
X829310Y227828D01*
X829310Y224292D01*
X830663Y221024D01*
X833164Y218523D01*
X836432Y217170D01*
G37*
G36*
X1242832Y217170D02*
X1246368Y217170D01*
X1249636Y218523D01*
X1252137Y221024D01*
X1253490Y224292D01*
X1253490Y227828D01*
X1252137Y231096D01*
X1249636Y233597D01*
X1246368Y234950D01*
X1242832Y234950D01*
X1239564Y233597D01*
X1237063Y231096D01*
X1235710Y227828D01*
X1235710Y224292D01*
X1237063Y221024D01*
X1239564Y218523D01*
X1242832Y217170D01*
G37*
G36*
X1446032Y217170D02*
X1449568Y217170D01*
X1452836Y218523D01*
X1455337Y221024D01*
X1456690Y224292D01*
X1456690Y227828D01*
X1455337Y231096D01*
X1452836Y233597D01*
X1449568Y234950D01*
X1446032Y234950D01*
X1442764Y233597D01*
X1440263Y231096D01*
X1438910Y227828D01*
X1438910Y224292D01*
X1440263Y221024D01*
X1442764Y218523D01*
X1446032Y217170D01*
G37*
G36*
X633232Y217170D02*
X636768Y217170D01*
X640036Y218523D01*
X642537Y221024D01*
X643890Y224292D01*
X643890Y227828D01*
X642537Y231096D01*
X640036Y233597D01*
X636768Y234950D01*
X633232Y234950D01*
X629964Y233597D01*
X627463Y231096D01*
X626110Y227828D01*
X626110Y224292D01*
X627463Y221024D01*
X629964Y218523D01*
X633232Y217170D01*
G37*
G36*
X430032Y217170D02*
X433568Y217170D01*
X436836Y218523D01*
X439337Y221024D01*
X440690Y224292D01*
X440690Y227828D01*
X439337Y231096D01*
X436836Y233597D01*
X433568Y234950D01*
X430032Y234950D01*
X426764Y233597D01*
X424263Y231096D01*
X422910Y227828D01*
X422910Y224292D01*
X424263Y221024D01*
X426764Y218523D01*
X430032Y217170D01*
G37*
G36*
X226832Y217170D02*
X230368Y217170D01*
X233636Y218523D01*
X236137Y221024D01*
X237490Y224292D01*
X237490Y227828D01*
X236137Y231096D01*
X233636Y233597D01*
X230368Y234950D01*
X226832Y234950D01*
X223564Y233597D01*
X221063Y231096D01*
X219710Y227828D01*
X219710Y224292D01*
X221063Y221024D01*
X223564Y218523D01*
X226832Y217170D01*
G37*
G36*
X186913Y182628D02*
X194087Y182628D01*
X200714Y185373D01*
X205787Y190446D01*
X208532Y197073D01*
X208532Y204247D01*
X205787Y210874D01*
X200714Y215947D01*
X194087Y218692D01*
X186913Y218692D01*
X180286Y215947D01*
X175213Y210874D01*
X172468Y204247D01*
X172468Y197073D01*
X175213Y190446D01*
X180286Y185373D01*
X186913Y182628D01*
G37*
G36*
X-16287Y182628D02*
X-9113Y182628D01*
X-2486Y185373D01*
X2587Y190446D01*
X5332Y197073D01*
X5332Y204247D01*
X2587Y210874D01*
X-2486Y215947D01*
X-9113Y218692D01*
X-16287Y218692D01*
X-22914Y215947D01*
X-27987Y210874D01*
X-30732Y204247D01*
X-30732Y197073D01*
X-27987Y190446D01*
X-22914Y185373D01*
X-16287Y182628D01*
G37*
G36*
X313913Y182628D02*
X321087Y182628D01*
X327714Y185373D01*
X332787Y190446D01*
X335532Y197073D01*
X335532Y204247D01*
X332787Y210874D01*
X327714Y215947D01*
X321087Y218692D01*
X313913Y218692D01*
X307286Y215947D01*
X302213Y210874D01*
X299468Y204247D01*
X299468Y197073D01*
X302213Y190446D01*
X307286Y185373D01*
X313913Y182628D01*
G37*
G36*
X390113Y182628D02*
X397287Y182628D01*
X403914Y185373D01*
X408987Y190446D01*
X411732Y197073D01*
X411732Y204247D01*
X408987Y210874D01*
X403914Y215947D01*
X397287Y218692D01*
X390113Y218692D01*
X383486Y215947D01*
X378413Y210874D01*
X375668Y204247D01*
X375668Y197073D01*
X378413Y190446D01*
X383486Y185373D01*
X390113Y182628D01*
G37*
G36*
X110713Y182628D02*
X117887Y182628D01*
X124514Y185373D01*
X129587Y190446D01*
X132332Y197073D01*
X132332Y204247D01*
X129587Y210874D01*
X124514Y215947D01*
X117887Y218692D01*
X110713Y218692D01*
X104086Y215947D01*
X99013Y210874D01*
X96268Y204247D01*
X96268Y197073D01*
X99013Y190446D01*
X104086Y185373D01*
X110713Y182628D01*
G37*
G36*
X517113Y182628D02*
X524287Y182628D01*
X530914Y185373D01*
X535987Y190446D01*
X538732Y197073D01*
X538732Y204247D01*
X535987Y210874D01*
X530914Y215947D01*
X524287Y218692D01*
X517113Y218692D01*
X510486Y215947D01*
X505413Y210874D01*
X502668Y204247D01*
X502668Y197073D01*
X505413Y190446D01*
X510486Y185373D01*
X517113Y182628D01*
G37*
G36*
X593313Y182628D02*
X600487Y182628D01*
X607114Y185373D01*
X612187Y190446D01*
X614932Y197073D01*
X614932Y204247D01*
X612187Y210874D01*
X607114Y215947D01*
X600487Y218692D01*
X593313Y218692D01*
X586686Y215947D01*
X581613Y210874D01*
X578868Y204247D01*
X578868Y197073D01*
X581613Y190446D01*
X586686Y185373D01*
X593313Y182628D01*
G37*
G36*
X720313Y182628D02*
X727487Y182628D01*
X734114Y185373D01*
X739187Y190446D01*
X741932Y197073D01*
X741932Y204247D01*
X739187Y210874D01*
X734114Y215947D01*
X727487Y218692D01*
X720313Y218692D01*
X713686Y215947D01*
X708613Y210874D01*
X705868Y204247D01*
X705868Y197073D01*
X708613Y190446D01*
X713686Y185373D01*
X720313Y182628D01*
G37*
G36*
X796513Y182628D02*
X803687Y182628D01*
X810314Y185373D01*
X815387Y190446D01*
X818132Y197073D01*
X818132Y204247D01*
X815387Y210874D01*
X810314Y215947D01*
X803687Y218692D01*
X796513Y218692D01*
X789886Y215947D01*
X784813Y210874D01*
X782068Y204247D01*
X782068Y197073D01*
X784813Y190446D01*
X789886Y185373D01*
X796513Y182628D01*
G37*
G36*
X923513Y182628D02*
X930687Y182628D01*
X937314Y185373D01*
X942387Y190446D01*
X945132Y197073D01*
X945132Y204247D01*
X942387Y210874D01*
X937314Y215947D01*
X930687Y218692D01*
X923513Y218692D01*
X916886Y215947D01*
X911813Y210874D01*
X909068Y204247D01*
X909068Y197073D01*
X911813Y190446D01*
X916886Y185373D01*
X923513Y182628D01*
G37*
G36*
X999713Y182628D02*
X1006887Y182628D01*
X1013514Y185373D01*
X1018587Y190446D01*
X1021332Y197073D01*
X1021332Y204247D01*
X1018587Y210874D01*
X1013514Y215947D01*
X1006887Y218692D01*
X999713Y218692D01*
X993086Y215947D01*
X988013Y210874D01*
X985268Y204247D01*
X985268Y197073D01*
X988013Y190446D01*
X993086Y185373D01*
X999713Y182628D01*
G37*
G36*
X1126713Y182628D02*
X1133887Y182628D01*
X1140514Y185373D01*
X1145587Y190446D01*
X1148332Y197073D01*
X1148332Y204247D01*
X1145587Y210874D01*
X1140514Y215947D01*
X1133887Y218692D01*
X1126713Y218692D01*
X1120086Y215947D01*
X1115013Y210874D01*
X1112268Y204247D01*
X1112268Y197073D01*
X1115013Y190446D01*
X1120086Y185373D01*
X1126713Y182628D01*
G37*
G36*
X1202913Y182628D02*
X1210087Y182628D01*
X1216714Y185373D01*
X1221787Y190446D01*
X1224532Y197073D01*
X1224532Y204247D01*
X1221787Y210874D01*
X1216714Y215947D01*
X1210087Y218692D01*
X1202913Y218692D01*
X1196286Y215947D01*
X1191213Y210874D01*
X1188468Y204247D01*
X1188468Y197073D01*
X1191213Y190446D01*
X1196286Y185373D01*
X1202913Y182628D01*
G37*
G36*
X1329913Y182628D02*
X1337087Y182628D01*
X1343714Y185373D01*
X1348787Y190446D01*
X1351532Y197073D01*
X1351532Y204247D01*
X1348787Y210874D01*
X1343714Y215947D01*
X1337087Y218692D01*
X1329913Y218692D01*
X1323286Y215947D01*
X1318213Y210874D01*
X1315468Y204247D01*
X1315468Y197073D01*
X1318213Y190446D01*
X1323286Y185373D01*
X1329913Y182628D01*
G37*
G36*
X1406113Y182628D02*
X1413287Y182628D01*
X1419914Y185373D01*
X1424987Y190446D01*
X1427732Y197073D01*
X1427732Y204247D01*
X1424987Y210874D01*
X1419914Y215947D01*
X1413287Y218692D01*
X1406113Y218692D01*
X1399486Y215947D01*
X1394413Y210874D01*
X1391668Y204247D01*
X1391668Y197073D01*
X1394413Y190446D01*
X1399486Y185373D01*
X1406113Y182628D01*
G37*
G36*
X1533113Y182628D02*
X1540287Y182628D01*
X1546914Y185373D01*
X1551987Y190446D01*
X1554732Y197073D01*
X1554732Y204247D01*
X1551987Y210874D01*
X1546914Y215947D01*
X1540287Y218692D01*
X1533113Y218692D01*
X1526486Y215947D01*
X1521413Y210874D01*
X1518668Y204247D01*
X1518668Y197073D01*
X1521413Y190446D01*
X1526486Y185373D01*
X1533113Y182628D01*
G37*
%LPD*%
D10*
X849375Y812800D02*
X865125Y812800D01*
X865125Y787400D02*
X849375Y787400D01*
X849375Y762000D02*
X865125Y762000D01*
X865125Y736600D02*
X849375Y736600D01*
X849375Y711200D02*
X865125Y711200D01*
X865125Y685800D02*
X849375Y685800D01*
X849375Y660400D02*
X865125Y660400D01*
X865125Y635000D02*
X849375Y635000D01*
X976375Y812800D02*
X992125Y812800D01*
X992125Y787400D02*
X976375Y787400D01*
X976375Y762000D02*
X992125Y762000D01*
X992125Y736600D02*
X976375Y736600D01*
X976375Y711200D02*
X992125Y711200D01*
X992125Y685800D02*
X976375Y685800D01*
X976375Y660400D02*
X992125Y660400D01*
X992125Y635000D02*
X976375Y635000D01*
D11*
X1060450Y685800D03*
X1060450Y710800D03*
X1060450Y735800D03*
X1060450Y760800D03*
D12*
X12700Y660400D03*
D13*
X12700Y685800D03*
X38100Y660400D03*
X38100Y685800D03*
X63500Y660400D03*
X63500Y685800D03*
X88900Y660400D03*
X88900Y685800D03*
X114300Y660400D03*
X114300Y685800D03*
X139700Y660400D03*
X139700Y685800D03*
X165100Y660400D03*
X165100Y685800D03*
X190500Y660400D03*
X190500Y685800D03*
D12*
X12700Y546100D03*
D13*
X12700Y571500D03*
X38100Y546100D03*
X38100Y571500D03*
X63500Y546100D03*
X63500Y571500D03*
X88900Y546100D03*
X88900Y571500D03*
X114300Y546100D03*
X114300Y571500D03*
X139700Y546100D03*
X139700Y571500D03*
X165100Y546100D03*
X165100Y571500D03*
X190500Y546100D03*
X190500Y571500D03*
D12*
X12700Y887082D03*
D13*
X12700Y912482D03*
X38100Y887082D03*
X38100Y912482D03*
X63500Y887082D03*
X63500Y912482D03*
X88900Y887082D03*
X88900Y912482D03*
X114300Y887082D03*
X114300Y912482D03*
X139700Y887082D03*
X139700Y912482D03*
X165100Y887082D03*
X165100Y912482D03*
X190500Y887082D03*
X190500Y912482D03*
D12*
X12700Y772202D03*
D13*
X12700Y797602D03*
X38100Y772202D03*
X38100Y797602D03*
X63500Y772202D03*
X63500Y797602D03*
X88900Y772202D03*
X88900Y797602D03*
X114300Y772202D03*
X114300Y797602D03*
X139700Y772202D03*
X139700Y797602D03*
X165100Y772202D03*
X165100Y797602D03*
X190500Y772202D03*
X190500Y797602D03*
D14*
X1447800Y565150D03*
D15*
X1447800Y590550D03*
D16*
X1498600Y514350D03*
X1498600Y615950D03*
D11*
X889000Y393060D03*
X889000Y465460D03*
X1003300Y393060D03*
X1003300Y465460D03*
X939800Y393060D03*
X939800Y465460D03*
X1054100Y393060D03*
X1054100Y465460D03*
X1117600Y393060D03*
X1117600Y465460D03*
D14*
X1447800Y755650D03*
D15*
X1447800Y781050D03*
D16*
X1498600Y704850D03*
X1498600Y806450D03*
D17*
X-6350Y387350D03*
X19050Y387350D03*
X-6350Y412750D03*
X19050Y412750D03*
X-6350Y438150D03*
X19050Y438150D03*
D18*
X965200Y530860D03*
D17*
X1003300Y530860D03*
D18*
X1079500Y530860D03*
D17*
X1117600Y530860D03*
D18*
X850900Y530860D03*
D17*
X889000Y530860D03*
D19*
X15240Y243840D03*
X35560Y243840D03*
X55880Y243840D03*
X76200Y243840D03*
X25400Y226060D03*
X45720Y226060D03*
X66040Y226060D03*
D20*
X86360Y226060D03*
D16*
X132300Y235250D03*
X-30700Y235250D03*
D19*
X218440Y243840D03*
X238760Y243840D03*
X259080Y243840D03*
X279400Y243840D03*
X228600Y226060D03*
X248920Y226060D03*
X269240Y226060D03*
D20*
X289560Y226060D03*
D16*
X335500Y235250D03*
X172500Y235250D03*
D19*
X421640Y243840D03*
X441960Y243840D03*
X462280Y243840D03*
X482600Y243840D03*
X431800Y226060D03*
X452120Y226060D03*
X472440Y226060D03*
D20*
X492760Y226060D03*
D16*
X538700Y235250D03*
X375700Y235250D03*
D19*
X624840Y243840D03*
X645160Y243840D03*
X665480Y243840D03*
X685800Y243840D03*
X635000Y226060D03*
X655320Y226060D03*
X675640Y226060D03*
D20*
X695960Y226060D03*
D16*
X741900Y235250D03*
X578900Y235250D03*
D19*
X828040Y243840D03*
X848360Y243840D03*
X868680Y243840D03*
X889000Y243840D03*
X838200Y226060D03*
X858520Y226060D03*
X878840Y226060D03*
D20*
X899160Y226060D03*
D16*
X945100Y235250D03*
X782100Y235250D03*
D19*
X1031240Y243840D03*
X1051560Y243840D03*
X1071880Y243840D03*
X1092200Y243840D03*
X1041400Y226060D03*
X1061720Y226060D03*
X1082040Y226060D03*
D20*
X1102360Y226060D03*
D16*
X1148300Y235250D03*
X985300Y235250D03*
D19*
X1234440Y243840D03*
X1254760Y243840D03*
X1275080Y243840D03*
X1295400Y243840D03*
X1244600Y226060D03*
X1264920Y226060D03*
X1285240Y226060D03*
D20*
X1305560Y226060D03*
D16*
X1351500Y235250D03*
X1188500Y235250D03*
D19*
X1437640Y243840D03*
X1457960Y243840D03*
X1478280Y243840D03*
X1498600Y243840D03*
X1447800Y226060D03*
X1468120Y226060D03*
X1488440Y226060D03*
D20*
X1508760Y226060D03*
D16*
X1554700Y235250D03*
X1391700Y235250D03*
D21*
X1525200Y901850D02*
X1525200Y923850D01*
X1503700Y958850D02*
X1481700Y958850D01*
X1464200Y923850D02*
X1464200Y901850D01*
D18*
X330200Y673100D03*
D17*
X330200Y711200D03*
D18*
X431800Y673100D03*
D17*
X431800Y711200D03*
D18*
X533400Y673100D03*
D17*
X533400Y711200D03*
D18*
X635000Y673100D03*
D17*
X635000Y711200D03*
D18*
X736600Y673100D03*
D17*
X736600Y711200D03*
D18*
X381000Y774700D03*
D17*
X381000Y812800D03*
D18*
X482600Y774700D03*
D17*
X482600Y812800D03*
D18*
X584200Y774700D03*
D17*
X584200Y812800D03*
D18*
X685800Y774700D03*
D17*
X685800Y812800D03*
D22*
X609600Y493550D03*
X609600Y391950D03*
X501650Y493594D03*
X501650Y391994D03*
X1403350Y856017D03*
X1221944Y495300D03*
D23*
X711200Y838200D02*
X685800Y812800D01*
X762000Y838200D02*
X812800Y838200D01*
X762000Y838200D02*
X711200Y838200D01*
D22*
X622300Y596900D03*
D23*
X727979Y596900D01*
D22*
X12700Y457200D03*
D23*
X785236Y810636D02*
X812800Y838200D01*
X825500Y850900D01*
X785236Y654157D02*
X727979Y596900D01*
X785236Y654157D02*
X785236Y810636D01*
X482600Y812800D02*
X381000Y812800D01*
X482600Y812800D02*
X584200Y812800D01*
X685800Y812800D01*
X736600Y812800D02*
X736600Y711200D01*
X431800Y711200D02*
X330200Y711200D01*
X431800Y711200D02*
X533400Y711200D01*
X635000Y711200D01*
X736600Y711200D01*
D22*
X825500Y850900D03*
D23*
X762000Y838200D02*
X736600Y812800D01*
X266700Y381000D02*
X101600Y381000D01*
X25400Y304800D01*
D22*
X266700Y381000D03*
X25400Y304800D03*
X533400Y422910D03*
D23*
X552450Y441960D01*
D22*
X1202690Y800100D03*
D23*
X1185672Y783082D01*
X608189Y441960D02*
X552450Y441960D01*
X608189Y441960D02*
X757287Y591058D01*
X1134977Y591058D01*
X1185672Y641753D01*
X1185672Y783082D01*
D22*
X374650Y374650D03*
D23*
X292100Y374650D01*
D22*
X228600Y273050D03*
D23*
X228600Y311150D02*
X292100Y374650D01*
X228600Y311150D02*
X228600Y273050D01*
D22*
X546100Y422910D03*
D23*
X546100Y424180D01*
X558800Y436880D01*
X607060Y436880D01*
X758190Y588010D01*
D22*
X1205230Y774700D03*
D23*
X1203191Y774700D02*
X1188720Y760229D01*
X1203191Y774700D02*
X1205230Y774700D01*
X1188720Y640849D02*
X1135881Y588010D01*
X758190Y588010D01*
X1188720Y640849D02*
X1188720Y760229D01*
D22*
X584200Y381000D03*
D23*
X571500Y368300D01*
X438150Y368300D01*
X431800Y361950D01*
X431800Y273050D01*
D22*
X431800Y273050D03*
X584200Y391160D03*
D23*
X604520Y370840D02*
X756920Y370840D01*
X604520Y370840D02*
X584200Y391160D01*
X659130Y273050D02*
X756920Y370840D01*
X659130Y273050D02*
X635000Y273050D01*
D22*
X635000Y273050D03*
X758036Y369724D03*
D23*
X756920Y370840D01*
X795020Y370840D02*
X838200Y327660D01*
X795020Y370840D02*
X769620Y396240D01*
X731520Y396240D01*
X795020Y383540D02*
X795020Y370840D01*
D22*
X795020Y383540D03*
X731520Y396240D03*
X838200Y273050D03*
D23*
X838200Y327660D01*
X786631Y408940D02*
X731520Y408940D01*
X786631Y408940D02*
X807720Y387851D01*
X807720Y396240D01*
D22*
X807720Y396240D03*
X731520Y408940D03*
X1041400Y273050D03*
D23*
X1041400Y298450D01*
X853687Y341884D02*
X807720Y387851D01*
X997966Y341884D02*
X1041400Y298450D01*
X997966Y341884D02*
X853687Y341884D01*
X803641Y421640D02*
X731520Y421640D01*
X803641Y421640D02*
X820420Y404861D01*
X820420Y421640D01*
D22*
X820420Y421640D03*
X731520Y421640D03*
X1245870Y275590D03*
D23*
X1245870Y297180D01*
X1187980Y355070D01*
X870211Y355070D02*
X820420Y404861D01*
X870211Y355070D02*
X1187980Y355070D01*
X820652Y434340D02*
X731520Y434340D01*
D22*
X731520Y434340D03*
D23*
X820652Y434340D02*
X832601Y422391D01*
D22*
X1447800Y266700D03*
D23*
X1447800Y298450D01*
X832601Y422391D02*
X832601Y437631D01*
X833120Y438150D01*
D22*
X833120Y438150D03*
D23*
X832601Y422391D02*
X885698Y369294D01*
X1376956Y369294D02*
X1447800Y298450D01*
X1376956Y369294D02*
X885698Y369294D01*
X817880Y260350D02*
X828040Y250190D01*
X838200Y260350D01*
X828040Y250190D02*
X828040Y243840D01*
X838200Y260350D02*
X1022350Y260350D01*
X1031240Y251460D01*
X615950Y260350D02*
X431800Y260350D01*
X615950Y260350D02*
X624840Y251460D01*
X633730Y260350D01*
X431800Y260350D02*
X421640Y250190D01*
X228600Y260350D02*
X218440Y250190D01*
X228600Y260350D02*
X411480Y260350D01*
X421640Y250190D01*
X24130Y260350D02*
X15240Y251460D01*
X15240Y243840D01*
X24130Y260350D02*
X208280Y260350D01*
X218440Y250190D01*
X633730Y260350D02*
X817880Y260350D01*
X218440Y250190D02*
X218440Y243840D01*
X421640Y243840D02*
X421640Y250190D01*
X624840Y251460D02*
X624840Y243840D01*
X1031240Y243840D02*
X1031240Y251460D01*
X1040130Y260350D01*
X1225550Y260350D01*
X1234440Y251460D01*
X1234440Y243840D01*
X1234440Y251460D02*
X1243330Y260350D01*
X1289050Y260350D01*
X1430020Y260350D01*
X1437640Y252730D01*
X1437640Y243840D01*
D22*
X1168400Y537210D03*
D23*
X1184910Y520700D01*
X1236980Y520700D01*
D22*
X1236980Y520700D03*
D23*
X15240Y251460D02*
X7424Y259276D01*
X7424Y426524D01*
X19050Y438150D01*
D22*
X1289050Y353201D03*
D23*
X1289050Y260350D01*
X482600Y184150D02*
X472188Y173738D01*
X482600Y184150D02*
X482600Y243840D01*
X675388Y173738D02*
X685800Y184150D01*
X685800Y243840D01*
X878588Y173738D02*
X889000Y184150D01*
X889000Y243840D01*
X878588Y173738D02*
X1081788Y173738D01*
X1092200Y184150D01*
X1092200Y243840D01*
X1284988Y173738D02*
X1295400Y184150D01*
X1295400Y243840D01*
X66040Y196850D02*
X38779Y196850D01*
X89152Y173738D02*
X268988Y173738D01*
X89152Y173738D02*
X66040Y196850D01*
X268988Y173738D02*
X472188Y173738D01*
X675388Y173738D01*
X878588Y173738D01*
X1081788Y173738D02*
X1284988Y173738D01*
X1485957Y173738D01*
X1498600Y186382D02*
X1498600Y243840D01*
X1498600Y186382D02*
X1485957Y173738D01*
X279400Y243840D02*
X279146Y243586D01*
X279146Y183896D02*
X268988Y173738D01*
X279146Y183896D02*
X279146Y243586D01*
X76200Y243840D02*
X75946Y243586D01*
X75946Y206756D01*
X66040Y196850D01*
X38779Y196850D02*
X4376Y231253D01*
X4376Y402024D02*
X-6350Y412750D01*
X4376Y402024D02*
X4376Y231253D01*
X59690Y193040D02*
X71120Y181610D01*
X59690Y193040D02*
X38100Y193040D01*
D22*
X71120Y181610D03*
X269240Y167640D03*
X472440Y167612D03*
X675640Y167612D03*
X878840Y167612D03*
X1082040Y167612D03*
D23*
X1079500Y170152D01*
X881380Y170152D01*
X878840Y167612D01*
D22*
X1285240Y167612D03*
D23*
X269240Y167640D02*
X266190Y170690D01*
X269240Y167640D02*
X272290Y170690D01*
X472440Y167612D02*
X472440Y167640D01*
X469390Y170690D01*
X272290Y170690D01*
X472440Y167612D02*
X475518Y170690D01*
X675640Y167612D02*
X675640Y167640D01*
X672590Y170690D01*
X475518Y170690D01*
X675640Y167640D02*
X678690Y170690D01*
X878840Y167640D02*
X878840Y167612D01*
X878840Y167640D02*
X875790Y170690D01*
X678690Y170690D01*
X1282162Y170690D02*
X1285240Y167612D01*
X1085118Y170690D02*
X1082040Y167612D01*
X1085118Y170690D02*
X1282162Y170690D01*
X1285240Y167612D02*
X1288318Y170690D01*
X1487680Y170690D01*
X1508760Y191770D01*
X1508760Y226060D01*
X87889Y170690D02*
X76969Y181610D01*
X71120Y181610D01*
X87889Y170690D02*
X266190Y170690D01*
X1328Y379672D02*
X-6350Y387350D01*
X1328Y379672D02*
X1328Y229812D01*
X38100Y193040D01*
D22*
X330200Y520700D03*
X406400Y520700D03*
D23*
X330200Y520700D01*
D22*
X330200Y533400D03*
D23*
X406400Y533400D01*
D22*
X406400Y533400D03*
D23*
X889000Y465460D02*
X939800Y465460D01*
X889000Y465460D02*
X889000Y530860D01*
X1003300Y465460D02*
X1054100Y465460D01*
X1003300Y465460D02*
X1003300Y530860D01*
D22*
X631190Y533400D03*
X495300Y533400D03*
D23*
X631190Y533400D01*
X1117600Y530860D02*
X1117600Y465460D01*
D22*
X622300Y571500D03*
D23*
X791332Y807681D02*
X820500Y836850D01*
X1322150Y836850D01*
X1405890Y753110D01*
X1405890Y595630D01*
X1436370Y565150D01*
X1447800Y565150D01*
X791332Y651632D02*
X791332Y807681D01*
X711200Y571500D02*
X622300Y571500D01*
X711200Y571500D02*
X791332Y651632D01*
D22*
X622300Y584200D03*
D23*
X788284Y809373D02*
X820159Y841248D01*
X1324102Y841248D01*
X1409700Y755650D01*
X1447800Y755650D01*
X788284Y809373D02*
X788284Y652895D01*
X719589Y584200D02*
X622300Y584200D01*
X719589Y584200D02*
X788284Y652895D01*
X993325Y760800D02*
X1060450Y760800D01*
X993325Y760800D02*
X992125Y762000D01*
X984250Y762000D01*
X992925Y735800D02*
X1060450Y735800D01*
X992925Y735800D02*
X992125Y736600D01*
X984250Y736600D01*
X992525Y710800D02*
X1060450Y710800D01*
X992525Y710800D02*
X992125Y711200D01*
X984250Y711200D01*
X984250Y685800D02*
X1060450Y685800D01*
D22*
X546100Y493550D03*
D23*
X567210Y472440D01*
D22*
X571500Y471734D03*
D23*
X570794Y472440D01*
X567210Y472440D01*
D22*
X609600Y472440D03*
D23*
X592582Y472440D01*
X571500Y493522D01*
D22*
X571500Y493522D03*
M02*
