M48
;GenerationSoftware,Autodesk,EAGLE,9.7.0*%
;CreationDate,2023-12-09T20:45:55Z*%
FMAT,2
ICI,OFF
METRIC,TZ,000.000
T9C0.350
T8C0.840
T7C0.890
T6C1.000
T5C1.016
T4C1.200
T3C1.520
T2C3.250
T1C4.500
%
G90
M71
T1
X4445Y51435
X4445Y17145
X31115Y16510
X31115Y52070
T2
X6985Y32766
X18415Y32766
T3
X20575Y29816
X4825Y29816
T4
X27559Y45847
X25019Y45847
T5
X14478Y17780
X19558Y17780
X17018Y17780
X11938Y17780
X9398Y17780
T6
X10160Y45720
X12700Y48260
X15240Y45720
T7
X17145Y23876
X8255Y26416
X9525Y23876
X10795Y26416
X12065Y23876
X13335Y26416
X14605Y23876
X15875Y26416
T8
X25654Y30219
X25654Y32719
X25654Y35219
X25654Y37719
T9
X26924Y21336
M30