M48
;GenerationSoftware,Autodesk,EAGLE,9.7.0*%
;CreationDate,2024-08-02T19:16:07Z*%
FMAT,2
ICI,OFF
METRIC,TZ,000.000
T11C0.660
T10C0.780
T9C0.840
T8C0.850
T7C0.890
T6C1.000
T5C1.016
T4C1.200
T3C1.520
T2C3.250
T1C4.500
%
G90
M71
T1
X3556Y38735
X3556Y4445
X30226Y4445
X30226Y38735
T2
X8001Y24511
X19431Y24511
T3
X21591Y21561
X5841Y21561
T4
X3810Y49911
X1270Y49911
X31496Y49657
X34036Y49657
T5
X19164Y8750
X16624Y8750
X14084Y8750
X11544Y8750
X9004Y8750
T6
X12192Y52070
X9652Y49530
X26162Y49530
X23622Y52070
X21082Y49530
X14732Y49530
T7
X10541Y15621
X11811Y18161
X13081Y15621
X15621Y15621
X16891Y18161
X18161Y15621
X9271Y18161
X14351Y18161
T8
X11303Y39878
X11303Y34798
T9
X27686Y29083
X27686Y21583
X27686Y24083
X27686Y26583
T10
X18034Y33622
X20574Y33622
X23114Y33622
X25654Y33622
X25654Y41562
X23114Y41562
X20574Y41562
X18034Y41562
T11
X24447Y9433
X31687Y9433
X31687Y11938
X24447Y11938
X31652Y14386
X24412Y14386
X31687Y16891
X24447Y16891
M30