G04 EAGLE Gerber RS-274X export*
G75*
%MOMM*%
%FSLAX34Y34*%
%LPD*%
%INSilkscreen Top*%
%IPPOS*%
%AMOC8*
5,1,8,0,0,1.08239X$1,22.5*%
G01*
G04 Define Apertures*
%ADD10C,0.152400*%
%ADD11C,0.500000*%
%ADD12C,0.120000*%
%ADD13C,0.127000*%
%ADD14C,0.200000*%
G36*
X313851Y534627D02*
X312060Y534627D01*
X312060Y539828D01*
X306809Y539828D01*
X306809Y541632D01*
X312060Y541632D01*
X312060Y546834D01*
X313851Y546834D01*
X313851Y541632D01*
X319102Y541632D01*
X319102Y539828D01*
X313851Y539828D01*
X313851Y534627D01*
G37*
G36*
X342288Y534516D02*
X340325Y534516D01*
X340325Y540650D01*
X342288Y540650D01*
X342288Y534516D01*
G37*
G36*
X84128Y61722D02*
X83019Y61722D01*
X86239Y69612D01*
X87454Y69612D01*
X90624Y61722D01*
X89532Y61722D01*
X88630Y64029D01*
X85035Y64029D01*
X84128Y61722D01*
G37*
%LPC*%
G36*
X88311Y64864D02*
X87297Y67468D01*
X87141Y67879D01*
X86984Y68341D01*
X86833Y68806D01*
X86782Y68649D01*
X86609Y68119D01*
X86368Y67456D01*
X85360Y64864D01*
X88311Y64864D01*
G37*
%LPD*%
G36*
X94379Y62730D02*
X93556Y62730D01*
X93556Y65127D01*
X91182Y65127D01*
X91182Y65944D01*
X93556Y65944D01*
X93556Y68341D01*
X94379Y68341D01*
X94379Y65944D01*
X96754Y65944D01*
X96754Y65127D01*
X94379Y65127D01*
X94379Y62730D01*
G37*
G36*
X110967Y60452D02*
X109858Y60452D01*
X113078Y68342D01*
X114293Y68342D01*
X117463Y60452D01*
X116371Y60452D01*
X115469Y62759D01*
X111874Y62759D01*
X110967Y60452D01*
G37*
%LPC*%
G36*
X115150Y63594D02*
X114137Y66198D01*
X113980Y66609D01*
X113823Y67071D01*
X113672Y67536D01*
X113621Y67379D01*
X113448Y66849D01*
X113207Y66186D01*
X112199Y63594D01*
X115150Y63594D01*
G37*
%LPD*%
G36*
X120770Y63050D02*
X117970Y63050D01*
X117970Y63946D01*
X120770Y63946D01*
X120770Y63050D01*
G37*
G36*
X144521Y60452D02*
X141570Y60452D01*
X141570Y68342D01*
X144180Y68342D01*
X144666Y68327D01*
X145125Y68280D01*
X145554Y68201D01*
X145955Y68091D01*
X146328Y67950D01*
X146672Y67777D01*
X146987Y67573D01*
X147274Y67337D01*
X147529Y67073D01*
X147750Y66782D01*
X147937Y66464D01*
X148090Y66120D01*
X148210Y65749D01*
X148295Y65352D01*
X148346Y64929D01*
X148363Y64478D01*
X148355Y64178D01*
X148333Y63887D01*
X148296Y63606D01*
X148244Y63334D01*
X148177Y63072D01*
X148095Y62819D01*
X147998Y62576D01*
X147887Y62342D01*
X147762Y62120D01*
X147624Y61911D01*
X147474Y61716D01*
X147311Y61533D01*
X147136Y61365D01*
X146949Y61210D01*
X146749Y61068D01*
X146537Y60939D01*
X146315Y60825D01*
X146084Y60726D01*
X145844Y60642D01*
X145596Y60574D01*
X145340Y60521D01*
X145076Y60482D01*
X144803Y60460D01*
X144521Y60452D01*
G37*
%LPC*%
G36*
X144398Y61309D02*
X144819Y61333D01*
X145213Y61404D01*
X145582Y61523D01*
X145924Y61690D01*
X146234Y61901D01*
X146506Y62154D01*
X146739Y62450D01*
X146935Y62787D01*
X147089Y63162D01*
X147199Y63568D01*
X147266Y64007D01*
X147288Y64478D01*
X147275Y64834D01*
X147237Y65168D01*
X147175Y65481D01*
X147087Y65771D01*
X146974Y66040D01*
X146836Y66287D01*
X146672Y66512D01*
X146484Y66716D01*
X146272Y66896D01*
X146037Y67052D01*
X145780Y67185D01*
X145500Y67293D01*
X145198Y67377D01*
X144874Y67437D01*
X144527Y67474D01*
X144157Y67486D01*
X142640Y67486D01*
X142640Y61309D01*
X144398Y61309D01*
G37*
%LPD*%
G36*
X136868Y60340D02*
X136517Y60348D01*
X136185Y60371D01*
X135872Y60411D01*
X135578Y60465D01*
X135302Y60536D01*
X135046Y60622D01*
X134809Y60724D01*
X134590Y60841D01*
X134391Y60974D01*
X134210Y61123D01*
X134049Y61288D01*
X133906Y61468D01*
X133782Y61663D01*
X133678Y61875D01*
X133592Y62102D01*
X133525Y62345D01*
X134561Y62552D01*
X134612Y62380D01*
X134676Y62220D01*
X134752Y62072D01*
X134841Y61935D01*
X134942Y61811D01*
X135057Y61698D01*
X135183Y61597D01*
X135323Y61508D01*
X135640Y61362D01*
X136010Y61258D01*
X136432Y61195D01*
X136907Y61174D01*
X137396Y61197D01*
X137825Y61263D01*
X138018Y61313D01*
X138195Y61374D01*
X138358Y61447D01*
X138506Y61530D01*
X138638Y61624D01*
X138752Y61729D01*
X138849Y61844D01*
X138928Y61969D01*
X138990Y62105D01*
X139034Y62251D01*
X139060Y62407D01*
X139069Y62574D01*
X139058Y62758D01*
X139025Y62924D01*
X138970Y63072D01*
X138893Y63202D01*
X138795Y63317D01*
X138680Y63421D01*
X138548Y63516D01*
X138397Y63599D01*
X138047Y63743D01*
X137635Y63862D01*
X136655Y64092D01*
X135833Y64299D01*
X135506Y64403D01*
X135236Y64506D01*
X135006Y64613D01*
X134802Y64725D01*
X134624Y64844D01*
X134471Y64968D01*
X134340Y65101D01*
X134224Y65245D01*
X134125Y65399D01*
X134043Y65565D01*
X133978Y65742D01*
X133932Y65932D01*
X133904Y66134D01*
X133895Y66349D01*
X133907Y66595D01*
X133943Y66827D01*
X134004Y67044D01*
X134088Y67246D01*
X134198Y67434D01*
X134331Y67608D01*
X134488Y67767D01*
X134670Y67911D01*
X134875Y68040D01*
X135100Y68151D01*
X135346Y68246D01*
X135613Y68323D01*
X135901Y68383D01*
X136210Y68426D01*
X136540Y68451D01*
X136891Y68460D01*
X137217Y68454D01*
X137523Y68434D01*
X137810Y68402D01*
X138076Y68357D01*
X138323Y68299D01*
X138551Y68228D01*
X138758Y68145D01*
X138946Y68048D01*
X139117Y67936D01*
X139275Y67806D01*
X139419Y67658D01*
X139551Y67492D01*
X139669Y67307D01*
X139773Y67105D01*
X139865Y66884D01*
X139943Y66646D01*
X138890Y66461D01*
X138783Y66753D01*
X138638Y67002D01*
X138453Y67208D01*
X138229Y67371D01*
X137962Y67494D01*
X137648Y67583D01*
X137287Y67636D01*
X136879Y67654D01*
X136434Y67634D01*
X136045Y67575D01*
X135712Y67477D01*
X135435Y67340D01*
X135318Y67257D01*
X135217Y67164D01*
X135131Y67061D01*
X135061Y66949D01*
X135006Y66828D01*
X134967Y66696D01*
X134944Y66555D01*
X134936Y66405D01*
X134948Y66231D01*
X134984Y66072D01*
X135045Y65930D01*
X135129Y65803D01*
X135237Y65688D01*
X135365Y65583D01*
X135515Y65487D01*
X135687Y65400D01*
X135914Y65312D01*
X136231Y65215D01*
X137137Y64994D01*
X137862Y64823D01*
X138216Y64728D01*
X138554Y64616D01*
X138874Y64485D01*
X139173Y64333D01*
X139442Y64152D01*
X139674Y63935D01*
X139863Y63679D01*
X140007Y63381D01*
X140060Y63214D01*
X140097Y63034D01*
X140120Y62839D01*
X140127Y62630D01*
X140114Y62365D01*
X140074Y62115D01*
X140007Y61881D01*
X139914Y61662D01*
X139794Y61458D01*
X139647Y61270D01*
X139474Y61097D01*
X139273Y60939D01*
X139049Y60799D01*
X138803Y60677D01*
X138535Y60574D01*
X138245Y60490D01*
X137934Y60424D01*
X137600Y60377D01*
X137245Y60349D01*
X136868Y60340D01*
G37*
G36*
X163252Y60340D02*
X162983Y60348D01*
X162727Y60370D01*
X162484Y60408D01*
X162255Y60460D01*
X162039Y60528D01*
X161837Y60611D01*
X161647Y60709D01*
X161471Y60822D01*
X161310Y60949D01*
X161164Y61089D01*
X161033Y61243D01*
X160918Y61411D01*
X160819Y61592D01*
X160735Y61787D01*
X160667Y61995D01*
X160614Y62216D01*
X161634Y62334D01*
X161729Y62059D01*
X161856Y61822D01*
X162014Y61620D01*
X162203Y61456D01*
X162424Y61328D01*
X162676Y61236D01*
X162960Y61181D01*
X163274Y61163D01*
X163472Y61171D01*
X163658Y61194D01*
X163834Y61232D01*
X163998Y61286D01*
X164152Y61355D01*
X164294Y61439D01*
X164425Y61538D01*
X164546Y61653D01*
X164653Y61781D01*
X164746Y61921D01*
X164825Y62072D01*
X164890Y62235D01*
X164940Y62409D01*
X164976Y62595D01*
X164998Y62792D01*
X165005Y63000D01*
X164998Y63182D01*
X164976Y63355D01*
X164940Y63518D01*
X164889Y63673D01*
X164824Y63819D01*
X164745Y63957D01*
X164651Y64085D01*
X164543Y64204D01*
X164422Y64312D01*
X164292Y64405D01*
X164151Y64484D01*
X164000Y64548D01*
X163840Y64599D01*
X163669Y64634D01*
X163488Y64656D01*
X163297Y64663D01*
X163096Y64655D01*
X162902Y64631D01*
X162715Y64591D01*
X162535Y64534D01*
X162359Y64459D01*
X162182Y64361D01*
X162006Y64240D01*
X161830Y64098D01*
X160844Y64098D01*
X161107Y68342D01*
X165593Y68342D01*
X165593Y67486D01*
X162026Y67486D01*
X161874Y64982D01*
X162043Y65101D01*
X162222Y65203D01*
X162411Y65290D01*
X162609Y65360D01*
X162818Y65416D01*
X163037Y65455D01*
X163265Y65479D01*
X163504Y65486D01*
X163788Y65476D01*
X164057Y65444D01*
X164311Y65390D01*
X164550Y65316D01*
X164775Y65220D01*
X164985Y65102D01*
X165180Y64963D01*
X165360Y64803D01*
X165522Y64626D01*
X165663Y64436D01*
X165782Y64233D01*
X165879Y64016D01*
X165955Y63787D01*
X166009Y63545D01*
X166041Y63290D01*
X166052Y63022D01*
X166040Y62719D01*
X166006Y62431D01*
X165948Y62161D01*
X165866Y61907D01*
X165762Y61669D01*
X165635Y61448D01*
X165484Y61244D01*
X165310Y61057D01*
X165116Y60889D01*
X164903Y60743D01*
X164673Y60620D01*
X164425Y60519D01*
X164158Y60441D01*
X163874Y60385D01*
X163572Y60351D01*
X163252Y60340D01*
G37*
G36*
X170909Y60452D02*
X169801Y60452D01*
X166581Y68342D01*
X167706Y68342D01*
X169890Y62787D01*
X170361Y61393D01*
X170831Y62787D01*
X173004Y68342D01*
X174129Y68342D01*
X170909Y60452D01*
G37*
G36*
X157225Y61460D02*
X156402Y61460D01*
X156402Y63857D01*
X154028Y63857D01*
X154028Y64674D01*
X156402Y64674D01*
X156402Y67071D01*
X157225Y67071D01*
X157225Y64674D01*
X159600Y64674D01*
X159600Y63857D01*
X157225Y63857D01*
X157225Y61460D01*
G37*
G36*
X200107Y60452D02*
X197156Y60452D01*
X197156Y68342D01*
X199765Y68342D01*
X200252Y68327D01*
X200711Y68280D01*
X201140Y68201D01*
X201541Y68091D01*
X201914Y67950D01*
X202258Y67777D01*
X202573Y67573D01*
X202859Y67337D01*
X203115Y67073D01*
X203336Y66782D01*
X203523Y66464D01*
X203676Y66120D01*
X203795Y65749D01*
X203881Y65352D01*
X203932Y64929D01*
X203949Y64478D01*
X203941Y64178D01*
X203919Y63887D01*
X203882Y63606D01*
X203830Y63334D01*
X203763Y63072D01*
X203681Y62819D01*
X203584Y62576D01*
X203473Y62342D01*
X203347Y62120D01*
X203210Y61911D01*
X203060Y61716D01*
X202897Y61533D01*
X202722Y61365D01*
X202535Y61210D01*
X202335Y61068D01*
X202123Y60939D01*
X201900Y60825D01*
X201669Y60726D01*
X201430Y60642D01*
X201182Y60574D01*
X200926Y60521D01*
X200661Y60482D01*
X200388Y60460D01*
X200107Y60452D01*
G37*
%LPC*%
G36*
X199984Y61309D02*
X200405Y61333D01*
X200799Y61404D01*
X201168Y61523D01*
X201510Y61690D01*
X201820Y61901D01*
X202092Y62154D01*
X202325Y62450D01*
X202521Y62787D01*
X202675Y63162D01*
X202785Y63568D01*
X202851Y64007D01*
X202873Y64478D01*
X202861Y64834D01*
X202823Y65168D01*
X202760Y65481D01*
X202673Y65771D01*
X202560Y66040D01*
X202421Y66287D01*
X202258Y66512D01*
X202070Y66716D01*
X201858Y66896D01*
X201623Y67052D01*
X201366Y67185D01*
X201086Y67293D01*
X200784Y67377D01*
X200460Y67437D01*
X200113Y67474D01*
X199743Y67486D01*
X198225Y67486D01*
X198225Y61309D01*
X199984Y61309D01*
G37*
%LPD*%
G36*
X189827Y60452D02*
X188875Y60452D01*
X188875Y68342D01*
X190118Y68342D01*
X194385Y61578D01*
X194335Y62524D01*
X194318Y63168D01*
X194318Y68342D01*
X195281Y68342D01*
X195281Y60452D01*
X193993Y60452D01*
X189771Y67172D01*
X189799Y66629D01*
X189827Y65694D01*
X189827Y60452D01*
G37*
G36*
X183580Y60340D02*
X183276Y60348D01*
X182983Y60371D01*
X182700Y60409D01*
X182428Y60463D01*
X182167Y60532D01*
X181916Y60617D01*
X181676Y60717D01*
X181447Y60833D01*
X181229Y60963D01*
X181025Y61106D01*
X180834Y61263D01*
X180656Y61434D01*
X180492Y61618D01*
X180341Y61816D01*
X180202Y62027D01*
X180078Y62252D01*
X179967Y62489D01*
X179871Y62736D01*
X179789Y62994D01*
X179723Y63261D01*
X179671Y63539D01*
X179634Y63827D01*
X179612Y64125D01*
X179604Y64434D01*
X179620Y64900D01*
X179669Y65340D01*
X179749Y65752D01*
X179862Y66137D01*
X180007Y66496D01*
X180184Y66827D01*
X180393Y67130D01*
X180635Y67407D01*
X180905Y67654D01*
X181202Y67868D01*
X181525Y68049D01*
X181874Y68197D01*
X182249Y68312D01*
X182650Y68394D01*
X183077Y68444D01*
X183530Y68460D01*
X183850Y68453D01*
X184154Y68432D01*
X184443Y68398D01*
X184717Y68349D01*
X184975Y68287D01*
X185218Y68211D01*
X185446Y68121D01*
X185658Y68018D01*
X185857Y67899D01*
X186043Y67763D01*
X186218Y67611D01*
X186382Y67442D01*
X186533Y67257D01*
X186673Y67055D01*
X186801Y66836D01*
X186918Y66601D01*
X185899Y66298D01*
X185715Y66612D01*
X185499Y66879D01*
X185251Y67102D01*
X184972Y67278D01*
X184659Y67413D01*
X184309Y67509D01*
X183924Y67567D01*
X183502Y67586D01*
X183170Y67573D01*
X182859Y67535D01*
X182568Y67470D01*
X182297Y67380D01*
X182046Y67264D01*
X181815Y67122D01*
X181604Y66954D01*
X181413Y66760D01*
X181244Y66543D01*
X181097Y66305D01*
X180973Y66046D01*
X180871Y65766D01*
X180792Y65464D01*
X180736Y65142D01*
X180702Y64798D01*
X180691Y64434D01*
X180703Y64070D01*
X180739Y63725D01*
X180799Y63401D01*
X180883Y63096D01*
X180990Y62811D01*
X181122Y62545D01*
X181278Y62299D01*
X181458Y62073D01*
X181659Y61870D01*
X181878Y61695D01*
X182116Y61546D01*
X182372Y61424D01*
X182647Y61330D01*
X182940Y61262D01*
X183251Y61222D01*
X183580Y61208D01*
X183960Y61223D01*
X184327Y61267D01*
X184681Y61340D01*
X185022Y61443D01*
X185341Y61571D01*
X185628Y61720D01*
X185883Y61890D01*
X186106Y62082D01*
X186106Y63504D01*
X183748Y63504D01*
X183748Y64400D01*
X187092Y64400D01*
X187092Y61678D01*
X186760Y61377D01*
X186394Y61112D01*
X185992Y60883D01*
X185554Y60690D01*
X185090Y60537D01*
X184606Y60428D01*
X184103Y60362D01*
X183580Y60340D01*
G37*
G36*
X338238Y442570D02*
X333622Y442570D01*
X333622Y454911D01*
X337704Y454911D01*
X338090Y454905D01*
X338465Y454886D01*
X338829Y454856D01*
X339182Y454813D01*
X339524Y454757D01*
X339854Y454690D01*
X340173Y454610D01*
X340481Y454518D01*
X340778Y454413D01*
X341064Y454297D01*
X341338Y454168D01*
X341602Y454026D01*
X341854Y453873D01*
X342095Y453707D01*
X342324Y453529D01*
X342543Y453339D01*
X342749Y453137D01*
X342942Y452925D01*
X343122Y452702D01*
X343288Y452470D01*
X343441Y452226D01*
X343581Y451973D01*
X343708Y451709D01*
X343821Y451435D01*
X343920Y451150D01*
X344007Y450855D01*
X344080Y450550D01*
X344140Y450234D01*
X344187Y449908D01*
X344220Y449571D01*
X344240Y449225D01*
X344247Y448867D01*
X344235Y448398D01*
X344200Y447943D01*
X344142Y447502D01*
X344060Y447077D01*
X343956Y446667D01*
X343828Y446272D01*
X343677Y445891D01*
X343502Y445526D01*
X343306Y445178D01*
X343091Y444852D01*
X342856Y444546D01*
X342602Y444261D01*
X342329Y443998D01*
X342036Y443755D01*
X341723Y443533D01*
X341391Y443332D01*
X341043Y443153D01*
X340682Y442999D01*
X340307Y442868D01*
X339920Y442760D01*
X339519Y442677D01*
X339105Y442618D01*
X338678Y442582D01*
X338238Y442570D01*
G37*
%LPC*%
G36*
X338045Y443910D02*
X338380Y443919D01*
X338704Y443947D01*
X339017Y443994D01*
X339321Y444059D01*
X339614Y444143D01*
X339897Y444245D01*
X340170Y444366D01*
X340432Y444506D01*
X340682Y444663D01*
X340917Y444836D01*
X341137Y445026D01*
X341342Y445233D01*
X341532Y445455D01*
X341707Y445695D01*
X341868Y445950D01*
X342013Y446222D01*
X342142Y446509D01*
X342254Y446808D01*
X342349Y447120D01*
X342427Y447444D01*
X342487Y447781D01*
X342530Y448131D01*
X342556Y448493D01*
X342565Y448867D01*
X342545Y449424D01*
X342486Y449947D01*
X342388Y450435D01*
X342251Y450890D01*
X342074Y451310D01*
X341858Y451696D01*
X341603Y452048D01*
X341308Y452366D01*
X340976Y452649D01*
X340609Y452893D01*
X340207Y453100D01*
X339770Y453270D01*
X339297Y453401D01*
X338790Y453495D01*
X338247Y453552D01*
X337669Y453571D01*
X335295Y453571D01*
X335295Y443910D01*
X338045Y443910D01*
G37*
%LPD*%
G36*
X331376Y442570D02*
X321654Y442570D01*
X321654Y454911D01*
X331017Y454911D01*
X331017Y453544D01*
X323327Y453544D01*
X323327Y449586D01*
X330491Y449586D01*
X330491Y448237D01*
X323327Y448237D01*
X323327Y443936D01*
X331376Y443936D01*
X331376Y442570D01*
G37*
G36*
X319594Y442570D02*
X311685Y442570D01*
X311685Y454911D01*
X313358Y454911D01*
X313358Y443936D01*
X319594Y443936D01*
X319594Y442570D01*
G37*
G36*
X304482Y317500D02*
X302809Y317500D01*
X302809Y329841D01*
X304482Y329841D01*
X304482Y323657D01*
X310429Y329841D01*
X312400Y329841D01*
X307145Y324481D01*
X313101Y317500D01*
X311025Y317500D01*
X306094Y323456D01*
X304482Y322230D01*
X304482Y317500D01*
G37*
G36*
X295297Y317325D02*
X294839Y317337D01*
X294396Y317373D01*
X293969Y317434D01*
X293558Y317519D01*
X293162Y317628D01*
X292782Y317761D01*
X292418Y317918D01*
X292070Y318100D01*
X291739Y318304D01*
X291429Y318529D01*
X291139Y318775D01*
X290870Y319042D01*
X290621Y319329D01*
X290391Y319637D01*
X290183Y319966D01*
X289994Y320316D01*
X289827Y320684D01*
X289682Y321069D01*
X289559Y321471D01*
X289459Y321889D01*
X289381Y322324D01*
X289325Y322775D01*
X289291Y323243D01*
X289280Y323727D01*
X289286Y324091D01*
X289305Y324445D01*
X289336Y324789D01*
X289380Y325123D01*
X289436Y325447D01*
X289504Y325761D01*
X289585Y326065D01*
X289679Y326359D01*
X289785Y326643D01*
X289903Y326917D01*
X290177Y327435D01*
X290501Y327914D01*
X290874Y328352D01*
X291292Y328744D01*
X291748Y329084D01*
X291990Y329234D01*
X292242Y329371D01*
X292504Y329495D01*
X292775Y329606D01*
X293056Y329705D01*
X293346Y329789D01*
X293646Y329861D01*
X293955Y329920D01*
X294274Y329966D01*
X294603Y329999D01*
X294941Y330018D01*
X295289Y330025D01*
X295771Y330013D01*
X296233Y329977D01*
X296675Y329916D01*
X297097Y329832D01*
X297499Y329724D01*
X297880Y329591D01*
X298241Y329435D01*
X298582Y329254D01*
X298901Y329050D01*
X299199Y328822D01*
X299475Y328571D01*
X299729Y328297D01*
X299961Y328000D01*
X300171Y327679D01*
X300360Y327335D01*
X300526Y326968D01*
X298941Y326442D01*
X298825Y326704D01*
X298694Y326949D01*
X298546Y327179D01*
X298381Y327393D01*
X298201Y327591D01*
X298004Y327773D01*
X297791Y327939D01*
X297561Y328089D01*
X297318Y328223D01*
X297064Y328338D01*
X296799Y328436D01*
X296522Y328516D01*
X296235Y328578D01*
X295936Y328623D01*
X295627Y328649D01*
X295306Y328658D01*
X294808Y328638D01*
X294338Y328576D01*
X293897Y328473D01*
X293484Y328329D01*
X293100Y328143D01*
X292744Y327917D01*
X292417Y327649D01*
X292118Y327340D01*
X291851Y326995D01*
X291620Y326620D01*
X291424Y326214D01*
X291264Y325778D01*
X291139Y325311D01*
X291050Y324814D01*
X290997Y324286D01*
X290979Y323727D01*
X290998Y323174D01*
X291054Y322649D01*
X291146Y322151D01*
X291276Y321681D01*
X291443Y321239D01*
X291647Y320825D01*
X291888Y320438D01*
X292166Y320079D01*
X292476Y319756D01*
X292812Y319476D01*
X293174Y319239D01*
X293562Y319045D01*
X293976Y318894D01*
X294417Y318786D01*
X294883Y318721D01*
X295376Y318700D01*
X295695Y318710D01*
X296004Y318740D01*
X296303Y318790D01*
X296592Y318860D01*
X296871Y318951D01*
X297139Y319061D01*
X297398Y319191D01*
X297647Y319341D01*
X297885Y319512D01*
X298114Y319702D01*
X298332Y319913D01*
X298541Y320143D01*
X298739Y320394D01*
X298927Y320665D01*
X299106Y320955D01*
X299274Y321266D01*
X300640Y320583D01*
X300440Y320196D01*
X300220Y319834D01*
X299982Y319495D01*
X299724Y319179D01*
X299446Y318888D01*
X299150Y318621D01*
X298834Y318377D01*
X298499Y318157D01*
X298147Y317962D01*
X297781Y317793D01*
X297402Y317650D01*
X297008Y317533D01*
X296601Y317442D01*
X296181Y317377D01*
X295746Y317338D01*
X295297Y317325D01*
G37*
G36*
X282812Y317500D02*
X274903Y317500D01*
X274903Y329841D01*
X276576Y329841D01*
X276576Y318866D01*
X282812Y318866D01*
X282812Y317500D01*
G37*
G36*
X286729Y317500D02*
X285056Y317500D01*
X285056Y329841D01*
X286729Y329841D01*
X286729Y317500D01*
G37*
G36*
X112952Y107063D02*
X111279Y107063D01*
X111279Y119404D01*
X116473Y119404D01*
X116977Y119389D01*
X117453Y119343D01*
X117898Y119267D01*
X118315Y119161D01*
X118702Y119024D01*
X119060Y118857D01*
X119388Y118659D01*
X119688Y118432D01*
X119954Y118176D01*
X120186Y117896D01*
X120381Y117590D01*
X120542Y117260D01*
X120666Y116905D01*
X120755Y116525D01*
X120808Y116120D01*
X120826Y115690D01*
X120808Y115263D01*
X120755Y114859D01*
X120665Y114477D01*
X120540Y114118D01*
X120380Y113781D01*
X120183Y113467D01*
X119951Y113174D01*
X119683Y112905D01*
X119385Y112663D01*
X119061Y112453D01*
X118711Y112275D01*
X118335Y112130D01*
X117935Y112017D01*
X117508Y111936D01*
X117056Y111888D01*
X116578Y111871D01*
X112952Y111871D01*
X112952Y107063D01*
G37*
%LPC*%
G36*
X116342Y113194D02*
X116681Y113204D01*
X116999Y113233D01*
X117294Y113281D01*
X117568Y113349D01*
X117820Y113436D01*
X118050Y113542D01*
X118258Y113668D01*
X118444Y113814D01*
X118608Y113978D01*
X118750Y114162D01*
X118871Y114365D01*
X118969Y114588D01*
X119046Y114830D01*
X119101Y115092D01*
X119134Y115372D01*
X119145Y115673D01*
X119133Y115962D01*
X119100Y116233D01*
X119044Y116485D01*
X118965Y116719D01*
X118864Y116934D01*
X118741Y117130D01*
X118595Y117307D01*
X118426Y117466D01*
X118236Y117606D01*
X118022Y117727D01*
X117787Y117830D01*
X117529Y117914D01*
X117248Y117980D01*
X116945Y118026D01*
X116620Y118054D01*
X116272Y118064D01*
X112952Y118064D01*
X112952Y113194D01*
X116342Y113194D01*
G37*
%LPD*%
G36*
X97831Y107063D02*
X96342Y107063D01*
X96342Y119404D01*
X98540Y119404D01*
X101825Y110847D01*
X101997Y110311D01*
X102162Y109739D01*
X102377Y108885D01*
X102485Y109326D01*
X102670Y109949D01*
X102857Y110530D01*
X102972Y110847D01*
X106195Y119404D01*
X108341Y119404D01*
X108341Y107063D01*
X106835Y107063D01*
X106835Y115296D01*
X106854Y116636D01*
X106913Y117924D01*
X106506Y116527D01*
X106319Y115956D01*
X106143Y115471D01*
X102955Y107063D01*
X101781Y107063D01*
X98549Y115471D01*
X98059Y116960D01*
X97770Y117924D01*
X97796Y116951D01*
X97831Y115296D01*
X97831Y107063D01*
G37*
G36*
X84702Y107063D02*
X82968Y107063D01*
X88004Y119404D01*
X89905Y119404D01*
X94862Y107063D01*
X93154Y107063D01*
X91744Y110671D01*
X86121Y110671D01*
X84702Y107063D01*
G37*
%LPC*%
G36*
X91245Y111976D02*
X89660Y116049D01*
X89414Y116693D01*
X89169Y117416D01*
X88933Y118142D01*
X88854Y117897D01*
X88582Y117067D01*
X88206Y116032D01*
X86629Y111976D01*
X91245Y111976D01*
G37*
%LPD*%
G36*
X262801Y548132D02*
X259850Y548132D01*
X259850Y556022D01*
X262459Y556022D01*
X262946Y556007D01*
X263405Y555960D01*
X263834Y555881D01*
X264235Y555771D01*
X264608Y555630D01*
X264952Y555457D01*
X265267Y555253D01*
X265553Y555017D01*
X265809Y554753D01*
X266030Y554462D01*
X266217Y554144D01*
X266370Y553800D01*
X266489Y553429D01*
X266575Y553032D01*
X266626Y552609D01*
X266643Y552158D01*
X266635Y551858D01*
X266613Y551567D01*
X266576Y551286D01*
X266524Y551014D01*
X266457Y550752D01*
X266375Y550499D01*
X266278Y550256D01*
X266167Y550022D01*
X266041Y549800D01*
X265904Y549591D01*
X265754Y549396D01*
X265591Y549213D01*
X265416Y549045D01*
X265229Y548890D01*
X265029Y548748D01*
X264817Y548619D01*
X264594Y548505D01*
X264363Y548406D01*
X264124Y548322D01*
X263876Y548254D01*
X263620Y548201D01*
X263355Y548162D01*
X263082Y548140D01*
X262801Y548132D01*
G37*
%LPC*%
G36*
X262678Y548989D02*
X263099Y549013D01*
X263493Y549084D01*
X263862Y549203D01*
X264204Y549370D01*
X264514Y549581D01*
X264786Y549834D01*
X265019Y550130D01*
X265215Y550467D01*
X265369Y550842D01*
X265479Y551248D01*
X265545Y551687D01*
X265567Y552158D01*
X265555Y552514D01*
X265517Y552848D01*
X265454Y553161D01*
X265367Y553451D01*
X265254Y553720D01*
X265115Y553967D01*
X264952Y554192D01*
X264764Y554396D01*
X264552Y554576D01*
X264317Y554732D01*
X264060Y554865D01*
X263780Y554973D01*
X263478Y555057D01*
X263154Y555117D01*
X262807Y555154D01*
X262437Y555166D01*
X260919Y555166D01*
X260919Y548989D01*
X262678Y548989D01*
G37*
%LPD*%
G36*
X219513Y548132D02*
X218444Y548132D01*
X218444Y556022D01*
X222156Y556022D01*
X222480Y556013D01*
X222785Y555985D01*
X223071Y555938D01*
X223337Y555873D01*
X223585Y555789D01*
X223814Y555687D01*
X224024Y555566D01*
X224214Y555426D01*
X224384Y555270D01*
X224532Y555099D01*
X224656Y554913D01*
X224758Y554713D01*
X224838Y554498D01*
X224894Y554268D01*
X224928Y554024D01*
X224940Y553766D01*
X224932Y553550D01*
X224908Y553343D01*
X224868Y553146D01*
X224812Y552956D01*
X224739Y552776D01*
X224651Y552604D01*
X224547Y552441D01*
X224427Y552287D01*
X224293Y552144D01*
X224147Y552015D01*
X223988Y551900D01*
X223917Y551858D01*
X223818Y551799D01*
X223635Y551711D01*
X223440Y551637D01*
X223233Y551577D01*
X223013Y551531D01*
X223967Y550084D01*
X225253Y548132D01*
X224021Y548132D01*
X221972Y551408D01*
X219513Y551408D01*
X219513Y548132D01*
G37*
%LPC*%
G36*
X222095Y552254D02*
X222300Y552260D01*
X222494Y552278D01*
X222675Y552309D01*
X222845Y552352D01*
X223002Y552408D01*
X223147Y552476D01*
X223281Y552556D01*
X223402Y552648D01*
X223511Y552752D01*
X223605Y552866D01*
X223684Y552989D01*
X223749Y553122D01*
X223799Y553265D01*
X223836Y553419D01*
X223857Y553582D01*
X223864Y553754D01*
X223857Y553921D01*
X223835Y554078D01*
X223799Y554225D01*
X223748Y554361D01*
X223682Y554487D01*
X223601Y554603D01*
X223506Y554709D01*
X223397Y554804D01*
X223273Y554889D01*
X223137Y554962D01*
X222826Y555075D01*
X222464Y555143D01*
X222050Y555166D01*
X219513Y555166D01*
X219513Y552254D01*
X222095Y552254D01*
G37*
%LPD*%
G36*
X230864Y548132D02*
X229912Y548132D01*
X229912Y556022D01*
X231318Y556022D01*
X233418Y550551D01*
X233634Y549843D01*
X233771Y549297D01*
X233840Y549579D01*
X233958Y549977D01*
X234152Y550551D01*
X236212Y556022D01*
X237584Y556022D01*
X237584Y548132D01*
X236621Y548132D01*
X236621Y553396D01*
X236634Y554253D01*
X236672Y555076D01*
X236411Y554183D01*
X236179Y553508D01*
X234140Y548132D01*
X233390Y548132D01*
X231324Y553508D01*
X231010Y554460D01*
X230825Y555076D01*
X230842Y554454D01*
X230864Y553396D01*
X230864Y548132D01*
G37*
G36*
X258441Y548132D02*
X252225Y548132D01*
X252225Y556022D01*
X258211Y556022D01*
X258211Y555149D01*
X253294Y555149D01*
X253294Y552618D01*
X257875Y552618D01*
X257875Y551755D01*
X253294Y551755D01*
X253294Y549006D01*
X258441Y549006D01*
X258441Y548132D01*
G37*
G36*
X214535Y548132D02*
X213471Y548132D01*
X213471Y555149D01*
X210760Y555149D01*
X210760Y556022D01*
X217245Y556022D01*
X217245Y555149D01*
X214535Y555149D01*
X214535Y548132D01*
G37*
G36*
X250875Y548132D02*
X245819Y548132D01*
X245819Y556022D01*
X246888Y556022D01*
X246888Y549006D01*
X250875Y549006D01*
X250875Y548132D01*
G37*
G36*
X227912Y548132D02*
X226842Y548132D01*
X226842Y556022D01*
X227912Y556022D01*
X227912Y548132D01*
G37*
G36*
X245010Y545853D02*
X238329Y545853D01*
X238329Y546581D01*
X245010Y546581D01*
X245010Y545853D01*
G37*
G36*
X87392Y548132D02*
X86323Y548132D01*
X86323Y556022D01*
X90036Y556022D01*
X90359Y556013D01*
X90664Y555985D01*
X90950Y555938D01*
X91217Y555873D01*
X91464Y555789D01*
X91693Y555687D01*
X91903Y555566D01*
X92094Y555426D01*
X92264Y555270D01*
X92411Y555099D01*
X92536Y554913D01*
X92638Y554713D01*
X92717Y554498D01*
X92774Y554268D01*
X92808Y554024D01*
X92819Y553766D01*
X92811Y553550D01*
X92787Y553343D01*
X92747Y553146D01*
X92691Y552956D01*
X92619Y552776D01*
X92531Y552604D01*
X92427Y552441D01*
X92306Y552287D01*
X92172Y552144D01*
X92026Y552015D01*
X91867Y551900D01*
X91797Y551858D01*
X91697Y551799D01*
X91514Y551711D01*
X91319Y551637D01*
X91112Y551577D01*
X90892Y551531D01*
X91846Y550084D01*
X93132Y548132D01*
X91900Y548132D01*
X89851Y551408D01*
X87392Y551408D01*
X87392Y548132D01*
G37*
%LPC*%
G36*
X89974Y552254D02*
X90179Y552260D01*
X90373Y552278D01*
X90554Y552309D01*
X90724Y552352D01*
X90881Y552408D01*
X91027Y552476D01*
X91160Y552556D01*
X91282Y552648D01*
X91390Y552752D01*
X91484Y552866D01*
X91563Y552989D01*
X91628Y553122D01*
X91679Y553265D01*
X91715Y553419D01*
X91736Y553582D01*
X91744Y553754D01*
X91736Y553921D01*
X91714Y554078D01*
X91678Y554225D01*
X91627Y554361D01*
X91561Y554487D01*
X91481Y554603D01*
X91386Y554709D01*
X91276Y554804D01*
X91153Y554889D01*
X91017Y554962D01*
X90706Y555075D01*
X90343Y555143D01*
X89929Y555166D01*
X87392Y555166D01*
X87392Y552254D01*
X89974Y552254D01*
G37*
%LPD*%
G36*
X156830Y548132D02*
X155760Y548132D01*
X155760Y556022D01*
X159473Y556022D01*
X159797Y556013D01*
X160102Y555985D01*
X160387Y555938D01*
X160654Y555873D01*
X160902Y555789D01*
X161131Y555687D01*
X161340Y555566D01*
X161531Y555426D01*
X161701Y555270D01*
X161848Y555099D01*
X161973Y554913D01*
X162075Y554713D01*
X162154Y554498D01*
X162211Y554268D01*
X162245Y554024D01*
X162256Y553766D01*
X162248Y553550D01*
X162224Y553343D01*
X162184Y553146D01*
X162128Y552956D01*
X162056Y552776D01*
X161968Y552604D01*
X161864Y552441D01*
X161744Y552287D01*
X161610Y552144D01*
X161463Y552015D01*
X161305Y551900D01*
X161234Y551858D01*
X161134Y551799D01*
X160951Y551711D01*
X160756Y551637D01*
X160549Y551577D01*
X160330Y551531D01*
X161284Y550084D01*
X162570Y548132D01*
X161338Y548132D01*
X159288Y551408D01*
X156830Y551408D01*
X156830Y548132D01*
G37*
%LPC*%
G36*
X159412Y552254D02*
X159617Y552260D01*
X159810Y552278D01*
X159992Y552309D01*
X160161Y552352D01*
X160319Y552408D01*
X160464Y552476D01*
X160598Y552556D01*
X160719Y552648D01*
X160827Y552752D01*
X160921Y552866D01*
X161001Y552989D01*
X161066Y553122D01*
X161116Y553265D01*
X161152Y553419D01*
X161174Y553582D01*
X161181Y553754D01*
X161174Y553921D01*
X161152Y554078D01*
X161115Y554225D01*
X161064Y554361D01*
X160999Y554487D01*
X160918Y554603D01*
X160823Y554709D01*
X160714Y554804D01*
X160590Y554889D01*
X160454Y554962D01*
X160143Y555075D01*
X159781Y555143D01*
X159367Y555166D01*
X156830Y555166D01*
X156830Y552254D01*
X159412Y552254D01*
G37*
%LPD*%
G36*
X98744Y548132D02*
X97792Y548132D01*
X97792Y556022D01*
X99197Y556022D01*
X101297Y550551D01*
X101513Y549843D01*
X101650Y549297D01*
X101719Y549579D01*
X101838Y549977D01*
X102031Y550551D01*
X104092Y556022D01*
X105464Y556022D01*
X105464Y548132D01*
X104500Y548132D01*
X104500Y553396D01*
X104513Y554253D01*
X104551Y555076D01*
X104290Y554183D01*
X104058Y553508D01*
X102020Y548132D01*
X101269Y548132D01*
X99203Y553508D01*
X98889Y554460D01*
X98704Y555076D01*
X98721Y554454D01*
X98744Y553396D01*
X98744Y548132D01*
G37*
G36*
X122306Y548132D02*
X121354Y548132D01*
X121354Y556022D01*
X122760Y556022D01*
X124860Y550551D01*
X125075Y549843D01*
X125213Y549297D01*
X125282Y549579D01*
X125400Y549977D01*
X125593Y550551D01*
X127654Y556022D01*
X129026Y556022D01*
X129026Y548132D01*
X128063Y548132D01*
X128063Y553396D01*
X128076Y554253D01*
X128113Y555076D01*
X127853Y554183D01*
X127621Y553508D01*
X125582Y548132D01*
X124832Y548132D01*
X122765Y553508D01*
X122452Y554460D01*
X122267Y555076D01*
X122284Y554454D01*
X122306Y553396D01*
X122306Y548132D01*
G37*
G36*
X119914Y548132D02*
X113698Y548132D01*
X113698Y556022D01*
X119684Y556022D01*
X119684Y555149D01*
X114767Y555149D01*
X114767Y552618D01*
X119348Y552618D01*
X119348Y551755D01*
X114767Y551755D01*
X114767Y549006D01*
X119914Y549006D01*
X119914Y548132D01*
G37*
G36*
X154320Y548132D02*
X148104Y548132D01*
X148104Y556022D01*
X154091Y556022D01*
X154091Y555149D01*
X149174Y555149D01*
X149174Y552618D01*
X153755Y552618D01*
X153755Y551755D01*
X149174Y551755D01*
X149174Y549006D01*
X154320Y549006D01*
X154320Y548132D01*
G37*
G36*
X82414Y548132D02*
X81350Y548132D01*
X81350Y555149D01*
X78640Y555149D01*
X78640Y556022D01*
X85124Y556022D01*
X85124Y555149D01*
X82414Y555149D01*
X82414Y548132D01*
G37*
G36*
X137195Y548132D02*
X136131Y548132D01*
X136131Y555149D01*
X133421Y555149D01*
X133421Y556022D01*
X139906Y556022D01*
X139906Y555149D01*
X137195Y555149D01*
X137195Y548132D01*
G37*
G36*
X144195Y548132D02*
X143131Y548132D01*
X143131Y555149D01*
X140421Y555149D01*
X140421Y556022D01*
X146906Y556022D01*
X146906Y555149D01*
X144195Y555149D01*
X144195Y548132D01*
G37*
G36*
X95791Y548132D02*
X94722Y548132D01*
X94722Y556022D01*
X95791Y556022D01*
X95791Y548132D01*
G37*
G36*
X132104Y548132D02*
X131034Y548132D01*
X131034Y556022D01*
X132104Y556022D01*
X132104Y548132D01*
G37*
G36*
X112889Y545853D02*
X106208Y545853D01*
X106208Y546581D01*
X112889Y546581D01*
X112889Y545853D01*
G37*
G36*
X287675Y98132D02*
X286203Y98132D01*
X286203Y102066D01*
X287505Y102066D01*
X287747Y102059D01*
X287976Y102035D01*
X288190Y101996D01*
X288390Y101941D01*
X288576Y101871D01*
X288747Y101784D01*
X288904Y101683D01*
X289047Y101565D01*
X289175Y101433D01*
X289285Y101288D01*
X289378Y101130D01*
X289455Y100958D01*
X289514Y100773D01*
X289557Y100575D01*
X289582Y100364D01*
X289590Y100140D01*
X289576Y99845D01*
X289531Y99569D01*
X289457Y99312D01*
X289353Y99074D01*
X289222Y98859D01*
X289066Y98671D01*
X288886Y98510D01*
X288680Y98375D01*
X288454Y98269D01*
X288211Y98193D01*
X287951Y98147D01*
X287675Y98132D01*
G37*
%LPC*%
G36*
X287613Y98559D02*
X287823Y98571D01*
X288020Y98607D01*
X288204Y98666D01*
X288374Y98749D01*
X288529Y98855D01*
X288664Y98981D01*
X288781Y99128D01*
X288878Y99296D01*
X288955Y99483D01*
X289010Y99686D01*
X289043Y99905D01*
X289054Y100140D01*
X289048Y100317D01*
X289029Y100484D01*
X288998Y100640D01*
X288954Y100784D01*
X288898Y100918D01*
X288829Y101042D01*
X288748Y101154D01*
X288654Y101255D01*
X288431Y101423D01*
X288303Y101489D01*
X288163Y101543D01*
X288013Y101585D01*
X287851Y101615D01*
X287678Y101633D01*
X287493Y101639D01*
X286737Y101639D01*
X286737Y98559D01*
X287613Y98559D01*
G37*
%LPD*%
G36*
X272455Y98132D02*
X271922Y98132D01*
X271922Y102066D01*
X273773Y102066D01*
X274087Y102048D01*
X274362Y101992D01*
X274600Y101899D01*
X274800Y101769D01*
X274958Y101606D01*
X275071Y101413D01*
X275139Y101192D01*
X275161Y100941D01*
X275145Y100731D01*
X275097Y100538D01*
X275018Y100362D01*
X274906Y100204D01*
X274766Y100068D01*
X274651Y99993D01*
X274602Y99960D01*
X274413Y99880D01*
X274201Y99827D01*
X274676Y99105D01*
X275318Y98132D01*
X274703Y98132D01*
X273681Y99766D01*
X272455Y99766D01*
X272455Y98132D01*
G37*
%LPC*%
G36*
X273743Y100187D02*
X273942Y100199D01*
X274117Y100236D01*
X274268Y100298D01*
X274395Y100384D01*
X274496Y100492D01*
X274567Y100620D01*
X274611Y100768D01*
X274625Y100936D01*
X274611Y101097D01*
X274567Y101238D01*
X274494Y101359D01*
X274392Y101459D01*
X274263Y101538D01*
X274107Y101594D01*
X273927Y101628D01*
X273720Y101639D01*
X272455Y101639D01*
X272455Y100187D01*
X273743Y100187D01*
G37*
%LPD*%
G36*
X285490Y98132D02*
X282391Y98132D01*
X282391Y102066D01*
X285376Y102066D01*
X285376Y101631D01*
X282924Y101631D01*
X282924Y100369D01*
X285208Y100369D01*
X285208Y99939D01*
X282924Y99939D01*
X282924Y98568D01*
X285490Y98568D01*
X285490Y98132D01*
G37*
G36*
X281725Y98132D02*
X279203Y98132D01*
X279203Y102066D01*
X279737Y102066D01*
X279737Y98568D01*
X281725Y98568D01*
X281725Y98132D01*
G37*
G36*
X278823Y96996D02*
X275491Y96996D01*
X275491Y97359D01*
X278823Y97359D01*
X278823Y96996D01*
G37*
G36*
X265469Y122946D02*
X264936Y122946D01*
X264936Y126880D01*
X266787Y126880D01*
X267101Y126862D01*
X267376Y126806D01*
X267614Y126713D01*
X267814Y126583D01*
X267972Y126420D01*
X268085Y126227D01*
X268153Y126006D01*
X268175Y125755D01*
X268159Y125545D01*
X268111Y125352D01*
X268031Y125176D01*
X267920Y125018D01*
X267780Y124882D01*
X267665Y124807D01*
X267616Y124774D01*
X267427Y124694D01*
X267215Y124641D01*
X267690Y123919D01*
X268331Y122946D01*
X267717Y122946D01*
X266695Y124580D01*
X265469Y124580D01*
X265469Y122946D01*
G37*
%LPC*%
G36*
X266757Y125001D02*
X266955Y125013D01*
X267130Y125050D01*
X267281Y125112D01*
X267409Y125198D01*
X267509Y125306D01*
X267581Y125434D01*
X267625Y125582D01*
X267639Y125750D01*
X267624Y125911D01*
X267581Y126052D01*
X267508Y126173D01*
X267406Y126273D01*
X267276Y126352D01*
X267121Y126408D01*
X266941Y126442D01*
X266734Y126453D01*
X265469Y126453D01*
X265469Y125001D01*
X266757Y125001D01*
G37*
%LPD*%
G36*
X293719Y122946D02*
X293186Y122946D01*
X293186Y126880D01*
X295037Y126880D01*
X295351Y126862D01*
X295626Y126806D01*
X295864Y126713D01*
X296064Y126583D01*
X296222Y126420D01*
X296335Y126227D01*
X296403Y126006D01*
X296425Y125755D01*
X296409Y125545D01*
X296361Y125352D01*
X296281Y125176D01*
X296170Y125018D01*
X296030Y124882D01*
X295915Y124807D01*
X295866Y124774D01*
X295677Y124694D01*
X295465Y124641D01*
X295940Y123919D01*
X296581Y122946D01*
X295967Y122946D01*
X294945Y124580D01*
X293719Y124580D01*
X293719Y122946D01*
G37*
%LPC*%
G36*
X295007Y125001D02*
X295205Y125013D01*
X295380Y125050D01*
X295531Y125112D01*
X295659Y125198D01*
X295759Y125306D01*
X295831Y125434D01*
X295875Y125582D01*
X295889Y125750D01*
X295874Y125911D01*
X295831Y126052D01*
X295758Y126173D01*
X295656Y126273D01*
X295526Y126352D01*
X295371Y126408D01*
X295191Y126442D01*
X294984Y126453D01*
X293719Y126453D01*
X293719Y125001D01*
X295007Y125001D01*
G37*
%LPD*%
G36*
X276504Y122946D02*
X276030Y122946D01*
X276030Y126880D01*
X276731Y126880D01*
X277778Y124152D01*
X277885Y123799D01*
X277954Y123527D01*
X278047Y123866D01*
X278144Y124152D01*
X279171Y126880D01*
X279855Y126880D01*
X279855Y122946D01*
X279375Y122946D01*
X279375Y125571D01*
X279381Y125998D01*
X279400Y126409D01*
X279270Y125963D01*
X279154Y125627D01*
X278138Y122946D01*
X277764Y122946D01*
X276733Y125627D01*
X276577Y126101D01*
X276485Y126409D01*
X276493Y126099D01*
X276504Y125571D01*
X276504Y122946D01*
G37*
G36*
X275317Y122946D02*
X272217Y122946D01*
X272217Y126880D01*
X275202Y126880D01*
X275202Y126445D01*
X272751Y126445D01*
X272751Y125183D01*
X275035Y125183D01*
X275035Y124753D01*
X272751Y124753D01*
X272751Y123382D01*
X275317Y123382D01*
X275317Y122946D01*
G37*
G36*
X292473Y122946D02*
X289373Y122946D01*
X289373Y126880D01*
X292359Y126880D01*
X292359Y126445D01*
X289907Y126445D01*
X289907Y125183D01*
X292191Y125183D01*
X292191Y124753D01*
X289907Y124753D01*
X289907Y123382D01*
X292473Y123382D01*
X292473Y122946D01*
G37*
G36*
X283946Y122946D02*
X283416Y122946D01*
X283416Y126445D01*
X282064Y126445D01*
X282064Y126880D01*
X285298Y126880D01*
X285298Y126445D01*
X283946Y126445D01*
X283946Y122946D01*
G37*
G36*
X287446Y122946D02*
X286916Y122946D01*
X286916Y126445D01*
X285564Y126445D01*
X285564Y126880D01*
X288798Y126880D01*
X288798Y126445D01*
X287446Y126445D01*
X287446Y122946D01*
G37*
G36*
X281403Y122946D02*
X280870Y122946D01*
X280870Y126880D01*
X281403Y126880D01*
X281403Y122946D01*
G37*
G36*
X271837Y121810D02*
X268505Y121810D01*
X268505Y122173D01*
X271837Y122173D01*
X271837Y121810D01*
G37*
G36*
X284018Y147372D02*
X283726Y147388D01*
X283454Y147434D01*
X283203Y147510D01*
X282973Y147618D01*
X282766Y147754D01*
X282585Y147918D01*
X282430Y148110D01*
X282301Y148329D01*
X282200Y148571D01*
X282127Y148832D01*
X282084Y149113D01*
X282069Y149413D01*
X282077Y149643D01*
X282102Y149860D01*
X282142Y150063D01*
X282198Y150254D01*
X282271Y150432D01*
X282360Y150597D01*
X282465Y150750D01*
X282586Y150889D01*
X282721Y151014D01*
X282870Y151122D01*
X283030Y151213D01*
X283204Y151288D01*
X283390Y151346D01*
X283589Y151388D01*
X283800Y151413D01*
X284024Y151421D01*
X284314Y151406D01*
X284585Y151361D01*
X284835Y151287D01*
X285066Y151182D01*
X285273Y151049D01*
X285455Y150889D01*
X285610Y150702D01*
X285740Y150488D01*
X285842Y150251D01*
X285915Y149992D01*
X285958Y149713D01*
X285973Y149413D01*
X285958Y149114D01*
X285914Y148835D01*
X285840Y148574D01*
X285737Y148333D01*
X285606Y148114D01*
X285450Y147923D01*
X285268Y147758D01*
X285060Y147621D01*
X284829Y147512D01*
X284579Y147434D01*
X284309Y147388D01*
X284018Y147372D01*
G37*
%LPC*%
G36*
X284018Y147805D02*
X284184Y147812D01*
X284339Y147831D01*
X284485Y147864D01*
X284620Y147910D01*
X284746Y147969D01*
X284862Y148041D01*
X285064Y148225D01*
X285224Y148457D01*
X285337Y148732D01*
X285406Y149051D01*
X285429Y149413D01*
X285406Y149761D01*
X285337Y150069D01*
X285222Y150337D01*
X285061Y150567D01*
X284859Y150750D01*
X284743Y150822D01*
X284618Y150881D01*
X284484Y150927D01*
X284340Y150959D01*
X284187Y150979D01*
X284024Y150985D01*
X283860Y150979D01*
X283705Y150960D01*
X283560Y150927D01*
X283425Y150882D01*
X283299Y150824D01*
X283183Y150753D01*
X282980Y150572D01*
X282818Y150345D01*
X282703Y150076D01*
X282634Y149765D01*
X282611Y149413D01*
X282634Y149062D01*
X282704Y148750D01*
X282821Y148475D01*
X282984Y148239D01*
X283188Y148049D01*
X283304Y147975D01*
X283429Y147914D01*
X283563Y147866D01*
X283706Y147832D01*
X283857Y147812D01*
X284018Y147805D01*
G37*
%LPD*%
G36*
X291831Y147372D02*
X291538Y147388D01*
X291266Y147434D01*
X291015Y147510D01*
X290785Y147618D01*
X290578Y147754D01*
X290397Y147918D01*
X290242Y148110D01*
X290114Y148329D01*
X290012Y148571D01*
X289940Y148832D01*
X289896Y149113D01*
X289882Y149413D01*
X289890Y149643D01*
X289914Y149860D01*
X289954Y150063D01*
X290011Y150254D01*
X290084Y150432D01*
X290172Y150597D01*
X290277Y150750D01*
X290398Y150889D01*
X290534Y151014D01*
X290682Y151122D01*
X290843Y151213D01*
X291016Y151288D01*
X291202Y151346D01*
X291401Y151388D01*
X291612Y151413D01*
X291836Y151421D01*
X292127Y151406D01*
X292397Y151361D01*
X292647Y151287D01*
X292878Y151182D01*
X293086Y151049D01*
X293267Y150889D01*
X293423Y150702D01*
X293552Y150488D01*
X293654Y150251D01*
X293727Y149992D01*
X293771Y149713D01*
X293786Y149413D01*
X293771Y149114D01*
X293727Y148835D01*
X293653Y148574D01*
X293550Y148333D01*
X293419Y148114D01*
X293262Y147923D01*
X293080Y147758D01*
X292872Y147621D01*
X292642Y147512D01*
X292391Y147434D01*
X292121Y147388D01*
X291831Y147372D01*
G37*
%LPC*%
G36*
X291831Y147805D02*
X291996Y147812D01*
X292152Y147831D01*
X292297Y147864D01*
X292433Y147910D01*
X292559Y147969D01*
X292675Y148041D01*
X292877Y148225D01*
X293036Y148457D01*
X293150Y148732D01*
X293218Y149051D01*
X293241Y149413D01*
X293218Y149761D01*
X293149Y150069D01*
X293034Y150337D01*
X292874Y150567D01*
X292671Y150750D01*
X292556Y150822D01*
X292431Y150881D01*
X292296Y150927D01*
X292153Y150959D01*
X291999Y150979D01*
X291836Y150985D01*
X291672Y150979D01*
X291518Y150960D01*
X291373Y150927D01*
X291238Y150882D01*
X291112Y150824D01*
X290996Y150753D01*
X290792Y150572D01*
X290631Y150345D01*
X290516Y150076D01*
X290447Y149765D01*
X290424Y149413D01*
X290447Y149062D01*
X290517Y148750D01*
X290633Y148475D01*
X290796Y148239D01*
X291001Y148049D01*
X291117Y147975D01*
X291241Y147914D01*
X291375Y147866D01*
X291518Y147832D01*
X291670Y147812D01*
X291831Y147805D01*
G37*
%LPD*%
G36*
X267551Y147428D02*
X267018Y147428D01*
X267018Y151362D01*
X268869Y151362D01*
X269182Y151344D01*
X269458Y151288D01*
X269695Y151195D01*
X269895Y151065D01*
X270053Y150902D01*
X270166Y150709D01*
X270234Y150488D01*
X270257Y150237D01*
X270241Y150027D01*
X270193Y149834D01*
X270113Y149658D01*
X270001Y149500D01*
X269861Y149364D01*
X269747Y149289D01*
X269697Y149256D01*
X269509Y149176D01*
X269296Y149123D01*
X269772Y148401D01*
X270413Y147428D01*
X269799Y147428D01*
X268777Y149062D01*
X267551Y149062D01*
X267551Y147428D01*
G37*
%LPC*%
G36*
X268838Y149483D02*
X269037Y149495D01*
X269212Y149532D01*
X269363Y149594D01*
X269490Y149680D01*
X269591Y149788D01*
X269663Y149916D01*
X269706Y150064D01*
X269721Y150232D01*
X269706Y150393D01*
X269662Y150534D01*
X269589Y150655D01*
X269487Y150755D01*
X269358Y150834D01*
X269203Y150890D01*
X269022Y150924D01*
X268816Y150935D01*
X267551Y150935D01*
X267551Y149483D01*
X268838Y149483D01*
G37*
%LPD*%
G36*
X274832Y147428D02*
X274299Y147428D01*
X274299Y151362D01*
X275955Y151362D01*
X276267Y151343D01*
X276542Y151285D01*
X276779Y151188D01*
X276979Y151052D01*
X277138Y150882D01*
X277252Y150679D01*
X277320Y150445D01*
X277343Y150178D01*
X277320Y149914D01*
X277251Y149677D01*
X277138Y149470D01*
X276978Y149291D01*
X276780Y149146D01*
X276548Y149043D01*
X276285Y148982D01*
X275988Y148961D01*
X274832Y148961D01*
X274832Y147428D01*
G37*
%LPC*%
G36*
X275913Y149383D02*
X276122Y149395D01*
X276304Y149432D01*
X276457Y149494D01*
X276583Y149580D01*
X276681Y149691D01*
X276751Y149827D01*
X276792Y149988D01*
X276806Y150173D01*
X276792Y150352D01*
X276749Y150506D01*
X276678Y150637D01*
X276577Y150745D01*
X276449Y150828D01*
X276291Y150888D01*
X276105Y150923D01*
X275890Y150935D01*
X274832Y150935D01*
X274832Y149383D01*
X275913Y149383D01*
G37*
%LPD*%
G36*
X278645Y147428D02*
X278111Y147428D01*
X278111Y151362D01*
X278645Y151362D01*
X278645Y149698D01*
X280772Y149698D01*
X280772Y151362D01*
X281306Y151362D01*
X281306Y147428D01*
X280772Y147428D01*
X280772Y149251D01*
X278645Y149251D01*
X278645Y147428D01*
G37*
G36*
X288246Y147428D02*
X287716Y147428D01*
X287716Y150927D01*
X286364Y150927D01*
X286364Y151362D01*
X289598Y151362D01*
X289598Y150927D01*
X288246Y150927D01*
X288246Y147428D01*
G37*
G36*
X273918Y146292D02*
X270587Y146292D01*
X270587Y146655D01*
X273918Y146655D01*
X273918Y146292D01*
G37*
G36*
X142833Y361556D02*
X142469Y361563D01*
X142115Y361581D01*
X141771Y361612D01*
X141437Y361656D01*
X141113Y361712D01*
X140799Y361780D01*
X140495Y361861D01*
X140201Y361955D01*
X139917Y362061D01*
X139643Y362179D01*
X139125Y362453D01*
X138646Y362777D01*
X138208Y363150D01*
X137816Y363568D01*
X137476Y364024D01*
X137326Y364266D01*
X137189Y364518D01*
X137065Y364780D01*
X136954Y365051D01*
X136856Y365332D01*
X136771Y365622D01*
X136699Y365922D01*
X136640Y366231D01*
X136594Y366550D01*
X136561Y366879D01*
X136542Y367217D01*
X136535Y367565D01*
X136547Y368047D01*
X136583Y368509D01*
X136644Y368952D01*
X136728Y369373D01*
X136836Y369775D01*
X136969Y370156D01*
X137125Y370517D01*
X137306Y370858D01*
X137510Y371178D01*
X137738Y371475D01*
X137989Y371751D01*
X138263Y372005D01*
X138560Y372237D01*
X138881Y372448D01*
X139225Y372636D01*
X139592Y372802D01*
X140118Y371217D01*
X139856Y371102D01*
X139611Y370970D01*
X139381Y370822D01*
X139167Y370658D01*
X138969Y370477D01*
X138787Y370280D01*
X138621Y370067D01*
X138471Y369837D01*
X138338Y369594D01*
X138222Y369340D01*
X138124Y369075D01*
X138044Y368799D01*
X137982Y368511D01*
X137937Y368213D01*
X137911Y367903D01*
X137902Y367582D01*
X137922Y367084D01*
X137984Y366614D01*
X138087Y366173D01*
X138231Y365760D01*
X138417Y365376D01*
X138643Y365020D01*
X138911Y364693D01*
X139220Y364394D01*
X139565Y364127D01*
X139940Y363896D01*
X140346Y363700D01*
X140782Y363540D01*
X141249Y363416D01*
X141746Y363327D01*
X142274Y363273D01*
X142833Y363255D01*
X143386Y363274D01*
X143911Y363330D01*
X144409Y363422D01*
X144879Y363552D01*
X145321Y363719D01*
X145735Y363923D01*
X146122Y364164D01*
X146481Y364442D01*
X146804Y364752D01*
X147084Y365088D01*
X147321Y365450D01*
X147515Y365838D01*
X147666Y366252D01*
X147774Y366693D01*
X147839Y367160D01*
X147860Y367652D01*
X147850Y367971D01*
X147820Y368280D01*
X147770Y368579D01*
X147700Y368868D01*
X147609Y369147D01*
X147499Y369416D01*
X147369Y369674D01*
X147219Y369923D01*
X147048Y370161D01*
X146858Y370390D01*
X146647Y370608D01*
X146417Y370817D01*
X146166Y371015D01*
X145895Y371203D01*
X145605Y371382D01*
X145294Y371550D01*
X145977Y372916D01*
X146364Y372716D01*
X146726Y372497D01*
X147065Y372258D01*
X147381Y372000D01*
X147672Y371722D01*
X147939Y371426D01*
X148183Y371110D01*
X148403Y370775D01*
X148598Y370423D01*
X148767Y370057D01*
X148910Y369678D01*
X149027Y369285D01*
X149118Y368878D01*
X149183Y368457D01*
X149222Y368022D01*
X149235Y367573D01*
X149223Y367115D01*
X149187Y366672D01*
X149126Y366245D01*
X149041Y365834D01*
X148932Y365438D01*
X148799Y365058D01*
X148642Y364694D01*
X148460Y364346D01*
X148256Y364016D01*
X148031Y363705D01*
X147785Y363416D01*
X147519Y363146D01*
X147231Y362897D01*
X146923Y362668D01*
X146594Y362459D01*
X146244Y362270D01*
X145876Y362103D01*
X145491Y361958D01*
X145089Y361835D01*
X144671Y361735D01*
X144236Y361657D01*
X143785Y361601D01*
X143317Y361567D01*
X142833Y361556D01*
G37*
G36*
X149060Y374949D02*
X147720Y374949D01*
X147720Y378094D01*
X138226Y378094D01*
X140214Y375308D01*
X138725Y375308D01*
X136719Y378225D01*
X136719Y379679D01*
X147720Y379679D01*
X147720Y382683D01*
X149060Y382683D01*
X149060Y374949D01*
G37*
G36*
X269917Y172476D02*
X269384Y172476D01*
X269384Y176410D01*
X271235Y176410D01*
X271548Y176392D01*
X271824Y176336D01*
X272062Y176243D01*
X272261Y176113D01*
X272420Y175950D01*
X272533Y175757D01*
X272600Y175536D01*
X272623Y175285D01*
X272607Y175075D01*
X272559Y174882D01*
X272479Y174706D01*
X272367Y174548D01*
X272228Y174412D01*
X272113Y174337D01*
X272063Y174304D01*
X271875Y174224D01*
X271662Y174171D01*
X272138Y173449D01*
X272779Y172476D01*
X272165Y172476D01*
X271143Y174110D01*
X269917Y174110D01*
X269917Y172476D01*
G37*
%LPC*%
G36*
X271204Y174531D02*
X271403Y174543D01*
X271578Y174580D01*
X271729Y174642D01*
X271856Y174728D01*
X271957Y174836D01*
X272029Y174964D01*
X272072Y175112D01*
X272087Y175280D01*
X272072Y175441D01*
X272028Y175582D01*
X271956Y175703D01*
X271854Y175803D01*
X271724Y175882D01*
X271569Y175938D01*
X271388Y175972D01*
X271182Y175983D01*
X269917Y175983D01*
X269917Y174531D01*
X271204Y174531D01*
G37*
%LPD*%
G36*
X284511Y172476D02*
X283978Y172476D01*
X283978Y176410D01*
X285829Y176410D01*
X286142Y176392D01*
X286418Y176336D01*
X286655Y176243D01*
X286855Y176113D01*
X287013Y175950D01*
X287126Y175757D01*
X287194Y175536D01*
X287217Y175285D01*
X287201Y175075D01*
X287153Y174882D01*
X287073Y174706D01*
X286961Y174548D01*
X286821Y174412D01*
X286707Y174337D01*
X286657Y174304D01*
X286469Y174224D01*
X286256Y174171D01*
X286732Y173449D01*
X287373Y172476D01*
X286759Y172476D01*
X285737Y174110D01*
X284511Y174110D01*
X284511Y172476D01*
G37*
%LPC*%
G36*
X285798Y174531D02*
X285997Y174543D01*
X286172Y174580D01*
X286323Y174642D01*
X286450Y174728D01*
X286551Y174836D01*
X286623Y174964D01*
X286666Y175112D01*
X286681Y175280D01*
X286666Y175441D01*
X286622Y175582D01*
X286549Y175703D01*
X286447Y175803D01*
X286318Y175882D01*
X286163Y175938D01*
X285982Y175972D01*
X285776Y175983D01*
X284511Y175983D01*
X284511Y174531D01*
X285798Y174531D01*
G37*
%LPD*%
G36*
X288577Y172476D02*
X288103Y172476D01*
X288103Y176410D01*
X288803Y176410D01*
X289851Y173682D01*
X289958Y173329D01*
X290026Y173057D01*
X290120Y173396D01*
X290216Y173682D01*
X291244Y176410D01*
X291928Y176410D01*
X291928Y172476D01*
X291448Y172476D01*
X291448Y175101D01*
X291454Y175528D01*
X291473Y175939D01*
X291343Y175493D01*
X291227Y175157D01*
X290211Y172476D01*
X289837Y172476D01*
X288806Y175157D01*
X288650Y175631D01*
X288558Y175939D01*
X288566Y175629D01*
X288577Y175101D01*
X288577Y172476D01*
G37*
G36*
X283265Y172476D02*
X280165Y172476D01*
X280165Y176410D01*
X283150Y176410D01*
X283150Y175975D01*
X280698Y175975D01*
X280698Y174713D01*
X282983Y174713D01*
X282983Y174283D01*
X280698Y174283D01*
X280698Y172912D01*
X283265Y172912D01*
X283265Y172476D01*
G37*
G36*
X278206Y172476D02*
X277676Y172476D01*
X277676Y175975D01*
X276324Y175975D01*
X276324Y176410D01*
X279558Y176410D01*
X279558Y175975D01*
X278206Y175975D01*
X278206Y172476D01*
G37*
G36*
X276284Y171340D02*
X272953Y171340D01*
X272953Y171703D01*
X276284Y171703D01*
X276284Y171340D01*
G37*
G36*
X55368Y444865D02*
X54714Y444882D01*
X54083Y444932D01*
X53474Y445016D01*
X52889Y445135D01*
X52326Y445286D01*
X51786Y445472D01*
X51269Y445691D01*
X50774Y445944D01*
X50305Y446229D01*
X49865Y446544D01*
X49453Y446889D01*
X49070Y447265D01*
X48716Y447670D01*
X48390Y448105D01*
X48092Y448571D01*
X47824Y449066D01*
X47585Y449588D01*
X47378Y450130D01*
X47203Y450694D01*
X47060Y451279D01*
X46949Y451886D01*
X46869Y452513D01*
X46821Y453162D01*
X46805Y453833D01*
X46814Y454344D01*
X46841Y454841D01*
X46885Y455324D01*
X46947Y455793D01*
X47027Y456248D01*
X47125Y456688D01*
X47240Y457115D01*
X47373Y457527D01*
X47523Y457925D01*
X47692Y458309D01*
X47878Y458679D01*
X48082Y459035D01*
X48304Y459376D01*
X48543Y459704D01*
X48800Y460017D01*
X49075Y460316D01*
X49366Y460599D01*
X49670Y460864D01*
X49989Y461111D01*
X50321Y461339D01*
X50667Y461549D01*
X51027Y461740D01*
X51401Y461914D01*
X51789Y462069D01*
X52191Y462206D01*
X52607Y462325D01*
X53036Y462425D01*
X53480Y462507D01*
X53937Y462571D01*
X54409Y462617D01*
X54894Y462644D01*
X55393Y462653D01*
X56041Y462637D01*
X56668Y462588D01*
X57273Y462506D01*
X57856Y462391D01*
X58417Y462244D01*
X58956Y462063D01*
X59473Y461850D01*
X59969Y461604D01*
X60439Y461327D01*
X60881Y461021D01*
X61294Y460684D01*
X61679Y460318D01*
X62035Y459922D01*
X62362Y459496D01*
X62661Y459041D01*
X62932Y458556D01*
X63172Y458045D01*
X63380Y457511D01*
X63556Y456954D01*
X63700Y456375D01*
X63812Y455773D01*
X63892Y455149D01*
X63940Y454502D01*
X63956Y453833D01*
X63940Y453165D01*
X63891Y452519D01*
X63810Y451894D01*
X63697Y451290D01*
X63551Y450707D01*
X63373Y450145D01*
X63162Y449605D01*
X62919Y449085D01*
X62646Y448590D01*
X62345Y448126D01*
X62015Y447690D01*
X61657Y447285D01*
X61271Y446908D01*
X60857Y446561D01*
X60415Y446244D01*
X59944Y445956D01*
X59449Y445701D01*
X58932Y445479D01*
X58392Y445291D01*
X57831Y445138D01*
X57248Y445018D01*
X56644Y444933D01*
X56017Y444882D01*
X55368Y444865D01*
G37*
%LPC*%
G36*
X55368Y446766D02*
X55737Y446773D01*
X56095Y446795D01*
X56442Y446831D01*
X56778Y446882D01*
X57103Y446946D01*
X57418Y447026D01*
X57721Y447120D01*
X58014Y447228D01*
X58295Y447350D01*
X58566Y447487D01*
X58826Y447639D01*
X59075Y447805D01*
X59314Y447985D01*
X59541Y448180D01*
X59757Y448389D01*
X59963Y448613D01*
X60157Y448849D01*
X60338Y449098D01*
X60507Y449359D01*
X60663Y449631D01*
X60807Y449916D01*
X60938Y450212D01*
X61057Y450520D01*
X61164Y450841D01*
X61257Y451173D01*
X61339Y451517D01*
X61407Y451873D01*
X61464Y452241D01*
X61508Y452621D01*
X61539Y453013D01*
X61558Y453417D01*
X61564Y453833D01*
X61558Y454230D01*
X61539Y454618D01*
X61507Y454994D01*
X61463Y455359D01*
X61406Y455714D01*
X61337Y456058D01*
X61255Y456390D01*
X61161Y456713D01*
X61053Y457024D01*
X60934Y457324D01*
X60801Y457614D01*
X60656Y457893D01*
X60499Y458160D01*
X60329Y458418D01*
X60146Y458664D01*
X59951Y458899D01*
X59744Y459122D01*
X59526Y459331D01*
X59299Y459525D01*
X59061Y459704D01*
X58812Y459870D01*
X58553Y460021D01*
X58284Y460157D01*
X58005Y460279D01*
X57715Y460387D01*
X57414Y460481D01*
X57103Y460560D01*
X56782Y460625D01*
X56450Y460675D01*
X56108Y460711D01*
X55756Y460732D01*
X55393Y460740D01*
X55027Y460732D01*
X54672Y460711D01*
X54327Y460676D01*
X53993Y460626D01*
X53669Y460562D01*
X53356Y460484D01*
X53054Y460392D01*
X52761Y460286D01*
X52480Y460165D01*
X52209Y460030D01*
X51949Y459881D01*
X51699Y459718D01*
X51459Y459541D01*
X51231Y459349D01*
X51012Y459144D01*
X50805Y458924D01*
X50609Y458691D01*
X50425Y458447D01*
X50254Y458192D01*
X50096Y457925D01*
X49951Y457646D01*
X49818Y457357D01*
X49698Y457056D01*
X49590Y456743D01*
X49495Y456419D01*
X49413Y456084D01*
X49343Y455737D01*
X49287Y455379D01*
X49242Y455010D01*
X49211Y454629D01*
X49192Y454236D01*
X49185Y453833D01*
X49192Y453431D01*
X49211Y453041D01*
X49243Y452661D01*
X49288Y452291D01*
X49345Y451932D01*
X49416Y451583D01*
X49499Y451245D01*
X49595Y450917D01*
X49704Y450600D01*
X49825Y450294D01*
X49959Y449997D01*
X50107Y449712D01*
X50267Y449436D01*
X50439Y449172D01*
X50625Y448918D01*
X50823Y448674D01*
X51033Y448443D01*
X51252Y448227D01*
X51482Y448026D01*
X51721Y447839D01*
X51971Y447668D01*
X52230Y447511D01*
X52499Y447370D01*
X52778Y447243D01*
X53067Y447131D01*
X53366Y447034D01*
X53675Y446952D01*
X53994Y446885D01*
X54323Y446833D01*
X54661Y446796D01*
X55010Y446774D01*
X55368Y446766D01*
G37*
%LPD*%
G36*
X29017Y445110D02*
X22551Y445110D01*
X22551Y462396D01*
X28268Y462396D01*
X28809Y462387D01*
X29335Y462361D01*
X29845Y462318D01*
X30339Y462258D01*
X30817Y462181D01*
X31280Y462086D01*
X31727Y461974D01*
X32159Y461845D01*
X32575Y461699D01*
X32975Y461536D01*
X33359Y461355D01*
X33728Y461157D01*
X34081Y460942D01*
X34419Y460710D01*
X34740Y460460D01*
X35046Y460194D01*
X35335Y459911D01*
X35606Y459614D01*
X35857Y459302D01*
X36090Y458976D01*
X36305Y458636D01*
X36500Y458281D01*
X36678Y457911D01*
X36836Y457527D01*
X36976Y457128D01*
X37097Y456715D01*
X37200Y456287D01*
X37283Y455845D01*
X37349Y455388D01*
X37395Y454917D01*
X37423Y454431D01*
X37433Y453931D01*
X37416Y453273D01*
X37367Y452635D01*
X37286Y452019D01*
X37172Y451423D01*
X37025Y450849D01*
X36846Y450295D01*
X36634Y449762D01*
X36390Y449250D01*
X36115Y448764D01*
X35814Y448306D01*
X35485Y447878D01*
X35129Y447479D01*
X34746Y447110D01*
X34336Y446770D01*
X33898Y446459D01*
X33433Y446177D01*
X32945Y445927D01*
X32439Y445710D01*
X31915Y445527D01*
X31372Y445377D01*
X30811Y445260D01*
X30231Y445177D01*
X29633Y445127D01*
X29017Y445110D01*
G37*
%LPC*%
G36*
X28747Y446987D02*
X29215Y447000D01*
X29669Y447039D01*
X30108Y447104D01*
X30533Y447196D01*
X30944Y447313D01*
X31340Y447456D01*
X31722Y447626D01*
X32090Y447821D01*
X32440Y448041D01*
X32769Y448284D01*
X33077Y448550D01*
X33364Y448839D01*
X33630Y449152D01*
X33876Y449487D01*
X34101Y449845D01*
X34304Y450226D01*
X34485Y450627D01*
X34642Y451046D01*
X34775Y451483D01*
X34884Y451937D01*
X34968Y452409D01*
X35029Y452899D01*
X35065Y453406D01*
X35077Y453931D01*
X35070Y454327D01*
X35050Y454710D01*
X35015Y455082D01*
X34967Y455442D01*
X34905Y455790D01*
X34830Y456127D01*
X34740Y456451D01*
X34637Y456763D01*
X34520Y457063D01*
X34389Y457352D01*
X34245Y457628D01*
X34087Y457893D01*
X33915Y458146D01*
X33729Y458386D01*
X33530Y458615D01*
X33317Y458832D01*
X33090Y459036D01*
X32852Y459227D01*
X32601Y459405D01*
X32338Y459570D01*
X32062Y459721D01*
X31775Y459860D01*
X31474Y459985D01*
X31162Y460097D01*
X30837Y460196D01*
X30500Y460281D01*
X30151Y460354D01*
X29789Y460413D01*
X29415Y460459D01*
X29029Y460492D01*
X28630Y460512D01*
X28219Y460519D01*
X24895Y460519D01*
X24895Y446987D01*
X28747Y446987D01*
G37*
%LPD*%
G36*
X-11907Y445110D02*
X-14336Y445110D01*
X-7281Y462396D01*
X-4619Y462396D01*
X2324Y445110D01*
X-68Y445110D01*
X-2043Y450164D01*
X-9919Y450164D01*
X-11907Y445110D01*
G37*
%LPC*%
G36*
X-2742Y451992D02*
X-4963Y457697D01*
X-5306Y458599D01*
X-5650Y459611D01*
X-5981Y460629D01*
X-6091Y460286D01*
X-6472Y459123D01*
X-6999Y457673D01*
X-9208Y451992D01*
X-2742Y451992D01*
G37*
%LPD*%
G36*
X11333Y444865D02*
X10811Y444877D01*
X10306Y444913D01*
X9817Y444973D01*
X9346Y445058D01*
X8891Y445167D01*
X8453Y445299D01*
X8032Y445456D01*
X7628Y445638D01*
X7244Y445842D01*
X6882Y446068D01*
X6541Y446316D01*
X6224Y446585D01*
X5928Y446877D01*
X5655Y447190D01*
X5404Y447525D01*
X5175Y447883D01*
X4971Y448259D01*
X4794Y448654D01*
X4644Y449066D01*
X4521Y449496D01*
X4426Y449943D01*
X4358Y450408D01*
X4317Y450891D01*
X4304Y451391D01*
X4304Y462396D01*
X6647Y462396D01*
X6647Y451588D01*
X6666Y451013D01*
X6722Y450475D01*
X6816Y449972D01*
X6947Y449505D01*
X7117Y449074D01*
X7323Y448678D01*
X7567Y448318D01*
X7849Y447993D01*
X8166Y447705D01*
X8517Y447456D01*
X8901Y447245D01*
X9318Y447073D01*
X9769Y446939D01*
X10253Y446843D01*
X10770Y446785D01*
X11321Y446766D01*
X11888Y446786D01*
X12422Y446846D01*
X12923Y446945D01*
X13393Y447084D01*
X13830Y447262D01*
X14234Y447480D01*
X14606Y447738D01*
X14946Y448036D01*
X15250Y448372D01*
X15512Y448744D01*
X15735Y449153D01*
X15917Y449599D01*
X16059Y450081D01*
X16160Y450600D01*
X16220Y451155D01*
X16241Y451747D01*
X16241Y462396D01*
X18571Y462396D01*
X18571Y451612D01*
X18558Y451097D01*
X18516Y450599D01*
X18446Y450120D01*
X18349Y449658D01*
X18224Y449215D01*
X18071Y448790D01*
X17890Y448382D01*
X17682Y447993D01*
X17448Y447624D01*
X17191Y447277D01*
X16911Y446953D01*
X16609Y446651D01*
X16283Y446372D01*
X15934Y446115D01*
X15562Y445880D01*
X15167Y445668D01*
X14752Y445480D01*
X14318Y445317D01*
X13866Y445179D01*
X13396Y445066D01*
X12908Y444978D01*
X12401Y444915D01*
X11876Y444877D01*
X11333Y444865D01*
G37*
G36*
X43308Y445110D02*
X40965Y445110D01*
X40965Y462396D01*
X43308Y462396D01*
X43308Y445110D01*
G37*
D10*
X298710Y462570D02*
X298710Y530570D01*
X356610Y530570D01*
X356610Y462570D01*
X298710Y462570D01*
X311360Y315330D02*
X311360Y191330D01*
X253860Y191330D02*
X253860Y315330D01*
X311360Y315330D01*
X311360Y191330D02*
X253860Y191330D01*
X121795Y74805D02*
X109095Y74805D01*
X102745Y81155D01*
X102745Y93855D01*
X109095Y100205D01*
X147195Y74805D02*
X153545Y81155D01*
X147195Y74805D02*
X134495Y74805D01*
X128145Y81155D01*
X128145Y93855D01*
X134495Y100205D01*
X147195Y100205D01*
X153545Y93855D01*
X128145Y81155D02*
X121795Y74805D01*
X128145Y93855D02*
X121795Y100205D01*
X109095Y100205D01*
X185295Y74805D02*
X197995Y74805D01*
X185295Y74805D02*
X178945Y81155D01*
X178945Y93855D01*
X185295Y100205D01*
X178945Y81155D02*
X172595Y74805D01*
X159895Y74805D01*
X153545Y81155D01*
X153545Y93855D01*
X159895Y100205D01*
X172595Y100205D01*
X178945Y93855D01*
X204345Y93855D02*
X204345Y81155D01*
X197995Y74805D01*
X204345Y93855D02*
X197995Y100205D01*
X185295Y100205D01*
X96395Y74805D02*
X83695Y74805D01*
X77345Y81155D01*
X77345Y93855D01*
X83695Y100205D01*
X102745Y81155D02*
X96395Y74805D01*
X102745Y93855D02*
X96395Y100205D01*
X83695Y100205D01*
D11*
X291620Y495300D03*
D12*
X285220Y544550D02*
X187420Y544550D01*
X285220Y544550D02*
X285220Y441750D01*
X187420Y441750D01*
X187420Y544550D01*
D11*
X177320Y495300D03*
D12*
X170920Y544550D02*
X73120Y544550D01*
X170920Y544550D02*
X170920Y441750D01*
X73120Y441750D01*
X73120Y544550D01*
D13*
X259070Y104482D02*
X259070Y84182D01*
X302270Y84182D01*
X302270Y104482D01*
X259070Y104482D01*
X259070Y94332D02*
X253310Y94332D01*
X302270Y94332D02*
X308030Y94332D01*
X302270Y109230D02*
X302270Y129530D01*
X259070Y129530D01*
X259070Y109230D01*
X302270Y109230D01*
X302270Y119380D02*
X308030Y119380D01*
X259070Y119380D02*
X253310Y119380D01*
X301918Y133712D02*
X301918Y154012D01*
X258718Y154012D01*
X258718Y133712D01*
X301918Y133712D01*
X301918Y143862D02*
X307678Y143862D01*
X258718Y143862D02*
X252958Y143862D01*
D12*
X63030Y373380D02*
X63045Y374607D01*
X63090Y375833D01*
X63165Y377058D01*
X63271Y378281D01*
X63406Y379501D01*
X63571Y380717D01*
X63766Y381928D01*
X63991Y383135D01*
X64245Y384335D01*
X64528Y385529D01*
X64841Y386716D01*
X65183Y387894D01*
X65554Y389064D01*
X65953Y390224D01*
X66380Y391375D01*
X66836Y392514D01*
X67320Y393642D01*
X67831Y394758D01*
X68369Y395861D01*
X68934Y396950D01*
X69526Y398025D01*
X70144Y399085D01*
X70787Y400130D01*
X71457Y401159D01*
X72151Y402170D01*
X72870Y403165D01*
X73613Y404142D01*
X74379Y405100D01*
X75170Y406039D01*
X75982Y406958D01*
X76818Y407857D01*
X77675Y408735D01*
X78553Y409592D01*
X79452Y410428D01*
X80371Y411240D01*
X81310Y412031D01*
X82268Y412797D01*
X83245Y413540D01*
X84240Y414259D01*
X85251Y414953D01*
X86280Y415623D01*
X87325Y416266D01*
X88385Y416884D01*
X89460Y417476D01*
X90549Y418041D01*
X91652Y418579D01*
X92768Y419090D01*
X93896Y419574D01*
X95035Y420030D01*
X96186Y420457D01*
X97346Y420856D01*
X98516Y421227D01*
X99694Y421569D01*
X100881Y421882D01*
X102075Y422165D01*
X103275Y422419D01*
X104482Y422644D01*
X105693Y422839D01*
X106909Y423004D01*
X108129Y423139D01*
X109352Y423245D01*
X110577Y423320D01*
X111803Y423365D01*
X113030Y423380D01*
X114257Y423365D01*
X115483Y423320D01*
X116708Y423245D01*
X117931Y423139D01*
X119151Y423004D01*
X120367Y422839D01*
X121578Y422644D01*
X122785Y422419D01*
X123985Y422165D01*
X125179Y421882D01*
X126366Y421569D01*
X127544Y421227D01*
X128714Y420856D01*
X129874Y420457D01*
X131025Y420030D01*
X132164Y419574D01*
X133292Y419090D01*
X134408Y418579D01*
X135511Y418041D01*
X136600Y417476D01*
X137675Y416884D01*
X138735Y416266D01*
X139780Y415623D01*
X140809Y414953D01*
X141820Y414259D01*
X142815Y413540D01*
X143792Y412797D01*
X144750Y412031D01*
X145689Y411240D01*
X146608Y410428D01*
X147507Y409592D01*
X148385Y408735D01*
X149242Y407857D01*
X150078Y406958D01*
X150890Y406039D01*
X151681Y405100D01*
X152447Y404142D01*
X153190Y403165D01*
X153909Y402170D01*
X154603Y401159D01*
X155273Y400130D01*
X155916Y399085D01*
X156534Y398025D01*
X157126Y396950D01*
X157691Y395861D01*
X158229Y394758D01*
X158740Y393642D01*
X159224Y392514D01*
X159680Y391375D01*
X160107Y390224D01*
X160506Y389064D01*
X160877Y387894D01*
X161219Y386716D01*
X161532Y385529D01*
X161815Y384335D01*
X162069Y383135D01*
X162294Y381928D01*
X162489Y380717D01*
X162654Y379501D01*
X162789Y378281D01*
X162895Y377058D01*
X162970Y375833D01*
X163015Y374607D01*
X163030Y373380D01*
X163015Y372153D01*
X162970Y370927D01*
X162895Y369702D01*
X162789Y368479D01*
X162654Y367259D01*
X162489Y366043D01*
X162294Y364832D01*
X162069Y363625D01*
X161815Y362425D01*
X161532Y361231D01*
X161219Y360044D01*
X160877Y358866D01*
X160506Y357696D01*
X160107Y356536D01*
X159680Y355385D01*
X159224Y354246D01*
X158740Y353118D01*
X158229Y352002D01*
X157691Y350899D01*
X157126Y349810D01*
X156534Y348735D01*
X155916Y347675D01*
X155273Y346630D01*
X154603Y345601D01*
X153909Y344590D01*
X153190Y343595D01*
X152447Y342618D01*
X151681Y341660D01*
X150890Y340721D01*
X150078Y339802D01*
X149242Y338903D01*
X148385Y338025D01*
X147507Y337168D01*
X146608Y336332D01*
X145689Y335520D01*
X144750Y334729D01*
X143792Y333963D01*
X142815Y333220D01*
X141820Y332501D01*
X140809Y331807D01*
X139780Y331137D01*
X138735Y330494D01*
X137675Y329876D01*
X136600Y329284D01*
X135511Y328719D01*
X134408Y328181D01*
X133292Y327670D01*
X132164Y327186D01*
X131025Y326730D01*
X129874Y326303D01*
X128714Y325904D01*
X127544Y325533D01*
X126366Y325191D01*
X125179Y324878D01*
X123985Y324595D01*
X122785Y324341D01*
X121578Y324116D01*
X120367Y323921D01*
X119151Y323756D01*
X117931Y323621D01*
X116708Y323515D01*
X115483Y323440D01*
X114257Y323395D01*
X113030Y323380D01*
X111803Y323395D01*
X110577Y323440D01*
X109352Y323515D01*
X108129Y323621D01*
X106909Y323756D01*
X105693Y323921D01*
X104482Y324116D01*
X103275Y324341D01*
X102075Y324595D01*
X100881Y324878D01*
X99694Y325191D01*
X98516Y325533D01*
X97346Y325904D01*
X96186Y326303D01*
X95035Y326730D01*
X93896Y327186D01*
X92768Y327670D01*
X91652Y328181D01*
X90549Y328719D01*
X89460Y329284D01*
X88385Y329876D01*
X87325Y330494D01*
X86280Y331137D01*
X85251Y331807D01*
X84240Y332501D01*
X83245Y333220D01*
X82268Y333963D01*
X81310Y334729D01*
X80371Y335520D01*
X79452Y336332D01*
X78553Y337168D01*
X77675Y338025D01*
X76818Y338903D01*
X75982Y339802D01*
X75170Y340721D01*
X74379Y341660D01*
X73613Y342618D01*
X72870Y343595D01*
X72151Y344590D01*
X71457Y345601D01*
X70787Y346630D01*
X70144Y347675D01*
X69526Y348735D01*
X68934Y349810D01*
X68369Y350899D01*
X67831Y352002D01*
X67320Y353118D01*
X66836Y354246D01*
X66380Y355385D01*
X65953Y356536D01*
X65554Y357696D01*
X65183Y358866D01*
X64841Y360044D01*
X64528Y361231D01*
X64245Y362425D01*
X63991Y363625D01*
X63766Y364832D01*
X63571Y366043D01*
X63406Y367259D01*
X63271Y368479D01*
X63165Y369702D01*
X63090Y370927D01*
X63045Y372153D01*
X63030Y373380D01*
X154356Y407205D02*
X154356Y414705D01*
X158106Y410955D02*
X150606Y410955D01*
D13*
X302270Y179060D02*
X302270Y158760D01*
X302270Y179060D02*
X259070Y179060D01*
X259070Y158760D01*
X302270Y158760D01*
X302270Y168910D02*
X308030Y168910D01*
X259070Y168910D02*
X253310Y168910D01*
D14*
X179340Y325570D02*
X179342Y325633D01*
X179348Y325695D01*
X179358Y325757D01*
X179371Y325819D01*
X179389Y325879D01*
X179410Y325938D01*
X179435Y325996D01*
X179464Y326052D01*
X179496Y326106D01*
X179531Y326158D01*
X179569Y326207D01*
X179611Y326255D01*
X179655Y326299D01*
X179703Y326341D01*
X179752Y326379D01*
X179804Y326414D01*
X179858Y326446D01*
X179914Y326475D01*
X179972Y326500D01*
X180031Y326521D01*
X180091Y326539D01*
X180153Y326552D01*
X180215Y326562D01*
X180277Y326568D01*
X180340Y326570D01*
X180403Y326568D01*
X180465Y326562D01*
X180527Y326552D01*
X180589Y326539D01*
X180649Y326521D01*
X180708Y326500D01*
X180766Y326475D01*
X180822Y326446D01*
X180876Y326414D01*
X180928Y326379D01*
X180977Y326341D01*
X181025Y326299D01*
X181069Y326255D01*
X181111Y326207D01*
X181149Y326158D01*
X181184Y326106D01*
X181216Y326052D01*
X181245Y325996D01*
X181270Y325938D01*
X181291Y325879D01*
X181309Y325819D01*
X181322Y325757D01*
X181332Y325695D01*
X181338Y325633D01*
X181340Y325570D01*
X181338Y325507D01*
X181332Y325445D01*
X181322Y325383D01*
X181309Y325321D01*
X181291Y325261D01*
X181270Y325202D01*
X181245Y325144D01*
X181216Y325088D01*
X181184Y325034D01*
X181149Y324982D01*
X181111Y324933D01*
X181069Y324885D01*
X181025Y324841D01*
X180977Y324799D01*
X180928Y324761D01*
X180876Y324726D01*
X180822Y324694D01*
X180766Y324665D01*
X180708Y324640D01*
X180649Y324619D01*
X180589Y324601D01*
X180527Y324588D01*
X180465Y324578D01*
X180403Y324572D01*
X180340Y324570D01*
X180277Y324572D01*
X180215Y324578D01*
X180153Y324588D01*
X180091Y324601D01*
X180031Y324619D01*
X179972Y324640D01*
X179914Y324665D01*
X179858Y324694D01*
X179804Y324726D01*
X179752Y324761D01*
X179703Y324799D01*
X179655Y324841D01*
X179611Y324885D01*
X179569Y324933D01*
X179531Y324982D01*
X179496Y325034D01*
X179464Y325088D01*
X179435Y325144D01*
X179410Y325202D01*
X179389Y325261D01*
X179371Y325321D01*
X179358Y325383D01*
X179348Y325445D01*
X179342Y325507D01*
X179340Y325570D01*
D13*
X170490Y344170D02*
X170490Y407670D01*
X266390Y407670D02*
X266390Y344170D01*
D10*
X54350Y465110D02*
X54350Y533110D01*
X54350Y465110D02*
X-3550Y465110D01*
X-3550Y533110D01*
X54350Y533110D01*
M02*
