G04 EAGLE Gerber RS-274X export*
G75*
%MOMM*%
%FSLAX34Y34*%
%LPD*%
%INSoldermask Bottom*%
%IPPOS*%
%AMOC8*
5,1,8,0,0,1.08239X$1,22.5*%
G01*
G04 Define Apertures*
%ADD10C,4.626991*%
%ADD11C,1.927000*%
%ADD12C,1.387000*%
%ADD13C,1.651000*%
%ADD14C,1.827000*%
%ADD15C,3.377000*%
%ADD16C,2.407000*%
%ADD17R,1.462000X1.462000*%
%ADD18C,1.462000*%
%ADD19C,1.577000*%
%ADD20R,1.297000X1.297000*%
%ADD21C,1.297000*%
D10*
X35560Y387350D03*
X35560Y44450D03*
X302260Y44450D03*
X302260Y387350D03*
D11*
X340360Y496570D03*
X314960Y496570D03*
D12*
X276860Y290830D03*
X276860Y265830D03*
X276860Y240830D03*
X276860Y215830D03*
D13*
X191645Y95125D02*
X191645Y79885D01*
X166245Y79885D02*
X166245Y95125D01*
X140845Y95125D02*
X140845Y79885D01*
X115445Y79885D02*
X115445Y95125D01*
X90045Y95125D02*
X90045Y79885D01*
D14*
X261620Y495300D03*
X236220Y520700D03*
X210820Y495300D03*
D15*
X80010Y245110D03*
X194310Y245110D03*
D16*
X58410Y215610D03*
X215910Y215610D03*
D17*
X92710Y181610D03*
D18*
X105410Y156210D03*
X118110Y181610D03*
X130810Y156210D03*
X143510Y181610D03*
X156210Y156210D03*
X168910Y181610D03*
X181610Y156210D03*
D14*
X147320Y495300D03*
X121920Y520700D03*
X96520Y495300D03*
D12*
X244470Y94332D03*
X316870Y94332D03*
X316870Y119380D03*
X244470Y119380D03*
X316518Y143862D03*
X244118Y143862D03*
D19*
X113030Y398780D03*
X113030Y347980D03*
D12*
X316870Y168910D03*
X244470Y168910D03*
D20*
X180340Y336220D03*
D21*
X205740Y336220D03*
X231140Y336220D03*
X256540Y336220D03*
X256540Y415620D03*
X231140Y415620D03*
X205740Y415620D03*
X180340Y415620D03*
D11*
X12700Y499110D03*
X38100Y499110D03*
M02*
